<svg xmlns="http://www.w3.org/2000/svg" id="Layer_1" data-name="Layer 1" viewBox="0 0 582.04 1137.42"><defs><style>.cls-1{fill:#a48cd7}.cls-2{fill:#6ac0db}.cls-3{fill:#843e3e}.cls-4{fill:#ff78af}.cls-5{fill:#f3ac31;stroke:#f3ac31}.cls-14,.cls-25,.cls-26,.cls-5{stroke-miterlimit:10}.cls-14,.cls-5{stroke-width:.62px}.cls-6{fill:#e4746e;stroke:#e4746e}.cls-21,.cls-24,.cls-28,.cls-6{stroke-linecap:round;stroke-linejoin:round}.cls-21,.cls-24,.cls-25,.cls-26,.cls-28,.cls-6{stroke-width:1.25px}.cls-7{fill:#733439}.cls-8{fill:#f93a3b}.cls-9{fill:#f58780}.cls-10{fill:#c65b5b}.cls-11{fill:#d66560}.cls-12{fill:#ff9788}.cls-13{fill:#ffa69d}.cls-14{fill:#ffb06d;stroke:#ffb06d}.cls-15{fill:#853c3e}.cls-16{fill:#ff4644}.cls-17{fill:#c7c7c9}.cls-18,.cls-21,.cls-24,.cls-25,.cls-26,.cls-28{fill:none}.cls-19{fill:#1c1919}.cls-20{fill:#d93636}.cls-21{stroke:#a2012d}.cls-22{fill:#ffedec}.cls-23{fill:#733434}.cls-24{stroke:#da6562}.cls-25{stroke:#552626}.cls-26{stroke:#100b0b}.cls-27{fill:#8975c4}.cls-28{stroke:#cf5a57}.cls-29{fill:#552626}.cls-30{fill:#ffedeb}.cls-31{font-size:46.8px;font-family:GurmukhiMN,Gurmukhi MN}.cls-32,.cls-34,.cls-35{font-family:MyriadPro-Regular,Myriad Pro}.cls-32,.cls-33{letter-spacing:0}.cls-35{font-size:56.98px}.cls-36{font-size:32.08px;font-family:InaiMathi,InaiMathi}.cls-37{font-size:70.56px;font-family:AdobeArabic-Regular,Adobe Arabic}.cls-38{font-size:51.44px;font-family:GujaratiMT,Gujarati MT}</style></defs><title>4</title><path d="M29.36,362.79S-21.53,429.37-21.06,442s35.9,339.45,35.9,339.45l154-155.15s7.62-246-28.12-288S29.36,362.79,29.36,362.79Z" class="cls-1" transform="translate(51.25 0.31)"/><path d="M389.72,792.57s54.7,0,69.36,54.19S474,1075.51,474,1075.51l-250.14,5.2S177,849.19,277.44,775.87,389.72,792.57,389.72,792.57Z" class="cls-2" transform="translate(51.25 0.31)"/><path d="M389.72,792.57s-58,25.32-87.76,15.92,13-27.14,13-27.14S407.28,756.15,389.72,792.57Z" class="cls-3" transform="translate(51.25 0.31)"/><path d="M401.52,756.1l-11.8,36.47-67.61.67,5.89-18S402.18,703.22,401.52,756.1Z" class="cls-3" transform="translate(51.25 0.31)"/><path d="M249.54,400.5s109.48,23,145.19,21.63,58.5-10.61,61.32,8.21S384.78,717,384.78,717L131.12,675.61Z" class="cls-4" transform="translate(51.25 0.31)"/><path d="M129.21,634.07S22.31,644.4,4.31,725,44,821.44,44,821.44L213.29,856s39-81.41,91.53-83.38S231,655.49,231,655.49" class="cls-5" transform="translate(51.25 0.31)"/><path d="M123.28,606.93s-20.31,1.42-18.7,9.24c.64,3.11,2.43,11.9,4.35,21.36,2.91,14.31,6.12,30.15,6.12,30.15s43.59,41.06,89.83,13l13.76-70.81Z" class="cls-5" transform="translate(51.25 0.31)"/><path d="M123.42,593.12l-1.2,20.41S158,639.12,193.1,629.26l4.41-22.5S161.52,558.19,123.42,593.12Z" class="cls-6" transform="translate(51.25 0.31)"/><path d="M254.38,144.77s-73.52,88.82-69,139.24,32.19,34.92,17.31,58.47-10.5,35.21-10.5,35.21l57.35,22.81,71.46-4Z" class="cls-7" transform="translate(51.25 0.31)"/><path d="M213.54,596.31s1.78,12.41,26,10.85,38-37.56,38-37.56S249.4,589,246.42,562.22,278,493.37,266.56,434s-51.89-69.66-71.35-63-14.94,179.25-14.94,179.25Z" class="cls-8" transform="translate(51.25 0.31)"/><path d="M213.8,411s45.59,6.83,41,59.55-26.61,131.07-50.73,135.92S101.7,592,108.59,530.62c0,0-21.8-3.12-22.59-24.11s12.42-36.6,23.73-15.34L121,512.41s1.23-54.57,13.5-60.29S205,438.31,213.8,411Z" class="cls-9" transform="translate(51.25 0.31)"/><path d="M290.79,344.42s15,49.36,9.19,52.21-50.44,3.87-50.44,3.87,24,27.35,74.41,22.17,61.33-28.58,61.33-28.58l-29-2.85s-3.55-41.91-3.16-49.15S290.79,344.42,290.79,344.42Z" class="cls-10" transform="translate(51.25 0.31)"/><path d="M261.19,168.82s-23.25,10.73-16.33,90,37.95,83.32,73.21,95.13c0,0,59.47-8.15,78.11-54.18l6.3-24.54s13.82-16.94,11.55-24.74-11.47-8.11-11.47-8.11l-1.83-13.73S320.68,231,295.37,204.32,261.19,168.82,261.19,168.82Z" class="cls-11" transform="translate(51.25 0.31)"/><path d="M32.65,258.22s5.69,46.43,22.64,78,66.76-6.45,66.76-6.45-9.27-19.36-10.54-35.74S32.47,235.89,32.65,258.22Z" class="cls-12" transform="translate(51.25 0.31)"/><path d="M178.72,159.44s-14,47.82-11.13,88.45l-23.94-7.64L136.25,253S114.87,243.3,107,225.2s-16,10.46-1.76,23.06,32.91,19.13,32.91,19.13S127.29,294.07,105,296.22,43.38,281.46,31.8,253s-10.72-58.06-10.72-58.06S4.91,184.37,7.46,164.56s12.63-48.43,24.33-34.42S43.92,156,43.92,156s24.22-54.78,45.84-56.25S178.51,83.9,178.72,159.44Z" class="cls-12" transform="translate(51.25 0.31)"/><path d="M331.08,576.78S282,668,283.46,708,312.39,778.5,349,774.5s82.39-45.14,93.26-70.51c0,0,27.74-13.52,32.49-26.84s2.17-29.64-12-23.2-18,9.87-18,9.87,5-42.23,22.54-64.57C467.26,599.25,398.85,492.11,331.08,576.78Z" class="cls-3" transform="translate(51.25 0.31)"/><path d="M186.54,898.81a65,65,0,0,0-1.44-16.54l-58.35,3.07-1.88,14.82C140.32,898.23,169.64,895.37,186.54,898.81Z" class="cls-9" transform="translate(51.25 0.31)"/><path d="M48.61,770s-.54,38.12,12,58c0,0-25-17.46-24.25,1.57s17,32.86,34.54,27.61c0,0,23.78,38.52,74.27,36s50-16.33,50-16.33,36.63-56.56,4.69-137.48c0,0-19-51.18-61.6-48.27S45.08,711,48.61,770Z" class="cls-13" transform="translate(51.25 0.31)"/><path d="M191.8,175.37s28.54-9.61,28.14-37.85-9-29.88-9-29.88,13.42,7.38,12.82-8.37-13.53-45.48-69.57-50.6c0,0,4-33.65-30.8-33,0,0,18.39,0,3.08-5.37S67-17,66.64,26.35c0,0-80.39-23.91-74.15,54.69,0,0-36.95,13.21-35.89,41.42s12,21.89,12,21.89-21.38,8-19.4,25.69,15.44,26.35,20.69,26.16c0,0,.54,49.25,34.87,53.87S21.7,263.88,21.7,263.88s16.25-4.55,7.91-16.72c0,0-7.71-12.85-3.07-11.71s9.21.31,9-4.94c0,0-11.68,3.72-12.15-8.74s6-14.68,6-14.68-7.17,1.58-7.36-3.66S37,198.27,36.77,193c0,0-11.61,5.69-15.69,1.9s-12.75-24.48-6.8-41.13,25.89-27.91,28.08-4.34S34.75,174,34.75,174s17.13,1.33,17.65-19.71c0,0,4,19.56,31.28,10.65,0,0-11.55-10.08-12-21.23,0,0,3,11.05,18.11,9.83,0,0-13.59-12-11.68-31.09,0,0,15.3,22.42,32.81,16.5s29.7-31.34,29.7-31.34,12.17,44.21,38.08,51.78c0,0-4.89-7.7-1.76-11.76C177,147.68,177.76,168.67,191.8,175.37Z" class="cls-14" transform="translate(51.25 0.31)"/><path d="M254.38,144.77s9.33,91,80.91,90.24,67.28,7.32,67.28,7.32,21.75,1.81-.08,32.85c0,0-4.2,45.49-49.38,66.89,0,0-3.6,44.15,3.16,49.15s107,14.37,107,14.37,22-42.87-5.83-85.18-20.18-64.93-19.48-116.2S372.88,64.11,254.38,144.77Z" class="cls-15" transform="translate(51.25 0.31)"/><path d="M213.8,411S198.93,365,164.69,363,47.25,419.27,47.13,503.36s29.73,109.25,98.43,84.33c0,0-37.25-12.4-37-57.08,0,0-19.93-5.82-18-25.6s8.39-21.34,13.79-17.6S120,519,121.92,518.29s-1.61-60.38,12.62-66.17S208,450,213.8,411Z" class="cls-16" transform="translate(51.25 0.31)"/><path d="M474,655.49s18.17-58.49,15.75-70.23-14.17-44.8-55.81-51.77-111.66,18-129.55-3.67c0,0-1.14,39.46,44.64,51.53S406.51,591,406.51,591s-20.24,3.39-35.38,2.64c0,0,52.52,16.42,89,8.48,0,0-16.55,31.5-15.42,61.67l.35,9.18S464.34,644,474,655.49Z" class="cls-17" transform="translate(51.25 0.31)"/><path d="M294.61,655s8.4-3.6,11-3.7-1.09,6,4.79,5.08,4.49-2.8,9.84-.37,21.05,18.26,27,18,21.57-2.78,21.57-2.78-1.16,4,4.13,5.1,23.57-2.2,27,1.61,10.87,9.45,16.75,8.57,17.54-5.26,20.31-1.42,6.4,12.9,9.68,12.77,1.15,13.1.59,15.74-15,37.35-24.71,41.66l-.39-10.5s-28.29,33.91-45.88,37.86l1.67-7.95s-25,17.36-34.81,17.73l3-6.68L335.38,796s-12.44,1.12-24.21-14.86l-.29,9.86s-9.48-7.53-10.1-23.93l-2.33,8s-9.41-5.56-14.74-25.07l-2.91,10a107.71,107.71,0,0,1-4.08-38.61l-7,4.86S270.39,675,294.61,655Z" class="cls-17" transform="translate(51.25 0.31)"/><path d="M184.2,898.39l.81-12.62s28.89-35.25,27.11-100.22c-.65-23.71-18.67-59.74-18.67-59.74s-72.23,18.48-126.13,35L55,766.5,54.65,756s-9.72,38.47,6,72c0,0-9.46-6.87-16.67-6.6S33.9,833,38.83,842s19.69,17,32.1,15.22c0,0,26,26.62,55.17,34.71,0,0-.3,3.19-.82,8.17C140.16,898.26,167.21,895.66,184.2,898.39Z" class="cls-18" transform="translate(51.25 0.31)"/><path d="M125.3,900.1c-.15,1.45-.32,3.05-.51,4.77,21,5.29,44.84,2.66,59,.18l.43-6.66C167.21,895.66,140.16,898.26,125.3,900.1Z" class="cls-9" transform="translate(51.25 0.31)"/><path d="M219,723.55c-16.9-30.24-64.66-60-96.73-56.8S68.07,676,33.19,744.33s-5.86,211.1-5.86,211.1,82.35,6.1,87.52,3.94c3.7-1.55,7.86-35.34,9.94-54.49l-.51-.12.58-4.6.43-.05c.52-5,.82-8.17.82-8.17-29.21-8.1-55.17-34.71-55.17-34.71C58.52,859,43.77,851,38.83,842S36.76,821.71,44,821.44,60.65,828,60.65,828c-15.71-33.57-6-72-6-72L55,766.5l12.27-5.72c53.91-16.48,126.13-35,126.13-35s18,36,18.67,59.74c1.79,65-27.11,100.22-27.11,100.22l-.81,12.62c.8.13,1.59.27,2.34.42a33,33,0,0,1-.86,5.9l-1.91.34-2.91,45.26,37.8-8,7.06-21.94C267.65,812.37,219,723.55,219,723.55Z" class="cls-19" transform="translate(51.25 0.31)"/><path d="M124.86,900.16l-.58,4.6.51.12c.19-1.72.36-3.32.51-4.77Z" class="cls-20" transform="translate(51.25 0.31)"/><path d="M132.09,753.75s15.91,38.82,32.63,46.73c0,0-17.37,9.85-23.93,10.1C140.79,810.57,127.92,782.81,132.09,753.75Z" class="cls-9" transform="translate(51.25 0.31)"/><path d="M160.12,835.47s-18.85,5.31-36.91-3.21-15.6,4.53-10.08,11.55,25,17.46,33.88,9.89" class="cls-21" transform="translate(51.25 0.31)"/><path d="M124.28,904.75l-.41,3.25s55.79,10.38,60.46.57a20.45,20.45,0,0,0,1.35-3.86C171.75,907.29,146.31,910.46,124.28,904.75Z" class="cls-13" transform="translate(51.25 0.31)"/><path d="M186.54,898.81c-.75-.15-1.54-.29-2.34-.42l-.43,6.66,1.91-.34c6.47-1.2,10.46-2.27,10.46-2.27C193.89,900.8,190.56,899.63,186.54,898.81Z" class="cls-20" transform="translate(51.25 0.31)"/><path d="M124.82,905.61l0-5.45c-6.23.78-10.21,1.4-10.21,1.4C116.78,903.61,121.52,904.75,124.82,905.61Z" class="cls-20" transform="translate(51.25 0.31)"/><path d="M196.14,902.43s-62,11.53-81.49-.88l-7.92,51.54L68.42,965s51.08,13.19,96.8,6.21,47.12-22.14,47.12-22.14l-31.49,1.18S197.1,928,196.14,902.43Z" class="cls-16" transform="translate(51.25 0.31)"/><path d="M197.17,863.52s94.15-30.65,180.37-25.17c131.74,8.36,182.19,128.19,9.81,134.49-39.48,1.44-84.09.22-120.06-18.21a71,71,0,0,1-30.53-30.52,47.1,47.1,0,0,1-5.22-22.19c.24-8.23,5-14.38,6.67-22.23C241.8,863,206.92,863.92,197.17,863.52Z" class="cls-22" transform="translate(51.25 0.31)"/><path d="M365.65,605c1.66,4.87-14,24.13-17.16,28.42-6.49,8.68-15,16.67-23.66,23.73-6.77,5.54-20.66,12.32-21.21,22.2-.5,9.13,10.46,9.42,17.2,8.8C345,686,374.51,631,365.65,605Z" class="cls-23" transform="translate(51.25 0.31)"/><path d="M349.52,700.25s28-5.65,38.68-2.11-14.27,22.22-28.32,15.52" class="cls-24" transform="translate(51.25 0.31)"/><path d="M377.85,649.91s6.84-27.85,21.47-23.14,3.93,34.67,8.52,34.5" class="cls-25" transform="translate(51.25 0.31)"/><path d="M334.59,635.11s6.91-25.88-1.59-24.9-15.05,19-17,19" class="cls-25" transform="translate(51.25 0.31)"/><path d="M154.86,765.37s24.52,5.65,40.5-6.12" class="cls-26" transform="translate(51.25 0.31)"/><path d="M67.11,790.35s22.53,5.07,39.6-12.66" class="cls-26" transform="translate(51.25 0.31)"/><path d="M308.32,713s-27.63,3.3-33.58-16.43c0,0,44.36-36.67,7.3-66.15S137.25,667,148.46,701.3s63.79,41.14,108,10.06C256.44,711.36,271.5,729.87,308.32,713Z" class="cls-27" transform="translate(51.25 0.31)"/><path d="M229.07,467.62s1.06,63,13.12,86.88C242.19,554.5,189.77,575.52,229.07,467.62Z" class="cls-6" transform="translate(51.25 0.31)"/><path d="M202.91,523.13s-13.31,13-48.06-2.79a30.3,30.3,0,0,1,6-15.33" class="cls-25" transform="translate(51.25 0.31)"/><path d="M194.5,526.73s1.83-3.68-2.78-21.57" class="cls-25" transform="translate(51.25 0.31)"/><path d="M246.29,506.39a52,52,0,0,1,2,17" class="cls-25" transform="translate(51.25 0.31)"/><path d="M236.36,521.87s10.66,3.87,17.76.65" class="cls-25" transform="translate(51.25 0.31)"/><path d="M210.68,563.9s-15-5.68-23.51-5-6.68,23.24,10.86,18" class="cls-28" transform="translate(51.25 0.31)"/><path d="M321.56,236.84s-20.84,57.28-5,58S332.52,283.73,321.56,236.84Z" class="cls-10" transform="translate(51.25 0.31)"/><path d="M301.92,308.53s14.8,9.3,28.94.88,21-18.53,23.15-13.35-3.15,21.14-15.59,22.26" class="cls-21" transform="translate(51.25 0.31)"/><path d="M349.64,267.32s1.76-23.06,12.26-23.45,12.7,23.17,14.64,22.44a37.85,37.85,0,0,0,5.78-3.5" class="cls-25" transform="translate(51.25 0.31)"/><path d="M293.22,269.44s-3.49-22.86-14-22.47S268.32,271,266.33,270.45a37.83,37.83,0,0,1-6-3.06" class="cls-25" transform="translate(51.25 0.31)"/><path d="M272.24,497.53s32.22.76,34.59-23.64S327.2,369.33,409,377.43s115.43,117.19,17,138.63-104.45-34.83-104.45-34.83S311.68,515.76,272.24,497.53Z" class="cls-2" transform="translate(51.25 0.31)"/><path d="M397.53,259.35s13.23-37.8,6.93-47.75-66.61-7.38-71.14-52.2,37.38-95.52,129.8-71.35,91.92,153-15,142.07l-17.35-2.95S426.57,249.94,397.53,259.35Z" class="cls-5" transform="translate(51.25 0.31)"/><path d="M144.9,203.41a1.31,1.31,0,0,1-1-2.25c6.55-6.42,8.52-23.67,8.54-23.85a1.31,1.31,0,0,1,2.61.29C155,178.35,153,196,145.77,203A1.31,1.31,0,0,1,144.9,203.41Z" class="cls-29" transform="translate(51.25 0.31)"/><path d="M150.3,207.15a1.31,1.31,0,0,1-.42-.05c-10.14-3-26.8-18.34-27.5-19l-.64-.59.29-.82c.05-.15,1.4-3.76,7.41-8.11a1.31,1.31,0,0,1,1.54,2.13,21.77,21.77,0,0,0-6.09,6.13c3.34,3,17.32,15.27,25.72,17.73a1.31,1.31,0,0,1-.32,2.57Z" class="cls-29" transform="translate(51.25 0.31)"/><path d="M178.72,159.44s-34.94,49.27-35.06,80.81l23.94,7.64S170.24,195.89,178.72,159.44Z" class="cls-9" transform="translate(51.25 0.31)"/><path d="M99.71,329.27l-74-28.75,3.65,62.27s63.27,5.5,78.2,18.08Z" class="cls-30" transform="translate(51.25 0.31)"/><path d="M104.32,329.75s12.08-28,16.68-28.22l19.77,36.7s-18.92,21.08-18.47,32.88C122.3,371.12,108.94,330.24,104.32,329.75Z" class="cls-30" transform="translate(51.25 0.31)"/><path d="M128.47,260.36l41.91,6.18s21.34-31,60.08-20.36S304.87,340.78,246.71,368s-97.84-8.39-87.08-76.88Z" class="cls-22" transform="translate(51.25 0.31)"/><path d="M-5.38,970.56s101-41.78,217.41-29.84c0,0,40.68-13.34,57,56.24,57.59,244.84-276.22,94.46-276.22,94.46Z" class="cls-16" transform="translate(51.25 0.31)"/><text x="51.25" y=".31" class="cls-31"><tspan x="306.37" y="918.3">ਸਤ</tspan><tspan x="358.54" y="918.3" class="cls-32"> </tspan><tspan x="368.46" y="918.3" class="cls-33">ਸ੍ਰੀ</tspan><tspan x="428.63" y="918.3" class="cls-34"> </tspan><tspan x="438.55" y="918.3">ਅਕਾਲ</tspan></text><text class="cls-35" transform="translate(392.93 472.14)">hello</text><text class="cls-36" transform="matrix(0.94, -0.33, 0.33, 0.94, 215.97, 706.34)">வணக்கம்</text><text class="cls-37" transform="translate(215.97 324.64) scale(0.91 1)">ہیلو</text><text class="cls-38" transform="translate(396.56 169.47) scale(1.31 1)">નમસ્તે</text></svg>