<svg width="500" height="500" xmlns="http://www.w3.org/2000/svg">
 <defs>
  <style>.cls-1{fill:#fff;}.cls-2,.cls-3{fill:#e5e5e5;}.cls-3{opacity:0.4;}.cls-4{fill:#673547;}.cls-5{fill:#4a222b;}.cls-6{fill:#003578;}.cls-7{fill:#ff5351;}.cls-8{fill:#00529b;}.cls-9{fill:#e53841;}.cls-10{fill:#fdb487;}.cls-11{fill:#183354;}.cls-12{fill:#f48568;}.cls-13{fill:#df4dc0;}.cls-14{fill:#f1a000;}.cls-15{fill:#ffb015;}.cls-16{fill:#00856e;}.cls-17{fill:#08a869;}</style>
 </defs>
 <title>6</title>
 <g>
  <title>background</title>
  <rect fill="#cdf4eb" id="canvas_background" height="502" width="502" y="-1" x="-1"/>
 </g>
 <g>
  <title>Layer 1</title>
  <g id="BACKGROUND">
   <rect id="svg_123" height="0" width="1" y="48.11458" x="-261.5" fill-opacity="null" stroke-opacity="null" stroke-width="null" stroke="null" fill="null"/>
  </g>
  <g id="OBJECTS">
   <ellipse id="svg_2" ry="14.49" rx="230.77" cy="417.14" cx="244.91" class="cls-2"/>
   <path id="svg_3" d="m363,187.78a131.88,131.88 0 1 1 -242.3,37.06l0,0c0,-0.13 0.17,-0.64 0.34,-1.44c0.72,-3.47 1.08,-10.42 -3.51,-14.94c-5.8,-5.72 -8.84,-5 -9.85,-8.83c-1.73,-6.51 9.26,-9.07 11.85,-0.21c2.54,8.69 8.3,3.1 8.54,2.87l0,0a131.89,131.89 0 0 1 235,-14.49l-0.07,-0.02z" class="cls-2"/>
   <path id="svg_4" d="m153.23,164l0,0l0,0z" class="cls-3"/>
   <path id="svg_5" d="m154.26,162.88c-0.55,0.61 -0.92,1 -1,1.07l1,-1.07z" class="cls-3"/>
   <path id="svg_6" d="m466.37,178.85l-61,0s2.68,-17.2 10.22,-16.53c2.09,0.18 3.51,2.3 4.44,4.57a1.58,1.58 0 0 0 3,-0.15c2,-7 6.07,-17.66 12.4,-17.66c6.54,0 6.76,12.2 6.28,19.64a1.1,1.1 0 0 0 2,0.69c1.73,-2.54 4.24,-5 7.31,-4.27c2.62,0.6 3.77,3.31 4.25,6.17a0.85,0.85 0 0 0 1.64,0.16c1.59,-4.23 4.42,-10.39 7.42,-10.52c4.6,-0.2 2.04,17.9 2.04,17.9z" class="cls-2"/>
   <path id="svg_7" d="m286.59,76.3l-61,0s2.68,-17.2 10.22,-16.53c2.09,0.18 3.51,2.3 4.44,4.57a1.58,1.58 0 0 0 3,-0.15c2,-7 6.07,-17.66 12.4,-17.66c6.54,0 6.76,12.2 6.28,19.64a1.1,1.1 0 0 0 2,0.69c1.73,-2.54 4.24,-5 7.31,-4.27c2.62,0.6 3.77,3.32 4.25,6.17a0.85,0.85 0 0 0 1.64,0.16c1.59,-4.23 4.42,-10.39 7.42,-10.52c4.6,-0.2 2.04,17.9 2.04,17.9z" class="cls-2"/>
   <path id="svg_8" d="m82.23,178.85l-61,0s2.68,-17.2 10.22,-16.53c2.09,0.18 3.51,2.3 4.44,4.57a1.58,1.58 0 0 0 3,-0.15c2,-7 6.07,-17.66 12.4,-17.66c6.54,0 6.76,12.2 6.28,19.64a1.1,1.1 0 0 0 2,0.69c1.73,-2.54 4.24,-5 7.31,-4.27c2.62,0.6 3.77,3.32 4.25,6.17a0.85,0.85 0 0 0 1.64,0.16c1.59,-4.23 4.42,-10.39 7.42,-10.52c4.61,-0.2 2.04,17.9 2.04,17.9z" class="cls-2"/>
   <path id="svg_9" d="m68.76,100.83s2.38,-15.27 9.08,-14.68c1.85,0.16 3.11,2 3.94,4.06a1.41,1.41 0 0 0 2.66,-0.14c1.77,-6.21 5.4,-15.68 11,-15.68c5.81,0 6,10.84 5.58,17.44a1,1 0 0 0 1.79,0.61c1.53,-2.26 3.77,-4.42 6.49,-3.79c5.3,1.22 3.87,12.18 3.87,12.18l-44.41,0z" class="cls-2"/>
   <path id="svg_10" d="m374.71,100.83s2.38,-15.27 9.08,-14.68c1.85,0.16 3.11,2 3.94,4.06a1.41,1.41 0 0 0 2.66,-0.14c1.77,-6.21 5.4,-15.68 11,-15.68c5.81,0 6,10.84 5.58,17.44a1,1 0 0 0 1.79,0.61c1.53,-2.26 3.77,-4.42 6.49,-3.79c5.3,1.22 3.87,12.18 3.87,12.18l-44.41,0z" class="cls-2"/>
   <path id="svg_11" d="m184.29,114.38s-19.47,6.17 -16,14s11.26,-7.17 22.75,-7.57s9.68,-12.18 -6.75,-6.43z" class="cls-2"/>
   <path id="svg_12" d="m317.37,119.7a4.74,4.74 0 0 0 -3.93,-2.36c-3.21,-0.17 -9.31,0.53 -9.35,8.2c-0.09,9.46 17.06,0.99 13.28,-5.84z" class="cls-2"/>
   <path id="svg_13" d="m210.34,108a2.26,2.26 0 0 0 -1.79,-1.26c-1.53,-0.19 -4.45,-0.07 -4.74,3.59c-0.35,4.52 8.09,1.09 6.53,-2.33z" class="cls-2"/>
   <path id="svg_14" d="m353.71,365.58s16.71,-11.75 11,-18.16s-8.57,10.23 -19.41,14.07s-5.52,14.51 8.41,4.09z" class="cls-2"/>
   <path id="svg_15" d="m330.79,379.48a2.26,2.26 0 0 0 2.09,0.66c1.51,-0.28 4.27,-1.28 3.43,-4.85c-1.02,-4.38 -8.03,1.44 -5.52,4.19z" class="cls-2"/>
   <path id="svg_16" d="m112.73,226.61a3.26,3.26 0 0 0 -1.52,-2.77c-1.85,-1.22 -5.72,-2.92 -8.41,1.62c-3.3,5.54 9.8,6.54 9.93,1.15z" class="cls-2"/>
   <rect id="svg_17" ry="9.32" rx="9.32" height="87.97" width="62.63" y="248.54" x="274.51" class="cls-4"/>
   <rect id="svg_18" height="2.69" width="55.6" y="356.81" x="277.53" class="cls-5"/>
   <rect id="svg_19" height="2.69" width="55.6" y="368.66" x="277.53" class="cls-5"/>
   <polygon id="svg_20" points="271.2300109863281,417.1400146484375 284.4200134277344,333.510009765625 278.55999755859375,332.5799865722656 265.2300109863281,417.1400146484375 271.2300109863281,417.1400146484375 " class="cls-4"/>
   <polygon id="svg_21" points="345.42999267578125,417.1400146484375 332.1000061035156,332.5799865722656 326.25,333.510009765625 339.42999267578125,417.1400146484375 345.42999267578125,417.1400146484375 " class="cls-4"/>
   <path id="svg_22" d="m325.42,301.49s-0.43,15.25 -4,19.83s-24.09,4.37 -31.39,1.32s-5.74,-21.15 -5.74,-21.15a51,51 0 0 0 41.13,0z" class="cls-6"/>
   <path id="svg_23" d="m300.14,238.4l-16.78,5.11l0.41,64.85s18.33,8.59 41.54,1l2,-66.44l-17.43,-4.48l-9.74,-0.04z" class="cls-7"/>
   <path id="svg_24" d="m298.52,357.15c0.18,-2.2 1.27,-23.62 1.27,-34.62c0,-14.67 -7.14,-19.7 -15,-15.75c-10.69,5.38 -5.64,26.69 -5.64,26.69l6.07,73c3.36,1 5.29,1.6 8.55,0.5c0,0.03 1.39,-7.56 4.75,-49.82z" class="cls-8"/>
   <path id="svg_25" d="m288.12,405a5.54,5.54 0 0 0 -3.61,3l-1.05,2.12c-1.12,2.25 -2.57,8.57 2.25,9c6,0.56 10.39,0.27 11.55,-3.11s-3.49,-8.94 -3.49,-8.94a5.69,5.69 0 0 0 -5.65,-2.07z" class="cls-7"/>
   <path id="svg_26" d="m310.4,357.15c-0.18,-2.2 -1.27,-23.62 -1.27,-34.62c0,-14.67 7.14,-19.7 15,-15.75c10.69,5.38 5.64,26.69 5.64,26.69l-5.13,74.24c-3.36,1 -6,0.38 -9.23,-0.72c0,0.01 -1.65,-7.58 -5.01,-49.84z" class="cls-8"/>
   <path id="svg_27" d="m318.44,405a5.54,5.54 0 0 0 -3.61,3l-1.05,2.12c-1.12,2.25 -2.57,8.57 2.25,9c6,0.56 10.39,0.27 11.55,-3.11s-3.49,-8.94 -3.49,-8.94a5.69,5.69 0 0 0 -5.65,-2.07z" class="cls-7"/>
   <path id="svg_28" d="m283.37,243.51s-13.06,19.28 -21.2,39.6a5.47,5.47 0 0 0 5.07,7.51l34.21,0l-1.36,-6.76s-18.53,-1.52 -24.45,-3.12l9.15,-15.19s4.21,-12.55 -1.42,-22.04z" class="cls-9"/>
   <path id="svg_29" d="m300.09,283.85s4.81,-1.55 9,-0.55s11.25,3.55 11.25,7.32l-18.89,0s-3.32,-3.37 -1.36,-6.77z" class="cls-10"/>
   <path id="svg_30" d="m327.3,242.88s13.06,19.91 21.2,40.22a5.47,5.47 0 0 1 -5.07,7.51l-34.21,0l1.36,-6.76s18.55,-2.49 24.48,-4.08l-8.71,-15.72s-3.4,-12.12 0.95,-21.17z" class="cls-9"/>
   <path id="svg_31" d="m310.58,283.85s-4.81,-1.55 -9,-0.55s-11.25,3.55 -11.25,7.32l18.87,0s3.34,-3.37 1.38,-6.77z" class="cls-10"/>
   <path id="svg_32" d="m282.87,209.53a4.59,4.59 0 0 0 2.12,3a4.19,4.19 0 0 0 -0.77,3c0.22,2.47 2,2.95 4,2.67c1.78,-0.25 3,0.19 6.16,1c3.81,2.79 12.27,8 14.68,10.34c2.78,2.68 7,1.78 8,-1.06a3.34,3.34 0 0 0 -1.11,-4.15a3.87,3.87 0 0 0 3.43,-3.44c0.52,-3.27 -2.2,-3.69 -2.2,-3.69s1.49,-0.63 1.62,-3.43a3.43,3.43 0 0 0 -2.25,-3.54s2.29,-3 0.74,-5.75s-4.56,-1 -4.56,-1a4.18,4.18 0 0 0 -2.25,-4.26c-2.77,-1.6 -5.9,0.45 -5.9,0.45a4.12,4.12 0 0 0 -3.52,-3.18a4.94,4.94 0 0 0 -5.34,2.4a3.52,3.52 0 0 0 -4.28,-1.39c-2.87,1 -3.09,3 -3.09,3c-0.78,-1.65 -4.54,-1.61 -5.61,0.73c-1.44,3.12 1.09,4.36 1.09,4.36a3.7,3.7 0 0 0 -0.96,3.94z" class="cls-11"/>
   <path id="svg_33" d="m298.81,231.82l0.54,6.59l0.25,3c3.87,2.71 10,-1.32 10,-1.32l0.27,-10.35c-1.79,-1.14 -6.16,0.52 -8.86,1.34c-1.33,0.41 -2.2,0.74 -2.2,0.74z" class="cls-10"/>
   <path id="svg_34" d="m298.81,231.82l0.54,6.59c4.44,-1.15 8,-7.43 8,-7.43l-6.41,0.12c-1.26,0.39 -2.13,0.72 -2.13,0.72z" class="cls-12"/>
   <path id="svg_35" d="m286.31,215.07c0,0.23 0,0.45 0,0.69a103.32,103.32 0 0 0 1.9,13.24a7.84,7.84 0 0 0 9.42,6.13a86.55,86.55 0 0 0 10,-2.82a7.1,7.1 0 0 0 2.66,-1.73a7,7 0 0 0 1.36,-2a23.78,23.78 0 0 0 1.61,-5.16a36.44,36.44 0 0 0 0.58,-4.39a2.11,2.11 0 0 1 0,-0.27c0,-0.8 0,-1.6 -0.08,-2.38l0,0c-0.19,-4.8 -0.53,-8.94 -0.53,-8.94c-6.45,-7.62 -23.83,-4.16 -26.35,1.59c0,0.11 -0.09,0.22 -0.13,0.33a16.68,16.68 0 0 0 -0.44,5.71z" class="cls-10"/>
   <path id="svg_36" d="m310.31,230.58a7,7 0 0 0 1.36,-2a23.78,23.78 0 0 0 1.61,-5.16a4.62,4.62 0 0 0 -2.7,0.47s-3.58,5.44 -0.27,6.69z" class="cls-11"/>
   <path id="svg_37" d="m286.81,209.37l0,0c5.32,3.42 14.19,-1.37 14.19,-1.37c0.58,2.39 4.08,2.25 5,4.26a12.89,12.89 0 0 1 0.85,4a1.86,1.86 0 0 0 1.9,1.71l0,0c2.27,-3.3 5.1,-1.55 5.1,-1.55l0,0c-0.19,-4.8 -0.53,-8.94 -0.53,-8.94c-6.45,-7.62 -23.83,-4.16 -26.35,1.59c-0.08,0.07 -0.12,0.18 -0.16,0.3z" class="cls-11"/>
   <path id="svg_38" d="m308.72,217.94s2.71,-3.46 5.1,-1.55c2.63,2.1 0.84,9.48 -4.41,9.44l-0.69,-7.89z" class="cls-10"/>
   <path id="svg_39" d="m289.29,278.72l30,0a0,0 0 0 1 0,0l0,2.69a9.22,9.22 0 0 1 -9.22,9.22l-11.6,0a9.22,9.22 0 0 1 -9.22,-9.22l0,-2.69a0,0 0 0 1 0.04,0z" class="cls-11"/>
   <rect id="svg_40" ry="6.7" rx="6.7" height="88.24" width="62.82" y="246.51" x="163.59" class="cls-4"/>
   <rect id="svg_41" height="2.7" width="55.77" y="355.11" x="166.62" class="cls-5"/>
   <rect id="svg_42" height="2.7" width="55.77" y="366.99" x="166.62" class="cls-5"/>
   <polygon id="svg_43" points="160.3000030517578,415.6199951171875 173.52999877929688,331.7300109863281 167.66000366210938,330.80999755859375 154.2899932861328,415.6199951171875 160.3000030517578,415.6199951171875 " class="cls-4"/>
   <polygon id="svg_44" points="234.72999572753906,415.6199951171875 221.36000061035156,330.80999755859375 215.49000549316406,331.7300109863281 228.72000122070312,415.6199951171875 234.72999572753906,415.6199951171875 " class="cls-4"/>
   <path id="svg_45" d="m182.53,245.07c9,2.7 16.85,4.26 28.64,1.81c1.47,-5.83 7.41,-24.52 8.31,-33.35a28.24,28.24 0 0 0 -1,-8.35c-1.45,-4.71 -5.73,-10 -15.56,-10.4c-11.6,-0.42 -18.07,10.67 -17.78,23.11c0.21,7.34 -1.97,22.77 -2.61,27.18z" class="cls-11"/>
   <path id="svg_46" d="m180.77,280.3l-8.33,26.5s36.06,4.6 47.09,1.62l-5.6,-28.86l3.88,-37.68a53.69,53.69 0 0 0 -17,-4.15c-8.53,-0.62 -13.92,0.79 -22.64,4.4l2.6,38.17z" class="cls-13"/>
   <polygon id="svg_47" points="196.5,400.2799987792969 197.17999267578125,406.3999938964844 204.57000732421875,406.9100036621094 204.22999572753906,401.4700012207031 196.5,400.2799987792969 " class="cls-10"/>
   <path id="svg_48" d="m197.18,406.4a7.74,7.74 0 0 0 -2,3.72c-0.61,2.44 -1.16,8.65 4.06,9s10.3,0.52 10.56,-3.17s-5.2,-9 -5.2,-9c-2.6,-1.32 -5.11,-1.63 -7.42,-0.55z" class="cls-13"/>
   <path id="svg_49" d="m195.18,298.86s-16.84,-0.93 -22.55,3.74s-4.56,18.06 1.25,21.72s15.72,10.84 15.72,10.84l5.58,66.91l10,1s6.73,-67.9 2.82,-80.07s-12.82,-24.14 -12.82,-24.14z" class="cls-6"/>
   <polygon id="svg_50" points="167.7899932861328,378.6300048828125 166.08999633789062,385.760009765625 172.97000122070312,387.1199951171875 175.77999877929688,380.75 167.7899932861328,378.6300048828125 " class="cls-10"/>
   <path id="svg_51" d="m203.74,297.83s-11.28,-3.89 -17.89,4.28s-20.23,77.8 -20.23,77.8l10.89,3.5l23.64,-62.28s19.87,11.34 22.28,-4.78c1.91,-12.77 -18.69,-18.52 -18.69,-18.52z" class="cls-8"/>
   <path id="svg_52" d="m173.87,385.08s0.3,9 -1.48,11.18s-5.31,10 -11.56,12.6s-11.62,-1.51 -4.84,-9.67a128.14,128.14 0 0 0 10.71,-15.94s1.3,2.41 7.17,1.83z" class="cls-13"/>
   <path id="svg_53" d="m217.81,241.88a418.18,418.18 0 0 1 19.57,41a5.5,5.5 0 0 1 -5.1,7.55l-34.4,0l1.1,-5.46s20.47,-2.93 26.63,-3.06l-10,-18.81s-1.9,-12.42 2.2,-21.22z" class="cls-10"/>
   <path id="svg_54" d="m199,284.92a21.29,21.29 0 0 0 -9.05,-1.19c-4.28,0.45 -9.25,3.08 -9.25,6.87l17.2,-0.21a5.68,5.68 0 0 0 1.1,-5.47z" class="cls-10"/>
   <path id="svg_55" d="m178.21,242.13s-12.9,20.28 -21.08,40.7a5.5,5.5 0 0 0 5.1,7.55l34.4,0l-1.1,-5.46s-20.47,-2.93 -26.63,-3.06l10.76,-18.21s2.65,-12.72 -1.45,-21.52z" class="cls-10"/>
   <path id="svg_56" d="m195.53,284.92a21.29,21.29 0 0 1 9.05,-1.19c4.28,0.45 9.25,3.08 9.25,6.87l-17.2,-0.21a5.68,5.68 0 0 1 -1.1,-5.47z" class="cls-10"/>
   <path id="svg_57" d="m203.53,231.41l-0.51,2.87l-0.58,3.24l-0.5,2.8a6.24,6.24 0 0 1 -5.22,0.1a15.32,15.32 0 0 1 -4,-2.21l0,-0.23l0.09,-1.06l0.58,-7.16l0.12,-1.5c0.9,-0.46 2.3,-0.13 3.79,0.44s3,1.34 4.22,1.84s2.01,0.87 2.01,0.87z" class="cls-10"/>
   <path id="svg_58" d="m203.53,231.41l-1.09,6.11c-4,-1.46 -6.83,-7.65 -6.83,-7.65l6,0.68c1.13,0.45 1.92,0.86 1.92,0.86z" class="cls-12"/>
   <path id="svg_59" d="m210.07,234a13.85,13.85 0 0 1 -7.05,0.23a22.66,22.66 0 0 1 -6,-2.24a31.86,31.86 0 0 1 -3.62,-2.27c-0.8,-0.58 -1.46,-1.11 -1.92,-1.49s-0.77,-0.69 -0.77,-0.69s-0.1,-1.54 -0.07,-3.77a48.37,48.37 0 0 1 0.79,-8.45c0.7,-3.5 2,-6.66 4.32,-7.73l3.81,0l18,0.17s0,0.27 0.05,0.76c0.06,1.06 0.14,3.16 0.08,5.71c0,0.19 0,0.38 0,0.58c-0.15,7.19 -1.57,17.33 -7.62,19.19z" class="cls-10"/>
   <path id="svg_60" d="m192.81,231.27a25.54,25.54 0 0 1 -2,-3.68s-0.1,-1.54 -0.07,-3.77l1.62,0.91s2.19,5.27 0.45,6.54z" class="cls-11"/>
   <path id="svg_61" d="m194.5,217.57s-2.22,-3.66 -4.74,-1.65c-2.78,2.22 -1.53,10 4,10l0.74,-8.35z" class="cls-10"/>
   <path id="svg_62" d="m217.7,208.59c-0.06,2.33 -4.14,4.66 -19.05,4.8c0,0 0,6.87 -2.94,6.25c-0.7,-0.15 -1.39,-4.08 -4.23,-4.27c0.7,-3.5 2,-6.66 4.32,-7.73l21.86,0.2s0.02,0.26 0.04,0.75z" class="cls-11"/>
   <path id="svg_63" d="m200.09,208.45s-1.76,10.28 -2.74,20.26c-0.11,1.12 -0.21,2.23 -0.29,3.33c-0.2,2.53 -2.1,5.4 -4.29,5.95l0.67,-8.22c-0.81,-0.58 -1.46,-1.11 -1.92,-1.5s-0.77,-0.68 -0.77,-0.68s-0.1,-1.54 -0.07,-3.77a47.88,47.88 0 0 1 0.79,-8.45c0.7,-3.5 2,-6.66 4.32,-7.73l3.81,0a1.53,1.53 0 0 1 0.49,0.81z" class="cls-11"/>
   <path id="svg_64" d="m181.61,278.72l30,0a0,0 0 0 1 0,0l0,2.69a9.22,9.22 0 0 1 -9.22,9.22l-11.6,0a9.22,9.22 0 0 1 -9.22,-9.22l0,-2.69a0,0 0 0 1 0.04,0z" class="cls-11"/>
   <path id="svg_65" d="m128.81,278.72l30,0a0,0 0 0 1 0,0l0,2.69a9.22,9.22 0 0 1 -9.22,9.22l-11.59,0a9.22,9.22 0 0 1 -9.22,-9.22l0,-2.69a0,0 0 0 1 0.03,0z" class="cls-11"/>
   <path id="svg_66" d="m56.74,313s1.48,17.08 14.51,17.08s29.81,1.93 39.9,11.1c0,0 3.11,19.47 9.68,30.63c5.07,8.61 14.27,35.63 14.27,35.63c3.22,1 6.28,0.89 9,-0.93c0,0 -17.13,-70.86 -21.13,-77.25s-14.86,-17.67 -66.23,-16.26z" class="cls-6"/>
   <path id="svg_67" d="m135,407a4.11,4.11 0 0 0 -0.53,2.27c0,1.53 0.15,6.81 0.15,6.81l25.78,0a7.66,7.66 0 0 0 -3.17,-6.16c-3.26,-2.14 -8.28,0 -13.08,-3.41c0,0.01 -1.28,1.19 -9.15,0.49z" class="cls-14"/>
   <path id="svg_68" d="m93.61,331.1l0,10.17l-62.61,0l0,-10.17l-1.79,-60.83a5.56,5.56 0 0 1 5.56,-5.72l0,0a5.56,5.56 0 0 1 5.52,4.88l7.54,61.67l45.78,0z" class="cls-4"/>
   <rect id="svg_69" height="2.54" width="52.4" y="360.4" x="37.22" class="cls-5"/>
   <rect id="svg_70" height="2.54" width="52.4" y="371.57" x="37.22" class="cls-5"/>
   <polygon id="svg_71" points="31.279998779296875,417.2699890136719 43.709999084472656,338.44000244140625 38.189998626708984,337.57000732421875 25.6200008392334,417.2699890136719 31.279998779296875,417.2699890136719 " class="cls-4"/>
   <polygon id="svg_72" points="101.20999908447266,417.2699890136719 88.63999938964844,337.57000732421875 83.12999725341797,338.44000244140625 95.55999755859375,417.2699890136719 101.20999908447266,417.2699890136719 " class="cls-4"/>
   <path id="svg_73" d="m132.3,252.6a23,23 0 0 1 2.36,-3.7c1.3,-1.59 2.94,-3.48 3.76,-4.45c1,-1.16 1.86,0.31 0.58,2s-1.57,2.07 -1.57,2.07s6.42,-5.08 8.55,-5.67c1.94,-0.54 -1.47,2.44 -4.14,5.06c0,0 7.06,-3.83 8.25,-3.16c1.56,0.87 -7,5.49 -7,5.49s6.82,-2.46 7,-1.61s-6.47,4.33 -6.47,4.33s4.83,-1.28 4.75,-0.67c-0.16,1.21 -9.69,6 -14.45,4.94c0,0 -1.92,-3.48 -1.62,-4.63z" class="cls-10"/>
   <path id="svg_74" d="m81.79,243.13s9.21,16.87 18.14,21.42c0,0 25.84,-9.65 32.72,-12.71l1.82,5.87s-23,14.87 -33.61,17.07s-21.86,-13.15 -21.86,-13.15l2.79,-18.5z" class="cls-14"/>
   <path id="svg_75" d="m70.67,235.57a27.74,27.74 0 0 0 -15.15,17.43c-2.86,9.24 -8.72,60.69 -8.72,60.69s26,8.3 35.59,1.27c0,0 -2.09,-19.1 3.14,-49.83c2.41,-14.13 -5.16,-26.93 -5.16,-26.93l-9.7,-2.63z" class="cls-15"/>
   <path id="svg_76" d="m83.75,234.72l-1.75,3.68l-1.51,3.25c-4,-0.26 -8,-1.31 -10.51,-4.17l2.06,-6c0.7,-1.23 2.74,-1.81 5,-1.58a7.77,7.77 0 0 1 6.71,4.82z" class="cls-10"/>
   <path id="svg_77" d="m83.75,234.72l-1.75,3.68c-2.91,-2.32 -4.51,-6.86 -5,-8.51a7.77,7.77 0 0 1 6.75,4.83z" class="cls-12"/>
   <path id="svg_78" d="m99.83,206s1.85,6.75 0.62,17s-2,15 -8.7,15.48c-4,0.3 -16.74,-8 -20,-14.17s-2.34,-20.62 3.3,-22.17s16.15,-2.7 24.78,3.86z" class="cls-10"/>
   <path id="svg_79" d="m95.46,229.31a36.19,36.19 0 0 0 -4.46,2.25a8.37,8.37 0 0 0 0.85,1.68c2.19,3.11 5.92,1.93 5.92,1.93s-0.14,4 -2.75,4.56s-10,0.6 -8.52,-19.46l1.92,-0.76a78.47,78.47 0 0 0 1.78,9.57c1.16,-0.82 3.49,-2.29 5.13,-2.22a12.16,12.16 0 0 1 4.47,1.26a2.06,2.06 0 0 1 -0.37,2.12s-2.69,-1.32 -3.97,-0.93z" class="cls-11"/>
   <path id="svg_80" d="m100.37,219.05l2.21,6.84a1.48,1.48 0 0 1 -1.59,1.92l-2.38,-0.3l1.76,-8.46z" class="cls-10"/>
   <path id="svg_81" d="m89.85,208.17a6.29,6.29 0 0 1 -2.11,5.8l0.67,5.54l-1.91,0.76s-1.86,-5.55 -5.19,-5.46s-6.41,9.19 2.69,12.83c0,0 -2.28,5.93 -11.79,3.86c0,0 -2.13,-9.8 -3.08,-16c-0.23,-1.39 -3.13,-8.27 1.57,-11.5c0,0 2.31,-7.26 9.58,-6.66c9.91,0.82 19.38,-4 22.85,3.23c1.71,3.57 0.4,9 -5.46,8.11a34.92,34.92 0 0 0 -7.82,-0.51z" class="cls-11"/>
   <path id="svg_82" d="m75.56,242.07s-9.22,-2.17 -11.18,6.78c0,0 9.09,35.73 24.59,41.55l38.23,0l-1.37,-6.81a87.37,87.37 0 0 1 -16,-1.61c-11.38,-2.18 -19.83,-4.06 -19.83,-4.06s-6.78,-24.39 -14.44,-35.85z" class="cls-14"/>
   <path id="svg_83" d="m125.83,283.59s4.84,-1.56 9,-0.55s11.32,3.57 11.32,7.36l-19,0s-3.3,-3.4 -1.32,-6.81z" class="cls-10"/>
   <path id="svg_84" d="m46.8,314s1.48,17.08 14.51,17.08s29.81,1.93 39.9,11.1c0,0 3.11,19.47 9.68,30.63c5.11,8.64 14.44,34.19 14.44,34.19c3.47,1.2 6.7,1.62 9.14,-0.49c0,0 -17.4,-69.85 -21.39,-76.24s-14.91,-17.67 -66.28,-16.27z" class="cls-8"/>
   <path id="svg_85" d="m125.33,407a4.11,4.11 0 0 0 -0.53,2.27c0,1.53 0.15,6.81 0.15,6.81l25.77,0a7.66,7.66 0 0 0 -3.17,-6.16c-3.26,-2.14 -8.28,0 -13.08,-3.41c0.01,0.01 -1.27,1.19 -9.14,0.49z" class="cls-15"/>
   <path id="svg_86" d="m349,279.74l30,0a0,0 0 0 1 0,0l0,2.69a9.22,9.22 0 0 1 -9.22,9.22l-11.6,0a9.22,9.22 0 0 1 -9.22,-9.22l0,-2.69a0,0 0 0 1 0.04,0z" class="cls-11"/>
   <path id="svg_87" d="m442.92,314s-1.48,17.08 -14.51,17.08s-29.81,1.93 -39.9,11.1c0,0 -3.11,19.47 -9.68,30.63c-5.07,8.61 -14.27,35.63 -14.27,35.63c-3.22,1 -6.28,0.89 -9,-0.93c0,0 17.13,-70.86 21.13,-77.25s14.86,-17.65 66.23,-16.26z" class="cls-6"/>
   <path id="svg_88" d="m364.65,408a4.11,4.11 0 0 1 0.53,2.27c0,1.53 -0.15,6.81 -0.15,6.81l-25.77,0a7.66,7.66 0 0 1 3.17,-6.16c3.26,-2.14 8.28,0 13.08,-3.41c0,0.03 1.28,1.21 9.14,0.49z" class="cls-14"/>
   <path id="svg_89" d="m406,332.12l0,10.18l62.7,0l0,-10.18l1.79,-60.83a5.56,5.56 0 0 0 -5.56,-5.72l0,0a5.56,5.56 0 0 0 -5.52,4.88l-7.54,61.67l-45.87,0z" class="cls-4"/>
   <rect id="svg_90" height="2.54" width="52.4" y="361.42" x="410.04" class="cls-5"/>
   <rect id="svg_91" height="2.54" width="52.4" y="372.59" x="410.04" class="cls-5"/>
   <polygon id="svg_92" points="468.3800048828125,418.2900085449219 455.95001220703125,339.4599914550781 461.4700012207031,338.5899963378906 474.0299987792969,418.2900085449219 468.3800048828125,418.2900085449219 " class="cls-4"/>
   <polygon id="svg_93" points="398.44000244140625,418.2900085449219 411.010009765625,338.5899963378906 416.5299987792969,339.4599914550781 404.1000061035156,418.2900085449219 398.44000244140625,418.2900085449219 " class="cls-4"/>
   <path id="svg_94" d="m417.87,244.15s-9.22,16.83 -18.15,21.42c0,0 -25.8,-10.82 -32.69,-13.88l-1.62,7s22.74,14.87 33.38,17.07s21.91,-13.15 21.91,-13.15l-2.83,-18.46z" class="cls-16"/>
   <path id="svg_95" d="m355.55,246.93c1.7,0.43 3,0.77 2.1,0.13c-1.71,-1.27 -1.76,-3.63 -0.69,-3.33a8.61,8.61 0 0 1 4.25,2.72c1.8,1.91 5.83,5.23 5.83,5.23c0,3 -0.42,5.46 -1.62,7c0,0 -7,1.46 -10.75,-1.85a50.8,50.8 0 0 1 0.88,-9.9z" class="cls-10"/>
   <path id="svg_96" d="m339.26,259.74q6.11,3.95 14.67,1.5l2.05,-20.1l-14.67,-1.5l-2.05,20.1z" class="cls-11"/>
   <path id="svg_97" d="m354.1,258.17c1.92,-0.42 5.67,-2.32 6.1,-6.54s-2.86,-6.81 -4.66,-7.6l-0.78,1.79l0.39,-0.9l-0.39,0.9c0.16,0.07 3.89,1.77 3.5,5.61s-4.52,4.82 -4.57,4.83l0.41,1.91z" class="cls-11"/>
   <path id="svg_98" d="m353.5,247.41a1.9,1.9 0 0 1 2.89,-1.47a3.56,3.56 0 0 1 1.26,1.05c1.82,2 1.31,10.19 -3,9.89c-1.65,-0.11 -1.74,-4.8 -1.15,-9.47z" class="cls-10"/>
   <path id="svg_99" d="m429,236.59a27.74,27.74 0 0 1 15.14,17.41c2.86,9.24 8.72,60.69 8.72,60.69s-26,8.3 -35.59,1.27c0,0 2.09,-19.1 -3.14,-49.83c-2.4,-14.13 5.16,-26.93 5.16,-26.93l9.71,-2.61z" class="cls-17"/>
   <path id="svg_100" d="m415.91,235.74l1.71,3.68l1.51,3.25c4,-0.26 8,-1.31 10.51,-4.17l-2.06,-6c-0.7,-1.23 -2.74,-1.81 -5,-1.58a7.77,7.77 0 0 0 -6.67,4.82z" class="cls-10"/>
   <path id="svg_101" d="m415.91,235.74l1.71,3.68c2.91,-2.32 4.51,-6.86 5,-8.51a7.77,7.77 0 0 0 -6.71,4.83z" class="cls-12"/>
   <path id="svg_102" d="m399.83,207.05s-1.85,6.75 -0.62,17s2,15 8.7,15.49c4,0.3 16.74,-8 20,-14.17s2.34,-20.62 -3.3,-22.17s-16.15,-2.74 -24.78,3.85z" class="cls-10"/>
   <path id="svg_103" d="m399.29,220.07l-2.21,6.84a1.48,1.48 0 0 0 1.59,1.92l2.38,-0.3l-1.76,-8.46z" class="cls-10"/>
   <path id="svg_104" d="m419.39,198.37c7.26,-0.6 9.58,6.66 9.58,6.66c4.66,3.22 1.79,10.1 1.58,11.49c-1,6.19 -3.08,16 -3.08,16c-9.51,2.07 -11.79,-3.86 -11.79,-3.86c9.08,-3.64 6,-12.75 2.69,-12.83s-5.19,5.46 -5.19,5.46l-1.91,-0.76l0.67,-5.54a6.29,6.29 0 0 1 -2.11,-5.8a34.92,34.92 0 0 0 -7.81,0.52s-7.29,0.42 -8.94,-6.33s1.86,-10.25 1.86,-10.25s0.1,5.13 4.11,4.75c0,0 -1.92,-0.81 -1.74,-3.94c0,0 6.25,4.19 12.81,3.31s9.27,1.12 9.27,1.12z" class="cls-11"/>
   <path id="svg_105" d="m424.1,243.09s9.22,-2.17 11.18,6.78c0,0 -9.09,35.73 -24.59,41.55l-38.23,0l1.37,-6.81a87.37,87.37 0 0 0 16,-1.61c11.35,-2.18 19.75,-4.06 19.75,-4.06s6.86,-24.39 14.52,-35.85z" class="cls-16"/>
   <path id="svg_106" d="m373.83,284.61s-4.84,-1.56 -9,-0.55s-11.32,3.57 -11.32,7.36l19,0s3.3,-3.42 1.32,-6.81z" class="cls-10"/>
   <path id="svg_107" d="m452.86,315s-1.48,17.08 -14.51,17.08s-29.81,1.93 -39.9,11.1c0,0 -3.11,19.47 -9.68,30.63c-5.07,8.66 -14.44,34.19 -14.44,34.19c-3.47,1.2 -6.7,1.62 -9.14,-0.49c0,0 17.4,-69.85 21.39,-76.24s14.91,-17.65 66.28,-16.27z" class="cls-8"/>
   <path id="svg_108" d="m374.33,408a4.11,4.11 0 0 1 0.53,2.27c0,1.53 -0.15,6.81 -0.15,6.81l-25.77,0a7.66,7.66 0 0 1 3.17,-6.16c3.26,-2.14 8.28,0 13.08,-3.41c-0.01,0.03 1.28,1.21 9.14,0.49z" class="cls-15"/>
   <rect id="svg_109" height="5.4" width="300.75" y="316.78" x="101.07" class="cls-5"/>
   <rect id="svg_110" height="14.67" width="317.59" y="292.86" x="91.05" class="cls-5"/>
   <rect id="svg_111" ry="2.95" rx="2.95" height="7.63" width="337.28" y="290.4" x="81.2" class="cls-4"/>
   <polygon id="svg_112" points="103.9000015258789,419.2900085449219 96.9800033569336,419.2900085449219 93.66000366210938,307.5299987792969 107.2300033569336,307.5299987792969 103.9000015258789,419.2900085449219 " class="cls-5"/>
   <rect id="svg_113" height="111.75" width="13.57" y="307.53" x="393.08" class="cls-5"/>
   <path id="svg_114" d="m255.71,290.4l-11.71,0a3.69,3.69 0 0 1 -3.51,-2.55l-5,-15.34a1,1 0 0 1 0.89,-1.33a172.61,172.61 0 0 1 27,0a1,1 0 0 1 0.89,1.33l-5,15.34a3.69,3.69 0 0 1 -3.56,2.55z" class="cls-11"/>
   <ellipse id="svg_115" ry="0.74" rx="13.25" cy="272.29" cx="249.91" class="cls-5"/>
   <path id="svg_116" d="m250.39,261.39s-0.13,-8.57 -10.92,-9.9c0,0 0.38,12.15 10.92,9.9z" class="cls-16"/>
   <path id="svg_117" d="m249.21,244.2l0,28a2.09,2.09 0 0 0 1.24,0l0,-28a0.62,0.62 0 0 0 -0.62,-0.62l0,0a0.62,0.62 0 0 0 -0.62,0.62z" class="cls-17"/>
   <path id="svg_118" d="m249.67,251.76s6.34,6 13.59,-5.69c0,0 -12.56,-2.52 -13.59,5.69z" class="cls-17"/>
   <path id="svg_119" d="m250.1,261.24s7.08,5.11 12.72,-7.45c0,0 -12.82,-0.79 -12.72,7.45z" class="cls-17"/>
   <path id="svg_120" d="m249.83,262.33s-0.25,-8.73 -13.65,-5.56c0,-0.01 7.12,10.64 13.65,5.56z" class="cls-17"/>
   <path id="svg_121" d="m250.47,251.32s0,-8.73 -13.51,-5.9c0.04,0 6.86,10.82 13.51,5.9z" class="cls-17"/>
   <path id="svg_122" d="m249.67,245.7s8.14,-3.17 0.65,-14.72c0,0.02 -7.64,10.29 -0.65,14.72z" class="cls-17"/>
  </g>
  <rect id="svg_124" height="3" width="0" y="580.11458" x="508.5" fill-opacity="null" stroke-opacity="null" stroke-width="null" stroke="null" fill="null"/>
 </g>
</svg>