<svg xmlns="http://www.w3.org/2000/svg" viewBox="0 0 682.64 432.39"><defs><style>.cls-1{fill:#d1f4f5;}.cls-2{fill:#9ee6e0;}.cls-3{fill:#422c4f;}.cls-4{fill:#99a3b0;}.cls-5{fill:#797c99;}.cls-6{fill:#495375;}.cls-7{fill:#eba58e;}.cls-8{fill:#de7274;}.cls-9{fill:#fff;}.cls-10{fill:#5088ba;}.cls-11{fill:#6ca7d3;}.cls-12{fill:#bd6c67;}.cls-13{fill:#8c404c;}.cls-14{fill:#457ba3;}.cls-15{fill:#a64f5a;}.cls-16{fill:#df8d6d;}.cls-17{fill:#fbeed1;}.cls-18{fill:#f7dd8c;}.cls-19{fill:#537496;}.cls-20{fill:#eca85e;}.cls-21{fill:#f4d071;}.cls-22{fill:#6081a8;}.cls-23{fill:#f2c9ad;}.cls-24{fill:#6a3649;}.cls-25{fill:#454f6b;}.cls-26{fill:#984058;}.cls-27{fill:#472948;}.cls-28{fill:#6ca8bc;}.cls-29{fill:#468097;}.cls-30{fill:#e68799;}.cls-31{fill:#e36b85;}.cls-32{fill:#eba25d;}.cls-33{fill:none;stroke:#422c4f;stroke-linecap:round;stroke-linejoin:round;stroke-width:0.5px;}.cls-34{fill:#4893d8;}.cls-35{fill:#377fb5;}</style></defs><title>7</title><g id="BACKGROUND"><path class="cls-1" d="M720.62,284.24A179.2,179.2,0,0,0,541.42,105c-3.65,0-7.28.12-10.88.34a214.15,214.15,0,0,0-164.76-77.1c-101.1,0-185.86,69.92-208.6,164a141.89,141.89,0,0,0-62.43,236.6H647.17A178.94,178.94,0,0,0,720.62,284.24Z" transform="translate(-37.98 -28.28)"/></g><g id="OBJECT"><path class="cls-2" d="M712,444.83h0a3.17,3.17,0,0,0-3.17-3.17h-22a3.17,3.17,0,0,1-3.17-3.17h0a3.17,3.17,0,0,0-3.17-3.17h-5.87a3.17,3.17,0,0,1-3.17-3.17h0a3.17,3.17,0,0,0-3.17-3.17H81.71a3.17,3.17,0,0,0-3.17,3.17h0a3.17,3.17,0,0,1-3.17,3.17H69.5a3.17,3.17,0,0,0-3.17,3.17h0a3.17,3.17,0,0,1-3.17,3.17h-22A3.17,3.17,0,0,0,38,444.83h0A3.17,3.17,0,0,0,41.15,448h200a3.17,3.17,0,0,1,3.17,3.17h0a3.17,3.17,0,0,1-3.17,3.17H129.65a3.17,3.17,0,0,0-3.17,3.17h0a3.17,3.17,0,0,0,3.17,3.17H675.2a3.17,3.17,0,0,0,3.17-3.17h0a3.17,3.17,0,0,0-3.17-3.17H567.69a3.17,3.17,0,0,1-3.17-3.17h0a3.17,3.17,0,0,1,3.17-3.17H708.85A3.17,3.17,0,0,0,712,444.83Z" transform="translate(-37.98 -28.28)"/><path class="cls-2" d="M108.73,460.67H83.07a3.17,3.17,0,0,1-3.17-3.17h0a3.17,3.17,0,0,1,3.17-3.17h25.67a3.17,3.17,0,0,1,3.17,3.17h0A3.17,3.17,0,0,1,108.73,460.67Z" transform="translate(-37.98 -28.28)"/><polygon class="cls-3" points="404.93 312.5 400.01 312.5 398.7 324.29 403.93 321.46 404.93 312.5"/><polygon class="cls-4" points="398.7 324.29 390.35 399.16 395.26 399.16 403.93 321.46 398.7 324.29"/><polygon class="cls-4" points="441.6 322.98 433.1 399.16 438.01 399.16 446.83 320.15 441.6 322.98"/><polygon class="cls-3" points="447.68 312.5 442.76 312.5 441.6 322.98 446.83 320.15 447.68 312.5"/><polygon class="cls-3" points="466.18 312.5 461.27 312.5 462.46 323.25 467.1 320.75 466.18 312.5"/><polygon class="cls-4" points="475.85 399.16 467.1 320.75 462.46 323.25 470.93 399.16 475.85 399.16"/><polygon class="cls-3" points="508.94 312.5 504.02 312.5 505.14 322.53 509.77 320.02 508.94 312.5"/><polygon class="cls-4" points="518.6 399.16 509.77 320.02 505.14 322.53 513.68 399.16 518.6 399.16"/><path class="cls-5" d="M434.45,340.77h0a27.31,27.31,0,0,1,24.79-15.86h32.54l17.59-114.52,24.72-20h15.66a32,32,0,0,1,31.63,36.86l-14.83,96.55a20,20,0,0,1-19.77,17Z" transform="translate(-37.98 -28.28)"/><path class="cls-6" d="M418.8,340.77h0a27.31,27.31,0,0,1,24.79-15.86h32.54l15-97.64a43.48,43.48,0,0,1,43-36.87h0a32,32,0,0,1,31.63,36.86L552.55,313a14,14,0,0,1-13.84,11.87H518.19a27.31,27.31,0,0,0-24.79,15.86H418.8Z" transform="translate(-37.98 -28.28)"/><path class="cls-7" d="M465.53,190.48A17.1,17.1,0,0,0,489,181.33h-3.87a4,4,0,0,1-4-4V164l-17.25,4.5v9.67a4,4,0,0,1-4,4h-2.41A17.43,17.43,0,0,0,465.53,190.48Z" transform="translate(-37.98 -28.28)"/><path class="cls-3" d="M481.17,164c-2.92,10.42-8.92,14.75-17.25,11.83V168.5Z" transform="translate(-37.98 -28.28)"/><path class="cls-3" d="M447.92,149c-6.75-5.08-4.5-15.5-3.5-17a17.68,17.68,0,0,1-6.23-5.89,9.88,9.88,0,0,1-1-8.17,7,7,0,0,1,6.4-4.73c3.31.06,5.92,2.76,9,3.84s6.63.48,9.87-.36,6.5-1.9,9.83-1.65A12.75,12.75,0,0,1,484,125.68a6.75,6.75,0,0,1,8.12,2.22c1.59,2.4,1.36,5.53,1,8.39-.69,5.17-3.49,17.64-4.72,22.71L479,161.33Z" transform="translate(-37.98 -28.28)"/><path class="cls-7" d="M485.53,151.67a6.93,6.93,0,0,1,3.82-3.09,4.49,4.49,0,0,1,4.6,1.22,4.82,4.82,0,0,1,.89,4,10.7,10.7,0,0,1-1.7,3.81,12.47,12.47,0,0,1-2.44,2.91,5.93,5.93,0,0,1-3.46,1.44,3.92,3.92,0,0,1-3.33-1.51c-.84-1.17-.6-2.82-.22-4.13A18.33,18.33,0,0,1,485.53,151.67Z" transform="translate(-37.98 -28.28)"/><path class="cls-8" d="M487.06,159.93a1.91,1.91,0,0,1-1.53-.68c-.13-.19-.4-.8.07-2.41a16.76,16.76,0,0,1,1.63-4.11,5,5,0,0,1,2.67-2.23,2.85,2.85,0,0,1,.78-.11,2.29,2.29,0,0,1,1.74.7,2.87,2.87,0,0,1,.45,2.31,9,9,0,0,1-1.41,3.09,10.38,10.38,0,0,1-2,2.45,4,4,0,0,1-2.27,1Z" transform="translate(-37.98 -28.28)"/><path class="cls-7" d="M482.42,147.83a12.21,12.21,0,0,1-6.94-12.74,40.35,40.35,0,0,1-25.89-.55,19.3,19.3,0,0,0-2.92,10.21v9.33a19.42,19.42,0,0,0,19.42,19.42h0a19.41,19.41,0,0,0,18.65-14.07,11.56,11.56,0,0,1-1.4-1.8A11.37,11.37,0,0,1,482.42,147.83Z" transform="translate(-37.98 -28.28)"/><path class="cls-3" d="M451.25,143.26a5.87,5.87,0,0,0-3.83,3.83l8.46-2.12A4.56,4.56,0,0,0,451.25,143.26Z" transform="translate(-37.98 -28.28)"/><ellipse class="cls-3" cx="414.08" cy="121.81" rx="1.29" ry="1.71"/><path class="cls-3" d="M469.65,144.18A7.12,7.12,0,0,1,474.7,148l-11.16-2.12A7.12,7.12,0,0,1,469.65,144.18Z" transform="translate(-37.98 -28.28)"/><circle class="cls-3" cx="430.59" cy="122.73" r="1.71"/><path class="cls-3" d="M460.82,160.69h0c-.88-.08-1.77-.19-2.68-.31a3.29,3.29,0,0,1-2.29-1.4,3.19,3.19,0,0,1-.47-2.56,55.17,55.17,0,0,1,2.82-8.46.25.25,0,1,1,.46.2,54.73,54.73,0,0,0-2.8,8.38,2.65,2.65,0,0,0,.4,2.16,2.78,2.78,0,0,0,1.94,1.19c.91.12,1.79.23,2.66.31a.25.25,0,0,1,0,.5Z" transform="translate(-37.98 -28.28)"/><path class="cls-9" d="M468.61,161.7l-12.44,1.45a7.63,7.63,0,0,0,6.53,3.06C465.21,166,467.45,163.93,468.61,161.7Z" transform="translate(-37.98 -28.28)"/><path class="cls-10" d="M483.33,281.83h-36.5l-56.41,15.41a23,23,0,0,0-15.33,30.63L400,391l24.5-9.62L415,329h21.83l46.5-30.3Z" transform="translate(-37.98 -28.28)"/><polygon class="cls-11" points="389.16 352.07 359.37 363.76 362.6 374.42 392.39 362.72 389.16 352.07"/><path class="cls-12" d="M398.52,428.92a13.25,13.25,0,0,0-.71,4.25h40.36l-1.3-4.25Z" transform="translate(-37.98 -28.28)"/><path class="cls-13" d="M425.82,392.79l-19.65,7.71L411,413.38a5,5,0,0,1-2.5,6.27l-3.23,1.56a13.27,13.27,0,0,0-6.8,7.7h38.35Z" transform="translate(-37.98 -28.28)"/><path class="cls-14" d="M423.4,319.46l1.85,9.51h11.58l46.5-30.3v-9.79l-45.92,9.52A18,18,0,0,0,423.4,319.46Z" transform="translate(-37.98 -28.28)"/><path class="cls-10" d="M500.75,281.83l-47.6,12.76a28,28,0,0,0-20.56,30.3L439.5,384H468l2.25-58.75H491a37,37,0,0,0,37-37v-16Z" transform="translate(-37.98 -28.28)"/><rect class="cls-11" x="398.85" y="355.72" width="33.5" height="10.17"/><path class="cls-15" d="M465.83,394.17H441.67v17A14.63,14.63,0,0,1,434.08,424a14.62,14.62,0,0,0-6.87,8.33h38.62Z" transform="translate(-37.98 -28.28)"/><path class="cls-16" d="M427.21,432.33a14.6,14.6,0,0,0-.71,4.49v.35h39.33v-4.83Z" transform="translate(-37.98 -28.28)"/><path class="cls-14" d="M470.25,325.25l.61-15.92h0a13.39,13.39,0,0,1,2.1,15.51l-.21.4Z" transform="translate(-37.98 -28.28)"/><path class="cls-3" d="M465.83,384.25a.25.25,0,0,1-.25-.25V322.75a.25.25,0,0,1,.5,0V384A.25.25,0,0,1,465.83,384.25Z" transform="translate(-37.98 -28.28)"/><path class="cls-3" d="M422.08,368.27a.25.25,0,0,1-.25-.21L411,308.33a.25.25,0,0,1,.2-.29.25.25,0,0,1,.29.2L422.32,368a.25.25,0,0,1-.2.29Z" transform="translate(-37.98 -28.28)"/><path class="cls-3" d="M416.67,380.59a.25.25,0,0,1-.24-.19l-15.5-63.84a.25.25,0,1,1,.49-.12l15.5,63.84a.25.25,0,0,1-.18.3Z" transform="translate(-37.98 -28.28)"/><path class="cls-3" d="M399.24,295.08a.25.25,0,0,1-.07-.49l47.59-13a.25.25,0,0,1,.13.48l-47.59,13Z" transform="translate(-37.98 -28.28)"/><path class="cls-3" d="M436.52,358.75a.25.25,0,0,1-.25-.22l-3.93-33.61a28.41,28.41,0,0,1,20.74-30.57l39.56-10.61a.25.25,0,0,1,.13.48l-39.56,10.61a27.91,27.91,0,0,0-20.37,30l3.93,33.61a.25.25,0,0,1-.22.28Z" transform="translate(-37.98 -28.28)"/><path class="cls-17" d="M494.93,181.33H489a17.09,17.09,0,0,1-31.53.83H445.17a28,28,0,0,0-26.34,18.49l-11.75,32.53L436.5,241l3.83-13.68,6.5,54.51h36.5L520,253.5Z" transform="translate(-37.98 -28.28)"/><path class="cls-17" d="M494.93,181.33h10a28,28,0,0,1,25.88,17.31l11.85,28.68-28,10.69Z" transform="translate(-37.98 -28.28)"/><path class="cls-7" d="M483.33,281.83,520,253.5,514.62,238l23.72-9,7.32,21.32a15,15,0,0,1-9.22,19l-35.69,12.51-29.25,7.84Z" transform="translate(-37.98 -28.28)"/><polygon class="cls-3" points="500.35 200.69 476.64 209.73 479.14 216.93 500.89 202.27 500.35 200.69"/><path class="cls-7" d="M433,285.61l-3.5-33.84,4.89-11.33-24.62-6.54-2.72,9.44a27,27,0,0,0,.56,16.67l10.72,29.6Z" transform="translate(-37.98 -28.28)"/><polygon class="cls-3" points="371.8 205.63 396.41 212.16 393.95 217.86 371.33 207.23 371.8 205.63"/><path class="cls-18" d="M504.47,208.81l4,37.84a12,12,0,0,1-2.81,9l-22.31,26.14L520,253.5Z" transform="translate(-37.98 -28.28)"/><path class="cls-18" d="M440.33,227.32l-2.74-23L435.32,216a23.27,23.27,0,0,0,3.38,17.22h0Z" transform="translate(-37.98 -28.28)"/><path class="cls-3" d="M514.62,238.26a.25.25,0,0,1-.24-.17l-11.7-33.69a.25.25,0,1,1,.47-.16l11.71,33.69a.25.25,0,0,1-.15.32Z" transform="translate(-37.98 -28.28)"/><path class="cls-3" d="M511.9,230.63a.25.25,0,0,1-.09-.48l23.91-9a.25.25,0,1,1,.18.47l-23.91,9Z" transform="translate(-37.98 -28.28)"/><path class="cls-3" d="M499.34,269.71a.25.25,0,0,1-.15-.45l27.41-21.17a.25.25,0,1,1,.31.4l-27.41,21.18A.25.25,0,0,1,499.34,269.71Z" transform="translate(-37.98 -28.28)"/><path class="cls-3" d="M444.75,264.64a.25.25,0,0,1-.25-.22l-7.16-60.06a.25.25,0,0,1,.5-.06L445,264.36a.25.25,0,0,1-.22.28Z" transform="translate(-37.98 -28.28)"/><path class="cls-3" d="M437.61,237.29h-.07a.25.25,0,0,1-.17-.31l2.72-9.72a.25.25,0,0,1,.48.13l-2.72,9.72A.25.25,0,0,1,437.61,237.29Z" transform="translate(-37.98 -28.28)"/><path class="cls-3" d="M438.36,234.61h-.06l-25-6.35a.25.25,0,1,1,.12-.48l25,6.35a.25.25,0,0,1-.06.49Z" transform="translate(-37.98 -28.28)"/><polygon class="cls-3" points="144.84 326.72 149.75 326.72 151.07 338.51 145.84 335.68 144.84 326.72"/><polygon class="cls-4" points="151.07 338.51 159.42 413.39 154.5 413.39 145.84 335.68 151.07 338.51"/><polygon class="cls-4" points="108.17 337.2 116.67 413.39 111.75 413.39 102.94 334.37 108.17 337.2"/><polygon class="cls-3" points="102.09 326.72 107 326.72 108.17 337.2 102.94 334.37 102.09 326.72"/><polygon class="cls-3" points="83.58 326.72 88.5 326.72 87.3 337.48 82.67 334.97 83.58 326.72"/><polygon class="cls-4" points="73.92 413.39 82.67 334.97 87.3 337.48 78.83 413.39 73.92 413.39"/><polygon class="cls-3" points="40.83 326.72 45.75 326.72 44.63 336.75 39.99 334.25 40.83 326.72"/><polygon class="cls-4" points="31.17 413.39 39.99 334.25 44.63 336.75 36.08 413.39 31.17 413.39"/><path class="cls-5" d="M191.28,355h0a27.31,27.31,0,0,0-24.79-15.86H133.94L116.35,224.62l-24.72-20H76a32,32,0,0,0-31.63,36.86L59.17,338a20,20,0,0,0,19.77,17Z" transform="translate(-37.98 -28.28)"/><path class="cls-6" d="M206.93,355h0a27.31,27.31,0,0,0-24.79-15.86H149.6l-15-97.64a43.48,43.48,0,0,0-43-36.87h0A32,32,0,0,0,60,241.48l13.18,85.78A14,14,0,0,0,87,339.14h20.53A27.31,27.31,0,0,1,132.33,355h74.6Z" transform="translate(-37.98 -28.28)"/><path class="cls-19" d="M155.75,296.33l-16.53,42.81H222l-14.75,63.67h40l11.33-68a28,28,0,0,0-24.87-32.46l-60.47-6Z" transform="translate(-37.98 -28.28)"/><path class="cls-6" d="M222,339.14l4.72-20.36-6,5.37a6.2,6.2,0,0,0-2.06,4.62h0a6.2,6.2,0,0,1-5.44,6.15l-2.47.3-.65,3.92Z" transform="translate(-37.98 -28.28)"/><path class="cls-15" d="M242.76,427.36l-.2-.21-.9-1a10.72,10.72,0,0,1-2.59-8.87l2.43-14.47H223.06l-2.33,14.07a22.36,22.36,0,0,1-2.76,7.87,29.47,29.47,0,0,0-3,7.42h22.69A11.79,11.79,0,0,1,242.76,427.36Z" transform="translate(-37.98 -28.28)"/><path class="cls-20" d="M252.32,431l-3.05-.37a10.72,10.72,0,0,1-6.5-3.29,11.79,11.79,0,0,0-5.12,4.81H214.94a35,35,0,0,0-.95,5,4,4,0,0,0,4,4.47h43.78A10.72,10.72,0,0,0,252.32,431Z" transform="translate(-37.98 -28.28)"/><polygon class="cls-3" points="185.08 374.54 203.52 374.54 203.15 376.8 184.12 380.56 185.08 374.54"/><path class="cls-12" d="M192.43,427.36l-.2-.21-.9-1a10.72,10.72,0,0,1-2.59-8.87l2.34-14.47H172.64l-2.24,14.07a22.36,22.36,0,0,1-2.76,7.87,29.47,29.47,0,0,0-3,7.42h22.69A11.79,11.79,0,0,1,192.43,427.36Z" transform="translate(-37.98 -28.28)"/><path class="cls-21" d="M202,431l-3.05-.37a10.72,10.72,0,0,1-6.5-3.29,11.79,11.79,0,0,0-5.12,4.81H164.62a35,35,0,0,0-.95,5,4,4,0,0,0,4,4.47h43.78A10.72,10.72,0,0,0,202,431Z" transform="translate(-37.98 -28.28)"/><polygon class="cls-3" points="134.66 374.54 153.1 374.54 152.73 376.8 133.7 380.56 134.66 374.54"/><path class="cls-22" d="M108,296.33l-4.45,11.53A23,23,0,0,0,125,339.14h49.24L159.5,402.81h40L211,333.55a28,28,0,0,0-23.69-32.32l-34.51-4.89Z" transform="translate(-37.98 -28.28)"/><path class="cls-6" d="M174.25,339.14,179,318.79l-5.76,5.72a15.29,15.29,0,0,0-4,14.64h5.08Z" transform="translate(-37.98 -28.28)"/><path class="cls-3" d="M174.25,339.39h-35a.25.25,0,0,1,0-.5h35a.25.25,0,0,1,0,.5Z" transform="translate(-37.98 -28.28)"/><path class="cls-3" d="M161.62,393.91h-.06a.25.25,0,0,1-.19-.3l17.34-74.87a.25.25,0,0,1,.49.11l-17.34,74.87A.25.25,0,0,1,161.62,393.91Z" transform="translate(-37.98 -28.28)"/><path class="cls-3" d="M187.35,301.47h0l-21.5-3a.25.25,0,1,1,.07-.49l21.5,3a.25.25,0,0,1,0,.5Z" transform="translate(-37.98 -28.28)"/><path class="cls-3" d="M200.82,395.14h0a.25.25,0,0,1-.21-.29L208.21,349a.25.25,0,1,1,.49.08l-7.64,45.87A.25.25,0,0,1,200.82,395.14Z" transform="translate(-37.98 -28.28)"/><path class="cls-15" d="M188.33,228.5l7,23.27,34.33,40.9L220.48,301,187.4,271.78a32,32,0,0,1-9.75-15.8l-5.81-22Z" transform="translate(-37.98 -28.28)"/><path class="cls-3" d="M188.33,228.5l-16.5,5.5,5.81,22c0,.12.07.23.11.35l14.43-15Z" transform="translate(-37.98 -28.28)"/><path class="cls-21" d="M168.88,192.59h0a12.52,12.52,0,0,1,12.57,8.8l9.92,32-10.12,2.31-6-17.25Z" transform="translate(-37.98 -28.28)"/><polygon class="cls-20" points="137.27 190.22 143.27 207.47 152.03 205.47 134.82 180.26 137.27 190.22"/><path class="cls-3" d="M175.31,164.08c3.89-5.55,7.41-11.53,8.84-18.15s.53-14-3.7-19.32-12.14-7.8-18.17-4.7c-7.42-4.86-16.32-8-24.59-4.76a28.48,28.48,0,0,0-17,19.18c-4.42,17.33,8.1,36,2.41,53-2.34,7-7.48,12.59-11.9,18.48s-8.37,12.84-7.67,20.17c.9,9.41,9.77,16.74,19.14,18a27.14,27.14,0,0,0,20.83-6.13c6.63-5.63,10.15-14.19,11.7-22.75s1.37-17.33,1.92-26c.35-5.43,1-11,3.29-15.9S170,165.47,175.31,164.08Z" transform="translate(-37.98 -28.28)"/><path class="cls-21" d="M184.39,232,178,217.5l-9.12-24.91L145,193.77a25,25,0,0,0-23.74,26.05l.46,10.68h0l-1.33,27a48,48,0,0,1-3.16,14.94L108,296.33h65.24l4.55-30.26.8-8.84a14.62,14.62,0,0,1,3.36-8.08h0A16.41,16.41,0,0,0,184.39,232Z" transform="translate(-37.98 -28.28)"/><path class="cls-3" d="M184.39,232.25a.25.25,0,0,1-.23-.15l-6.39-14.5-5-13.71a.25.25,0,0,1,.47-.17l5,13.7,6.38,14.48a.25.25,0,0,1-.13.33Z" transform="translate(-37.98 -28.28)"/><path class="cls-3" d="M158.49,249.34a.25.25,0,0,1,0-.5A17.94,17.94,0,0,0,171.16,242a.25.25,0,1,1,.4.31,18.45,18.45,0,0,1-13,7Z" transform="translate(-37.98 -28.28)"/><path class="cls-12" d="M144.63,174.75,144,194.38l3.11,3.19a10,10,0,0,0,16.39-3.32h0l-1.75-14.75Z" transform="translate(-37.98 -28.28)"/><path class="cls-3" d="M156.78,189.71a10.38,10.38,0,0,0,6.07-1l-1.1-9.25-17.12-4.75-.08,2.59a31.72,31.72,0,0,0,3.59,6.61C150.24,186.81,153.27,189.17,156.78,189.71Z" transform="translate(-37.98 -28.28)"/><path class="cls-12" d="M177.13,148v10.82a42.33,42.33,0,0,1-2.37,14h0a17.11,17.11,0,0,1-16.16,11.47h0a17.11,17.11,0,0,1-11.49-4.43l-6-5.44a16.75,16.75,0,0,1-5-8.25h0c18.38-8,24.88-21.62,25.13-32.5C173.75,138.75,177.13,148,177.13,148Z" transform="translate(-37.98 -28.28)"/><path class="cls-3" d="M158.37,148.6a8,8,0,0,0-5.71,4.33l12.61-2.39A8,8,0,0,0,158.37,148.6Z" transform="translate(-37.98 -28.28)"/><circle class="cls-3" cx="121.6" cy="128.04" r="1.93"/><path class="cls-3" d="M174.19,148.6c1.55.49,2.79,2.15,3.45,4.33L170,150.54C171.12,148.91,172.64,148.11,174.19,148.6Z" transform="translate(-37.98 -28.28)"/><ellipse class="cls-3" cx="135.48" cy="128.04" rx="1.16" ry="1.93"/><path class="cls-3" d="M167.91,167.37a15.22,15.22,0,0,1-1.53-.1.25.25,0,0,1,0-.5,7.49,7.49,0,0,0,2.85-.07,2.41,2.41,0,0,0,1.79-1.79,3.82,3.82,0,0,0-.55-2.05l-.08-.18a18.13,18.13,0,0,1-1.66-8.7.25.25,0,0,1,.26-.23.25.25,0,0,1,.23.26,17.64,17.64,0,0,0,1.61,8.46l.08.18a4.17,4.17,0,0,1,.59,2.34,2.91,2.91,0,0,1-2.15,2.2A5.38,5.38,0,0,1,167.91,167.37Z" transform="translate(-37.98 -28.28)"/><path class="cls-9" d="M170.39,170.45l-12.81,1.69a6.84,6.84,0,0,0,6.69,3.67A7.71,7.71,0,0,0,170.39,170.45Z" transform="translate(-37.98 -28.28)"/><path class="cls-12" d="M124.75,251.77l22.5-3.52,3.08,26.25,54.33-16.67,3.17,14.33-53.06,24.19a20,20,0,0,1-28.26-16.93Z" transform="translate(-37.98 -28.28)"/><polygon class="cls-3" points="109.27 219.97 86.77 223.49 87.36 232.73 109.56 222.4 109.27 219.97"/><path class="cls-20" d="M150.42,247.75,123,252l-.38-3.2,15.62-2.37a9,9,0,0,0,7.59-9.94l-2.38-20.47a15.43,15.43,0,0,0-7.36-11.43h0l.33.13a15.43,15.43,0,0,1,9.87,12.41Z" transform="translate(-37.98 -28.28)"/><path class="cls-3" d="M123,252.29a.25.25,0,0,1,0-.5l27.13-4.25-4-30.35A15.16,15.16,0,0,0,136.39,205l-.33-.12a.25.25,0,1,1,.18-.47l.33.13a15.66,15.66,0,0,1,10,12.61l4.07,30.59a.25.25,0,0,1-.21.28l-27.37,4.28Z" transform="translate(-37.98 -28.28)"/><path class="cls-3" d="M139.22,278.16a.25.25,0,0,1-.07-.49l57.41-17.61a.25.25,0,0,1,.31.17.25.25,0,0,1-.17.31L139.3,278.15Z" transform="translate(-37.98 -28.28)"/><path class="cls-23" d="M359.69,159.83V183.5a13,13,0,0,1-13,13H344.5l-2,3.17H317l8.67-13.5Z" transform="translate(-37.98 -28.28)"/><path class="cls-24" d="M359.75,164.38l-5.87,8.13v8.75a9,9,0,0,1-9,9H329.21a9,9,0,0,1-7.63-4.22c-16.16-25.7-12-45.14,5.92-42.53C342.88,121.25,382.13,147.75,359.75,164.38Z" transform="translate(-37.98 -28.28)"/><path class="cls-23" d="M357.38,167.66l-3.5,4.84V181a2.43,2.43,0,0,0,2.81,1.75,5.13,5.13,0,0,0,2.55-2.46,13.43,13.43,0,0,0,1.8-5.13,10.33,10.33,0,0,0-.73-5.61A2.79,2.79,0,0,0,357.38,167.66Z" transform="translate(-37.98 -28.28)"/><path class="cls-3" d="M356.18,183.07a2.39,2.39,0,0,1-.86-.17.25.25,0,0,1,.18-.47,1.75,1.75,0,0,0,1.11.07,4.81,4.81,0,0,0,2.4-2.35,13.2,13.2,0,0,0,1.76-5,10.11,10.11,0,0,0-.71-5.46,2.81,2.81,0,0,0-1.45-1.57.25.25,0,1,1,.18-.47,3.26,3.26,0,0,1,1.72,1.82,10.48,10.48,0,0,1,.76,5.75,13.72,13.72,0,0,1-1.83,5.23,5.18,5.18,0,0,1-2.69,2.58A2,2,0,0,1,356.18,183.07Z" transform="translate(-37.98 -28.28)"/><path class="cls-25" d="M324.82,429.18A22.62,22.62,0,0,1,321,422.5l-.67-1.83H299.56l-1.61,16.5h31.12A22.62,22.62,0,0,0,324.82,429.18Z" transform="translate(-37.98 -28.28)"/><path class="cls-9" d="M329.06,437.17H297.95l-.44,4.5H330l-.32-1.88A22.62,22.62,0,0,0,329.06,437.17Z" transform="translate(-37.98 -28.28)"/><polygon class="cls-3" points="282.35 392.39 261.58 392.39 260.96 398.75 282.35 392.39"/><polygon class="cls-26" points="300.05 291.72 292.05 392.39 255.39 392.39 263.23 311.39 300.05 291.72"/><polygon class="cls-27" points="296.05 342.06 261.24 331.96 263.23 311.39 300.05 291.72 296.05 342.06"/><path class="cls-25" d="M390.06,430.29h0a19.42,19.42,0,0,1-8.36-7.83l-1-1.8H362l-3.54,16.5h39.35A19.4,19.4,0,0,0,390.06,430.29Z" transform="translate(-37.98 -28.28)"/><path class="cls-9" d="M397.81,437.17H358.46l-1,4.5H400l-.06-.17A19.38,19.38,0,0,0,397.81,437.17Z" transform="translate(-37.98 -28.28)"/><polygon class="cls-3" points="342.69 392.39 324.02 392.39 322.65 398.75 342.69 392.39"/><path class="cls-26" d="M340.18,296.33,380.05,314a21,21,0,0,1,12.44,20.87l-6.82,85.82H349l7.84-81L333.32,337H274.89v-40.7Z" transform="translate(-37.98 -28.28)"/><path class="cls-27" d="M356.85,339.67H382.5l-1.6,1.18A27.58,27.58,0,0,1,356.33,345h0Z" transform="translate(-37.98 -28.28)"/><path class="cls-3" d="M382.5,410.92H353.33a.25.25,0,0,1,0-.5H382.5a.25.25,0,0,1,0,.5Z" transform="translate(-37.98 -28.28)"/><path class="cls-3" d="M327.11,410.92H297.95a.25.25,0,0,1,0-.5h29.17a.25.25,0,0,1,0,.5Z" transform="translate(-37.98 -28.28)"/><path class="cls-3" d="M380.67,416.75h0a.25.25,0,0,1-.23-.27l6.17-70.23a.24.24,0,0,1,.27-.23.25.25,0,0,1,.23.27l-6.17,70.23A.25.25,0,0,1,380.67,416.75Z" transform="translate(-37.98 -28.28)"/><path class="cls-7" d="M408.63,225.25l-9-15.92h0a4.78,4.78,0,0,1,5.6,1.2l2.73,3.13Z" transform="translate(-37.98 -28.28)"/><path class="cls-23" d="M404.63,230.63l4-5.37-2-11.75c-.19-9.31,3.85-14.18,5.93-16.06a1.87,1.87,0,0,1,2.32-.17l0,0a1.88,1.88,0,0,1,.47,2.61,21.11,21.11,0,0,0-3.37,9.36,22.91,22.91,0,0,1,7.74-8.81,1.85,1.85,0,0,1,2.15.07l5.56,4.21a1.85,1.85,0,0,1,.3,2.68,27.22,27.22,0,0,0-4.37,8.1c2,7.88-1.75,13.13-3.37,14l-6.5,10.38Z" transform="translate(-37.98 -28.28)"/><path class="cls-28" d="M272,223.5h0a34.61,34.61,0,0,1,33.76-27h33.76a34,34,0,0,1,31.55,21.32L384,250l18.67-21.67c13.33.67,15.67,14.33,15.67,14.33L392.7,275.43a16,16,0,0,1-27.2-3.33L354,246.42l-10.5,54.25c-15.83,9.33-62.17,7-71.5,2Z" transform="translate(-37.98 -28.28)"/><polygon class="cls-29" points="316.02 218.14 320.73 193.81 321.71 230.86 316.02 218.14"/><path class="cls-29" d="M384,250l5.78,14.39.55-7.63a12.32,12.32,0,0,0-3.74-9.77h0Z" transform="translate(-37.98 -28.28)"/><path class="cls-3" d="M416.42,210.93a.24.24,0,0,1-.12,0,.25.25,0,0,1-.1-.34,25,25,0,0,1,6.51-7.83.25.25,0,1,1,.31.39,24.51,24.51,0,0,0-6.38,7.67A.25.25,0,0,1,416.42,210.93Z" transform="translate(-37.98 -28.28)"/><path class="cls-3" d="M420.6,212a.25.25,0,0,1-.13,0,.25.25,0,0,1-.08-.34,27.37,27.37,0,0,1,5-6,.25.25,0,0,1,.34.37,26.87,26.87,0,0,0-4.86,5.92A.25.25,0,0,1,420.6,212Z" transform="translate(-37.98 -28.28)"/><path class="cls-3" d="M407.08,227.57a.25.25,0,0,1-.2-.4l1.48-2-1.52-9a.25.25,0,0,1,.2-.29.24.24,0,0,1,.29.2l1.54,9.06a.25.25,0,0,1,0,.19l-1.54,2.07A.25.25,0,0,1,407.08,227.57Z" transform="translate(-37.98 -28.28)"/><path class="cls-3" d="M345.87,288.69h0a.25.25,0,0,1-.2-.29L358.46,222a.25.25,0,0,1,.49.09l-12.84,66.35A.25.25,0,0,1,345.87,288.69Z" transform="translate(-37.98 -28.28)"/><path class="cls-3" d="M389.78,264.64a.25.25,0,0,1-.23-.16l-15.73-39.14a.25.25,0,1,1,.46-.19L390,264.29a.25.25,0,0,1-.14.33Z" transform="translate(-37.98 -28.28)"/><path class="cls-3" d="M384,250.25a.25.25,0,0,1-.19-.41l11-12.72a.25.25,0,1,1,.38.33l-11,12.72A.25.25,0,0,1,384,250.25Z" transform="translate(-37.98 -28.28)"/><path class="cls-3" d="M326,295.61h-.07a48.4,48.4,0,0,1-19.56-11.43.25.25,0,1,1,.35-.36A47.91,47.91,0,0,0,326,295.13a.25.25,0,0,1-.07.49Z" transform="translate(-37.98 -28.28)"/><path class="cls-3" d="M319.9,224.27a.25.25,0,0,1-.08-.49l9.65-3.37a.25.25,0,1,1,.17.47L320,224.25Z" transform="translate(-37.98 -28.28)"/><path class="cls-6" d="M342.86,350.48A18,18,0,0,0,325.08,335H320a8,8,0,0,1-7.83-6.46l-16.48-83.78a52.37,52.37,0,0,0-51.38-42.26H227.7l2.64,2.64A38,38,0,0,0,207,247.83l17.43,88.6A23,23,0,0,0,247,355H343.5Z" transform="translate(-37.98 -28.28)"/><path class="cls-5" d="M207.85,336.44l-17.43-88.6A38,38,0,0,1,227.7,202.5h0a52.37,52.37,0,0,1,51.38,42.26l18,91.68A23,23,0,0,0,319.69,355H230.42A23,23,0,0,1,207.85,336.44Z" transform="translate(-37.98 -28.28)"/><polygon class="cls-3" points="197.35 326.72 192.44 326.72 191.12 338.51 196.35 335.68 197.35 326.72"/><polygon class="cls-4" points="191.12 338.51 182.77 413.39 187.69 413.39 196.35 335.68 191.12 338.51"/><polygon class="cls-4" points="234.02 337.2 225.52 413.39 230.44 413.39 239.25 334.37 234.02 337.2"/><polygon class="cls-3" points="240.1 326.72 235.19 326.72 234.02 337.2 239.25 334.37 240.1 326.72"/><polygon class="cls-3" points="258.61 326.72 253.69 326.72 254.89 337.48 259.52 334.97 258.61 326.72"/><polygon class="cls-4" points="268.27 413.39 259.52 334.97 254.89 337.48 263.36 413.39 268.27 413.39"/><polygon class="cls-3" points="301.36 326.72 296.44 326.72 297.56 336.75 302.2 334.25 301.36 326.72"/><polygon class="cls-4" points="311.02 413.39 302.2 334.25 297.56 336.75 306.11 413.39 311.02 413.39"/><path class="cls-23" d="M596.34,209.65l8.87-11.37a11.78,11.78,0,0,1,9.29-4.53l-1.94-.34a4,4,0,0,1-3.08-2.62l-5.1-14.6-15,8,2.2,11.6a4,4,0,0,1-.57,2.91l-9.19,14.26.17.08A11.78,11.78,0,0,0,596.34,209.65Z" transform="translate(-37.98 -28.28)"/><path class="cls-30" d="M625.67,304.27,614.5,193.75a11.78,11.78,0,0,0-9.29,4.53l-8.87,11.37A11.78,11.78,0,0,1,581.95,213l-.17-.08-14.95,23.19a9.82,9.82,0,0,0-.45,10.07,18.13,18.13,0,0,0,3,4A17.65,17.65,0,0,1,574,265.92L569.83,288Z" transform="translate(-37.98 -28.28)"/><path class="cls-3" d="M590.75,191.61c12.13-3.84,14-11.44,13.63-15.43l-15,8Z" transform="translate(-37.98 -28.28)"/><path class="cls-31" d="M608.11,216.1,606.36,266a11,11,0,0,1-10.59,10.61l-23.94.88-2,10.53,55.83,16.27-8.91-88.16Z" transform="translate(-37.98 -28.28)"/><path class="cls-3" d="M592.36,253.68h-.06a22.66,22.66,0,0,1-12.58-8.55.25.25,0,0,1,.41-.29,22.14,22.14,0,0,0,12.3,8.36.25.25,0,0,1-.06.49Z" transform="translate(-37.98 -28.28)"/><path class="cls-32" d="M619.23,140.88A24.31,24.31,0,0,1,641,123.17c3.7-.18,7.68.65,10.27,3.3,2.19,2.25,3.07,5.47,3.35,8.59.49,5.53-.65,11.07-1.91,16.48s-2.63,10.86-2.61,16.42,1.61,11.34,5.53,15.27c-10.21,1.7-20.94-3.38-27-11.74S616.65,150.9,619.23,140.88Z" transform="translate(-37.98 -28.28)"/><path class="cls-32" d="M578.29,163.21a24.89,24.89,0,0,1-6.33-14,19.28,19.28,0,0,1,1.45-10.12,13.4,13.4,0,0,1,7.25-7,10.31,10.31,0,0,1,9.81,1.32,23.07,23.07,0,0,1,31,7.35c3.93,6.12,4.71,14,2.77,21-1.85,6.71-6.47,13-13.07,15.2-5.67,1.91-12,.58-17.31-2.23S582.33,167.62,578.29,163.21Z" transform="translate(-37.98 -28.28)"/><path class="cls-3" d="M611.15,177.19a.25.25,0,0,1-.08-.49c6-2,10.9-7.76,12.91-15a26.11,26.11,0,0,0-2.74-20.8,22.73,22.73,0,0,0-13.89-9.77.25.25,0,0,1,.11-.49,23.23,23.23,0,0,1,14.2,10,26.62,26.62,0,0,1,2.81,21.2c-2.05,7.43-7.12,13.32-13.23,15.37Z" transform="translate(-37.98 -28.28)"/><path class="cls-23" d="M585.33,144.83h0A27.1,27.1,0,0,0,575.66,161l-.5,2.66-5.5,8.83h5.83l.82,8.65a8.49,8.49,0,0,0,5.57,7.18h0a8.5,8.5,0,0,0,6.37-.24L599.54,183a7,7,0,0,0,4.13-6.38v-5.3c-2-.85-4.59-2.29-5.47-4.24a8.8,8.8,0,0,1-.36-6.26C592.35,157.4,587.55,150.91,585.33,144.83Z" transform="translate(-37.98 -28.28)"/><path class="cls-23" d="M606.35,165.13a5.72,5.72,0,0,1,3.34-.72,3.62,3.62,0,0,1,2.79,1.84,5,5,0,0,1,.17,3.3,13.49,13.49,0,0,1-2.38,5.18,7.7,7.7,0,0,1-3.18,2.63,4.19,4.19,0,0,1-4-.35c-1.91-1.41-1.32-4.26-.9-6.22A8.33,8.33,0,0,1,606.35,165.13Z" transform="translate(-37.98 -28.28)"/><path class="cls-7" d="M605.35,175.69a1.79,1.79,0,0,1-1-.3c-.88-.65-.43-2.79-.13-4.2a6.34,6.34,0,0,1,3.12-4.29,4,4,0,0,1,1.85-.52l.31,0a1.65,1.65,0,0,1,1.26.76,3.15,3.15,0,0,1,0,2,11.51,11.51,0,0,1-2,4.41,5.73,5.73,0,0,1-2.32,2A2.74,2.74,0,0,1,605.35,175.69Z" transform="translate(-37.98 -28.28)"/><path class="cls-3" d="M584.23,157.72a7.13,7.13,0,0,1,5.05,3.83l-11.16-2.12A7.12,7.12,0,0,1,584.23,157.72Z" transform="translate(-37.98 -28.28)"/><circle class="cls-3" cx="545.18" cy="136.28" r="1.71"/><path class="cls-9" d="M587.66,177.35a23,23,0,0,0-10,0,5.28,5.28,0,0,0,2.23,2.84,4.47,4.47,0,0,0,3.24.68C584.83,180.56,586.45,178.58,587.66,177.35Z" transform="translate(-37.98 -28.28)"/><path class="cls-23" d="M550.64,282.41l65.54,19.09a17,17,0,0,0,21.73-17.31l-2-34L613,253.5l1.75,29.38-48.23-6.08a17,17,0,0,0-11.59,2.74l-4.28,2.87" transform="translate(-37.98 -28.28)"/><path class="cls-3" d="M613,253.5l22.94-3.28.51,8.87c-9.87,2.41-23.16-.68-23.16-.68Z" transform="translate(-37.98 -28.28)"/><path class="cls-30" d="M614.5,193.75h0a20.07,20.07,0,0,1,19.88,17.34L640,252c-11.5,5.25-29.15,5-29.15,5l-2.74-40.9A34.3,34.3,0,0,1,614,194.45Z" transform="translate(-37.98 -28.28)"/><path class="cls-33" d="M614.5,193.75" transform="translate(-37.98 -28.28)"/><path class="cls-3" d="M610.43,251a.25.25,0,0,1-.25-.23l-2.32-34.65a34.41,34.41,0,0,1,1.42-12.36.25.25,0,0,1,.31-.17.25.25,0,0,1,.17.31,34,34,0,0,0-1.4,12.18l2.32,34.65a.25.25,0,0,1-.23.27Z" transform="translate(-37.98 -28.28)"/><path class="cls-3" d="M638.88,244.11a.25.25,0,0,1-.25-.22l-4.5-32.77a.25.25,0,0,1,.21-.28.25.25,0,0,1,.28.21l4.5,32.77a.25.25,0,0,1-.21.28Z" transform="translate(-37.98 -28.28)"/><path class="cls-3" d="M623.62,284.24h0l-47.71-6a.25.25,0,0,1-.22-.28.24.24,0,0,1,.28-.22l47.71,6a.25.25,0,0,1,0,.5Z" transform="translate(-37.98 -28.28)"/><path class="cls-3" d="M620.88,251.14a.25.25,0,0,1,0-.5,19.33,19.33,0,0,0,8.63-3.84.25.25,0,1,1,.31.39,19.83,19.83,0,0,1-8.85,3.94Z" transform="translate(-37.98 -28.28)"/><path class="cls-23" d="M476.2,395.46l2.16-9.1,6.15-15.15-16.68-6.78-3.35,8.25a14.18,14.18,0,0,1-8.17,7.93,18.59,18.59,0,0,1,.87,7.11Z" transform="translate(-37.98 -28.28)"/><path class="cls-30" d="M457.19,387.73a18.59,18.59,0,0,0-.87-7.11,14.16,14.16,0,0,1-1.91.58l-1.57.35a14.19,14.19,0,0,1-6.06,0l-2.53-.54a14.19,14.19,0,0,0-14.07,5l44,17.88,2-8.45Z" transform="translate(-37.98 -28.28)"/><polygon class="cls-3" points="429.85 336.16 446.53 342.94 444.18 348.73 429.1 338.01 429.85 336.16"/><polygon class="cls-34" points="424.22 334.45 456.77 268.97 482.59 282.24 462.19 351.22 424.22 334.45"/><path class="cls-34" d="M625.67,304.27l-98.13-28.59A24,24,0,0,0,499.33,288l-4.58,9.21,72,37h31.71a27,27,0,0,0,27-25.52Z" transform="translate(-37.98 -28.28)"/><path class="cls-3" d="M595.43,295.71h-.07l-63.76-18.57a.25.25,0,0,1,.14-.48l63.76,18.57a.25.25,0,0,1-.07.49Z" transform="translate(-37.98 -28.28)"/><path class="cls-3" d="M625.67,304.52h-.07l-19.91-5.8a.25.25,0,1,1,.14-.48l19.91,5.8a.25.25,0,0,1-.07.49Z" transform="translate(-37.98 -28.28)"/><path class="cls-34" d="M516.13,308.24l-11.29,2a21,21,0,0,0-17.22,19.55L483.5,407.5h44.75l-6.5-70,45-3.25Z" transform="translate(-37.98 -28.28)"/><path class="cls-35" d="M512.83,308.84s32.39,27,32.35,27l21.56-1.56-50.62-26Z" transform="translate(-37.98 -28.28)"/><path class="cls-3" d="M488.94,323.78l-.09,0a.25.25,0,0,1-.14-.32A21.36,21.36,0,0,1,504.8,310l11.29-2a.25.25,0,0,1,.29.2.25.25,0,0,1-.2.29l-11.29,2a20.86,20.86,0,0,0-15.71,13.08A.25.25,0,0,1,488.94,323.78Z" transform="translate(-37.98 -28.28)"/><path class="cls-3" d="M521.75,337.75a.25.25,0,0,1,0-.5l36.74-2.65a.24.24,0,0,1,.27.23.25.25,0,0,1-.23.27l-36.74,2.65Z" transform="translate(-37.98 -28.28)"/><path class="cls-3" d="M484.93,380.87h0a.25.25,0,0,1-.24-.26l2.46-46.37a.25.25,0,0,1,.25-.24h0a.25.25,0,0,1,.24.26l-2.46,46.37A.25.25,0,0,1,484.93,380.87Z" transform="translate(-37.98 -28.28)"/><path class="cls-3" d="M524.84,371a.25.25,0,0,1-.25-.23l-4-43.49a.25.25,0,0,1,.23-.27.24.24,0,0,1,.27.23l4,43.49a.25.25,0,0,1-.23.27Z" transform="translate(-37.98 -28.28)"/><path class="cls-23" d="M512.93,433.09l-1.43-9.24V407.5h-18v8.9a14.18,14.18,0,0,1-4.58,10.42,18.6,18.6,0,0,1,3.48,6.26Z" transform="translate(-37.98 -28.28)"/><path class="cls-30" d="M492.4,433.09a18.6,18.6,0,0,0-3.48-6.26,14.17,14.17,0,0,1-1.55,1.25l-1.32.91a14.19,14.19,0,0,1-5.61,2.3l-2.55.45a14.19,14.19,0,0,0-11.15,9.93h47.5l-1.32-8.58Z" transform="translate(-37.98 -28.28)"/><polygon class="cls-3" points="455.52 379.22 473.52 379.22 473.52 385.47 455.52 381.22 455.52 379.22"/><polygon class="cls-3" points="620.48 324.18 625.4 324.18 626.71 335.97 621.48 333.14 620.48 324.18"/><polygon class="cls-4" points="626.71 335.97 635.06 410.85 630.15 410.85 621.48 333.14 626.71 335.97"/><polygon class="cls-4" points="588.87 334.66 597.37 410.85 592.45 410.85 583.64 331.83 588.87 334.66"/><polygon class="cls-3" points="582.78 324.18 587.7 324.18 588.87 334.66 583.64 331.83 582.78 324.18"/><polygon class="cls-3" points="572.85 324.18 577.77 324.18 576.57 334.94 571.93 332.43 572.85 324.18"/><polygon class="cls-4" points="563.18 410.85 571.93 332.43 576.57 334.94 568.1 410.85 563.18 410.85"/><polygon class="cls-3" points="532.29 324.18 537.2 324.18 536.09 334.21 531.45 331.71 532.29 324.18"/><polygon class="cls-4" points="522.62 410.85 531.45 331.71 536.09 334.21 527.54 410.85 522.62 410.85"/><path class="cls-5" d="M691.58,207.76V200h-16.8A41.52,41.52,0,0,0,634,233.46L617.26,318.8a16,16,0,0,1-15.7,12.91H580.07a20.75,20.75,0,0,0-20.75,20.75h93.3a23,23,0,0,0,22.57-18.56l21.19-107.69A21.89,21.89,0,0,0,691.58,207.76Z" transform="translate(-37.98 -28.28)"/><path class="cls-6" d="M692,333.9l21.19-107.69A22,22,0,0,0,691.58,200h0a41.52,41.52,0,0,0-40.74,33.51L631.09,333.9a23,23,0,0,1-22.57,18.56h60.9A23,23,0,0,0,692,333.9Z" transform="translate(-37.98 -28.28)"/></g></svg>