<svg xmlns="http://www.w3.org/2000/svg" xmlns:xlink="http://www.w3.org/1999/xlink" width="949" height="942" version="1.1" viewBox="0 0 949 942"><title>Group 15</title><desc>Created with Sketch.</desc><defs><path id="path-1" d="M1343.84149,140.048255 C1309.4467,156.166554 1275.22158,189.766422 1284.79256,226.420825 C1287.63907,237.324773 1294.21395,247.14212 1295.8906,258.284808 C1299.54977,282.569354 1278.74233,304.288002 1256.17563,314.152204 C1233.6067,324.014175 1208.29395,326.343563 1185.72502,336.203303 C1163.15609,346.065274 1142.34419,367.774997 1145.99219,392.061774 C1147.68447,403.327179 1154.34642,413.148988 1158.4253,423.789653 C1170.37619,454.977578 1156.88707,493.782872 1128.13619,510.920836 C1100.52614,527.378278 1065.75628,523.730242 1034.43795,531.07094 C1003.11963,538.411637 970.834605,569.055146 983.904,598.34877 C990.601674,613.360385 1007.55572,622.747107 1011.62791,638.664596 C1016.33414,657.047577 1003.52819,677.039265 983.984372,683.324598 C968.651163,688.257815 946.966326,689.302023 930.03014,693.987575 L927.15907,692.840731 C927.15907,692.840731 899.252093,707.481964 858.090419,697.024259 C823.157581,688.148485 809.20186,683.061315 785.532279,683.079164 C749.949767,683.105939 720,716.54516 720,716.54516 C720,716.54516 690.050233,683.105939 654.467721,683.079164 C630.79814,683.061315 616.842419,688.148485 581.909581,697.024259 C540.747907,707.481964 512.84093,692.840731 512.84093,692.840731 L509.96986,693.987575 C493.033674,689.302023 471.348837,688.257815 456.013395,683.324598 C436.471814,677.039265 423.66586,657.047577 428.36986,638.664596 C432.444279,622.747107 449.398326,613.360385 456.096,598.34877 C469.165395,569.055146 436.880372,538.411637 405.562047,531.07094 C374.241488,523.730242 339.47386,527.378278 311.863814,510.920836 C283.11293,493.782872 269.623814,454.977578 281.574698,423.789653 C285.653581,413.148988 292.315535,403.327179 294.007814,392.061774 C297.655814,367.774997 276.843907,346.065274 254.274977,336.203303 C231.703814,326.343563 206.393302,324.014175 183.824372,314.152204 C161.255442,304.288002 140.450233,282.569354 144.107163,258.284808 C145.786047,247.14212 152.36093,237.324773 155.207442,226.420825 C164.778419,189.766422 130.553302,156.166554 96.1585116,140.048255 C62.5830698,124.313726 23.6026047,114.636946 0,86.4165372 L0,117.312173 C18.603907,132.038193 40.5164651,140.967516 61.8842791,149.669255 C70.5912558,153.214656 78.8137674,156.56371 86.6813023,160.249677 C114.456558,173.266586 139.492465,198.240577 133.607442,220.787006 C132.790326,223.910708 131.225302,227.563207 129.570977,231.432134 C126.682047,238.18156 123.406884,245.832396 122.031628,254.962529 C116.510512,291.603544 144.598326,321.359029 174.878512,334.592366 C187.834047,340.25519 200.903442,343.584163 213.544186,346.801575 C224.94586,349.704386 235.715721,352.446549 245.333581,356.650159 C259.825116,362.980116 273.736186,376.717708 271.927814,388.74842 C271.316093,392.822618 268.864744,397.936563 266.268279,403.349491 C264.395163,407.256349 262.457302,411.29708 260.724837,415.810828 C244.873674,457.170863 262.314419,507.36651 300.424186,530.08028 C322.508651,543.246681 347.34586,545.892902 369.256186,548.228984 C380.322977,549.409297 390.775814,550.522673 400.465116,552.79405 C414.744558,556.143104 429.519628,566.736913 434.830884,577.43559 C437.701953,583.223362 436.806698,586.795538 435.706047,589.263262 C434.145488,592.759576 430.381395,596.914098 426.396279,601.314054 C419.24986,609.203631 410.355349,619.023209 406.74307,633.133414 C399.203721,662.569835 418.240744,694.614547 449.172837,704.563535 C458.933581,707.702855 469.895442,709.396347 480.495628,711.034059 C488.736,712.305851 497.253209,713.620037 504.011163,715.492027 L511.271442,717.50012 L512.865488,716.861993 C521.536744,719.787116 535.177674,723.10047 552.433116,723.10047 C564.011163,723.10047 575.778977,721.603325 587.410605,718.646965 C593.927442,716.993634 599.72093,715.467483 604.987535,714.079668 C626.971535,708.294127 638.004837,705.389085 654.452093,705.389085 C675.138977,705.404703 696.781395,724.198228 703.40093,731.469758 L720,750 L736.634791,731.427365 C742.680558,724.677939 764.642233,705.406934 785.652837,705.389085 C801.995163,705.389085 813.028465,708.294127 835.008,714.079668 C840.274605,715.465252 846.070326,716.991403 852.589395,718.646965 C864.218791,721.603325 875.988837,723.10047 887.566884,723.10047 C904.822326,723.10047 918.461023,719.787116 927.134512,716.861993 L928.728558,717.50012 L935.988837,715.492027 C942.744558,713.620037 951.264,712.305851 959.50214,711.034059 C970.102326,709.396347 981.064186,707.702855 990.82493,704.563535 C1021.75702,694.614547 1040.79181,662.572066 1033.25693,633.133414 C1029.64465,619.023209 1020.75237,609.203631 1013.60595,601.314054 C1009.6186,596.914098 1005.85451,592.759576 1004.29395,589.263262 C1003.1933,586.795538 1002.29805,583.223362 1005.16912,577.43559 C1010.48037,566.736913 1025.25321,556.143104 1039.53712,552.79405 C1049.22419,550.522673 1059.67479,549.409297 1070.74158,548.228984 C1092.65637,545.892902 1117.49135,543.246681 1139.57358,530.082511 C1177.68558,507.36651 1195.12409,457.170863 1179.27293,415.808597 C1177.5427,411.29708 1175.60484,407.256349 1173.73172,403.349491 C1171.13526,397.936563 1168.68391,392.822618 1168.06995,388.746188 C1166.26381,376.717708 1180.17488,362.980116 1194.66865,356.647927 C1204.28428,352.446549 1215.05414,349.704386 1226.45581,346.801575 C1239.09656,343.584163 1252.16595,340.25519 1265.12149,334.592366 C1295.40167,321.359029 1323.48726,291.603544 1317.96837,254.962529 C1316.59088,245.832396 1313.31795,238.18156 1310.42902,231.432134 C1308.7747,227.563207 1307.20744,223.910708 1306.39256,220.787006 C1300.5053,198.240577 1325.54344,173.266586 1353.32093,160.249677 C1361.18623,156.56371 1369.40874,153.214656 1378.11572,149.669255 C1399.48353,140.967516 1421.39609,132.038193 1440,117.312173 L1440,36 L1440,86.4165372 C1416.3974,114.636946 1377.41693,124.313726 1343.84149,140.048255 Z"/><filter id="filter-2" width="106.2%" height="110.3%" x="-3.1%" y="-3.1%" filterUnits="objectBoundingBox"><feMorphology in="SourceAlpha" operator="dilate" radius="5" result="shadowSpreadOuter1"/><feOffset dx="0" dy="2" in="shadowSpreadOuter1" result="shadowOffsetOuter1"/><feGaussianBlur in="shadowOffsetOuter1" result="shadowBlurOuter1" stdDeviation="9.5"/><feColorMatrix in="shadowBlurOuter1" type="matrix" values="0 0 0 0 0.321925951 0 0 0 0 0.301873056 0 0 0 0 0.301873056 0 0 0 0.5 0"/></filter><path id="path-3" d="M419.183136,156 L427.001318,137.717143 L466.658762,137.717143 L474.59025,156 L490,156 L454.194993,77 L439.6917,77 L404,156 L419.183136,156 Z M462,126 L432,126 L446.942966,91 L462,126 Z M526.421663,157 C538.088975,157 547.400387,151.899452 552,142.83181 L541.230174,136.484461 C537.640232,142.265082 532.255319,144.872029 526.309478,144.872029 C515.988395,144.872029 508.135397,137.731261 508.135397,125.943327 C508.135397,114.268739 515.988395,107.014625 526.309478,107.014625 C532.255319,107.014625 537.640232,109.621572 541.230174,115.402194 L552,109.054845 C547.400387,99.8738574 538.088975,95 526.421663,95 C507.462282,95 494,107.808044 494,125.943327 C494,144.078611 507.462282,157 526.421663,157 Z M582.56701,157 C591.639175,157 598.216495,154.053016 601.618557,148.839122 L601.618557,156.206581 L615,156.206581 L615,120.729433 C615,103.274223 604.907216,95 587.443299,95 C577.690722,95 568.278351,97.4936015 561.814433,102.480804 L567.371134,112.795247 C571.907216,109.054845 578.938144,106.787934 585.742268,106.787934 C595.835052,106.787934 600.824742,111.661792 600.824742,119.936015 L600.824742,120.842779 L585.175258,120.842779 C566.804124,120.842779 560,128.776965 560,138.864717 C560,149.40585 568.731959,157 582.56701,157 Z M585.620253,146 C578.329114,146 574,142.8 574,137.834483 C574,133.531034 576.620253,130 586.303797,130 L601,130 L601,136.841379 C598.607595,142.910345 592.56962,146 585.620253,146 Z M658.47619,157 C666.716049,157 673.714286,154.162884 678.455026,148.375167 L678.455026,156.205607 L692,156.205607 L692,72 L677.890653,72 L677.890653,103.094793 C673.149912,97.5340454 666.26455,94.9238985 658.47619,94.9238985 C640.9806,94.9238985 628,107.066756 628,125.905207 C628,144.743658 640.9806,157 658.47619,157 Z M660,144 C649.811321,144 642,136.60479 642,125 C642,113.39521 649.811321,106 660,106 C670.188679,106 678,113.39521 678,125 C678,136.60479 670.188679,144 660,144 Z M738.498168,157 C748.945055,157 757.461538,153.599634 762.912088,147.13894 L755.304029,138.411335 C750.989011,142.83181 745.652015,144.985375 738.838828,144.985375 C728.278388,144.985375 720.897436,139.318099 719.194139,130.477148 L766.772894,130.477148 C766.886447,129.117002 767,127.416819 767,126.283364 C767,107.354662 754.054945,95 736.340659,95 C718.285714,95 705,107.921389 705,125.943327 C705,143.965265 718.172161,157 738.498168,157 Z M754,121 L720,121 C721.346535,112 727.966997,106 737.056106,106 C746.257426,106 752.877888,112.115385 754,121 Z M795.137738,156 L795.137738,125.387037 C795.137738,113.412963 801.471445,107.312963 810.858903,107.312963 C819.454647,107.312963 824.431131,112.509259 824.431131,123.240741 L824.431131,156 L838.568869,156 L838.568869,125.387037 C838.568869,113.412963 845.015677,107.312963 854.290034,107.312963 C862.885778,107.312963 867.862262,112.509259 867.862262,123.240741 L867.862262,156 L882,156 L882,121.433333 C882,103.246296 871.820829,95 857.230683,95 C847.617021,95 839.473684,98.8407407 834.610302,105.053704 C830.425532,98.2759259 823.073908,95 814.25196,95 C805.995521,95 798.983203,97.937037 794.459127,103.359259 L794.459127,95.6777778 L781,95.6777778 L781,156 L795.137738,156 Z M907,85 C912.2875,85 916,81.1466667 916,76.16 C916,71.5133333 912.175,68 907,68 C901.825,68 898,71.74 898,76.5 C898,81.26 901.825,85 907,85 Z M914,155 L914,95 L900,95 L900,155 L914,155 Z M960.421663,157 C972.088975,157 981.400387,151.899452 986,142.83181 L975.230174,136.484461 C971.640232,142.265082 966.255319,144.872029 960.309478,144.872029 C949.988395,144.872029 942.135397,137.731261 942.135397,125.943327 C942.135397,114.268739 949.988395,107.014625 960.309478,107.014625 C966.255319,107.014625 971.640232,109.621572 975.230174,115.402194 L986,109.054845 C981.400387,99.8738574 972.088975,95 960.421663,95 C941.462282,95 928,107.808044 928,125.943327 C928,144.078611 941.462282,157 960.421663,157 Z M386.083551,293 L386.083551,241.311429 L412.206266,283.971429 L418.793734,283.971429 L444.916449,240.634286 L445.030026,293 L459,293 L458.886423,214 L446.733681,214 L415.727154,266.365714 L384.152742,214 L372,214 L372,293 L386.083551,293 Z M507.498168,294 C517.945055,294 526.461538,290.599634 531.912088,284.13894 L524.304029,275.411335 C519.989011,279.83181 514.652015,281.985375 507.838828,281.985375 C497.278388,281.985375 489.897436,276.318099 488.194139,267.477148 L535.772894,267.477148 C535.886447,266.117002 536,264.416819 536,263.283364 C536,244.354662 523.054945,232 505.340659,232 C487.285714,232 474,244.921389 474,262.943327 C474,280.965265 487.172161,294 507.498168,294 Z M522,259 L488,259 C489.346535,250 495.966997,244 505.056106,244 C514.257426,244 520.877888,250.115385 522,259 Z M564.020913,293 L564.020913,262.5 C564.020913,250.412963 570.750951,244.312963 580.73384,244.312963 C589.707224,244.312963 594.979087,249.509259 594.979087,260.240741 L594.979087,293 L609,293 L609,258.433333 C609,240.246296 598.344106,232 583.986692,232 C575.237643,232 567.946768,234.937037 563.347909,240.472222 L563.347909,232.677778 L550,232.677778 L550,293 L564.020913,293 Z M649.530612,294 C654.581633,294 659.632653,292.652504 663,289.957511 L659.071429,279.963581 C656.938776,281.647951 654.132653,282.433991 651.214286,282.433991 C645.826531,282.433991 642.908163,279.289833 642.908163,273.450683 L642.908163,244.92868 L658.959184,244.92868 L658.959184,233.699545 L642.908163,233.699545 L642.908163,220 L628.877551,220 L628.877551,233.699545 L619,233.699545 L619,244.92868 L628.877551,244.92868 L628.877551,273.787557 C628.877551,287.037936 636.397959,294 649.530612,294 Z M701.943761,294 C720.615114,294 734,281.078611 734,262.943327 C734,244.808044 720.615114,232 701.943761,232 C683.497364,232 670,244.808044 670,262.943327 C670,281.078611 683.497364,294 701.943761,294 Z M701.943218,282 C691.722397,282 684,274.60479 684,263 C684,251.39521 691.722397,244 701.943218,244 C712.277603,244 720,251.39521 720,263 C720,274.60479 712.277603,282 701.943218,282 Z M762.158576,293 L762.158576,263.742593 C762.158576,251.42963 768.954693,245.103704 779.71521,245.103704 C780.734628,245.103704 781.754045,245.216667 783,245.442593 L783,232 C772.919094,232 765.556634,235.162963 761.478964,241.488889 L761.478964,232.677778 L748,232.677778 L748,293 L762.158576,293 Z M813.594017,294 C830.581197,294 841,286.632541 841,275.297989 C841,251.608775 803.628205,262.489945 803.628205,250.248629 C803.628205,246.281536 807.705128,243.447898 816.311966,243.447898 C822.087607,243.447898 827.863248,244.581353 833.638889,247.981718 L839.074786,237.213894 C833.638889,233.926874 824.465812,232 816.425214,232 C800.117521,232 789.811966,239.480804 789.811966,250.928702 C789.811966,275.071298 827.183761,264.190128 827.183761,275.751371 C827.183761,279.945155 823.446581,282.438757 814.5,282.438757 C806.912393,282.438757 798.758547,279.945155 793.435897,276.431444 L788,287.199269 C793.435897,291.053016 803.514957,294 813.594017,294 Z M868.020913,294 L868.020913,263.433962 C868.020913,251.320755 874.750951,245.207547 884.73384,245.207547 C893.707224,245.207547 898.979087,250.415094 898.979087,261.169811 L898.979087,294 L913,294 L913,259.358491 C913,241.132075 902.344106,232.867925 887.986692,232.867925 C879.686312,232.867925 872.619772,235.584906 868.020913,240.566038 L868.020913,210 L854,210 L854,294 L868.020913,294 Z M938,223 C943.2875,223 947,219.146667 947,214.16 C947,209.513333 943.175,206 938,206 C932.825,206 929,209.74 929,214.5 C929,219.26 932.825,223 938,223 Z M945,293 L945,233 L931,233 L931,293 L945,293 Z M978.109347,315 L978.109347,285.712534 C982.962963,291.253406 989.73545,293.854223 997.410935,293.854223 C1015.0194,293.854223 1028,281.641689 1028,262.870572 C1028,244.212534 1015.0194,232 997.410935,232 C989.171076,232 982.17284,234.826975 977.432099,240.594005 L977.432099,232.678474 L964,232.678474 L964,315 L978.109347,315 Z M995.056782,282 C984.835962,282 977,274.60479 977,263 C977,251.39521 984.835962,244 995.056782,244 C1005.2776,244 1013,251.39521 1013,263 C1013,274.60479 1005.2776,282 995.056782,282 Z"/><filter id="filter-4" width="102.1%" height="105.7%" x="-1.1%" y="-2%" filterUnits="objectBoundingBox"><feOffset dx="0" dy="2" in="SourceAlpha" result="shadowOffsetOuter1"/><feGaussianBlur in="shadowOffsetOuter1" result="shadowBlurOuter1" stdDeviation="2"/><feColorMatrix in="shadowBlurOuter1" type="matrix" values="0 0 0 0 0.565047554 0 0 0 0 0.538830123 0 0 0 0 0.538830123 0 0 0 1 0"/></filter><filter id="filter-5" width="104.6%" height="122.1%" x="-2.3%" y="-11%" filterUnits="objectBoundingBox"><feOffset dx="0" dy="3" in="SourceAlpha" result="shadowOffsetOuter1"/><feGaussianBlur in="shadowOffsetOuter1" result="shadowBlurOuter1" stdDeviation="4"/><feColorMatrix in="shadowBlurOuter1" result="shadowMatrixOuter1" type="matrix" values="0 0 0 0 0 0 0 0 0 0 0 0 0 0 0 0 0 0 0.5 0"/><feMerge><feMergeNode in="shadowMatrixOuter1"/><feMergeNode in="SourceGraphic"/></feMerge></filter></defs><g id="Page-1" fill="none" fill-rule="evenodd" stroke="none" stroke-width="1"><g id="Desktop-HD-Copy-11" transform="translate(0.000000, -1110.000000)"><g id="Group-15" transform="translate(-231.000000, 1110.000000)"><g id="Group-14-Copy" transform="translate(0.000000, 72.000000)"><g id="Group-13"><g id="Group-8"><g id="Fill-373"><use fill="#000" fill-opacity="1" filter="url(#filter-2)" xlink:href="#path-1"/><use fill="#FFFFFE" fill-rule="evenodd" xlink:href="#path-1"/></g><path id="Fill-375" fill="#22202C" d="M720,0 L0,0 L0,85.5773689 C23.6026047,113.85573 62.5830698,123.552382 96.1585116,139.319223 C130.553302,155.470621 164.778419,189.139489 155.207442,225.869164 C152.36093,236.795504 145.786047,246.633011 144.107163,257.798582 C140.450233,282.132997 161.255442,303.896246 183.824372,313.780705 C206.393302,323.662928 231.703814,325.9971 254.274977,335.877087 C276.843907,345.75931 297.655814,367.513616 294.007814,391.850267 C292.315535,403.138807 285.653581,412.980785 281.574698,423.643301 C269.623814,454.895273 283.11293,493.780256 311.863814,510.953413 C339.47386,527.444652 374.241488,523.789124 405.562047,531.144896 C436.880372,538.500669 469.165395,569.207106 456.096,598.560886 C449.398326,613.603328 432.444279,623.009327 428.36986,638.959503 C423.66586,657.380235 436.471814,677.412977 456.013395,683.711217 C471.348837,688.654565 493.033674,689.700918 509.96986,694.396092 L512.84093,693.246892 C512.84093,693.246892 540.747907,707.918192 581.909581,697.439011 C616.842419,688.545011 630.79814,683.447393 654.467721,683.46528 C690.050233,683.492109 720,717 720,717 C720,717 749.949767,683.492109 785.532279,683.46528 C809.20186,683.447393 823.157581,688.545011 858.090419,697.439011 C899.252093,707.918192 927.15907,693.246892 927.15907,693.246892 L930.03014,694.396092 C946.966326,689.700918 968.651163,688.654565 983.984372,683.711217 C1003.52819,677.412977 1016.33414,657.380235 1011.62791,638.959503 C1007.55572,623.009327 990.601674,613.603328 983.904,598.560886 C970.834605,569.207106 1003.11963,538.500669 1034.43795,531.144896 C1065.75628,523.789124 1100.52614,527.444652 1128.13619,510.953413 C1156.88707,493.780256 1170.37619,454.895273 1158.4253,423.643301 C1154.34642,412.980785 1147.68447,403.138807 1145.99219,391.850267 C1142.34419,367.513616 1163.15609,345.75931 1185.72502,335.877087 C1208.29395,325.9971 1233.6067,323.662928 1256.17563,313.780705 C1278.74233,303.896246 1299.54977,282.132997 1295.8906,257.798582 C1294.21395,246.633011 1287.63907,236.795504 1284.79256,225.869164 C1275.22158,189.139489 1309.4467,155.470621 1343.84149,139.319223 C1377.41693,123.552382 1416.3974,113.85573 1440,85.5773689 L1440,0 L720,0"/></g><path id="PhilCollins" fill="#CFDBEE" fill-rule="nonzero" d="M657.376,609 L657.376,604.152 L661.168,604.152 C665.584,604.152 668.32,601.872 668.32,598.176 C668.32,594.456 665.584,592.2 661.168,592.2 L654.256,592.2 L654.256,609 L657.376,609 Z M661.024,601.512 L657.376,601.512 L657.376,594.84 L661.024,594.84 C663.76,594.84 665.176,596.064 665.176,598.176 C665.176,600.288 663.76,601.512 661.024,601.512 Z M674.339543,609 L674.339543,602.52 C674.339543,599.952 675.779543,598.656 677.915543,598.656 C679.835543,598.656 680.963543,599.76 680.963543,602.04 L680.963543,609 L683.963543,609 L683.963543,601.656 C683.963543,597.792 681.683543,596.04 678.611543,596.04 C676.835543,596.04 675.323543,596.616 674.339543,597.672 L674.339543,591.192 L671.339543,591.192 L671.339543,609 L674.339543,609 Z M689.239086,594.072 C690.367086,594.072 691.159086,593.256 691.159086,592.2 C691.159086,591.216 690.343086,590.472 689.239086,590.472 C688.135086,590.472 687.319086,591.264 687.319086,592.272 C687.319086,593.28 688.135086,594.072 689.239086,594.072 Z M690.727086,609 L690.727086,596.184 L687.727086,596.184 L687.727086,609 L690.727086,609 Z M697.610629,609 L697.610629,591.192 L694.610629,591.192 L694.610629,609 L697.610629,609 Z M716.129714,609.24 C718.889714,609.24 721.241714,608.256 722.801714,606.432 L720.785714,604.512 C719.561714,605.856 718.049714,606.504 716.297714,606.504 C712.817714,606.504 710.297714,604.056 710.297714,600.6 C710.297714,597.144 712.817714,594.696 716.297714,594.696 C718.049714,594.696 719.561714,595.344 720.785714,596.664 L722.801714,594.768 C721.241714,592.944 718.889714,591.96 716.153714,591.96 C710.993714,591.96 707.153714,595.584 707.153714,600.6 C707.153714,605.616 710.993714,609.24 716.129714,609.24 Z M730.741257,609.168 C734.725257,609.168 737.581257,606.432 737.581257,602.592 C737.581257,598.752 734.725257,596.04 730.741257,596.04 C726.805257,596.04 723.925257,598.752 723.925257,602.592 C723.925257,606.432 726.805257,609.168 730.741257,609.168 Z M730.741257,606.6 C728.581257,606.6 726.949257,605.04 726.949257,602.592 C726.949257,600.144 728.581257,598.584 730.741257,598.584 C732.925257,598.584 734.557257,600.144 734.557257,602.592 C734.557257,605.04 732.925257,606.6 730.741257,606.6 Z M743.4088,609 L743.4088,591.192 L740.4088,591.192 L740.4088,609 L743.4088,609 Z M750.292343,609 L750.292343,591.192 L747.292343,591.192 L747.292343,609 L750.292343,609 Z M755.687886,594.072 C756.815886,594.072 757.607886,593.256 757.607886,592.2 C757.607886,591.216 756.791886,590.472 755.687886,590.472 C754.583886,590.472 753.767886,591.264 753.767886,592.272 C753.767886,593.28 754.583886,594.072 755.687886,594.072 Z M757.175886,609 L757.175886,596.184 L754.175886,596.184 L754.175886,609 L757.175886,609 Z M764.059429,609 L764.059429,602.52 C764.059429,599.952 765.499429,598.656 767.635429,598.656 C769.555429,598.656 770.683429,599.76 770.683429,602.04 L770.683429,609 L773.683429,609 L773.683429,601.656 C773.683429,597.792 771.403429,596.04 768.331429,596.04 C766.459429,596.04 764.899429,596.664 763.915429,597.84 L763.915429,596.184 L761.059429,596.184 L761.059429,609 L764.059429,609 Z M781.406971,609.168 C785.006971,609.168 787.214971,607.608 787.214971,605.208 C787.214971,600.192 779.294971,602.496 779.294971,599.904 C779.294971,599.064 780.158971,598.464 781.982971,598.464 C783.206971,598.464 784.430971,598.704 785.654971,599.424 L786.806971,597.144 C785.654971,596.448 783.710971,596.04 782.006971,596.04 C778.550971,596.04 776.366971,597.624 776.366971,600.048 C776.366971,605.16 784.286971,602.856 784.286971,605.304 C784.286971,606.192 783.494971,606.72 781.598971,606.72 C779.990971,606.72 778.262971,606.192 777.134971,605.448 L775.982971,607.728 C777.134971,608.544 779.270971,609.168 781.406971,609.168 Z"/><path id="Fill-590" fill="#4B4A55" d="M645.893,491.786 C643.191,491.786 641,489.595 641,486.893 C641,484.191 643.191,482 645.893,482 C648.595,482 650.786,484.191 650.786,486.893 C650.786,489.595 648.595,491.786 645.893,491.786"/><path id="Fill-590-Copy" fill="#4B4A55" d="M719.893,637.786 C717.191,637.786 715,635.595 715,632.893 C715,630.191 717.191,628 719.893,628 C722.595,628 724.786,630.191 724.786,632.893 C724.786,635.595 722.595,637.786 719.893,637.786"/><path id="Fill-590-Copy-2" fill="#4B4A55" d="M951.893,428.786 C949.191,428.786 947,426.595 947,423.893 C947,421.191 949.191,419 951.893,419 C954.595,419 956.786,421.191 956.786,423.893 C956.786,426.595 954.595,428.786 951.893,428.786"/><path id="Fill-575" fill="#4B4A55" d="M742,513.786 C738.134478,513.786 735,510.652953 735,506.786 C735,502.920478 738.134478,499.786 742,499.786 C745.865522,499.786 749,502.920478 749,506.786 C749,510.652953 745.865522,513.786 742,513.786"/><path id="Fill-575-Copy-8" fill="#4B4A55" d="M1128,115 C1124.13448,115 1121,111.866953 1121,108 C1121,104.134478 1124.13448,101 1128,101 C1131.86552,101 1135,104.134478 1135,108 C1135,111.866953 1131.86552,115 1128,115"/><path id="Fill-575-Copy-7" fill="#4B4A55" d="M771,118 C767.134478,118 764,114.866953 764,111 C764,107.134478 767.134478,104 771,104 C774.865522,104 778,107.134478 778,111 C778,114.866953 774.865522,118 771,118"/><path id="Fill-575-Copy-3" fill="#4B4A55" d="M475,550 C471.134478,550 468,546.866953 468,543 C468,539.134478 471.134478,536 475,536 C478.865522,536 482,539.134478 482,543 C482,546.866953 478.865522,550 475,550"/><path id="Fill-575-Copy-4" fill="#4B4A55" d="M700,356 C696.134478,356 693,352.866953 693,349 C693,345.134478 696.134478,342 700,342 C703.865522,342 707,345.134478 707,349 C707,352.866953 703.865522,356 700,356"/><path id="Fill-575-Copy-6" fill="#4B4A55" d="M807,234 C803.134478,234 800,230.866953 800,227 C800,223.134478 803.134478,220 807,220 C810.865522,220 814,223.134478 814,227 C814,230.866953 810.865522,234 807,234"/><path id="Fill-575-Copy-5" fill="#4B4A55" d="M589,234 C585.134478,234 582,230.866953 582,227 C582,223.134478 585.134478,220 589,220 C592.865522,220 596,223.134478 596,227 C596,230.866953 592.865522,234 589,234"/><path id="Fill-575-Copy-2" fill="#4B4A55" d="M399,234 C395.134478,234 392,230.866953 392,227 C392,223.134478 395.134478,220 399,220 C402.865522,220 406,223.134478 406,227 C406,230.866953 402.865522,234 399,234"/><path id="Fill-580" fill="#4B4A55" d="M345.001226,341 C338.371487,341 333,335.629062 333,329 C333,322.373391 338.371487,317 345.001226,317 C351.628513,317 357,322.373391 357,329 C357,335.629062 351.628513,341 345.001226,341"/><path id="Fill-580-Copy-11" fill="#4B4A55" d="M225.001226,116 C218.371487,116 213,110.629062 213,104 C213,97.3733906 218.371487,92 225.001226,92 C231.628513,92 237,97.3733906 237,104 C237,110.629062 231.628513,116 225.001226,116"/><path id="Fill-580-Copy-2" fill="#4B4A55" d="M501.001226,491 C494.371487,491 489,485.629062 489,479 C489,472.373391 494.371487,467 501.001226,467 C507.628513,467 513,472.373391 513,479 C513,485.629062 507.628513,491 501.001226,491"/><path id="Fill-580-Copy-3" fill="#4B4A55" d="M616.001226,638 C609.371487,638 604,632.629062 604,626 C604,619.373391 609.371487,614 616.001226,614 C622.628513,614 628,619.373391 628,626 C628,632.629062 622.628513,638 616.001226,638"/><path id="Fill-580-Copy-4" fill="#4B4A55" d="M843.001226,647 C836.371487,647 831,641.629062 831,635 C831,628.373391 836.371487,623 843.001226,623 C849.628513,623 855,628.373391 855,635 C855,641.629062 849.628513,647 843.001226,647"/><path id="Fill-580-Copy-5" fill="#4B4A55" d="M959.001226,543 C952.371487,543 947,537.629062 947,531 C947,524.373391 952.371487,519 959.001226,519 C965.628513,519 971,524.373391 971,531 C971,537.629062 965.628513,543 959.001226,543"/><path id="Fill-580-Copy-8" fill="#4B4A55" d="M1110.00123,353 C1103.37149,353 1098,347.629062 1098,341 C1098,334.373391 1103.37149,329 1110.00123,329 C1116.62851,329 1122,334.373391 1122,341 C1122,347.629062 1116.62851,353 1110.00123,353"/><path id="Fill-580-Copy-6" fill="#4B4A55" d="M843.001226,418 C836.371487,418 831,412.629062 831,406 C831,399.373391 836.371487,394 843.001226,394 C849.628513,394 855,399.373391 855,406 C855,412.629062 849.628513,418 843.001226,418"/><path id="Fill-580-Copy-7" fill="#4B4A55" d="M1019.00123,195 C1012.37149,195 1007,189.629062 1007,183 C1007,176.373391 1012.37149,171 1019.00123,171 C1025.62851,171 1031,176.373391 1031,183 C1031,189.629062 1025.62851,195 1019.00123,195"/><path id="Fill-580-Copy" fill="#4B4A55" d="M392.001226,136 C385.371487,136 380,130.629062 380,124 C380,117.373391 385.371487,112 392.001226,112 C398.628513,112 404,117.373391 404,124 C404,130.629062 398.628513,136 392.001226,136"/><g id="Group-11" transform="translate(878.000000, 572.000000)"><polyline id="Fill-430" fill="#FFFFFE" points="10.559 3 3 10.557 8.441 16 16 8.443 10.559 3"/><path id="Fill-431" fill="#DA303C" d="M1.59739396,1.59582964 L1.59739396,1.59582964 C-0.532464652,3.72604259 -0.532464652,7.17635315 1.59739396,9.304126 L3.29298586,11 L11,3.29170364 L9.3044081,1.59582964 C7.17454949,-0.531943212 3.72481286,-0.531943212 1.59739396,1.59582964"/><polyline id="Fill-432" fill="#BB9A3C" points="59 66.997 75 75 66.997 59 66.775 62.203 64.289 61.709 64.643 64.643 62.063 63.934 62.172 66.959 59 66.997"/><polyline id="Fill-433" fill="#DA303C" points="69 72 75 75 71.999 69 69 72"/><polyline id="Fill-434" fill="#E6BA3B" points="8 15.702 59.298 67 62.353 66.963 62.248 64.05 64.732 64.732 64.391 61.907 66.785 62.382 67 59.298 15.702 8 8 15.702"/></g><g id="Group-7" transform="translate(513.000000, 543.000000)"><polyline id="Fill-435" fill="#E6BA3B" points="83 8.737 8.737 83 0 74.263 74.262 0 83 8.737"/><polyline id="Fill-436" fill="#BB9A3C" points="2 72.413 3.586 74 4 73.587 2.414 72"/><polyline id="Fill-437" fill="#BB9A3C" points="4 70.44 6.559 73 7 72.559 4.44 70"/><polyline id="Fill-438" fill="#BB9A3C" points="6 68.414 7.587 70 8 69.586 6.413 68"/><polyline id="Fill-439" fill="#BB9A3C" points="8 66.441 10.56 69 11 68.56 8.44 66"/><polyline id="Fill-440" fill="#BB9A3C" points="10 64.413 11.586 66 12 65.587 10.413 64"/><polyline id="Fill-441" fill="#BB9A3C" points="12 62.44 14.56 65 15 64.56 12.441 62"/><polyline id="Fill-442" fill="#BB9A3C" points="15 60.413 16.587 62 17 61.587 15.413 60"/><polyline id="Fill-443" fill="#BB9A3C" points="17 57.441 19.56 60 20 59.559 17.44 57"/><polyline id="Fill-444" fill="#BB9A3C" points="19 55.414 20.587 57 21 56.586 19.413 55"/><polyline id="Fill-445" fill="#BB9A3C" points="21 53.44 23.56 56 24 55.56 21.44 53"/><polyline id="Fill-446" fill="#BB9A3C" points="23 51.413 24.586 53 25 52.587 23.414 51"/><polyline id="Fill-447" fill="#BB9A3C" points="25 49.44 27.559 52 28 51.559 25.44 49"/><polyline id="Fill-448" fill="#BB9A3C" points="27 47.413 28.587 49 29 48.587 27.413 47"/><polyline id="Fill-449" fill="#BB9A3C" points="30 45.441 32.56 48 33 47.56 30.44 45"/><polyline id="Fill-450" fill="#BB9A3C" points="32 42.413 33.587 44 34 43.586 32.413 42"/><polyline id="Fill-451" fill="#BB9A3C" points="34 40.44 36.56 43 37 42.56 34.441 40"/><polyline id="Fill-452" fill="#BB9A3C" points="36 38.413 37.587 40 38 39.587 36.414 38"/><polyline id="Fill-453" fill="#BB9A3C" points="38 36.44 40.559 39 41 38.559 38.44 36"/><polyline id="Fill-454" fill="#BB9A3C" points="40 34.414 41.587 36 42 35.586 40.413 34"/><polyline id="Fill-455" fill="#BB9A3C" points="42 32.44 44.56 35 45 34.56 42.44 32"/><polyline id="Fill-456" fill="#BB9A3C" points="45 30.413 46.586 32 47 31.587 45.414 30"/><polyline id="Fill-457" fill="#BB9A3C" points="47 27.44 49.559 30 50 29.56 47.441 27"/><polyline id="Fill-458" fill="#BB9A3C" points="49 25.413 50.587 27 51 26.587 49.413 25"/><polyline id="Fill-459" fill="#BB9A3C" points="51 23.441 53.559 26 54 25.56 51.44 23"/><polyline id="Fill-460" fill="#BB9A3C" points="53 21.414 54.587 23 55 22.586 53.413 21"/><polyline id="Fill-461" fill="#BB9A3C" points="55 19.44 57.56 22 58 21.56 55.441 19"/><polyline id="Fill-462" fill="#BB9A3C" points="57 17.413 58.586 19 59 18.587 57.414 17"/><polyline id="Fill-463" fill="#BB9A3C" points="60 15.44 62.559 18 63 17.559 60.44 15"/><polyline id="Fill-464" fill="#BB9A3C" points="62 13.414 63.587 15 64 14.586 62.413 13"/><polyline id="Fill-465" fill="#BB9A3C" points="64 10.441 66.56 13 67 12.56 64.44 10"/><polyline id="Fill-466" fill="#BB9A3C" points="66 8.413 67.586 10 68 9.587 66.413 8"/><polyline id="Fill-467" fill="#BB9A3C" points="68 6.44 70.559 9 71 8.56 68.441 6"/><polyline id="Fill-468" fill="#BB9A3C" points="70 4.413 71.587 6 72 5.587 70.413 4"/><polyline id="Fill-469" fill="#BB9A3C" points="72 2.44 74.56 5 75 4.559 72.44 2"/></g><g id="Group-6" transform="translate(228.000000, 157.000000)"><path id="Fill-494" fill="#FFFFFE" d="M61.372714,44.2821231 L60.8272946,44.5662744 C68.5906671,59.3538815 72.7769383,73.7610546 72.772216,83.3235663 C72.772216,86.1275051 72.4109642,88.5063913 71.7049884,90.3381101 C70.9966515,92.1721773 69.9672019,93.4426387 68.6095561,94.1471459 C67.7949687,94.5698503 66.8882974,94.7765058 65.8730145,94.7765058 C61.7977162,94.8070344 56.0271315,91.2469245 50.0062677,84.9932485 C43.9759595,78.7489659 37.6481497,69.8721746 32.1750665,59.4337256 C24.411694,44.6484669 20.2230617,30.2389454 20.2301451,20.6764337 C20.2301451,17.8748432 20.5890358,15.4936087 21.2950116,13.6618899 C22.0057096,11.8278227 23.0351593,10.5573613 24.3904439,9.85285405 C25.2050313,9.43249807 26.1140637,9.22349425 27.1269855,9.22349425 C31.204645,9.1929656 36.9752297,12.7530755 42.9937323,19.0090999 C49.0240405,25.2510341 55.3518503,34.1278254 60.8272946,44.5662744 L61.372714,44.2821231 L61.9181334,44.0003202 C56.3931055,33.4702853 50.0157122,24.5113015 43.8815146,18.1613428 C37.7355113,11.823126 31.8846484,8.03052865 27.1269855,8 C25.9440628,8 24.8248905,8.24892589 23.8214132,8.7679129 C22.1402936,9.64150188 20.9243153,11.1984629 20.1475058,13.2250954 C19.3683352,15.2564246 19.0023611,17.7715155 19,20.6764337 C19.0070834,30.5700638 23.259466,45.0735196 31.0842277,59.9996798 C36.6068945,70.5297147 42.9866489,79.4886985 49.1208466,85.8386572 C55.2668498,92.176874 61.1177127,95.9718197 65.8730145,96 C67.0582983,96 68.1751095,95.7534225 69.1785868,95.2320871 C70.8620675,94.3584981 72.0756847,92.8015371 72.8548553,90.7749046 C73.6340259,88.7435754 74,86.2284845 74,83.3235663 C73.9952778,73.4299362 69.7428952,58.9264804 61.9181334,44.0003202 L61.372714,44.2821231"/><path id="Fill-495" fill="#FFFFFE" d="M39.2821231,37.629105 L39.563926,38.174501 C54.3515331,30.4114617 68.7610546,26.2253703 78.3235663,26.2300923 C81.1251568,26.2300923 83.5063913,26.5913286 85.3357617,27.2972741 C87.1721773,28.0055806 88.4426387,29.034986 89.1471459,30.3902125 C89.5675019,31.204765 89.7765058,32.1137583 89.7765058,33.1266366 C89.804686,37.2041211 86.2469245,42.974458 79.9909001,48.9927023 C73.7489659,55.0251127 64.8721746,61.3502898 54.4337256,66.825499 C39.6461185,74.5885383 25.236597,78.7769908 15.6764337,78.7699077 C12.8724949,78.7699077 10.4936087,78.4110324 8.66188989,77.7027259 C6.8278227,76.9944194 5.5573613,75.965014 4.85285405,74.6097875 C4.43014971,73.795235 4.22349425,72.8862417 4.22349425,71.8733634 C4.1929656,67.7958789 7.75307555,62.025542 14.0067515,56.0072977 C20.2510341,49.9772483 29.1278254,43.6497102 39.563926,38.174501 L39.0003202,37.083709 C28.4702853,42.6084997 19.5113015,48.9856192 13.1613428,55.1195536 C6.82312598,61.265293 3.02818029,67.1159047 3,71.8733634 C3,73.0562352 3.24657754,74.1753595 3.7679129,75.1787937 C4.63915352,76.8598412 6.19846289,78.0757673 8.2250954,78.8525435 C10.2540763,79.6316806 12.7691671,79.997639 15.6764337,80 C25.5700638,79.9929169 40.0735196,75.7407169 54.9996798,67.916291 C65.5297147,62.3915003 74.4886985,56.0143808 80.8386572,49.8804464 C87.176874,43.734707 90.9694714,37.8840953 91,33.1266366 C91,31.9437648 90.7510741,30.8270015 90.2297387,29.8235673 C89.3584981,28.1401588 87.7991887,26.9265937 85.7749046,26.1474565 C83.7435754,25.3683194 81.2284845,25.002361 78.3235663,25 C68.4299362,25.0070831 53.9264804,29.2592831 39.0003202,37.083709 L39.2821231,37.629105"/><path id="Fill-496" fill="#FFFFFE" d="M62.8445354,57.022118 L62.2624196,56.8382526 C58.5780245,68.6645685 53.6756283,78.9586729 48.6376388,86.2637861 C46.1221508,89.9151641 43.5692577,92.8169371 41.1402688,94.7852396 C38.71128,96.7582566 36.4178843,97.776588 34.447107,97.7718735 C33.8813559,97.7718735 33.3366452,97.6893698 32.8106371,97.5243624 C30.7416715,96.8714046 29.0864991,94.9101738 27.9456458,91.7467462 C26.8071303,88.5974622 26.2156634,84.3096271 26.2180012,79.2486145 C26.2156634,70.338215 28.0368206,59.0304938 31.7352425,47.1641046 C35.4219755,35.3354315 40.3220339,25.0413271 45.3600234,17.7385711 C47.8778492,14.0871931 50.4307423,11.1830629 52.8597312,9.21476039 C55.28872,7.24174336 57.5797779,6.22341199 59.5505552,6.22812649 C60.1186441,6.22812649 60.6633548,6.31063019 61.1893629,6.47563759 C63.2583285,7.12859543 64.9111631,9.08982622 66.0543542,12.2532538 C67.1928697,15.4048951 67.7843366,19.6903729 67.7819988,24.7537428 C67.7819988,33.6641422 65.9631794,44.9695062 62.2624196,56.8382526 L62.8445354,57.022118 L63.4243133,57.2059834 C67.1554646,45.2335181 68.9976622,33.8291496 69,24.7537428 C68.9976622,19.596083 68.4061952,15.1880282 67.1975453,11.8336635 C65.993571,8.48872784 64.1373466,6.12912205 61.554062,5.30644231 C60.9064874,5.10136169 60.2355348,5 59.5505552,5 C57.1613092,5.00707175 54.6504968,6.18805326 52.0952659,8.25771748 C44.4506137,14.4808536 36.1630625,28.8954284 30.5733489,46.7963738 C26.8445354,58.7664819 25,70.1732076 25,79.2486145 C25,84.4062743 25.591467,88.8119718 26.8001169,92.1663365 C28.0040912,95.5112722 29.8603156,97.8708779 32.445938,98.6959149 C33.0935126,98.9009956 33.7644652,99 34.447107,99 C36.836353,98.9952855 39.3471654,97.8119467 41.9023963,95.7422825 C49.5493863,89.5215036 57.8345996,75.1045716 63.4243133,57.2059834 L62.8445354,57.022118"/><path id="Fill-497" fill="#FFFFFE" d="M52.0197608,36.1554646 L51.8358954,36.7375804 C63.6645685,40.4219755 73.9586729,45.3220339 81.2614289,50.3600234 C84.9128069,52.8778492 87.8169371,55.4307423 89.7852396,57.8597312 C91.7582566,60.28872 92.776588,62.5821157 92.7718735,64.5505552 C92.7718735,65.1186441 92.6893698,65.6633548 92.5220052,66.1893629 C91.8714046,68.2583285 89.9101738,69.9135009 86.7467462,71.0543542 C83.5951049,72.1928697 79.3072699,72.7843366 74.2462572,72.7819988 C65.3358578,72.7843366 54.0304938,70.9631794 42.1617474,67.2647575 C30.3354315,63.5780245 20.0413271,58.6779661 12.7362139,53.6399766 C9.08483587,51.1221508 6.18306292,48.5692577 4.21476039,46.1402688 C2.23938611,43.71128 1.22341199,41.4202221 1.22812649,39.4494448 C1.22812649,38.8813559 1.31063019,38.3366452 1.47563759,37.8106371 C2.12623818,35.7416715 4.08982622,34.0888369 7.25089651,32.9456458 C10.4025378,31.8071303 14.6903729,31.2156634 19.7513855,31.2180012 C28.661785,31.2156634 39.9695062,33.0368206 51.8358954,36.7375804 L52.0197608,36.1554646 L52.2036262,35.5756867 C40.2311608,31.8445354 28.8267924,30 19.7513855,30 C14.5937257,30.0023378 10.1880282,30.5938048 6.83130627,31.8001169 C3.48872784,33.0040912 1.12912205,34.8603156 0.304085062,37.445938 C0.0990044386,38.0935126 0,38.7644652 0,39.4494448 C0.00471449708,41.836353 1.18805326,44.3495032 3.25771748,46.9047341 C9.47849638,54.5493863 23.8954284,62.8345996 41.7940166,68.4266511 C53.7664819,72.1554646 65.1708504,74 74.2462572,74 C79.403917,74 83.8096146,73.408533 87.1663365,72.1998831 C90.5112722,70.9959088 92.8708779,69.1396844 93.6935577,66.554062 C93.8986383,65.9064874 94,65.2355348 94,64.5505552 C93.9929283,62.163647 92.8095895,59.6504968 90.7422825,57.0976037 C84.5191464,49.4506137 70.1045716,41.1654004 52.2036262,35.5756867 L52.0197608,36.1554646"/><path id="Fill-498" fill="#DA303C" d="M59.4091697,45.5248818 C62.9856322,52.378393 60.3286294,60.8350648 53.4751182,64.4091697 C46.621607,67.9856322 38.1649352,65.3286294 34.5908303,58.4751182 C31.0143678,51.621607 33.6713706,43.1672928 40.5248818,39.5908303 C47.378393,36.0143678 55.8327072,38.6713706 59.4091697,45.5248818"/><path id="Fill-499" fill="#E6BA3B" d="M54.7384801,9.50486404 C53.0785391,6.32409511 54.3108832,2.39858421 57.4938381,0.73853033 C60.676793,-0.921523546 64.602037,0.310904296 66.261978,3.49407562 C67.921919,6.67484455 66.6871727,10.6003555 63.50662,12.2604093 C60.3236651,13.9228656 56.3984211,12.6880354 54.7384801,9.50486404"/><path id="Fill-500" fill="#00A5AE" d="M25.7385906,101.506497 C24.0784013,98.3234299 25.3109297,94.3980475 28.4943606,92.738048 C31.675389,91.0780485 35.6012201,92.3128383 37.2614094,95.4935031 C38.9215987,98.6765701 37.6890703,102.601952 34.5056394,104.261952 C31.324611,105.921951 27.3987799,104.687162 25.7385906,101.506497"/></g><g id="Group-5" transform="translate(1025.000000, 387.000000)"><polyline id="Fill-470" fill="#00A5AE" points="73 62.739 28.962 83 0 20.259 44.038 0 73 62.739"/><polyline id="Fill-471" fill="#22202C" points="48 17.96 11.047 35 6 24.04 42.953 7 48 17.96"/><polyline id="Fill-472" fill="#22202C" points="22 43.162 15.838 46 13 39.838 19.162 37 22 43.162"/><polyline id="Fill-473" fill="#22202C" points="33 38.16 26.838 41 24 34.838 30.16 32 33 38.16"/><polyline id="Fill-474" fill="#22202C" points="43 33.162 36.84 36 34 29.84 40.16 27 43 33.162"/><polyline id="Fill-475" fill="#22202C" points="53 29.16 46.84 32 44 25.838 50.162 23 53 29.16"/><polyline id="Fill-476" fill="#E6BA3B" points="27 53.16 20.838 56 18 49.84 24.162 47 27 53.16"/><polyline id="Fill-477" fill="#E6BA3B" points="37 48.162 30.84 51 28 44.838 34.16 42 37 48.162"/><polyline id="Fill-478" fill="#E6BA3B" points="47 43.16 40.84 46 38 39.838 44.162 37 47 43.16"/><polyline id="Fill-479" fill="#DA303C" points="57 39.162 50.838 42 48 35.838 54.162 33 57 39.162"/><polyline id="Fill-480" fill="#E6BA3B" points="31 62.162 24.84 65 22 58.838 28.16 56 31 62.162"/><polyline id="Fill-481" fill="#E6BA3B" points="42 58.162 35.84 61 33 54.84 39.162 52 42 58.162"/><polyline id="Fill-482" fill="#E6BA3B" points="52 53.162 45.838 56 43 49.838 49.162 47 52 53.162"/><polyline id="Fill-483" fill="#E6BA3B" points="36 72.162 29.84 75 27 68.84 33.16 66 36 72.162"/><polyline id="Fill-484" fill="#E6BA3B" points="46 68.16 39.838 71 37 64.838 43.162 62 46 68.16"/><polyline id="Fill-485" fill="#E6BA3B" points="56 63.162 49.838 66 47 59.84 53.162 57 56 63.162"/><polyline id="Fill-486" fill="#DA303C" points="67 58.059 60.516 61 53 44.943 59.482 42 67 58.059"/></g><g id="Group-4" transform="translate(347.000000, 387.000000)"><polyline id="Fill-419" fill="#DA303C" points="55.706 92 3 63.978 37.294 0 90 28.022 55.706 92"/><polyline id="Fill-420" fill="#FFFFFE" points="68.12 55 32 35.502 43.88 13 80 32.496 68.12 55"/><path id="Fill-421" fill="#FFFFFE" d="M37.4598939,8.78272735 L29.9140895,4.47604214 C29.0731357,3.99504101 28.7542187,2.87676412 29.2041195,1.97767762 C29.6540203,1.07656158 30.6999922,0.737628297 31.540946,1.21862943 L39.0867504,5.52531464 C39.9277042,6.00428623 40.2447229,7.12256312 39.7967204,8.02164962 C39.3468196,8.92276566 38.3008477,9.26169894 37.4598939,8.78272735"/><path id="Fill-422" fill="#FFFFFE" d="M33.458522,15.782659 L25.9141464,11.4757904 C25.0731403,10.9947688 24.7542034,9.87644428 25.2041322,8.97731949 C25.6521626,8.07819471 26.700098,7.73721736 27.5411041,8.21823898 L35.0854797,12.523078 C35.9283842,13.0040996 36.2454227,14.1224241 35.7954939,15.0235785 C35.3474635,15.9227033 34.3014266,16.261651 33.458522,15.782659"/><path id="Fill-423" fill="#FFFFFE" d="M30.4590413,22.782659 L22.9150973,18.4757904 C22.0722409,17.9947688 21.7552206,16.8764443 22.2032254,15.9773195 C22.6531284,15.0781947 23.6991055,14.7372174 24.5400636,15.218239 L32.0859059,19.5251076 C32.9268639,20.0040996 33.2457825,21.1224241 32.7958795,22.0235785 C32.3459764,22.9227033 31.2999993,23.261651 30.4590413,22.782659"/><path id="Fill-424" fill="#FFFFFE" d="M26.4598939,28.7827165 L18.9140895,24.4758161 C18.0731357,23.9947909 17.7542187,22.8764581 18.2041195,21.9773267 C18.6540203,21.0781953 19.6999922,20.7372154 20.540946,21.2182406 L28.0867504,25.525141 C28.9277042,26.0041365 29.2447229,27.1224693 28.7967204,28.0216007 C28.3468196,28.9227618 27.3008477,29.261712 26.4598939,28.7827165"/><path id="Fill-425" fill="#FFFFFE" d="M22.4588095,35.782659 L14.9141775,31.4757904 C14.0731428,30.9947688 13.7541951,29.8764443 14.2041391,28.9773195 C14.6521847,28.0781947 15.6982573,27.7372174 16.5411905,28.218239 L24.0858225,32.5251076 C24.9268572,33.0040996 25.2458049,34.1224241 24.7958609,35.0235785 C24.3478153,35.9227033 23.3017427,36.261651 22.4588095,35.782659"/><path id="Fill-426" fill="#FFFFFE" d="M19.459054,42.782659 L11.9132496,38.4757904 C11.0722958,37.9947688 10.7552771,36.8764443 11.2032796,35.9773195 C11.6531804,35.0781947 12.6991523,34.7372174 13.5401061,35.218239 L21.0859105,39.5251076 C21.9268643,40.0040996 22.2457813,41.1224241 21.7958805,42.0235785 C21.3459797,42.9227033 20.3000078,43.261651 19.459054,42.782659"/><path id="Fill-427" fill="#FFFFFE" d="M15.4599364,48.782659 L7.91409411,44.4757904 C7.07313609,43.9947688 6.75421747,42.8764443 7.20412052,41.9773195 C7.65402357,41.0781947 8.70000071,40.7372174 9.54095873,41.218239 L17.0849027,45.5251076 C17.9277591,46.0040996 18.2447794,47.1224241 17.7967746,48.0235785 C17.3468716,48.9227033 16.3008945,49.261651 15.4599364,48.782659"/><path id="Fill-428" fill="#FFFFFE" d="M12.4588959,55.782659 L4.91452033,51.4757904 C4.07161576,50.9947688 3.75457733,49.8764443 4.20450612,48.9773195 C4.65253647,48.0781947 5.69857345,47.7372174 6.54147802,48.218239 L14.0858536,52.5251076 C14.9268597,53.0040996 15.2457966,54.1224241 14.7958678,55.0235785 C14.3478374,55.9227033 13.299902,56.261651 12.4588959,55.782659"/><path id="Fill-429" fill="#FFFFFE" d="M8.45969996,62.782659 L0.913319375,58.4757904 C0.0723013633,57.9947688 -0.244741544,56.8764443 0.203295139,55.9773195 C0.653230284,55.0781947 1.69928203,54.7372174 2.54030004,55.218239 L10.0866806,59.5251076 C10.9276986,60.0040996 11.2447415,61.1244537 10.7967049,62.0235785 C10.3467697,62.9227033 9.30071797,63.261651 8.45969996,62.782659"/></g><g id="Group-3" transform="translate(1090.000000, 165.000000)"><path id="Fill-511" fill="#6FC3BD" d="M48.1259215,30.6371695 L30.093881,10 L10,30.0957399 L30.6353257,48.1248622 C31.3363031,48.7363876 31.8729134,49.5122756 32.1992305,50.3848474 L48.2346939,93.355988 C49.6608204,97.1750004 54.560411,98.24094 57.44167,95.3573439 L95.3572983,57.442769 C98.2409744,54.559173 97.1750053,49.6621356 93.3558868,48.2360487 L50.3835523,32.1986138 C49.5133734,31.8747228 48.7374639,31.3381274 48.1259215,30.6371695"/><path id="Fill-512" fill="#6FC3BD" d="M25.8390906,1.40001408 L1.40183364,25.836841 C-0.467277878,27.7059196 -0.467277878,30.7333005 1.40183364,32.5999859 C3.26855192,34.4666714 6.29598606,34.4666714 8.16270435,32.5999859 L32.5999613,8.16315901 C34.4666796,6.29408038 34.4666796,3.26669951 32.5999613,1.40001408 C30.733243,-0.466671359 27.7058089,-0.466671359 25.8390906,1.40001408"/><polyline id="Fill-513" fill="#00A5AE" points="32 12.15 30.997 11 21 20.999 20.935 21.063 11 30.997 12.147 32 32 12.15"/><path id="Fill-514" fill="#E6BA3B" d="M52.1223161,36.1717718 L51.7352256,36 L36,51.7352646 L36.1717714,52.1199367 L50.2376696,89.8032825 C51.4860362,93.1540423 55.7827399,94.0879003 58.3109242,91.5597097 L91.5595721,58.3085601 C94.0877564,55.7803695 93.1539008,51.4860745 89.8055686,50.2352855 L52.1223161,36.1717718"/><path id="Fill-515" fill="#FFFFFE" d="M51.3889621,50.6110379 C53.5370126,52.7590884 53.5370126,56.2409116 51.3889621,58.3889621 C49.2409116,60.5370126 45.7590884,60.5370126 43.6110379,58.3889621 C41.4629874,56.2409116 41.4629874,52.7590884 43.6110379,50.6110379 C45.7590884,48.4629874 49.2409116,48.4629874 51.3889621,50.6110379"/><path id="Fill-516" fill="#FFFFFE" d="M72.3889621,46.6110379 C74.5370126,48.7590884 74.5370126,52.2409116 72.3889621,54.3889621 C70.2409116,56.5370126 66.7590884,56.5370126 64.6110379,54.3889621 C62.4629874,52.2409116 62.4629874,48.7590884 64.6110379,46.6110379 C66.7590884,44.4629874 70.2409116,44.4629874 72.3889621,46.6110379"/><path id="Fill-517" fill="#FFFFFE" d="M60.3889621,76.6110379 C62.5370126,78.7590884 62.5370126,82.2409116 60.3889621,84.3889621 C58.2409116,86.5370126 54.7590884,86.5370126 52.6110379,84.3889621 C50.4629874,82.2409116 50.4629874,78.7590884 52.6110379,76.6110379 C54.7590884,74.4629874 58.2409116,74.4629874 60.3889621,76.6110379"/><path id="Fill-518" fill="#FFFFFE" d="M65.3889621,60.6106841 C67.5370126,62.7582629 67.5370126,66.2417371 65.3889621,68.3893159 C63.2409116,70.5368947 59.7590884,70.5368947 57.6110379,68.3893159 C55.4629874,66.2417371 55.4629874,62.7582629 57.6110379,60.6106841 C59.7590884,58.4631053 63.2409116,58.4631053 65.3889621,60.6106841"/><path id="Fill-519" fill="#FFFFFE" d="M85.3889621,53.6110379 C87.5370126,55.7590884 87.5370126,59.2409116 85.3889621,61.3889621 C83.2409116,63.5370126 79.7590884,63.5370126 77.6110379,61.3889621 C75.4629874,59.2409116 75.4629874,55.7590884 77.6110379,53.6110379 C79.7590884,51.4629874 83.2409116,51.4629874 85.3889621,53.6110379"/></g><g id="Group-12" fill="#FFF" fill-rule="nonzero" transform="translate(491.000000, 347.000000)"><path id="Inlearningyouwillteach,andinteachingyouwilllearn" d="M3.59935714,68 L3.59935714,42.8 L0.935357143,42.8 L0.935357143,68 L3.59935714,68 Z M13.7860714,68 L13.7860714,58.064 C13.7860714,53.744 16.3420714,51.224 20.4100714,51.224 C24.0100714,51.224 26.0980714,53.276 26.0980714,57.272 L26.0980714,68 L28.6540714,68 L28.6540714,57.02 C28.6540714,51.584 25.4860714,48.92 20.8780714,48.92 C17.6020714,48.92 15.0460714,50.252 13.6780714,52.556 L13.6780714,49.064 L11.2300714,49.064 L11.2300714,68 L13.7860714,68 Z M47.5155,68 L47.5155,41.288 L44.9595,41.288 L44.9595,68 L47.5155,68 Z M62.6342143,68.18 C65.6222143,68.18 68.2502143,67.1 69.9422143,65.084 L68.5022143,63.428 C67.0622143,65.084 65.0102143,65.912 62.7062143,65.912 C58.5662143,65.912 55.5422143,63.284 55.2542143,59.324 L71.0942143,59.324 C71.0942143,59.036 71.1302143,58.748 71.1302143,58.532 C71.1302143,52.844 67.2782143,48.92 61.9502143,48.92 C56.6222143,48.92 52.6982143,52.916 52.6982143,58.532 C52.6982143,64.148 56.7302143,68.18 62.6342143,68.18 Z M68.6822143,57.416 L55.2542143,57.416 C55.5782143,53.708 58.2782143,51.116 61.9502143,51.116 C65.6582143,51.116 68.3582143,53.708 68.6822143,57.416 Z M81.1009286,68.18 C84.2329286,68.18 86.4649286,66.992 87.6169286,65.048 L87.6169286,68 L90.0649286,68 L90.0649286,56.264 C90.0649286,51.368 87.2929286,48.92 82.3969286,48.92 C79.4089286,48.92 76.6009286,49.856 74.6929286,51.476 L75.8449286,53.384 C77.3929286,52.016 79.6969286,51.152 82.1449286,51.152 C85.6729286,51.152 87.5089286,52.916 87.5089286,56.156 L87.5089286,57.308 L81.4969286,57.308 C76.0609286,57.308 74.1889286,59.756 74.1889286,62.672 C74.1889286,65.948 76.8169286,68.18 81.1009286,68.18 Z M81.4969286,66.164 C78.4729286,66.164 76.7089286,64.796 76.7089286,62.6 C76.7089286,60.656 77.8969286,59.216 81.5689286,59.216 L87.5089286,59.216 L87.5089286,62.312 C86.5009286,64.796 84.3769286,66.164 81.4969286,66.164 Z M99.5316429,68 L99.5316429,58.352 C99.5316429,53.888 101.943643,51.368 105.903643,51.368 C106.083643,51.368 106.299643,51.404 106.515643,51.404 L106.515643,48.92 C103.023643,48.92 100.611643,50.252 99.4236429,52.772 L99.4236429,49.064 L96.9756429,49.064 L96.9756429,68 L99.5316429,68 Z M113.642357,68 L113.642357,58.064 C113.642357,53.744 116.198357,51.224 120.266357,51.224 C123.866357,51.224 125.954357,53.276 125.954357,57.272 L125.954357,68 L128.510357,68 L128.510357,57.02 C128.510357,51.584 125.342357,48.92 120.734357,48.92 C117.458357,48.92 114.902357,50.252 113.534357,52.556 L113.534357,49.064 L111.086357,49.064 L111.086357,68 L113.642357,68 Z M136.717071,44.924 C137.797071,44.924 138.589071,44.096 138.589071,43.052 C138.589071,42.08 137.761071,41.288 136.717071,41.288 C135.673071,41.288 134.845071,42.116 134.845071,43.088 C134.845071,44.096 135.673071,44.924 136.717071,44.924 Z M137.977071,68 L137.977071,49.064 L135.421071,49.064 L135.421071,68 L137.977071,68 Z M147.623786,68 L147.623786,58.064 C147.623786,53.744 150.179786,51.224 154.247786,51.224 C157.847786,51.224 159.935786,53.276 159.935786,57.272 L159.935786,68 L162.491786,68 L162.491786,57.02 C162.491786,51.584 159.323786,48.92 154.715786,48.92 C151.439786,48.92 148.883786,50.252 147.515786,52.556 L147.515786,49.064 L145.067786,49.064 L145.067786,68 L147.623786,68 Z M177.5385,75.164 C183.8025,75.164 187.0065,72.212 187.0065,65.696 L187.0065,49.064 L184.5585,49.064 L184.5585,52.7 C182.9745,50.216 180.2385,48.92 177.0705,48.92 C171.6705,48.92 167.5665,52.628 167.5665,58.064 C167.5665,63.5 171.6705,67.28 177.0705,67.28 C180.1665,67.28 182.8665,66.02 184.4505,63.608 L184.4505,66.02 C184.4505,70.7 182.2545,72.896 177.4665,72.896 C174.5505,72.896 171.8145,71.924 170.0145,70.304 L168.7185,72.248 C170.6985,74.12 174.0825,75.164 177.5385,75.164 Z M177.3225,65.012 C173.1465,65.012 170.1585,62.168 170.1585,58.064 C170.1585,53.96 173.1465,51.152 177.3225,51.152 C181.4985,51.152 184.5225,53.96 184.5225,58.064 C184.5225,62.168 181.4985,65.012 177.3225,65.012 Z M203.671929,75.164 C206.371929,75.164 208.387929,73.976 209.971929,70.268 L219.439929,49.064 L216.919929,49.064 L209.791929,65.156 L202.663929,49.064 L199.999929,49.064 L208.459929,67.964 L207.631929,69.8 C206.551929,72.176 205.399929,72.968 203.707929,72.968 C202.339929,72.968 201.187929,72.464 200.251929,71.528 L199.063929,73.436 C200.215929,74.588 201.907929,75.164 203.671929,75.164 Z M230.202643,68.18 C235.746643,68.18 239.814643,64.148 239.814643,58.532 C239.814643,52.916 235.746643,48.92 230.202643,48.92 C224.658643,48.92 220.554643,52.916 220.554643,58.532 C220.554643,64.148 224.658643,68.18 230.202643,68.18 Z M230.202643,65.912 C226.170643,65.912 223.146643,62.96 223.146643,58.532 C223.146643,54.104 226.170643,51.152 230.202643,51.152 C234.234643,51.152 237.222643,54.104 237.222643,58.532 C237.222643,62.96 234.234643,65.912 230.202643,65.912 Z M252.809357,68.18 C255.833357,68.18 258.281357,66.848 259.613357,64.544 L259.613357,68 L262.061357,68 L262.061357,49.064 L259.505357,49.064 L259.505357,59 C259.505357,63.32 257.021357,65.876 253.061357,65.876 C249.461357,65.876 247.373357,63.824 247.373357,59.792 L247.373357,49.064 L244.817357,49.064 L244.817357,60.044 C244.817357,65.48 247.985357,68.18 252.809357,68.18 Z M284.846786,68 L290.822786,52.484 L296.798786,68 L299.210786,68 L306.374786,49.064 L304.034786,49.064 L298.022786,65.156 L291.974786,49.064 L289.778786,49.064 L283.694786,65.156 L277.754786,49.064 L275.306786,49.064 L282.434786,68 L284.846786,68 Z M311.4855,44.924 C312.5655,44.924 313.3575,44.096 313.3575,43.052 C313.3575,42.08 312.5295,41.288 311.4855,41.288 C310.4415,41.288 309.6135,42.116 309.6135,43.088 C309.6135,44.096 310.4415,44.924 311.4855,44.924 Z M312.7455,68 L312.7455,49.064 L310.1895,49.064 L310.1895,68 L312.7455,68 Z M322.392214,68 L322.392214,41.288 L319.836214,41.288 L319.836214,68 L322.392214,68 Z M332.038929,68 L332.038929,41.288 L329.482929,41.288 L329.482929,68 L332.038929,68 Z M354.500357,68.18 C355.976357,68.18 357.488357,67.748 358.496357,66.848 L357.596357,65.012 C356.876357,65.66 355.832357,65.984 354.788357,65.984 C352.664357,65.984 351.512357,64.76 351.512357,62.528 L351.512357,51.224 L357.272357,51.224 L357.272357,49.064 L351.512357,49.064 L351.512357,44.924 L348.956357,44.924 L348.956357,49.064 L345.572357,49.064 L345.572357,51.224 L348.956357,51.224 L348.956357,62.672 C348.956357,66.164 350.936357,68.18 354.500357,68.18 Z M370.447071,68.18 C373.435071,68.18 376.063071,67.1 377.755071,65.084 L376.315071,63.428 C374.875071,65.084 372.823071,65.912 370.519071,65.912 C366.379071,65.912 363.355071,63.284 363.067071,59.324 L378.907071,59.324 C378.907071,59.036 378.943071,58.748 378.943071,58.532 C378.943071,52.844 375.091071,48.92 369.763071,48.92 C364.435071,48.92 360.511071,52.916 360.511071,58.532 C360.511071,64.148 364.543071,68.18 370.447071,68.18 Z M376.495071,57.416 L363.067071,57.416 C363.391071,53.708 366.091071,51.116 369.763071,51.116 C373.471071,51.116 376.171071,53.708 376.495071,57.416 Z M388.913786,68.18 C392.045786,68.18 394.277786,66.992 395.429786,65.048 L395.429786,68 L397.877786,68 L397.877786,56.264 C397.877786,51.368 395.105786,48.92 390.209786,48.92 C387.221786,48.92 384.413786,49.856 382.505786,51.476 L383.657786,53.384 C385.205786,52.016 387.509786,51.152 389.957786,51.152 C393.485786,51.152 395.321786,52.916 395.321786,56.156 L395.321786,57.308 L389.309786,57.308 C383.873786,57.308 382.001786,59.756 382.001786,62.672 C382.001786,65.948 384.629786,68.18 388.913786,68.18 Z M389.309786,66.164 C386.285786,66.164 384.521786,64.796 384.521786,62.6 C384.521786,60.656 385.709786,59.216 389.381786,59.216 L395.321786,59.216 L395.321786,62.312 C394.313786,64.796 392.189786,66.164 389.309786,66.164 Z M412.7085,68.18 C415.9125,68.18 418.6125,66.884 420.1245,64.436 L418.2165,63.14 C416.9205,65.048 414.9045,65.912 412.7085,65.912 C408.5685,65.912 405.5445,62.996 405.5445,58.532 C405.5445,54.104 408.5685,51.152 412.7085,51.152 C414.9045,51.152 416.9205,52.052 418.2165,53.96 L420.1245,52.664 C418.6125,50.18 415.9125,48.92 412.7085,48.92 C407.0565,48.92 402.9525,52.88 402.9525,58.532 C402.9525,64.184 407.0565,68.18 412.7085,68.18 Z M427.359214,68 L427.359214,58.064 C427.359214,53.744 429.915214,51.224 433.983214,51.224 C437.583214,51.224 439.671214,53.276 439.671214,57.272 L439.671214,68 L442.227214,68 L442.227214,57.02 C442.227214,51.584 439.059214,48.92 434.451214,48.92 C431.247214,48.92 428.763214,50.18 427.359214,52.376 L427.359214,41.288 L424.803214,41.288 L424.803214,68 L427.359214,68 Z M449.317929,73.256 L450.829929,68.288 C451.189929,67.28 451.333929,66.812 451.333929,66.2 C451.333929,65.12 450.541929,64.256 449.425929,64.256 C448.345929,64.256 447.517929,65.084 447.517929,66.2 C447.517929,67.136 448.057929,67.82 448.813929,68.036 L447.589929,73.256 L449.317929,73.256 Z M92.8536429,112.18 C95.9856429,112.18 98.2176429,110.992 99.3696429,109.048 L99.3696429,112 L101.817643,112 L101.817643,100.264 C101.817643,95.368 99.0456429,92.92 94.1496429,92.92 C91.1616429,92.92 88.3536429,93.856 86.4456429,95.476 L87.5976429,97.384 C89.1456429,96.016 91.4496429,95.152 93.8976429,95.152 C97.4256429,95.152 99.2616429,96.916 99.2616429,100.156 L99.2616429,101.308 L93.2496429,101.308 C87.8136429,101.308 85.9416429,103.756 85.9416429,106.672 C85.9416429,109.948 88.5696429,112.18 92.8536429,112.18 Z M93.2496429,110.164 C90.2256429,110.164 88.4616429,108.796 88.4616429,106.6 C88.4616429,104.656 89.6496429,103.216 93.3216429,103.216 L99.2616429,103.216 L99.2616429,106.312 C98.2536429,108.796 96.1296429,110.164 93.2496429,110.164 Z M111.284357,112 L111.284357,102.064 C111.284357,97.744 113.840357,95.224 117.908357,95.224 C121.508357,95.224 123.596357,97.276 123.596357,101.272 L123.596357,112 L126.152357,112 L126.152357,101.02 C126.152357,95.584 122.984357,92.92 118.376357,92.92 C115.100357,92.92 112.544357,94.252 111.176357,96.556 L111.176357,93.064 L108.728357,93.064 L108.728357,112 L111.284357,112 Z M140.659071,112.18 C143.791071,112.18 146.419071,110.812 147.967071,108.256 L147.967071,112 L150.415071,112 L150.415071,85.288 L147.859071,85.288 L147.859071,96.664 C146.275071,94.216 143.683071,92.92 140.659071,92.92 C135.259071,92.92 131.227071,96.808 131.227071,102.532 C131.227071,108.256 135.259071,112.18 140.659071,112.18 Z M140.875071,109.912 C136.843071,109.912 133.819071,106.96 133.819071,102.532 C133.819071,98.104 136.843071,95.152 140.875071,95.152 C144.871071,95.152 147.895071,98.104 147.895071,102.532 C147.895071,106.96 144.871071,109.912 140.875071,109.912 Z M168.1965,88.924 C169.2765,88.924 170.0685,88.096 170.0685,87.052 C170.0685,86.08 169.2405,85.288 168.1965,85.288 C167.1525,85.288 166.3245,86.116 166.3245,87.088 C166.3245,88.096 167.1525,88.924 168.1965,88.924 Z M169.4565,112 L169.4565,93.064 L166.9005,93.064 L166.9005,112 L169.4565,112 Z M179.103214,112 L179.103214,102.064 C179.103214,97.744 181.659214,95.224 185.727214,95.224 C189.327214,95.224 191.415214,97.276 191.415214,101.272 L191.415214,112 L193.971214,112 L193.971214,101.02 C193.971214,95.584 190.803214,92.92 186.195214,92.92 C182.919214,92.92 180.363214,94.252 178.995214,96.556 L178.995214,93.064 L176.547214,93.064 L176.547214,112 L179.103214,112 Z M216.252643,112.18 C217.728643,112.18 219.240643,111.748 220.248643,110.848 L219.348643,109.012 C218.628643,109.66 217.584643,109.984 216.540643,109.984 C214.416643,109.984 213.264643,108.76 213.264643,106.528 L213.264643,95.224 L219.024643,95.224 L219.024643,93.064 L213.264643,93.064 L213.264643,88.924 L210.708643,88.924 L210.708643,93.064 L207.324643,93.064 L207.324643,95.224 L210.708643,95.224 L210.708643,106.672 C210.708643,110.164 212.688643,112.18 216.252643,112.18 Z M232.199357,112.18 C235.187357,112.18 237.815357,111.1 239.507357,109.084 L238.067357,107.428 C236.627357,109.084 234.575357,109.912 232.271357,109.912 C228.131357,109.912 225.107357,107.284 224.819357,103.324 L240.659357,103.324 C240.659357,103.036 240.695357,102.748 240.695357,102.532 C240.695357,96.844 236.843357,92.92 231.515357,92.92 C226.187357,92.92 222.263357,96.916 222.263357,102.532 C222.263357,108.148 226.295357,112.18 232.199357,112.18 Z M238.247357,101.416 L224.819357,101.416 C225.143357,97.708 227.843357,95.116 231.515357,95.116 C235.223357,95.116 237.923357,97.708 238.247357,101.416 Z M250.666071,112.18 C253.798071,112.18 256.030071,110.992 257.182071,109.048 L257.182071,112 L259.630071,112 L259.630071,100.264 C259.630071,95.368 256.858071,92.92 251.962071,92.92 C248.974071,92.92 246.166071,93.856 244.258071,95.476 L245.410071,97.384 C246.958071,96.016 249.262071,95.152 251.710071,95.152 C255.238071,95.152 257.074071,96.916 257.074071,100.156 L257.074071,101.308 L251.062071,101.308 C245.626071,101.308 243.754071,103.756 243.754071,106.672 C243.754071,109.948 246.382071,112.18 250.666071,112.18 Z M251.062071,110.164 C248.038071,110.164 246.274071,108.796 246.274071,106.6 C246.274071,104.656 247.462071,103.216 251.134071,103.216 L257.074071,103.216 L257.074071,106.312 C256.066071,108.796 253.942071,110.164 251.062071,110.164 Z M274.460786,112.18 C277.664786,112.18 280.364786,110.884 281.876786,108.436 L279.968786,107.14 C278.672786,109.048 276.656786,109.912 274.460786,109.912 C270.320786,109.912 267.296786,106.996 267.296786,102.532 C267.296786,98.104 270.320786,95.152 274.460786,95.152 C276.656786,95.152 278.672786,96.052 279.968786,97.96 L281.876786,96.664 C280.364786,94.18 277.664786,92.92 274.460786,92.92 C268.808786,92.92 264.704786,96.88 264.704786,102.532 C264.704786,108.184 268.808786,112.18 274.460786,112.18 Z M289.1115,112 L289.1115,102.064 C289.1115,97.744 291.6675,95.224 295.7355,95.224 C299.3355,95.224 301.4235,97.276 301.4235,101.272 L301.4235,112 L303.9795,112 L303.9795,101.02 C303.9795,95.584 300.8115,92.92 296.2035,92.92 C292.9995,92.92 290.5155,94.18 289.1115,96.376 L289.1115,85.288 L286.5555,85.288 L286.5555,112 L289.1115,112 Z M312.186214,88.924 C313.266214,88.924 314.058214,88.096 314.058214,87.052 C314.058214,86.08 313.230214,85.288 312.186214,85.288 C311.142214,85.288 310.314214,86.116 310.314214,87.088 C310.314214,88.096 311.142214,88.924 312.186214,88.924 Z M313.446214,112 L313.446214,93.064 L310.890214,93.064 L310.890214,112 L313.446214,112 Z M323.092929,112 L323.092929,102.064 C323.092929,97.744 325.648929,95.224 329.716929,95.224 C333.316929,95.224 335.404929,97.276 335.404929,101.272 L335.404929,112 L337.960929,112 L337.960929,101.02 C337.960929,95.584 334.792929,92.92 330.184929,92.92 C326.908929,92.92 324.352929,94.252 322.984929,96.556 L322.984929,93.064 L320.536929,93.064 L320.536929,112 L323.092929,112 Z M353.007643,119.164 C359.271643,119.164 362.475643,116.212 362.475643,109.696 L362.475643,93.064 L360.027643,93.064 L360.027643,96.7 C358.443643,94.216 355.707643,92.92 352.539643,92.92 C347.139643,92.92 343.035643,96.628 343.035643,102.064 C343.035643,107.5 347.139643,111.28 352.539643,111.28 C355.635643,111.28 358.335643,110.02 359.919643,107.608 L359.919643,110.02 C359.919643,114.7 357.723643,116.896 352.935643,116.896 C350.019643,116.896 347.283643,115.924 345.483643,114.304 L344.187643,116.248 C346.167643,118.12 349.551643,119.164 353.007643,119.164 Z M352.791643,109.012 C348.615643,109.012 345.627643,106.168 345.627643,102.064 C345.627643,97.96 348.615643,95.152 352.791643,95.152 C356.967643,95.152 359.991643,97.96 359.991643,102.064 C359.991643,106.168 356.967643,109.012 352.791643,109.012 Z M110.979,163.164 C113.679,163.164 115.695,161.976 117.279,158.268 L126.747,137.064 L124.227,137.064 L117.099,153.156 L109.971,137.064 L107.307,137.064 L115.767,155.964 L114.939,157.8 C113.859,160.176 112.707,160.968 111.015,160.968 C109.647,160.968 108.495,160.464 107.559,159.528 L106.371,161.436 C107.523,162.588 109.215,163.164 110.979,163.164 Z M137.509714,156.18 C143.053714,156.18 147.121714,152.148 147.121714,146.532 C147.121714,140.916 143.053714,136.92 137.509714,136.92 C131.965714,136.92 127.861714,140.916 127.861714,146.532 C127.861714,152.148 131.965714,156.18 137.509714,156.18 Z M137.509714,153.912 C133.477714,153.912 130.453714,150.96 130.453714,146.532 C130.453714,142.104 133.477714,139.152 137.509714,139.152 C141.541714,139.152 144.529714,142.104 144.529714,146.532 C144.529714,150.96 141.541714,153.912 137.509714,153.912 Z M160.116429,156.18 C163.140429,156.18 165.588429,154.848 166.920429,152.544 L166.920429,156 L169.368429,156 L169.368429,137.064 L166.812429,137.064 L166.812429,147 C166.812429,151.32 164.328429,153.876 160.368429,153.876 C156.768429,153.876 154.680429,151.824 154.680429,147.792 L154.680429,137.064 L152.124429,137.064 L152.124429,148.044 C152.124429,153.48 155.292429,156.18 160.116429,156.18 Z M192.153857,156 L198.129857,140.484 L204.105857,156 L206.517857,156 L213.681857,137.064 L211.341857,137.064 L205.329857,153.156 L199.281857,137.064 L197.085857,137.064 L191.001857,153.156 L185.061857,137.064 L182.613857,137.064 L189.741857,156 L192.153857,156 Z M218.792571,132.924 C219.872571,132.924 220.664571,132.096 220.664571,131.052 C220.664571,130.08 219.836571,129.288 218.792571,129.288 C217.748571,129.288 216.920571,130.116 216.920571,131.088 C216.920571,132.096 217.748571,132.924 218.792571,132.924 Z M220.052571,156 L220.052571,137.064 L217.496571,137.064 L217.496571,156 L220.052571,156 Z M229.699286,156 L229.699286,129.288 L227.143286,129.288 L227.143286,156 L229.699286,156 Z M239.346,156 L239.346,129.288 L236.79,129.288 L236.79,156 L239.346,156 Z M258.387429,156 L258.387429,129.288 L255.831429,129.288 L255.831429,156 L258.387429,156 Z M273.506143,156.18 C276.494143,156.18 279.122143,155.1 280.814143,153.084 L279.374143,151.428 C277.934143,153.084 275.882143,153.912 273.578143,153.912 C269.438143,153.912 266.414143,151.284 266.126143,147.324 L281.966143,147.324 C281.966143,147.036 282.002143,146.748 282.002143,146.532 C282.002143,140.844 278.150143,136.92 272.822143,136.92 C267.494143,136.92 263.570143,140.916 263.570143,146.532 C263.570143,152.148 267.602143,156.18 273.506143,156.18 Z M279.554143,145.416 L266.126143,145.416 C266.450143,141.708 269.150143,139.116 272.822143,139.116 C276.530143,139.116 279.230143,141.708 279.554143,145.416 Z M291.972857,156.18 C295.104857,156.18 297.336857,154.992 298.488857,153.048 L298.488857,156 L300.936857,156 L300.936857,144.264 C300.936857,139.368 298.164857,136.92 293.268857,136.92 C290.280857,136.92 287.472857,137.856 285.564857,139.476 L286.716857,141.384 C288.264857,140.016 290.568857,139.152 293.016857,139.152 C296.544857,139.152 298.380857,140.916 298.380857,144.156 L298.380857,145.308 L292.368857,145.308 C286.932857,145.308 285.060857,147.756 285.060857,150.672 C285.060857,153.948 287.688857,156.18 291.972857,156.18 Z M292.368857,154.164 C289.344857,154.164 287.580857,152.796 287.580857,150.6 C287.580857,148.656 288.768857,147.216 292.440857,147.216 L298.380857,147.216 L298.380857,150.312 C297.372857,152.796 295.248857,154.164 292.368857,154.164 Z M310.403571,156 L310.403571,146.352 C310.403571,141.888 312.815571,139.368 316.775571,139.368 C316.955571,139.368 317.171571,139.404 317.387571,139.404 L317.387571,136.92 C313.895571,136.92 311.483571,138.252 310.295571,140.772 L310.295571,137.064 L307.847571,137.064 L307.847571,156 L310.403571,156 Z M324.514286,156 L324.514286,146.064 C324.514286,141.744 327.070286,139.224 331.138286,139.224 C334.738286,139.224 336.826286,141.276 336.826286,145.272 L336.826286,156 L339.382286,156 L339.382286,145.02 C339.382286,139.584 336.214286,136.92 331.606286,136.92 C328.330286,136.92 325.774286,138.252 324.406286,140.556 L324.406286,137.064 L321.958286,137.064 L321.958286,156 L324.514286,156 Z"/><path id="" d="M215.601429,206.84 C220.001429,206.84 223.281429,203.8 223.281429,199.16 C223.281429,195.88 221.681429,193.48 219.041429,192.36 L222.561429,179.64 L214.641429,179.64 L210.001429,191.16 C208.161429,195.56 207.841429,197.08 207.841429,199.16 C207.841429,203.72 211.121429,206.84 215.601429,206.84 Z M234.481429,206.84 C238.881429,206.84 242.161429,203.8 242.161429,199.16 C242.161429,195.88 240.561429,193.48 237.921429,192.36 L241.441429,179.64 L233.521429,179.64 L228.881429,191.16 C227.041429,195.56 226.721429,197.08 226.721429,199.16 C226.721429,203.72 230.001429,206.84 234.481429,206.84 Z" transform="translate(225.001429, 193.240000) scale(-1, 1) translate(-225.001429, -193.240000)"/><path id="" d="M210.601429,27.84 C215.001429,27.84 218.281429,24.8 218.281429,20.16 C218.281429,16.88 216.681429,14.48 214.041429,13.36 L217.561429,0.64 L209.641429,0.64 L205.001429,12.16 C203.161429,16.56 202.841429,18.08 202.841429,20.16 C202.841429,24.72 206.121429,27.84 210.601429,27.84 Z M229.481429,27.84 C233.881429,27.84 237.161429,24.8 237.161429,20.16 C237.161429,16.88 235.561429,14.48 232.921429,13.36 L236.441429,0.64 L228.521429,0.64 L223.881429,12.16 C222.041429,16.56 221.721429,18.08 221.721429,20.16 C221.721429,24.72 225.001429,27.84 229.481429,27.84 Z"/></g><g id="AcademicMentorship" fill-rule="nonzero"><use fill="#000" fill-opacity="1" filter="url(#filter-4)" xlink:href="#path-3"/><use fill="#FFFEFE" xlink:href="#path-3"/></g><g id="Group-2" filter="url(#filter-5)" transform="translate(254.000000, 664.000000)"><path id="Fill-377" fill="#C7BF9E" d="M378.912678,0 C330.543358,0 246.129986,60.4385773 188.276188,47.2176385 L83,108.599058 C83,108.599058 154.247399,139.761188 241.44693,104.821647 C324.370101,71.5955387 421.761273,77.2495676 462.169702,152 L468,152 L468,45.328933 C468,45.328933 427.281998,0 378.912678,0"/><path id="Fill-378" fill="#C7BF9E" d="M557.087322,0 C605.456642,0 689.870014,60.4385773 747.723812,47.2176385 L853,108.599058 C853,108.599058 781.752601,139.761188 694.55307,104.821647 C611.629899,71.5955387 514.238727,77.2495676 473.830298,152 L468,152 L468,45.328933 C468,45.328933 508.714967,0 557.087322,0"/><path id="Fill-379" fill="#DCD3B2" d="M557.028973,0 C589.185317,-0.0241120142 608.144882,6.86588292 655.602939,18.8871109 C711.523192,33.0508856 749.436256,13.2209967 749.436256,13.2209967 L830,45.3289775 C754.173872,117.096736 661.138247,93.8006963 661.138247,93.8006963 C586.913567,74.2578904 508.858151,87.0527319 473.790083,152 L468,152 L468,45.3289775 C468,45.3289775 508.6883,0.0363265379 557.028973,0"/><path id="Fill-380" fill="#DCD3B2" d="M378.971027,0 C346.814683,-0.0241120142 327.855118,6.86588292 280.397061,18.8871109 C224.476808,33.0508856 186.563744,13.2209967 186.563744,13.2209967 L106,45.3289775 C181.823095,117.096736 274.861753,93.8006963 274.861753,93.8006963 C349.086433,74.2578904 427.141849,87.0527319 462.206884,152 L468,152 L468,45.3289775 C468,45.3289775 427.308667,0.0363265379 378.971027,0"/><path id="Fill-381" fill="#DCD3B2" d="M557.028973,0 C589.185317,-0.0241120142 608.144882,6.86588292 655.602939,18.8871109 C711.523192,33.0508856 749.436256,13.2209967 749.436256,13.2209967 L830,45.3289775 C754.173872,117.096736 661.138247,93.8006963 661.138247,93.8006963 C586.913567,74.2578904 508.858151,87.0527319 473.790083,152 L468,152 L468,45.3289775 C468,45.3289775 508.6883,0.0363265379 557.028973,0"/><path id="Fill-382" fill="#A9A585" d="M468,164.3635 C465.94186,164.3635 463.937632,164.4565 462,164.6365 L468,164.3635"/><path id="Fill-383" fill="#A9A585" d="M462,153 C421.606723,77.7579477 324.252067,72.0667333 241.359989,105.511363 C154.193153,140.680696 82.9724692,109.313618 82.9724692,109.313618 L32,153 L462,153"/><path id="Fill-384" fill="#928F6F" d="M275,144 L396,144 C396,144 378.638258,132 335.5,132 C292.361742,132 275,144 275,144"/><path id="Fill-385" fill="#928F6F" d="M222,131.937111 C222,131.937111 224.254985,132.082891 228.179992,132.058077 C232.104999,132.098399 237.700028,131.707585 244.343747,131.025212 C247.665606,130.690229 251.251153,130.181551 255.003399,129.471262 C258.764738,128.798194 262.689745,127.889397 266.723864,126.887549 C270.764045,125.910515 274.883029,124.666734 279.014137,123.270971 C283.26345,121.996174 287.09753,120.225105 291.586283,118.668053 C295.708298,117.1079 300.384967,115.904442 304.910091,115.066984 C309.417029,114.263644 313.908813,114.015508 318.236929,114 C322.571107,114.024814 326.732524,114.483865 330.624191,115.144526 C334.515858,115.836204 338.134745,116.710883 341.426295,117.687917 C348.018488,119.626477 353.149791,122.231902 356.671689,124.065005 C360.175402,125.969447 362,127.349702 362,127.349702 C362,127.349702 359.948085,126.372667 356.26555,124.995514 C352.60423,123.56253 347.215302,121.977563 340.723128,120.550783 C337.467948,119.862206 333.915741,119.297698 330.14531,118.934799 C326.368816,118.602918 322.392284,118.53468 318.291485,118.615324 C314.190686,118.764206 309.99593,119.297698 305.773895,120.048308 C301.612479,120.888868 297.54805,121.949648 293.247213,123.621463 C289.197939,124.95209 284.769804,126.881346 280.499275,128.094109 C276.219653,129.514686 271.891537,130.507229 267.702843,131.381907 C263.52324,132.309314 259.410318,132.84901 255.518651,133.239823 C251.626984,133.661654 247.932324,133.884976 244.5256,133.956315 C237.709121,134.173434 232.04135,133.534484 228.116343,133.06923 C224.188305,132.53884 222,131.937111 222,131.937111"/><path id="Fill-386" fill="#928F6F" d="M330,100.023863 C330,100.023863 331.508599,99.4863714 334.277394,98.9729022 C337.04013,98.5134823 341.047915,97.9970103 345.894821,98 C350.729609,98.0570652 356.391401,98.5314988 362.331889,99.7355992 C365.303648,100.318132 368.335993,101.101848 371.401661,101.945619 C374.397655,102.993577 377.51785,103.873381 380.498697,105.092495 C383.440163,106.404694 386.490684,107.482679 389.280684,108.984051 C392.097948,110.422366 394.906124,111.782609 397.459837,113.365055 C400.007492,114.950504 402.470326,116.487909 404.805928,117.941238 C407.0143,119.57473 409.101498,121.115138 411.031173,122.538439 C414.93899,125.294958 417.68658,128.249659 419.819218,130.012269 C421.876124,131.882979 423,133 423,133 C423,133 421.591368,132.231297 419.213355,130.798988 C416.823225,129.390701 413.548534,127.192693 409.383225,124.952645 C407.344495,123.781575 405.136124,122.511414 402.800521,121.166185 C400.41342,119.932057 397.899088,118.628866 395.293876,117.283637 C392.743192,115.851328 389.889577,114.806373 387.163192,113.413099 C384.439837,112.001809 381.471107,111.034926 378.617492,109.806803 C372.858762,107.476674 366.939479,105.59095 361.317068,104.077567 C358.487687,103.404953 355.767362,102.642256 353.131857,102.182836 C350.514528,101.612314 348.009283,101.288018 345.691857,100.894658 C343.371401,100.66645 341.229674,100.306121 339.321205,100.198022 C337.412736,100.014854 335.743583,99.984827 334.359186,99.9517968 C331.602508,99.9247721 330,100.023863 330,100.023863"/><path id="Fill-387" fill="#928F6F" d="M106,130 C106,130 144.304023,146.094896 193,130 C193,130 147.570846,166 106,130"/><polyline id="Fill-388" fill="#928F6F" points="79.652 112 92 125 70 120.34 79.652 112"/><polyline id="Fill-389" fill="#928F6F" points="64.821 124 88 128 60 128 64.821 124"/><polyline id="Fill-390" fill="#928F6F" points="57.208 131 76 132.61 52 135 57.208 131"/><polyline id="Fill-391" fill="#928F6F" points="42.407 144 78 144 35 150 42.407 144"/><path id="Fill-392" fill="#A9A585" d="M468,164.3635 C470.054968,164.3635 472.062368,164.4565 474,164.6365 L468,164.3635"/><path id="Fill-393" fill="#A9A585" d="M474,153 C514.393277,77.7579477 611.747933,72.0667333 694.640011,105.511363 C781.806847,140.680696 853.027531,109.313618 853.027531,109.313618 L904,153 L474,153"/><path id="Fill-394" fill="#928F6F" d="M660,144 L539,144 C539,144 556.364347,132 599.501521,132 C642.638694,132 660,144 660,144"/><path id="Fill-395" fill="#928F6F" d="M714,131.937111 C714,131.937111 711.811695,132.53884 707.880626,133.06923 C703.95865,133.534484 698.290879,134.173434 691.4744,133.956315 C688.067676,133.884976 684.373016,133.661654 680.481349,133.239823 C676.589682,132.84901 672.47676,132.309314 668.297157,131.381907 C664.108463,130.507229 659.780347,129.514686 655.500725,128.094109 C651.230196,126.881346 646.802061,124.95209 642.752787,123.621463 C638.45195,121.949648 634.387521,120.888868 630.223074,120.048308 C626.00407,119.297698 621.809314,118.764206 617.705484,118.615324 C613.607716,118.53468 609.631184,118.602918 605.85469,118.934799 C602.084259,119.297698 598.532052,119.862206 595.276872,120.550783 C588.781667,121.977563 583.39577,123.56253 579.73445,124.995514 C576.051915,126.372667 574,127.349702 574,127.349702 C574,127.349702 575.824598,125.969447 579.328311,124.065005 C582.850209,122.231902 587.981512,119.626477 594.573705,117.687917 C597.862224,116.710883 601.484142,115.836204 605.375809,115.144526 C609.267476,114.483865 613.428893,114.024814 617.763071,114 C622.091187,114.015508 626.582971,114.263644 631.089909,115.066984 C635.615033,115.904442 640.291702,117.1079 644.413717,118.668053 C648.90247,120.225105 652.73655,121.996174 656.985863,123.270971 C661.116971,124.666734 665.235955,125.910515 669.276136,126.887549 C673.310255,127.889397 677.235262,128.798194 680.996601,129.471262 C684.748847,130.181551 688.334394,130.690229 691.656253,131.025212 C698.299972,131.707585 703.895001,132.098399 707.820008,132.058077 C711.745015,132.082891 714,131.937111 714,131.937111"/><path id="Fill-396" fill="#928F6F" d="M605,100.023863 C605,100.023863 603.400469,99.9247721 600.643702,99.9517968 C599.259259,99.984827 597.590052,100.014854 595.681521,100.198022 C593.772989,100.306121 591.631193,100.66645 589.310662,100.894658 C586.993159,101.288018 584.487833,101.612314 581.870419,102.182836 C579.234828,102.642256 576.514414,103.404953 573.684941,104.077567 C568.062347,105.59095 562.142871,107.476674 556.383954,109.806803 C553.530245,111.034926 550.561419,112.001809 547.837975,113.413099 C545.108473,114.806373 542.257793,115.851328 539.703997,117.283637 C537.10173,118.628866 534.584286,119.932057 532.200137,121.166185 C529.864458,122.511414 527.652985,123.781575 525.614189,124.952645 C521.451774,127.192693 518.176976,129.390701 515.783739,130.798988 C513.408678,132.231297 512,133 512,133 C512,133 513.123913,131.882979 515.180885,130.012269 C517.313593,128.249659 520.058243,125.294958 523.969217,122.538439 C525.898954,121.115138 527.986221,119.57473 530.194664,117.941238 C532.530343,116.487909 534.993257,114.950504 537.537965,113.365055 C540.094791,111.782609 542.903059,110.422366 545.720414,108.984051 C548.510505,107.482679 551.561126,106.404694 554.502687,105.092495 C557.483631,103.873381 560.603928,102.993577 563.59699,101.945619 C566.665787,101.101848 569.698231,100.318132 572.670087,99.7355992 C578.60774,98.5314988 584.272745,98.0570652 589.107691,98 C593.954754,97.9970103 597.96267,98.5134823 600.725496,98.9729022 C603.491352,99.4863714 605,100.023863 605,100.023863"/><path id="Fill-397" fill="#928F6F" d="M830,130 C830,130 791.695977,146.094896 743,130 C743,130 788.429154,166 830,130"/><polyline id="Fill-398" fill="#928F6F" points="856.348 112 844 125 866 120.34 856.348 112"/><polyline id="Fill-399" fill="#928F6F" points="870.182 124 847 128 875 128 870.182 124"/><polyline id="Fill-400" fill="#928F6F" points="878.792 131 860 132.61 884 135 878.792 131"/><polyline id="Fill-401" fill="#928F6F" points="892.593 144 857 144 900 150 892.593 144"/><path id="Fill-402" fill="#DA303C" d="M923.381847,153 L12.6181526,153 C5.64783657,153 0,158.597284 0,165.501502 C0,172.40572 5.64783657,178 12.6181526,178 L439.860913,178 C439.860913,170.816368 452.457833,164.993751 468,164.993751 C483.542167,164.993751 496.139087,170.816368 496.139087,178 L923.381847,178 C930.34913,178 936,172.40572 936,165.501502 C936,158.597284 930.34913,153 923.381847,153"/><path id="Fill-403" fill="#DA303C" d="M468,160.104198 C447.440327,160.104198 433.112691,167.95379 433.112691,175.00302 C433.112691,182.04621 447.440327,189.895802 468,189.895802 C488.559673,189.895802 502.887309,182.04621 502.887309,175.00302 C502.887309,167.95379 488.559673,160.104198 468,160.104198 Z M468,195 C445.570715,195 428,186.217155 428,175.00302 C428,163.788886 445.570715,155 468,155 C490.43231,155 508,163.788886 508,175.00302 C508,186.217155 490.43231,195 468,195 L468,195 Z"/><path id="Fill-404" fill="#B62C36" d="M468,160 C447.373916,160 433,167.904501 433,175.003041 C433,182.095499 447.373916,190 468,190 C488.626084,190 503,182.095499 503,175.003041 C503,167.904501 488.626084,160 468,160"/></g></g></g><rect id="Rectangle" width="952" height="76" x="231" y="0" fill="#22202C"/></g></g></g></svg>