<svg xmlns="http://www.w3.org/2000/svg" xmlns:xlink="http://www.w3.org/1999/xlink" width="1421" height="1603" version="1.1" viewBox="0 0 1421 1603"><title>Group 5</title><desc>Created with Sketch.</desc><defs><filter id="filter-1" width="125.9%" height="135.9%" x="-12.9%" y="-17.9%" filterUnits="objectBoundingBox"><feOffset dx="-3" dy="-3" in="SourceAlpha" result="shadowOffsetOuter1"/><feGaussianBlur in="shadowOffsetOuter1" result="shadowBlurOuter1" stdDeviation="10"/><feColorMatrix in="shadowBlurOuter1" result="shadowMatrixOuter1" type="matrix" values="0 0 0 0 0 0 0 0 0 0 0 0 0 0 0 0 0 0 0.312418051 0"/><feMerge><feMergeNode in="shadowMatrixOuter1"/><feMergeNode in="SourceGraphic"/></feMerge></filter></defs><g id="Page-1" fill="none" fill-rule="evenodd" stroke="none" stroke-width="1"><g id="Desktop-HD-Copy-9" transform="translate(-19.000000, -116.000000)"><g id="Group-5" transform="translate(41.848390, 110.000000)"><polygon id="Rectangle" fill="#44D7B6" fill-opacity=".1" points="-18.562 658.513 1521.513 680.514 1801.609 951 -152 938.489" transform="translate(824.804693, 804.756362) rotate(46.000000) translate(-824.804693, -804.756362)"/><g id="Group-2" filter="url(#filter-1)" transform="translate(0.151610, 28.000000)"><polyline id="Fill-37" fill="#2B2D2C" points="342.988 66.135 169.895 0 0 63.126 0 77.979 173.093 137 343 80.987 342.988 66.135"/><polyline id="Fill-38" fill="#010000" points="344 81.055 173.607 137 0 78.05 170.395 15 344 81.055"/><path id="Fill-39" fill="#2B2D2C" d="M291.676868,164 L291.848963,95.4911815 L292,95.4911815 C291.784336,82.5321736 241.52239,65 173.830909,65 C106.14088,65 51.2236511,84.3696245 51,95.5948536 L51.2476137,163.977492 L291.676868,164"/><path id="Fill-40" fill="#010000" d="M292,164.84541 C292,180.824127 238.145942,194 171.256598,194 C104.364343,194 51,180.623005 51,164.644288 C51,148.668279 104.364343,131 171.256598,131 C238.145942,131 292,148.869401 292,164.84541"/><polyline id="Fill-41" fill="#BC473B" points="252.941 218 241 218 241.06 27 253 31.439 252.941 218"/><polyline id="Fill-42" fill="#BC473B" points="264 248 228 248 233.539 213 258.462 213 264 248"/></g></g></g></g></svg>