<?xml version="1.0" encoding="UTF-8"?>
<svg width="1421px" height="1603px" viewBox="0 0 1421 1603" version="1.1" xmlns="http://www.w3.org/2000/svg" xmlns:xlink="http://www.w3.org/1999/xlink">
    <!-- Generator: Sketch 64 (93537) - https://sketch.com -->
    <title>Group 5</title>
    <desc>Created with Sketch.</desc>
    <defs>
        <filter x="-12.9%" y="-17.9%" width="125.9%" height="135.9%" filterUnits="objectBoundingBox" id="filter-1">
            <feOffset dx="-3" dy="-3" in="SourceAlpha" result="shadowOffsetOuter1"></feOffset>
            <feGaussianBlur stdDeviation="10" in="shadowOffsetOuter1" result="shadowBlurOuter1"></feGaussianBlur>
            <feColorMatrix values="0 0 0 0 0   0 0 0 0 0   0 0 0 0 0  0 0 0 0.312418051 0" type="matrix" in="shadowBlurOuter1" result="shadowMatrixOuter1"></feColorMatrix>
            <feMerge>
                <feMergeNode in="shadowMatrixOuter1"></feMergeNode>
                <feMergeNode in="SourceGraphic"></feMergeNode>
            </feMerge>
        </filter>
    </defs>
    <g id="Page-1" stroke="none" stroke-width="1" fill="none" fill-rule="evenodd">
        <g id="Desktop-HD-Copy-9" transform="translate(-19.000000, -116.000000)">
            <g id="Group-5" transform="translate(41.848390, 110.000000)">
                <polygon id="Rectangle" fill-opacity="0.0996230332" fill="#44D7B6" transform="translate(824.804693, 804.756362) rotate(46.000000) translate(-824.804693, -804.756362) " points="-18.5619847 658.513044 1521.51289 680.513635 1801.60939 950.99968 -152 938.489404"></polygon>
                <g id="Group-2" filter="url(#filter-1)" transform="translate(0.151610, 28.000000)">
                    <polyline id="Fill-37" fill="#2B2D2C" points="342.987654 66.1350601 169.894644 0 0 63.1262534 0 77.9785261 173.09301 137 343 80.9873328 342.987654 66.1350601"></polyline>
                    <polyline id="Fill-38" fill="#010000" points="344 81.055388 173.606939 137 0 78.0502369 170.395246 15 344 81.055388"></polyline>
                    <path d="M291.676868,164 L291.848963,95.4911815 L292,95.4911815 C291.784336,82.5321736 241.52239,65 173.830909,65 C106.14088,65 51.2236511,84.3696245 51,95.5948536 L51.2476137,163.977492 L291.676868,164" id="Fill-39" fill="#2B2D2C"></path>
                    <path d="M292,164.84541 C292,180.824127 238.145942,194 171.256598,194 C104.364343,194 51,180.623005 51,164.644288 C51,148.668279 104.364343,131 171.256598,131 C238.145942,131 292,148.869401 292,164.84541" id="Fill-40" fill="#010000"></path>
                    <polyline id="Fill-41" fill="#BC473B" points="252.940753 218 241 218 241.059978 27 253 31.4390678 252.940753 218"></polyline>
                    <polyline id="Fill-42" fill="#BC473B" points="264 248 228 248 233.538742 213 258.461987 213 264 248"></polyline>
                </g>
            </g>
        </g>
    </g>
</svg>