<svg xmlns="http://www.w3.org/2000/svg" xmlns:xlink="http://www.w3.org/1999/xlink" width="398" height="367" version="1.1" viewBox="0 0 398 367"><title>2464236</title><desc>Created with Sketch.</desc><g id="Page-1" fill="none" fill-rule="evenodd" stroke="none" stroke-width="1"><g id="Desktop-HD-Copy-11" transform="translate(-392.000000, -3639.000000)"><g id="2464236" transform="translate(392.000000, 3639.000000)"><path id="Fill-4" fill="#F0F7F9" d="M122.601,120.585 C100.733,120.585 66.507,120.585 58.138,120.585 C45.589,120.585 45.598,106.172 56.45,102.361 C58.305,101.709 60.12,101.441 61.852,101.441 C69.911,101.441 76.162,107.246 76.162,107.246 C76.162,107.246 78.86,75.958 103.297,75.958 C104.732,75.958 106.241,76.065 107.83,76.294 C130.413,79.54 129.101,102.085 129.101,102.085 C129.101,102.085 132.389,95.524 140.678,95.524 C142.247,95.524 143.994,95.758 145.932,96.317 C146.759,96.555 147.527,96.866 148.235,97.237 C147.113,97.919 146.008,98.626 144.918,99.359 L142.179,99.955 L133.892,108.108 C130.491,111.26 127.324,114.661 124.424,118.249 C123.804,119.016 123.196,119.796 122.601,120.585"/><path id="Fill-5" fill="#F0F7F9" d="M279.763,228.935 C279.763,228.935 262.842,228.935 244.086,228.935 C245.874,227.241 247.595,225.506 249.246,223.721 C256.006,216.413 261.561,208.292 265.438,198.991 C267.829,204.943 267.509,210.434 267.509,210.434 C267.509,210.434 270.797,203.873 279.086,203.873 C280.654,203.873 282.401,204.108 284.34,204.667 C297.05,208.33 295.673,228.935 279.763,228.935"/><path id="Fill-6" fill="#F0F7F9" d="M326.502,45.18 C326.502,45.18 255.833,45.18 243.284,45.18 C230.736,45.18 230.745,30.767 241.597,26.956 C243.452,26.304 245.267,26.036 246.999,26.036 C255.058,26.036 261.309,31.842 261.309,31.842 C261.309,31.842 264.007,0.553 288.444,0.553 C289.879,0.553 291.387,0.66 292.977,0.889 C315.56,4.135 314.248,26.68 314.248,26.68 C314.248,26.68 317.536,20.119 325.825,20.119 C327.394,20.119 329.14,20.353 331.079,20.912 C343.79,24.575 342.412,45.18 326.502,45.18"/><path id="Fill-7" fill="#E6ECEB" d="M259.673,347.901 C259.673,349.41 289.14,350.633 325.489,350.633 C361.838,350.633 391.305,349.41 391.305,347.901 C391.305,346.393 361.838,345.17 325.489,345.17 C289.14,345.17 259.673,346.393 259.673,347.901"/><path id="Fill-8" fill="#D3DDDD" d="M338.418,348.431 C338.59,348.431 338.766,348.395 338.94,348.315 C339.824,347.911 340.337,346.589 340.088,345.363 C333.598,313.581 327.41,281.451 321.426,250.38 C315.446,219.327 309.261,187.218 302.83,155.75 C302.579,154.524 301.661,153.851 300.776,154.259 C299.891,154.664 299.377,155.985 299.628,157.211 C306.054,188.649 312.235,220.74 318.212,251.777 C324.2,282.863 330.391,315.009 336.887,346.824 C337.088,347.808 337.72,348.431 338.418,348.431"/><path id="Fill-9" fill="#D3DDDD" d="M376.64,348.431 C376.812,348.431 376.988,348.395 377.162,348.315 C378.046,347.911 378.559,346.589 378.31,345.363 C371.82,313.581 365.632,281.451 359.648,250.38 C353.668,219.327 347.483,187.218 341.052,155.75 C340.801,154.524 339.882,153.851 338.998,154.259 C338.113,154.664 337.599,155.985 337.85,157.211 C344.276,188.649 350.457,220.74 356.434,251.777 C362.422,282.863 368.613,315.009 375.108,346.824 C375.31,347.808 375.942,348.431 376.64,348.431"/><path id="Fill-10" fill="#D3DDDD" d="M328.264,292.453 L364.522,292.453 C365.441,292.453 366.215,291.408 366.254,290.116 C366.292,288.824 365.58,287.779 364.661,287.779 L328.403,287.779 C327.484,287.779 326.71,288.824 326.672,290.116 C326.633,291.408 327.345,292.453 328.264,292.453"/><path id="Fill-11" fill="#D3DDDD" d="M322.487,260.865 L358.747,260.865 C359.665,260.865 360.44,259.819 360.478,258.527 C360.517,257.235 359.805,256.19 358.886,256.19 L322.626,256.19 C321.707,256.19 320.933,257.235 320.895,258.527 C320.856,259.819 321.568,260.865 322.487,260.865"/><path id="Fill-12" fill="#D3DDDD" d="M334.039,324.042 L370.299,324.042 C371.218,324.042 371.992,322.997 372.031,321.705 C372.069,320.413 371.357,319.368 370.439,319.368 L334.179,319.368 C333.26,319.368 332.486,320.413 332.447,321.705 C332.409,322.997 333.121,324.042 334.039,324.042"/><path id="Fill-13" fill="#D3DDDD" d="M315.587,229.276 L351.845,229.276 C352.763,229.276 353.538,228.23 353.576,226.938 C353.615,225.646 352.903,224.601 351.984,224.601 L315.726,224.601 C314.807,224.601 314.033,225.646 313.994,226.938 C313.956,228.23 314.668,229.276 315.587,229.276"/><path id="Fill-14" fill="#D3DDDD" d="M310.347,197.687 L346.605,197.687 C347.523,197.687 348.298,196.641 348.336,195.349 C348.375,194.057 347.663,193.012 346.744,193.012 L310.486,193.012 C309.568,193.012 308.793,194.057 308.754,195.349 C308.716,196.641 309.428,197.687 310.347,197.687"/><path id="Fill-15" fill="#D3DDDD" d="M302.909,166.1 L339.168,166.1 C340.086,166.1 340.861,165.055 340.899,163.763 C340.938,162.471 340.225,161.425 339.307,161.425 L303.049,161.425 C302.13,161.425 301.356,162.471 301.317,163.763 C301.279,165.055 301.991,166.1 302.909,166.1"/><path id="Fill-16" fill="#BCC8CB" d="M318.649,348.431 C318.477,348.431 318.298,348.395 318.117,348.315 C317.199,347.911 316.574,346.589 316.72,345.363 C320.524,313.581 323.997,281.451 327.355,250.38 C330.711,219.327 334.182,187.218 337.955,155.75 C338.102,154.524 338.963,153.851 339.883,154.259 C340.802,154.664 341.427,155.985 341.28,157.211 C337.51,188.649 334.042,220.74 330.688,251.777 C327.326,282.863 323.852,315.009 320.045,346.824 C319.927,347.808 319.347,348.431 318.649,348.431"/><path id="Fill-17" fill="#BCC8CB" d="M280.427,348.431 C280.255,348.431 280.076,348.395 279.895,348.315 C278.977,347.911 278.352,346.589 278.498,345.363 C282.302,313.581 285.775,281.451 289.133,250.38 C292.489,219.327 295.961,187.218 299.733,155.75 C299.88,154.524 300.742,153.851 301.661,154.259 C302.58,154.664 303.205,155.985 303.058,157.211 C299.289,188.649 295.82,220.74 292.465,251.777 C289.104,282.863 285.63,315.009 281.823,346.824 C281.705,347.808 281.125,348.431 280.427,348.431"/><path id="Fill-18" fill="#BCC8CB" d="M324.073,292.453 L287.815,292.453 C286.896,292.453 286.033,291.408 285.885,290.116 C285.738,288.824 286.362,287.779 287.28,287.779 L323.538,287.779 C324.457,287.779 325.32,288.824 325.467,290.116 C325.615,291.408 324.991,292.453 324.073,292.453"/><path id="Fill-19" fill="#BCC8CB" d="M327.181,260.865 L290.921,260.865 C290.002,260.865 289.139,259.819 288.992,258.527 C288.844,257.235 289.468,256.19 290.386,256.19 L326.646,256.19 C327.565,256.19 328.427,257.235 328.575,258.527 C328.723,259.819 328.099,260.865 327.181,260.865"/><path id="Fill-20" fill="#BCC8CB" d="M320.967,324.042 L284.707,324.042 C283.788,324.042 282.926,322.997 282.778,321.705 C282.63,320.413 283.254,319.368 284.172,319.368 L320.432,319.368 C321.351,319.368 322.214,320.413 322.362,321.705 C322.509,322.997 321.885,324.042 320.967,324.042"/><path id="Fill-21" fill="#BCC8CB" d="M331.411,229.276 L295.153,229.276 C294.234,229.276 293.372,228.23 293.224,226.938 C293.076,225.646 293.7,224.601 294.618,224.601 L330.877,224.601 C331.795,224.601 332.658,225.646 332.806,226.938 C332.953,228.23 332.33,229.276 331.411,229.276"/><path id="Fill-22" fill="#BCC8CB" d="M333.982,197.687 L297.723,197.687 C296.805,197.687 295.942,196.641 295.794,195.349 C295.647,194.057 296.27,193.012 297.189,193.012 L333.447,193.012 C334.366,193.012 335.229,194.057 335.376,195.349 C335.524,196.641 334.9,197.687 333.982,197.687"/><path id="Fill-23" fill="#BCC8CB" d="M338.75,166.1 L302.491,166.1 C301.573,166.1 300.71,165.055 300.563,163.763 C300.415,162.471 301.039,161.425 301.957,161.425 L338.215,161.425 C339.134,161.425 339.997,162.471 340.144,163.763 C340.292,165.055 339.668,166.1 338.75,166.1"/><path id="Fill-24" fill="#D3DDDD" d="M346.184,157.11 L294.984,157.11 L294.984,151.395 C294.984,149.772 296.3,148.457 297.922,148.457 L343.246,148.457 C344.869,148.457 346.184,149.772 346.184,151.395 L346.184,157.11"/><path id="Fill-25" fill="#EE9F41" d="M312.244,104.745 L312.244,136.148 C312.244,136.998 311.553,137.679 310.712,137.679 L268.431,137.679 C267.58,137.679 266.899,136.998 266.899,136.148 L266.899,104.745 C266.899,104.298 267.091,103.894 267.41,103.617 C267.676,103.373 268.037,103.224 268.431,103.224 L310.712,103.224 C311.106,103.224 311.468,103.373 311.733,103.617 C312.042,103.894 312.244,104.298 312.244,104.745"/><path id="Fill-26" fill="#FCE296" d="M311.733,103.617 L290.699,119.59 C290.029,120.1 289.104,120.1 288.434,119.59 L267.41,103.617 C267.676,103.373 268.037,103.224 268.431,103.224 L310.712,103.224 C311.106,103.224 311.468,103.373 311.733,103.617"/><path id="Fill-27" fill="#EFA481" d="M329.077,128.036 C321.567,122.998 310.423,106.47 309.342,106.422 C308.717,106.394 308.146,106.776 306.319,106.806 C305.411,106.82 303.942,106.524 303.058,106.315 C302.874,106.272 302.652,106.174 302.651,105.985 C302.651,105.868 302.743,105.772 302.839,105.702 C303.212,105.431 303.698,105.376 304.16,105.369 C304.542,105.363 305.03,105.311 305.134,104.943 C305.196,104.726 305.069,104.494 304.892,104.354 C304.13,103.749 301.921,103.267 300.423,103.22 C301.144,102.997 302.168,102.767 302.902,102.59 C303.454,102.457 304.012,102.337 304.579,102.305 C305.394,102.259 307.272,102.302 308.077,102.438 C309.712,102.715 310.311,103.095 311.792,103.842 C312.688,104.294 313.494,104.905 314.285,105.524 C316.31,107.11 324.012,116.128 325.688,117.378"/><path id="Fill-28" fill="#EFA481" d="M292.352,146.62 C292.352,146.62 295.326,152.233 296.72,158.752 C297.911,164.316 295.391,173.491 296.187,179.999 C296.379,181.263 296.756,184.306 297.313,185.188 C297.997,186.269 299.422,187.417 299.655,188.904 C299.791,189.767 299.333,190.706 298.318,191.255 C297.303,191.803 296.577,191.297 296.203,191.355 C294.035,191.691 293.731,193.287 290.018,194.019 C288.873,194.244 287.088,193.939 286.03,193.214 C285.621,192.933 285.609,192.451 285.813,192.112 C286.016,191.773 288.73,190.764 289.937,189.955 C291.087,189.184 292.273,187.201 292.427,186.429 C292.581,185.656 291.799,182.05 291.462,180.538 C289.134,170.122 286.131,155.442 284.642,149.371"/><path id="Fill-29" fill="#233E70" d="M285.608,193.173 C285.329,192.725 285.251,192.049 285.503,191.885 C285.852,191.657 287.095,190.866 287.818,190.548 C288.541,190.229 291.606,188.434 291.203,188.643 C290.8,188.852 291.518,189.287 292.198,189.248 C294.545,189.116 294.341,189.143 295.674,188.826 C297.599,188.369 298.04,186.601 298.12,186.248 C298.488,186.47 299.74,188.167 299.919,188.719 C300.081,189.218 300.372,190.13 300.231,190.65 C300.133,191.008 296.983,191.823 296.983,191.823 C296.983,191.823 296.457,191.802 295.79,191.933 C295.123,192.063 294.348,192.536 293.991,192.904 C293.711,193.193 293.439,193.648 293.079,193.801 C292.04,194.241 291.276,194.44 290.08,194.504 C287.564,194.639 286.085,193.937 285.608,193.173"/><path id="Fill-30" fill="#F3B897" d="M290.047,148.694 C290.047,148.694 292.993,155.412 292.083,162.016 C291.307,167.653 285.505,177.07 284.037,183.459 C283.787,184.713 283.104,187.702 283.328,188.722 C283.602,189.971 284.551,191.535 284.264,193.013 C284.097,193.87 283.348,194.598 282.206,194.768 C281.065,194.938 280.555,194.215 280.183,194.142 C278.031,193.719 277.201,195.116 273.461,194.539 C272.307,194.361 270.733,193.466 269.986,192.423 C269.696,192.02 269.85,191.563 270.156,191.314 C270.463,191.065 273.359,191.04 274.769,190.691 C276.113,190.358 277.903,188.897 278.311,188.223 C278.72,187.55 279.213,183.893 279.411,182.356 C280.77,171.77 283.445,153.936 284.113,147.722"/><path id="Fill-31" fill="#21458A" d="M269.632,192.585 C269.501,192.073 269.632,191.406 269.921,191.325 C270.323,191.213 271.748,190.837 272.533,190.752 C273.318,190.668 276.783,189.886 276.336,189.963 C275.888,190.04 276.441,190.672 277.1,190.841 C279.377,191.426 279.174,191.39 280.542,191.492 C282.515,191.64 283.47,190.089 283.654,189.776 C283.937,190.1 284.615,192.096 284.619,192.677 C284.622,193.202 284.623,194.159 284.331,194.611 C284.129,194.923 280.88,194.745 280.88,194.745 C280.88,194.745 280.385,194.566 279.71,194.488 C279.035,194.41 278.153,194.626 277.701,194.869 C277.346,195.059 276.95,195.41 276.561,195.447 C275.438,195.552 274.648,195.51 273.49,195.209 C271.051,194.575 269.854,193.457 269.632,192.585"/><path id="Fill-32" fill="#F3B897" d="M323.456,134.029 L340.471,143.758 C340.471,143.758 339.791,149.95 332.089,151.597 C327.621,152.552 320.128,151.035 318.351,151.569 C306.856,155.023 287.081,151.068 287.081,151.068 C287.081,151.068 284.276,153.336 284.131,150.988 C283.937,147.852 283.7,146.334 286.118,144.732 C290.197,142.031 305.774,136.91 323.456,134.029"/><path id="Fill-33" fill="#21458A" d="M337.183,128.627 C337.183,128.627 341.813,138.837 341.146,143.411 C340.471,148.047 337.118,152.929 329.808,152.984 C322.498,153.039 306.771,153.21 306.771,153.21 C306.771,153.21 303.613,147.332 302.002,144.359 C300.392,141.386 301.711,138.279 301.711,138.279 C301.711,138.279 316.372,133.327 317.661,132.095 C318.949,130.863 320.212,128.131 320.212,128.131"/><path id="Fill-34" fill="#64ADD4" d="M319.892,91.176 C318.917,91.499 319.281,93.824 318.306,94.148 C317.599,94.382 316.213,94.07 315.564,94.436 C312.126,96.375 313.008,100.245 312.593,105.041 C311.138,108.721 310.75,112.055 311.91,114.11 C313.35,116.661 314.872,117.381 316.64,119.495 C317.962,121.076 317.725,123.581 317.997,127.073 C318.043,127.674 317.337,130.567 317.337,130.567 C317.206,131.292 320.369,131.89 322.244,131.564 C325.709,130.962 332.797,130.131 334.75,130.136 C338.869,130.146 338.594,128.22 338.594,128.22 C338.594,128.22 337.71,127.152 337.41,125.687 C336.75,122.46 336.243,114.393 335.729,111.659 C334.412,104.655 333.449,99.447 330.578,92.992"/><path id="Fill-35" fill="#3B98BC" d="M309.956,107.967 C311.025,106.095 312.491,104.398 313.924,102.769 L317.661,104.451 C315.904,107.821 315.583,111.791 314.777,115.476 C313.932,115.559 312.621,115.264 312.621,115.264 C312.257,114.671 312.393,114.967 311.91,114.11 C311.132,112.733 310.117,110.437 309.956,107.967"/><path id="Fill-36" fill="#F3B897" d="M307.404,81.715 C307.005,80.076 306.712,78.327 306.768,76.88 C306.876,74.102 307.228,70.077 311.845,68.424 C316.462,66.771 321.556,67.763 323.068,71.093 C324.58,74.423 324.228,79.464 324.449,82.159 C324.67,84.854 326.646,88.079 326.646,88.079 L316.703,92.359 C316.703,92.359 315.079,88.828 314.411,88.405 C313.742,87.982 313.712,89.202 311.438,89.73 C310.518,89.943 309.35,87.71 308.59,85.633 L308.519,85.428 C308.027,85.402 307.464,85.365 307.336,85.327 C306.65,85.122 306.704,84.819 306.858,84.383 C307.191,83.443 307.337,82.449 307.404,81.715"/><path id="Fill-37" fill="#F3B897" d="M291.25,136.296 C291.12,137.094 289.231,139.013 288.001,139.155 C287.607,139.2 287.193,139.151 286.854,138.939 C286.282,139.091 284.558,139.003 285.351,138.109 C284.129,138.836 282.914,138.591 281.561,138.303 C281.108,138.206 281.21,137.676 282.252,137.567 C283.701,137.415 284.85,136.658 285.792,135.453 C285.61,135.26 285.396,135.525 284.817,135.522 C284.175,135.52 283.886,135.184 283.911,134.908 C283.93,134.699 284.72,134.581 284.902,134.499 C285.594,134.188 286.285,133.877 286.977,133.565 C287.738,133.223 288.229,133.089 289.064,133.165 C289.204,133.178 290.537,133.477 290.124,133.912"/><path id="Fill-38" fill="#F3B897" d="M314.491,109.874 C314.491,109.874 309.272,123.94 308.365,125.089 C304.789,129.615 290.734,136.742 290.734,136.742 C290.734,136.742 288.55,135.928 288.989,133.674 C293.313,131.773 301.296,123.02 303.042,121.951 C304.174,121.258 309.169,104.062 309.169,104.062"/><path id="Fill-39" fill="#64ADD4" d="M312.349,94.237 C316.127,92.794 319.74,92.786 322.633,89.893 C325.569,92.151 319.087,105.212 317.486,105.562 C315.848,105.921 313.714,113.13 313.313,114.11 C308.081,113.972 306.168,111.12 306.168,111.12 C308.303,104.557 308.686,95.637 312.349,94.237"/><path id="Fill-40" fill="#2A2A5F" d="M315.379,94.594 C315.639,93.611 316.382,92.83 316.548,91.826 C316.705,90.879 316.519,89.663 315.992,88.849 C315.667,88.347 315.165,87.997 314.698,87.629 C312.619,85.989 311.993,85.623 312.69,83.171 C312.918,82.369 313.126,81.54 313.044,80.71 C312.969,79.959 312.816,79.174 312.008,79.08 C311.445,79.014 311.112,79.163 310.886,79.624 C310.626,80.155 311.603,84.588 310.134,79.999 C309.679,78.577 308.709,78.612 308.745,75.641 C308.75,75.288 308.87,73.854 308.651,73.644 C305.917,75.557 307.134,78.338 306.973,79.6 C305.935,79.162 305.379,75.706 305.377976,75.136 C305.376,73.969 305.501,73.07 305.925,72.16 C307.73,68.286 309.646,67.575 311.263,66.889 C312.832,66.223 314.461,65.545 316.162,65.59 C317.862,65.636 319.97,66.142 320.462,67.416 C322.818,66.809 324.166,68.868 324.722,69.608 C325.516,70.663 326.134,71.855 326.542,73.118 C327.144,74.979 327.284,76.961 327.76,78.86 C328.147,80.405 328.81,82.004 330.005,83.085 C331.153,84.124 332.767,84.219 334.014,85.172 C335.598,86.381 336.483,88.387 336.397,90.388 C336.311,92.382 335.285,94.532 336.489,96.362 C336.881,96.957 337.43,97.432 337.816,98.031 C338.704,99.41 338.576,101.312 337.726,102.717 C336.877,104.121 335.219,105.725 333.663,106.187 C332.107,106.649 330.889,106.88 329.271,106.791 C326.407,106.634 323.997,106.798 320.966,104.208 C319.251,102.742 320.349,101.904 318.702,100.349 C317.778,99.477 316.468,99.012 315.791,97.88 C315.232,96.944 315.117,95.766 315.351,94.709 L315.379,94.594"/><path id="Fill-41" fill="#4693C3" d="M188.526,310.186 L166.04,310.186 C166.04,310.186 167.292,319.186 188.526,319.186 C209.759,319.186 211.011,310.186 211.011,310.186 L188.526,310.186"/><path id="Fill-42" fill="#EE9F41" d="M253.135,118.269 C238.464,100.102 216.652,87.215 192.847,86.796 C179.077,86.553 164.569,88.375 152.272,94.935 C141.542,100.659 132.056,108.805 124.424,118.249 C111.277,134.519 103.7,155.742 105.973,176.537 C107.87,193.9 116.449,209.824 127.785,222.86 C138.839,235.574 154.955,246.067 157.714,264.022 C158.502,269.149 156.611,276.237 160.522,280.338 C165.176,285.219 172.735,283.521 178.691,283.474 C185.778,283.419 192.864,283.381 199.951,283.344 C200.961,283.339 202.091,283.391 203.283,283.442 C208.091,283.65 213.915,283.858 216.987,280.347 C220.899,276.247 219.01,269.159 219.8,264.032 C221.883,250.506 232.431,239.549 242.141,230.738 C253.286,220.626 262.118,208.999 267.096,194.642 C276.311,168.061 270.685,140.001 253.135,118.269"/><path id="Fill-43" fill="#FFFFFE" d="M185.448,287.023 C185.448,287.019 185.007,275.166 184.295,260.405 C183.583,245.641 182.601,227.981 181.511,216.313 C180.938,210.161 180.435,203.617 177.393,194.024 C176.499,191.21 174.946,186.994 172.621,183.357 C171.455,181.54 170.093,179.858 168.455,178.581 C166.825,177.308 164.86,176.44 162.664,176.443 C161.692,176.443 160.688,176.612 159.678,176.96 C157.722,177.628 156.216,178.682 155.233,180.038 C154.246,181.39 153.831,182.987 153.834971,184.562 C153.853,187.624 155.261,190.696 157.172,193.34 C158.134,194.66 159.235,195.867 160.403,196.888 C161.573,197.908 162.806,198.743 164.075,199.3 C166.384,200.303 169.201,200.705 172.144,200.71 C174.609,200.709 177.159,200.415 179.539,199.869 C181.92,199.321 184.129,198.529 185.932,197.467 C194.247,192.546 199.717,183.216 199.728,173.251 C199.728,171.745 199.602,170.225 199.34,168.706 C198.946,166.393 197.711,164.501 196.074,163.244 C194.436,161.981 192.411,161.316999 190.35,161.316999 C188.544,161.316999 186.696,161.834 185.085,162.934 C183.474,164.031 182.123,165.711 181.292,167.914 C180.858,169.075 180.698,170.42 180.694,171.943 C180.695,174.232 181.088,176.919 181.831,179.72 C182.951,183.919 184.853,188.363 187.561,191.921 C188.917,193.698 190.481,195.256 192.279,196.419 C194.074,197.58 196.12,198.338 198.344,198.46 C198.707,198.48 199.068,198.49 199.428,198.49 C202.637,198.49 205.683,197.708 208.541,196.521 C211.4,195.333 214.082,193.739 216.601,192.066 C218.62,190.727 220.085,189.043 221.028,187.233 C221.973,185.423 222.399,183.496 222.399,181.652 C222.395,179.211 221.664,176.903 220.323,175.124 C219.651,174.236 218.819,173.482 217.841,172.946 C216.865,172.41 215.741,172.101 214.555,172.103 C213.29,172.102 211.972,172.449 210.676,173.144 C209.378,173.84 208.094,174.877 206.828,176.286 C203.023,180.531 200.646,186.063 199.12,191.801 C197.597,197.543 196.934,203.513 196.67,208.69 C195.248,236.659 194.886,258.637 193.992,286.58 L197.16,286.682 C198.055,258.708 198.416,236.759 199.835,208.851 C200.09,203.823 200.74,198.049 202.183,192.614 C203.622,187.175 205.863,182.097 209.186,178.403 C210.256,177.212 211.268,176.421 212.172,175.938 C213.078,175.454 213.866,175.273 214.555,175.272 C215.202,175.273 215.777,175.431 216.319,175.726 C217.127,176.166 217.86,176.948 218.388,177.988 C218.917,179.025 219.231,180.305 219.23,181.652 C219.229,183.01 218.916,184.43 218.218,185.767 C217.519,187.104 216.439,188.367 214.847,189.427 C212.421,191.039 209.903,192.524 207.325,193.594 C204.745,194.666 202.117,195.321 199.428,195.321 C199.126,195.321 198.823,195.312 198.519,195.296 C196.371,195.174 194.422,194.261 192.618,192.723 C189.919,190.425 187.675,186.711 186.167,182.811 C184.65,178.92 183.857,174.833 183.863,171.943 C183.859,170.67 184.024,169.634 184.256,169.036 C184.886,167.383 185.815,166.277 186.873,165.551 C187.932,164.828 189.142,164.487 190.35,164.486 C191.727,164.485 193.086,164.938 194.137,165.752 C195.189,166.571 195.949,167.716 196.217,169.245 C196.448,170.583 196.559,171.922 196.559,173.251 C196.57,182.04 191.652,190.421 184.321,194.738 C182.913,195.573 180.969,196.292 178.83,196.78 C176.691,197.272 174.355,197.541 172.144,197.54 C169.507,197.545 167.043,197.146 165.345,196.396 C164.464,196.013 163.462,195.354 162.487,194.501 C161.021,193.223 159.613,191.513 158.606,189.725 C157.591,187.939 156.997,186.077 157.004,184.562 C157.008,183.511 157.258,182.648 157.797,181.901 C158.34,181.158 159.221,180.472 160.708,179.957 C161.413,179.715 162.056,179.613 162.664,179.612 C164.019,179.615 165.266,180.122 166.51,181.083 C168.367,182.515 170.067,184.983 171.401,187.605 C172.741,190.226 173.741,192.985 174.372,194.981 C177.313,204.286 177.775,210.411 178.356,216.608 C179.436,228.167 180.419,245.818 181.13,260.557 C181.485,267.929 181.773,274.576 181.972,279.379 C182.071,281.781 182.148,283.721 182.201,285.062 C182.253,286.402 182.281,287.138 182.281,287.141 L185.448,287.023"/><polyline id="Fill-44" fill="#4693C3" points="212.292 287.953 164.261 287.946 164.261 282.564 212.292 282.571 212.292 287.953"/><path id="Fill-45" fill="#6BBBDD" d="M215.062,304.347 C214.23,303.35 214.27,301.723 215.149,300.784 L215.446,300.465 C216.31,299.543 216.365,297.95 215.568,296.946 L215.083,296.335 C214.251,295.286 214.353,293.61 215.304,292.716 C216.237,291.84 216.356,290.204 215.564,289.149 L214.279,287.434 C213.81,286.808 213.074,286.44 212.292,286.44 L164.563,286.432 C163.781,286.432 163.045,286.8 162.576,287.426 L161.29,289.141 C160.498,290.196 160.617,291.831 161.549,292.708 C162.499,293.602 162.601,295.278 161.768,296.327 L161.283,296.938 C160.486,297.942 160.54,299.534 161.404,300.457 L161.702,300.776 C162.58,301.715 162.619,303.342 161.787,304.339 L161.408,304.794 C160.556,305.814 160.619,307.484 161.543,308.409 L161.741,308.608 C162.759,309.627 164.046,310.186 165.374,310.186 L211.473,310.193 C212.802,310.193 214.088,309.635 215.107,308.616 L215.305,308.417 C216.229,307.493 216.292,305.822 215.442,304.802 L215.062,304.347"/><path id="Fill-46" fill="#4693C3" d="M213.367,293.186 C213.411,293.089 213.436,292.98 213.437,292.867 C213.436,292.436 213.084,292.087 212.654,292.085 L190.41,292.082 C189.978,292.085 189.631,292.434 189.629,292.864 C189.629,293.295 189.981,293.643 190.411,293.646 L212.655,293.649 C212.973,293.648 213.245,293.459 213.367,293.186"/><path id="Fill-47" fill="#4693C3" d="M181.209,293.181 C181.253,293.083 181.278,292.975 181.279,292.861 C181.278,292.43 180.926,292.082 180.496,292.08 L168.167,292.078 C167.735,292.079 167.388,292.428 167.385,292.861 C167.386,293.292 167.738,293.64 168.168,293.642 L180.497,293.644 C180.815,293.642 181.087,293.453 181.209,293.181"/><path id="Fill-48" fill="#4693C3" d="M197.891,298.634 C197.935,298.536 197.96,298.427 197.961,298.314 C197.96,297.883 197.609,297.535 197.179,297.533 L164.94,297.528 C164.509,297.528 164.157,297.882 164.158992,298.31 C164.158992,298.741 164.511,299.089 164.941,299.092 L197.18,299.096 C197.497,299.095 197.769,298.906 197.891,298.634"/><path id="Fill-49" fill="#4693C3" d="M213.444,298.636 C213.488,298.539 213.513,298.43 213.514,298.317 C213.513,297.885 213.161,297.537 212.732,297.535 L203.224,297.535 C202.793,297.536 202.447,297.892 202.443,298.318 C202.443,298.749 202.795,299.097 203.225,299.099 L212.732,299.099 C213.05,299.098 213.322,298.909 213.444,298.636"/><path id="Fill-50" fill="#4693C3" d="M186.124,304.082 C186.167,303.984 186.193,303.875 186.193,303.762 C186.192,303.331 185.841,302.983 185.411,302.981 L168.164,302.978 C167.732,302.981 167.385,303.33 167.383,303.76 C167.383,304.191 167.735,304.539 168.165,304.542 L185.411,304.544 C185.729,304.543 186.001,304.354 186.124,304.082"/><path id="Fill-51" fill="#4693C3" d="M204.339,304.085 C204.382,303.987 204.408,303.878 204.408,303.765 C204.408,303.334 204.056,302.986 203.626,302.984 L196.695,302.982 C196.264,302.982 195.914,303.33 195.913,303.764 C195.914,304.195 196.266,304.543 196.696,304.546 L203.627,304.547 C203.945,304.546 204.217,304.357 204.339,304.085"/><path id="Fill-52" fill="#4693C3" d="M186.797,293.182 C186.841,293.085 186.866,292.976 186.867,292.863 C186.866,292.431 186.514,292.084 186.085,292.081 L183.586,292.081 C183.154,292.082 182.811,292.432 182.804,292.863 C182.805,293.295 183.157,293.643 183.587,293.645 L186.085,293.645 C186.404,293.644 186.675,293.455 186.797,293.182"/><path id="Fill-53" fill="#F7D9D9" d="M212.292,282.995 L212.292,282.995 C213.521,282.691 214.662,282.23 215.646,281.544 C214.662,282.23 213.521,282.691 212.292,282.995 M164.261,282.81 C162.892,282.283 161.625,281.495 160.522,280.338 C160.503,280.319 160.485,280.299 160.467,280.28 C160.485,280.299 160.503,280.319 160.522,280.338 C161.625,281.495 162.892,282.283 164.261,282.81 M240.014,232.694 C240.725,232.03 241.435,231.379 242.141,230.738 C242.797,230.143 243.446,229.541 244.086,228.935 C243.446,229.541 242.797,230.143 242.141,230.738 C241.435,231.379 240.725,232.03 240.014,232.694 M268.672,189.564 C273.71,171.222 271.85,152.418 264.034,135.67 C271.85,152.418 273.71,171.222 268.672,189.564 M231.165,98.65 C230.581,98.283 229.994,97.924 229.401,97.571 L230.538,97.787 L231.165,98.65 M192.847,86.796 C192.728,86.793 192.607,86.792 192.488,86.79 C192.608,86.792 192.727,86.793 192.847,86.796"/><path id="Fill-54" fill="#E4D0D8" d="M133.892,108.108 L142.179,99.955 L144.918,99.359 C141.025,101.977 137.339,104.915 133.892,108.108"/><path id="Fill-55" fill="#E4D0D8" d="M244.086,228.935 L244.086,228.935 C245.874,227.241 247.595,225.506 249.246,223.721 C247.595,225.506 245.874,227.241 244.086,228.935"/><path id="Fill-56" fill="#EA8739" d="M212.292,282.995 L212.292,282.571 L197.289,282.569 C197.794,266.196 198.137,251.764 198.658,236.713 C200.065,235.801 201.606,235 203.255,234.286 C237.091,219.641 253.458,195.75 254.512,162.243 C255.054,145.015 249.185,129.051 239.279,116.28 C223.209,106.328 201.72,103.462 182.284,103.462 C155.854,103.462 133.225,108.765 133.225,108.765 L133.892,108.108 C137.339,104.915 141.025,101.977 144.918,99.359 L157.517,96.62 L177.022,93.619 L202.53,92.453 L212.293,94.312 C203.728,90.117 194.353,87.513 184.642,86.918 C186.627,86.821 188.608,86.775 190.577,86.775 C191.215,86.775 191.852,86.78 192.488,86.79 C192.607,86.792 192.728,86.793 192.847,86.796 C192.872,86.796 192.896,86.796 192.921,86.797 C192.928,86.797 192.934,86.797 192.941,86.797 C192.959,86.798 192.976,86.798 192.994,86.798 C193.003,86.799 193.012,86.799 193.02,86.799 C193.036,86.799 193.052,86.799 193.068,86.8 C193.077,86.8 193.086,86.8 193.095,86.8 C193.111,86.801 193.127,86.801 193.143,86.801 C193.15,86.802 193.16,86.802 193.167,86.802 C193.185,86.802 193.201,86.803 193.219,86.803 C193.226,86.803 193.233,86.803 193.241,86.804 C193.259,86.804 193.277,86.805 193.296,86.805 C193.302,86.805 193.307,86.805 193.313,86.805 C193.334,86.806 193.354,86.806 193.375,86.807 C193.379,86.807 193.382,86.807 193.386,86.807 C206.253,87.136 218.521,91.106 229.381,97.567 L229.401,97.571 C229.994,97.924 230.581,98.283 231.165,98.65 L231.176,98.665 C239.42,103.853 246.802,110.479 252.944,118.033 C252.947,118.037 252.952,118.043 252.956,118.048 C252.963,118.057 252.97,118.066 252.978,118.075 C252.983,118.082 252.991,118.091 252.996,118.098 C253.003,118.106 253.01,118.115 253.017,118.123 C253.024,118.132 253.03,118.139 253.037,118.148 C253.043,118.156 253.05,118.163 253.056,118.171 C253.064,118.181 253.073,118.193 253.081,118.202 C253.086,118.208 253.09,118.214 253.095,118.219 C253.108,118.236 253.121,118.252 253.135,118.269 C257.531,123.712 261.18,129.555 264.034,135.67 C271.85,152.418 273.71,171.222 268.672,189.564 C268.206,191.261 267.681,192.955 267.096,194.642 C263.23,205.792 257.039,215.296 249.246,223.721 C247.595,225.506 245.874,227.241 244.086,228.935 C243.446,229.541 242.797,230.143 242.141,230.738 C241.435,231.379 240.725,232.03 240.014,232.694 C230.951,241.146 221.751,251.467 219.806,263.992 C219.804,264.005 219.802,264.018 219.8,264.032 C219.615,265.233 219.577,266.543 219.577,267.896 C219.577,268.838 219.595,269.801 219.595,270.764 C219.595,274.321 219.344,277.877 216.987,280.347 C216.585,280.807 216.135,281.203 215.646,281.544 C214.662,282.23 213.521,282.691 212.292,282.995 M164.261,282.81 C162.892,282.283 161.625,281.495 160.522,280.338 C160.503,280.319 160.485,280.299 160.467,280.28 C160.105,279.89 159.805,279.468 159.537,279.03 C162.954,279.67 166.408,280.011 169.85,280.011 C173.928,280.011 177.988,279.531 181.935,278.502 C181.948,278.801 181.96,279.093 181.972,279.379 C182.021,280.558 182.064,281.626 182.102,282.567 L164.261,282.564 L164.261,282.81 M194.118,282.569 L185.274,282.567 C185.218,281.17 185.149,279.482 185.068,277.56 C185.236,277.503 185.404,277.444 185.571,277.385 C186.58,277.026 187.611,276.608 188.347,275.83 C189.141,274.991 189.497,273.835 189.732,272.704 C191.289,265.231 188.924,257.636 189.966,250.139 C190.61,245.508 192.543,241.997 195.4,239.265 C194.927,253.415 194.595,267.137 194.118,282.569"/><path id="Fill-57" fill="#F7D9D9" d="M197.289,282.569 L194.118,282.569 C194.595,267.137 194.927,253.415 195.4,239.265 C196.382,238.327 197.472,237.481 198.658,236.713 C198.137,251.764 197.794,266.196 197.289,282.569 M185.274,282.567 L182.102,282.567 C182.064,281.626 182.021,280.558 181.972,279.379 C181.96,279.093 181.948,278.801 181.935,278.502 C182.988,278.228 184.033,277.915 185.068,277.56 C185.149,279.482 185.218,281.17 185.274,282.567"/><path id="Fill-58" fill="#3C7DB4" d="M170.77,283.797 C168.505,283.797 166.272,283.584 164.261,282.81 L164.261,282.564 L182.102,282.567 L185.274,282.567 L194.118,282.569 L197.289,282.569 L212.292,282.571 L212.292,282.995 C210.575,283.421 208.685,283.54 206.813,283.54 C205.613,283.54 204.419,283.491 203.283,283.442 C202.147,283.393 201.068,283.344 200.095,283.344 C200.047,283.344 199.998,283.344 199.951,283.344 C192.864,283.381 185.778,283.419 178.691,283.474 C176.219,283.493 173.472,283.797 170.77,283.797"/><path id="Fill-59" fill="#F3B061" d="M115.681,189.776 C101.49,153.074 130.303,121.993 130.303,121.993 C134.152,117.248 139.031,115.275 143.431,115.275 C155.139,115.275 163.448,129.252 139.874,142.199 C114.022,156.396 115.681,189.776 115.681,189.776"/><polyline id="Fill-60" fill="#2D5696" points="188.605 73.649 297.892 52.81 188.605 11.127 188.605 11.067 188.526 11.097 188.447 11.067 188.447 11.127 79.16 52.81 188.447 73.649 188.447 73.679 188.526 73.664 188.605 73.679 188.605 73.649"/><path id="Fill-61" fill="#4470AA" d="M244.202,49.57 L244.202,108.767 C244.202,108.767 235.2,105.156 221.035,102.375 C212.193,100.645 201.33,99.234 189.396,99.234 C156.426,99.234 133.229,108.767 133.229,108.767 L133.229,49.57 C133.229,49.57 156.426,40.037 189.396,40.037 C201.33,40.037 212.193,41.447 221.035,43.178 C223.206,43.608 225.257,44.048 227.167,44.508 C237.75,46.979 244.202,49.57 244.202,49.57"/><path id="Fill-62" fill="#F7CC40" d="M101,111.291 C100.724,111.291 100.5,111.067 100.5,110.791 L100.5,44.484 C100.5,44.208 100.724,43.984 101,43.984 C101.276,43.984 101.5,44.208 101.5,44.484 L101.5,110.791 C101.5,111.067 101.276,111.291 101,111.291"/><path id="Fill-63" fill="#F7CC40" d="M104.934,153.429 L97.066,153.429 L97.066,111.224 C97.066,109.052 98.827,107.29 101,107.29 C103.173,107.29 104.934,109.052 104.934,111.224 L104.934,153.429"/><path id="Fill-64" fill="#3268A4" d="M224.37,43.871 C224.279,43.851 224.19,43.831 224.098,43.811 C223.104,43.597 222.089,43.385 221.035,43.178 C212.193,41.447 201.33,40.037 189.396,40.037 C156.426,40.037 133.229,49.57 133.229,49.57 L133.229,54.191 C133.229,54.191 205.901,45.919 221.035,80.199 L221.035,102.375 C235.2,105.156 244.202,108.767 244.202,108.767 L244.202,49.57 C244.202,49.57 236.59,46.523 224.37,43.871"/><path id="Fill-65" fill="#F2B129" d="M110.478,258.766 L131.596,313.85 C131.96,314.802 131.485,315.868 130.534,316.233 L123.013,319.116 C122.062,319.481 120.995,319.005 120.63,318.054 L99.513,262.969 C99.148,262.018 99.623,260.951 100.575,260.587 L108.095,257.703 C109.046,257.339 110.113,257.814 110.478,258.766"/><path id="Fill-66" fill="#FFFFFE" d="M99.948,264.104 L101.799,263.394 C101.895,263.357 101.96,263.241 101.917,263.129 C101.874,263.017 101.742,262.958 101.646,262.995 L99.795,263.705 L99.948,264.104"/><polyline id="Fill-67" fill="#FFFFFE" points="101.877 266.128 101.828 266.239 100.902 266.594 100.841 266.434 101.767 266.079 101.877 266.128"/><polyline id="Fill-68" fill="#FFFFFE" points="103.878 271.348 103.829 271.458 102.903 271.813 102.842 271.653 103.768 271.298 103.878 271.348"/><polyline id="Fill-69" fill="#FFFFFE" points="105.879 276.567 105.83 276.677 104.904 277.033 104.843 276.873 105.769 276.518 105.879 276.567"/><polyline id="Fill-70" fill="#FFFFFE" points="107.88 281.786 107.831 281.897 106.905 282.252 106.844 282.092 107.77 281.737 107.88 281.786"/><polyline id="Fill-71" fill="#FFFFFE" points="109.881 287.006 109.832 287.116 108.906 287.471 108.845 287.311 109.77 286.956 109.881 287.006"/><polyline id="Fill-72" fill="#FFFFFE" points="111.876 292.209 111.826 292.319 110.901 292.674 110.839 292.515 111.765 292.16 111.876 292.209"/><polyline id="Fill-73" fill="#FFFFFE" points="113.877 297.428 113.827 297.539 112.902 297.894 112.84 297.734 113.766 297.379 113.877 297.428"/><polyline id="Fill-74" fill="#FFFFFE" points="115.878 302.648 115.828 302.758 114.902 303.113 114.841 302.953 115.767 302.598 115.878 302.648"/><polyline id="Fill-75" fill="#FFFFFE" points="117.878 307.867 117.829 307.977 116.904 308.332 116.842 308.173 117.768 307.818 117.878 307.867"/><polyline id="Fill-76" fill="#FFFFFE" points="119.879 313.086 119.83 313.197 118.904 313.552 118.843 313.392 119.769 313.037 119.879 313.086"/><path id="Fill-77" fill="#FFFFFE" d="M101.949,269.323 L103.8,268.613 C103.896,268.577 103.955,268.444 103.918,268.348 C103.875,268.237 103.743,268.178 103.647,268.214 L101.796,268.924 L101.949,269.323"/><path id="Fill-78" fill="#FFFFFE" d="M105.913,273.552 C105.956,273.663 105.897,273.796 105.801,273.833 L103.949,274.542 L103.796,274.143 L105.648,273.434 C105.744,273.397 105.87,273.44 105.913,273.552"/><path id="Fill-79" fill="#FFFFFE" d="M107.914,278.771 C107.957,278.883 107.898,279.015 107.802,279.052 L105.95,279.762 L105.797,279.363 L107.649,278.653 C107.745,278.616 107.871,278.659 107.914,278.771"/><path id="Fill-80" fill="#FFFFFE" d="M109.915,283.99 C109.958,284.102 109.899,284.235 109.803,284.271 L107.951,284.981 L107.798,284.582 L109.65,283.872 C109.746,283.835 109.872,283.879 109.915,283.99"/><path id="Fill-81" fill="#FFFFFE" d="M111.916,289.21 C111.959,289.321 111.893,289.438 111.798,289.475 L109.946,290.184 L109.793,289.785 L111.645,289.076 C111.74,289.039 111.873,289.098 111.916,289.21"/><path id="Fill-82" fill="#FFFFFE" d="M113.917,294.429 C113.96,294.541 113.894,294.657 113.799,294.694 L111.947,295.404 L111.794,295.005 L113.646,294.295 C113.741,294.258 113.874,294.317 113.917,294.429"/><path id="Fill-83" fill="#FFFFFE" d="M115.918,299.648 C115.96,299.76 115.895,299.876 115.8,299.913 L113.948,300.623 L113.795,300.224 L115.647,299.514 C115.742,299.477 115.875,299.537 115.918,299.648"/><path id="Fill-84" fill="#FFFFFE" d="M115.949,305.842 L117.8,305.132 C117.896,305.096 117.955,304.963 117.919,304.868 C117.876,304.756 117.743,304.697 117.647,304.734 L115.796,305.443 L115.949,305.842"/><path id="Fill-85" fill="#FFFFFE" d="M117.95,311.062 L119.801,310.352 C119.897,310.315 119.956,310.183 119.913,310.071 C119.871,309.959 119.744,309.916 119.648,309.953 L117.797,310.663 L117.95,311.062"/><path id="Fill-86" fill="#FFFFFE" d="M119.951,316.281 L121.802,315.571 C121.898,315.534 121.957,315.402 121.914,315.29 C121.871,315.179 121.745,315.135 121.649,315.172 L119.798,315.882 L119.951,316.281"/><polygon id="Fill-87" fill="#6BBBDD" points="129.481 332.121 135.037 332.121 135.037 269.159 129.481 269.159"/><polyline id="Fill-88" fill="#F9D7AE" points="135.031 269.153 129.476 269.153 131.971 264.23 132.262 263.666 132.552 264.23 135.031 269.153"/><polyline id="Fill-89" fill="#4D4D4A" points="132.552 264.23 131.971 264.23 132.262 263.666 132.552 264.23"/><polyline id="Fill-90" fill="#6BBBDD" points="133.511 340.849 128.008 341.611 119.371 279.243 124.874 278.481 133.511 340.849"/><polyline id="Fill-91" fill="#F9D7AE" points="124.868 278.476 119.365 279.238 121.162 274.019 121.372 273.421 121.737 273.94 124.868 278.476"/><polyline id="Fill-92" fill="#4D4D4A" points="121.737 273.94 121.162 274.019 121.372 273.421 121.737 273.94"/><path id="Fill-93" fill="#54639F" d="M149.682,282.891 L137.783,282.876 C137.292,282.875 136.896,282.477 136.896,281.987 L136.9,279.008 C136.901,278.518 137.299,278.121 137.789,278.121998 L149.688,278.137 C150.179,278.137 150.576,278.535 150.575002,279.025 L150.571,282.004 C150.571,282.494 150.173,282.891 149.682,282.891"/><path id="Fill-94" fill="#312F7A" d="M146.857,275.195 C145.094,275.193 144.722,273.688 144.722,273.688 L144.492,273.687 L143.066,273.685 L142.836,273.685 C142.836,273.685 142.46,275.189 140.698,275.187 C136.584,275.396 136.981,278.897 136.981,278.897 L143.06,278.905 L144.486,278.906 L150.565,278.914 C150.565,278.914 150.97,275.414 146.857,275.195"/><path id="Fill-95" fill="#F2B129" d="M147.91,320.495003 L139.461,320.485 C138.018,320.483 136.849,319.311 136.850997,317.868 L136.9,278.897 L150.575,278.914 L150.526,317.885 C150.524,319.328 149.353,320.497 147.91,320.495003"/><polyline id="Fill-96" fill="#F2B129" points="142.836 273.685 142.838 271.939 144.724 271.941 144.722 273.688 142.836 273.685"/><path id="Fill-97" fill="#E77C2B" d="M144.585,315.363003 L142.798,315.361 C141.403,315.359 140.274,314.227 140.275997,312.832 L140.313,283.908 C140.314,282.514 141.446,281.385 142.841,281.386997 L144.628,281.389 C146.023,281.39 147.152,282.522 147.150003,283.917 L147.114,312.841 C147.112,314.235 145.98,315.365 144.585,315.363003"/><path id="Fill-98" fill="#E05A29" d="M147.133,297.549 L147.15,284.256 C147.153,284.313 147.154,284.37 147.154,284.428 L147.133,297.549"/><path id="Fill-99" fill="#DD442A" d="M144.073,315.359 L143.557,315.359 C145.227,315.359 146.593,314.009 146.593,312.324 L146.623,284.428 C146.623,282.743 145.272,281.393 143.603,281.393 L144.119,281.393 C145.731,281.393 147.06,282.652 147.15,284.256 L147.109,312.324 C147.109,314.009 145.758,315.359 144.073,315.359"/><path id="Fill-100" fill="#4693C3" d="M148.203,349.546 L117.703,349.546 C115.693,349.546 114.029,347.984 113.902,345.978 L110.753,296.216 L155.153,296.216 L152.004,345.978 C151.878,347.984 150.213,349.546 148.203,349.546"/><path id="Fill-101" fill="#3188BD" d="M155.15,296.214 L152.007,345.973 C151.88,347.98 150.214,349.546 148.206,349.546 L117.702,349.546 C115.694,349.546 114.028,347.98 113.902,345.973 L110.758,296.214 L155.15,296.214"/><path id="Fill-102" fill="#4693C3" d="M142.133,296.214 L138.977,345.973 C138.85,347.98 137.184,349.546 135.176,349.546 L117.702,349.546 C115.694,349.546 114.028,347.98 113.902,345.973 L110.758,296.214 L142.133,296.214"/><path id="Fill-103" fill="#E6ECEB" d="M326.774,352.653 C326.774,355.864 264.94,358.468 188.662,358.468 C112.385,358.468 50.549,355.864 50.549,352.653 C50.549,349.441 112.385,346.838 188.662,346.838 C264.94,346.838 326.774,349.441 326.774,352.653"/><path id="Fill-104" fill="#CFEBF3" d="M207.266,331.625972 C193.761,331.638 189.275,338.519 187.785,341.395 C186.295,338.519 181.809,331.638 168.304,331.625972 C148.475,331.608 68.307,340.379 68.307,340.379 L68.307,346.838 L307.262,346.838 L307.262,340.379 C307.262,340.379 227.094,331.608 207.266,331.625972"/><path id="Fill-105" fill="#92D2E9" d="M306.251,342.402 L275.935,339.951 C265.831,339.13 255.726,338.328 245.616,337.595 L230.451,336.535 L222.867,336.058 C220.339,335.931 217.81,335.754 215.283,335.669 L211.492,335.517 L207.708,335.454 C205.188,335.46 202.702,335.615 200.266,336.091 C197.833,336.564 195.469,337.368 193.358,338.597 C191.277,339.857 189.47,341.585 188.367,343.719 L187.786,344.843 L187.203,343.719 C186.097,341.586 184.292,339.857 182.211,338.598 C180.101,337.37 177.736,336.565 175.303,336.092 C172.869,335.616 170.36,335.461 167.869,335.455 L164.068,335.519 L160.283,335.67 C157.763,335.755 155.229,335.932 152.702,336.059 L145.119,336.536 L129.954,337.598 C119.844,338.33 109.739,339.131 99.635,339.953 L69.318,342.402 L99.578,339.313 C109.672,338.359 119.771,337.447 129.875,336.591 C134.927,336.16 139.982,335.76 145.041,335.404 L152.632,334.896 C155.168,334.759 157.691,334.573 160.237,334.477 L164.049,334.31 L167.85,334.230921 C170.425,334.227 172.997,334.375 175.543,334.861 C178.082,335.345 180.588,336.178 182.868,337.495 C185.118,338.844 187.124,340.729 188.367,343.115 L187.203,343.115 C188.448,340.73 190.452,338.845 192.703,337.496 C194.982,336.179 197.488,335.347 200.027,334.863 C202.571,334.376 205.167,334.227 207.712,334.232 L211.53,334.311 L215.336,334.478 C217.875,334.574 220.403,334.761 222.937,334.897 L230.529,335.405 C235.588,335.761 240.642,336.164 245.694,336.594 C255.799,337.449 265.897,338.359 275.991,339.315 L306.251,342.402"/><path id="Fill-106" fill="#92D2E9" d="M138.141,342.195 L150.579,341.458 C154.726,341.244 158.874,341.009 163.029,340.897 C165.106,340.834 167.184,340.786 169.266,340.777 C170.31,340.783 171.347,340.769 172.403,340.83 C173.467,340.873 174.477,340.975 175.525,341.067 C177.602,341.259 179.67,341.499 181.736,341.79 C183.802,342.093 185.853,342.411 187.914,342.875 L187.403,343.823 C186.543,343.089 185.459,342.436 184.392,341.88 C183.314,341.313 182.181,340.842 181.028,340.432 C178.717,339.618 176.308,339.074 173.871,338.734 C171.437,338.377 168.957,338.29 166.5,338.318 C163.996,338.377 161.536,338.531 159.039,338.66 L129.139,340.39 L114.189,341.286 L99.235,342.135 C89.268,342.738 79.29,343.191 69.318,343.731 C79.272,342.924 89.222,342.049 99.182,341.339 L114.121,340.236 L129.065,339.219 L144.014,338.25 C148.998,337.937 153.981,337.615 158.972,337.38 C161.461,337.264 163.987,337.122 166.475,337.078 C169.006,337.063 171.532,337.167 174.039,337.547 C176.543,337.91 179.025,338.484 181.419,339.343 C182.614,339.776 183.79,340.272 184.918,340.874 C186.054,341.482 187.131,342.116 188.166,343.011 C188.397,343.21 188.422,343.558 188.223,343.788 C188.085,343.948 187.876,344.009 187.684,343.966 L187.655,343.959 C185.665,343.507 183.62,343.13 181.583,342.803 C179.542,342.48 177.489,342.207 175.435,341.982 C174.416,341.875 173.361,341.752 172.351,341.695 C171.335,341.618 170.293,341.615 169.262,341.591 C167.192,341.565 165.118,341.578 163.044,341.606 L150.593,341.833 L138.141,342.195"/><path id="Fill-107" fill="#92D2E9" d="M136.189,342.067 C136.189,342.067 135.502,342.151 134.299,342.266 C133.096,342.367 131.378,342.55 129.314,342.702 C127.251,342.865 124.843,343.025 122.261,343.17 C119.68,343.323 116.925,343.437 114.17,343.555 C108.659,343.758 103.144,343.858 99.004,343.848 C96.935,343.852 95.208,343.798 94.001,343.787 C92.793,343.763 92.102,343.731 92.102,343.731 C92.102,343.731 92.788,343.647 93.991,343.532 C95.195,343.43 96.912,343.246 98.976,343.095 C103.103,342.772 108.61,342.456 114.12,342.244 C116.876,342.154 119.632,342.06 122.218,342.018 C124.803,341.967 127.216,341.946 129.286,341.953 C131.355,341.948 133.082,342.001 134.29,342.012 C135.498,342.036 136.189,342.067 136.189,342.067"/><path id="Fill-108" fill="#92D2E9" d="M237.557,342.195 L225.105,341.833 L212.654,341.606 C210.58,341.578 208.506,341.565 206.436,341.591 C205.405,341.615 204.364,341.618 203.347,341.695 C202.337,341.752 201.282,341.875 200.263,341.982 C198.21,342.207 196.156,342.48 194.115,342.803 C192.078,343.13 190.033,343.507 188.043,343.959 L188.015,343.966 C187.718,344.033 187.422,343.847 187.355,343.55 C187.308,343.345 187.383,343.14 187.532,343.011 C188.567,342.116 189.644,341.482 190.78,340.874 C191.909,340.272 193.084,339.776 194.28,339.343 C196.674,338.484 199.155,337.91 201.659,337.547 C204.166,337.167 206.693,337.063 209.223,337.078 C211.711,337.122 214.237,337.264 216.726,337.38 C221.717,337.615 226.7,337.937 231.684,338.25 L246.633,339.219 L261.577,340.236 L276.516,341.339 C286.477,342.049 296.426,342.924 306.38,343.731 C296.408,343.191 286.431,342.738 276.464,342.135 L261.509,341.286 L246.559,340.39 L216.659,338.66 C214.162,338.531 211.702,338.377 209.198,338.318 C206.741,338.29 204.261,338.377 201.827,338.734 C199.39,339.074 196.982,339.618 194.67,340.432 C193.517,340.842 192.384,341.313 191.306,341.88 C190.24,342.436 189.155,343.089 188.295,343.823 L187.784,342.875 C189.845,342.411 191.896,342.093 193.962,341.79 C196.028,341.499 198.096,341.259 200.174,341.067 C201.221,340.975 202.231,340.873 203.295,340.83 C204.351,340.769 205.388,340.783 206.432,340.777 C208.514,340.786 210.592,340.834 212.669,340.897 C216.824,341.009 220.972,341.244 225.12,341.458 L237.557,342.195"/><path id="Fill-109" fill="#92D2E9" d="M239.509,342.067 C239.509,342.067 240.201,342.036 241.409,342.012 C242.616,342.001 244.343,341.948 246.412,341.953 C248.482,341.946 250.896,341.967 253.481,342.018 C256.066,342.06 258.822,342.154 261.578,342.244 C267.088,342.456 272.595,342.772 276.722,343.095 C278.786,343.246 280.504,343.43 281.707,343.532 C282.91,343.647 283.596,343.731 283.596,343.731 C283.596,343.731 282.905,343.763 281.697,343.787 C280.49,343.798 278.763,343.852 276.694,343.848 C272.554,343.858 267.039,343.758 261.528,343.555 C258.773,343.437 256.018,343.323 253.437,343.17 C250.856,343.025 248.447,342.865 246.384,342.702 C244.32,342.55 242.602,342.367 241.399,342.266 C240.196,342.151 239.509,342.067 239.509,342.067"/><path id="Fill-110" fill="#4693C3" d="M310.976,346.61 L187.785,343.731 L66.075,346.61 C65.383,346.61 64.823,347.171 64.823,347.863 L64.823,351.878 C64.823,352.57 65.383,353.131 66.075,353.131 L183.924,350.232 C184.702,351.517 186.467,352.418 188.526,352.418 C190.585,352.418 192.349,351.517 193.128,350.232 L310.976,353.131 C311.668,353.131 312.229,352.57 312.229,351.878 L312.229,347.863 C312.229,347.171 311.668,346.61 310.976,346.61"/><path id="Fill-111" fill="#E6ECEB" d="M218.122,364.269 C218.122,365.777 236.691,367 259.597,367 C282.503,367 301.072,365.777 301.072,364.269 C301.072,362.76 282.503,361.537 259.597,361.537 C236.691,361.537 218.122,362.76 218.122,364.269"/><polygon id="Fill-112" fill="#6BBBDD" points="239.039 363.525 289.64 363.525 289.64 316.867 239.039 316.867"/><polygon id="Fill-113" fill="#4CB2CE" points="283.858 363.525 289.64 363.525 289.64 316.867 283.858 316.867"/><path id="Fill-114" fill="#F0A980" d="M235.146,355.539 C235.146,355.539 235.3,358.217 235.458,359.202 C235.617,360.188 238.782,359.991 239.105,359.445 C239.428,358.899 239.599,354.328 239.599,354.328"/><path id="Fill-115" fill="#343361" d="M263.402,318.254 C258.541,318.17 245.678,320.17 240.773,320.603 C241.027,322.633 242.123,325.401 242.167,328.193 C242.312,337.415 241.05,348.998 239.998,356.409 C239.998,356.409 237.296,357.614 234.969,356.469 C232.775,343.928 229.905,318.669 231.07,313.612 C232.553,307.175 252.192,302.089 264.346,303.035 L263.402,318.254"/><path id="Fill-116" fill="#BFC9D3" d="M263.488,316.867 L263.488,316.867 L264.346,303.035 C264.178,303.022 264.009,303.01 263.838,302.999 C264.009,303.01 264.178,303.022 264.346,303.035 L263.488,316.867"/><path id="Fill-117" fill="#4F93BD" d="M263.402,318.254 C263.396,318.254 263.39,318.254 263.383,318.254 C263.39,318.254 263.396,318.254 263.402,318.254 L263.488,316.867 L263.402,318.254"/><path id="Fill-118" fill="#262950" d="M242.408,320.435 C242.867,318.99 242.946,317.422 242.984,315.888 C243.031,314.021 241.99,312.26 240.605,311.008 C239.386,309.904 237.914,309.134 236.431,308.412 C242.645,305.134 253.011,302.921 261.264,302.921 C262.148,302.921 263.01,302.947 263.838,302.999 C264.009,303.01 264.178,303.022 264.346,303.035 L263.402,318.254 C263.396,318.254 263.39,318.254 263.383,318.254 C263.288,318.253 263.19,318.252 263.089,318.252 C258.508,318.252 247.959,319.816 242.408,320.435"/><path id="Fill-119" fill="#F0A980" d="M248.671,354.741 C248.671,354.741 248.849,358.425 249.044,359.404 C249.239,360.383 252.395,360.068 252.698,359.51 C253.001,358.953 253.224,354.176 253.224,354.176"/><path id="Fill-120" fill="#343361" d="M282.435,303.67851 C283.707,306.638 284.438,312.156 283.276,314.57 C282.278,316.642 281.545,317.342 279.708,318.161 C273.574,320.898 264.476,320.336 255.273,319.775 C259.072,330.04 254.622,349.204 253.623,356.457 C250.174,357.988 248.223,356.359 248.223,356.359 C247.081,341.692 243.059,314.559 245.619,310.025 C247.175,307.269 265.746,303.63 266.115,303.67851"/><path id="Fill-121" fill="#F3B897" d="M257.542,281.897 C256.491,281.556 253.799,277.843 252.954,278.024 C252.203,279.042 251.311,285.588 251.311,285.588 C251.026,287.448 239.662,304.539 239.662,304.539 C239.662,304.539 239.833,306 240.915,306.814 C242.077,307.687 243.364,308.09 243.364,308.09 C243.364,308.09 255.667,294.539 258.515,289.789 C258.658,288.838 259.938,282.674 257.542,281.897"/><path id="Fill-122" fill="#CFEBF3" d="M265.348,271.671 C265.348,271.671 263.134,276.825 260.815,281.897 C260.23,281.475 259.386,281.171 258.238,281.053 C253.94,280.608 251.89,279.976 251,279.601 C252.112,275.103 253.378,269.938 253.612,268.872 C254.631,264.304 256.728,262.442 256.728,262.442 L265.348,271.671"/><path id="Fill-123" fill="#CFEBF3" d="M282.532,303.822 C277.518,304.457 268.311,304.229 262.052,304.457 C256.448,304.661 255.328,305.74 255.328,305.74 C255.54,297.733 256.717,291.981 256.304,286.028 C255.606,275.974 254.714,264.685 256.708,262.443 C260.619,259.454 268.528,258.211 276.687,260.749 C282.816,262.651 284.754,264.448 284.382,269.055 C284.274,270.401 280.981,289.845 281.815,299.561 C281.878,300.299 282.173,300.979 282.564,301.608 C283.19,302.614 283.096,303.439 282.532,303.822"/><polyline id="Fill-124" fill="#378CC0" points="273.23 303.889 243.51 304.324 261.355 310.51 273.23 303.889"/><polyline id="Fill-125" fill="#6BBBDD" points="261.308 311.211 273.23 304.907 273.23 303.889 261.168 310.195 261.308 311.211"/><path id="Fill-126" fill="#F3B897" d="M259.604,300.716 L257.1,301.873 C257.1,301.873 254.836,300.063 252.348,301.687 C249.859,303.311 252.358,308.563 254.146,308.178 C255.933,307.794 261.307,304.364 261.307,304.364 L259.604,300.716"/><path id="Fill-127" fill="#92CDD8" d="M258.391,300.626 C258.391,300.626 265.383,296.479 270.326,292.708 C265.512,296.386 258.59,301.27 258.238,301.528 C258.297,301.024 258.391,300.626 258.391,300.626"/><path id="Fill-128" fill="#CFEBF3" d="M286.584,280.966 C282.649,281.516 278.595,281.464 276.792,281.311 C276.639,280.058 276.487,278.746 276.347,277.223 C276.124,274.963 275.55,272.023 275.866,269.786 C276.276,266.752 277.424,261.891 281.09,262.5 C287.638,263.578 286.584,280.849 286.584,280.966"/><path id="Fill-129" fill="#F3B897" d="M285.858,281.053 C285.717,284.52 285.939,290.131 283.866,292.954 C280.645,297.37 259.543,304.963 259.543,304.963 C259.543,304.963 258.683,305.311 258.192,303.121 C258.004,302.254 258.224,301.528 258.224,301.528 C258.224,301.528 265.383,296.479 270.326,292.708 C272.575,290.998 275.035,289.37 277.6,288.245 C277.331,285.528 277.061,283.513 276.792,281.311 C278.595,281.464 281.922,281.604 285.858,281.053"/><path id="Fill-130" fill="#F0A980" d="M258.192,303.121 C258.039,302.406 258.156,301.785 258.215,301.598 C258.145,302.102 258.098,302.699 258.192,303.121"/><path id="Fill-131" fill="#4693C3" d="M261.308,311.211 L233.796,309.339 C232.876,309.276 232.127,308.577 232.002,307.664 L229.387,288.593 C229.247,287.569 230.082,286.674 231.113,286.744 L256.881,288.498 C257.653,288.55 258.281,289.137 258.386,289.903 L261.308,311.211"/><path id="Fill-132" fill="#1C1D40" d="M258.128,244.104 C258.128,244.104 256.923,247.53 258.913,248.736 C258.913,248.736 258.359,250.465 260.381,250.792 C262.404,251.118 260.577,244.515 260.577,244.515"/><path id="Fill-133" fill="#F3B897" d="M265.565,256.431 C265.565,256.431 265.517,257.265 265.452,258.007 C265.307,258.651 265.228,259.223 265.197,259.553 C265.159,259.959 265.272,261.242 265.462,261.578 C265.71,262.017 266.263,261.522 266.777,261.662 C271.716,263.013 272.408,259.876 272.408,259.876 C271.92,258.014 272.828,253.284 272.828,253.284"/><path id="Fill-134" fill="#F3B897" d="M260.358,252.299 C260.736,253.847 261.467,255.371 262.729,256.344 C264.064,257.373 265.872,257.667 267.531,257.367 C270.451,256.84 272.948,254.456 273.609,251.564 C274.27,248.672 273.058,245.439 270.658,243.696 C268.437,242.082 262.891,240.821 260.512,242.47 C258.09,244.149 259.747,249.803 260.358,252.299"/><path id="Fill-135" fill="#F1AD8C" d="M273.606,251.564 C272.951,254.46 270.448,256.842 267.533,257.367 C266.044,257.635 264.435,257.424 263.15,256.634 C264.076,256.768 265.255,256.93 266.034,256.786 C268.948,256.26 271.582,253.908 272.237,251.012 C272.904,248.122 271.061,244.706 268.656,242.956 C268.407,242.777 268.145,242.611 267.861,242.47 C268.911,242.714 269.884,243.138 270.654,243.697 C273.056,245.438 274.272,248.673 273.606,251.564"/><path id="Fill-136" fill="#1C1D40" d="M256.736,242.358 C256.986,244.327 258.831,245.845 260.734,246.105 C262.678,246.372 266.453,246.364 267.746,244.887 C267.789,246.829 271.306,250.522 273.086,251.101 C272.993,252.391 272.828,253.151 272.655,254.293 C273.55,254.733 274.893,253.514 275.406,252.658 C275.919,251.802 277.835,246.483 277.344,244.104 C276.852,241.726 275.817,239.715 273.391,239.842 C273.206,237.813 271.653,235.981 269.681,235.465 C267.711,234.95 265.459,235.788 264.304,237.466 C264.403,237.322 262.932,237.035 262.819,237.016 C262.216,236.913 261.593,236.891 260.995,237.036 C259.868,237.309 258.851,237.964 258.069,238.812 C257.363,239.578 256.825,240.549 256.724,241.599 C256.699,241.857 256.704,242.11 256.736,242.358"/><path id="Fill-137" fill="#F3B897" d="M270.245,247.666 C270.261,247.451 270.36,247.252 270.524,247.114 C270.885,246.81 271.962,246.281 272.699,247.341 C273.347,248.274 273.141,252.164 271.503,250.977 C270.21,250.04 270.194,248.341 270.245,247.666"/><path id="Fill-138" fill="#B6E0ED" d="M272.276,257.792 C272.276,257.792 273.104,258.699 273.852,260.013 C273.852,260.013 272.429,261.228 271.423,261.833 C269.172,263.187 266.566,264.317 266.566,264.317 L265.462,261.578 C265.462,261.578 270.152,259.053 272.276,257.792"/><path id="Fill-139" fill="#B6E0ED" d="M265.462,261.578 C264.692,262.196 264.175,262.817 263.391,263.79 C263.391,263.79 262.876,261.929 263.457,260.055 C263.457,260.055 264.604,258.285 265.452,258.007 C265.452,258.007 265.132,260.502 265.462,261.578"/><path id="Fill-140" fill="#92CDD8" d="M275.355,272.07 C275.461,273.609 275.53,275.146 275.608,276.681 C275.708,278.211 275.729,279.758 275.932,281.256 L275.677,281.008 C276.516,281.074 277.366,281.151 278.213,281.188 C279.061,281.234 279.91,281.242 280.759,281.26 C282.458,281.287 284.156,281.229 285.858,281.053 C284.197,281.482 282.478,281.652 280.765,281.727 C279.907,281.764 279.049,281.749 278.192,281.729 C277.334,281.699 276.479,281.675 275.618,281.579 L275.386,281.553 L275.363,281.331 C275.205,279.771 275.161,278.235 275.176,276.691 C275.186,275.149 275.234,273.608 275.355,272.07"/><path id="Fill-141" fill="#92CDD8" d="M255.736,270.117 C255.736,270.117 255.762,271.094 255.802,272.558 C255.819,273.288 255.839,274.139 255.86,275.052 C255.874,275.964 255.899,276.936 255.944,277.907 C255.963,278.879 255.992,279.851 256.044,280.76 C256.091,281.67 256.114,282.522 256.165,283.25 C256.248,284.712 256.304,285.686 256.304,285.686 C256.304,285.686 256.25,285.447 256.157,285.029 C256.07,284.61 255.939,284.011 255.837,283.284 C255.738,282.558 255.604,281.709 255.537,280.794 C255.46,279.88 255.402,278.903 255.359,277.925 C255.34,276.947 255.342,275.969 255.353,275.052 C255.366,274.135 255.429,273.281 255.474,272.549 C255.58,271.086 255.736,270.117 255.736,270.117"/><path id="Fill-142" fill="#192A3D" d="M239.903,360.816 C239.921,361.845 239.9,363.142 239.635,363.569 C239.369,363.996 235.342,364.324 234.485,364.537 C233.848,364.695 232.532,364.769 231.888,364.682 C229.636,364.376 228.12,363.462 228.063,363.071 C227.826,361.434 232.339,361.872 235.381,358.468 C235.381,358.468 235.711,358.535 235.939,358.981 C236.287,359.667 236.966,359.979 237.656,359.813 C238.051,359.718 238.99,359.119 239.271,358.767 C239.271,358.767 239.885,359.788 239.903,360.816"/><path id="Fill-143" fill="#192A3D" d="M253.496,360.816 C253.514,361.845 253.493,363.142 253.228,363.569 C252.962,363.996 248.935,364.324 248.078,364.537 C247.441,364.695 246.125,364.769 245.481,364.682 C243.229,364.376 241.713,363.462 241.656,363.071 C241.419,361.434 245.932,361.872 248.974,358.468 C248.974,358.468 249.304,358.535 249.532,358.981 C249.88,359.667 250.559,359.979 251.249,359.813 C251.644,359.718 252.583,359.119 252.864,358.767 C252.864,358.767 253.478,359.788 253.496,360.816"/><path id="Fill-144" fill="#E6ECEB" d="M102.32,362.521 C102.32,363.99 90.5,365.18 75.919,365.18 C61.338,365.18 49.518,363.99 49.518,362.521 C49.518,361.053 61.338,359.862 75.919,359.862 C90.5,359.862 102.32,361.053 102.32,362.521"/><path id="Fill-145" fill="#5EBFE1" d="M87.908,226.353 L82.473,250.228 C82.325,250.879 82.764,251.517 83.425,251.612 L100.343,254.042 C100.932,254.126 101.487,253.745 101.619,253.164 L107.055,229.29 C107.203,228.639 106.764,228 106.103,227.905 L89.185,225.476 C88.596,225.391 88.04,225.773 87.908,226.353"/><polyline id="Fill-146" fill="#E8F5F9" points="88.967 227.123 83.763 249.982 100.561 252.394 105.765 229.535 88.967 227.123"/><path id="Fill-147" fill="#A0CCE2" d="M104.028,230.926 L89.752,228.877 C89.591,228.853 89.44,228.966 89.417,229.128 C89.394,229.289 89.506,229.439 89.668,229.463 L103.943,231.512 C104.105,231.536 104.255,231.423 104.279,231.261 C104.302,231.1 104.189,230.95 104.028,230.926"/><path id="Fill-148" fill="#A0CCE2" d="M103.547,233.087 L89.272,231.037 C89.11,231.014 88.96,231.126 88.937,231.288 C88.913,231.45 89.026,231.6 89.188,231.623 L103.463,233.673 C103.625,233.696 103.775,233.584 103.798,233.422 C103.821,233.26 103.709,233.11 103.547,233.087"/><path id="Fill-149" fill="#A0CCE2" d="M97.604,234.878 L88.683,233.597 C88.521,233.574 88.371,233.686 88.348,233.848 C88.325,234.01 88.437,234.16 88.599,234.183 L97.52,235.464 C97.681,235.487 97.831,235.375 97.855,235.213 C97.878,235.051 97.766,234.901 97.604,234.878"/><path id="Fill-150" fill="#A0CCE2" d="M96.97,236.735 L88.049,235.454 C87.887,235.431 87.737,235.543 87.714,235.705 C87.691,235.867 87.803,236.017 87.965,236.04 L96.886,237.321 C97.047,237.344 97.197,237.232 97.221,237.07 C97.244,236.908 97.132,236.758 96.97,236.735"/><path id="Fill-151" fill="#A0CCE2" d="M96.336,238.592 L87.415,237.311 C87.253,237.288 87.103,237.4 87.08,237.562 C87.056,237.724 87.169,237.874 87.331,237.897 L96.252,239.178 C96.413,239.202 96.563,239.089 96.587,238.927 C96.61,238.766 96.497,238.616 96.336,238.592"/><path id="Fill-152" fill="#A0CCE2" d="M99.607,248.855 L90.686,247.574 C90.524,247.551 90.374,247.663 90.351,247.825 C90.328,247.987 90.44,248.137 90.602,248.16 L99.523,249.441 C99.685,249.465 99.835,249.352 99.858,249.19 C99.881,249.029 99.769,248.878 99.607,248.855"/><path id="Fill-153" fill="#E99B7B" d="M81.398,250.513 C82.356,250.062 83.068,249.227 83.749,248.415 C84.421,247.615 85.094,246.815 85.766,246.015 C86.031,245.699 86.309,245.354 86.339,244.943 C85.212,244.851 84.486,246.315 83.359,246.402 C83.884,244.546 84.638,242.755 85.598,241.083 C85.832,240.675 86.087,240.199 85.921,239.759 C84.702,240.224 83.677,241.09 82.79,242.045 C82.166,242.716 81.598,243.439 81.093,244.204 C79.606,246.454 78.684,249.038 78.057,251.662"/><path id="Fill-154" fill="#F3B897" d="M76.549,269.744 L64.468,259.552 C64.468,259.552 58.847,267.177 60.964,274.533 C62.006,278.15 63.313,279.944 63.881,281.66 C64.411,283.263 68.047,305.961 67.776,307.62 C67.504,309.28 65.552,313.923 64.807,318.805 C63.911,324.678 64.063,343.812 63.368,348.885 C62.673,353.958 67.358,354.817 67.616,353.1 C69.818,338.43 75.634,315.57 76.448,308.236 C77.261,300.902 76.931,287.472 76.549,269.744"/><path id="Fill-155" fill="#E99B7B" d="M76.583,284.199 L71.33,296.254 C73.545,299.996 74.825,304.412 74.995,308.889 C75.083,311.215 74.878,313.545 74.942,315.872 C74.947,316.037 74.971,316.214 75.013,316.378 C75.717,312.929 76.242,310.087 76.448,308.236 C77.023,303.055 77.025,294.819 76.843,284.186 L76.583,284.199"/><path id="Fill-156" fill="#F3B897" d="M68.429,348.389 C68.429,348.389 67.305,353.712 67.607,354.39 C67.91,355.069 68.998,357.041 70.113,357.753 C71.282,358.501 73.872,359.39 74.079,359.714 C74.287,360.039 74.3,360.511 73.931,360.801 C72.976,361.551 71.321,361.916 70.238,361.738 C66.726,361.158 66.363,359.605 64.317,359.357 C63.964,359.314 63.31,359.836 62.333,359.336 C61.356,358.836 60.881,357.933 60.965,357.083 C61.11,355.616 61.933,354.408 62.519,353.323 C63.106,352.239 63.518,347.277 63.518,347.277"/><path id="Fill-157" fill="#2A2A5F" d="M74.204,361.058 C74.46,360.62 74.525,359.957 74.287,359.795 C73.957,359.571 72.782,358.793 72.101,358.48 C71.42,358.166 70.34,357.89 70.72,358.095 C71.101,358.301 70.4,359.069 69.763,359.03 C67.562,358.895 65.939,357.432 64.685,357.119 C62.875,356.667 62.117,354.53 62.038,354.184 C61.696,354.401 60.9,356.121 60.738,356.662 C60.593,357.151 60.331,358.045 60.47,358.554 C60.566,358.906 60.779,359.614 60.671,360.358 C60.671,360.358 61.027,360.632 61.972,360.827 C62.57,360.951 63.372,360.848 63.372,360.848 L63.528,359.711 C63.528,359.711 64.021,359.692 64.647,359.821 C65.274,359.951 66.297,360.547 66.358,360.62 C66.609,360.919 66.81,361.466 67.142,361.634 C68.022,362.077 68.909,362.289 70.029,362.354 C72.389,362.492 73.767,361.806 74.204,361.058"/><path id="Fill-158" fill="#F3B897" d="M93.043,360.837 C92.784,360.55 89.986,360.094 88.673,359.546 C87.422,359.024 85.908,357.344 85.613,356.631 C85.318,355.918 85.386,352.307 85.423,350.79 C85.685,340.344 87.615,314.818 87.895,308.705 C88.38,298.08 87.001,287.113 82.913,270.055 L67.691,258.373 C67.691,258.373 63.428,266.298 64.855,273.876 C65.683,278.272 69.33,278.949 69.946,280.657 C70.563,282.366 79.773,309.915 79.773,309.915 C79.773,309.915 77.981,315.87 77.877,322.395 C77.788,327.965 80.314,344.767 80.782,351.168 C80.838,352.419 81.053,355.413 80.684,356.366 C80.233,357.534 79.082,358.906 79.139,360.379 C79.173,361.233 79.79,362.049 80.869,362.383 C81.948,362.718 82.549,362.094 82.92,362.079 C85.066,361.99 85.66,363.465001 89.365,363.465001 C90.508,363.465001 92.165,362.833 93.043,361.936 C93.383,361.588 93.303,361.123 93.043,360.837"/><path id="Fill-159" fill="#2A2A5F" d="M93.362,362.144 C93.564,361.669 93.538,361.004 93.269,360.883 C92.897,360.715 91.575,360.138 90.827,359.939 C90.08,359.741 88.927,359.644 89.348,359.785 C89.77,359.926 89.156,360.8 88.493,360.866 C86.202,361.093 84.321,359.912 82.983,359.807 C81.052,359.656 80.343,357.667 80.212,357.338 C79.89,357.609 78.936,359.439 78.846,360.001 C78.764,360.508 78.621,361.434 78.836,361.915 C78.985,362.247 79.305,362.913 79.299,363.666 C79.299,363.666 79.705,363.878 80.707,363.917 C81.342,363.941 82.156,363.708 82.156,363.708 L82.156,362.559 C82.156,362.559 82.661,362.459 83.326,362.485 C83.991,362.51 84.812,362.85 85.213,363.152 C85.528,363.389 85.859,363.788 86.231,363.881 C87.302,364.15 88.072,364.227 89.238,364.109 C91.692,363.859 93.016,362.956 93.362,362.144"/><path id="Fill-160" fill="#2D5696" d="M64.787,258.27 C63.754,259.405 60.072,265.54 60.033,270.533 C59.994,275.526 61.77,278.729 61.93,279.771 C63.097,287.399 64.226,296.599 64.226,297.098 C64.226,297.597 68.557,300.486 74.38,300.119 C85.139,299.442 89.323,296.624 89.323,296.624 C89.323,296.624 88.813,278.146 87.154,269.035 C86.323,264.469 82.704,257.12 82.704,257.12"/><path id="Fill-161" fill="#F3B897" d="M54.97,238.318 C54.97,238.318 56.703,246.928 57.158,248.461 C57.613,249.993 59.861,259.721 61.992,259.552 C64.123,259.383 75.793,249.64 75.793,249.64 L74.14,246.334 L63.867,251.231 C63.867,251.231 62.939,240.11 62.125,237.461"/><path id="Fill-162" fill="#E99B7B" d="M58.942,243.619 C60.029,247.462 62.259,251.514 62.925,254.494 C63.059,255.093 70.172,252.506 70.188,249.835"/><path id="Fill-163" fill="#CFEBF3" d="M61.93,226.384 C61.93,226.384 58.523,226.747 56.796,228.068 C52.391,231.438 55.8,243.671 55.8,243.671 C55.8,243.671 55.583,244.324 58.54,244.158 C61.496,243.992 63.867,243.151 63.867,243.151 L63.013,233.128"/><path id="Fill-164" fill="#B0D5E4" d="M58.03,233.309 C58.03,233.309 57.657,240.501 58.959,244.13 C60.246,244.104 61.371,243.813 61.371,243.813 L58.03,233.309"/><path id="Fill-165" fill="#F3B897" d="M78.21,203.815 C80.263,206.476 79.857,210.219 79.35,213.542 C79.094,215.222 78.839,216.902 78.583,218.582 C78.461,219.38 78.299,220.252 77.677,220.767 C77.05,221.286 76.154,221.277 75.341,221.242 C75.349,222.633 75.357,224.023 75.365,225.413 C72.987,225.471 70.607,225.48 68.228,225.442 C68.227,224.468 68.015,223.496 67.611,222.61 C66.447,222.587 65.67,221.42 65.214,220.349 C64.689,219.114 64.306,217.823 63.936,216.533 C63.446,214.82 62.973,213.081 62.928,211.3 C62.883,209.519 63.307,207.667 64.438,206.291 C65.209,205.353 66.26,204.687 67.337,204.125 C68.813,203.355 70.585,202.747 72.107,203.421"/><path id="Fill-166" fill="#2A2A5F" d="M75.749,216.493 C75.468,215.095 75.487,214.307 75.945,213.376 C76.097,213.067 76.297,212.776 76.57,212.585 C76.94,212.325 77.432,212.274 77.842,212.453 C78.109,212.569 78.329,212.787 78.481,213.048 C78.966,211.171 79.067,209.17 78.927,207.22 C78.705,204.128 76.841,201.738 74.12,200.62 C69.081,198.55 61.841,200.595 59.795,205.541 C58.249,209.277 59.033,214.669 61.992,217.801 C64.611,220.573 68.379,220.98 71.857,220.409 C73.636,220.117 76.382,220.292 77.303,217.872 C77.374,217.686 77.214,217.5 77.025,217.514 C76.303,217.569 75.801,216.752 75.749,216.493"/><path id="Fill-167" fill="#2A2A5F" d="M76.136,209.916 C76.323,210.21 76.279,210.604 76.454,210.904 C76.75,211.409 77.142,211.591 77.673,211.837 C78.528,212.233 78.327,213.479 78.303,214.035 C78.948,213.607 79.053,212.439 79.209,211.846 C79.384,211.18 79.496,210.496 79.69,209.836 C79.878,209.193 80.205,208.587 80.266,207.911 C80.475,205.574 79.009,202.828 77.237,201.517 C75.948,200.562 73.979,200.602 72.522,201.573 C71.909,201.982 71.447,202.599 71.176,203.285 C71.059,203.579 70.979,203.922 71.124,204.203"/><path id="Fill-168" fill="#B6E0ED" d="M64.685,226.415 C64.806,225.601 65.026,224.651 65.784,224.33 C65.995,224.241 66.226,224.213 66.453,224.188 C68.774,223.931 71.111,223.82 73.445,223.858 C74.411,223.873 75.41,223.922 76.274,224.354 C77.629,225.031 78.374,226.492 79.029,227.858"/><path id="Fill-169" fill="#CFEBF3" d="M84.344,256.269 C84.02,255.789 83.271,255.215 83.002,254.687 C82.357,253.42 81.793,248.083 82.015,246.719 C82.253,245.258 83.546,244.471 84.13,241.219 C84.882,237.028 83.163,233.772 82.203,232.377 C80.845,230.404 81.65,230.415 81.186,227.999 C81.102,227.563 81.004,227.099 80.706,226.795 C80.413,226.496 78.389,225.571 77.992,225.51 C74.218,224.925 72,225.381 68.185,225.548 C66.297,225.631 64.413,225.851 62.56,226.26 C60.509,226.712 58.723,227.256 58.301,230.039 C57.649,234.344 58.197,238.695 59.505,242.777 C60.373,245.483 65.551,254.845 64.268,256.656 C63.975,257.07 63.241,257.857 63.152,258.373 C62.827,260.265 67.102,260.93 68.932,261.081 C71.719,261.31 74.918,261.156 77.712,261.025 C79.829,260.927 84.459,260.188 84.788,257.572 C84.852,257.059 84.598,256.645 84.344,256.269"/><path id="Fill-170" fill="#B0D5E4" d="M83.5390018,242.028 C83.54,242.789 83.114,243.81 82.977,244.211 C82.446,244.484 80.341,244.937 79.132,244.385 C78.867,241.869 77.394,237.028 77.394,237.028 C77.394,237.028 83.5390018,241.324 83.5390018,242.028"/><path id="Fill-171" fill="#2A2A5F" d="M65.924,218.676 C64.472,218.265 62.908,219.082 61.94,220.241 C60.822,221.579 60.339,223.658 61.383,225.054 C61.773,225.575 62.329,225.945 62.898,226.261 C64.627,227.224 66.678,227.792 68.6,227.32 C70.523,226.848 72.21,225.127 72.188,223.148 C72.167,221.356 70.859,219.861 69.536,218.652"/><path id="Fill-172" fill="#F3B897" d="M80.836,240.274 C80.836,240.274 87.807,257.12 90.831,257.12 C93.031,257.12 98.426,241.569 98.426,241.569 L95.017,239.955 L91.216,246.468 L87.367,234.321"/><path id="Fill-173" fill="#F3B897" d="M94.341,241.114 C94.341,241.114 95.471,239.335 95.388,238.073 C95.357,237.592 95.071,235.302 95.31,234.851 C95.549,234.401 96.122,232.927 96.449,232.641 C96.777,232.354 97.987,231.894 98.284,232.098 C98.58,232.303 98.948,231.362 99.439,231.443 C99.931,231.525 100.34,231.935 100.34,232.385 C100.34,232.835 100.995,232.917 101.077,233.245 C101.159,233.572 101.118,233.858 101.24,234.104 C101.363,234.35 101.725,234.228 101.855,234.841 C101.973,235.402 101.814,235.455 101.855,235.741 C101.895,236.028 102.141,236.001 102.059,236.547 C101.977,237.092 101.604,237.801 101.276,238.414 C100.949,239.029 100.272,239.797 99.375,240.34 C98.932,240.608 98.689,241.076 98.266,241.871"/><path id="Fill-174" fill="#2A2A5F" d="M96.214,228.097 C96.128,227.963 95.891,227.739 95.612,227.935 C95.334,228.13 95.418,228.468 95.479,228.603 C95.539,228.739 97.54,233.268 97.54,233.268 C97.54,233.268 97.707,233.459 98.025,233.178 C98.372,232.874 98.261,232.721 98.261,232.721 C98.261,232.721 96.3,228.231 96.214,228.097"/><path id="Fill-175" fill="#E99B7B" d="M98.385,232.422 C97.993,233.122 97.538,233.346 97.129,233.732 C96.809,234.034 96.848,234.228 96.494,234.538 C97.114,234.491 97.008,234.125 97.812,233.546 C98.184,233.278 98.569,232.987 98.642,232.53 C98.667,232.373 98.48,232.288 98.385,232.422"/><path id="Fill-176" fill="#CFEBF3" d="M74.424,225.25 C76.24,225.345 81.525,224.417 84.462,227.489 C86.922,230.063 88.332,236.81 89.323,239.546 C86.858,242.059 84.483,244.085 80.748,243.269 C80.608,243.164 78.755,237.333 77.405,236.814"/><path id="Fill-177" fill="#254D85" d="M76.441,299.957 C75.755,295.524 71.51,281.782 71.33,281.404 C69.017,279.612 67.492,277.761 66.723,276.267 C66.201,279.28 67.574,282.259 68.862,285.031 C71.111,289.875 72.443,295.142 74.38,300.119"/><path id="Fill-178" fill="#DFEDF4" d="M45.201,221.496 L3.37,221.496 C1.544,221.496 0.064,220.016 0.064,218.19 L0.064,202.261 C0.064,200.435 1.544,198.955 3.37,198.955 L45.201,198.955 C47.027,198.955 48.508,200.435 48.508,202.261 L48.508,218.19 C48.508,220.016 47.027,221.496 45.201,221.496"/><path id="Fill-179" fill="#FFFFFE" d="M42.057,210.447 L20.648,210.524003 C20.291,210.525 20.001,210.236 20,209.879 C20,209.523 20.288,209.233 20.645,209.232 L42.054,209.154997 C42.411,209.154 42.7010026,209.443 42.7010026,209.799 C42.702,210.156 42.413,210.446 42.057,210.447"/><path id="Fill-180" fill="#FFFFFE" d="M42.057,207.228 L20.648,207.306 C20.291,207.306 20.001,207.018 20,206.661 C20,206.304 20.288,206.014 20.645,206.013 L42.054,205.936 C42.411,205.936 42.7010026,206.224 42.7010026,206.581 C42.702,206.938 42.413,207.228 42.057,207.228"/><path id="Fill-181" fill="#FFFFFE" d="M42.057,204.303 L20.648,204.380003 C20.291,204.381 20.001,204.093 20,203.736 C20,203.379 20.288,203.089 20.645,203.088 L42.054,203.010997 C42.411,203.01 42.7010026,203.299 42.7010026,203.656 C42.702,204.013 42.413,204.303 42.057,204.303"/><path id="Fill-182" fill="#FFFFFE" d="M36.969,213.294 L20.654,213.353003 C20.297,213.354 20.0069974,213.065 20.0069974,212.708 C20.006,212.352 20.295,212.061 20.652,212.061 L36.966,212.001997 C37.323,212.001 37.613,212.29 37.6140026,212.646 C37.615,213.003 37.326,213.293 36.969,213.294"/><path id="Fill-183" fill="#FFFFFE" d="M3.956,211.716 L15.736,211.716 L15.736,204.042 L3.956,204.042 L3.956,211.716 Z M16.193,212.628 L3.5,212.628 C3.249,212.628 3.044,212.424 3.044,212.172 L3.044,203.586 C3.044,203.334 3.249,203.13 3.5,203.13 L16.193,203.13 C16.445,203.13 16.649,203.334 16.649,203.586 L16.649,212.172 C16.649,212.424 16.445,212.628 16.193,212.628 L16.193,212.628 Z"/><path id="Fill-184" fill="#FFFFFE" d="M13.874,215.53 L5.475,215.53 C5.286,215.53 5.133,215.377 5.133,215.188 C5.133,214.999 5.286,214.846 5.475,214.846 L13.874,214.846 C14.063,214.846 14.216,214.999 14.216,215.188 C14.216,215.377 14.063,215.53 13.874,215.53"/><path id="Fill-185" fill="#FFFFFE" d="M12.48,213.322 L11.235,213.322 L13.353,218.138 C13.447,218.351 13.656,218.478 13.875,218.478 L14.103,218.43 C14.391,218.303 14.522,217.967 14.396,217.679 L12.48,213.322"/><path id="Fill-186" fill="#FFFFFE" d="M7.204,213.322 L5.288,217.679 C5.161,217.967 5.292,218.303 5.58,218.43 L5.809,218.478 C6.028,218.478 6.237,218.351 6.331,218.138 L8.448,213.322 L7.204,213.322"/><path id="Fill-187" fill="#DFEDF4" d="M394.356,76.858 L352.524,76.858 C350.698,76.858 349.218,75.378 349.218,73.552 L349.218,57.624 C349.218,55.798 350.698,54.318 352.524,54.318 L394.356,54.318 C396.182,54.318 397.662,55.798 397.662,57.624 L397.662,73.552 C397.662,75.378 396.182,76.858 394.356,76.858"/><polyline id="Fill-188" fill="#FFFFFE" points="361.836 67.027 362.863 66.397 363.275 67.068 362.247 67.698 361.836 67.027"/><polyline id="Fill-189" fill="#FFFFFE" points="356.582 60.188 359.078 58.66 358.744 58.115 356.248 59.643 356.582 60.188"/><path id="Fill-190" fill="#FFFFFE" d="M354.887,66.532 C354.432,66.532 354.063,66.163 354.063,65.708 C354.063,65.253 354.432,64.885 354.887,64.885 C355.342,64.885 355.711,65.253 355.711,65.708 C355.711,66.163 355.342,66.532 354.887,66.532 Z M359.046,62.119 C359.258,62.119 359.429,62.291 359.429,62.502 C359.429,62.714 359.258,62.885 359.046,62.885 C358.835,62.885 358.663,62.714 358.663,62.502 C358.663,62.291 358.835,62.119 359.046,62.119 Z M360.039,71.687 L359.829,71.324 L362,69.536 L364.638,69.536 L364.638,68.667 L359.818,68.667 L359.818,69.536 L361.089,69.536 L359.535,70.815 L356.204,65.045 L359.086,63.381 L361.046,66.581 C361.177,66.795 361.457,66.863 361.672,66.731 L362.594,66.166 C362.809,66.035 362.876,65.755 362.745,65.541 L358.936,59.323 L357.238,60.364 L358.254,62.022 L354.332,64.286 L354.145,64.392 C353.448,64.794 353.209,65.685 353.611,66.382 L356.674,71.687 L352.832,71.687 L352.832,73.38 L366.735,73.38 L366.735,71.687 L360.039,71.687 L360.039,71.687 Z"/><path id="Fill-191" fill="#FFFFFE" d="M391.453,65.89 L369.81,65.9680026 C369.449,65.969 369.156,65.677 369.154997,65.317 C369.154,64.956 369.446,64.663 369.807,64.662 L391.45,64.5839974 C391.811,64.583 392.104003,64.875 392.104003,65.236 C392.105,65.597 391.813,65.89 391.453,65.89"/><path id="Fill-192" fill="#FFFFFE" d="M391.453,62.637 L369.81,62.7150026 C369.449,62.716 369.156,62.424 369.154997,62.063 C369.154,61.702 369.446,61.409 369.807,61.409 L391.45,61.3309974 C391.811,61.33 392.104003,61.622 392.104003,61.982 C392.105,62.343 391.813,62.636 391.453,62.637"/><path id="Fill-193" fill="#FFFFFE" d="M391.453,59.68 L369.81,59.758 C369.449,59.758 369.156,59.467 369.154997,59.106 C369.154,58.745 369.446,58.452 369.807,58.451 L391.45,58.373 C391.811,58.373 392.104003,58.664 392.104003,59.025 C392.105,59.386 391.813,59.679 391.453,59.68"/><path id="Fill-194" fill="#FFFFFE" d="M382.524,68.769 L369.816,68.8280026 C369.455,68.829 369.162,68.537 369.160997,68.177 C369.16,67.816 369.452,67.523 369.813,67.522 L382.522,67.462 C382.882,67.462 383.175,67.754 383.176003,68.114 C383.177,68.475 382.885,68.768 382.524,68.769"/><path id="Fill-195" fill="#6BBBDD" d="M386.318,205.738 C386.318,206.812 385.448,207.683 384.374,207.683 C383.3,207.683 382.43,206.812 382.43,205.738 C382.43,204.665 383.3,203.794 384.374,203.794 C385.448,203.794 386.318,204.665 386.318,205.738"/><path id="Fill-196" fill="#6BBBDD" d="M394.049,269.323 C394.049,270.397 393.178,271.267 392.104,271.267 C391.031,271.267 390.16,270.397 390.16,269.323 C390.16,268.249 391.031,267.379 392.104,267.379 C393.178,267.379 394.049,268.249 394.049,269.323"/><path id="Fill-197" fill="#D0EBF2" d="M136.595,8.467 C135.521,8.467 134.651,7.596 134.651,6.523 C134.651,5.449 135.521,4.578 136.595,4.578 C137.669,4.578 138.539,5.449 138.539,6.523 C138.539,7.596 137.669,8.467 136.595,8.467"/><path id="Fill-198" fill="#6BBBDD" d="M42.766,241.97 C42.766,243.683 41.377,245.073 39.663,245.073 C37.949,245.073 36.56,243.683 36.56,241.97 C36.56,240.256 37.949,238.867 39.663,238.867 C41.377,238.867 42.766,240.256 42.766,241.97"/><path id="Fill-199" fill="#D0EBF2" d="M265.19,86.404 C262.554,86.404 260.417,84.267 260.417,81.631 C260.417,78.995 262.554,76.858 265.19,76.858 C267.826,76.858 269.962,78.995 269.962,81.631 C269.962,84.267 267.826,86.404 265.19,86.404"/><path id="Fill-200" fill="#D0EBF2" d="M15.663,282.136 C13.027,282.136 10.89,279.999 10.89,277.364 C10.89,274.728 13.027,272.591 15.663,272.591 C18.299,272.591 20.435,274.728 20.435,277.364 C20.435,279.999 18.299,282.136 15.663,282.136"/><path id="Fill-201" fill="#D0EBF2" d="M39.663,38.153 C37.027,38.153 34.89,36.016 34.89,33.381 C34.89,30.744 37.027,28.608 39.663,28.608 C42.299,28.608 44.436,30.744 44.436,33.381 C44.436,36.016 42.299,38.153 39.663,38.153"/><path id="Fill-202" fill="#D0EBF2" d="M231.797,16.525 C230.083,16.525 228.694,15.136 228.694,13.422 C228.694,11.708 230.083,10.319 231.797,10.319 C233.511,10.319 234.9,11.708 234.9,13.422 C234.9,15.136 233.511,16.525 231.797,16.525"/><path id="Fill-203" fill="#E2F3F8" d="M377.527,114.518 C375.813,114.518 374.424,113.129 374.424,111.415 C374.424,109.702 375.813,108.312 377.527,108.312 C379.241,108.312 380.63,109.702 380.63,111.415 C380.63,113.129 379.241,114.518 377.527,114.518"/><path id="Fill-204" fill="#6BBBDD" d="M11.869,235.36 C11.527,235.36 11.249,235.082 11.249,234.74 L11.249,230.366 C11.249,230.024 11.527,229.746 11.869,229.746 C12.211,229.746 12.489,230.024 12.489,230.366 L12.489,234.74 C12.489,235.082 12.211,235.36 11.869,235.36"/><path id="Fill-205" fill="#6BBBDD" d="M14.057,233.173 L9.682,233.173 C9.34,233.173 9.062,232.895 9.062,232.553 C9.062,232.211 9.34,231.933 9.682,231.933 L14.057,231.933 C14.399,231.933 14.677,232.211 14.677,232.553 C14.677,232.895 14.399,233.173 14.057,233.173"/><path id="Fill-206" fill="#D0EBF2" d="M41.329,157.412 C40.987,157.412 40.709,157.134 40.709,156.792 L40.709,155.225 L41.949,155.225 L41.949,156.792 C41.949,157.134 41.671,157.412 41.329,157.412 M41.949,153.985 L40.709,153.985 L40.709,152.418 C40.709,152.076 40.987,151.798 41.329,151.798 C41.671,151.798 41.949,152.076 41.949,152.418 L41.949,153.985"/><path id="Fill-207" fill="#D0EBF2" d="M43.517,155.225 L39.142,155.225 C38.8,155.225 38.522,154.947 38.522,154.605 C38.522,154.263 38.8,153.985 39.142,153.985 L43.517,153.985 C43.859,153.985 44.137,154.263 44.137,154.605 C44.137,154.947 43.859,155.225 43.517,155.225"/><path id="Fill-208" fill="#6BBBDD" d="M363.324,45.18 C362.982,45.18 362.704,44.902 362.704,44.56 L362.704,40.186 C362.704,39.844 362.982,39.566 363.324,39.566 C363.666,39.566 363.944,39.844 363.944,40.186 L363.944,44.56 C363.944,44.902 363.666,45.18 363.324,45.18"/><path id="Fill-209" fill="#6BBBDD" d="M365.512,42.993 L361.137,42.993 C360.795,42.993 360.517,42.715 360.517,42.372 C360.517,42.031 360.795,41.753 361.137,41.753 L365.512,41.753 C365.854,41.753 366.132,42.031 366.132,42.372 C366.132,42.715 365.854,42.993 365.512,42.993"/><path id="Fill-210" fill="#6BBBDD" d="M6.843,97.974 C6.501,97.974 6.223,97.696 6.223,97.354 L6.223,92.979 C6.223,92.637 6.501,92.359 6.843,92.359 C7.186,92.359 7.463,92.637 7.463,92.979 L7.463,97.354 C7.463,97.696 7.186,97.974 6.843,97.974"/><path id="Fill-211" fill="#6BBBDD" d="M9.031,95.786 L4.656,95.786 C4.314,95.786 4.036,95.509 4.036,95.166 C4.036,94.824 4.314,94.546 4.656,94.546 L9.031,94.546 C9.373,94.546 9.651,94.824 9.651,95.166 C9.651,95.509 9.373,95.786 9.031,95.786"/></g></g></g></svg>