<svg xmlns="http://www.w3.org/2000/svg" xmlns:xlink="http://www.w3.org/1999/xlink" width="1204" height="667" version="1.1" viewBox="0 0 1204 667"><title>6274</title><desc>Created with Sketch.</desc><g id="Page-1" fill="none" fill-rule="evenodd" stroke="none" stroke-width="1"><g id="Desktop-HD-Copy-11" transform="translate(-109.000000, -2132.000000)"><g id="6274" transform="translate(109.000000, 2132.000000)"><path id="Fill-2" fill="#EBF3FA" d="M74.0329893,666.64336 C74.0329893,666.64336 -73.8276933,507.887067 49.0274053,336.013653 C158.032677,183.5152 285.121723,193.939683 378.36688,255.824995 C418.07624,282.182387 532.574187,259.073248 630.031333,103.899819 C762.925707,-107.714459 1223.60488,20.6304507 1139.60853,346.20472 C1098.95883,503.758133 1263.31424,509.486133 1179.57088,666.977493 L74.0329893,666.64336"/><path id="Fill-3" fill="#A8D29F" d="M357.984747,359.732347 C357.984747,359.732347 284.837232,255.612581 256.250693,269.110136 C227.664632,282.607691 357.984747,359.732347 357.984747,359.732347"/><path id="Fill-4" fill="#A8D29F" d="M353.333133,331.75584 C353.333133,331.75584 342.160192,253.466491 324.546115,256.538131 C306.932037,259.609771 353.333133,331.75584 353.333133,331.75584"/><path id="Fill-5" fill="#82B378" d="M291.490781,575.76864 C291.490781,575.76864 298.521901,540.932853 271.216525,536.555707 C271.216525,536.555707 252.696947,535.906533 241.792744,542.88992 C241.792744,542.88992 272.761653,560.770827 269.078549,566.326987 C265.395923,571.883147 236.006987,543.916187 236.006987,543.916187 C236.006987,543.916187 202.808453,558.45576 195.398808,568.990507 C195.398808,568.990507 234.629403,575.978667 229.692344,580.456053 C224.754808,584.938213 183.594355,579.558667 183.594355,579.558667 C183.594355,579.558667 157.070373,600.924107 168.622795,617.931493 C180.174739,634.93888 193.359163,634.814773 197.532488,631.86008 C201.705813,628.905387 222.134248,604.485013 224.731896,607.807253 C227.329544,611.129493 218.339925,631.74552 207.705416,638.41864 C207.705416,638.41864 241.102043,649.664613 251.161365,635.41144 C261.220688,621.16304 256.56812,610.084133 262.944816,601.38712 C269.321035,592.69488 276.634736,588.623227 275.328275,594.58512 C274.021813,600.547013 260.693235,613.081787 260.635477,624.475733 C260.57772,635.86968 259.448349,644.165733 272.46332,634.089227 C285.477813,624.01272 302.766349,600.709307 297.128565,588.24136 C291.490781,575.76864 291.490781,575.76864 291.490781,575.76864"/><path id="Fill-6" fill="#82B378" d="M183.294112,610.36576 C183.294112,610.36576 261.190139,562.82336 291.490781,575.76864 C291.490781,575.76864 301.884715,585.238933 319.773259,589.15784 L324.477856,593.200853 C324.477856,593.200853 302.556323,586.360667 297.128565,588.24136 C297.128565,588.24136 289.089795,555.72064 183.294112,610.36576"/><path id="Fill-7" fill="#82B378" d="M319.773259,589.15784 C319.773259,589.15784 343.921075,592.25096 357.723168,614.165333 L354.777067,616.174907 C354.777067,616.174907 336.275627,595.878693 321.310272,592.260507 C306.345395,588.637547 319.773259,589.15784 319.773259,589.15784"/><path id="Fill-8" fill="#A8D29F" d="M315.334536,474.120507 C315.334536,474.120507 371.899013,442.444667 345.502003,399.456027 C345.502003,399.456027 324.384776,373.059493 301.759176,366.271813 C301.759176,366.271813 313.826163,430.37768 301.759176,431.886053 C289.692189,433.394427 293.462645,359.484133 293.462645,359.484133 C293.462645,359.484133 233.881899,330.82504 210.502112,333.0876 C210.502112,333.0876 247.457736,395.685093 235.390272,394.17672 C223.323285,392.668347 181.843019,329.316667 181.843019,329.316667 C181.843019,329.316667 120.753421,318.00148 110.948995,354.204827 C101.144568,390.405787 116.982488,408.506267 126.032728,410.768827 C135.082968,413.031387 193.155819,412.2772 191.647445,419.819067 C190.139072,427.360933 150.920888,439.42792 129.049475,432.64024 C129.049475,432.64024 153.183925,492.220987 184.859765,489.20424 C216.535605,486.187493 226.340032,466.57864 245.948885,465.070267 C265.557739,463.561893 279.887285,468.8412 270.082859,474.120507 C260.278432,479.399813 227.094219,475.848453 211.256299,489.314027 C195.418379,502.7796 182.597205,511.075653 212.010485,517.109147 C241.423765,523.14264 294.217309,519.371707 304.775923,496.746107 C315.334536,474.120507 315.334536,474.120507 315.334536,474.120507"/><path id="Fill-9" fill="#82B378" d="M138.853901,365.517627 C138.853901,365.517627 297.234056,416.80232 315.334536,474.120507 C315.334536,474.120507 314.580349,499.762853 330.418269,529.176133 L330.418269,540.488933 C330.418269,540.488933 313.826163,502.025413 304.775923,496.746107 C304.775923,496.746107 340.222696,446.969787 138.853901,365.517627"/><path id="Fill-10" fill="#82B378" d="M330.418269,529.176133 C330.418269,529.176133 354.842939,566.264933 340.918648,611.415893 L334.634555,609.726133 C334.634555,609.726133 340.734397,559.997547 327.955707,534.98528 C315.177016,509.973013 330.418269,529.176133 330.418269,529.176133"/><path id="Fill-11" fill="#ED7D2B" d="M372.82504,209.098835 L288.192408,646.628773 C286.471144,655.53104 293.288896,663.79368 302.352501,663.79368 L346.986987,663.79368 L372.82504,209.098835"/><path id="Fill-12" fill="#C7DCFB" d="M935.38624,334.34776 C935.38624,334.34776 897.318907,310.061517 917.390773,281.221992 C917.390773,281.221992 933.128453,263.710064 949.13344,259.893307 C949.13344,259.893307 938.183413,303.988405 946.51288,305.519213 C954.84712,307.049544 955.171707,255.504227 955.171707,255.504227 C955.171707,255.504227 997.74984,237.954112 1013.91712,240.461067 C1013.91712,240.461067 985.72104,282.513656 994.16984,281.946584 C1002.62341,281.379512 1033.99376,238.982765 1033.99376,238.982765 C1033.99376,238.982765 1076.92512,233.554531 1082.29989,259.119072 C1087.66989,284.683613 1075.93704,296.637949 1069.55032,297.849899 C1063.16837,299.061848 1022.81461,296.219328 1023.56403,301.523456 C1024.31344,306.828061 1051.10139,316.784757 1066.58131,312.937928 C1066.58131,312.937928 1047.42115,353.402907 1025.51632,350.04248 C1003.60672,346.682053 997.573227,332.653227 983.997867,330.820267 C970.422507,328.99208 960.24576,332.089973 966.856827,336.15208 C973.46312,340.214187 996.680613,339.07336 1007.15331,349.06872 C1017.63077,359.059307 1026.21323,365.341013 1005.52083,368.362533 C984.828427,371.384053 948.264693,366.65368 941.83024,350.50072 C935.38624,334.34776 935.38624,334.34776 935.38624,334.34776"/><path id="Fill-13" fill="#C7DCFB" d="M1062.44283,265.871429 C1062.44283,265.871429 950.26472,295.2112 935.38624,334.34776 C935.38624,334.34776 934.889813,352.2048 922.703493,372.028453 L922.250027,379.894907 C922.250027,379.894907 935.324187,353.80864 941.83024,350.50072 C941.83024,350.50072 919.166453,314.472555 1062.44283,265.871429"/><path id="Fill-14" fill="#C7DCFB" d="M922.703493,372.028453 C922.703493,372.028453 904.235467,396.845013 912.11624,428.792933 L916.55544,427.87168 C916.55544,427.87168 914.297653,393.050213 924.183227,376.166933 C934.0688,359.283653 922.703493,372.028453 922.703493,372.028453"/><path id="Fill-15" fill="#DFEBFD" d="M832.893227,228.938717 C832.893227,228.938717 774.4008,216.095109 786.219573,171.020523 C786.219573,171.020523 797.809227,142.027773 815.990853,129.964605 C815.990853,129.964605 822.50168,189.866597 833.575813,187.966333 C844.645173,186.066547 821.508827,121.741584 821.508827,121.741584 C821.508827,121.741584 866.497493,80.4417493 887.77224,76.176776 C887.77224,76.176776 871.87704,141.414877 882.139707,136.847752 C892.402373,132.281104 912.092373,65.1637413 912.092373,65.1637413 C912.092373,65.1637413 963.062027,38.7939387 981.429813,68.1676 C999.7976,97.5417387 990.64712,117.785923 983.253227,122.21128 C975.859333,126.636637 924.321653,141.530869 927.677307,147.793483 C931.03296,154.056096 968.933227,154.214571 986.446587,142.353315 C986.446587,142.353315 981.08136,201.488709 952.26952,207.309789 C923.462453,213.131347 909.53864,198.424707 891.800933,202.346 C874.063227,206.266816 862.81248,214.773373 872.89376,216.813019 C882.97504,218.852664 911.35728,206.822909 928.966107,214.481245 C946.574933,222.139581 960.1312,226.037485 935.749013,239.252936 C911.362053,252.467909 863.686,263.281419 848.287227,246.110307 C832.893227,228.938717 832.893227,228.938717 832.893227,228.938717"/><path id="Fill-16" fill="#DFEBFD" d="M959.797067,85.6456373 C959.797067,85.6456373 833.532853,173.420077 832.893227,228.938717 C832.893227,228.938717 840.43032,251.403933 834.310907,281.648728 L837.341973,291.648861 C837.341973,291.648861 841.7048,253.202048 848.287227,246.110307 C848.287227,246.110307 803.618373,211.607221 959.797067,85.6456373"/><path id="Fill-17" fill="#DFEBFD" d="M834.310907,281.648728 C834.310907,281.648728 822.6592,320.980517 847.065253,357.15952 L852.167947,353.985253 C852.167947,353.985253 833.451707,311.659629 838.043653,286.126115 C842.640373,260.5926 834.310907,281.648728 834.310907,281.648728"/><path id="Fill-18" fill="#78ACEA" d="M373.84176,207.328405 L317.745547,636.91504 C315.885379,651.158667 326.974787,663.79368 341.340133,663.79368 L423.6324,663.79368 L377.2356,205.777072 L373.84176,207.328405"/><path id="Fill-19" fill="#699DEE" d="M373.84176,207.328405 L348.729253,634.175147 C347.784133,650.242187 360.558528,663.79368 376.653253,663.79368 L499.3852,663.79368 L373.84176,207.328405"/><path id="Fill-20" fill="#5288D8" d="M372.89664,210.812939 L385.106827,634.175147 C384.161707,650.242187 396.935147,663.79368 413.030827,663.79368 L535.762773,663.79368 L372.89664,210.812939"/><path id="Fill-21" fill="#D7E9FF" d="M960.508293,663.79368 L476.58776,663.79368 C464.506453,663.79368 454.14832,655.15872 451.976453,643.27312 L378.343013,240.585173 C374.996907,222.302352 389.040053,205.459645 407.627413,205.459645 L885.848587,205.459645 C897.929893,205.459645 908.288027,214.093651 910.459893,225.979251 L985.1196,634.270613 C987.931093,649.635973 976.131413,663.79368 960.508293,663.79368"/><path id="Fill-22" fill="#F99746" d="M387.923093,292.882291 L923.032853,292.882291 L909.30952,216.853115 C908.12096,210.257323 902.37864,205.459645 895.67688,205.459645 L377.359707,205.459645 C374.52912,205.459645 372.390667,208.026267 372.89664,210.812939 L387.923093,292.882291"/><path id="Fill-23" fill="#78ACEA" d="M400.434,182.580581 C387.636693,182.580581 377.230827,192.982152 377.230827,205.775163 L381.68912,205.775163 C381.68912,195.439464 390.09496,187.032192 400.434,187.032192 C410.768267,187.032192 419.17888,195.439464 419.17888,205.775163 C419.17888,207.851085 418.844747,209.845384 418.214667,211.708893 C416.376933,217.21732 412.042747,221.592557 406.56296,223.488525 C404.95912,224.044619 403.264587,224.393072 401.498453,224.491403 L401.498453,228.948264 C403.560533,228.855661 405.541467,228.496229 407.426933,227.896699 C414.95448,225.51576 420.830453,219.385845 422.863893,211.708893 C423.365093,209.812925 423.6324,207.823877 423.6324,205.775163 C423.6324,192.982152 413.226533,182.580581 400.434,182.580581"/><path id="Fill-24" fill="#78ACEA" d="M407.60832,226.556347 C407.60832,227.01936 407.541493,227.471872 407.426933,227.896699 C406.839813,230.021309 404.897067,231.579803 402.586773,231.579803 C399.813467,231.579803 397.560453,229.329653 397.560453,226.556347 C397.560453,223.78304 399.813467,221.532413 402.586773,221.532413 C404.204933,221.532413 405.641707,222.30092 406.56296,223.488525 C407.22168,224.338656 407.60832,225.4012 407.60832,226.556347"/><path id="Fill-25" fill="#78ACEA" d="M483.609333,182.580581 C470.8168,182.580581 460.410933,192.982152 460.410933,205.775163 L464.864453,205.775163 C464.864453,195.439464 473.275067,187.032192 483.609333,187.032192 C493.948373,187.032192 502.354213,195.439464 502.354213,205.775163 C502.354213,207.851085 502.015307,209.845384 501.39,211.708893 C499.547493,217.21732 495.21808,221.592557 489.738293,223.488525 C488.139227,224.044619 486.43992,224.393072 484.673787,224.491403 L484.673787,228.948264 C486.731093,228.855661 488.7168,228.496229 490.602267,227.896699 C498.129813,225.51576 504.01056,219.385845 506.044,211.708893 C506.5452,209.812925 506.812507,207.823877 506.812507,205.775163 C506.812507,192.982152 496.401867,182.580581 483.609333,182.580581"/><path id="Fill-26" fill="#78ACEA" d="M490.77888,226.556347 C490.77888,227.01936 490.716827,227.471872 490.602267,227.896699 C490.015147,230.021309 488.0724,231.579803 485.757333,231.579803 C482.984027,231.579803 480.735787,229.329653 480.735787,226.556347 C480.735787,223.78304 482.984027,221.532413 485.757333,221.532413 C487.380267,221.532413 488.821813,222.30092 489.738293,223.488525 C490.39224,224.338656 490.77888,225.4012 490.77888,226.556347"/><path id="Fill-27" fill="#78ACEA" d="M566.78944,182.580581 C553.996907,182.580581 543.59104,192.982152 543.59104,205.775163 L548.039787,205.775163 C548.039787,195.439464 556.445627,187.032192 566.78944,187.032192 C577.123707,187.032192 585.53432,195.439464 585.53432,205.775163 C585.53432,207.851085 585.195413,209.845384 584.565333,211.708893 C582.7276,217.21732 578.393413,221.592557 572.9184,223.488525 C571.31456,224.044619 569.615253,224.393072 567.84912,224.491403 L567.84912,228.948264 C569.906427,228.855661 571.892133,228.496229 573.7776,227.896699 C581.30992,225.510032 587.18112,219.385845 589.21456,211.708893 C589.71576,209.812925 589.983067,207.823877 589.983067,205.775163 C589.983067,192.982152 579.5772,182.580581 566.78944,182.580581"/><path id="Fill-28" fill="#78ACEA" d="M573.958987,226.556347 C573.958987,227.01936 573.89216,227.471872 573.7776,227.896699 C573.19048,230.021309 571.247733,231.579803 568.93744,231.579803 C566.164133,231.579803 563.91112,229.329653 563.91112,226.556347 C563.91112,223.78304 566.164133,221.532413 568.93744,221.532413 C570.5556,221.532413 571.992373,222.30092 572.9184,223.488525 C573.572347,224.338656 573.958987,225.4012 573.958987,226.556347"/><path id="Fill-29" fill="#78ACEA" d="M649.96,182.580581 C637.167467,182.580581 626.766373,192.982152 626.766373,205.775163 L631.219893,205.775163 C631.219893,195.439464 639.625733,187.032192 649.96,187.032192 C660.29904,187.032192 668.709653,195.439464 668.709653,205.775163 C668.709653,207.851085 668.370747,209.845384 667.74544,211.708893 C665.902933,217.21732 661.57352,221.592557 656.093733,223.488525 C654.489893,224.044619 652.79536,224.393072 651.029227,224.491403 L651.029227,228.948264 C653.08176,228.855661 655.07224,228.496229 656.957707,227.896699 C664.490027,225.510032 670.361227,219.385845 672.394667,211.708893 C672.895867,209.812925 673.163173,207.823877 673.163173,205.775163 C673.163173,192.982152 662.757307,182.580581 649.96,182.580581"/><path id="Fill-30" fill="#78ACEA" d="M657.139093,226.556347 C657.139093,227.01936 657.072267,227.471872 656.957707,227.896699 C656.370587,230.021309 654.423067,231.579803 652.112773,231.579803 C649.339467,231.579803 647.091227,229.329653 647.091227,226.556347 C647.091227,223.78304 649.339467,221.532413 652.112773,221.532413 C653.730933,221.532413 655.17248,222.30092 656.093733,223.488525 C656.752453,224.338656 657.139093,225.4012 657.139093,226.556347"/><path id="Fill-31" fill="#78ACEA" d="M733.140107,182.580581 C720.347573,182.580581 709.941707,192.982152 709.941707,205.775163 L714.390453,205.775163 C714.390453,195.439464 722.80584,187.032192 733.140107,187.032192 C743.474373,187.032192 751.884987,195.439464 751.884987,205.775163 C751.884987,207.851085 751.54608,209.845384 750.920773,211.708893 C749.078267,217.21732 744.74408,221.592557 739.264293,223.488525 C737.67,224.044619 735.96592,224.393072 734.20456,224.491403 L734.20456,228.948264 C736.261867,228.855661 738.247573,228.496229 740.128267,227.896699 C747.660587,225.51576 753.541333,219.385845 755.57,211.708893 C756.0712,209.812925 756.338507,207.823877 756.338507,205.775163 C756.338507,192.982152 745.93264,182.580581 733.140107,182.580581"/><path id="Fill-32" fill="#78ACEA" d="M740.309653,226.556347 C740.309653,227.01936 740.242827,227.471872 740.128267,227.896699 C739.541147,230.021309 737.603173,231.579803 735.288107,231.579803 C732.5148,231.579803 730.261787,229.329653 730.261787,226.556347 C730.261787,223.78304 732.5148,221.532413 735.288107,221.532413 C736.91104,221.532413 738.347813,222.30092 739.264293,223.488525 C739.923013,224.338656 740.309653,225.4012 740.309653,226.556347"/><path id="Fill-33" fill="#78ACEA" d="M816.320213,182.580581 C803.522907,182.580581 793.11704,192.982152 793.11704,205.775163 L797.57056,205.775163 C797.57056,195.439464 805.9764,187.032192 816.320213,187.032192 C826.65448,187.032192 835.06032,195.439464 835.06032,205.775163 C835.06032,207.851085 834.721413,209.845384 834.096107,211.708893 C832.2536,217.21732 827.924187,221.592557 822.4444,223.488525 C820.845333,224.044619 819.146027,224.393072 817.379893,224.491403 L817.379893,228.948264 C819.441973,228.855661 821.422907,228.496229 823.308373,227.896699 C830.831147,225.51576 836.711893,219.385845 838.745333,211.708893 C839.246533,209.812925 839.51384,207.823877 839.51384,205.775163 C839.51384,192.982152 829.107973,182.580581 816.320213,182.580581"/><path id="Fill-34" fill="#78ACEA" d="M823.48976,226.556347 C823.48976,227.01936 823.422933,227.471872 823.308373,227.896699 C822.721253,230.021309 820.773733,231.579803 818.46344,231.579803 C815.690133,231.579803 813.441893,229.329653 813.441893,226.556347 C813.441893,223.78304 815.690133,221.532413 818.46344,221.532413 C820.0816,221.532413 821.523147,222.30092 822.4444,223.488525 C823.10312,224.338656 823.48976,225.4012 823.48976,226.556347"/><path id="Fill-35" fill="#78ACEA" d="M899.490773,182.580581 C886.69824,182.580581 876.297147,192.982152 876.297147,205.775163 L880.745893,205.775163 C880.745893,195.439464 889.156507,187.032192 899.490773,187.032192 C909.82504,187.032192 918.240427,195.439464 918.240427,205.775163 C918.240427,207.851085 917.90152,209.845384 917.276213,211.708893 C915.433707,217.21732 911.104293,221.592557 905.619733,223.488525 C904.020667,224.044619 902.326133,224.393072 900.56,224.491403 L900.56,228.948264 C902.617307,228.855661 904.603013,228.496229 906.48848,227.896699 C914.011253,225.51576 919.892,219.385845 921.920667,211.708893 C922.421867,209.812925 922.689173,207.823877 922.689173,205.775163 C922.689173,192.982152 912.283307,182.580581 899.490773,182.580581"/><path id="Fill-36" fill="#78ACEA" d="M906.665093,226.556347 C906.665093,227.01936 906.60304,227.471872 906.48848,227.896699 C905.896587,230.021309 903.95384,231.579803 901.643547,231.579803 C898.87024,231.579803 896.622,229.329653 896.622,226.556347 C896.622,223.78304 898.87024,221.532413 901.643547,221.532413 C903.261707,221.532413 904.69848,222.30092 905.619733,223.488525 C906.278453,224.338656 906.665093,225.4012 906.665093,226.556347"/><path id="Fill-37" fill="#AFCDFB" d="M697.368747,435.709493 L670.318267,435.709493 C667.191733,435.709493 664.141573,433.15576 663.53536,430.024453 L658.318107,402.973973 C657.716667,399.84744 659.778747,397.288933 662.910053,397.288933 L689.960533,397.288933 C693.087067,397.288933 696.137227,399.84744 696.738667,402.973973 L701.960693,430.024453 C702.562133,433.15576 700.49528,435.709493 697.368747,435.709493"/><path id="Fill-38" fill="#AFCDFB" d="M765.627413,435.709493 L738.576933,435.709493 C735.4504,435.709493 732.40024,433.15576 731.7988,430.024453 L726.576773,402.973973 C725.975333,399.84744 728.042187,397.288933 731.16872,397.288933 L758.2192,397.288933 C761.345733,397.288933 764.395893,399.84744 765.002107,402.973973 L770.21936,430.024453 C770.8208,433.15576 768.75872,435.709493 765.627413,435.709493"/><path id="Fill-39" fill="#78ACEA" d="M833.890853,435.709493 L806.840373,435.709493 C803.709067,435.709493 800.658907,433.15576 800.057467,430.024453 L794.840213,402.973973 C794.234,399.84744 796.300853,397.288933 799.427387,397.288933 L826.477867,397.288933 C829.6044,397.288933 832.65456,399.84744 833.260773,402.973973 L838.478027,430.024453 C839.079467,433.15576 837.017387,435.709493 833.890853,435.709493"/><path id="Fill-40" fill="#AFCDFB" d="M492.592747,435.709493 L465.542267,435.709493 C462.415733,435.709493 459.3608,433.15576 458.75936,430.024453 L453.542107,402.973973 C452.935893,399.84744 455.002747,397.288933 458.12928,397.288933 L485.17976,397.288933 C488.306293,397.288933 491.361227,399.84744 491.962667,402.973973 L497.17992,430.024453 C497.786133,433.15576 495.71928,435.709493 492.592747,435.709493"/><path id="Fill-41" fill="#F99746" d="M462.945573,354.500773 L451.317733,354.500773 C449.976427,354.500773 448.66376,353.402907 448.406,352.056827 L446.162533,340.43376 C445.904773,339.08768 446.792613,337.989813 448.13392,337.989813 L459.756987,337.989813 C461.103067,337.989813 462.415733,339.08768 462.673493,340.43376 L464.91696,352.056827 C465.17472,353.402907 464.28688,354.500773 462.945573,354.500773"/><path id="Fill-42" fill="#AFCDFB" d="M560.851413,435.709493 L533.800933,435.709493 C530.6744,435.709493 527.619467,433.15576 527.018027,430.024453 L521.800773,402.973973 C521.199333,399.84744 523.261413,397.288933 526.387947,397.288933 L553.438427,397.288933 C556.56496,397.288933 559.619893,399.84744 560.221333,402.973973 L565.438587,430.024453 C566.0448,433.15576 563.977947,435.709493 560.851413,435.709493"/><path id="Fill-43" fill="#AFCDFB" d="M629.11008,435.709493 L602.0596,435.709493 C598.933067,435.709493 595.882907,433.15576 595.276693,430.024453 L590.05944,402.973973 C589.458,399.84744 591.52008,397.288933 594.646613,397.288933 L621.697093,397.288933 C624.8284,397.288933 627.87856,399.84744 628.48,402.973973 L633.697253,430.024453 C634.303467,433.15576 632.236613,435.709493 629.11008,435.709493"/><path id="Fill-44" fill="#78ACEA" d="M902.14952,435.709493 L875.09904,435.709493 C871.972507,435.709493 868.917573,433.15576 868.316133,430.024453 L863.09888,402.973973 C862.492667,399.84744 864.55952,397.288933 867.686053,397.288933 L894.736533,397.288933 C897.863067,397.288933 900.918,399.84744 901.51944,402.973973 L906.736693,430.024453 C907.342907,433.15576 905.276053,435.709493 902.14952,435.709493"/><path id="Fill-45" fill="#AFCDFB" d="M686.036853,376.959307 L658.986373,376.959307 C655.85984,376.959307 652.804907,374.4008 652.203467,371.274267 L646.986213,344.223787 C646.384773,341.097253 648.446853,338.538747 651.573387,338.538747 L678.623867,338.538747 C681.7504,338.538747 684.805333,341.097253 685.406773,344.223787 L690.624027,371.274267 C691.23024,374.4008 689.163387,376.959307 686.036853,376.959307"/><path id="Fill-46" fill="#AFCDFB" d="M754.29552,376.959307 L727.24504,376.959307 C724.118507,376.959307 721.068347,374.4008 720.462133,371.274267 L715.24488,344.223787 C714.64344,341.097253 716.70552,338.538747 719.832053,338.538747 L746.882533,338.538747 C750.01384,338.538747 753.064,341.097253 753.66544,344.223787 L758.887467,371.274267 C759.488907,374.4008 757.422053,376.959307 754.29552,376.959307"/><path id="Fill-47" fill="#78ACEA" d="M822.554187,376.959307 L795.503707,376.959307 C792.377173,376.959307 789.327013,374.4008 788.725573,371.274267 L783.503547,344.223787 C782.902107,341.097253 784.96896,338.538747 788.095493,338.538747 L815.145973,338.538747 C818.272507,338.538747 821.322667,341.097253 821.92888,344.223787 L827.146133,371.274267 C827.747573,374.4008 825.68072,376.959307 822.554187,376.959307"/><path id="Fill-48" fill="#78ACEA" d="M890.817627,376.959307 L863.767147,376.959307 C860.63584,376.959307 857.58568,374.4008 856.98424,371.274267 L851.762213,344.223787 C851.160773,341.097253 853.227627,338.538747 856.35416,338.538747 L883.40464,338.538747 C886.531173,338.538747 889.581333,341.097253 890.187547,344.223787 L895.4048,371.274267 C896.00624,374.4008 893.94416,376.959307 890.817627,376.959307"/><path id="Fill-49" fill="#AFCDFB" d="M709.383227,497.9824 L682.332747,497.9824 C679.206213,497.9824 676.15128,495.423893 675.54984,492.29736 L670.332587,465.24688 C669.726373,462.120347 671.793227,459.56184 674.91976,459.56184 L701.97024,459.56184 C705.096773,459.56184 708.151707,462.120347 708.753147,465.24688 L713.9704,492.29736 C714.57184,495.423893 712.50976,497.9824 709.383227,497.9824"/><path id="Fill-50" fill="#AFCDFB" d="M777.641893,497.9824 L750.591413,497.9824 C747.46488,497.9824 744.409947,495.423893 743.808507,492.29736 L738.591253,465.24688 C737.98504,462.120347 740.051893,459.56184 743.178427,459.56184 L770.228907,459.56184 C773.35544,459.56184 776.410373,462.120347 777.011813,465.24688 L782.229067,492.29736 C782.83528,495.423893 780.768427,497.9824 777.641893,497.9824"/><path id="Fill-51" fill="#78ACEA" d="M845.90056,497.9824 L818.85008,497.9824 C815.723547,497.9824 812.673387,495.423893 812.067173,492.29736 L806.84992,465.24688 C806.24848,462.120347 808.31056,459.56184 811.437093,459.56184 L838.487573,459.56184 C841.614107,459.56184 844.66904,462.120347 845.27048,465.24688 L850.487733,492.29736 C851.093947,495.423893 849.027093,497.9824 845.90056,497.9824"/><path id="Fill-52" fill="#AFCDFB" d="M504.602453,497.9824 L477.551973,497.9824 C474.42544,497.9824 471.37528,495.423893 470.769067,492.29736 L465.551813,465.24688 C464.950373,462.120347 467.012453,459.56184 470.14376,459.56184 L497.19424,459.56184 C500.320773,459.56184 503.370933,462.120347 503.972373,465.24688 L509.1944,492.29736 C509.79584,495.423893 507.728987,497.9824 504.602453,497.9824"/><path id="Fill-53" fill="#AFCDFB" d="M572.86112,497.9824 L545.81064,497.9824 C542.684107,497.9824 539.633947,495.423893 539.027733,492.29736 L533.81048,465.24688 C533.20904,462.120347 535.275893,459.56184 538.402427,459.56184 L565.452907,459.56184 C568.57944,459.56184 571.6296,462.120347 572.235813,465.24688 L577.453067,492.29736 C578.054507,495.423893 575.992427,497.9824 572.86112,497.9824"/><path id="Fill-54" fill="#AFCDFB" d="M641.12456,497.9824 L614.07408,497.9824 C610.942773,497.9824 607.892613,495.423893 607.291173,492.29736 L602.069147,465.24688 C601.467707,462.120347 603.53456,459.56184 606.661093,459.56184 L633.711573,459.56184 C636.838107,459.56184 639.888267,462.120347 640.49448,465.24688 L645.711733,492.29736 C646.313173,495.423893 644.251093,497.9824 641.12456,497.9824"/><path id="Fill-55" fill="#78ACEA" d="M914.159227,497.9824 L887.108747,497.9824 C883.982213,497.9824 880.932053,495.423893 880.32584,492.29736 L875.108587,465.24688 C874.507147,462.120347 876.569227,459.56184 879.69576,459.56184 L906.751013,459.56184 C909.877547,459.56184 912.927707,462.120347 913.529147,465.24688 L918.751173,492.29736 C919.352613,495.423893 917.28576,497.9824 914.159227,497.9824"/><path id="Fill-56" fill="#AFCDFB" d="M721.392933,560.250533 L694.342453,560.250533 C691.21592,560.250533 688.16576,557.692027 687.559547,554.565493 L682.342293,527.515013 C681.740853,524.38848 683.802933,521.829973 686.929467,521.829973 L713.98472,521.829973 C717.111253,521.829973 720.161413,524.38848 720.762853,527.515013 L725.98488,554.565493 C726.58632,557.692027 724.519467,560.250533 721.392933,560.250533"/><path id="Fill-57" fill="#AFCDFB" d="M789.6516,560.250533 L762.60112,560.250533 C759.474587,560.250533 756.424427,557.692027 755.818213,554.565493 L750.60096,527.515013 C749.99952,524.38848 752.0616,521.829973 755.192907,521.829973 L782.243387,521.829973 C785.36992,521.829973 788.42008,524.38848 789.02152,527.515013 L794.243547,554.565493 C794.844987,557.692027 792.778133,560.250533 789.6516,560.250533"/><path id="Fill-58" fill="#78ACEA" d="M857.910267,560.250533 L830.859787,560.250533 C827.733253,560.250533 824.683093,557.692027 824.081653,554.565493 L818.859627,527.515013 C818.258187,524.38848 820.32504,521.829973 823.451573,521.829973 L850.502053,521.829973 C853.628587,521.829973 856.678747,524.38848 857.28496,527.515013 L862.502213,554.565493 C863.103653,557.692027 861.041573,560.250533 857.910267,560.250533"/><path id="Fill-59" fill="#AFCDFB" d="M516.616933,560.250533 L489.566453,560.250533 C486.435147,560.250533 483.384987,557.692027 482.783547,554.565493 L477.566293,527.515013 C476.96008,524.38848 479.026933,521.829973 482.153467,521.829973 L509.203947,521.829973 C512.33048,521.829973 515.38064,524.38848 515.986853,527.515013 L521.204107,554.565493 C521.805547,557.692027 519.743467,560.250533 516.616933,560.250533"/><path id="Fill-60" fill="#F99746" d="M584.8756,560.250533 L557.82512,560.250533 C554.698587,560.250533 551.643653,557.692027 551.042213,554.565493 L545.82496,527.515013 C545.218747,524.38848 547.2856,521.829973 550.412133,521.829973 L577.462613,521.829973 C580.589147,521.829973 583.64408,524.38848 584.24552,527.515013 L589.462773,554.565493 C590.068987,557.692027 588.002133,560.250533 584.8756,560.250533"/><path id="Fill-61" fill="#AFCDFB" d="M653.134267,560.250533 L626.083787,560.250533 C622.957253,560.250533 619.90232,557.692027 619.30088,554.565493 L614.083627,527.515013 C613.482187,524.38848 615.544267,521.829973 618.6708,521.829973 L645.72128,521.829973 C648.847813,521.829973 651.902747,524.38848 652.504187,527.515013 L657.72144,554.565493 C658.327653,557.692027 656.2608,560.250533 653.134267,560.250533"/><path id="Fill-62" fill="#78ACEA" d="M926.173707,560.250533 L899.123227,560.250533 C895.996693,560.250533 892.94176,557.692027 892.34032,554.565493 L887.123067,527.515013 C886.516853,524.38848 888.583707,521.829973 891.71024,521.829973 L918.76072,521.829973 C921.887253,521.829973 924.942187,524.38848 925.543627,527.515013 L930.76088,554.565493 C931.36232,557.692027 929.30024,560.250533 926.173707,560.250533"/><path id="Fill-63" fill="#AFCDFB" d="M732.724827,619.005493 L705.674347,619.005493 C702.547813,619.005493 699.497653,616.446987 698.89144,613.320453 L693.674187,586.269973 C693.072747,583.138667 695.1396,580.58016 698.266133,580.58016 L725.316613,580.58016 C728.443147,580.58016 731.493307,583.138667 732.09952,586.269973 L737.316773,613.320453 C737.918213,616.446987 735.856133,619.005493 732.724827,619.005493"/><path id="Fill-64" fill="#AFCDFB" d="M800.988267,619.005493 L773.937787,619.005493 C770.80648,619.005493 767.75632,616.446987 767.15488,613.320453 L761.932853,586.269973 C761.331413,583.138667 763.398267,580.58016 766.5248,580.58016 L793.57528,580.58016 C796.701813,580.58016 799.751973,583.138667 800.358187,586.269973 L805.57544,613.320453 C806.17688,616.446987 804.1148,619.005493 800.988267,619.005493"/><path id="Fill-65" fill="#78ACEA" d="M869.246933,619.005493 L842.196453,619.005493 C839.06992,619.005493 836.014987,616.446987 835.413547,613.320453 L830.196293,586.269973 C829.59008,583.138667 831.656933,580.58016 834.783467,580.58016 L861.833947,580.58016 C864.96048,580.58016 868.015413,583.138667 868.616853,586.269973 L873.834107,613.320453 C874.435547,616.446987 872.373467,619.005493 869.246933,619.005493"/><path id="Fill-66" fill="#AFCDFB" d="M527.948827,619.005493 L500.898347,619.005493 C497.771813,619.005493 494.71688,616.446987 494.11544,613.320453 L488.898187,586.269973 C488.291973,583.138667 490.358827,580.58016 493.48536,580.58016 L520.53584,580.58016 C523.662373,580.58016 526.717307,583.138667 527.318747,586.269973 L532.536,613.320453 C533.142213,616.446987 531.07536,619.005493 527.948827,619.005493"/><path id="Fill-67" fill="#AFCDFB" d="M596.207493,619.005493 L569.157013,619.005493 C566.03048,619.005493 562.975547,616.446987 562.374107,613.320453 L557.156853,586.269973 C556.555413,583.138667 558.617493,580.58016 561.744027,580.58016 L588.794507,580.58016 C591.925813,580.58016 594.975973,583.138667 595.577413,586.269973 L600.794667,613.320453 C601.40088,616.446987 599.334027,619.005493 596.207493,619.005493"/><path id="Fill-68" fill="#AFCDFB" d="M664.46616,619.005493 L637.41568,619.005493 C634.289147,619.005493 631.238987,616.446987 630.632773,613.320453 L625.41552,586.269973 C624.81408,583.138667 626.87616,580.58016 630.007467,580.58016 L657.057947,580.58016 C660.18448,580.58016 663.23464,583.138667 663.83608,586.269973 L669.058107,613.320453 C669.659547,616.446987 667.592693,619.005493 664.46616,619.005493"/><path id="Fill-69" fill="#AFCDFB" d="M544.932347,343.822827 L473.270293,343.822827 C472.210613,343.822827 471.34664,342.958853 471.34664,341.903947 C471.34664,340.84904 472.210613,339.985067 473.270293,339.985067 L544.932347,339.985067 C545.987253,339.985067 546.851227,340.84904 546.851227,341.903947 C546.851227,342.958853 545.987253,343.822827 544.932347,343.822827"/><path id="Fill-70" fill="#AFCDFB" d="M547.11376,352.50552 L475.446933,352.50552 C474.392027,352.50552 473.528053,351.641547 473.528053,350.581867 C473.528053,349.52696 474.392027,348.662987 475.446933,348.662987 L547.11376,348.662987 C548.168667,348.662987 549.03264,349.52696 549.03264,350.581867 C549.03264,351.641547 548.168667,352.50552 547.11376,352.50552"/><path id="Fill-71" fill="#FFF" d="M468.072133,279.195712 L443.47992,279.195712 C441.465573,279.195712 439.818773,277.54748 439.818773,275.533133 C439.818773,273.518787 441.465573,271.870555 443.47992,271.870555 L468.072133,271.870555 C470.08648,271.870555 471.73328,273.518787 471.73328,275.533133 C471.73328,277.54748 470.08648,279.195712 468.072133,279.195712"/><path id="Fill-72" fill="#FFF" d="M535.552747,279.195712 L510.960533,279.195712 C508.946187,279.195712 507.294613,277.54748 507.294613,275.533133 C507.294613,273.518787 508.946187,271.870555 510.960533,271.870555 L535.552747,271.870555 C537.567093,271.870555 539.213893,273.518787 539.213893,275.533133 C539.213893,277.54748 537.567093,279.195712 535.552747,279.195712"/><path id="Fill-73" fill="#FFF" d="M603.03336,279.195712 L578.441147,279.195712 C576.4268,279.195712 574.775227,277.54748 574.775227,275.533133 C574.775227,273.518787 576.4268,271.870555 578.441147,271.870555 L603.03336,271.870555 C605.047707,271.870555 606.694507,273.518787 606.694507,275.533133 C606.694507,277.54748 605.047707,279.195712 603.03336,279.195712"/><path id="Fill-74" fill="#FFF" d="M670.5092,279.195712 L645.916987,279.195712 C643.90264,279.195712 642.25584,277.54748 642.25584,275.533133 C642.25584,273.518787 643.90264,271.870555 645.916987,271.870555 L670.5092,271.870555 C672.523547,271.870555 674.17512,273.518787 674.17512,275.533133 C674.17512,277.54748 672.523547,279.195712 670.5092,279.195712"/><path id="Fill-75" fill="#FFF" d="M737.989813,279.195712 L713.3976,279.195712 C711.383253,279.195712 709.736453,277.54748 709.736453,275.533133 C709.736453,273.518787 711.383253,271.870555 713.3976,271.870555 L737.989813,271.870555 C740.00416,271.870555 741.65096,273.518787 741.65096,275.533133 C741.65096,277.54748 740.00416,279.195712 737.989813,279.195712"/><path id="Fill-76" fill="#FFF" d="M805.470427,279.195712 L780.878213,279.195712 C778.863867,279.195712 777.212293,277.54748 777.212293,275.533133 C777.212293,273.518787 778.863867,271.870555 780.878213,271.870555 L805.470427,271.870555 C807.484773,271.870555 809.131573,273.518787 809.131573,275.533133 C809.131573,277.54748 807.484773,279.195712 805.470427,279.195712"/><path id="Fill-77" fill="#FFF" d="M872.95104,279.195712 L848.358827,279.195712 C846.34448,279.195712 844.692907,277.54748 844.692907,275.533133 C844.692907,273.518787 846.34448,271.870555 848.358827,271.870555 L872.95104,271.870555 C874.965387,271.870555 876.612187,273.518787 876.612187,275.533133 C876.612187,277.54748 874.965387,279.195712 872.95104,279.195712"/><path id="Fill-78" fill="#C65447" d="M717.411973,377.49392 C711.984693,377.49392 708.0276,375.770747 705.874827,372.42464 C701.74112,366.00928 704.929707,357.01632 715.354667,345.698747 C722.968133,337.431333 731.860853,330.88232 731.946773,330.815493 C732.295227,330.557733 732.78688,330.634107 733.04464,330.98256 C733.3024,331.331013 733.226027,331.822667 732.877573,332.080427 C732.52912,332.338187 698.26136,357.708453 707.192267,371.574987 C710.022853,375.966453 716.080213,376.257627 720.667387,375.727787 C729.159147,374.74448 740.228507,370.171627 750.281147,363.493733 C760.687013,356.581947 768.018853,348.79664 770.3912,342.12352 C771.95208,337.751147 771.469973,334.653253 768.9592,332.91576 C765.718107,330.672293 758.944747,330.66752 750.8444,332.910987 C743.08296,335.054213 735.273787,338.91584 730.462267,342.987493 C730.132907,343.26912 729.63648,343.22616 729.354853,342.8968 C729.073227,342.56744 729.116187,342.071013 729.445547,341.789387 C734.41936,337.579307 742.457653,333.598347 750.424347,331.39784 C759.097493,328.996853 766.176347,329.082773 769.851813,331.622187 C772.028453,333.13056 774.14304,336.26664 771.870933,342.65336 C769.384027,349.636747 761.832613,357.708453 751.149893,364.801627 C740.901547,371.6084 729.574427,376.27672 720.848773,377.283893 C719.645893,377.42232 718.500293,377.49392 717.411973,377.49392"/><path id="Fill-79" fill="#FFB27D" d="M859.409093,332.90144 L856.616693,327.636453 C856.616693,327.636453 858.00096,318.248739 846.24424,312.312144 C846.24424,312.312144 841.943467,310.56224 839.518613,314.067776 C837.284693,317.295981 843.776427,316.713157 843.427973,322.236381 C843.07952,327.76056 845.70008,331.001653 849.35168,332.8012 L852.368427,336.29528 L859.409093,332.90144"/><path id="Fill-80" fill="#233862" d="M970.54184,320.309864 C970.54184,320.309864 960.44624,369.87568 904.87032,386.0716 C887.524027,391.12656 848.110613,334.013627 848.110613,334.013627 C848.110613,334.013627 849.49488,328.74864 858.177573,329.956293 C858.177573,329.956293 896.5504,355.359973 901.381013,358.123733 C905.667467,360.572453 933.858773,326.6436 946.71336,321.170019 C959.563173,315.696915 970.54184,320.309864 970.54184,320.309864"/><polyline id="Fill-81" fill="#C65447" points="868.536 308.22 870.76 320.245 810.272 331.446 808.043 319.422 868.536 308.22"/><polyline id="Fill-82" fill="#FFB27D" points="795.093 328.037 810.272 331.446 808.043 319.422 795.093 328.037"/><path id="Fill-83" fill="#FFB27D" d="M876.306693,310.907352 L877.008373,314.708835 C877.442747,317.047291 875.896187,319.294099 873.557253,319.727517 L870.76008,320.245424 L868.535707,308.220443 L871.57632,307.656712 C873.7816,307.248592 875.896187,308.703981 876.306693,310.907352"/><path id="Fill-84" fill="#233862" d="M1036.89117,631.898267 C1036.89117,631.898267 1043.78387,638.18952 1042.43779,642.662133 C1041.09648,647.134747 1034.87205,650.113307 1034.03195,655.578773 C1033.19184,661.039467 1029.82664,664.0228 1026.80035,664.0228 C1023.77405,664.0228 1012.37056,664.0228 1012.37056,664.0228 C1012.37056,664.0228 1010.14141,660.175493 1015.52573,659.015573 C1020.90528,657.860427 1022.93395,651.43552 1022.59981,645.4784 C1022.26091,639.516507 1023.10101,631.568907 1023.10101,631.568907 L1034.53792,628.919707 L1036.89117,631.898267"/><path id="Fill-85" fill="#233862" d="M952.31248,648.175333 C952.31248,648.175333 953.548773,662.49056 950.52248,663.97984 L911.78688,663.903467 C911.78688,663.903467 911.78688,659.430853 918.006533,658.438 C924.226187,657.445147 935.15712,653.803093 937.009173,645.688427 C938.856453,637.578533 952.31248,648.175333 952.31248,648.175333"/><path id="Fill-86" fill="#F99746" d="M919.6056,445.910107 C919.6056,445.910107 921.648587,471.008293 924.049573,501.17576 C927.314533,542.164373 931.238213,592.503947 931.629627,602.041067 C932.297893,618.59976 934.994827,645.09176 934.994827,645.09176 C934.994827,645.09176 941.381547,651.383013 954.15976,648.733813 C954.15976,648.733813 965.553707,610.919467 968.804347,570.909387 C968.856853,570.250667 968.90936,569.591947 968.957093,568.928453 C971.983387,528.1976 976.689893,442.430347 976.689893,442.430347 L919.6056,445.910107"/><path id="Fill-87" fill="#ED7D2B" d="M919.6056,445.910107 C919.6056,445.910107 921.648587,471.008293 924.049573,501.17576 L968.804347,570.909387 C968.856853,570.250667 968.90936,569.591947 968.957093,568.928453 C971.983387,528.1976 976.689893,442.430347 976.689893,442.430347 L919.6056,445.910107"/><path id="Fill-88" fill="#F99746" d="M928.937467,448.888667 C928.937467,448.888667 965.763733,539.787253 989.97408,582.503813 C1014.1892,625.225147 1021.75493,637.14416 1021.75493,637.14416 C1021.75493,637.14416 1035.63101,631.678693 1036.89117,627.955493 C1036.89117,627.955493 1027.63091,545.486613 1011.41589,525.381333 C1002.25109,514.025573 991.492,479.934427 990.986027,468.01064 C990.480053,456.091627 987.706747,432.49704 987.706747,432.49704 L928.937467,448.888667"/><path id="Fill-89" fill="#FFB27D" d="M977.3868,308.806131 C977.3868,308.806131 952.47,320.828248 938.10704,316.368045 C938.10704,316.368045 941.64408,311.907365 947.83032,308.588467 C947.333893,305.705373 946.947253,303.202715 946.72768,301.081445 C946.116693,296.18496 946.116693,293.410699 946.116693,293.410699 L955.730187,285.849739 L964.847253,278.61432 C964.131253,298.959699 977.3868,308.806131 977.3868,308.806131"/><path id="Fill-90" fill="#2B478B" d="M918.035173,447.981733 C918.47432,448.3636 918.970747,448.5784 919.529227,448.5784 C924.942187,448.468613 940.689413,451.45672 953.997467,450.09632 C965.267307,449.008 975.214933,445.747813 985.87856,441.07472 C987.315333,440.420773 990.57552,438.678507 990.51824,437.155813 C990.46096,435.413547 990.298667,432.9696 990.079093,429.809653 C989.6304,423.594773 989.005093,414.76888 988.804613,404.305733 C988.65664,396.549067 988.737787,387.895013 989.30104,378.72544 C989.334453,378.10968 989.367867,377.489147 989.391733,376.868613 C989.554027,373.508187 989.6304,370.123893 989.6304,366.815973 C989.692453,356.152347 988.919173,345.980373 987.372613,336.89672 C984.66136,321.118944 979.57776,308.772717 972.069307,303.276224 C971.07168,302.512491 964.880667,305.502984 959.138347,308.280587 C953.88768,310.838139 948.641787,311.109741 943.672747,310.13264 L938.698933,314.483056 C932.670213,319.973344 926.040053,327.536213 923.114,338.963573 C920.689147,348.648667 919.252373,366.162027 918.47432,384.334107 C918.092453,392.60152 917.8156,400.868933 917.705813,408.75448 L917.705813,409.02656 C917.64376,409.8428 917.64376,410.663813 917.64376,411.480053 C917.37168,431.661707 917.64376,447.709653 918.035173,447.981733"/><path id="Fill-91" fill="#ED985F" d="M965.01432,286.393899 C965.01432,286.393899 958.71352,297.871856 946.72768,301.081445 C946.116693,296.18496 946.116693,293.410699 946.116693,293.410699 L955.730187,285.849739 L965.01432,286.393899"/><path id="Fill-92" fill="#FFB27D" d="M941.734773,293.079429 C941.734773,293.079429 965.505973,296.967309 967.73512,282.355181 C969.96904,267.742576 974.53712,258.403072 959.45816,255.302315 C944.374427,252.202035 940.565307,257.340528 938.617787,262.039875 C936.670267,266.738744 935.610587,291.691344 941.734773,293.079429"/><path id="Fill-93" fill="#2C3A64" d="M976.374853,253.552888 C976.589653,253.305629 977.090853,253.106104 978.198267,253.045483 C978.198267,253.045483 977.310427,252.492253 976.12664,252.462659 C975.89752,250.922781 975.076507,248.196731 972.427307,247.533715 C972.427307,247.533715 973.84976,248.293152 974.03592,249.930883 C970.966667,246.777619 964.389013,244.4826 946.1692,245.920328 C922.164107,247.815341 930.07352,263.186429 933.185733,265.018912 C936.293173,266.851395 944.116667,261.827939 949.90672,262.287611 C955.696773,262.747283 956.799413,271.114936 958.761253,272.262923 C960.727867,273.411387 959.954587,271.380811 962.613333,270.179363 C965.27208,268.977915 965.525067,273.382269 964.75656,276.246269 C963.988053,279.109792 967.639653,282.886931 967.639653,282.886931 C967.639653,282.886931 967.639653,282.886931 971.32944,278.912176 C975.019227,274.937899 978.498987,258.102829 976.823547,254.51376 C976.675573,254.196811 976.5276,253.876043 976.374853,253.552888"/><path id="Fill-94" fill="#FFB27D" d="M856.564187,327.383467 C856.564187,327.383467 857.3852,324.154307 855.141733,322.702259 C852.90304,321.249733 850.84096,317.300755 849.89584,317.835845 C847.938773,318.943736 850.965067,322.389605 850.41136,326.68656 C850.220427,328.194933 853.724053,332.137707 856.564187,327.383467"/><path id="Fill-95" fill="#233862" d="M988.804613,404.305733 C988.65664,396.549067 988.737787,387.895013 989.30104,378.72544 C989.334453,378.10968 989.367867,377.489147 989.391733,376.868613 C987.133947,365.675147 983.71624,355.74184 978.685147,355.417253 C978.685147,355.417253 963.69688,378.973653 988.804613,404.305733"/><path id="Fill-96" fill="#FFB27D" d="M1008.62827,444.922027 C1008.62827,444.922027 1007.37765,457.07016 1006.00771,459.366133 C1004.63776,461.662107 998.799973,469.003493 996.31784,470.44504 C993.830933,471.886587 997.83576,460.769493 997.325013,458.607173 C996.81904,456.444853 995.282027,462.55472 994.18416,462.69792 C993.091067,462.84112 993.372693,457.34224 993.334507,455.342213 C993.291547,453.342187 998.661547,448.401787 1000.55656,444.143973 C1002.45157,439.881387 1008.62827,444.922027 1008.62827,444.922027"/><path id="Fill-97" fill="#2B478B" d="M972.054987,303.154981 C972.054987,303.154981 987.09576,310.276317 994.308267,321.224435 C1005.49219,338.209387 1018.45656,400.100427 1018.69523,405.8332 C1018.93389,411.5612 1009.23448,452.024747 1009.23448,452.024747 C1009.23448,452.024747 999.391867,451.380347 996.852453,446.411307 C996.852453,446.411307 998.819067,404.835573 997.573227,402.162507 C996.327387,399.48944 956.5512,346.395653 961.023813,335.06376 C965.496427,323.735685 972.054987,303.154981 972.054987,303.154981"/><polyline id="Fill-98" fill="#C65447" points="802.869 322.864 803.661 329.961 795.093 328.037 802.869 322.864"/><path id="Fill-99" fill="#82B378" d="M1128.30528,663.79368 L1084.96341,663.79368 C1082.64357,661.822293 1086.57203,657.34968 1090.67709,657.04896 C1092.46232,656.910533 1094.71533,657.287627 1097.29293,657.831787 C1097.8896,649.908053 1101.29299,614.298987 1114.13325,615.726213 C1128.56304,617.330053 1114.13325,631.411387 1110.05205,639.745627 C1107.03053,645.92232 1103.84195,654.776853 1102.38131,658.95352 C1103.55555,659.21128 1104.76797,659.459493 1106.00904,659.68384 C1107.91837,653.81264 1115.04019,634.055813 1124.09043,635.206187 C1134.71587,636.552267 1130.44851,644.476 1122.91141,649.177733 C1117.38867,652.633627 1110.60099,657.55016 1107.37421,659.922507 C1110.10933,660.3712 1112.95901,660.67192 1115.85165,660.605093 C1123.27419,660.42848 1126.90192,662.614667 1128.30528,663.79368"/><path id="Fill-100" fill="#82B378" d="M138.93648,661.7316 C136.639552,658.12296 129.727288,648.75768 120.520005,649.998747 C110.488845,651.3496 131.599389,657.96544 138.062483,661.76024 C136.627141,661.779333 135.393235,661.664773 134.486779,661.340187 C130.165957,659.803173 122.765859,662.757867 120.400195,663.79368 L161.534872,663.79368 C161.250381,662.810373 160.50956,661.20176 158.594021,660.032293 C157.918595,659.617013 156.560581,659.559733 154.807813,659.693387 C157.253669,656.810293 158.952499,647.59776 152.143339,649.970107 C147.169048,651.702827 147.182891,657.330587 147.671203,660.6576 C146.612955,660.824667 145.539909,660.991733 144.479275,661.14448 C142.431515,650.7052 135.187504,620.11768 120.505685,619.30144 C105.621477,618.475653 133.127333,651.025013 142.285928,661.435653 C141.112643,661.578853 139.982795,661.683867 138.93648,661.7316"/></g></g></g></svg>