<svg xmlns="http://www.w3.org/2000/svg" xmlns:xlink="http://www.w3.org/1999/xlink" viewBox="0 0 668 442.42"><defs><style>.cls-1{isolation:isolate}.cls-2{fill:#e0f3da}.cls-3{fill:#e2d8e7}.cls-4{fill:#cbecc3}.cls-11,.cls-14,.cls-25,.cls-28,.cls-30,.cls-31,.cls-34,.cls-35,.cls-36,.cls-37,.cls-4,.cls-41,.cls-44,.cls-46,.cls-51,.cls-52,.cls-53,.cls-54,.cls-56,.cls-58,.cls-59,.cls-60,.cls-61{mix-blend-mode:multiply}.cls-36,.cls-5{fill:#e7dfeb}.cls-17,.cls-41,.cls-44,.cls-55,.cls-6{fill:#b69cc2}.cls-46,.cls-61,.cls-7,.cls-8{fill:#7a4b90}.cls-11,.cls-13,.cls-18,.cls-21,.cls-30,.cls-31,.cls-34,.cls-55,.cls-7{opacity:.5}.cls-14,.cls-21,.cls-28,.cls-37,.cls-9{fill:#541970}.cls-10,.cls-18,.cls-19,.cls-42,.cls-43,.cls-45,.cls-62{fill:#fff}.cls-11{fill:url(#Degradado_sin_nombre_11)}.cls-12{fill:url(#Degradado_sin_nombre_11-2)}.cls-13{fill:url(#Degradado_sin_nombre_11-3)}.cls-15{fill:url(#Degradado_sin_nombre_11-4)}.cls-16{fill:url(#Degradado_sin_nombre_11-5)}.cls-17,.cls-22,.cls-29,.cls-43,.cls-44{opacity:.3}.cls-19,.cls-28,.cls-41,.cls-47,.cls-48{opacity:.6}.cls-20,.cls-26,.cls-29{fill:#ffea92}.cls-23,.cls-30{fill:#258bc0}.cls-24,.cls-25{fill:#fdc4bf}.cls-26,.cls-53{opacity:.8}.cls-27{fill:#c36357}.cls-31{fill:url(#Degradado_sin_nombre_11-6)}.cls-32{fill:url(#Degradado_sin_nombre_11-7)}.cls-33,.cls-34,.cls-35{fill:#826160}.cls-35,.cls-58{opacity:.7}.cls-37,.cls-45,.cls-54,.cls-59,.cls-61{opacity:.4}.cls-38{fill:#ffdbd4}.cls-39{fill:#fde0dd}.cls-40{fill:url(#Degradado_sin_nombre_11-8)}.cls-42,.cls-52{opacity:.9}.cls-48{fill:url(#Degradado_sin_nombre_11-9)}.cls-49{fill:url(#Degradado_sin_nombre_11-10)}.cls-50,.cls-51,.cls-52,.cls-53,.cls-54,.cls-56{fill:#205972}.cls-51{opacity:.85}.cls-56,.cls-62{opacity:.2}.cls-57,.cls-58{fill:#e8a6a3}</style><linearGradient id="Degradado_sin_nombre_11" x1="568.71" x2="482.27" y1="138.98" y2="231.77" gradientUnits="userSpaceOnUse"><stop offset="0" stop-opacity="0"/><stop offset="1" stop-opacity=".5"/></linearGradient><linearGradient id="Degradado_sin_nombre_11-2" x1="544.79" x2="572.26" y1="126.94" y2="144.37" gradientTransform="translate(37.58 -106.43) rotate(11.3)" xlink:href="#Degradado_sin_nombre_11"/><linearGradient id="Degradado_sin_nombre_11-3" x1="559.94" x2="606.24" y1="129.42" y2="129.42" xlink:href="#Degradado_sin_nombre_11"/><linearGradient id="Degradado_sin_nombre_11-4" x1="16.74" x2="373.98" y1="380.36" y2="380.36" xlink:href="#Degradado_sin_nombre_11"/><linearGradient id="Degradado_sin_nombre_11-5" x1="90.21" x2="371.45" y1="380.32" y2="380.32" xlink:href="#Degradado_sin_nombre_11"/><linearGradient id="Degradado_sin_nombre_11-6" x1="439.63" x2="450.37" y1="326.46" y2="204.86" xlink:href="#Degradado_sin_nombre_11"/><linearGradient id="Degradado_sin_nombre_11-7" x1="341.1" x2="641.76" y1="392.75" y2="392.75" xlink:href="#Degradado_sin_nombre_11"/><linearGradient id="Degradado_sin_nombre_11-8" x1="13.27" x2="106.79" y1="405.04" y2="405.04" xlink:href="#Degradado_sin_nombre_11"/><linearGradient id="Degradado_sin_nombre_11-9" x1="385.78" x2="477.49" y1="452.09" y2="452.09" gradientTransform="translate(-25.12 33.15) rotate(-3.41)" xlink:href="#Degradado_sin_nombre_11"/><linearGradient id="Degradado_sin_nombre_11-10" x1="352.78" x2="444.2" y1="449.96" y2="449.96" gradientTransform="matrix(0.75, -0.15, 0.24, 1.2, 41.9, -9.05)" xlink:href="#Degradado_sin_nombre_11"/></defs><title>interview</title><g class="cls-1"><g id="OBJECTS"><path d="M706.36,414.22c0-1.09,0-2.19,0-3.28,0-184.07-145.79-333.29-325.63-333.29S55.12,226.87,55.12,410.94c0,1.1,0,2.19,0,3.28Z" class="cls-2" transform="translate(-38.38 -38.44)"/><path d="M55.14,414.22s21.45,17.35,70.66,17.35,16.65,21.8,64.84,21.8H439.71c34.51,0,55.15-1.81,67.4-13.46,9.77-9.3,89.21-9,125.68-9s67.07-5.85,73.58-16.71Z" class="cls-3" transform="translate(-38.38 -38.44)"/><polygon points="215.88 371.31 16.76 375.78 667.98 375.78 364.79 371.31 215.88 371.31" class="cls-4"/><path d="M120.93,186.87s.8-32-38.85-29.13C82.83,173,87.74,188.25,120.93,186.87Z" class="cls-5" transform="translate(-38.38 -38.44)"/><path d="M198.81,167.44s-48.48-19.13-65.53,32.41C157,207.53,183,210,198.81,167.44Z" class="cls-5" transform="translate(-38.38 -38.44)"/><path d="M124.2,129.47s3.06-17.87-18.33-26.56C102.55,121.14,109.82,126.07,124.2,129.47Z" class="cls-5" transform="translate(-38.38 -38.44)"/><path d="M93.94,300.06s-6.61-55.26-55.56-43.54C50,296.6,72.26,302.86,93.94,300.06Z" class="cls-6" transform="translate(-38.38 -38.44)"/><path d="M93.94,300.06,38.38,256.51C50,296.6,72.26,302.86,93.94,300.06Z" class="cls-7" transform="translate(-38.38 -38.44)"/><path d="M113.14,180.06a25.71,25.71,0,0,1,5.56,3.83,27.1,27.1,0,0,1,4.3,5,33.78,33.78,0,0,1,3.06,5.71,32.26,32.26,0,0,1,1.9,6.14.67.67,0,0,1-.6.77.74.74,0,0,1-.85-.55v-.06a31.09,31.09,0,0,0-1.62-5.93,32.5,32.5,0,0,0-2.77-5.62,26,26,0,0,0-4-5,24.78,24.78,0,0,0-5.27-3.87h0a.26.26,0,0,1-.09-.37A.31.31,0,0,1,113.14,180.06Z" class="cls-3" transform="translate(-38.38 -38.44)"/><path d="M108.51,163c2,4.78,3.68,9.67,5.21,14.58s2.88,9.87,4.1,14.86,2.28,10,3.08,15.06c.18,1.27.38,2.54.53,3.81s.29,2.55.37,3.83.18,2.56.11,3.86a19,19,0,0,1-.09,1.95l-.27,2a.72.72,0,0,1-.82.57.69.69,0,0,1-.64-.75h0v-.1l.27-1.82a18,18,0,0,0,.11-1.86c.09-1.24,0-2.51-.05-3.76s-.21-2.52-.31-3.78-.32-2.52-.47-3.78c-.72-5-1.72-10-2.85-15s-2.41-9.94-3.87-14.86-3-9.81-5-14.58a.26.26,0,0,1,.17-.35A.31.31,0,0,1,108.51,163Z" class="cls-8" transform="translate(-38.38 -38.44)"/><path d="M129,132.81a54.59,54.59,0,0,1,3.22,15.27,141.67,141.67,0,0,1,.47,15.51q-.14,7.76-.83,15.49a145.82,145.82,0,0,1-2.07,15.42.73.73,0,0,1-.86.53.68.68,0,0,1-.59-.78h0v0A145.06,145.06,0,0,0,130.61,179q.79-7.68,1-15.41a140.84,140.84,0,0,0-.25-15.44,54,54,0,0,0-3-15.13h0a.26.26,0,0,1,.18-.34A.31.31,0,0,1,129,132.81Z" class="cls-8" transform="translate(-38.38 -38.44)"/><path d="M151.47,93.9a48.2,48.2,0,0,1,3.23,11.77,83.47,83.47,0,0,1,.9,12.09,117.51,117.51,0,0,1-2.41,24.08.73.73,0,0,1-.86.53.68.68,0,0,1-.59-.79h0a116.58,116.58,0,0,0,2.82-23.81,82.64,82.64,0,0,0-.67-12,47.48,47.48,0,0,0-3-11.68.26.26,0,0,1,.17-.35A.31.31,0,0,1,151.47,93.9Z" class="cls-8" transform="translate(-38.38 -38.44)"/><path d="M183.38,142a70.57,70.57,0,0,0-13.15,6.44,133.93,133.93,0,0,0-11.9,8.27A199.92,199.92,0,0,0,137,175.84h0a.79.79,0,0,1-1,.06.63.63,0,0,1-.07-.94h0A201.92,201.92,0,0,1,157.67,156a135.33,135.33,0,0,1,12.11-8.16,71.51,71.51,0,0,1,13.4-6.33.31.31,0,0,1,.38.16A.26.26,0,0,1,183.38,142Z" class="cls-8" transform="translate(-38.38 -38.44)"/><path d="M143,191.56a43.78,43.78,0,0,0-10.33,10.5,71.93,71.93,0,0,0-7.11,12.63,107.27,107.27,0,0,0-4.93,13.51,114.53,114.53,0,0,0-3.19,13.91v0a1.26,1.26,0,0,1-1.46,1,1.2,1.2,0,0,1-1.09-1.33v0a116.56,116.56,0,0,1,3.63-14.12A109.4,109.4,0,0,1,123.92,214a73.74,73.74,0,0,1,7.59-12.7A45.23,45.23,0,0,1,142.4,190.8a.56.56,0,0,1,.73.1.44.44,0,0,1-.09.65Z" class="cls-5" transform="translate(-38.38 -38.44)"/><path d="M93,298.7l15.18,10.11a1.11,1.11,0,0,1,.29,1.64,1.37,1.37,0,0,1-1.8.25l-.08-.06L92.35,299.44a.44.44,0,0,1-.06-.67A.56.56,0,0,1,93,298.7Z" class="cls-9" transform="translate(-38.38 -38.44)"/><path d="M123.87,291.22a43.31,43.31,0,0,0-5.83,6.56,48.92,48.92,0,0,0-4.4,7.43,60.59,60.59,0,0,0-3.15,7.95,55.18,55.18,0,0,0-1.95,8.21v0a1.26,1.26,0,0,1-1.45,1,1.21,1.21,0,0,1-1.1-1.33v0a57.1,57.1,0,0,1,2.41-8.47,62.75,62.75,0,0,1,3.6-8,50.83,50.83,0,0,1,4.86-7.47,45,45,0,0,1,6.29-6.51.56.56,0,0,1,.74,0,.44.44,0,0,1,0,.65Z" class="cls-9" transform="translate(-38.38 -38.44)"/><path d="M95.39,249.84a45.26,45.26,0,0,1,5.86,7,50.68,50.68,0,0,1,4.36,7.82,62.24,62.24,0,0,1,3,8.31,56.52,56.52,0,0,1,1.8,8.66,1.19,1.19,0,0,1-1.14,1.28,1.28,1.28,0,0,1-1.42-1v-.1a54.59,54.59,0,0,0-1.36-8.35,60,60,0,0,0-2.6-8.18,48.75,48.75,0,0,0-3.9-7.75,43.59,43.59,0,0,0-5.4-7l0,0a.44.44,0,0,1,.06-.66A.56.56,0,0,1,95.39,249.84Z" class="cls-9" transform="translate(-38.38 -38.44)"/><path d="M137.05,226.61a43.78,43.78,0,0,0-10.33,10.5,71.93,71.93,0,0,0-7.11,12.63,107.27,107.27,0,0,0-4.93,13.51,114.53,114.53,0,0,0-3.19,13.91v0a1.26,1.26,0,0,1-1.46,1,1.2,1.2,0,0,1-1.09-1.33v0a116.56,116.56,0,0,1,3.63-14.12,109.4,109.4,0,0,1,5.37-13.61,73.74,73.74,0,0,1,7.59-12.7,45.23,45.23,0,0,1,10.89-10.53.56.56,0,0,1,.73.1.44.44,0,0,1-.09.65Z" class="cls-9" transform="translate(-38.38 -38.44)"/><path d="M105.93,320.33a186.23,186.23,0,0,0,7.24,46.08A163.74,163.74,0,0,0,123.53,393l5.72.51a159.47,159.47,0,0,1-11.66-28.12,182.9,182.9,0,0,1-7.67-45.12,223.77,223.77,0,0,1,.14-22.9c.14-1.91.23-3.81.41-5.72l.52-5.72c.31-3.82.79-7.62,1.24-11.43A393.31,393.31,0,0,1,134.1,185c2.67-7.26,5.64-14.42,8.78-21.52s6.51-14.12,10.13-21,7.45-13.73,11.58-20.39a219.3,219.3,0,0,1,13.33-19.45h0a.45.45,0,0,0-.12-.66.55.55,0,0,0-.73.1,220.76,220.76,0,0,0-13.66,19.42c-4.23,6.65-8.16,13.45-11.89,20.35s-7.2,13.9-10.44,21S134.78,177,132,184.29a396.18,396.18,0,0,0-23.13,89.78c-.51,3.83-1,7.65-1.4,11.5l-.6,5.76c-.2,1.92-.32,3.85-.49,5.78A226.87,226.87,0,0,0,105.93,320.33Z" class="cls-9" transform="translate(-38.38 -38.44)"/><path d="M178,185.1s-51.69,2.72-44.74,44.19C165.67,230,179.58,215.52,178,185.1Z" class="cls-6" transform="translate(-38.38 -38.44)"/><path d="M133.25,229.28C148.46,210.34,178,185.1,178,185.1S126.31,187.81,133.25,229.28Z" class="cls-7" transform="translate(-38.38 -38.44)"/><path d="M93,138.41s-6.88,29.81,19.08,34.66C117.79,154.88,111.44,144,93,138.41Z" class="cls-6" transform="translate(-38.38 -38.44)"/><path d="M112.05,173.07C103.22,160.46,93,138.41,93,138.41S86.1,168.21,112.05,173.07Z" class="cls-7" transform="translate(-38.38 -38.44)"/><path d="M124.8,108.83s-16.31,22.5,6.72,34.13C142.93,129.69,140.49,118.83,124.8,108.83Z" class="cls-6" transform="translate(-38.38 -38.44)"/><path d="M131.52,143c-4.24-13-6.72-34.13-6.72-34.13S108.5,131.32,131.52,143Z" class="cls-7" transform="translate(-38.38 -38.44)"/><path d="M138,80.66s-3.79,19.93,15.79,21.75C157.28,90.16,152,83.33,138,80.66Z" class="cls-6" transform="translate(-38.38 -38.44)"/><path d="M153.81,102.41C146.65,94.59,138,80.66,138,80.66S134.23,100.59,153.81,102.41Z" class="cls-7" transform="translate(-38.38 -38.44)"/><path d="M174.53,145.68s36.69,12.57,47.18-25.54C192.62,115.83,180.66,129.55,174.53,145.68Z" class="cls-6" transform="translate(-38.38 -38.44)"/><path d="M174.53,145.68l47.18-25.54C192.62,115.83,180.66,129.55,174.53,145.68Z" class="cls-7" transform="translate(-38.38 -38.44)"/><path d="M175.57,105.75s20.14,0,19.25-28.56C174.06,80.43,166.89,91.05,175.57,105.75Z" class="cls-5" transform="translate(-38.38 -38.44)"/><path d="M121,293.22S185.94,298.56,184,233C135.3,237.89,122.91,264.8,121,293.22Z" class="cls-6" transform="translate(-38.38 -38.44)"/><path d="M121,293.22,184,233C135.3,237.89,122.91,264.8,121,293.22Z" class="cls-7" transform="translate(-38.38 -38.44)"/><path d="M97.7,254.09s18.87-41.87-43.8-58.11C56.39,234,60.38,245.26,97.7,254.09Z" class="cls-6" transform="translate(-38.38 -38.44)"/><path d="M425.46,146.88a31.36,31.36,0,0,1,7,7.81,53.82,53.82,0,0,1,4.77,9.34,82,82,0,0,1,3.25,10,88.46,88.46,0,0,1,2.05,10.24v0a.89.89,0,0,0,1.76-.23v0A89.84,89.84,0,0,0,442,173.61a83.36,83.36,0,0,0-3.56-10,55,55,0,0,0-5.1-9.4,32.26,32.26,0,0,0-7.4-7.85.37.37,0,0,0-.5.07.34.34,0,0,0,.06.48Z" class="cls-9" transform="translate(-38.38 -38.44)"/><path d="M370.79,103.43" class="cls-6" transform="translate(-38.38 -38.44)"/><path d="M352.87,106.2c15.18,36.73,40.54,46.45,76.29,43,0,0-2.63-47.24-76.29-43" class="cls-6" transform="translate(-38.38 -38.44)"/><path d="M442.49,113a17.71,17.71,0,0,0-3.88,2.74,19.54,19.54,0,0,0-3,3.62,25.24,25.24,0,0,0-2.17,4.15A24.69,24.69,0,0,0,432,128a.49.49,0,0,0,.4.57.51.51,0,0,0,.6-.39h0v0a23.87,23.87,0,0,1,1.18-4.33,24.4,24.4,0,0,1,2-4.08,18.84,18.84,0,0,1,2.81-3.59,17.16,17.16,0,0,1,3.68-2.77h0a.19.19,0,0,0,.07-.27A.21.21,0,0,0,442.49,113Z" class="cls-8" transform="translate(-38.38 -38.44)"/><path d="M432.06,78.24a42.1,42.1,0,0,0-2.39,11.15,110.18,110.18,0,0,0-.5,11.37q0,5.69.4,11.36a113.22,113.22,0,0,0,1.26,11.32.5.5,0,0,0,.59.4.5.5,0,0,0,.42-.57h0v0a112.56,112.56,0,0,1-1.4-11.2q-.46-5.64-.55-11.31a109.55,109.55,0,0,1,.34-11.31,41.68,41.68,0,0,1,2.22-11.05h0a.19.19,0,0,0-.12-.25A.21.21,0,0,0,432.06,78.24Z" class="cls-8" transform="translate(-38.38 -38.44)"/><path d="M422.57,67.79a34.57,34.57,0,0,0-1.74,7.57,62.84,62.84,0,0,0-.46,7.82,90,90,0,0,0,1.42,15.68.43.43,0,0,0,.48.36.42.42,0,0,0,.32-.5h0a89.39,89.39,0,0,1-1.64-15.51,62.41,62.41,0,0,1,.33-7.76,34.24,34.24,0,0,1,1.61-7.51.18.18,0,0,0-.1-.23A.16.16,0,0,0,422.57,67.79Z" class="cls-6" transform="translate(-38.38 -38.44)"/><path d="M394.41,84.35a47.72,47.72,0,0,1,9,4.87,92.81,92.81,0,0,1,8.12,6.2A141.62,141.62,0,0,1,426,109.68h0a.52.52,0,0,0,.72.05.48.48,0,0,0,.06-.69h0A142.66,142.66,0,0,0,412,94.9a93.56,93.56,0,0,0-8.27-6.13A48.25,48.25,0,0,0,394.56,84a.21.21,0,0,0-.27.11A.2.2,0,0,0,394.41,84.35Z" class="cls-8" transform="translate(-38.38 -38.44)"/><path d="M445.91,215.93a144.14,144.14,0,0,1-5.5,33.69A124.33,124.33,0,0,1,433,269l-4,.31a120.76,120.76,0,0,0,8.36-20.47,141.46,141.46,0,0,0,5.79-33q.49-8.38.16-16.78c-.07-1.4-.12-2.8-.22-4.2l-.3-4.2c-.17-2.8-.46-5.6-.73-8.39A303.42,303.42,0,0,0,428,116.39c-1.77-5.35-3.73-10.64-5.82-15.88S417.8,90.1,415.37,85s-5-10.15-7.77-15.08a161.92,161.92,0,0,0-9-14.41h0a.34.34,0,0,1,.09-.48.37.37,0,0,1,.5.08,162.7,162.7,0,0,1,9.21,14.39c2.85,4.92,5.49,10,8,15.05s4.82,10.27,7,15.51,4.2,10.53,6,15.88a305.33,305.33,0,0,1,15,66.07c.31,2.81.63,5.62.84,8.44l.35,4.23c.12,1.41.18,2.83.27,4.24Q446.3,207.41,445.91,215.93Z" class="cls-9" transform="translate(-38.38 -38.44)"/><path d="M383.29,38.44s-1.24,22.62,19.79,21.76C405,46.13,398.54,39.34,383.29,38.44Z" class="cls-6" transform="translate(-38.38 -38.44)"/><path d="M403.08,60.2c-8.68-7.6-19.79-21.76-19.79-21.76S382.05,61.06,403.08,60.2Z" class="cls-7" transform="translate(-38.38 -38.44)"/><path d="M437.41,67.68s-17.29,9.84-7.55,24.05C441.12,86.45,443.34,78.71,437.41,67.68Z" class="cls-6" transform="translate(-38.38 -38.44)"/><path d="M429.86,91.73c1.87-9.63,7.55-24.05,7.55-24.05S420.12,77.52,429.86,91.73Z" class="cls-7" transform="translate(-38.38 -38.44)"/><path d="M401.81,87.41S398.54,58,357.43,64.89C365.47,86.11,383.7,89.17,401.81,87.41Z" class="cls-6" transform="translate(-38.38 -38.44)"/><path d="M401.81,87.41,357.43,64.89C365.47,86.11,383.7,89.17,401.81,87.41Z" class="cls-7" transform="translate(-38.38 -38.44)"/><path d="M421,76.51s-10.6-9.15,4.57-28C434.86,60.17,433.17,70.58,421,76.51Z" class="cls-5" transform="translate(-38.38 -38.44)"/><path d="M437,117.88s-.24-45.13,45.44-40.28C481.28,99.08,475.29,120.49,437,117.88Z" class="cls-6" transform="translate(-38.38 -38.44)"/><circle cx="527.6" cy="103.47" r="71.19" class="cls-10"/><path d="M634.41,161.54c-55.73,39.58-98.5,15.58-108.87-8.19-7.56-17.34-9.62-52,3.23-72.13a71.19,71.19,0,1,0,105.64,80.33Z" class="cls-11" transform="translate(-38.38 -38.44)"/><path d="M566.54,140.87,544.48,119a1.81,1.81,0,0,0-3,.16h0a3.17,3.17,0,0,0,.57,3.69l22.07,21.83a1.81,1.81,0,0,0,3-.16A3.17,3.17,0,0,0,566.54,140.87Z" class="cls-12" transform="translate(-38.38 -38.44)"/><path d="M606,119.64a2.37,2.37,0,0,0-3.1-1.25l-41.57,17.72a2.36,2.36,0,0,0,1.85,4.35l41.57-17.72A2.37,2.37,0,0,0,606,119.64Z" class="cls-13" transform="translate(-38.38 -38.44)"/><path d="M566,70.72a70.93,70.93,0,0,0-28.44,5.93,71.19,71.19,0,0,1,48.78,133.49A71.19,71.19,0,0,0,566,70.72Z" class="cls-5" transform="translate(-38.38 -38.44)"/><path d="M568,141.21,551.65,116.8a2.37,2.37,0,0,0-3.27-.67h0a2.37,2.37,0,0,0-.67,3.27l16.39,24.41a2.36,2.36,0,1,0,3.94-2.61Z" class="cls-8" transform="translate(-38.38 -38.44)"/><path d="M608.25,117.83A2.37,2.37,0,0,0,605,117l-39.14,22.6a2.36,2.36,0,0,0,2.36,4.09l39.14-22.6A2.37,2.37,0,0,0,608.25,117.83Z" class="cls-8" transform="translate(-38.38 -38.44)"/><circle cx="527.6" cy="103.47" r="5.17" class="cls-9"/><path d="M563.44,144a6,6,0,0,1,.34-6.72,5.17,5.17,0,1,0,6.52,7.52C567.66,145.62,564.59,145.51,563.44,144Z" class="cls-14" transform="translate(-38.38 -38.44)"/><path d="M566,215.62a73.7,73.7,0,1,1,73.7-73.7A73.79,73.79,0,0,1,566,215.62Zm0-142.38a68.68,68.68,0,1,0,68.68,68.68A68.76,68.76,0,0,0,566,73.23Z" class="cls-8" transform="translate(-38.38 -38.44)"/><path d="M522,89.19A68.65,68.65,0,1,0,607.35,196.7,68.64,68.64,0,0,1,522,89.19Z" class="cls-6" transform="translate(-38.38 -38.44)"/><path d="M566,68.21a73.36,73.36,0,0,0-47.14,17.1,73.66,73.66,0,0,1,91.7,115.26A73.67,73.67,0,0,0,566,68.21Z" class="cls-6" transform="translate(-38.38 -38.44)"/><circle cx="527.6" cy="103.47" r="2.66" class="cls-6"/><circle cx="527.6" cy="40.99" r="2.66" class="cls-6"/><circle cx="527.6" cy="167.12" r="2.66" class="cls-6"/><circle cx="527.6" cy="103.47" r="2.66" class="cls-6"/><circle cx="590.85" cy="103.47" r="2.66" class="cls-6"/><circle cx="464.13" cy="103.47" r="2.66" class="cls-6"/><ellipse cx="195.36" cy="380.36" class="cls-15" rx="178.62" ry="4.46"/><ellipse cx="230.83" cy="380.32" class="cls-16" rx="140.62" ry="2.63"/><path d="M361.89,379.12H297.38s4.13,27.7-27.7,27.7h119.9C357.77,406.81,361.89,379.12,361.89,379.12Z" class="cls-8" transform="translate(-38.38 -38.44)"/><path d="M374.87,406.81c-15.73-5.38-18.27-18.79-18.07-27.7H297.38s4.13,27.7-27.7,27.7H374.87Z" class="cls-17" transform="translate(-38.38 -38.44)"/><path d="M357.51,387.39h0a37.05,37.05,0,0,1-.71-8.28H297.38s1.79,12.06-6.13,20.27Z" class="cls-14" transform="translate(-38.38 -38.44)"/><rect width="385.99" height="252.72" x="98.26" y="96.23" class="cls-9" rx="12.91" ry="12.91"/><path d="M155.6,148.44c-10.56,1.5-11.48,5.19-11.48,29.63S142.74,362,142.28,375.4c-.14,4-.19,7.1-.2,9.57a12.81,12.81,0,0,0,7.48,2.42H256.4L502,375.4V333.49L319.36,249.55Z" class="cls-14" transform="translate(-38.38 -38.44)"/><rect width="363.46" height="227.82" x="109.53" y="109.15" class="cls-5" rx="12.16" ry="12.16"/><circle cx="291.26" cy="102.77" r="1.88" class="cls-10"/><path d="M409.65,419.72h-160a6.48,6.48,0,0,1-6.46-6.46h0a6.48,6.48,0,0,1,6.46-6.46h160a6.48,6.48,0,0,1,6.46,6.46h0A6.48,6.48,0,0,1,409.65,419.72Z" class="cls-9" transform="translate(-38.38 -38.44)"/><path d="M509.72,134.67H290.31c48,2.36,205.64,1.82,218.59,3.77s10.25,11.67,9.68,117.56c-.36,68.08.42,108.28-.82,128.54a12.9,12.9,0,0,0,4.87-10.07V147.59A13,13,0,0,0,509.72,134.67Z" class="cls-18" transform="translate(-38.38 -38.44)"/><path d="M404.44,410.19c6.95-.21,9.25,3.75,8.57,8.57a6.45,6.45,0,0,0-3.36-12H291.44S393.75,410.52,404.44,410.19Z" class="cls-18" transform="translate(-38.38 -38.44)"/><path d="M247.53,407.17a6.45,6.45,0,0,0,2.09,12.56h160a6.38,6.38,0,0,0,2.19-.39l.52-.53s-152-1.61-160.1-2.08S244.19,409.8,247.53,407.17Z" class="cls-14" transform="translate(-38.38 -38.44)"/><path d="M497.1,373.56a12,12,0,0,0,12-12V161.45a12,12,0,0,0-12-12H261.4c91,18.84,207.56,95.28,192.1,224.06Z" class="cls-19" transform="translate(-38.38 -38.44)"/><rect width="1" height="4.25" x="193.02" y="243.66" class="cls-9"/><rect width="1" height="8.82" x="193.02" y="283.2" class="cls-9"/><rect width="1" height="8.82" x="193.02" y="253.79" class="cls-9"/><rect width="1" height="8.82" x="193.02" y="268.49" class="cls-9"/><polygon points="194.01 297.9 193.01 297.9 193.01 302.65 197.77 302.65 197.77 301.65 194.01 301.65 194.01 297.9" class="cls-9"/><rect width="8.34" height="1" x="245.02" y="301.65" class="cls-9"/><rect width="8.34" height="1" x="258.91" y="301.65" class="cls-9"/><rect width="8.34" height="1" x="231.12" y="301.65" class="cls-9"/><rect width="8.34" height="1" x="203.33" y="301.65" class="cls-9"/><rect width="8.34" height="1" x="217.22" y="301.65" class="cls-9"/><rect width="8.34" height="1" x="272.81" y="301.65" class="cls-9"/><rect width="8.34" height="1" x="342.29" y="301.65" class="cls-9"/><rect width="8.34" height="1" x="370.09" y="301.65" class="cls-9"/><rect width="8.34" height="1" x="383.98" y="301.65" class="cls-9"/><rect width="8.34" height="1" x="397.88" y="301.65" class="cls-9"/><rect width="8.34" height="1" x="286.71" y="301.65" class="cls-9"/><rect width="8.34" height="1" x="411.78" y="301.65" class="cls-9"/><rect width="8.34" height="1" x="300.6" y="301.65" class="cls-9"/><rect width="8.34" height="1" x="356.19" y="301.65" class="cls-9"/><rect width="8.34" height="1" x="314.5" y="301.65" class="cls-9"/><rect width="8.34" height="1" x="328.4" y="301.65" class="cls-9"/><rect width="4.25" height="1" x="425.67" y="301.65" class="cls-9"/><rect width="109.95" height="109.95" x="138.01" y="132.25" class="cls-10"/><path d="M245.72,267.59A57.86,57.86,0,0,1,203,170.69H176.39V280.64H286.34V250.93A57.67,57.67,0,0,1,245.72,267.59Z" class="cls-20" transform="translate(-38.38 -38.44)"/><path d="M287.65,282H175.08V169.39H287.65ZM177.7,279.34H285V172H177.7Z" class="cls-9" transform="translate(-38.38 -38.44)"/><rect width="41.67" height="10.15" x="259.3" y="142.4" class="cls-21"/><rect width="11.32" height="10.15" x="306.62" y="142.4" class="cls-21"/><g class="cls-22"><rect width="6.95" height="2.13" x="342.89" y="163.93" class="cls-9"/><rect width="25.85" height="2.13" x="311.64" y="163.93" class="cls-9"/><rect width="21.26" height="2.13" x="284.33" y="163.93" class="cls-9"/><rect width="15.95" height="2.13" x="259.3" y="163.93" class="cls-9"/><rect width="22.38" height="2.13" x="341.6" y="171.85" class="cls-9"/><rect width="28.81" height="2.13" x="305.59" y="171.85" class="cls-9"/><rect width="11.32" height="2.13" x="291.19" y="171.85" class="cls-9"/><rect width="11.96" height="2.13" x="271.26" y="171.85" class="cls-9"/><rect width="5.92" height="2.13" x="259.3" y="171.85" class="cls-9"/><rect width="45.54" height="2.13" x="286.46" y="179.77" class="cls-9"/><rect width="10.55" height="2.13" x="259.3" y="179.77" class="cls-9"/><rect width="13.72" height="2.13" x="332" y="187.68" class="cls-9"/><rect width="15.2" height="2.13" x="309.37" y="187.68" class="cls-9"/><rect width="41.67" height="2.13" x="259.3" y="187.68" class="cls-9"/><rect width="9.52" height="2.13" x="281.67" y="195.6" class="cls-9"/><rect width="15.95" height="2.13" x="259.3" y="195.6" class="cls-9"/><rect width="16.51" height="2.13" x="292.85" y="203.52" class="cls-9"/><rect width="14.49" height="2.13" x="269.84" y="203.52" class="cls-9"/><rect width="5.92" height="2.13" x="259.3" y="203.52" class="cls-9"/><rect width="34.72" height="2.13" x="288.36" y="211.43" class="cls-9"/><rect width="22.38" height="2.13" x="259.3" y="211.43" class="cls-9"/></g><path d="M277.26,277.49c-3.17-6.53-7.09-14.37-8.48-16.18-2.46-3.23-15.21-1.72-19.9-2.13s-11-4.36-10.69-14-14.52-2.48-14.52-2.48-5.78,9.63-7.62,13.32-25.36,5.3-27.9,6.69c-1.36.74-3.91,8.12-6,14.8Z" class="cls-23" transform="translate(-38.38 -38.44)"/><path d="M225.23,244.59c-2.49,3.12-5.35,6.19,0,9.38l3.5,2,2.63,13.83,3.38-12.63s4-3.43,2.29-10.89-6.41-6.2-6.41-6.2" class="cls-24" transform="translate(-38.38 -38.44)"/><path d="M213.76,212.49s.39,24.77,7.77,32.83,17.09,6.48,22.14-4.75,6.21-30,6.21-30S216.86,194.06,213.76,212.49Z" class="cls-24" transform="translate(-38.38 -38.44)"/><path d="M213.76,212.49s.39,24.77,7.77,32.83c3.8,4.15,8.21,5.74,12.29,4.78-15.29-1.48-16.71-25.12-14.68-31.15,2.22-6.59,5.7-9.77,7.7-9.66s-.63-4.24-.63-4.24h2.12l17.54,7.3,1.43,12.06.95-.44c1.26-7.33,1.64-13.43,1.64-13.43S216.86,194.06,213.76,212.49Z" class="cls-25" transform="translate(-38.38 -38.44)"/><path d="M214.51,223.07s-.37-6.6-3.86-5.29.64,9,5,12.64C215.53,229.9,214.51,223.07,214.51,223.07Z" class="cls-24" transform="translate(-38.38 -38.44)"/><path d="M214.51,223.07s-.37-6.6-3.86-5.29.64,9,5,12.64C215.53,229.9,214.51,223.07,214.51,223.07Z" class="cls-25" transform="translate(-38.38 -38.44)"/><path d="M247.29,224.41s.47-6.6,4.93-5.29-.82,9-6.36,12.64C246,231.24,247.29,224.41,247.29,224.41Z" class="cls-24" transform="translate(-38.38 -38.44)"/><path d="M252.22,219.12a3,3,0,0,0-3.66,1.31c3.72-.64,4.52,3.15-2.55,10.6-.07.38-.13.65-.15.73C251.4,228.11,256.69,220.43,252.22,219.12Z" class="cls-26" transform="translate(-38.38 -38.44)"/><path d="M247.29,224.41l.94-13.24L228.32,205s1.68,2.76.92,2.76-8.12-2.76-8.12-2.76l-6.27,20.31s-3.07-21.53-1.69-25.51,11.79-7.5,15.92-8.27,16.62,3.67,20.79,8.27S247.29,224.41,247.29,224.41Z" class="cls-27" transform="translate(-38.38 -38.44)"/><path d="M247.29,224.41l.94-13.24L228.32,205s1.68,2.76.92,2.76-8.12-2.76-8.12-2.76l-6.27,20.31s-3.07-21.53-1.69-25.51,11.79-7.5,15.92-8.27,16.62,3.67,20.79,8.27S247.29,224.41,247.29,224.41Z" class="cls-28" transform="translate(-38.38 -38.44)"/><path d="M225.11,234.9s3.06,2,12.71,0C234,240.87,229.09,242.86,225.11,234.9Z" class="cls-10" transform="translate(-38.38 -38.44)"/><path d="M231.14,232.34s-3.47-1.08-3.44-3.31,3-2.55,3-11.2c0-2.95,1.86,7.07.19,9.45S231.14,232.34,231.14,232.34Z" class="cls-25" transform="translate(-38.38 -38.44)"/><path d="M232,200.84c2,1.06-2.36-3.8-2.36-3.8s6.05,1.16,8.16.63-1.69-3.27-1.69-3.27l7.25,1c-5.21-2.57-11.56-4.33-14.29-3.82-4.13.77-14.55,4.29-15.92,8.27-1.24,3.57,1.1,21.22,1.6,24.85.24-2.13,2.29-20.44,2.79-23.32C218.08,198.31,230,199.78,232,200.84Z" class="cls-28" transform="translate(-38.38 -38.44)"/><ellipse cx="224.67" cy="220.68" class="cls-25" rx="2.12" ry=".86" transform="translate(-65.72 -6.62) rotate(-7.64)"/><ellipse cx="237.89" cy="221.03" class="cls-25" rx=".86" ry="2.12" transform="translate(-60.81 376.71) rotate(-79.61)"/><path d="M245.3,197.78s6.61,2.19,4.57,12.76C249.1,203.48,248.2,200.63,245.3,197.78Z" class="cls-29" transform="translate(-38.38 -38.44)"/><path d="M246,231s-4.37,16.4-12.2,19.07h0c3.85-.91,7.4-4.07,9.85-9.52a56.23,56.23,0,0,0,3.13-9.54Z" class="cls-26" transform="translate(-38.38 -38.44)"/><path d="M235.2,271.73l6.63-8.81-5.8-4.12-4.14,15-1.69-.77-2.78-15.31-4.61,8.31a13.27,13.27,0,0,1-6.3-7.26c-10.76,2.73-27.36,4.89-27.36,4.89l-4,11.84h88.24Z" class="cls-30" transform="translate(-38.38 -38.44)"/><circle cx="257.65" cy="277.61" r="5.42" class="cls-21"/><circle cx="274.45" cy="277.61" r="5.42" class="cls-9"/><circle cx="291.26" cy="277.61" r="5.42" class="cls-21"/><circle cx="308.06" cy="277.61" r="5.42" class="cls-21"/><circle cx="324.86" cy="277.61" r="5.42" class="cls-21"/><polygon points="446.93 162.07 426.72 335.88 450.87 335.88 454.07 162.36 446.93 162.07" class="cls-31"/><ellipse cx="491.43" cy="392.75" class="cls-32" rx="150.33" ry="8.42"/><path d="M530.45,191.32c-32.64.58-45-4.41-45.14,9.19s-6.65,218.87-7,227.34,5.63,7.67,34.53,7.16l165.64-2.94c10.29-.18,6.71-27.76,2.93-57.49s-14.2-139.73-17.2-162.08,0-21.42-20.15-21.54S530.45,191.32,530.45,191.32Z" class="cls-33" transform="translate(-38.38 -38.44)"/><path d="M560.09,207.23l5.7-16.08-19.56.09c-.61,1.62-1.52,3.75-2.25,4.25-1.22.83-51.52,5.31-51.52,5.31Z" class="cls-34" transform="translate(-38.38 -38.44)"/><path d="M679.35,369.13C675.7,340.5,665.67,234.55,662.78,213s0-20.63-19.41-20.75c-6.66,0-21.59,0-38.35,0l.81,1.13s41.53,0,45.53,0,7.86-1.19,9.91,11.85c2.64,16.8,19.58,182.89,21,196.27,1.17,11.07.84,20.07-.87,25.62C686.25,420.26,682.38,393,679.35,369.13Z" class="cls-20" transform="translate(-38.38 -38.44)"/><path d="M683.1,428.9c-1,0-171.32,3.84-186.75,3.31s-14.16-.49-14.56-13.67,5.28-199.5,5.5-213.36c.13-8.42.12-10.77.85-12-1.89,1.44-2.79,3.73-2.83,7.32-.14,13.6-6.65,218.87-7,227.34s5.63,7.67,34.53,7.16l165.64-2.94C680.56,432,682,430.9,683.1,428.9Z" class="cls-35" transform="translate(-38.38 -38.44)"/><path d="M494.73,200.8h-2.28l-8,225.55s131.12-4.53,141.37-5.07,14.9,3.33,24.66-5.57,21.08-26.52,21.08-26.52L638,238.08Z" class="cls-34" transform="translate(-38.38 -38.44)"/><path d="M553,200.8H494.73l-5.48,219.69s146.13-2.39,151-2.82,31.26-28.47,31.26-28.47C670.22,358,654.59,200.8,654.59,200.8Z" class="cls-10" transform="translate(-38.38 -38.44)"/><path d="M517,200.8c9.07,2.9,26.5,8.35,30.61,8.71,5.62.49,58.36-4.64,58.36-4.64l-11.12-4.07H517Z" class="cls-36" transform="translate(-38.38 -38.44)"/><path d="M671.52,389.2c-.07-1.79-.2-4-.36-6.56-2,1.94-13.14,8.83-29.59,7.9-7.49,17.58-39.77,21.65-59.77,23.69-15.5,1.58-69.14,3.89-92.51,4.85l0,1.42s146.13-2.39,151-2.82S671.52,389.2,671.52,389.2Z" class="cls-5" transform="translate(-38.38 -38.44)"/><path d="M655.89,396.07l-15.63,1.47s-5.85,13.84-23.72,20.71c13.34-.27,22.55-.48,23.72-.58,2.72-.24,12.1-9,19.88-16.8Z" class="cls-36" transform="translate(-38.38 -38.44)"/><path d="M640.27,417.67s6.19-7.59,9.44-24.2a154.43,154.43,0,0,1,21.81-4.27S646.79,417.46,640.27,417.67Z" class="cls-10" transform="translate(-38.38 -38.44)"/><path d="M565.71,167.76C564.29,169,563.27,176.3,564,178s6.84,6.84,5.37,10.26,13-2.64,13-2.64L573.08,177s-4.2-6.62,4.35-6.57,9.62.68,8.6,6.57a7,7,0,0,0,2.88-5.45s1.22-2.93-3.91-5.45S568.15,165.56,565.71,167.76Z" class="cls-9" transform="translate(-38.38 -38.44)"/><path d="M606,185.58s-11.72,1.22-15.87-2,9.28-7.33.24-17.34-22-2-24.66,1.47,3.42,11,5.37,12.94.49,4.88-5.13,4.88-14.23-.71-14.41,1c-.2,1.94-2.93,17.09-2.44,18.31s52.26-.24,56.9,0S606,185.58,606,185.58Zm-20.51-12.45c-1,4.15-9.52,6.1-12.45,0s3.73-8.23,10.72-6.35C586.23,167.45,586.46,169,585.49,173.13Z" class="cls-27" transform="translate(-38.38 -38.44)"/><path d="M606,204.87c1.39.07,1.94-1.62,2-4-8.56.17-44,.83-50.63.61-7.54-.24-4.29-15.71-4.26-15.83-.95.16-1.55.44-1.6.93-.2,1.94-2.93,17.09-2.44,18.31S601.36,204.63,606,204.87Z" class="cls-37" transform="translate(-38.38 -38.44)"/><path d="M589.64,168.24s3.91,3.35,0,8.88-3.64,7.24.87,9.19,13.66,1.34,13.66,1.34l2,11.35-3.91-8.79s-7.94-.73-12.58-2.56-5.71-3.54-2.73-8.18S591,172.12,589.64,168.24Z" class="cls-38" transform="translate(-38.38 -38.44)"/><path d="M503.94,345.9l.52-21.24,22.9-.47.29,20.52Zm1.9-19.85-.45,18.36,20.82-1L526,325.64Z" class="cls-27" transform="translate(-38.38 -38.44)"/><path d="M528,375.29H503.3l.52-21.16,23.9-.94Zm-23.28-1.42H526.6l-.27-19.2-21.12.83Z" class="cls-27" transform="translate(-38.38 -38.44)"/><path d="M504.59,316.55l.47-19.48H527l.27,18.85Zm1.86-18.07-.4,16.61,19.79-.55-.23-16.05Z" class="cls-27" transform="translate(-38.38 -38.44)"/><path d="M526.26,236H506.34l.39-16.1H526Zm-18.47-1.42h17l-.19-13.27H508.12Z" class="cls-27" transform="translate(-38.38 -38.44)"/><path d="M526.6,262.12H505.77l.43-17.77h20.14Zm-19.37-1.42h17.94l-.21-14.94H507.59Z" class="cls-27" transform="translate(-38.38 -38.44)"/><path d="M526.91,288.86H505.22l.46-18.67h21Zm-20.24-1.42h18.8l-.22-15.84H507.06Z" class="cls-27" transform="translate(-38.38 -38.44)"/><polygon points="474.09 186.7 472.32 186.7 474.09 194.03 478.65 194.03 492.16 175.47 476.29 189.48 474.09 186.7" class="cls-27"/><polygon points="471.87 266.43 469.88 266.43 471.87 274.65 476.99 274.65 492.16 253.81 474.34 269.55 471.87 266.43" class="cls-27"/><polygon points="471.87 295 469.88 295 471.87 303.22 476.99 303.22 492.16 282.38 474.34 298.12 471.87 295" class="cls-27"/><rect width="1.42" height="94.85" x="618.02" y="219.5" class="cls-27" transform="translate(-54.8 3.41) rotate(-3.82)"/><rect width="37.71" height="2.13" x="500.63" y="185.31" class="cls-6"/><rect width="26.45" height="2.13" x="501.93" y="191.35" class="cls-6"/><rect width="13.7" height="2.13" x="534.92" y="191.35" class="cls-6"/><rect width="39.84" height="2.13" x="500.95" y="208.75" class="cls-6"/><rect width="19.92" height="2.13" x="500.95" y="213.73" class="cls-6"/><rect width="46.56" height="2.13" x="502.58" y="231.39" class="cls-6"/><rect width="32.88" height="2.13" x="502.58" y="240.02" class="cls-6"/><rect width="14.96" height="2.13" x="542.34" y="240.02" class="cls-6"/><rect width="20.55" height="2.13" x="502.58" y="247.91" class="cls-6"/><rect width="22.87" height="2.13" x="504.54" y="263.17" class="cls-6"/><rect width="29.41" height="2.13" x="504.54" y="268.99" class="cls-6"/><rect width="26.7" height="2.13" x="504.54" y="290.15" class="cls-6"/><rect width="19.29" height="2.13" x="538.01" y="290.15" class="cls-6"/><rect width="43.12" height="2.13" x="504.54" y="296.21" class="cls-6"/><rect width="19.21" height="2.13" x="505.19" y="320.1" class="cls-6"/><rect width="30.16" height="2.13" x="505.51" y="326.61" class="cls-6"/><path d="M597.62,380.5v-1.42c1.6,0,61.91-1.29,62.52-1.3l0,1.42C657.68,379.25,599.23,380.5,597.62,380.5Z" class="cls-27" transform="translate(-38.38 -38.44)"/><polygon points="563.41 341.4 561.74 314.79 571.93 314.79 571.93 316.2 563.25 316.2 564.83 341.31 563.41 341.4" class="cls-27"/><polygon points="573.48 341.07 571.93 306.72 586.58 306.19 588.91 340.75 573.48 341.07" class="cls-39"/><path d="M611.18,380.23l-1.61-35.76,16-.57,2.43,36Zm-.13-34.39,1.48,32.95,14-.29-2.23-33.13Z" class="cls-27" transform="translate(-38.38 -38.44)"/><polygon points="605.99 340.39 604.49 296.6 585.93 296.6 588.91 340.75 605.99 340.39" class="cls-20"/><path d="M626.63,379.91l-3.07-45.58h20l1.55,45.19Zm-1.56-44.16L628,378.47l15.69-.33-1.45-42.39Z" class="cls-27" transform="translate(-38.38 -38.44)"/><polygon points="619.14 340.05 617.51 318.32 605.24 318.32 605.99 340.39 619.14 340.05" class="cls-24"/><path d="M643.69,379.55l-.8-23.5h13.67l1.73,23.12Zm.66-22.08.71,20.63,11.7-.3-1.52-20.33Z" class="cls-27" transform="translate(-38.38 -38.44)"/><rect width="67.99" height="1.42" x="505.32" y="396.78" class="cls-6" transform="translate(-43.8 -30.99) rotate(-0.79)"/><rect width="75.75" height="1.42" x="504.97" y="403.07" class="cls-6" transform="translate(-43.35 -31.67) rotate(-0.71)"/><rect width="14.73" height="1.42" x="590.5" y="196.12" class="cls-6"/><rect width="9.47" height="1.42" x="591.48" y="200.97" class="cls-6"/><rect width="11.49" height="1.42" x="593.75" y="237.76" class="cls-6"/><rect width="14.28" height="1.42" x="594" y="242.64" class="cls-6"/><ellipse cx="60.03" cy="405.04" class="cls-40" rx="46.76" ry="8.42"/><path d="M152.23,426.31c0-6.72,17.89-5.46,20.82-9.72s7-22,7-30.12c0-7.37-13.91-5.41-19.37-6.08-3.88-.47-4.45-2.87-4.07-8.32l-3.71,1-1.4,24.79,3.21.24c0-7.57.4-7,6.5-6.83s9.16-.86,8.18,6.83-1.34,11.6-5.25,12.58-10.29,2.32-10.29-1.83L151,409l-.73,17.36Z" class="cls-27" transform="translate(-38.38 -38.44)"/><path d="M157.07,420.37c5.53-1.47,7.44-4.76,8.29-8.18-6.72,1.59-12,2.6-12.89-1.84l-1.79,1-.4,15h1.3C151.39,422.45,153.35,421.35,157.07,420.37Z" class="cls-41" transform="translate(-38.38 -38.44)"/><path d="M163.52,387c-7.39-.16-8.18-1.79-8-6l-3.13,1.32-.68,12.47c.87.71,1.61.81,2-.28,1.3-3.9,1.69-4.16,8.41-4.11s9.46.4,8.67,5.62-1.07,10.7-3.12,16.56c4.09-2,5.51-11.07,6.76-18.07S170.91,387.12,163.52,387Z" class="cls-41" transform="translate(-38.38 -38.44)"/><ellipse cx="80.36" cy="326.5" class="cls-27" rx="38.32" ry="11.35"/><ellipse cx="80.36" cy="326.5" class="cls-42" rx="38.32" ry="11.35"/><ellipse cx="80.36" cy="326.34" class="cls-27" rx="32.57" ry="7.29"/><path d="M157,364.72c0,.07,0,.15,0,.22,0,6.27-17.16,11.35-38.32,11.35s-38.32-5.08-38.32-11.35c0,0,3.81,57.5,5.75,68.09,1.58,8.63,5.81,11.58,5.81,11.58h0c3.4,2.59,14.09,6.44,26.76,6.44s23.44-3.86,26.79-6.47v0s4.24-3,5.81-11.58c1.94-10.59,5.75-68.09,5.75-68.09Z" class="cls-27" transform="translate(-38.38 -38.44)"/><path d="M157.07,364.94c0,4.61-9.29,8.58-22.63,10.36,6.94,2.16,11.56,11.19,11.43,20.45C145.7,407,142.13,444,121.07,451c11.68-.43,21.32-4,24.47-6.42v0s4.24-3,5.81-11.58c1.94-10.59,5.75-68.09,5.75-68.09l-.05-.22C157.05,364.79,157.07,364.87,157.07,364.94Z" class="cls-43" transform="translate(-38.38 -38.44)"/><path d="M151.31,372.79A291.85,291.85,0,0,1,150.11,417c-1.59,14.71-3.52,22.48-4.94,26.5,1-.89,3.78-3.94,5-10.55,1.55-8.67,4.41-49.47,5.1-59.52C155.36,371.57,153.75,371.65,151.31,372.79Z" class="cls-10" transform="translate(-38.38 -38.44)"/><path d="M125.69,376.1c-2.25.12-4.57.19-6.94.19-21.16,0-38.32-5.08-38.32-11.35,0,0,3.81,57.5,5.75,68.09,1.58,8.63,5.81,11.58,5.81,11.58h0c3.4,2.59,14.09,6.44,26.76,6.44q1.18,0,2.33,0c-20.48-1-26-16.59-23.11-35C100.63,399.19,109.87,380.6,125.69,376.1Z" class="cls-44" transform="translate(-38.38 -38.44)"/><path d="M93.2,399.19c5.49-15.51,12.53-19,25.71-22.9h-.17c-21.16,0-38.32-5.08-38.32-11.35,0,0,3.81,57.5,5.75,68.09,1.58,8.63,5.81,11.58,5.81,11.58h0c3.33,2.54,13.7,6.29,26.07,6.42C86.13,449.38,86.86,417.11,93.2,399.19Z" class="cls-44" transform="translate(-38.38 -38.44)"/><path d="M92,444.61h0c2.58,2,9.41,4.66,18.1,5.83-16.5-3.24-22.44-11.13-23.91-33.53-1.37-20.77,1.69-35.15,6.52-43.65-7.54-2.07-12.27-5-12.27-8.32,0,0,3.81,57.5,5.75,68.09C87.75,441.65,92,444.61,92,444.61Z" class="cls-44" transform="translate(-38.38 -38.44)"/><path d="M144.07,382.07c-9.08-.19-8.3,8-1.79,9.6S151.89,382.24,144.07,382.07Z" class="cls-18" transform="translate(-38.38 -38.44)"/><path d="M145.85,394.46c-4.9-.24-5,3.78-1.45,4.73S149.41,394.64,145.85,394.46Z" class="cls-45" transform="translate(-38.38 -38.44)"/><path d="M92.85,369.2c6,1.74,15.33,2.87,25.9,2.87,18,0,32.57-3.26,32.57-7.29,0-1.13-1.16-2.21-3.22-3.16C143.53,364.31,127,372.12,92.85,369.2Z" class="cls-46" transform="translate(-38.38 -38.44)"/><g class="cls-47"><path d="M160.55,381.3c-1.91-.23-3-.94-3.56-2.26a4.07,4.07,0,0,0,4.19,4.07c5.11.23,10.7.42,14.14,1.05s2.38,7.61,1.07,13.47c-1.1,4.94-2.8,14.54-5.73,19.81a4.68,4.68,0,0,0,1.93-1.42c2.85-4.09,6.81-21.08,6.81-28.89C179.4,380.06,165.87,381.94,160.55,381.3Z" class="cls-10" transform="translate(-38.38 -38.44)"/><path d="M156.5,375.33c0-.62,0-1.28.09-2l-.58.16Z" class="cls-10" transform="translate(-38.38 -38.44)"/></g><path d="M478.36,456c.15,2.49-19.45,5.74-45,7.26s-46.39.73-46.54-1.76,20.45-5.74,46-7.26S478.21,453.51,478.36,456Z" class="cls-48" transform="translate(-38.38 -38.44)"/><path d="M482.78,465.15c.6,3-13.49,8.53-32.71,12.35S414.8,482,414.2,479s14.49-8.53,33.71-12.35S482.18,462.15,482.78,465.15Z" class="cls-49" transform="translate(-38.38 -38.44)"/><path d="M436.86,344.79s9.33,3.17,17,2.8,15.42-22.18,16.78-27.44,1.15-17.12,0-19.86-11.06,12.29-14,18.52-8.5,15.44-8.5,15.44l-10.85-2.49S434.07,340.68,436.86,344.79Z" class="cls-50" transform="translate(-38.38 -38.44)"/><path d="M436.86,344.79s9.33,3.17,17,2.8,15.42-22.18,16.78-27.44,1.15-17.12,0-19.86-11.06,12.29-14,18.52-8.5,15.44-8.5,15.44l-10.85-2.49S434.07,340.68,436.86,344.79Z" class="cls-51" transform="translate(-38.38 -38.44)"/><path d="M458.36,378.65c-1.53-1.07-7.44-2.27-7.44-2.27s.82-33.69,2-43.38,1.11-27.64,15.39-34.16c4.56,7-.61,79.82-.61,79.82Z" class="cls-50" transform="translate(-38.38 -38.44)"/><path d="M458.36,378.65c-1.53-1.07-7.44-2.27-7.44-2.27s.82-33.69,2-43.38,1.11-27.64,15.39-34.16c4.56,7-.61,79.82-.61,79.82Z" class="cls-52" transform="translate(-38.38 -38.44)"/><path d="M461.46,453.12s-6.45,2.56-7.3,3.93,18.54,1.33,23.09-2.58C474.44,452.48,461.46,453.12,461.46,453.12Z" transform="translate(-38.38 -38.44)"/><path d="M469.23,465.89s-7.42,4-7.79,5.29,9.28,1,14.45-.62,11.31-7.64,11.31-7.64S472.68,463.9,469.23,465.89Z" transform="translate(-38.38 -38.44)"/><path d="M456.65,372.46s1,27.87,2.18,42.3S462,448,461.46,453.12c2.73,2.56,11.87,2.77,15.8,1.35-2.32-21.17-3.57-37.67-3.82-45.79s6-38.25,6-38.25Z" class="cls-50" transform="translate(-38.38 -38.44)"/><path d="M456.65,372.46s1,27.87,2.18,42.3S462,448,461.46,453.12c2.73,2.56,11.87,2.77,15.8,1.35-2.32-21.17-3.57-37.67-3.82-45.79s6-38.25,6-38.25Z" class="cls-53" transform="translate(-38.38 -38.44)"/><path d="M487.44,368.08s-6.34,20.52-6.1,33.1,6.38,47.85,5.86,61.74c-5.39,3.39-18,3-18,3s-5.5-68.83-5.42-77.71.63-20.1.63-20.1Z" class="cls-50" transform="translate(-38.38 -38.44)"/><path d="M487.21,462.56c-2.37-.57-6.58-1.83-7.77-3.8-1.69-2.8-6.81-23.2-7.45-26.45s-1.86-30.75-.42-35.5c1.24-4.11,11.13-17.58,13.77-21.13,1.15-4.51,2.11-7.6,2.11-7.6h-23s-.54,11.22-.62,20.1,5.42,77.71,5.42,77.71,12.58.42,18-3C487.21,462.8,487.21,462.68,487.21,462.56Z" class="cls-54" transform="translate(-38.38 -38.44)"/><path d="M464.44,368.08s-.46,9.54-.6,18l21.46-10.36,0,0c.41-1.59.79-3,1.11-4.17.13-1.1.26-2.3.39-3.43Z" class="cls-54" transform="translate(-38.38 -38.44)"/><path d="M468.56,372.06s-9.32,1.9-13,0c.84-9.75,1.32-26.25.72-35.12a70.85,70.85,0,0,1,4.14-28c2.43-6.09,6.61-8,6.61-8l8.83-4.71Z" class="cls-10" transform="translate(-38.38 -38.44)"/><path d="M468.46,326.73s-2.54-13.4-1-26l-.37.2s-4.18,1.95-6.61,8a70.85,70.85,0,0,0-4.14,28c.6,8.88.12,25.37-.72,35.12,3.65,1.9,13,0,13,0l2.18-22.6Z" class="cls-55" transform="translate(-38.38 -38.44)"/><path d="M465.74,353.81c-10.36-17-6.63-40.87-6.61-41a72.58,72.58,0,0,0-2.81,24.12c.6,8.88.12,25.37-.72,35.12,3.65,1.9,13,0,13,0l1-10.58A48.13,48.13,0,0,0,465.74,353.81Z" class="cls-6" transform="translate(-38.38 -38.44)"/><path d="M462.85,379.41s-2.06-20.94-1.17-36.82,3.89-30.51,6-35.79a20.78,20.78,0,0,1,6.5-8.39l2.52-4.45.11-.85s8.57.69,11.94,16.19c3.33,15.31,1.44,55.25,3.19,63.38C486.69,380.93,473.77,378.38,462.85,379.41Z" class="cls-50" transform="translate(-38.38 -38.44)"/><path d="M491.39,367.51c-.77-13.71.22-45-2.64-58.2-3.37-15.5-11.94-16.19-11.94-16.19l-.08.59,1.84,1.6s5.86,1.44,8.87,15.75.61,46.67,3.77,56A4.72,4.72,0,0,0,491.39,367.51Z" class="cls-43" transform="translate(-38.38 -38.44)"/><path d="M491.94,372.68a62.12,62.12,0,0,1-.71-9.16c-.49,4.35-1.31,8.49-2.68,9.37-18.67,5.51-22.83-7.84-22.8-13.42s.85-16.09,8.47-17.85c5.89-1.36,7.33-15.26,7.33-15.26s4.33-29.66-2.69-28c-4.06.93-9.23,8.15-12.88,14.08a173.65,173.65,0,0,0-4.29,30.18c-.9,15.88,1.17,36.82,1.17,36.82C473.77,378.38,486.69,380.93,491.94,372.68Z" class="cls-56" transform="translate(-38.38 -38.44)"/><path d="M454.19,272.23s0,5.23.27,6.91-1.24,5.84-1.53,6.29,1.12.89,2.67,1.43c.59,3,2,7.06,2.7,7.87s8.25-1.06,8.25-1.06l.63,5.8,10-5.8s-2.69-3.83-2.41-5.55,3.66-12.55-2.09-16.63S457.24,267.65,454.19,272.23Z" class="cls-57" transform="translate(-38.38 -38.44)"/><path d="M476.81,293.12c-9.74,2.9-8.76-1.34-8.76-1.34s-7.83,1.94-8.52,1-2.44-7.93-2.44-7.93l-2.54.38a15,15,0,0,0,1.05-5c.05-2.67-.05-6.5,3.92-7.17,1,3.5,4.8,5.33,4.8,5.33l2.27,3.92,1.78-12.91c-5.43-1.66-11.82-.72-14.18,2.84,0,0,0,5.23.27,6.91s-1.24,5.84-1.53,6.29,1.12.89,2.67,1.43c.59,3,2,7.06,2.7,7.87s8.25-1.06,8.25-1.06l.63,5.8,9.94-5.75Z" class="cls-58" transform="translate(-38.38 -38.44)"/><path d="M466.6,282.31a9.49,9.49,0,0,1-1.52-5.52c-3.6,0-4.48-2.88-4.62-4.55-3.81-.42-8-.18-9.09-1s7.13-6.42,12.08-6.83,10.45,1,13.12,4.21c2.67,4-2,20-2,20a53.39,53.39,0,0,0-3.84-5.43C469.81,282.39,466.6,282.31,466.6,282.31Z" class="cls-27" transform="translate(-38.38 -38.44)"/><path d="M459.52,279.63h-2.87S457.73,282.29,459.52,279.63Z" class="cls-59" transform="translate(-38.38 -38.44)"/><polygon points="440.18 256.87 438.62 253.34 427.43 259.62 426.68 266.43 440.18 256.87" class="cls-10"/><path d="M480.4,297.72c-2.4.28-9.33,5.49-14.17,28.37-6.5,1.54-25.43,1.92-25.43,1.92s-2.42,8.28,0,14.58c11.43-1.29,35.39-3.54,36.91-3.54,1.77-.17,8.29-22.41,8.27-28.06S484.65,297.22,480.4,297.72Z" class="cls-50" transform="translate(-38.38 -38.44)"/><path d="M480.4,297.72c-2.4.28-9.33,5.49-14.17,28.37-6.5,1.54-25.43,1.92-25.43,1.92s-2.42,8.28,0,14.58c11.43-1.29,35.39-3.54,36.91-3.54,1.77-.17,8.29-22.41,8.27-28.06S484.65,297.22,480.4,297.72Z" class="cls-54" transform="translate(-38.38 -38.44)"/><path d="M447.21,338c-4.83-2.07-5-6.88-4.47-10l-1.94,0s-2.42,8.28,0,14.58c9-1,25.62-2.61,33.13-3.25C467.08,339.78,452.79,340.36,447.21,338Z" class="cls-54" transform="translate(-38.38 -38.44)"/><path d="M466.23,326.09l2.23.64-28.35,4.58c-.47,3-.77,7.49.69,11.28,3.4-.38,7.9-.85,12.59-1.32,7.56-7.67,24-13.88,24-13.88s.66-1-3.34-1.29c0-.44,1.27-22.91,4.81-27.76C475.75,300.23,470.26,307,466.23,326.09Z" class="cls-56" transform="translate(-38.38 -38.44)"/><path d="M442.5,338.84c-.89-1.47-1.32-5-1.53-7.67l-.86.14c-.47,3-.77,7.49.69,11.28,3.4-.38,7.9-.85,12.59-1.32l.32-.31C448.68,340.69,443.28,340.11,442.5,338.84Z" class="cls-53" transform="translate(-38.38 -38.44)"/><path d="M440.8,328H437s-1,7,2.75,10C439.76,334.63,439.63,331,440.8,328Z" class="cls-10" transform="translate(-38.38 -38.44)"/><path d="M437,328l-5.23-1.63a11.77,11.77,0,0,0-1.94-3.49c-1.08-1.08-3.33-.34-4.66,0s-4,.09-4.33.59-.75,3.58,0,4.54,9.67,5,9.67,5l7.12,1.88A14.11,14.11,0,0,1,437,328Z" class="cls-57" transform="translate(-38.38 -38.44)"/><path d="M424,323c-1.34.1-2.94,0-3.2.43s-.75,3.58,0,4.54,9.67,5,9.67,5l7.12,1.88a13,13,0,0,1-.77-4.14,19.23,19.23,0,0,1-6.16-2.13C428.75,327.25,425.5,324.38,424,323Z" class="cls-58" transform="translate(-38.38 -38.44)"/><path d="M428.1,322.32a18.65,18.65,0,0,0,1.71-3.85c.59-2-3.58,1.66-4.66,4.41A26.8,26.8,0,0,1,428.1,322.32Z" class="cls-23" transform="translate(-38.38 -38.44)"/><polygon points="405.1 306.67 398.91 293.32 377.6 288.29 377.02 290.73 392.85 301.63 405.1 306.67" class="cls-60"/><path d="M440.8,344.22s-1.31,1-5.28.41a5.3,5.3,0,0,1-4.84-5.27c.21-1.23,4.27,2.24,4.27,2.24s-.4-2.72-.06-3.13S438.13,343.34,440.8,344.22Z" class="cls-57" transform="translate(-38.38 -38.44)"/><polygon points="403.66 306.08 405.1 306.67 398.91 293.32 377.6 288.29 377.02 290.73 398.11 295.12 403.66 306.08" class="cls-55"/><path d="M468.16,264.53a20.85,20.85,0,0,0-4.71-.15c-5,.41-13.21,6-12.08,6.83s5.28.59,9.09,1c.14,1.67,1,4.55,4.62,4.55a9.49,9.49,0,0,0,1.52,5.52,17.45,17.45,0,0,1,2.33.24l1.15-6.07a14.87,14.87,0,0,1-3.48,1.25c-.28-2.67-1.88-3.83-2.78-5.49s-3.27-1.67-3.26-3.44C460.55,267.28,462,265.21,468.16,264.53Z" class="cls-61" transform="translate(-38.38 -38.44)"/><path d="M467.68,285.22a6,6,0,0,0,4.3-6c-.17-4.83-4.85-3-5.38,3.08A6.65,6.65,0,0,0,467.68,285.22Z" class="cls-57" transform="translate(-38.38 -38.44)"/><path d="M480.4,297.72a3.42,3.42,0,0,0-1.09.36c3.08,1.57,4.89,8,2.24,22.06-2.27,12-3.55,17-4.1,18.92h.26c1.77-.17,8.29-22.41,8.27-28.06S484.65,297.22,480.4,297.72Z" class="cls-62" transform="translate(-38.38 -38.44)"/><path d="M483.21,384.94c-1.77,6.06-3.93,14-3.77,15.95.27,3.33,1.5,25,2.31,27,.66,1.65,4.1,26.46,5.29,35.13l.17-.1c.51-13.89-5.62-49.17-5.86-61.74A80.72,80.72,0,0,1,483.21,384.94Z" class="cls-43" transform="translate(-38.38 -38.44)"/></g></g></svg>