<svg id="Layer_1" data-name="Layer 1" xmlns="http://www.w3.org/2000/svg" viewBox="0 0 1002.32 595.61"><defs><style>.cls-1,.cls-2,.cls-3,.cls-36,.cls-37,.cls-38,.cls-39,.cls-40,.cls-45{fill:none;stroke-linecap:round;stroke-linejoin:round;}.cls-1{stroke:#e95c64;}.cls-1,.cls-40,.cls-45{stroke-dasharray:2 3;}.cls-2,.cls-3,.cls-40{stroke:#809c30;}.cls-3{stroke-dasharray:1.93 2.9;}.cls-4{fill:#e7dac7;}.cls-5{fill:#496629;}.cls-6{fill:#709a45;}.cls-7{fill:#fc4747;}.cls-41,.cls-8{fill:#400;}.cls-9{fill:#dec9ab;}.cls-10{fill:#fff;}.cls-11{fill:#ffd44f;}.cls-12{fill:#f79c7a;}.cls-13{fill:#33302e;}.cls-14{fill:#f7c59f;}.cls-15{fill:#f33;}.cls-16{fill:#b62121;}.cls-17{fill:#484442;}.cls-18{fill:#e95c64;}.cls-19,.cls-30{fill:#ff9197;}.cls-20{fill:#34ada2;}.cls-21{fill:#5dded3;}.cls-22{fill:#faa92d;}.cls-23{fill:#809c30;}.cls-24{fill:#accb55;}.cls-25{fill:#e2cfb3;}.cls-26{fill:#f07a6c;}.cls-27{fill:#aa473b;}.cls-28{fill:#5b5b5b;}.cls-29{fill:#9a9a9a;}.cls-30,.cls-32,.cls-33{font-size:34.37px;}.cls-30,.cls-31,.cls-32,.cls-33,.cls-41{font-family:Garamond, Garamond;}.cls-30,.cls-33{letter-spacing:-0.02em;}.cls-31,.cls-41{font-size:33.24px;letter-spacing:-0.02em;}.cls-31{fill:#46a79e;}.cls-32{fill:#819840;letter-spacing:-0.02em;}.cls-33{fill:#bf800c;}.cls-34{fill:#f79b6f;}.cls-35{fill:#478ea6;}.cls-36{stroke:#400;stroke-width:1.2px;}.cls-37,.cls-38,.cls-39{stroke:#34ada2;}.cls-38{stroke-dasharray:2.01 3.02;}.cls-39{stroke-dasharray:2.01 3.01;}.cls-42{letter-spacing:-0.08em;}.cls-43{letter-spacing:-0.02em;}.cls-44{letter-spacing:-0.07em;}.cls-45{stroke:#f70;}.cls-46{fill:#ffab10;}</style></defs><title>into</title><polyline class="cls-1" points="980.36 405.83 980.36 505.33 898.06 505.33"/><line class="cls-2" x1="313.43" y1="122.74" x2="314.43" y2="122.74"/><line class="cls-3" x1="317.33" y1="122.74" x2="378.67" y2="122.74"/><line class="cls-2" x1="380.12" y1="122.74" x2="381.12" y2="122.74"/><g id="Layer0_1_FILL" data-name="Layer0 1 FILL"><path class="cls-4" d="M926.76,801q26.84-45,42.2-68.74-4.81-7,0-22.37-15.35,23.69-42.2,68.74-15.56,26.13-29.19,49.52c.22,1.64.09,2.79-.4,3.46a15.83,15.83,0,0,0-1.73,14.13q2.67,1.1,2.13,4.78Q911.2,827.15,926.76,801m-107.58,5a28.63,28.63,0,0,0,0,4.37q2.66.92,7.53,2.74l8.75,3.36q1.81.76,3.76,1.52-1.94-.77-3.76-1.52-.62,1.75-1.73,4.37,8.38,3.44,17.29,7l44.44,17.9a15.83,15.83,0,0,1,1.73-14.13q-25.83-10.28-45.25-18.1-16.42-6.57-32-12.61a36.58,36.58,0,0,0-.71,5.09l7.12,2.85L819.18,806m18.61,7.22q1.45.59,2.85,1.22-1.39-.63-2.85-1.22M829.15,810q2.73,1,4.78,1.83Q831.88,811,829.15,810Z" transform="translate(-37.35 -255.37)"/><path class="cls-5" d="M833.72,820.84q-.62,1.57-1.42,3.36,10.65,4.33,22.17,8.95l43.11,17.39q.54-3.68-2.13-4.78L851,827.86q-8.91-3.57-17.29-7m-13-23.39q-3.09-1.14-6.2-2.34-4,13.88,1.73,22.57,3,1.24,6.1,2.54.93-1.48,1.93-3.15-2.08-.85-4.17-1.73a23.41,23.41,0,0,1-.92-5,28.63,28.63,0,0,1,0-4.37,36.58,36.58,0,0,1,.71-5.09q15.61,6,32,12.61,19.41,7.82,45.25,18.1c.49-.67.63-1.82.4-3.46q-22.65-9.2-43.22-17.39Q837.19,803.9,820.71,797.45Z" transform="translate(-37.35 -255.37)"/><path class="cls-6" d="M814.5,795.11q3.11,1.2,6.2,2.34,16.49,6.44,33.66,13.32,20.56,8.19,43.22,17.39,13.63-23.39,29.19-49.52,26.84-45,42.2-68.74-22.24-8.91-42.81-17.39t-40.27-15.76q-15.33,23.77-42.2,68.84Q828.13,771.73,814.5,795.11Z" transform="translate(-37.35 -255.37)"/><path class="cls-7" d="M833.72,820.84q1.11-2.61,1.73-4.37l-8.75-3.36q-1.48,2.32-2.44,4t-1.93,3.15q-3.67,6.21-5.39,8.85,4.43-1.13,7.12-1.53a.86.86,0,0,0,.31-.1,41,41,0,0,1,2.95,5.69,2.92,2.92,0,0,1,.21.61l.51.92q.62-.22,1.93-4.07,2.25-6.08,2.34-6.4Q833.1,822.41,833.72,820.84Z" transform="translate(-37.35 -255.37)"/></g><g id="Layer0_1_1_STROKES" data-name="Layer0 1 1 STROKES"><path class="cls-8" d="M814.51,795.51c27.82,10.7,55.46,21.84,83.07,33,.11,0,.32,0,.38-.08,19.4-33.28,39-66.49,59.32-99.21q6-9.57,12.06-19.05c.2-.3-.13-.61-.39-.71-27.67-11.09-55.08-22.85-83.08-33.1a.35.35,0,0,0-.38.08c-24.74,38.3-47.75,77.77-70.71,117.16-2.57,4.4-2.86,11.21-2,16.16a21,21,0,0,0,2.38,6.82c1.41,2.5,4.59,2.89,7.13,4,.13.06.4.13.5,0l1.88-3.15c.19-.31-.12-.6-.39-.71-2.23-.91-3.81-1.18-4.3-3.69a26.3,26.3,0,0,1-.33-6.81,13.52,13.52,0,0,1,.37-3.28c.57-1.64,1-1.18,2.5-.58l6.13,2.39q12,4.69,24,9.49,22.26,9,44.55,17.82c.11,0,.32,0,.38-.08a5.7,5.7,0,0,0,.46-3.64c0-.43-1-.81-.9-.27s.35,2,0,2.53c-.61.81-2-.16-2.69-.43L889,828l-10.34-4.12-18.53-7.42q-20.1-8.07-40.28-15.93c-.14-.05-.4,0-.43.17a32.77,32.77,0,0,0-.52,11.35c.15,1,.24,2.84.93,3.59.84.92,3.24,1.38,4.39,1.85l-.39-.71c-.48.8-1,2.24-1.85,2.57s-2.18-.56-3.07-.92a5.85,5.85,0,0,1-3.79-3.44,23.36,23.36,0,0,1-1.78-11.31,34.3,34.3,0,0,1,1.08-6.55,26.58,26.58,0,0,1,3.13-6.31q3.33-5.71,6.68-11.4,14-23.83,28.2-47.53,11.82-19.67,23.92-39.17,2.46-3.94,4.94-7.86l2.23-3.5c.61-1,1.37-2.85,2.27-3.54,1.14-.87,4,.86,5.34,1.35q3.55,1.32,7.09,2.67,6.28,2.39,12.53,4.86c19.46,7.69,38.74,15.83,58.17,23.62l-.39-.71C954.68,731,941.51,753,928.4,774.92Q916,795.7,903.78,816.57c-1.85,3.16-3.47,6.83-5.69,9.74-.82,1.07-1.07,1.07-2.36.71A27.39,27.39,0,0,1,893,825.9l-5.91-2.39q-11.23-4.54-22.47-9.05-25-10-50.08-19.73c-.61-.23-.44.62,0,.79Z" transform="translate(-37.35 -255.37)"/><path class="cls-8" d="M837.84,813.66q1.35.53,2.68,1.12c.6.27.73-.47.22-.7q-1.44-.65-2.91-1.22a.31.31,0,0,0-.44.26c0,.25.25.45.45.53Z" transform="translate(-37.35 -255.37)"/><path class="cls-8" d="M835.07,816.29c-.58,1.46-1.18,2.92-1.78,4.37-.12.28.23.54.44.63q30.85,12.47,61.72,24.91a.31.31,0,0,0,.43-.37,16.38,16.38,0,0,1,1.69-13.9c.25-.41-.54-1-.78-.63A17.13,17.13,0,0,0,895,845.78l.43-.37q-30.85-12.48-61.72-24.91l.44.63c.6-1.45,1.2-2.91,1.78-4.37.16-.42-.68-.94-.87-.46Z" transform="translate(-37.35 -255.37)"/><path class="cls-8" d="M835.5,816.91l3.71,1.48c.61.24.44-.62,0-.79l-3.71-1.48c-.6-.24-.44.61,0,.79Z" transform="translate(-37.35 -255.37)"/><path class="cls-8" d="M833.29,820.66,831.91,824c-.12.28.23.54.44.63Q865,837.8,897.58,850.93a.31.31,0,0,0,.44-.26c.25-2.31-.28-4.18-2.47-5.21-.59-.28-.73.46-.22.7,1,.48,2.92,3.1,1.32,3.61-.75.24-3.77-1.52-4.59-1.85l-8.6-3.47-17.13-6.91q-17-6.85-34-13.68l.44.63,1.37-3.36c.17-.42-.67-.94-.87-.46Z" transform="translate(-37.35 -255.37)"/><path class="cls-8" d="M835.5,816.12l-8.8-3.4a.35.35,0,0,0-.38.08c-.83,1.31-1.65,2.63-2.44,4-.24.41.54,1,.78.63q.71-1.21,1.45-2.4c.91-1.46,1.24-1.24,2.71-.67l6.69,2.59c.61.24.44-.62,0-.79Z" transform="translate(-37.35 -255.37)"/><path class="cls-8" d="M829.2,810.36l4.78,1.83c.61.23.44-.62,0-.79l-4.78-1.83c-.61-.23-.44.62,0,.79Z" transform="translate(-37.35 -255.37)"/><path class="cls-8" d="M819.18,810.76c2.52.87,5,1.81,7.53,2.74.61.23.45-.62,0-.79-2.5-.94-5-1.87-7.53-2.74-.62-.21-.45.63,0,.79Z" transform="translate(-37.35 -255.37)"/><path class="cls-8" d="M819.18,806.44l7.17,2.8c.61.24.44-.62,0-.79l-7.17-2.8c-.61-.24-.44.62,0,.79Z" transform="translate(-37.35 -255.37)"/><path class="cls-8" d="M968.53,709.67c-1.47,4.82-2.72,9.94-2.36,15a17.67,17.67,0,0,0,.93,4.73c.25.71.66,1.35.93,2,.4,1,0,1.39-.64,2.32q-6.87,10.66-13.51,21.46C941.64,775,929.71,795,917.85,815q-10.39,17.55-20.66,35.17c-.24.41.55,1,.78.63,19.4-33.29,39-66.49,59.32-99.21q6-9.57,12.06-19.05a.36.36,0,0,0,0-.39c-4.23-6.46-2-15.26,0-22.06.13-.43-.72-.95-.87-.46Z" transform="translate(-37.35 -255.37)"/><path class="cls-8" d="M831.91,824c-.53,1.2-.92,2.48-1.37,3.71-.62,1.71-1.24,5.49-2.83,6.62l.7.3c-1.17-2.44-2.21-4.89-3.61-7.22a.64.64,0,0,0-.61-.33,69.88,69.88,0,0,0-7.47,1.58l.61.73c1.88-2.91,3.66-5.88,5.44-8.85.25-.41-.54-1-.78-.63-1.78,3-3.56,5.94-5.44,8.85-.22.34.26.81.61.73,1.33-.33,2.66-.66,4-.95.57-.12,2.55-.84,3.12-.58s1.35,2.46,1.68,3.15c.59,1.22,1.09,2.47,1.68,3.69.1.2.48.46.7.3,1.45-1,2-4,2.55-5.45.62-1.71,1.16-3.5,1.89-5.17.18-.41-.66-.93-.87-.46Z" transform="translate(-37.35 -255.37)"/></g><g id="Layer0_2_FILL" data-name="Layer0 2 FILL"><path class="cls-9" d="M148.1,726.38q5.18,43.42,14,71.08,16-1.93,52.77-14.54,11.69-4,32.84-11.29l-3.46-10.47q-5.8-18-11.59-43.22-8.95-38.85-8.95-48.5-14.95,3.35-29.49,6-29.08,5.19-50.33,4.78Q144.23,694.36,148.1,726.38Z" transform="translate(-37.35 -255.37)"/></g><g id="Layer0_2_1_STROKES" data-name="Layer0 2 1 STROKES"><path class="cls-8" d="M244.73,761c-4.5-14-8.14-28.28-11.45-42.61-2.88-12.47-5.74-25-7.8-37.64a73,73,0,0,1-1.26-11.23.53.53,0,0,0-.67-.54c-26.1,5.84-52.84,11.21-79.7,10.75a.45.45,0,0,0-.41.5c.33,14,2,27.95,3.65,41.82a519.07,519.07,0,0,0,8.49,52.75c1.72,7.68,3.71,15.3,6.09,22.8a.53.53,0,0,0,.52.33c12.88-1.6,25.52-5.65,37.84-9.58,16.06-5.12,32-10.76,47.9-16.27a.45.45,0,0,0,.26-.6L244.73,761a.47.47,0,0,0-.89.3l2.18,6.61c.3.9,1.09,2.31,1.07,3.25s.69,0-.48.34c-1.53.41-3,1-4.54,1.57q-13.68,4.73-27.37,9.39c-10.45,3.56-21,7-31.6,9.94-3.85,1.06-7.72,2.05-11.62,2.91-1.66.36-3.33.7-5,1q-1.15.2-2.3.38a6.45,6.45,0,0,1-.87.13c-.92,0-.57.19-1-.45a10.94,10.94,0,0,1-.88-2.86q-.49-1.63-1-3.28-1.05-3.7-2-7.44-1.78-7.06-3.22-14.19c-2.28-11.13-4.08-22.36-5.57-33.63q-2.28-17.14-3.9-34.38c-.38-4.12-.73-8.24-1-12.37-.11-1.68-.2-3.36-.27-5a6.2,6.2,0,0,1-.07-2.12c.36-.74-.19-.2.64-.37a12,12,0,0,1,2.16,0c25.87,0,51.57-5.21,76.71-10.83l-.67-.54c0,8.12,2,16.39,3.64,24.3,3.09,15.3,6.57,30.55,10.55,45.64,2,7.39,4.05,14.74,6.39,22A.47.47,0,0,0,244.73,761Z" transform="translate(-37.35 -255.37)"/></g><g id="Layer0_3_FILL" data-name="Layer0 3 FILL"><path class="cls-10" d="M973.13,404.44a46.25,46.25,0,0,0-78.4,26q-7.21-.33-13.93-.81,5.61,4.5,12.92,9.56l.61.41a46.2,46.2,0,1,0,78.81-35.18Z" transform="translate(-37.35 -255.37)"/></g><g id="Layer0_3_1_STROKES" data-name="Layer0 3 1 STROKES"><path class="cls-8" d="M986.19,437a45.15,45.15,0,0,1-10,28.59A45.93,45.93,0,0,1,950.8,481.7c-21.15,4.69-43.28-6-52.2-25.9a42.68,42.68,0,0,1-2.68-8.07q-.46-2.06-.74-4.15c-.14-1.07.17-3.09-.35-3.9a7,7,0,0,0-2.07-1.61q-2.12-1.49-4.22-3-3.81-2.77-7.49-5.71l-.17.77q7,.5,13.93.81a.37.37,0,0,0,.37-.34c2.52-17.61,15.84-33.05,33.13-37.67a46.25,46.25,0,0,1,48.18,15.9A45,45,0,0,1,986.19,437c0,.51.94.82.93.22-.15-19.62-12.56-37.82-31.35-44.26a47.26,47.26,0,0,0-53.07,16.67,44.36,44.36,0,0,0-7.17,14.54c-.36,1.28-.65,2.58-.9,3.89a7.39,7.39,0,0,1-.26,1.55c-.55.74-1.83.35-2.6.31q-5.54-.28-11.07-.67c-.46,0-.43.55-.17.77q3.33,2.65,6.76,5.17c2.18,1.6,6.2,3.41,6.73,6.11.49,2.52.61,5.07,1.25,7.58a44.06,44.06,0,0,0,2.49,7.19,48.45,48.45,0,0,0,20.45,22.1c18.49,10.26,42.11,6,56.43-9.25a46.08,46.08,0,0,0,12.47-31.68C987.12,436.68,986.19,436.37,986.19,437Z" transform="translate(-37.35 -255.37)"/></g><g id="Layer0_4_MEMBER_0_FILL" data-name="Layer0 4 MEMBER 0 FILL"><path class="cls-11" d="M857.92,469.42q.1,1.53.61,7.32.14,2.06.3,4.68h23.39q-1.19-2.89-2.34-5.49a122.1,122.1,0,0,0-20.75-33.35l-33.25-6.71a35.75,35.75,0,0,1,2.64,3.05q1.63,1.83,1.52,6.1a7.48,7.48,0,0,1-2.24,5,13.19,13.19,0,0,1-3,2A24.74,24.74,0,0,1,814.2,455h-.4A24.56,24.56,0,0,1,803.32,452q-1.12-.61-2-1.22A7.48,7.48,0,0,1,798,445q-.11-4.27,1.53-6.1a35.43,35.43,0,0,1,2.64-3.05L771.39,442a105,105,0,0,0-23.18,34,1.3,1.3,0,0,1-.31.51q-1,2.38-2.13,5h23.39q.24-2.63.41-4.68a.77.77,0,0,1,.1-.3q.4-5.49.51-7-.1,1.53-.51,7a.77.77,0,0,0-.1.3q-.16,2.05-.41,4.68h89.69q-.16-2.62-.3-4.68Q858,470.94,857.92,469.42Z" transform="translate(-37.35 -255.37)"/><path class="cls-12" d="M830.06,445q.1-4.27-1.52-6.1a35.75,35.75,0,0,0-2.64-3.05,31.78,31.78,0,0,1-.3,3.86,31.78,31.78,0,0,0,.3-3.86q.31-6.2.3-17.29-10.27,2.75-23.79.51-.51,10.58-.2,16.78a31.33,31.33,0,0,0,.3,3.86,31.33,31.33,0,0,1-.3-3.86,35.43,35.43,0,0,0-2.64,3.05q-1.63,1.83-1.53,6.1a7.48,7.48,0,0,0,3.25,5.8q.91.61,2,1.22A24.56,24.56,0,0,0,813.79,455h.4A24.74,24.74,0,0,0,824.77,452a13.19,13.19,0,0,0,3-2A7.48,7.48,0,0,0,830.06,445Z" transform="translate(-37.35 -255.37)"/></g><g id="Layer0_4_MEMBER_0_1_STROKES" data-name="Layer0 4 MEMBER 0 1 STROKES"><path class="cls-8" d="M857.46,469.3c.27,4,.65,8,1,12,0,.49,1,.81.92.23-.32-4-.69-8-1-12,0-.49-1-.81-.92-.23Z" transform="translate(-37.35 -255.37)"/><path class="cls-8" d="M882.69,481.31c-3.55-8.21-7.21-16.3-12-23.89a115.1,115.1,0,0,0-7.13-10.15c-1.21-1.54-2.8-4.37-4.62-5.15a16.74,16.74,0,0,0-3.14-.63l-5.95-1.2-14.69-3-9.28-1.87a.37.37,0,0,0-.36.63c1.56,1.61,3.29,3.35,3.8,5.59a8.35,8.35,0,0,1-1.85,7.88c-3.18,3.24-9.1,5-13.56,5s-11-1.87-13.94-5.49c-1.68-2.06-1.85-5-1.21-7.48.55-2.14,2.29-3.85,3.79-5.4.33-.34-.27-.81-.6-.74l-21.35,4.23-5.94,1.18a19.35,19.35,0,0,0-3.27.65c-1.9.76-3.73,3.52-5.1,5a104.06,104.06,0,0,0-7.83,9.85c-5.42,7.74-9.44,16.15-13.12,24.82-.2.46.66,1,.88.44a136.68,136.68,0,0,1,11.6-22.56,103.63,103.63,0,0,1,7.31-9.71q1.91-2.25,3.94-4.38c.76-.8,1.67-2.17,2.65-2.63a13.37,13.37,0,0,1,2.89-.57l5.52-1.09L793.84,438l8.57-1.7-.6-.74c-1.8,1.86-3.57,3.71-4,6.32a9.29,9.29,0,0,0,1.08,6.95c2.93,4.38,10.13,6.59,15.15,6.6,4.86,0,12-1.95,15-6.09a9.32,9.32,0,0,0,1.29-7.33c-.49-2.61-2.28-4.48-4.08-6.34l-.36.63,21,4.23,11,2.22c1.63.33,1.84,1,3,2.46a111.26,111.26,0,0,1,7.28,9.75c5.57,8.36,9.72,17.39,13.7,26.58.21.5,1.08.39.82-.21Z" transform="translate(-37.35 -255.37)"/><path class="cls-8" d="M769.66,481.53c.3-4,.7-8,1-12,0-.49-.88-.82-.92-.23-.27,4-.67,8-1,12,0,.49.88.82.92.23Z" transform="translate(-37.35 -255.37)"/><path class="cls-8" d="M802.66,436c-.14-3-.14-5.9-.08-8.86q.05-2.56.16-5.12c0-.84-.22-1.84.61-2.34.38-.23,1.91.27,2.48.34a55.33,55.33,0,0,0,20.57-1l-.67-.54c0,6.92.45,14.28-.61,21.15-.08.49.83.82.92.23,1.06-6.87.6-14.23.61-21.15a.57.57,0,0,0-.67-.54c-7.74,2-15.72,1.76-23.56.51-.22,0-.47,0-.48.31-.26,5.59-.46,11.19-.2,16.78,0,.49.95.82.92.23Z" transform="translate(-37.35 -255.37)"/><path class="cls-8" d="M801.74,435.75a30.45,30.45,0,0,0,.31,4c.09.5,1,.63.9,0a28.74,28.74,0,0,1-.29-3.75c0-.49-.94-.82-.92-.23Z" transform="translate(-37.35 -255.37)"/></g><g id="Layer0_4_MEMBER_1_FILL" data-name="Layer0 4 MEMBER 1 FILL"><path class="cls-13" d="M886,388.48a26.78,26.78,0,0,0,3.76-7.83,88.06,88.06,0,0,1-9.66,2.65q1,6.91,1.42,10.27,1.83-1,4.47-5.08M747.7,393.87q.4-3.35,1.42-10.57-4.88-1.12-8.34-2.24a43.67,43.67,0,0,0,3.66,8.34,33.8,33.8,0,0,0,3.25,4.47m35-126.09a14.32,14.32,0,0,0-7.63-3.15,24.19,24.19,0,0,0-5.79-.3h-1.73a18,18,0,0,1,4,3.56,18.49,18.49,0,0,1,2.34,4.58,10.26,10.26,0,0,1,2-.2,10.26,10.26,0,0,0-2,.2q-25.52,2.13-34.17,25.83-9.25,25.52-2.44,58.47,5.49-2.74,15.45.21.81-5.59,1.22-10.37-1.73-.3-3.56-.81c-.88-.27-1.66-.54-2.34-.81.68.27,1.46.54,2.34.81q1.83.51,3.56.81a36,36,0,0,0,5.29.41q15.86,0,33-12.71,12.91-9.56,15.25-16.07a9.5,9.5,0,0,1-.81-3.36,9.5,9.5,0,0,0,.81,3.36q1,1.93,2.85,4.78a29.22,29.22,0,0,0,8.54,8.74q7.42,4.68,20.13,6.41,6.1.51,9.36.71a55.2,55.2,0,0,1-6.71-6.91q-3.76-4.58-7.83-13.83-1.22-2.74-2.44-5.9,1.22,3.15,2.44,5.9,5.8,7,18.1,15.86a63.37,63.37,0,0,0,22.78,9.66,88.86,88.86,0,0,0,8.85,1.63,88.86,88.86,0,0,1-8.85-1.63q1.32,9.56,1.73,13.32,11.29-3.36,16.88.41l.2.2q1.22-12.2,1.22-19.83,0-28.17-18.51-51.86-23.18-30-64.16-30-13.42,0-20.95,3.76a19.93,19.93,0,0,0-8.44,8.13,6.5,6.5,0,0,1,1.22,1.12A6.5,6.5,0,0,0,782.67,267.78Z" transform="translate(-37.35 -255.37)"/><path class="cls-12" d="M893.51,357.56l-.2-.2q-5.59-3.76-16.88-.41.41,2.95.81,6.1a17.56,17.56,0,0,1,3.25-.31,11.32,11.32,0,0,1,2.24.2,8.91,8.91,0,0,1,1.93.4,6.46,6.46,0,0,1,4.07,2.85,10.88,10.88,0,0,1,1.42,3.76,1.85,1.85,0,0,1,.1.61,1.85,1.85,0,0,0-.1-.61,10.88,10.88,0,0,0-1.42-3.76,6.46,6.46,0,0,0-4.07-2.85v0a8.91,8.91,0,0,0-1.93-.4,11.32,11.32,0,0,0-2.24-.2,17.56,17.56,0,0,0-3.25.31q.31,1.63.51,3.35,1.42,10.07,2.34,16.88a88.06,88.06,0,0,0,9.66-2.65,22.45,22.45,0,0,0,4.68-2q4.17-2.64,4.17-8.85,0-8.74-5.09-12.2m-141.64,5.49a14.49,14.49,0,0,0-3.05-.31,11.32,11.32,0,0,0-2.24.2,8.91,8.91,0,0,0-1.93.4v0a6.45,6.45,0,0,0-4.07,2.85,10.8,10.8,0,0,0-1.43,3.76,2,2,0,0,0-.1.61,2,2,0,0,1,.1-.61,10.8,10.8,0,0,1,1.43-3.76,6.45,6.45,0,0,1,4.07-2.85,8.91,8.91,0,0,1,1.93-.4,11.32,11.32,0,0,1,2.24-.2,14.49,14.49,0,0,1,3.05.31q.5-3.15.81-6.1-10-3-15.45-.21l-1.22.61q-5.29,3.45-5.29,12.4,0,6.2,4.17,8.85a33.6,33.6,0,0,0,5.9,2.44q3.46,1.12,8.34,2.24.92-6.81,2.34-16.88Q751.66,364.68,751.87,363.06Z" transform="translate(-37.35 -255.37)"/><path class="cls-14" d="M759.19,347a36,36,0,0,1-5.29-.41q-.41,4.78-1.22,10.37-.31,2.95-.81,6.1-.21,1.63-.41,3.35-1.43,10.07-2.34,16.88-1,7.22-1.42,10.57c-.21,1.56-.31,2.47-.31,2.75q0,11.69,15.15,19t25.72,11.29Q799,430.78,814,431.08t26.24-3.86q11.39-4.37,26.44-11.59t15.15-19q0-.41-.3-3.05-.41-3.35-1.42-10.27t-2.34-16.88q-.2-1.73-.51-3.35-.4-3.15-.81-6.1-.41-3.76-1.73-13.32A63.37,63.37,0,0,1,851.92,334q-12.31-8.85-18.1-15.86,4.06,9.25,7.83,13.83a55.2,55.2,0,0,0,6.71,6.91q-3.25-.2-9.36-.71-12.71-1.73-20.13-6.41a29.22,29.22,0,0,1-8.54-8.74q-1.83-2.85-2.85-4.78-2.34,6.51-15.25,16.07Q775.05,347,759.19,347Z" transform="translate(-37.35 -255.37)"/></g><g id="Layer0_4_MEMBER_1_1_STROKES" data-name="Layer0 4 MEMBER 1 1 STROKES"><path class="cls-8" d="M782.93,267.46c-4.39-3.65-10.1-3.58-15.5-3.58-.43,0-.46.55-.16.76a16.68,16.68,0,0,1,6.14,7.93.57.57,0,0,0,.62.32,9.66,9.66,0,0,1,1.92-.19c.63,0,.34-.91-.19-.89-1.21,0-1.43.33-2-.73-.51-.89-.84-1.86-1.4-2.72a17.47,17.47,0,0,0-4.54-4.35l-.16.76c5.13,0,10.61-.15,14.8,3.32.48.4,1-.23.51-.63Z" transform="translate(-37.35 -255.37)"/><path class="cls-8" d="M784.25,268.68a9.65,9.65,0,0,0-1.31-1.22l.13.63c3.81-6.47,10.07-9.54,17.26-10.84a81.6,81.6,0,0,1,24.19-.19,75.81,75.81,0,0,1,37.94,15.35,87.05,87.05,0,0,1,26.39,36.11c5.79,14.77,5.94,30,4.53,45.6-.13,1.39-.66,2.81.13,3.92.44.62,1.3,1.07,1.8,1.68a10.51,10.51,0,0,1,1.49,2.44c1.66,3.76,2.14,9.25.19,13a9.53,9.53,0,0,1-5.07,4.19c-2.13.9-2.33.54-3.1,2.67-1.37,3.81-4,8.93-7.59,11.16a.37.37,0,0,0-.15.39c.66,5.77-.76,10.78-4.9,15-5.27,5.39-12.83,8.18-19.56,11.23-6.45,2.92-13,6-19.82,8.07a74,74,0,0,1-22.41,2.77,85.68,85.68,0,0,1-22.86-3.12c-6.71-2-13.19-5.06-19.55-7.95-6.72-3.05-14.28-5.85-19.4-11.39a17.47,17.47,0,0,1-4.23-7.52,14.78,14.78,0,0,1-.48-3.94c0-.88.53-2.15.26-3-.21-.64-1.11-1.38-1.52-1.92a29.55,29.55,0,0,1-2.28-3.52,41.15,41.15,0,0,1-2.35-5.22c-.6-1.6-.47-2.21-2-2.75a20.4,20.4,0,0,1-5.35-2.4c-3.68-2.72-3.81-7.88-3.12-12,.64-3.83,2.53-7,6.05-8.79a.36.36,0,0,0,.15-.39c-3.13-15.37-4.12-31.36-.84-46.8,2.52-11.85,7.24-23.89,17.74-30.82,5.77-3.81,12.51-5.61,19.34-6.23.63-.06.34-.94-.19-.89-7.9.71-15.69,3-22,8-6.13,4.81-10.21,11.57-12.78,18.84a93.22,93.22,0,0,0-5.08,29.73,120.33,120.33,0,0,0,.78,15.15q.47,4.18,1.2,8.33c.19,1.06,1.14,3.69.44,4.65-.4.55-1.54,1-2.09,1.48-4.92,4.64-6,15.71-.37,20.21a16.93,16.93,0,0,0,4.76,2.36c2.61,1,2.88,3.72,4,6.08a62.9,62.9,0,0,0,3.57,5.84,4.9,4.9,0,0,1,.77,3.62,14.1,14.1,0,0,0,.09,2.13c.82,7.77,7,13.18,13.5,16.67a212.56,212.56,0,0,0,27.72,12.29c9.75,3.53,20.57,4.49,30.88,4.16,10-.33,19.11-2.82,28.33-6.67,4.68-2,9.31-4,13.9-6.16s9.5-4.25,13.51-7.57a20.54,20.54,0,0,0,6.4-8.55,16.77,16.77,0,0,0,1-4.63c.1-1.47-.53-3.37.34-4.49,1.23-1.58,2.66-2.92,3.79-4.63a70.78,70.78,0,0,0,3.44-6.74c.94-1.79,3.54-2.1,5.18-3.24a8.89,8.89,0,0,0,3.13-3.82c1.53-3.55,1.18-8.28-.05-11.87a12.12,12.12,0,0,0-2.47-4.28c-.53-.58-1.2-1-1.46-1.7-.44-1.26.22-3.72.34-5.07.79-9.4,1.14-18.82-.46-28.15a82.27,82.27,0,0,0-10.55-28.22c-9.1-15.25-22.24-27.94-38.9-34.51a85.1,85.1,0,0,0-25.51-5.53c-9-.6-19.07-.64-27.43,3.2a20.89,20.89,0,0,0-9.35,8.6.47.47,0,0,0,.13.63l1.13,1c.4.42,1.15,0,.7-.44Z" transform="translate(-37.35 -255.37)"/><path class="cls-8" d="M753.92,346.15a30.89,30.89,0,0,1-5.78-1.58.42.42,0,1,0-.29.78,32.17,32.17,0,0,0,6,1.67c.64.12.6-.76.05-.86Z" transform="translate(-37.35 -255.37)"/><path class="cls-8" d="M876.88,357c-.49-4.45-1.12-8.89-1.73-13.32a.58.58,0,0,0-.43-.43,76.17,76.17,0,0,1-40.55-25.31c-.31-.37-1-.22-.77.34,3.56,8,7.93,15.21,14.7,20.95l.16-.76c-7.91-.51-15.82-1.19-23.28-4.1-7.93-3.09-13.1-8.81-17.09-16.21-.15-.29-.7-.52-.86-.1-1.33,3.49-4,6.37-6.67,8.91a87.67,87.67,0,0,1-14.41,11c-9.59,5.94-20.67,9.77-32,8.21-.23,0-.47.05-.49.32-1.4,15.83-4.28,31.52-6.2,47.28-.06.51.86.82.93.22,1.84-15.1,4.51-30.12,6-45.25.22-2.24,1.54-1.43,3.39-1.33a38.16,38.16,0,0,0,5.8-.16,46.25,46.25,0,0,0,9.93-2.16c7.87-2.62,15-7,21.51-12.11,5-3.85,10.82-8.45,13.13-14.52l-.86-.1c4,7.37,9.13,13.28,17,16.5s16.09,3.94,24.41,4.47c.46,0,.42-.55.16-.76-6.65-5.63-10.88-12.66-14.38-20.54l-.77.34a76.66,76.66,0,0,0,10.28,9.91,85,85,0,0,0,13.65,9.58,61.49,61.49,0,0,0,7.46,3.34c2.63,1,5.44,1.49,8,2.48,1.77.68,1.59,1.81,1.83,3.58q.26,1.92.51,3.84c.26,2,.51,3.93.72,5.89.06.53,1,.62.91,0Z" transform="translate(-37.35 -255.37)"/><path class="cls-8" d="M751.89,362.63a15.61,15.61,0,0,0-7.45.3.35.35,0,0,0-.26.32v5.19c0,.51.93.82.93.22v-4.21a2.48,2.48,0,0,1,0-.8c.07-.16,1.11-.18,1.56-.25a15,15,0,0,1,5.17.09c.64.12.6-.76.05-.86Z" transform="translate(-37.35 -255.37)"/><path class="cls-8" d="M744.44,362.93a8.26,8.26,0,0,0-5.85,7.54c0,.51.88.82.93.22a7.57,7.57,0,0,1,5.33-6.9c.58-.16.08-1-.41-.86Z" transform="translate(-37.35 -255.37)"/><path class="cls-8" d="M752.7,356.52c-5.1-1.46-10.78-2.49-15.79-.16-.5.23.15,1,.61.78,4.77-2.22,10.28-1.13,15.12.25.63.18.58-.71.05-.86Z" transform="translate(-37.35 -255.37)"/><path class="cls-8" d="M740.76,381.49c2.74.88,5.53,1.59,8.34,2.24.63.15.59-.74.05-.86-2.8-.65-5.59-1.36-8.34-2.24-.62-.2-.57.7-.05.86Z" transform="translate(-37.35 -255.37)"/><path class="cls-8" d="M883.57,344.83c-3-.41-5.92-.94-8.85-1.63-.63-.15-.59.74-.05.86,2.92.68,5.87,1.22,8.85,1.63.64.09.6-.79.05-.86Z" transform="translate(-37.35 -255.37)"/><path class="cls-8" d="M807.9,318.1a9.17,9.17,0,0,1-.76-3.13c0-.51-.94-.82-.93-.22a10.4,10.4,0,0,0,.86,3.58c.2.52,1.07.38.83-.23Z" transform="translate(-37.35 -255.37)"/><path class="cls-8" d="M831,312.33c.77,2,1.58,4,2.44,5.9.22.51,1.1.37.83-.23-.86-1.95-1.67-3.91-2.44-5.9-.2-.52-1.07-.38-.83.23Z" transform="translate(-37.35 -255.37)"/><path class="cls-8" d="M876.63,357.39a33.29,33.29,0,0,1,9.4-1.56c2.24,0,5.52.36,7.22,2.06.45.45,1-.19.51-.63-4.16-4.16-12.77-2.09-17.54-.72-.58.17-.08,1,.41.86Z" transform="translate(-37.35 -255.37)"/><path class="cls-8" d="M877.45,363.49a15.84,15.84,0,0,1,7.19.3c3.27,1,4.62,3.6,5.16,6.79.09.52,1,.62.91,0-.49-2.89-1.69-5.74-4.45-7.09s-6.22-1.36-9.23-.87c-.58.1-.09.95.41.86Z" transform="translate(-37.35 -255.37)"/><path class="cls-8" d="M876.79,363.06c1.2,6.69,1.94,13.5,2.85,20.23a.57.57,0,0,0,.66.43,93,93,0,0,0,9.66-2.65c.57-.2.08-1-.41-.86a93,93,0,0,1-9.66,2.65l.66.43c-.91-6.74-1.65-13.54-2.85-20.23-.09-.52-1-.62-.91,0Z" transform="translate(-37.35 -255.37)"/><path class="cls-8" d="M876,357q.42,3,.81,6.1c.07.52,1,.62.91,0q-.39-3.05-.81-6.1c-.07-.52-1-.62-.91,0Z" transform="translate(-37.35 -255.37)"/><path class="cls-8" d="M884.2,363.25v5.19c0,.51.93.82.93.22v-5.19c0-.51-.93-.82-.93-.22Z" transform="translate(-37.35 -255.37)"/><path class="cls-8" d="M879.63,383.29c.5,3.42,1,6.84,1.42,10.27.06.52,1,.62.91,0-.42-3.43-.92-6.85-1.42-10.27-.08-.52-1-.62-.91,0Z" transform="translate(-37.35 -255.37)"/></g><g id="Layer0_4_MEMBER_1_MEMBER_0_FILL" data-name="Layer0 4 MEMBER 1 MEMBER 0 FILL"><path class="cls-15" d="M814.81,417.15q7.63,0,11.08-5.39a15.21,15.21,0,0,0-4.17-4.17,15.72,15.72,0,0,0-9-2.85q-5.49,0-9.76,5.18a11.51,11.51,0,0,1-.81.92Q806,417.15,814.81,417.15Z" transform="translate(-37.35 -255.37)"/><path class="cls-16" d="M828.84,397.42q-5.39-.4-13.63-.51-10.16-.2-16,.2.71,8.34,1.32,10.07a17.79,17.79,0,0,0,1.53,3.66,11.51,11.51,0,0,0,.81-.92q4.27-5.19,9.76-5.18a15.72,15.72,0,0,1,9,2.85,15.21,15.21,0,0,1,4.17,4.17,15.73,15.73,0,0,0,2.14-5.08A33,33,0,0,0,828.84,397.42Z" transform="translate(-37.35 -255.37)"/><path class="cls-8" d="M851.11,369.06a6.88,6.88,0,1,0-4.88,2,6.65,6.65,0,0,0,4.88-2m-6-2.75a2.35,2.35,0,0,1-.71-1.73q0-2.54,2.34-2.54t2.34,2.44q0,2.54-2.24,2.54a2.36,2.36,0,0,1-1.73-.71m-60.7-9a6.94,6.94,0,1,0,4.88,2,6.66,6.66,0,0,0-4.88-2m-1.12,9a2.35,2.35,0,0,1-.71-1.73q0-2.54,2.34-2.54t2.34,2.44q0,2.54-2.24,2.54A2.35,2.35,0,0,1,783.29,366.31Z" transform="translate(-37.35 -255.37)"/><path class="cls-10" d="M844.4,364.58a2.43,2.43,0,0,0,2.44,2.44q2.23,0,2.24-2.54T846.73,362q-2.33,0-2.34,2.54m-61.82,0A2.44,2.44,0,0,0,785,367q2.24,0,2.24-2.54T784.91,362Q782.57,362,782.57,364.58Z" transform="translate(-37.35 -255.37)"/></g><g id="Layer0_4_MEMBER_1_MEMBER_0_1_STROKES" data-name="Layer0 4 MEMBER 1 MEMBER 0 1 STROKES"><path class="cls-8" d="M826.28,412.08c2.71-4.33,3.18-9.55,3-14.56a.55.55,0,0,0-.55-.56,215,215,0,0,0-29.59-.3.43.43,0,0,0-.4.49c.42,4.76.6,9.55,2.88,13.84a.51.51,0,0,0,.83.17c3.16-3.37,6.11-6.18,11.07-5.93a15.49,15.49,0,0,1,7.88,2.71c1.41,1,4.31,2.81,3.29,4.58-2.22,3.87-8.32,4.46-12.19,4.05a13.08,13.08,0,0,1-10.06-6,.45.45,0,1,0-.75.5c5.19,8,19,9.22,24.56,1a.48.48,0,0,0,0-.57,16.88,16.88,0,0,0-12.46-7.18c-5.37-.38-8.65,2.52-12.09,6.2l.83.17a22.66,22.66,0,0,1-2.32-8.55c-.09-.77-.17-1.55-.24-2.33q-.09-.89-.17-1.78t.66-.54c1.23-.45,3.35-.14,4.63-.16,7.92-.15,15.91,0,23.82.54l-.55-.56c.14,4.82-.24,9.94-2.86,14.12-.31.49.47,1.12.78.63Z" transform="translate(-37.35 -255.37)"/><path class="cls-8" d="M799.17,396.65c-1,.06-2,.15-3,.3-.63.09-.42,1,.15.94,1-.15,2-.24,3-.3.64,0,.43-1-.15-.94Z" transform="translate(-37.35 -255.37)"/><path class="cls-8" d="M815.69,374.38a46.88,46.88,0,0,0,2.06,4.21c.48.87,2.2,2.87,2,3.85-.36,2.3-5.69,1.63-7,1.5a.46.46,0,1,0-.09.92c2.24.23,6,.75,7.62-1.38a1.66,1.66,0,0,0,.21-2c-.6-1.32-1.59-2.53-2.28-3.83s-1.18-2.35-1.71-3.56c-.24-.55-1.14-.31-.88.28Z" transform="translate(-37.35 -255.37)"/><path class="cls-8" d="M833.67,397.47c-1.63-.25-3.26-.4-4.9-.52-.63,0-.42.89.15.94,1.56.12,3.11.26,4.66.5.64.1.68-.83.09-.92Z" transform="translate(-37.35 -255.37)"/></g><g id="Layer0_4_MEMBER_1_MEMBER_1_1_STROKES" data-name="Layer0 4 MEMBER 1 MEMBER 1 1 STROKES"><path class="cls-8" d="M804.36,361.06a21,21,0,0,0-22.55-13.14,20.53,20.53,0,0,0-17.26,20.19,20.65,20.65,0,0,0,39.22,9.1,20,20,0,0,0,1.9-7.65,21.55,21.55,0,0,0-.23-4.51c-.19-1.22-1.18-3-.46-4.15s4-2.12,5.12-2.47a16.6,16.6,0,0,1,5.27-.75,22.4,22.4,0,0,1,11,3.69.36.36,0,0,0,.54-.11,20.33,20.33,0,0,1,19-12.73,19.62,19.62,0,0,1,18.43,14,20.1,20.1,0,0,1-6.24,20.67,19.87,19.87,0,0,1-22.31,2.36c-8.65-4.85-12-15.12-8.88-24.34.14-.42-.7-.94-.87-.46a21.15,21.15,0,0,0,9.53,25.49A20.48,20.48,0,0,0,860,353.83c-6.84-6.86-18.07-8.27-26.16-2.67a22,22,0,0,0-6.22,6.57c-.16.27-.67,1.28-.85,1.54-.76,1.11-.5,1-1.78.44s-2.71-1.35-4.18-1.84c-6-2-12-.78-17.17,2.77a.29.29,0,0,0-.11.34,19.72,19.72,0,1,1-23.8-11.72A19.78,19.78,0,0,1,803.5,361c.16.4,1.08.63.86.06Z" transform="translate(-37.35 -255.37)"/></g><g id="Layer0_4_MEMBER_1_MEMBER_2_FILL" data-name="Layer0 4 MEMBER 1 MEMBER 2 FILL"><path class="cls-17" d="M800.37,271.13a6.1,6.1,0,0,0,1.93-3.86q0-5-5.19-3.25t-5.29,6.81a2.7,2.7,0,0,0,.4,1.53q.81,1.42,3.15,1.42a6.47,6.47,0,0,0,5-2.64m4-3.05q0,3.86,3,3.86t2.95-3.76q0-3.87-2.95-3.86t-3,3.76m21,1.83a2.55,2.55,0,0,0,1.22-2.24q0-2.64-3.15-3.15t-3.15,2.85q0,3.15,3.15,3.15a3.42,3.42,0,0,0,1.93-.61M883,310.08a3.42,3.42,0,0,0,.61-1.93q0-2.85-4.78-7.22T874,302.35q0,.61,2.74,4.58,2.95,4.27,4.07,4.27a2.61,2.61,0,0,0,2.24-1.12m-108.9-26.44q4,0,4-3.15,0-3.56-3.76-3.15t-3.86,3.25Q770.47,283.64,774.14,283.64Z" transform="translate(-37.35 -255.37)"/></g><g id="Layer0_5_FILL" data-name="Layer0 5 FILL"><path class="cls-18" d="M465.22,530.33a12,12,0,0,0-4.88,9.56V625.5a12,12,0,0,0,4.88,9.56,17.71,17.71,0,0,0,11.69,4,18.11,18.11,0,0,0,11.8-4,12,12,0,0,0,4.88-9.56v-1a20.81,20.81,0,0,1-6.61,1,17.7,17.7,0,0,1-11.69-4A12,12,0,0,1,470.4,612v-84.6a14.71,14.71,0,0,0-5.19,2.95m58.47,40.78,11.19-11.9H488.6l-11.19,11.9h46.27m10.17,60.6q.61-4.88,1-72.5l-11.19,11.9v54.3a31.56,31.56,0,0,1-7.12,20.54,37.65,37.65,0,0,1-6.4,6.3,57,57,0,0,1-5.9,4.07q-1,.61-1.93,1.12-1.42.71-2.84,1.32-.41.21-.92.41a54.54,54.54,0,0,1-18.2,4q18.1-.2,29.79-5.69,11.49-5.49,17.29-13.22t6.41-12.51m1-103.21a24.55,24.55,0,0,0-2.34-11.59,39.53,39.53,0,0,0-21-20.95,57.56,57.56,0,0,0-29.18-4.58,54.84,54.84,0,0,0-28.88,10,45.49,45.49,0,0,0-9.86,8.54q-4,4.58-9.15,17.69A35.72,35.72,0,0,1,444.07,515c.4-.41.81-.78,1.22-1.12q1-.81,2-1.53a47.19,47.19,0,0,1,9.66-5.49,52.63,52.63,0,0,1,20.74-4q19.22,0,32.54,11t13.42,26.54v13.73l11.19-11.9V528.5M923.71,571l11.18-11.9V528.19H923.71V571M974,559.1H934.9L923.71,571h39.15L974,559.1m3.36,78.5,11.19-11.9H934.9l-11.18,11.9H977.4m11.19-11.9-11.19,11.9v23.59l11.19-11.89V625.71M974,582.79V559.1L962.86,571v23.69L974,582.79m-50.33,11.9v42.91l11.18-11.9v-31H923.71M977.4,504.5l11.19-11.9H905.92l-11.19,11.9H977.4m0,0v23.69l11.19-11.9V492.6Z" transform="translate(-37.35 -255.37)"/><path class="cls-19" d="M523.69,625.4V571.1H477.42v23.59h16.17V625.5a12,12,0,0,1-4.88,9.56,18.11,18.11,0,0,1-11.8,4,17.71,17.71,0,0,1-11.69-4,12,12,0,0,1-4.88-9.56V539.89a12,12,0,0,1,4.88-9.56,14.71,14.71,0,0,1,5.19-2.95,18.25,18.25,0,0,1,6.51-1.12,17.82,17.82,0,0,1,11.8,4.07,12,12,0,0,1,4.88,9.56v14.23h30.1V540.39q0-15.46-13.42-26.54t-32.54-11a52.63,52.63,0,0,0-20.74,4,47.19,47.19,0,0,0-9.66,5.49q-1,.71-2,1.53c-.41.34-.81.71-1.22,1.12a35.72,35.72,0,0,0-9.66,12.61c-.14.27-.27.58-.41.92a31.73,31.73,0,0,0-2.24,11.9v85.42q0,15.35,13.32,26.34t32.64,11h2.64a54.54,54.54,0,0,0,18.2-4q.51-.2.92-.41,1.42-.61,2.84-1.32.92-.51,1.93-1.12a57,57,0,0,0,5.9-4.07,37.65,37.65,0,0,0,6.4-6.3,31.56,31.56,0,0,0,7.12-20.54M977.4,528.19V504.5H894.73V661.19H977.4V637.61H923.71V594.69h39.15V571H923.71V528.19H977.4Z" transform="translate(-37.35 -255.37)"/><path class="cls-20" d="M585.51,492.71,574.32,504.6V625.5A11.67,11.67,0,0,0,579.2,635a18.37,18.37,0,0,0,11.8,4,17.47,17.47,0,0,0,11.69-4,11.55,11.55,0,0,0,4.78-8.64,18.58,18.58,0,0,1-5.29.71,18.36,18.36,0,0,1-11.8-4,11.67,11.67,0,0,1-4.88-9.46V492.71m0,0H557.14L546,504.6h28.37l11.19-11.89m63.55,0L637.88,504.6V625.71q0,15.76-13.53,26.44a48.87,48.87,0,0,1-26.85,10.47q2.95-.07,14.85-2T636.76,650q12.5-8.53,12.51-24.3l-.2-133m0,0h-30.3L607.58,504.6h30.3l11.19-11.89M384.88,609.54V566.93l-27-74.33-11.19,11.9,38.23,105M425.15,492.6,414,504.5V661.19l11.18-11.89V492.6m0,0H396.07l-11.19,11.9H414l11.18-11.9m-82.26,68.23V661.19l11.19-11.89V588.9l-11.19-28.06m-29-56.33h32.74l11.19-11.9H325.1Z" transform="translate(-37.35 -255.37)"/><path class="cls-21" d="M637.88,504.6h-30.3V625.5a3.08,3.08,0,0,1-.1.81A11.55,11.55,0,0,1,602.7,635a17.47,17.47,0,0,1-11.69,4,18.37,18.37,0,0,1-11.8-4,11.67,11.67,0,0,1-4.88-9.46V504.6H546V625.71q0,15.46,13.32,26.34t32.54,10.88a52.28,52.28,0,0,0,5.69-.3,48.87,48.87,0,0,0,26.85-10.47q13.53-10.68,13.53-26.44V504.6m-291.22-.1H313.91V661.19h29V560.83l11.19,28.06,28.78,72.3H414V504.5H384.88v105Z" transform="translate(-37.35 -255.37)"/><path class="cls-11" d="M169.11,637.71h-50V504.6h-29V661.19h79V637.71M730.61,504.6H690.75L658,661.19h30.2l7-36h30.3l6.81,36h30.5L730.61,504.6m-20.14,97.62H699.8l10.68-61.72,5.39,30.71,5.39,31Z" transform="translate(-37.35 -255.37)"/><path class="cls-22" d="M169.11,637.71l11.19-11.9h-50l-11.19,11.9h50m11.19-11.9-11.19,11.9v23.49L180.3,649.3V625.81M119.08,504.6l11.19-11.89h-29L90.1,504.6h29m11.19-11.89L119.08,504.6V637.71l11.19-11.9V492.71M704.07,625.2h-8.85l-7,36L699.4,649.3l4.68-24.1m-4.27-23h10.68l5.39-31-5.39-30.71L699.8,602.22m30.81-97.62,11.18-11.89H701.94L690.75,504.6h39.86m11.18-11.89L730.61,504.6l32.23,156.59L774,649.3Z" transform="translate(-37.35 -255.37)"/><path class="cls-23" d="M271.51,492.71,260.32,504.6l32.23,156.59,11.19-11.89L271.51,492.71M233.78,625.2h-8.85l-7,36,11.19-11.89,4.68-24.1m-4.27-23h10.68l5.39-31-5.39-30.71-10.68,61.72m-9.05-97.62h39.86l11.19-11.89H231.65L220.46,504.6m624,120.9v-1.12a19,19,0,0,1-6.61,1.12,17.7,17.7,0,0,1-11.69-4,12,12,0,0,1-4.88-9.56v-84.7a17.25,17.25,0,0,0-5.19,3,12,12,0,0,0-4.88,9.56V625.5a12,12,0,0,0,4.88,9.56,17.71,17.71,0,0,0,11.69,4,18.11,18.11,0,0,0,11.8-4,12,12,0,0,0,4.88-9.56m30.1-54.4,11.18-11.9H839.52l-11.19,11.9H874.6m11.18-11.9L874.6,571.1v54.3a31.65,31.65,0,0,1-7.12,20.54,40.84,40.84,0,0,1-6.4,6.3,47.88,47.88,0,0,1-5.9,4.07q-1,.59-2,1.12-1.32.72-2.75,1.32l-.92.41a51.43,51.43,0,0,1-18.2,3.86q18.14-.08,29.69-5.59t17.39-13.22q5.77-7.68,6.4-12.61t1-72.4m-24.61-45.35q13.42,11.08,13.42,26.54v13.73l11.18-11.9V528.5a24.52,24.52,0,0,0-2.34-11.59,39.54,39.54,0,0,0-21-20.95,57.56,57.56,0,0,0-29.18-4.58,54.85,54.85,0,0,0-28.88,10,52.84,52.84,0,0,0-10,8.44q-3.83,4.73-9,17.69a36.92,36.92,0,0,1,9.56-12.61c.45-.33.89-.67,1.32-1,.67-.55,1.35-1.09,2-1.63a50.78,50.78,0,0,1,9.66-5.49,53.89,53.89,0,0,1,20.74-3.86Q847.86,502.87,861.18,513.85Z" transform="translate(-37.35 -255.37)"/><path class="cls-24" d="M260.32,504.6H220.46L187.72,661.19h30.2l7-36h30.3l6.81,36h30.5L260.32,504.6m-20.13,97.62H229.51l10.68-61.72,5.39,30.71,5.39,31H240.19M874.6,540.39q0-15.46-13.42-26.54t-32.54-11a53.89,53.89,0,0,0-20.74,3.86,50.78,50.78,0,0,0-9.66,5.49c-.69.54-1.37,1.08-2,1.63-.43.35-.87.69-1.32,1a36.92,36.92,0,0,0-9.56,12.61l-.41.92a32.33,32.33,0,0,0-2.24,12v85.42q0,15.35,13.32,26.34t32.64,11H830c.44,0,.88,0,1.32-.1a51.43,51.43,0,0,0,18.2-3.86l.92-.41q1.42-.6,2.75-1.32,1.05-.53,2-1.12a47.88,47.88,0,0,0,5.9-4.07,40.84,40.84,0,0,0,6.4-6.3,31.65,31.65,0,0,0,7.12-20.54V571.1H828.33v23.59H844.5V625.5a12,12,0,0,1-4.88,9.56,18.11,18.11,0,0,1-11.8,4,17.71,17.71,0,0,1-11.69-4,12,12,0,0,1-4.88-9.56V539.89a12,12,0,0,1,4.88-9.56,17.25,17.25,0,0,1,5.19-3,20,20,0,0,1,6.51-1,17.82,17.82,0,0,1,11.8,4.07,12,12,0,0,1,4.88,9.56v14.23h30.1Z" transform="translate(-37.35 -255.37)"/></g><g id="Layer0_5_1_STROKES" data-name="Layer0 5 1 STROKES"><path class="cls-8" d="M977,504.35V528c0,.31.56.74.82.46l7.77-8.26c.95-1,2.67-2.25,3.3-3.51a3.6,3.6,0,0,0,.17-1.66V492.75c0-.31-.56-.74-.82-.46l-7.12,7.57c-1.22,1.3-2.42,2.63-3.68,3.91-.59.61.14.23-.53.34a33.12,33.12,0,0,1-5.06,0H894.6c-.17,0-.3.06-.3.25V661a.67.67,0,0,0,.57.54h82.67c.17,0,.3-.06.3-.25V637.75a.67.67,0,0,0-.57-.54H923.58l.57.54V601.83a50.19,50.19,0,0,0,0-6.39c-.11-.81-.24-.34.13-.35,1.55,0,3.12,0,4.67,0h34c.17,0,.3-.06.3-.25V571.15a.67.67,0,0,0-.57-.54H923.58l.57.54v-41a5.79,5.79,0,0,1,0-1.78c-.19.43-.08.17.62.22,1,.06,2,0,3,0h49.8c.6,0,.14-.79-.27-.79H923.58c-.17,0-.3.06-.3.25v42.81a.67.67,0,0,0,.57.54H963l-.57-.54v20.53a14.34,14.34,0,0,0,0,2.35c.12.68-.17.75.2.57-.92.46-3.27,0-4.27,0H923.58c-.17,0-.3.06-.3.25v42.91a.67.67,0,0,0,.57.54h53.69l-.57-.54V660a3.33,3.33,0,0,1,0,1c.07-.15.48-.31.05-.23a11.3,11.3,0,0,1-1.82,0H894.6l.57.54V511a39.07,39.07,0,0,0,0-5.55,2.16,2.16,0,0,1,0-.78c-.14.3-.45.27.05.25.34,0,.68,0,1,0h79.31a7.33,7.33,0,0,0,1.92,0c.79-.26,1.42-1.26,2-1.87l5.92-6.3,3.58-3.81-.82-.46v21.94a4.8,4.8,0,0,1-.16,1.81c-.8,1.37-2.45,2.61-3.53,3.75L977,527.88l.82.46V504.65c0-.39-.87-.83-.87-.3Z" transform="translate(-37.35 -255.37)"/><path class="cls-8" d="M785.75,527.77c8.81-19.34,32.31-26.84,52.07-23.85,18.38,2.79,36.17,16.62,36.35,36.41,0,4.54,0,9.09,0,13.64,0,.31.56.74.82.46l4.74-5c1.93-2,4.6-4.14,6.12-6.51.74-1.16.37-2.9.37-4.29,0-3.06,0-6.12,0-9.19.07-9.86-4.48-19-11.55-25.76-7.69-7.4-18.46-11.37-28.93-12.58-11.71-1.36-24.22.42-34.77,5.77a62.5,62.5,0,0,0-14.28,9.91,34.42,34.42,0,0,0-7.06,9.92c-3.87,7.6-7.35,15.46-7.38,24.12,0,3.29,0,6.57,0,9.86v72.2c0,4.62.23,9.15,1.8,13.57,3.37,9.49,11.31,16.93,20.1,21.48,19.89,10.31,47.5,6.74,62.61-10.32A33.51,33.51,0,0,0,875,624.84c0-4.56,0-9.11,0-13.67V571.25a.67.67,0,0,0-.57-.54H828.2c-.17,0-.3.06-.3.25v23.59a.67.67,0,0,0,.57.54h16.17l-.57-.54v27a27.63,27.63,0,0,1-.34,6.63c-3.78,14.93-31.62,13.74-32-2.48-.07-2.71,0-5.43,0-8.15,0-25.54-.12-51.08,0-76.63.06-13.66,18.34-18.16,27.73-10.3a12,12,0,0,1,4.64,9.26c0,1.45,0,2.91,0,4.36V554a.67.67,0,0,0,.57.54h30.1c.6,0,.14-.79-.27-.79h-30.1l.57.54v-9.55c0-3.54.33-7.16-1.46-10.39-6-10.89-24.21-11.39-30.86-.89-2.31,3.66-1.8,8.14-1.8,12.27v69c0,3.51-.08,7,0,10.53.26,11.83,14.86,16.56,24.47,12.85,5.51-2.13,9.6-6.81,9.65-12.84,0-2,0-4,0-5.93V594.84a.67.67,0,0,0-.57-.54H828.2l.57.54V572.52c0-.57.28-1.36-.29-1a2.82,2.82,0,0,1,1,0c4.45.41,9.14,0,13.61,0h31.69l-.57-.54c0,18.37.4,36.77,0,55.13-.28,12.74-7.93,22.91-18.53,29.4-10.06,6.15-22.13,8.15-33.77,6.89-19.37-2.1-38.68-15.95-38.74-36.88-.06-21.4,0-42.8,0-64.2,0-6.92-.07-13.84,0-20.75.06-6.17,2-11.44,4.4-17A62.85,62.85,0,0,1,794,511.21c3.13-4.29,7.7-7.59,12.1-10.46a56,56,0,0,1,15.86-7.16A62.33,62.33,0,0,1,859,495c10.8,3.94,19.31,11.32,24,21.89,3.09,6.93,2.32,14.68,2.32,22.09a11.88,11.88,0,0,1,0,2.93,6,6,0,0,1-.75.88l-6.32,6.72-4.07,4.33.82.46c0-4.53,0-9.05,0-13.58a33.61,33.61,0,0,0-9.37-23.07C852,503.09,829.67,499,811,505.14c-11,3.62-21.27,11.5-26.12,22.16-.16.36.66.91.85.48Z" transform="translate(-37.35 -255.37)"/><path class="cls-8" d="M988.45,492.21H922.93c-5.45,0-11-.22-16.4,0-1.7.07-2.51,1.67-3.66,2.9l-8.53,9.08c-.29.31.48.95.78.63l7.12-7.57c1.22-1.3,2.42-2.63,3.68-3.91.59-.61-.14-.23.53-.34a33.12,33.12,0,0,1,5.06,0h77.22c.6,0,.14-.79-.27-.79Z" transform="translate(-37.35 -255.37)"/><path class="cls-8" d="M885.39,558.89l-11.18,11.9c-.29.31.48.95.78.63l11.18-11.9c.29-.31-.48-.95-.78-.63Z" transform="translate(-37.35 -255.37)"/><path class="cls-8" d="M828.72,571.42l9.37-10a13.3,13.3,0,0,1,1.6-1.7c.5-.36-.35,0,.3-.14a19.37,19.37,0,0,1,3.61,0h42.31l-.57-.54c-.11,20-.2,40-.58,60-.07,3.88,0,7.81-.37,11.68-.3,3.47-2,6.63-3.87,9.51a41.91,41.91,0,0,1-11.63,12.15c-11.27,7.74-24.4,10.14-37.86,10.3-.5,0,.08.79.47.79,11.76-.13,23.41-1.89,33.78-7.71a43.83,43.83,0,0,0,12.6-10.14c3-3.7,6.38-8.39,7.22-13.23a65.29,65.29,0,0,0,.45-9.57c.17-7.41.25-14.83.33-22.25q.22-20.61.32-41.22a.67.67,0,0,0-.57-.54H843.94c-1.81,0-4.11-.6-5.43.74-3.61,3.65-7,7.5-10.57,11.24-.29.31.48.95.78.63Z" transform="translate(-37.35 -255.37)"/><path class="cls-8" d="M934.46,528V559a.67.67,0,0,0,.57.54h39.15l-.57-.54v21.94a4.8,4.8,0,0,1-.16,1.81c-.8,1.37-2.45,2.61-3.53,3.75l-7.44,7.92c-.29.31.48.95.78.63l7.76-8.26c.95-1,2.67-2.25,3.3-3.51a3.6,3.6,0,0,0,.17-1.66V559.25a.67.67,0,0,0-.57-.54H934.76l.57.54V528.34c0-.39-.87-.83-.87-.3Z" transform="translate(-37.35 -255.37)"/><path class="cls-8" d="M934.46,594.54v31a.67.67,0,0,0,.57.54h53.69l-.57-.54v21.93a4.27,4.27,0,0,1-.16,1.72c-.79,1.35-2.47,2.62-3.53,3.75L977,660.88c-.29.31.48.95.78.63l7.77-8.26c.95-1,2.71-2.27,3.3-3.51a3.43,3.43,0,0,0,.17-1.57V625.86a.67.67,0,0,0-.57-.54H934.76l.57.54v-31c0-.39-.87-.83-.87-.3Z" transform="translate(-37.35 -255.37)"/><path class="cls-8" d="M988.2,625.39,977,637.29c-.29.31.48.95.78.63L989,626c.29-.31-.48-.95-.78-.63Z" transform="translate(-37.35 -255.37)"/><path class="cls-8" d="M973.66,558.79l-11.18,11.9c-.29.31.48.95.78.63l11.18-11.9c.29-.31-.48-.95-.78-.63Z" transform="translate(-37.35 -255.37)"/><path class="cls-8" d="M934.51,558.79l-11.18,11.9c-.29.31.48.95.78.63l11.18-11.9c.29-.31-.48-.95-.78-.63Z" transform="translate(-37.35 -255.37)"/><path class="cls-8" d="M934.51,625.39l-11.18,11.9c-.29.31.48.95.78.63L935.29,626c.29-.31-.48-.95-.78-.63Z" transform="translate(-37.35 -255.37)"/><path class="cls-8" d="M741.41,492.39l-6.1,6.49L731.43,503c-.35.38-1.14.93-1.25,1.45a4.51,4.51,0,0,0,.28,1.38l.79,3.83,6.93,33.66,10.13,49.19,9.33,45.34,3.18,15.47c.49,2.36.68,5.12,1.52,7.38a2.35,2.35,0,0,1,.07.34c.06.28.53.77.82.46l6.11-6.49,3.87-4.12c.35-.38,1.14-.93,1.25-1.45a4.51,4.51,0,0,0-.28-1.38l-.79-3.83-6.93-33.66-10.13-49.19L747,516l-3.19-15.47c-.48-2.35-.66-5.14-1.52-7.38a2.22,2.22,0,0,1-.07-.34.68.68,0,0,0-.57-.54h-37a10.57,10.57,0,0,0-2.74,0c-.72.23-1.24,1-1.77,1.61l-9.75,10.37c-.24.26.28.71.52.71h39.86c.6,0,.14-.79-.27-.79H690.62l.52.71,8.39-8.92,2-2.13c.17-.18,1-1,.55-.77a8,8,0,0,1,2.29,0h37.56l-.57-.54,3.82,18.54,8.9,43.23,10.16,49.36,7.6,36.92c.53,2.58,1.46,5.36,1.65,8,.07.92-.24.8-1.16,1.78l-7.92,8.42-1.94,2.07.82.46-3.82-18.54-8.9-43.23-10.16-49.36-7.6-36.92c-.53-2.58-1.46-5.36-1.65-8-.07-.92.24-.8,1.16-1.78l7.92-8.42,1.94-2.07c.29-.31-.48-.95-.78-.63Z" transform="translate(-37.35 -255.37)"/><path class="cls-8" d="M762.71,660.8h-30.5l.57.54-6.81-36a.68.68,0,0,0-.57-.54H703.94c-.11,0-.27,0-.29.16l-2.76,14.24-1.59,8.17a4.15,4.15,0,0,1-1.5,2.9l-6.4,6.8-2.59,2.75a6.57,6.57,0,0,1-.78.83c-.41.3.08.1-.05.14-1.4.43-3.65,0-5.1,0h-25l.56.63,11.13-53.25L687.17,524l4-19.2c.08-.4-.76-.92-.85-.48l-11.13,53.25L661.6,641.75l-4,19.2a.62.62,0,0,0,.56.63h19.76c3.22,0,6.48.13,9.7,0,1.73-.07,2.64-1.83,3.8-3.06,2.61-2.78,5.71-5.45,8-8.5,1-1.37,1-3.55,1.35-5.22l2.48-12.77,1-4.92a10.82,10.82,0,0,1,.27-1.38c.17-.49-.24-.09-.1-.16.89-.44,3.11,0,4.09,0h17.23l-.57-.54,6.81,36a.68.68,0,0,0,.57.54H763c.6,0,.14-.79-.27-.79Z" transform="translate(-37.35 -255.37)"/><path class="cls-8" d="M703.94,624.8h-8.85c-.11,0-.27,0-.29.16l-7,36c-.08.4.77.92.85.48l3.32-17,2.36-12.12.87-4.45a9,9,0,0,1,.43-2.23c.13-.25-.47,0,.27,0,1-.09,2,0,2.92,0h5.4c.6,0,.14-.79-.27-.79Z" transform="translate(-37.35 -255.37)"/><path class="cls-8" d="M716.3,571.35l-5.39-30.71c0-.25-.78-.88-.86-.39l-9.34,54-1.33,7.7a.63.63,0,0,0,.56.63h10.68c.11,0,.27,0,.29-.16l5.39-31-.86-.39,4,23,1,5.63c.1.55.13,2.53.68,2.1-.27.22-1.61,0-1.94,0h-8.81c-.6,0-.14.79.27.79h10.78c.14,0,.33-.06.3-.25l-5.39-31c0-.26-.78-.88-.86-.39l-4,23-1,5.63c-.07.4-.62,2.53-.14,2.19-.3.22-1.57,0-1.92,0h-8.73l.56.63,9.34-54,1.33-7.7-.86-.39,5.39,30.71c.07.38,1,.8.87.3Z" transform="translate(-37.35 -255.37)"/><path class="cls-8" d="M820.88,527.18v83.37a13.4,13.4,0,0,0,3,9.2c5.12,6,13.67,7.43,20.93,5.05.41-.13-.26-.86-.64-.74-8.26,2.7-21.11-.27-22.34-10.48a32.33,32.33,0,0,1-.09-3.85V527.48c0-.39-.87-.83-.87-.3Z" transform="translate(-37.35 -255.37)"/><path class="cls-8" d="M314,504.89h31.62c2,0,2.65-1.44,4-2.9l8.53-9.08c.24-.26-.28-.71-.52-.71h-22c-3.32,0-6.93-.4-10.23,0-1.94.24-3.57,3-4.86,4.41l-4.9,5.21c-.59.63-1.95,1.6-2.26,2.43a6.6,6.6,0,0,0,0,1.92V656.94a23.2,23.2,0,0,0,0,3.64,3,3,0,0,1,0,.47.67.67,0,0,0,.57.54h29c.17,0,.3-.06.3-.25V561l-.85-.2q6.51,16.36,13,32.72L376,645l6.42,16.11a.7.7,0,0,0,.55.44H414.1c.17,0,.3-.06.3-.25V504.65a.67.67,0,0,0-.57-.54H384.75c-.17,0-.3.06-.3.25v105l.85.2-12.9-35.45-20.58-56.55-4.75-13c-.14-.37-1-.66-.83-.1l12.9,35.45,20.58,56.55,4.75,13c.1.27.85.74.85.2V506.81a6.63,6.63,0,0,1,0-2.15c-.23.46.1.23.84.23H414.1l-.57-.54V658.22c0,.75-.08,1.55,0,2.29s.36.32-.19.28c-5.46-.36-11.08,0-16.55,0H384.11c-.27,0-1.79-.17-1.11.22.53.3.13.13.09-.24a6.47,6.47,0,0,0-.53-1.33l-2-4.91L366.4,618.9q-10.8-27.1-21.58-54.21l-1.51-3.8c-.1-.26-.85-.75-.85-.2V660c0,.7-.21,1,.26.78-1.12.53-3.75,0-5,0h-24l.57.54V509.48c0-1.35,0-2.7,0-4,0-1.19.46-1.16,1.51-2.28,3-3.18,6.14-6.28,9-9.58.65-.75.19-.59,1.13-.58,1.36,0,2.72,0,4.08,0H358l-.52-.71-6.95,7.39c-1.26,1.34-2.56,2.64-3.77,4-.54.6-.06.44-1,.41-7.89-.22-15.82,0-23.71,0h-8.27c-.6,0-.14.79.27.79Z" transform="translate(-37.35 -255.37)"/><path class="cls-8" d="M220.6,505h37a10.57,10.57,0,0,0,2.74,0c.72-.23,1.24-1,1.77-1.61L271.9,493c.24-.26-.28-.71-.52-.71H235.66c-1.41,0-3.51-.44-4.67.37-1.48,1-2.74,2.91-4,4.22l-5.14,5.46a6.72,6.72,0,0,0-2,2.65c-1.12,3.7-1.61,7.72-2.41,11.5l-10.73,51.3-12.49,59.73-4.59,21.95-1.5,7.17a26.32,26.32,0,0,0-.79,3.79,3.54,3.54,0,0,1-.11.51.62.62,0,0,0,.56.63h30.2c.11,0,.27,0,.29-.16l5.6-28.75,1.17-6a4,4,0,0,1,.23-1.19c.15-.21-.54.27,0,.08a5.64,5.64,0,0,1,1.57,0h28.43l-.57-.54,6.81,36a.68.68,0,0,0,.57.54h30.5c.14,0,.34-.06.3-.25l-11-53.25-17.32-84.14-4-19.2c-.08-.37-1-.79-.87-.3l4.41,21.42,10,48.57L285,626.6l6.61,32.13a9.91,9.91,0,0,1,.46,2.23c0-.24.44,0-.42-.16a27.3,27.3,0,0,0-3.85,0H261.92l.57.54-6.81-36a.68.68,0,0,0-.57-.54H224.8c-.11,0-.27,0-.29.16l-5.56,28.55-1.19,6.09a4.62,4.62,0,0,1-.25,1.26c0-.06.39,0-.31,0-5.08-.08-10.18,0-15.26,0H187.59l.56.63,5.62-26.9,12-57.51,11.35-54.3,3.16-15.09a12.71,12.71,0,0,1,.57-2.7,11.86,11.86,0,0,1,1.3-1.42l4.78-5.09c1.47-1.57,3.11-3.07,4.46-4.74.62-.76.19-.59,1.08-.58,3.35.05,6.71,0,10.07,0h29.08l-.52-.71-8.39,8.92-2,2.13c-.17.18-1,1-.55.77a8,8,0,0,1-2.29,0H220.33c-.6,0-.14.79.27.79Z" transform="translate(-37.35 -255.37)"/><path class="cls-8" d="M246,571.35l-5.39-30.71c0-.25-.78-.88-.86-.39l-9.34,54-1.33,7.7a.63.63,0,0,0,.56.63h10.68c.11,0,.27,0,.29-.16l5.39-31-.86-.39,4,23,1,5.63c.1.55.13,2.53.68,2.1-.27.22-1.61,0-1.94,0h-8.81c-.6,0-.14.79.27.79H251.1c.14,0,.33-.06.3-.25l-5.39-31c0-.26-.78-.88-.86-.39l-4,23-1,5.63c-.07.4-.62,2.53-.14,2.19-.3.22-1.57,0-1.92,0h-8.73l.56.63,9.34-54,1.33-7.7-.86-.39,5.39,30.71c.07.38,1,.8.87.3Z" transform="translate(-37.35 -255.37)"/><path class="cls-8" d="M129.88,492.39l-4.74,5-3.65,3.88a19,19,0,0,0-2.47,2.63c-.65,1.06-.37,2.44-.37,3.72v129.9c0,.31.56.74.82.46l4.74-5,3.65-3.88a19,19,0,0,0,2.47-2.63c.65-1.06.37-2.44.37-3.72V492.85a.67.67,0,0,0-.57-.54H110.5c-2.81,0-6.19-.53-9,0-1.63.31-2.94,2.52-4.07,3.72l-7.77,8.26c-.24.26.28.71.52.71h29c.6,0,.14-.79-.27-.79H90l.52.71,6.28-6.67,3.81-4.05a7.07,7.07,0,0,1,.93-1c.43-.3-.34,0,.14-.1a12.8,12.8,0,0,1,2.82,0H130.4l-.57-.54V624a5.6,5.6,0,0,1,0,1.61c.13-.34-.35.25-.42.33-.39.45-.82.87-1.22,1.3l-3.74,4-5.76,6.13.82.46V506.36a5.6,5.6,0,0,1,0-1.61c-.13.34.35-.25.42-.33.39-.45.82-.87,1.22-1.3l3.74-4,5.76-6.13c.29-.31-.48-.95-.78-.63Z" transform="translate(-37.35 -255.37)"/><path class="cls-8" d="M179.91,625.5l-7.77,8.26c-.95,1-2.71,2.27-3.3,3.51a3.41,3.41,0,0,0-.17,1.56V661c0,.31.56.74.82.46l7.77-8.26c.95-1,2.71-2.27,3.3-3.51a3.41,3.41,0,0,0,.17-1.56V626a.67.67,0,0,0-.57-.54h-50c-.6,0-.14.79.27.79h50l-.57-.54V647.5a4.24,4.24,0,0,1-.16,1.71c-.79,1.35-2.47,2.62-3.53,3.75l-7.44,7.92.82.46V639.51a4.24,4.24,0,0,1,.16-1.71c.79-1.35,2.47-2.62,3.53-3.75l7.44-7.92c.29-.31-.48-.95-.78-.63Z" transform="translate(-37.35 -255.37)"/><path class="cls-8" d="M119.22,638.1h50c.6,0,.14-.79-.27-.79h-50c-.6,0-.14.79.27.79Z" transform="translate(-37.35 -255.37)"/><path class="cls-8" d="M169,660.8H90l.57.54V504.75c0-.39-.87-.83-.87-.3V661a.67.67,0,0,0,.57.54h79c.6,0,.14-.79-.27-.79Z" transform="translate(-37.35 -255.37)"/><path class="cls-8" d="M271.07,492.56l3.82,18.54,8.9,43.23,10.16,49.36,7.6,36.92c.53,2.58,1.46,5.36,1.65,8,.07.92-.24.8-1.16,1.78l-7.92,8.42-1.94,2.07c-.29.31.48.95.78.63l6.11-6.49,3.87-4.12c.35-.38,1.14-.93,1.25-1.45a4.51,4.51,0,0,0-.28-1.38l-.79-3.83-6.93-33.66-10.13-49.19L276.72,516l-3.19-15.47c-.48-2.35-.66-5.14-1.52-7.38a2.22,2.22,0,0,1-.07-.34c-.08-.37-1-.79-.87-.3Z" transform="translate(-37.35 -255.37)"/><path class="cls-8" d="M233.36,625l-4.29,22.13a9.61,9.61,0,0,1-.46,2c-.71,1.26-2.31,2.45-3.3,3.51l-7.77,8.26c-.29.31.48.95.78.63l7.77-8.26c1-1.08,2.64-2.28,3.36-3.58a6.33,6.33,0,0,0,.42-1.83l4.35-22.41c.08-.4-.77-.92-.85-.48Z" transform="translate(-37.35 -255.37)"/><path class="cls-8" d="M608,504.91l6.45-6.85,3.84-4.09a4.76,4.76,0,0,1,.84-.89c-.06,0-.24.1.18,0,2.71-.48,5.94,0,8.69,0H649.2l-.57-.54,0,22.68.07,48.55.07,46.13c0,9.7,1.4,21.26-3.37,30-3.34,6.14-9,10.13-15,13.5a63.87,63.87,0,0,1-21.88,7.32c-12.69,2-25.52,2.93-37.69-2.13-13.35-5.55-24.25-17.43-24.46-32.41,0-2.36,0-4.72,0-7.08V506.2a5.66,5.66,0,0,1,0-1.15c.11-.48-.07,0,.12-.31a17.7,17.7,0,0,1,2.79-3l4.33-4.6c1.15-1.22,2.32-2.42,3.44-3.66.56-.62,0-.4.9-.41,7.22-.06,14.45,0,21.68,0h6l-.57-.54v115.9c0,1.67,0,3.34,0,5,.27,11.15,13.41,15.56,22.69,13.3a.23.23,0,0,0,.2-.25c.44-7.47.05-15.06.05-22.54V515.89c0-3.34.4-7,0-10.28a2.3,2.3,0,0,1,0-.76c0,.1-.48.08.21.15a78.43,78.43,0,0,0,8.1,0h18.61a12.49,12.49,0,0,0,2.92,0c.52-.14.62-.31,1-.74,1.3-1.3,2.52-2.68,3.78-4l6.78-7.21c.29-.31-.48-.95-.78-.63l-6.45,6.85-3.85,4.09a4.76,4.76,0,0,1-.84.89c.06,0,.24-.1-.18,0-2.71.48-5.94,0-8.69,0H607.44c-.17,0-.3.06-.3.25V622.86a11.88,11.88,0,0,1,0,2c-.37,2-3.42,1.71-5.09,1.71-7.82,0-16-4.79-16.11-13.31,0-1.93,0-3.86,0-5.8V545.33c0-17.18.53-34.45,0-51.62,0-.29,0-.58,0-.86a.67.67,0,0,0-.57-.54h-25a14.6,14.6,0,0,0-3.1,0c-1.62.39-3.14,2.86-4.27,4.06l-4.49,4.78c-.82.87-2.3,1.93-2.83,3a3.41,3.41,0,0,0-.17,1.57V613.06q0,5.8,0,11.59A33.52,33.52,0,0,0,554,647.49c8.8,9.86,21.5,15.07,34.55,15.75a82.88,82.88,0,0,0,16.6-1.08c7.18-1.07,14.08-2.3,20.73-5.33,6.33-2.88,13-6.66,17.48-12.09a28.25,28.25,0,0,0,6.19-15.87c.23-2.89.12-5.83.11-8.72L649.63,580l-.08-52.36,0-33.1v-1.67a.67.67,0,0,0-.57-.54H628.86c-3.15,0-6.52-.34-9.65,0-1.74.19-2.93,2.3-4.1,3.55l-7.92,8.43c-.29.31.48.95.78.63Z" transform="translate(-37.35 -255.37)"/><path class="cls-8" d="M434.84,527.82c2.8-7,5.75-14.54,11.23-20a57.58,57.58,0,0,1,25.37-14.38c18.15-4.74,41.3-1.79,54.17,13,5.55,6.39,8.89,14.09,8.83,22.59,0,2.28,0,4.56,0,6.84,0,1.72.49,4.27,0,5.93a18.16,18.16,0,0,1-2.31,2.54l-5.41,5.75c-.94,1-2.18,3-3.41,3.62.37-.19-.07-.09-.34-.07-.62.05-1.26,0-1.88,0H493.45l.57.54v-7.86c0-2.78.3-5.79-.2-8.55C492,527.52,478.77,524,470.08,527c-.09,0-.11.14-.11.22v83.25a13.52,13.52,0,0,0,2.54,8.68c5,6.43,13.85,8,21.32,5.72.13,0,.2-.1.2-.25V594.84a.67.67,0,0,0-.57-.54H477.28l.57.54V576.22c0-1.34,0-2.69,0-4,0-.89-.05-.63.28-1.12,1.89-2.75,4.84-5.14,7.12-7.57,1.05-1.12,2.25-2.2,3.2-3.4.54-.68.18-.41.63-.49,1.87-.36,4.17,0,6.07,0H535l-.57-.54c-.11,18.34-.22,36.68-.5,55-.07,4.48-.14,9-.29,13.45a22,22,0,0,1-3.16,11.33c-10.78,18.19-31.62,23.88-51.57,23.88-10.15,0-20.07-1.9-28.78-7.35s-15.76-13.7-17.48-24c-1.06-6.3-.45-13.13-.45-19.48V547.2c0-2.16,0-4.31,0-6.47A32.57,32.57,0,0,1,442,517.61c15.07-15.18,40.28-18.74,59.36-9.21,9,4.5,17.19,12.15,20.39,21.9,1.94,5.91,1.54,12.14,1.54,18.27V554c0,.39.87.83.87.3,0-4.53,0-9.05,0-13.58A33.55,33.55,0,0,0,515,517.9C501.5,503.25,479.15,499,460.48,505c-9.84,3.2-19.37,9.84-24.72,18.84a33.35,33.35,0,0,0-4.44,17.31q0,12.48,0,25c0,19.78-.14,39.57,0,59.36.13,17.62,14.33,31.06,30.49,35.8C471,664,481.05,664,490.55,663c10.08-1.07,19.69-4,28.09-9.82A41,41,0,0,0,528.94,643c2.3-3.24,4.81-7,5.34-11.07a74.46,74.46,0,0,0,.34-7.88c.38-15.68.45-31.36.57-47q.07-8.83.12-17.67a.67.67,0,0,0-.57-.54H496.17c-2.31,0-4.64-.09-6.95,0-1.41.06-1.81.93-2.82,2l-7.93,8.44C477,570.83,477,570.92,477,573v21.51a.67.67,0,0,0,.57.54h16.17l-.57-.54V622.4c0,.33.2,1.58,0,1.87s-2.51.51-3,.59a22.21,22.21,0,0,1-5,.19,17.2,17.2,0,0,1-9.67-3.75,12,12,0,0,1-4.64-9.63c0-3.24,0-6.48,0-9.72V529.82c0-.43-.26-1.93,0-2.29a16.61,16.61,0,0,1,2.9-.59,19.41,19.41,0,0,1,2.53-.26,19.64,19.64,0,0,1,6.37.75,15.68,15.68,0,0,1,9.19,7c1.76,3.23,1.32,7.15,1.32,10.7V554a.67.67,0,0,0,.57.54h26.71c.92,0,2.5.31,3.38,0s1.81-1.73,2.48-2.44l5.86-6.24c.84-.89,2.69-2.21,3.14-3.38s0-3.66,0-5v-7.78a30.53,30.53,0,0,0-1.3-10,40.73,40.73,0,0,0-6-11.19c-11.45-15.29-32.09-19.36-50.11-17.08a58.49,58.49,0,0,0-29.18,12.87c-7.52,6-11.22,14.33-14.71,23.11-.15.37.68.92.85.48Z" transform="translate(-37.35 -255.37)"/><path class="cls-8" d="M546.09,505H565.6c2.65,0,5.92.53,8.52,0,1.61-.33,3.06-2.71,4.17-3.89L585.9,493c.29-.31-.48-.95-.78-.63L579,498.88,575.14,503a7.84,7.84,0,0,1-1,1.11c-.4.28.29,0-.09.1a11.12,11.12,0,0,1-2.71,0H545.82c-.6,0-.14.79.27.79Z" transform="translate(-37.35 -255.37)"/><path class="cls-8" d="M523.25,571v50.86c0,7.27-.77,14.26-4.76,20.59-8.16,13-23.56,19.45-38.36,20.32-.51,0,.08.81.47.79,13-.77,25.91-5.64,34.83-15.46,6-6.65,8.69-14.75,8.69-23.64V571.25c0-.39-.87-.83-.87-.3Z" transform="translate(-37.35 -255.37)"/><path class="cls-8" d="M534.48,558.89l-9.37,10a13.3,13.3,0,0,1-1.6,1.7c-.5.36.35,0-.3.14a19.37,19.37,0,0,1-3.61,0H477.28c-.6,0-.14.79.27.79h41.71c1.81,0,4.11.6,5.43-.74,3.61-3.65,7-7.5,10.57-11.24.29-.31-.48-.95-.78-.63Z" transform="translate(-37.35 -255.37)"/><path class="cls-8" d="M573.89,504.45V624c0,6,3,10.7,8.52,13.41,9.14,4.48,24.41,1,25.54-10.77,0-.4-.81-.91-.85-.48-1.26,13.2-19.83,15.57-28.32,8.07-3.42-3-4-6.72-4-10.88V504.75c0-.39-.87-.83-.87-.3Z" transform="translate(-37.35 -255.37)"/><path class="cls-8" d="M637.44,504.45V624.29c0,7.19-1.67,14-6,19.86-7.92,10.87-21.1,16.85-34.21,18.13-.51.05.08.83.47.79,19.91-1.94,40.39-15.56,40.57-37.28.05-6.41,0-12.82,0-19.23V504.75c0-.39-.87-.83-.87-.3Z" transform="translate(-37.35 -255.37)"/><path class="cls-8" d="M470.08,527c-5.75,2-10.12,6.87-10.18,13.11,0,2.24,0,4.48,0,6.72v29.23c0,16.41-.41,32.87,0,49.28.22,8.83,9.06,14.06,17.14,14.07,8.75,0,17-5.53,17-14.79,0-.39-.87-.83-.87-.3,0,18.26-32.22,19.27-32.38.9-.05-5.73,0-11.47,0-17.2V541.17c0-6.39,3.91-11.29,10-13.43.41-.15-.26-.87-.64-.74Z" transform="translate(-37.35 -255.37)"/><path class="cls-8" d="M385.27,504.81l6.28-6.67,3.81-4.05a6,6,0,0,1,1-1c.31-.18-.36.07.14,0a13.65,13.65,0,0,1,2.88,0h25.93l-.57-.54V640.78c0,2.54.35,5.35,0,7.87-.11.82-.53,1-1.39,1.86L415.39,659l-1.81,1.93c-.29.31.48.95.78.63l5.93-6.31,3.81-4.05c.45-.47,1.27-1.07,1.48-1.7.46-1.35,0-3.71,0-5.11V500.53c0-2.26.52-5.23,0-7.45a1.56,1.56,0,0,1,0-.33.67.67,0,0,0-.57-.54H405.37c-2.83,0-6.26-.53-9,0-1.61.31-2.95,2.54-4.06,3.72l-7.77,8.26c-.29.31.48.95.78.63Z" transform="translate(-37.35 -255.37)"/><path class="cls-8" d="M424.76,492.29l-11.18,11.9c-.29.31.48.95.78.63l11.18-11.9c.29-.31-.48-.95-.78-.63Z" transform="translate(-37.35 -255.37)"/><path class="cls-8" d="M357.42,492.55l23.74,65.24,3.31,9.09c.14.37,1,.66.83.1l-23.74-65.24-3.31-9.09c-.14-.37-1-.66-.83-.1Z" transform="translate(-37.35 -255.37)"/><path class="cls-8" d="M353.64,588.8V646a10.89,10.89,0,0,1,0,3.05s-1.09,1.09-1.39,1.41l-3.64,3.87-6.11,6.49c-.29.31.48.95.78.63l5.08-5.4,3.6-3.83a13.52,13.52,0,0,0,2.38-2.53,4.09,4.09,0,0,0,.17-1.78V589.1c0-.39-.87-.83-.87-.3Z" transform="translate(-37.35 -255.37)"/></g><g id="Layer0_6_FILL" data-name="Layer0 6 FILL"><path class="cls-10" d="M348.38,393.36q0-29.59-20.95-50.54T277,322q-29.59,0-50.54,20.85t-20.85,50.54q0,29.59,20.85,50.44,16.62,16.62,38.64,20-3,6.26-6.71,13.52-.95,1.85-1.73,3.46,9.78-5.75,19.12-12.1,3.25-2.25,5.8-4.17,26.64-1.43,45.86-20.74Q348.38,422.95,348.38,393.36Z" transform="translate(-37.35 -255.37)"/></g><g id="Layer0_6_1_STROKES" data-name="Layer0 6 1 STROKES"><path class="cls-8" d="M347.92,393.24a69.84,69.84,0,0,1-17.84,47C318,453.69,302,462.39,283.88,464a9.76,9.76,0,0,0-2.57.21,16.36,16.36,0,0,0-2.77,2q-3.45,2.45-7,4.77-7.48,4.93-15.21,9.48l.75.61c2.78-5.69,5.71-11.3,8.49-17,.13-.26-.18-.61-.42-.65-21.44-3.44-40.48-17.27-50.87-36.33-9.86-18.1-10.95-41.12-3.32-60.22s24.42-34.94,44.07-41.15c19.81-6.26,42.62-3.76,60.1,7.62a74.49,74.49,0,0,1,24.31,26,70.38,70.38,0,0,1,8.45,34c0,.5.93.82.93.23a72.18,72.18,0,0,0-26.43-55.79C306,324,284.08,318.94,263.1,322.75s-39.48,17.86-49.65,36.53-11.08,42.44-2.89,61.94c9.4,22.37,30.64,39.2,54.57,43l-.42-.65c-2.78,5.69-5.71,11.3-8.49,17-.19.39.42.8.75.61q6.91-4.08,13.63-8.45c2.24-1.46,4.48-2.94,6.68-4.48s4-3.16,6.8-3.41a69,69,0,0,0,24-6.47,74.19,74.19,0,0,0,35.24-36.72,72.23,72.23,0,0,0,5.55-28.2C348.85,393,347.92,392.65,347.92,393.24Z" transform="translate(-37.35 -255.37)"/></g><g id="Layer0_7_FILL" data-name="Layer0 7 FILL"><path class="cls-10" d="M111.83,435.2A58.18,58.18,0,0,1,170,377a58.24,58.24,0,0,1,9.62,115.67q2.57,5.14,5.56,11l1.41,2.82q-8-4.72-15.59-9.87-2.65-1.82-4.73-3.32a58.4,58.4,0,0,1-54.48-58.12Z" transform="translate(-37.35 -255.37)"/></g><g id="Layer0_7_1_STROKES" data-name="Layer0 7 1 STROKES"><path class="cls-8" d="M111.35,435.08a57.72,57.72,0,0,0,14,38c9.4,10.83,22,18.29,36.27,20.23,2.14.29,4.21.16,6,1.44q3,2.09,6,4.09,6.35,4.18,12.88,8.06a.38.38,0,0,0,.55-.49q-1.74-3.47-3.49-6.93l-1.78-3.54a12.29,12.29,0,0,1-1-1.9c-.3-1-.59-.8.62-1.21,2.06-.71,4.35-.93,6.45-1.58a55.09,55.09,0,0,0,6.24-2.35,60.39,60.39,0,0,0,22.23-17.51c11.45-14.34,15.06-33.79,10.45-51.48-4.5-17.29-17.78-32.23-34.26-39s-36.43-5.69-51.82,3.3a59.21,59.21,0,0,0-29.36,50.92c0,.5.92.82.92.23a58.1,58.1,0,0,1,21.29-44.92c13.33-11.08,31.1-15.13,48.06-11.91s31.73,14.63,39.73,29.75a57.88,57.88,0,0,1-41.92,84c-.25,0-.3.35-.2.54,2.31,4.62,4.65,9.23,7,13.85l.55-.49Q181,502.68,175.3,499c-1.73-1.13-3.45-2.27-5.15-3.44-1.14-.79-2.49-2.17-3.79-2.65a18.34,18.34,0,0,0-3.75-.35,58.27,58.27,0,0,1-6-1,53.72,53.72,0,0,1-10-3.32,59.67,59.67,0,0,1-29.48-29.42,58,58,0,0,1-4.81-23.49C112.27,434.81,111.34,434.49,111.35,435.08Z" transform="translate(-37.35 -255.37)"/></g><g id="Layer0_8_FILL" data-name="Layer0 8 FILL"><path class="cls-25" d="M734.58,764.2a12.75,12.75,0,0,1,4.78,1q6.1,2.64,5.39,11.29,25.62-18.1,42.4-19.22,8.44-.61,14.44-.51,9,.61,14.54-3.46,31.83-13.83,53.59-2-3.16-6.81.1-12.2a15.38,15.38,0,0,1,3.86-4.37q-27.55-15.15-68,11.19-11.9-2.24-28.78-1T734.58,764.2Z" transform="translate(-37.35 -255.37)"/><path class="cls-4" d="M785.63,653.57q1.62,13.52,9.46,48.71,6.2,27.56,10.58,43.62,40.47-26.34,68-11.19-4.88-11.4-11.18-44.74t-4-50.23Q812,631.3,785.63,653.57m22.88,51.25a28.65,28.65,0,0,1,8.24-5.19,28.65,28.65,0,0,0-8.24,5.19m13.22-7.12a85.45,85.45,0,0,1,9.76-2.34q14.26-2.69,24.3.21-10-2.9-24.3-.21a85.45,85.45,0,0,0-9.76,2.34m4.58-19.93a71,71,0,0,1,12.51-1.32,71,71,0,0,0-12.51,1.32q-18.3,3.35-24.61,11.29,6.3-7.93,24.61-11.29m17.18-1.12q2,.22,3.76.51-1.79-.29-3.76-.51m-41.69-10.07q6.94-4.8,20.24-7.32t22.78-.1q-9.57-2.29-22.78.1t-20.24,7.32m29.69,48a72.86,72.86,0,0,1,8.44-1.12,72.86,72.86,0,0,0-8.44,1.12q-11,2-17.69,5.59,6.72-3.58,17.69-5.59m15-1.22q1.68.07,3.26.2-1.58-.13-3.26-.2m7.93,1a34.17,34.17,0,0,1,6.71,2.54,34.17,34.17,0,0,0-6.71-2.54m-68.84-60.81a3.29,3.29,0,0,0-.81-.1,80.49,80.49,0,0,0-16.37-1.52A101.6,101.6,0,0,0,747,654.38q-11.59,2.44-33.15,12.4,3.25,12.81,10,44.23,6.51,31.42,10.78,53.18,25.42-18,42.3-19.32t28.78,1q-4.37-16.06-10.58-43.62-7.83-35.18-9.46-48.71m-46.37,81.85A75.7,75.7,0,0,1,770.78,726a52.63,52.63,0,0,1,12.81.91,52.63,52.63,0,0,0-12.81-.91,75.7,75.7,0,0,0-31.52,9.46m2.44-20.54q2.23-1.08,4.47-2.13-2.24,1.06-4.47,2.13m29.08-8.13a52.13,52.13,0,0,1,14.64,1.32,52.13,52.13,0,0,0-14.64-1.32,78.16,78.16,0,0,0-19,3.86,78.16,78.16,0,0,1,19-3.86m7.93-16.57q1.77.37,3.46.81-1.68-.44-3.46-.81m-13.12-1a58.42,58.42,0,0,1,8.54.21,58.42,58.42,0,0,0-8.54-.21,75.6,75.6,0,0,0-32.74,10.17,75.6,75.6,0,0,1,32.74-10.17m-38.23-7.42a75,75,0,0,1,9-4.78,75,75,0,0,0-9,4.78m15.35-7.22q2.37-.8,4.78-1.42-2.41.62-4.78,1.42m9.56-2.54a81.87,81.87,0,0,1,9.05-1.22,50.31,50.31,0,0,1,15.56,1.63,50.31,50.31,0,0,0-15.56-1.63A81.87,81.87,0,0,0,752.27,672Z" transform="translate(-37.35 -255.37)"/><path class="cls-26" d="M742.31,782.3l2.64,4.27a287.84,287.84,0,0,1,29.19-11.69q7.73-2.75,36.3-9.25,34.88-6.41,62.64-7.43l.41-4.37q-29,.71-65.69,7.73-28.47,6.51-36.3,9.15A271.4,271.4,0,0,0,742.31,782.3Z" transform="translate(-37.35 -255.37)"/><path class="cls-27" d="M739.36,765.22q1.12,4.57,2,10.37.51,3.36.92,6.71a271.4,271.4,0,0,1,29.18-11.59q7.83-2.65,36.3-9.15,36.71-7,65.69-7.73-.61-2.64-1.83-6.71-1.22-4.88-1.83-8-3.25,5.39-.1,12.2-21.77-11.79-53.59,2-5.49,4.07-14.54,3.46-6-.1-14.44.51-16.78,1.12-42.4,19.22Q745.46,767.86,739.36,765.22Z" transform="translate(-37.35 -255.37)"/></g><g id="Layer0_8_1_STROKES" data-name="Layer0 8 1 STROKES"><path class="cls-8" d="M735,764.23q-5.09-25.9-10.48-51.74c-1.83-8.85-3.78-17.67-5.76-26.48q-1.13-5.06-2.31-10.11c-.58-2.49-1.72-5.31-1.89-7.86-.07-1-.08-1,.91-1.49s2.32-1.06,3.47-1.57q3.25-1.45,6.53-2.82c3.93-1.65,7.91-3.21,11.94-4.58a99.14,99.14,0,0,1,22.57-4.8,94.82,94.82,0,0,1,14.86-.2c1.94.12,3.88.29,5.81.56,1.42.19,3.8,1.23,5.18.85,1.09-.29,2.55-2,3.46-2.7q2.25-1.66,4.65-3.12a65.27,65.27,0,0,1,9.17-4.63c17.54-7.21,37.17-6.64,55.52-3.37l-.57-.55c-2.16,16.15.76,33.07,3.71,48.93,1.74,9.36,3.63,18.7,5.89,27.95.83,3.4,1.72,6.78,2.73,10.13.39,1.28.79,2.55,1.22,3.82.35,1,1.26,2.5,1.33,3.57s-1.87,2.38-2.68,3.47c-1.14,1.54-.85,1.94-.44,3.78.46,2.1.93,4.22,1.51,6.29s1.54,4.18,1.68,6.23a21.36,21.36,0,0,1-.3,3.24c-.06.64,0,.76-.33.91-.61.29-2.63,0-3.39,0q-6.61.33-13.2.91a411.08,411.08,0,0,0-60.33,9.79c-6.83,1.64-13.74,3.22-20.42,5.42a289.86,289.86,0,0,0-30.42,12.12l.7.3c-.74-1.19-1.58-2.36-2.23-3.6-1.13-2.16-1-5.32-1.36-7.75q-.4-2.51-.89-5c-.27-1.37-.3-3.72-1.07-4.88s-4-1.38-5.33-1.46l.44.79c10.45-7.37,21.81-14.54,34.28-17.88,5.85-1.57,11.9-1.78,17.94-1.83a99.06,99.06,0,0,1,18.66,1.44.29.29,0,0,0,.31-.38c-7-25.65-12.86-51.73-17.71-77.86-.88-4.77-1.72-9.55-2.31-14.36-.05-.43-1-.81-.89-.27,1,8.15,2.61,16.23,4.23,24.28,2.64,13.08,5.54,26.11,8.58,39.1q2,8.55,4.12,17.07.91,3.63,1.86,7.25.39,1.51.8,3c.13.47.45,1,.09,1.21s-2.4-.39-2.82-.44a108.57,108.57,0,0,0-17.82-.83,67.12,67.12,0,0,0-14.89,1.64c-12.78,3.26-24.4,10.58-35.06,18.1-.38.27.12.77.44.79,1.44.09,3.57.06,4.41,1.34.62.94.67,3,.88,4.11.66,3.37,1.18,6.77,1.62,10.18.34,2.58,1.58,4.19,2.95,6.4a.59.59,0,0,0,.7.3,247.91,247.91,0,0,1,43-15.59c8.39-2.12,16.84-4.34,25.36-5.86,9.72-1.74,19.48-3.24,29.28-4.42,10.07-1.21,20.18-2.08,30.32-2.47.19,0,.31-.08.33-.28.11-1.17.27-2.34.33-3.51a13.54,13.54,0,0,0-.8-4.35c-.71-2.59-1.43-5.16-2-7.78-.25-1.08-.76-2.39-.53-3.48.34-1.56,2.4-3.2,3.51-4.13a.34.34,0,0,0,.07-.45c-4.14-9.8-6.24-20.6-8.43-31-3.19-15.15-6.16-30.49-7.07-46a93.35,93.35,0,0,1,.41-17.82c0-.29-.34-.51-.57-.55-19.13-3.41-39.68-3.84-57.76,4.24a64.55,64.55,0,0,0-11.17,6.38q-1.34,1-2.64,2a3.8,3.8,0,0,1-3.33.87c-2.29-.26-4.55-.72-6.86-.91a98.41,98.41,0,0,0-32.42,2.67c-10.62,2.71-20.8,7.28-30.72,11.85a.29.29,0,0,0-.11.34c6.36,25.14,11.35,50.66,16.49,76.08q2.16,10.66,4.26,21.34c.09.44,1,.67.86.06Z" transform="translate(-37.35 -255.37)"/><path class="cls-8" d="M733.17,699.75c12.24-7.13,26.86-11.36,41.09-9.93.61.06.2-.78-.24-.83-14.36-1.45-29.12,2.81-41.48,10-.44.25.25,1,.63.75Z" transform="translate(-37.35 -255.37)"/><path class="cls-8" d="M778.77,690.57q1.72.38,3.4.86c.63.18.46-.65,0-.79q-1.69-.49-3.4-.86c-.64-.14-.47.68,0,.79Z" transform="translate(-37.35 -255.37)"/><path class="cls-8" d="M752,711c10.79-3.6,22.21-5.13,33.39-2.51.64.15.47-.67,0-.79-11.34-2.66-22.87-1.18-33.83,2.47-.53.18,0,1,.45.82Z" transform="translate(-37.35 -255.37)"/><path class="cls-8" d="M802.08,689.37c3.59-4.38,8.9-6.91,14.18-8.65a75.21,75.21,0,0,1,22.67-3.81c.62,0,.21-.83-.24-.83a75.15,75.15,0,0,0-23.6,4.06c-5.16,1.77-10.27,4.3-13.78,8.6-.3.36.48,1,.78.63Z" transform="translate(-37.35 -255.37)"/><path class="cls-8" d="M814.16,720.6c7.88-4.19,17.21-6.06,26-6.73.54,0,0-.85-.45-.82-8.9.67-18.29,2.57-26.23,6.79-.44.24.24,1,.63.75Z" transform="translate(-37.35 -255.37)"/><path class="cls-8" d="M808.89,705.19a29.09,29.09,0,0,1,8.17-5.18c.45-.2-.22-.93-.63-.75a29.62,29.62,0,0,0-8.31,5.3c-.33.31.43,1,.78.63Z" transform="translate(-37.35 -255.37)"/><path class="cls-8" d="M821.94,698.16c10.69-3.35,22.88-5.24,33.85-2.2.63.17.46-.66,0-.79-11.12-3.08-23.45-1.23-34.29,2.17-.54.17,0,.95.45.82Z" transform="translate(-37.35 -255.37)"/><path class="cls-8" d="M802.11,667c5.58-3.8,12.23-5.71,18.79-7,7.86-1.57,16-2.23,23.92-.43.64.15.47-.68,0-.79-7.72-1.76-15.72-1.24-23.45.22-6.9,1.31-14,3.26-19.87,7.27-.42.29.27,1,.63.75Z" transform="translate(-37.35 -255.37)"/><path class="cls-8" d="M742.94,674.92q2.36-.79,4.78-1.42c.54-.14,0-.93-.45-.82q-2.41.63-4.78,1.42c-.53.18,0,1,.45.82Z" transform="translate(-37.35 -255.37)"/><path class="cls-8" d="M752.55,672.38a55,55,0,0,1,24.34.39c.63.16.46-.66,0-.79a55.94,55.94,0,0,0-24.78-.42c-.54.1,0,.9.45.82Z" transform="translate(-37.35 -255.37)"/><path class="cls-8" d="M727.68,682.11a78.18,78.18,0,0,1,9.1-4.78c.45-.2-.22-.93-.63-.75a78.18,78.18,0,0,0-9.1,4.78c-.43.26.25,1,.63.75Z" transform="translate(-37.35 -255.37)"/><path class="cls-8" d="M742.06,715.31q2.18-1.13,4.43-2.13c.45-.2-.22-.93-.63-.75q-2.24,1-4.43,2.13c-.44.23.23,1,.63.75Z" transform="translate(-37.35 -255.37)"/><path class="cls-8" d="M739.25,765.57c4.37,2,5.34,6.34,5.05,10.81,0,.3.48.71.76.51,13.56-9.54,28.31-18.36,45.21-19.38,4.7-.28,9.36-.18,14.07-.23a21.59,21.59,0,0,0,10.38-2.46,71.28,71.28,0,0,1,27.46-8.27,48.09,48.09,0,0,1,27.43,5.09c.35.19.66-.05.49-.42-1.73-4-2.07-7.95.1-11.81.23-.41-.56-1-.78-.63-2.32,4.14-2,8.35-.1,12.59l.49-.42c-15.33-8.15-32.9-6.09-48.63-.18a36.88,36.88,0,0,0-6.52,2.95,18.41,18.41,0,0,1-6.65,2.4c-4.7.79-9.7.18-14.47.38-7.37.31-14.2,1.22-21.12,3.86-10,3.83-19.26,9.62-28,15.78l.76.51c.32-4.94-1-9.54-5.73-11.77-.59-.28-.72.46-.22.69Z" transform="translate(-37.35 -255.37)"/><path class="cls-8" d="M742.62,782.68a247.48,247.48,0,0,1,44-15.64,451,451,0,0,1,56.19-10.51c10.23-1.2,20.51-2,30.81-2.28.62,0,.21-.84-.24-.83a388.76,388.76,0,0,0-56.14,6c-9.66,1.67-19.19,3.91-28.71,6.24-5.49,1.34-11,2.66-16.39,4.39A266.2,266.2,0,0,0,742,781.93c-.45.21.23.94.63.75Z" transform="translate(-37.35 -255.37)"/><path class="cls-8" d="M739.57,735.85c13.14-7.33,29-11.46,44-8.52.64.13.47-.69,0-.79-15.21-3-31.28,1.1-44.64,8.56-.44.24.24,1,.63.75Z" transform="translate(-37.35 -255.37)"/><path class="cls-8" d="M846.65,713.77c1.09.05,2.17.13,3.26.25.61.07.2-.78-.24-.83-1.08-.12-2.17-.2-3.26-.25-.61,0-.21.81.24.83Z" transform="translate(-37.35 -255.37)"/><path class="cls-8" d="M854.47,714.82a33.77,33.77,0,0,1,6.6,2.44c.59.29.71-.44.22-.69a35,35,0,0,0-6.83-2.54c-.63-.16-.46.66,0,.79Z" transform="translate(-37.35 -255.37)"/><path class="cls-8" d="M843.65,677.12q1.87.17,3.71.51c.59.11.19-.75-.24-.83q-1.84-.34-3.71-.51c-.61-.06-.21.79.24.83Z" transform="translate(-37.35 -255.37)"/><path class="cls-8" d="M873.79,734.37C851,722,825.33,732.6,805.34,745.52c-.43.28.26,1,.63.75,19.69-12.73,45.1-23.38,67.6-11.22.58.31.7-.43.22-.69Z" transform="translate(-37.35 -255.37)"/></g><g id="Layer0_10_FILL" data-name="Layer0 10 FILL"><path class="cls-10" d="M249.27,739.7l2.44,13.53,6.1-13.53Z" transform="translate(-37.35 -255.37)"/><path class="cls-4" d="M157.45,658.76q.3,14.13,4.17,46.17,5.19,43.42,14,71.08,16-1.94,52.78-14.54,11.69-4,23.28-8.23l-2.44-13.53h8.54q-5.79-18-11.59-43.22-8.95-38.85-8.95-48.5-14.95,3.36-29.49,6-29.08,5.18-50.33,4.78m34.06,19q2.54-.51,5.39-1-2.85.51-5.39,1m-12.41,45.76q17.8-4.27,35.18-7.83-17.39,3.56-35.18,7.83m28.68-25.93,3.56-.61-3.56.61M221,714.28q4.57-.91,9.05-1.73-4.47.81-9.05,1.73m14.64-2.85c.88-.21,1.76-.37,2.64-.51-.88.13-1.76.3-2.64.51m-16.78-15.66q11.79-2,13.12-2.13-1.32.1-13.12,2.13m-15.35-20.34q14.13-3,20.84-4.27-6.71,1.32-20.84,4.27m.41,68.84q8-2.24,16.47-4.37l3.15-.81-3.15.81Q212,742,203.92,744.28M187.24,749q4.88-1.43,10-2.85-5.09,1.43-10,2.85m42.5-11.49q12.41-3.36,14.44-4.27-2,.92-14.44,4.27m-57.65-56,9.86-1.73-9.86,1.73m5.9,21.45,22.37-4Z" transform="translate(-37.35 -255.37)"/></g><g id="Layer0_10_1_STROKES" data-name="Layer0 10 1 STROKES"><path class="cls-8" d="M258.25,739.73c-4.45-13.89-8.08-28-11.37-42.25-2.92-12.63-5.83-25.32-7.91-38.12a73,73,0,0,1-1.24-11.24.6.6,0,0,0-.67-.54c-26.1,5.84-52.85,11.23-79.71,10.77a.3.3,0,0,0-.34.29c.32,14,2,27.95,3.65,41.82a523.94,523.94,0,0,0,8.34,52.1c1.75,7.89,3.77,15.73,6.23,23.43a.62.62,0,0,0,.66.44c10.25-1.28,20.31-4.23,30.17-7.21,15.46-4.67,30.73-10,45.89-15.57a.31.31,0,0,0,.22-.39L250,741.17c-.07-.37-.09-1.54-.4-1.23s1.77.19,2.18.19h6.18l-.55-.65L251.27,753c-.19.42.65.94.87.46l6.1-13.53c.13-.3-.28-.65-.55-.65h-8.54a.31.31,0,0,0-.32.4l1.81,10a21.81,21.81,0,0,1,.45,2.5c0,.16.18.51.12.66-.22.56.11-.08-.65.29-4,2-8.76,3.18-13,4.67-15,5.26-30.1,10.41-45.51,14.38a132.57,132.57,0,0,1-16.61,3.38l.66.44c-8-25.16-11.79-51.51-14.81-77.66-1.33-11.53-2.62-23.1-3.2-34.7q-.07-1.48-.13-3c0-1.17-.26-1.41,1-1.49,3.21-.21,6.47,0,9.69-.17,6.08-.26,12.14-.78,18.18-1.49,17-2,33.9-5.41,50.63-9.15l-.67-.54c0,8.11,2.06,16.38,3.65,24.28,3,15,6.44,30,10.33,44.8,2,7.64,4.16,15.23,6.58,22.75.14.44,1.06.63.87,0Z" transform="translate(-37.35 -255.37)"/><path class="cls-8" d="M191.73,678.19q2.69-.53,5.39-1c.55-.1,0-.91-.44-.83q-2.7.48-5.39,1c-.55.11,0,.92.44.83Z" transform="translate(-37.35 -255.37)"/><path class="cls-8" d="M179.33,724q17.53-4.2,35.18-7.83c.55-.11,0-.92-.44-.83q-17.66,3.62-35.18,7.83c-.55.13,0,.94.44.83Z" transform="translate(-37.35 -255.37)"/><path class="cls-8" d="M208,698l3.56-.61c.55-.1,0-.91-.44-.83l-3.56.61c-.55.09,0,.9.44.83Z" transform="translate(-37.35 -255.37)"/><path class="cls-8" d="M221.22,714.7q4.52-.9,9.05-1.73c.55-.1,0-.91-.44-.83q-4.53.83-9.05,1.73c-.55.11,0,.92.44.83Z" transform="translate(-37.35 -255.37)"/><path class="cls-8" d="M235.87,711.85q1.31-.3,2.64-.51c.55-.09,0-.9-.44-.83q-1.33.21-2.64.51c-.55.13,0,.93.44.83Z" transform="translate(-37.35 -255.37)"/><path class="cls-8" d="M219.09,696.19c4.34-.75,8.73-1.73,13.12-2.13.55-.05,0-.87-.44-.83-4.39.41-8.78,1.39-13.12,2.13-.55.1,0,.91.44.83Z" transform="translate(-37.35 -255.37)"/><path class="cls-8" d="M203.73,675.86c6.94-1.45,13.89-2.9,20.84-4.27.55-.11,0-.92-.44-.83-7,1.37-13.9,2.82-20.84,4.27-.55.12,0,.92.44.83Z" transform="translate(-37.35 -255.37)"/><path class="cls-8" d="M204.14,744.69c6.52-1.81,13.08-3.46,19.62-5.19.55-.15,0-.95-.44-.83-6.54,1.73-13.1,3.37-19.62,5.19-.55.15,0,1,.44.83Z" transform="translate(-37.35 -255.37)"/><path class="cls-8" d="M187.46,749.37q5-1.45,10-2.85c.55-.15,0-1-.44-.83q-5,1.4-10,2.85c-.55.16,0,1,.44.83Z" transform="translate(-37.35 -255.37)"/><path class="cls-8" d="M230,737.88c4.8-1.3,9.95-2.33,14.53-4.31.46-.2-.2-.94-.63-.76-4.52,2-9.62,3-14.35,4.24-.55.15,0,.95.44.83Z" transform="translate(-37.35 -255.37)"/><path class="cls-8" d="M172.31,681.85q4.93-.85,9.86-1.73c.55-.1,0-.91-.44-.83q-4.93.87-9.86,1.73c-.55.1,0,.91.44.83Z" transform="translate(-37.35 -255.37)"/><path class="cls-8" d="M178.21,703.31l22.37-4c.55-.1,0-.91-.44-.83l-22.37,4c-.55.1,0,.91.44.83Z" transform="translate(-37.35 -255.37)"/></g><g id="Layer0_11_1_STROKES" data-name="Layer0 11 1 STROKES"><path class="cls-8" d="M351.77,314.36c1.05-1.34,2.13-2.67,3.1-4.07.34-.48-.44-1.11-.78-.63-1,1.4-2,2.73-3.1,4.07-.36.46.41,1.09.78.63Z" transform="translate(-37.35 -255.37)"/><path class="cls-8" d="M361.74,345.71c9.53-4.14,19.11-8.75,29-11.9.59-.19.17-1.07-.38-.9-9.92,3.15-19.5,7.76-29,11.9-.57.25-.15,1.13.38.9Z" transform="translate(-37.35 -255.37)"/><path class="cls-8" d="M358.49,332.24c6.12-4.13,12.38-8.07,18.35-12.4.49-.36-.13-1.13-.6-.79-6,4.34-12.23,8.28-18.35,12.4-.5.34.12,1.12.6.79Z" transform="translate(-37.35 -255.37)"/><path class="cls-8" d="M354.51,358.54q6.92-.17,13.83-.36c.64,0,.44-1-.15-.94q-6.91.2-13.83.36c-.64,0-.44,1,.15.94Z" transform="translate(-37.35 -255.37)"/><path class="cls-8" d="M376.72,357.93c.75,0,1.49,0,2.24-.1s.44-1-.15-.94c-.74.06-1.49.08-2.24.1s-.44,1,.15.94Z" transform="translate(-37.35 -255.37)"/><path class="cls-8" d="M351.37,350.24l2-.92c.56-.26.14-1.14-.38-.9l-2,.92c-.57.25-.15,1.13.38.9Z" transform="translate(-37.35 -255.37)"/><path class="cls-8" d="M75.61,386.81c7.31,2.33,14.64,4.61,22,6.91.62.19.66-.75.1-.92-7.32-2.3-14.65-4.58-22-6.91-.62-.2-.66.75-.1.92Z" transform="translate(-37.35 -255.37)"/><path class="cls-8" d="M98.22,359.91A113.07,113.07,0,0,0,107.72,371c.42.44,1.2,0,.76-.51A113.07,113.07,0,0,1,99,359.4a.46.46,0,1,0-.76.51Z" transform="translate(-37.35 -255.37)"/><path class="cls-8" d="M132.37,370.17a31.46,31.46,0,0,0,1.42,4c.26.54,1.17.29.88-.29a31.47,31.47,0,0,1-1.42-4,.47.47,0,1,0-.88.29Z" transform="translate(-37.35 -255.37)"/><path class="cls-8" d="M120.57,335.44c3.41,9.27,6.71,18.59,9.66,28a.47.47,0,1,0,.88-.29c-2.95-9.43-6.25-18.74-9.66-28-.21-.56-1.11-.32-.88.29Z" transform="translate(-37.35 -255.37)"/><path class="cls-8" d="M104.65,396a24.17,24.17,0,0,0,6.17,1.23c.64,0,.43-.93-.15-.94a23.37,23.37,0,0,1-5.93-1.21c-.62-.18-.67.76-.1.92Z" transform="translate(-37.35 -255.37)"/><path class="cls-8" d="M112.85,376.22q.93.83,1.88,1.63a.45.45,0,1,0,.57-.7q-1-.8-1.88-1.63a.45.45,0,1,0-.57.7Z" transform="translate(-37.35 -255.37)"/><path class="cls-8" d="M337,333.68q4.37-5.81,8.8-11.59c.36-.47-.42-1.1-.78-.63q-4.43,5.77-8.8,11.59c-.35.47.42,1.1.78.63Z" transform="translate(-37.35 -255.37)"/><path class="cls-8" d="M345.12,341.39q2.86-2,5.75-3.91c.5-.34-.12-1.12-.6-.79q-2.88,1.94-5.75,3.91c-.5.34.12,1.12.6.79Z" transform="translate(-37.35 -255.37)"/></g><g id="Layer0_13_FILL" data-name="Layer0 13 FILL"><path class="cls-10" d="M190.32,731.33a20.39,20.39,0,0,0,.26-2.32,21.71,21.71,0,0,0-.26-5.28,8.16,8.16,0,0,0-2.84-4.9,6.83,6.83,0,0,0-1.42-.77,18.53,18.53,0,0,0-1.8-.64q-4.76-1.36-13.4-1-10.31.39-16.75.77-4.12.13-5.41,4.51a17.1,17.1,0,0,0-.64,5.93,24.59,24.59,0,0,0,1,6.57q1.29,4.9,4.64,7,5.28,3.09,15,3.35,9.41.26,15.34-3.09,5.2-3,6.32-10.05M88.64,718.83a8,8,0,0,0-2.83,4.9,21.5,21.5,0,0,0-.26,5.28c0,.85.13,1.67.26,2.45q1.13,6.94,6.31,9.92,5.93,3.35,15.34,3.09,9.67-.26,15-3.35a11.27,11.27,0,0,0,4.64-7,25.32,25.32,0,0,0,1-6.57,17.6,17.6,0,0,0-.64-6.06A5.65,5.65,0,0,0,122,717l-16.75-.64Q95,716,90.06,718.05A7.48,7.48,0,0,0,88.64,718.83Z" transform="translate(-37.35 -255.37)"/><path class="cls-28" d="M155.4,696.79q3.61,1.29,4.64-3.61c-.51-.6-.9-1-1.16-1.29.26.26.65.69,1.16,1.29q1.55,1.68,6.44,6.19,1.8,1.68,4.12,3.87,6.7,6.05,16.88,15.59a8.16,8.16,0,0,1,2.84,4.9,5.28,5.28,0,0,1,3.09,1.8q1.8-3.48-1.68-8a25.5,25.5,0,0,0-4-4.38q-5.8-5.28-10.44-9.92-1.8-1.8-3.35-3.48l-9.41-8.89q-.9-.9-2.32-2.19a5.53,5.53,0,0,0-3.87-1.29q-2.32-.13-4,4.25t1,5.16M82.84,725.53a6.17,6.17,0,0,1,3-1.8,8,8,0,0,1,2.83-4.9q10.49-9.49,17-15.59,2.4-2.15,4.25-3.87,4.85-4.54,6.44-6.19c.55-.59.94-1,1.16-1.29-.22.27-.61.7-1.16,1.29q1.09,4.95,4.64,3.61,2.61-.82.9-5.16-1.56-4.37-4-4.38a5.86,5.86,0,0,0-3.74,1.42,29,29,0,0,0-2.32,2.19l-9.41,8.89q-1.59,1.69-3.35,3.48-4.63,4.62-10.57,9.92Q80.42,720.52,82.84,725.53Z" transform="translate(-37.35 -255.37)"/><path class="cls-29" d="M141.87,726v1.42a6.09,6.09,0,0,0,2.32,4.89,8.11,8.11,0,0,0,4.9,1.81,24.59,24.59,0,0,1-1-6.57,17.1,17.1,0,0,1,.64-5.93q-4.25-.13-5.8,1.81a5.65,5.65,0,0,0-1,2.58M127,734.16a7.85,7.85,0,0,0,5.16-1.81,6.1,6.1,0,0,0,2.32-4.89,7.39,7.39,0,0,0-.13-1.42,4.82,4.82,0,0,0-.9-2.58q-1.59-1.93-6.06-1.93a17.6,17.6,0,0,1,.64,6.06A25.32,25.32,0,0,1,127,734.16Z" transform="translate(-37.35 -255.37)"/></g><g id="Layer0_13_1_STROKES" data-name="Layer0 13 1 STROKES"><path class="cls-8" d="M82.58,725.21a4.69,4.69,0,0,0-.19,4.92A4,4,0,0,0,86,731.9a.37.37,0,0,0,.37-.45,22.16,22.16,0,0,1,.07-7.62c.07-.32-.38-.64-.67-.54a6.77,6.77,0,0,0-3.15,1.92c-.35.41.43,1,.78.63a5.92,5.92,0,0,1,2.78-1.68l-.67-.54a22.84,22.84,0,0,0-.06,7.85l.37-.45a2.77,2.77,0,0,1-2.7-1.39,3.86,3.86,0,0,1,.28-3.78C83.67,725.4,82.89,724.77,82.58,725.21Z" transform="translate(-37.35 -255.37)"/><path class="cls-8" d="M83.39,725.41c-2.92-6.57,6.94-13.06,10.87-16.76,3.56-3.36,6.89-6.94,10.44-10.3,2.48-2.34,5-4.65,7.43-7s6.38-5.77,8.79-1.15c.72,1.38,2,4.13.85,5.59a3.19,3.19,0,0,1-2.64.82c-1.51-.38-1.94-2.14-2.26-3.41-.09-.36-.56-.61-.85-.31-8.76,9-18.38,17.21-27.64,25.65-.37.33.32,1,.69.7,5.35-3.55,13.63-2.5,19.67-2.26q5.07.2,10.14.43c3.76.17,6.87.24,8.26,4.33a.58.58,0,0,0,.51.33c3.06,0,5.76.52,6.41,4a.55.55,0,0,0,.76.39,7.48,7.48,0,0,1,7,0,.4.4,0,0,0,.61-.28c.64-3.42,3.3-4.06,6.39-4a.36.36,0,0,0,.35-.23c1.24-3.74,3.77-4.22,7.32-4.41,3.27-.18,6.54-.32,9.81-.46,3.61-.15,7.22-.35,10.83-.17,3.34.17,7.32.49,10.19,2.37.52.34,1-.2.52-.64q-7.35-6.89-14.78-13.69c-4.26-3.88-8.69-7.71-12.64-11.92-.17-.19-.7-.39-.8,0-.45,1.84-1.32,4.06-3.63,3.56-2.92-.64-1.37-4.54-.46-6.24,1.41-2.61,4-3.25,6.47-1.29.88.7,1.66,1.57,2.48,2.34,2.65,2.53,5.32,5,8,7.54,4.15,3.92,8,8.11,12.23,12,3.17,3,7.87,6.38,8.78,10.92.3,1.48-.42,2.49-.44,3.85s1,2.14.46,3.54-1.83,1.71-3.23,1.76a.37.37,0,0,0-.37.34c-.71,4-2.54,7.61-6.15,9.71s-8.16,2.89-12.38,3a41.68,41.68,0,0,1-12.91-1.39c-4.54-1.32-7.53-3.8-8.87-8.47a.6.6,0,0,0-.55-.44c-4.33-.37-6.89-3.24-6.6-7.56,0-.52-.89-.82-.93-.22-.17,2.51.26,4.74,2.19,6.49a8.34,8.34,0,0,0,3.05,1.75c1.75.56,1.9.29,2.59,2,2.13,5.32,7.34,7.22,12.62,8.11,6.63,1.11,14.17,1.17,20.44-1.56a13.63,13.63,0,0,0,5.85-4.49,13.93,13.93,0,0,0,1.74-3.39c.45-1.26.31-2.54,1.55-3.1,1.92-.86,3.26-1.58,3.15-4.06,0-.9-.57-1.66-.53-2.54,0-1.17.48-2.14.23-3.37-.58-2.91-2.9-5.57-4.93-7.6-2.75-2.76-5.73-5.3-8.54-8-5.93-5.72-11.64-11.65-17.73-17.21-1.61-1.47-4.28-2.85-6.44-1.65s-3.53,4.83-3.39,7.18a3.14,3.14,0,0,0,3.15,3c2.49.22,3.5-2,4-4.08h-.8c3.86,4.11,8.16,7.87,12.33,11.66q7.7,7,15.28,14.14l.52-.64c-3.47-2.27-8.09-2.56-12.12-2.68-5.88-.17-11.81.29-17.68.59-3.36.17-7.11-.17-9,3.17-.79,1.38-1.15,1.45-2.7,1.67a7.12,7.12,0,0,0-2.28.66,5,5,0,0,0-2.55,4l.61-.28a8.39,8.39,0,0,0-7.93,0l.76.39a5.16,5.16,0,0,0-2.26-3.8c-1.65-1-4.17-.48-5.21-2s-1.63-2.5-3.25-3.14-3.74-.54-5.57-.62c-5.8-.26-11.64-.68-17.44-.61-4.15.05-9.2.18-12.79,2.56l.69.7c9.26-8.44,18.88-16.68,27.64-25.65l-.85-.31c.48,1.88,1.33,4.14,3.56,4.32a3.17,3.17,0,0,0,3.54-2.31c.47-2.31-1.09-5.8-2.79-7.34s-4.1-1.15-5.85,0a35,35,0,0,0-4.18,3.86l-5,4.76c-4,3.77-7.73,7.76-11.73,11.51-4.26,4-14.1,10.49-10.93,17.63.23.51,1.1.36.84-.23Z" transform="translate(-37.35 -255.37)"/><path class="cls-8" d="M86.38,723.94a7.69,7.69,0,0,1,2.7-4.73c.45-.34-.19-1.09-.61-.78a8.27,8.27,0,0,0-3,5.07c-.11.51.77,1,.89.44Z" transform="translate(-37.35 -255.37)"/><path class="cls-8" d="M126.73,733.94a11.68,11.68,0,0,1-7.84,8.28A38.79,38.79,0,0,1,106,744a28.71,28.71,0,0,1-12.8-2.57c-4.07-2-6.12-5.66-6.91-10-.09-.52-1-.62-.91,0,.72,4,2.48,7.63,6,9.9,3.81,2.49,8.59,3.35,13.07,3.54A39.87,39.87,0,0,0,119.61,743a12.27,12.27,0,0,0,8-8.6c.15-.5-.72-1-.89-.44Z" transform="translate(-37.35 -255.37)"/><path class="cls-8" d="M158.59,692.11c.41.41.78.85,1.16,1.29s1.13,0,.7-.45-.75-.88-1.16-1.29a.53.53,0,0,0-.66-.16.41.41,0,0,0,0,.61Z" transform="translate(-37.35 -255.37)"/><path class="cls-8" d="M117.19,691.57c-.37.44-.77.87-1.16,1.29s.41,1,.78.63.79-.85,1.16-1.29-.43-1-.78-.63Z" transform="translate(-37.35 -255.37)"/><path class="cls-8" d="M134.06,725.93c.31,4.46-2.4,7.57-7,7.78l.54.67a25,25,0,0,0,.4-12.79c-.14-.51-1.08-.6-.91,0a24.23,24.23,0,0,1-.37,12.34.55.55,0,0,0,.54.67c4.91-.22,8.06-3.57,7.72-8.46,0-.51-1-.81-.93-.22Z" transform="translate(-37.35 -255.37)"/><path class="cls-8" d="M190.86,731.5c.64-4.41.69-9.78-3-12.93-.48-.41-1,.23-.52.64,3.37,2.9,3.15,8.06,2.56,12.07-.07.51.84.82.93.22Z" transform="translate(-37.35 -255.37)"/><path class="cls-8" d="M190.36,724.22a4.65,4.65,0,0,1,2.77,1.53c.34.49,1.08.08.7-.45a5.78,5.78,0,0,0-3.42-1.95c-.63-.16-.59.73-.05.87Z" transform="translate(-37.35 -255.37)"/><path class="cls-8" d="M148.32,721.44a23,23,0,0,0,.37,12.72c.15.5,1.09.6.91,0a22.19,22.19,0,0,1-.4-12.28c.15-.5-.73-1-.89-.44Z" transform="translate(-37.35 -255.37)"/></g><text class="cls-30" transform="translate(993.27 388.23) rotate(-90) scale(0.97 1)">READING</text><text class="cls-31" transform="translate(317.62 453.82) scale(0.92 1)">LEARNING</text><text class="cls-32" transform="translate(402.82 130.32) scale(0.97 1)">SPEAKING</text><text class="cls-33" transform="translate(28 423.54) rotate(-90) scale(0.97 1)">LISTENING</text><g id="Layer0_9_FILL" data-name="Layer0 9 FILL"><path class="cls-34" d="M668.69,460.81q4.37-1.68,5.9,2.54l7.53-6.71-.31-5.8-6.92,5.9,2.75-8.64-7.32,3.36Z" transform="translate(-37.35 -255.37)"/><path class="cls-35" d="M722.78,384.75a16.08,16.08,0,0,0-2.24-2.95,17.41,17.41,0,0,0-2.64-2.24,7.21,7.21,0,0,0-2.24-1.12,15.2,15.2,0,0,0-6.82.1q-10.37,19-16,29.49Q682.61,427,670.31,451.46l7.32-3.36-2.75,8.64,6.92-5.9.31,5.8Q693.51,435.53,722.78,384.75Z" transform="translate(-37.35 -255.37)"/><path class="cls-8" d="M674.58,463.36q-1.53-4.23-5.9-2.54l-1.63,9.35Z" transform="translate(-37.35 -255.37)"/></g><g id="Layer0_9_1_STROKES" data-name="Layer0 9 1 STROKES"><path class="cls-8" d="M682.5,457c13.08-24.21,27-48,40.72-71.84a.35.35,0,0,0,0-.38c-3-4.76-7.14-7.58-12.85-6.88-2,.24-1.9.37-2.84,2.09l-2.89,5.32-5,9.18c-5.92,10.93-11.83,21.87-17.57,32.89q-6.2,11.9-12.21,23.9c-.18.35.47.74.75.61l7.32-3.36-.75-.61-2.75,8.64c-.13.4.51.81.82.55l6.92-5.9-.83-.45c.08,1.52.71,4.88.16,5.8a13.32,13.32,0,0,1-2.47,2.23l-3.43,3.1c-3,2.69-6,5.34-9,8l.82.55,3.25-18.71c.07-.42-.78-.93-.86-.47l-3.25,18.71c-.07.39.49.85.82.55,3.14-2.8,6.28-5.6,9.41-8.42l3.49-3.15c.56-.51,1.79-1.24,2.13-1.93s0-1.74,0-2.38l-.19-3.61c0-.36-.53-.71-.83-.45l-6.92,5.9.82.55,2.75-8.64c.12-.37-.43-.75-.75-.61L670,451.09l.75.61c11.13-22.16,22.82-44,34.67-65.8l2.44-4.47c1-1.83,1.65-2.68,3.8-2.84a9.54,9.54,0,0,1,6.16,1.34c1.47,1,4.72,3.43,4.14,5.43-.39,1.36-1.73,3-2.44,4.22l-2.61,4.52-5.21,9q-8.6,15-17.1,30c-4.35,7.7-8.67,15.42-12.88,23.21-.22.41.57,1,.78.63Z" transform="translate(-37.35 -255.37)"/><path class="cls-8" d="M669,461.19a4.68,4.68,0,0,1,3.13-.27,3.89,3.89,0,0,1,2.07,2.45c.15.39,1.07.63.85.07-1.2-3.05-3.62-4.12-6.69-3-.44.16.23.89.64.75Z" transform="translate(-37.35 -255.37)"/></g><path class="cls-8" d="M430.07,464c-2.32,3.83-5.11,6.56-8.53,6.56-2.78,0-3.42-1.91-3.42-3.94a10.66,10.66,0,0,1,.12-1.86c-2.78,3.31-5.68,5.92-8.18,5.92-2.09,0-2.84-1.39-2.84-3.07a20.39,20.39,0,0,1,1.8-6.55l-.58.64a1.06,1.06,0,0,1-.81.35,1.11,1.11,0,0,1-1.1-1.16,1.7,1.7,0,0,1,.29-.75c3.54-3.89,4.7-5.51,5.8-7.43a1.43,1.43,0,0,1,1.16-.81,1.05,1.05,0,0,1,1.1,1.16,19.57,19.57,0,0,1-1,2.49l-1.1,2.55c-1.51,3.31-3.31,7.6-3.31,9.57,0,.46.12.75.52.75,2.9,0,7.43-5.8,10.33-10.21v.06a31.47,31.47,0,0,1,2.55-5.16,1.57,1.57,0,0,1,1.28-.75,1.15,1.15,0,0,1,1.16,1.1c0,1.22-2.26,4.76-3,5.92v-.06c-1,2.44-2,5.28-2,7.31,0,1.1.29,1.74,1.28,1.74,3.36,0,6.5-5.1,8.7-9.4a26.51,26.51,0,0,1,2.67-5.92,1.57,1.57,0,0,1,1.1-.7,1.14,1.14,0,0,1,1.16,1.22,42.28,42.28,0,0,1-2,4.58l-.87,1.8a9.44,9.44,0,0,0-.41,2.2,1.2,1.2,0,0,0,1.33,1.33c1.28,0,2.38-.7,4.41-3.13.52-.64.81-.64,1.1-.64a1.14,1.14,0,0,1,1.1,1.1,1.17,1.17,0,0,1-.23.75c-2.15,2.67-4.47,4.18-6.38,4.18A3.68,3.68,0,0,1,430.07,464Z" transform="translate(-37.35 -255.37)"/><path class="cls-8" d="M443.12,467.85c0-1.86,1.8-4.87,2.9-6.67.06-.12,1.51-2.61,2.15-3.83a3.29,3.29,0,0,0,.35-1.16c0-.12-.06-.17-.41-.17h-1.22a2.15,2.15,0,0,1-1.92-.75c-1.51,1.86-3.54,4.35-5.45,6.44a1.06,1.06,0,0,1-.81.35,1,1,0,0,1-1.1-1.1,1.12,1.12,0,0,1,.23-.7c1.74-2,4.35-5,5.92-7s1.57-2,1.8-2.26a1.83,1.83,0,0,1,1-.52,1.07,1.07,0,0,1,1.16,1,2,2,0,0,1-.35,1c-.41.64-.52,1-.41,1.16a6.15,6.15,0,0,0,1.51,0,2.23,2.23,0,0,1,2.32,2.2c0,1.62-1.74,4.53-3,6.73-1.1,1.86-2.38,3.94-2.38,5.16a.49.49,0,0,0,.52.52,1.1,1.1,0,0,0,.52-.17,46.17,46.17,0,0,0,6-5.74c.81-.87,1.51-1.68,2.15-2.32a1.13,1.13,0,1,1,1.63,1.57l-.87.93c-2,2.2-5.16,5.8-7.6,7.48a3.26,3.26,0,0,1-1.8.52A2.75,2.75,0,0,1,443.12,467.85Z" transform="translate(-37.35 -255.37)"/><path class="cls-8" d="M454.9,467.85c0-1.86,1-4.53,2-6.9a9.11,9.11,0,0,1-.75.75,1,1,0,0,1-.75.35,1.19,1.19,0,0,1-1.1-1.16c0-.35,0-.46.41-.93l6.56-7.66a1.3,1.3,0,0,1,.87-.46c.75,0,1.1.41,1.1.93a2.12,2.12,0,0,1-.12.81c-.35.58-2.09,3.65-3.65,7.08-1,2.44-2.32,5.22-2.32,7,0,.46,0,.75.23.75a3,3,0,0,0,1.51-.75c3.48-3.19,6.67-6.79,7.37-7.54a1.18,1.18,0,0,1,.87-.35,1.1,1.1,0,0,1,1.1,1.1,2,2,0,0,1-.41.87,100.24,100.24,0,0,1-7.43,7.54,4.86,4.86,0,0,1-3.07,1.39C455.54,470.69,454.9,469.19,454.9,467.85Zm10.67-19.49c-1.1,0-1.51-.81-1.51-1.74a2,2,0,0,1,1.91-2.09,1.55,1.55,0,0,1,1.57,1.68A1.92,1.92,0,0,1,465.57,448.36Z" transform="translate(-37.35 -255.37)"/><path class="cls-8" d="M465.86,460.95a1.15,1.15,0,0,1,.35-.81,33.46,33.46,0,0,0,4.47-5.86h-2.15a1.16,1.16,0,0,1-1.16-1.16,1.12,1.12,0,0,1,1.16-1.1h3.36l.87-1.86c2.26-5.68,3.13-7.54,3.13-7.54a1.15,1.15,0,0,1,1-.7A1.06,1.06,0,0,1,478,443a1.87,1.87,0,0,1-.12.7L474.45,452h5.34a1.12,1.12,0,0,1,1.16,1.1,1.16,1.16,0,0,1-1.16,1.16h-6.21c-1.33,3.42-3.19,8.76-3.19,11.72,0,.93.23,2.32,1.16,2.32,1.51,0,5.8-4.53,9-8.18a1.14,1.14,0,0,1,.81-.35,1.19,1.19,0,0,1,1.16,1.1,1.46,1.46,0,0,1-.35.81c-2,2.44-7.54,8.88-10.67,8.88-2.38,0-3.36-2.32-3.36-4.52a22,22,0,0,1,.93-5.74l-1.28,1.39a1.15,1.15,0,0,1-.81.35A1.12,1.12,0,0,1,465.86,460.95Z" transform="translate(-37.35 -255.37)"/><path class="cls-8" d="M480.89,467.85c0-1.86,1-4.53,2-6.9a9.15,9.15,0,0,1-.75.75,1,1,0,0,1-.75.35,1.19,1.19,0,0,1-1.1-1.16c0-.35,0-.46.41-.93l6.56-7.66a1.3,1.3,0,0,1,.87-.46c.75,0,1.1.41,1.1.93a2.11,2.11,0,0,1-.12.81c-.35.58-2.09,3.65-3.65,7.08-1,2.44-2.32,5.22-2.32,7,0,.46,0,.75.23.75a3,3,0,0,0,1.51-.75c3.48-3.19,6.67-6.79,7.37-7.54a1.18,1.18,0,0,1,.87-.35,1.1,1.1,0,0,1,1.1,1.1,2,2,0,0,1-.41.87,100.19,100.19,0,0,1-7.43,7.54,4.86,4.86,0,0,1-3.07,1.39C481.53,470.69,480.89,469.19,480.89,467.85Zm10.67-19.49c-1.1,0-1.51-.81-1.51-1.74a2,2,0,0,1,1.91-2.09,1.55,1.55,0,0,1,1.57,1.68A1.92,1.92,0,0,1,491.56,448.36Z" transform="translate(-37.35 -255.37)"/><path class="cls-8" d="M496.14,469.19a2.1,2.1,0,0,1,.35-1c2.26-4.18,5.45-11.2,5.45-13.63,0-.29-.06-.58-.23-.58a2.64,2.64,0,0,0-1.22.58c-1,.75-4.06,4.24-6.61,7.14a1.12,1.12,0,0,1-.87.41,1.15,1.15,0,0,1-1.16-1.1,1.46,1.46,0,0,1,.35-.81c2-2.32,5.57-6.44,7-7.48a4.58,4.58,0,0,1,2.55-1,2.72,2.72,0,0,1,2.55,2.9,10.28,10.28,0,0,1-.52,2.78c2.78-3.25,5.8-5.57,8.88-5.57a2.54,2.54,0,0,1,2.84,2.49c0,2.26-1.74,6-2.55,7.6-1,2-2.26,4.76-2.26,6,0,.23.12.35.29.35,1.86,0,5.86-4.35,9.22-8.12a1.3,1.3,0,0,1,.81-.35,1,1,0,0,1,1.1,1.16,1.72,1.72,0,0,1-.29.75c-3.42,3.83-7.95,8.82-10.91,8.82a2.4,2.4,0,0,1-2.49-2.49c0-1.74,1.22-4.29,2.49-7.08,1-2.15,2.32-4.93,2.32-6.38,0-.46-.23-.52-.58-.52-2.55,0-5.51,2.73-7.89,5.68a69.59,69.59,0,0,0-5.45,8.47l-.93,1.68a1.17,1.17,0,0,1-1,.46A1,1,0,0,1,496.14,469.19Z" transform="translate(-37.35 -255.37)"/><path class="cls-8" d="M514.76,484.27c0-3.48,2.84-9.17,9.63-13.63l3.19-2,.46-.93c-1.62,1.51-3.71,2.84-5.92,2.84-2.61,0-4-2-4-4.35s1.39-5.57,3.83-8.41c4.53-5.16,8.82-6.15,11.43-6.15a7.22,7.22,0,0,1,2.73.46c.46.23.75.46.75.81a1.69,1.69,0,0,1-.17.64l-5.8,13.11a30.73,30.73,0,0,0,8.41-6.5,1.15,1.15,0,0,1,2,.75,1.46,1.46,0,0,1-.35.81c-3.37,3.54-5.92,5.34-11.6,8.47-1.8,4.18-3.25,7.54-4.52,10.21-1.51,3.13-3.71,7.95-6.79,7.95C515.75,488.33,514.76,486.36,514.76,484.27ZM525,474.52l1-2.26-.35.29c-6.5,4.18-8.59,9-8.59,11.66,0,.87.23,1.8,1,1.8,1.39,0,3-2.73,4.76-6.5C523.52,477.95,524.22,476.26,525,474.52Zm8.41-20.65c-2.15,0-5.8.87-9.75,5.45-2.26,2.55-3.25,5-3.25,6.85,0,1.28.64,2.09,1.74,2.09a4,4,0,0,0,1.16-.17c4.06-1.51,8.47-9.22,10.79-14.21Z" transform="translate(-37.35 -255.37)"/><path class="cls-36" d="M319.1,472.06s76.28.87,88.47-11.07" transform="translate(-37.35 -255.37)"/><path class="cls-36" d="M667.06,469.83C626,472.27,564.91,461,556.33,456.4a14.43,14.43,0,0,0-16,4.43" transform="translate(-37.35 -255.37)"/><circle class="cls-19" cx="980.36" cy="405.83" r="5.46"/><circle class="cls-24" cx="389.13" cy="122.76" r="5.46"/><circle class="cls-24" cx="577.01" cy="119.24" r="5.46"/><line class="cls-37" x1="225.24" y1="441.61" x2="226.24" y2="441.61"/><line class="cls-38" x1="229.26" y1="441.61" x2="303.23" y2="441.61"/><line class="cls-37" x1="304.74" y1="441.61" x2="305.74" y2="441.61"/><line class="cls-37" x1="485.83" y1="441.61" x2="486.83" y2="441.61"/><line class="cls-39" x1="489.84" y1="441.61" x2="673.98" y2="441.61"/><line class="cls-37" x1="675.49" y1="441.61" x2="676.49" y2="441.61"/><polyline class="cls-40" points="577.01 133.01 577.01 175.74 633.47 175.74"/><line class="cls-40" x1="671.87" y1="175.74" x2="745.23" y2="175.74"/><circle class="cls-21" cx="305.57" cy="441.61" r="5.46"/><circle class="cls-21" cx="485.83" cy="441.61" r="5.46"/><text class="cls-41" transform="translate(245.86 497.48) scale(0.92 1)">ESS<tspan class="cls-42" x="51.66" y="0">A</tspan><tspan class="cls-43" x="71.42" y="0" xml:space="preserve">Y     BOOK     DICTIONA</tspan><tspan class="cls-44" x="422.82" y="0">R</tspan><tspan x="441.27" y="0">Y</tspan></text><circle class="cls-8" cx="348.71" cy="488.11" r="3.38"/><circle class="cls-8" cx="471.89" cy="488.11" r="3.38"/><polyline class="cls-45" points="17.5 235.71 17.5 167.46 68.71 167.46"/><circle class="cls-46" cx="17.5" cy="235.71" r="5.46"/></svg>