<svg id="Layer_1" data-name="Layer 1" xmlns="http://www.w3.org/2000/svg" viewBox="0 0 921.13 783.87"><defs><style>.cls-1{fill:#4c4c4b;opacity:0.07;}.cls-2{fill:#fae59a;}.cls-3{font-size:38.55px;fill:#fdf6e6;font-family:Milkshake, Milkshake;}.cls-4{fill:#56d4af;}.cls-22,.cls-5{fill:#e86a00;}.cls-6{fill:#e4ac42;}.cls-7{fill:#ede9e6;}.cls-8{fill:#55d3ae;}.cls-9{fill:#4ec6a1;}.cls-10{fill:#f4d1a2;}.cls-11{fill:#5f2728;}.cls-12,.cls-26{fill:#fff;}.cls-13{fill:#ea9357;}.cls-14{fill:#e58e53;opacity:0.25;}.cls-15{fill:#eabf94;}.cls-16{fill:#f2cba0;}.cls-17{fill:#d65e05;}.cls-18{fill:#7a3b1c;}.cls-19{fill:none;stroke:#5f2728;stroke-linecap:round;stroke-linejoin:round;stroke-width:1.81px;}.cls-20{fill:#d85f05;}.cls-21{fill:#6e3411;}.cls-22{font-size:89.26px;}.cls-22,.cls-25,.cls-26{font-family:LeckerliOne-Regular, Leckerli One;}.cls-23{letter-spacing:0.08em;}.cls-24{letter-spacing:-0.05em;}.cls-25,.cls-26{font-size:46.57px;}.cls-25{fill:#b82609;}</style></defs><title>kids</title><ellipse class="cls-1" cx="428.85" cy="712.82" rx="393.02" ry="24.78"/><path class="cls-2" d="M210.47,589.32s-64.61-5.28-83.76,38.89S84.56,767.39,95.28,808.46c14.28,54.73,97.68,119.12,358.19,70.6,98-18.24,491.37,72.44,491.35-70.6,0-73.4-35.44-211.56-105.75-207.13S210.47,589.32,210.47,589.32Z" transform="translate(-92.55 -162.16)"/><path class="cls-2" d="M824.47,942.48s-22.64-21.28-12.58-46.29,23.58-43.83-13.29-66.64c-17.05-10.55-78-.25-116.21,16.75-39.63,17.62,1.38,19.52,32.52,59.71C750.18,951.53,814.63,948.88,824.47,942.48Z" transform="translate(-92.55 -162.16)"/><text class="cls-3" transform="translate(442.45 323.1)">Hello!</text><path class="cls-4" d="M456,402.5s-31.84-28-31.06-59.12,34.48-108.43-37.43-156.83c-68.25-45.93-189.1-29.37-202.15,70-8.31,63.34,78.19,126.55,135,141.15S456,402.5,456,402.5Z" transform="translate(-92.55 -162.16)"/><path class="cls-5" d="M767.28,376s-32.34-17.55-22.12-49.11,18.68-71.3-21.77-106.18c-39.69-34.23-115.39-46.94-147.81,13-25.41,46.94-4.82,85.45,51.21,113.49C679.66,373.62,760,374.2,767.28,376Z" transform="translate(-92.55 -162.16)"/><path class="cls-6" d="M349.25,373.85s203.51,14,201.36-66.46c-3.17-118.55-143.83-84.9-154.93-7C387.49,357.76,349.25,373.85,349.25,373.85Z" transform="translate(-92.55 -162.16)"/><path class="cls-7" d="M249.76,600.75s-8.34,35.17-40.12,36.63c-14.06.65-16-1.86-22.49-6.22s-14.26-16.75-17.28-26c-13.44-2.91-12.52-7-12.52-7l73.62.73Z" transform="translate(-92.55 -162.16)"/><path class="cls-7" d="M638.06,595.55s-5.56,16.09-20,20.62c-35.75,11.2-78.48,17.1-116.38,9.26-24.65-5.1-44.8-6.18-51.71-10-13.48-7.37-10.05-19.93-10.05-19.93l130.61.62Z" transform="translate(-92.55 -162.16)"/><path class="cls-8" d="M177.12,570s.44,20.15,5.7,36.84,12.15,29.58,19.9,30.54c16.15,2,20.58-8,20.58-8s-20.51-19.58-17.42-23.35,1.69-12.7,1.69-12.7,30.81,9,46.39,7.12c40.15-4.74,86.77-7.54,86.77-7.54S323,550.14,316.3,543.4s-111.39-13.18-116.8-6.74S177.12,570,177.12,570Z" transform="translate(-92.55 -162.16)"/><path class="cls-9" d="M198.44,534S280.08,560.24,307,544.23l26.92-16s-9.36,26-22.21,33.17c-21.22,11.9-44.64,15.82-72.57,14.13-12.35-.75-26.76-10.79-30.88-20.43S198.44,534,198.44,534Z" transform="translate(-92.55 -162.16)"/><path class="cls-9" d="M205.88,541.47s-19.2,1.55-14.37,6.38,17.08,28,16,38c-.88,8.61,20.7,12.29,30.55,14.09a75.07,75.07,0,0,0,11.66.83c1.19-2.86-1.27-10.34-2.42-16.37-2.31-12.1-10.62-21.41-11.5-27.56S223.23,545.3,220,541.59C218.94,540.38,205.88,530.83,205.88,541.47Z" transform="translate(-92.55 -162.16)"/><path class="cls-10" d="M233.29,394.92s-64.07,17.55-67.14,66.26S190.28,552,244.7,560.36s118.48-34.67,105.76-90.84S290.77,388.78,233.29,394.92Z" transform="translate(-92.55 -162.16)"/><circle class="cls-11" cx="121.54" cy="321.07" r="3.62"/><circle class="cls-11" cx="208.32" cy="317.45" r="3.62"/><path class="cls-12" d="M232.12,509.75s31,5.56,54.41-5.56a19.57,19.57,0,0,1-5.19,13.28c-5.56,5.85-17.63,11.59-32.55,7.49S232.12,509.75,232.12,509.75Z" transform="translate(-92.55 -162.16)"/><path class="cls-13" d="M258.79,476.7a.34.34,0,0,1,.67,0c1.18,4.47,4.2,16.17,4,17.59-.29,1.76-5.27,1.76-6.14,1.76C256.56,496,258.18,481.78,258.79,476.7Z" transform="translate(-92.55 -162.16)"/><path class="cls-5" d="M307.3,417s-34.23,38.91-62,40.37l-27.79,1.46s21.65-25.46,21.36-28.53-30.72,29.41-41,36.43-16.66,30.88-14.26,39.75c3,11.19,9.12,18.76,13.43,33.33.3,1,1.7,23.08-2.39,38.92-2.29,8.87-6.33,23.11-23.89,21.65s-46-7-44-28.93c.87-9.26,12.29-29.55,7.31-60S121,436.85,168.81,399.11s123.86-39.15,153.12-16,50.9,78.4,43.3,119.65-7.61,73.72.29,74.89,9.2,11.7-6.14,14.92c-5.75,1.21-13.49,1-20.91.21a32.15,32.15,0,0,1-28.13-25.9l-3.43-17.52s27.6-9.74,29.35-54.5S307.3,417,307.3,417Z" transform="translate(-92.55 -162.16)"/><circle class="cls-14" cx="112.29" cy="339.22" r="10.39"/><circle class="cls-14" cx="222.32" cy="329.72" r="10.39"/><path class="cls-15" d="M187.26,529.44A116.93,116.93,0,0,1,195.08,542c3.14,6.06,37.7,23.25,37,17.08-1-9.47-17.23-14.73-28.36-30.8-2.62-3.78-6.8-7.53-9.39-8.81C191,518.73,186.36,520.66,187.26,529.44Z" transform="translate(-92.55 -162.16)"/><path class="cls-16" d="M185.34,531.94s4.86,15.49,10.91,18.65,14.23,10.68,15.91,12.22-1.62,11.35-3.57,19.78-13.21,23.17-9.29,32.06c3.47,7.87,16.37,21.26,24,14.78s15.11-53,12.26-65-23.64-21.1-26.32-26.7-14-16-15.17-17.07S182.16,521.79,185.34,531.94Z" transform="translate(-92.55 -162.16)"/><path class="cls-17" d="M336,482.87s11.93,31.48-15.54,74.38c-3.4,5.3-3.66,23.37-3.66,23.37s-6.56-4.73-9.87-31.3C341.77,533,336,482.87,336,482.87Z" transform="translate(-92.55 -162.16)"/><path class="cls-8" d="M467.11,543.8s-34.6,25.86-26.26,56.71c4.57,16.9,28,13,35.71,14s8.94-9.42,12-13.19l6.53-8s33.84,16,49.53,15.85,81.69-5.71,81.69-5.71,3.52-42.2-22.49-60.11c-7.8-5.37-108.66-4.61-116.8-6.74C476.9,534,467.11,543.8,467.11,543.8Z" transform="translate(-92.55 -162.16)"/><path class="cls-9" d="M474.62,538.51c-1.23.69,9.38,16.62,28.16,23.84,23.11,8.89,56.93,9,72.82,3,20.78-7.88,30.88-20.05,30.88-20.05s-3.42-4-12.78-7.28-88.43-6.31-88.43-6.31S479.87,535.54,474.62,538.51Z" transform="translate(-92.55 -162.16)"/><circle class="cls-10" cx="545.51" cy="312.77" r="11.56"/><path class="cls-10" d="M520.84,394.92s-64.07,17.55-67.14,66.26,24.14,90.84,78.55,99.17S650.73,525.69,638,469.52,578.33,388.78,520.84,394.92Z" transform="translate(-92.55 -162.16)"/><path class="cls-12" d="M519.67,506.22s37.61,6.74,66-6.74a23.73,23.73,0,0,1-6.29,16.1c-6.74,7.1-21.38,14.05-39.47,9.09S519.67,506.22,519.67,506.22Z" transform="translate(-92.55 -162.16)"/><path class="cls-13" d="M546.39,477.24a.64.64,0,0,1,1.21-.23c2.33,4.7,7.79,15.83,7.8,17.23,0,3.28-8.8,3.28-9.68,3.28C545,497.52,546,483,546.39,477.24Z" transform="translate(-92.55 -162.16)"/><path class="cls-18" d="M578.73,423.67c-10.48,4.46-34.56,10-73.46,16.42-3,.5-54.73,2.94-41.88,62.18,2.46,11.33,3.54,18.18,11.73,28.22.67.82-25.12-17.5-31.18-42.24C436,456,433.28,410.8,485.7,379.82c44.33-26.2,87.48-19.75,116.73,3.36,6.73,5.32,15.17,1.37,19.74,7.39,15.29,20.15,23.1,59.91,19.4,92-.69,6-1.62,7.24-2.28,7.95a70,70,0,0,0,.36-9.28C638.92,468.85,619.48,406.32,578.73,423.67Z" transform="translate(-92.55 -162.16)"/><circle class="cls-14" cx="399.84" cy="339.22" r="10.39"/><circle class="cls-14" cx="509.88" cy="329.72" r="10.39"/><path class="cls-18" d="M526.5,387.06s35.43-5.26,51.49-10.46c16.88-5.47,41-20.62,41-20.62s15.47,5.17,22.52,36.72c4.05,18.15-1.82,49.39-1.82,49.39l-59.9-42.22Z" transform="translate(-92.55 -162.16)"/><circle class="cls-10" cx="368.94" cy="329.72" r="11.56"/><path class="cls-19" d="M501.64,483.31a3.62,3.62,0,1,1,7.24,0" transform="translate(-92.55 -162.16)"/><path class="cls-19" d="M584.8,479.61a3.62,3.62,0,1,1,7.24,0" transform="translate(-92.55 -162.16)"/><path class="cls-9" d="M618.21,567.38s-20.1,2.41-47.47,21.75c-13.64,9.64-35.34,8.52-45.32,5.87s-33.19-28.16-60.88-27.9c-7.89.07,1.41,16.54,1.41,16.54l29.27,18.57s29.59,12.45,63.87,4.85a616.43,616.43,0,0,0,61-16.82Z" transform="translate(-92.55 -162.16)"/><path class="cls-16" d="M596.85,602.18s-15.79-10.55-31.84-4.39c-6.37,2.44-36.37,1.89-38.49,2.72s-10.88-5.9-17.58-11.38-35.58-23.58-45.15-22-25.76,19-11.23,38.5c6,8,50,13.16,62.24,14.81,13.59,1.84,47.12.65,53.32.73s4.68-11.24,6.17-11.82S607.36,603.81,596.85,602.18Z" transform="translate(-92.55 -162.16)"/><path class="cls-15" d="M488.2,603.35s-1.7,3.06,4.36,5c17.46,5.58,26.91,10.81,32.58,11.24,11.58.87,56.14,4.77,66.9-3s-42.4-4.37-42.4-4.37-31.13-18.41-40.35-17.3C491.83,597,488.2,603.35,488.2,603.35Z" transform="translate(-92.55 -162.16)"/><path class="cls-10" d="M489.32,602.18s15.79-10.55,31.84-4.39c6.37,2.44,29.28,2.06,31.51,1.61,6.51-1.3,17.86-4.79,24.57-10.27s35.58-23.58,45.15-22,25,18.61,11.23,38.5c-5.7,8.22-39.83,13.17-55,15.08-26,3.28-41.86-2.08-48-2.5-10-.68-20.22-6.28-21.71-6.86S482.61,606,489.32,602.18Z" transform="translate(-92.55 -162.16)"/><path class="cls-7" d="M866.46,599.29s.28,14.47-5.66,26.2c-5.61,11.07-21.7,8.51-28.79,5.09-10.3-5-18.62-14.85-27.53-18.31-18.22-7.07-5.34-10.32-5.34-10.32Z" transform="translate(-92.55 -162.16)"/><path class="cls-5" d="M856.89,560.49a60.32,60.32,0,0,1,9.91,33.56,45.14,45.14,0,0,1-1.92,12.8c-5.27,16.69-10,24.65-17.71,26-22.72,3.86-14.31-18.13-14.31-18.13s9.29-9.58,6.2-13.35-6.2,8.18-6.2,8.18-34.17-.12-49.86-.28-79-8-79-8,13.1-51.07,19.76-57.81,111.39-13.18,116.8-6.74C843.89,540.58,851.47,552.09,856.89,560.49Z" transform="translate(-92.55 -162.16)"/><path class="cls-20" d="M851.77,545.16S771,569.57,742.48,556.64c-13.31-6-20-12.77-20-12.77s0-3.77-4.21,10.39c22.4,25.44,72.54,35,99.29,26.84,13.83-4.23,21.61-14,25.72-23.64S851.77,545.16,851.77,545.16Z" transform="translate(-92.55 -162.16)"/><path class="cls-20" d="M838.52,552.2s19.58.33,14.75,5.16,7.53,46.6,3.57,55.19c-10.77.8-16.56-1.57-26.32-2.59-9.3-1-22.8-.59-23.89-.57-1.19-2.86,2.32-20.27,3.65-24.93,7.58-26.51,14.82-30.16,18.05-33.87C829.4,549.39,838.52,541.56,838.52,552.2Z" transform="translate(-92.55 -162.16)"/><path class="cls-10" d="M773.36,419s-73.18-3-76.47,64.44,39.56,82.72,72.58,88.71,99.77-18.86,101-54.64S866.84,406.39,773.36,419Z" transform="translate(-92.55 -162.16)"/><circle class="cls-21" cx="741.55" cy="488.82" r="3.71" transform="translate(-228.08 186.78) rotate(-24.33)"/><circle class="cls-21" cx="823.03" cy="487.14" r="3.71" transform="translate(-220.15 220.21) rotate(-24.33)"/><circle class="cls-10" cx="694.52" cy="510.07" r="12.22" transform="translate(-241.01 169.29) rotate(-24.33)"/><circle class="cls-10" cx="873.03" cy="509.69" r="12.22" transform="translate(-225 242.8) rotate(-24.33)"/><path class="cls-6" d="M687.33,494.17c-2-6.38-2.93-13.37-3.64-20.69-.9-9.35-.47-36.36,7.66-49.43,16.6-26.68,66.89-36.8,74.52-49.3s19.48-21,19.48-21-.9,12.7,9.6,15.9,28.33,5.48,30.74,12.47,4.6,10.29,12.57,11.22a29.8,29.8,0,0,1,22.64,16c5.15,10,15.56,24.8,19.57,35.66s4.78,43-2.45,56.8c-6.75,12.92-8.1,12.11-8.1,12.11s4.1-25.4-12.17-52.14-39.45-40-49.77-43.24-20,1.74-39.22,5-40.36,6.17-52,19.57-17.31,48-17.46,55.73A49.4,49.4,0,0,1,697.41,512S689.32,500.55,687.33,494.17Z" transform="translate(-92.55 -162.16)"/><path class="cls-13" d="M782.39,483.24a.55.55,0,0,1,1-.21c2.24,4.51,7.94,16.1,7.94,17.52,0,3.28-8.8,3.28-9.68,3.28C781,503.83,782,488.76,782.39,483.24Z" transform="translate(-92.55 -162.16)"/><path class="cls-12" d="M761.69,516.39s31,5.56,54.41-5.56a19.57,19.57,0,0,1-5.19,13.28c-5.56,5.85-17.63,11.59-32.55,7.49S761.69,516.39,761.69,516.39Z" transform="translate(-92.55 -162.16)"/><circle class="cls-14" cx="634.9" cy="341.46" r="10.39"/><circle class="cls-14" cx="753.55" cy="335.3" r="10.39"/><path class="cls-15" d="M820.14,565.43c1-9.47,10.66-15.91,23.3-24.22.78-.51,16.27-20.19,19-20s6.5.86,7,3.07-19.74,29.7-29.69,34.39A100,100,0,0,1,820.14,565.43Z" transform="translate(-92.55 -162.16)"/><path class="cls-16" d="M871.22,533.41s-4.86,15.49-10.91,18.65-14.23,10.68-15.91,12.22S846,575.63,848,584.06s13,26.14,7.26,34-14.34,19.31-22,12.83-15.11-53-12.26-65,23.64-21.1,26.32-26.7,14-16,15.17-17.07S874.41,523.26,871.22,533.41Z" transform="translate(-92.55 -162.16)"/><text class="cls-22" transform="translate(16.95 609.1)">Le<tspan class="cls-23" x="90.15" y="0">t</tspan><tspan class="cls-24" x="125.59" y="0">’</tspan><tspan x="152.01" y="0">s learn English!</tspan></text><text class="cls-25" transform="translate(316.48 156.25)">Hello</text><text class="cls-26" transform="translate(117.34 104.63)">Welcome</text><text class="cls-26" transform="translate(534.96 128.57)">Hi</text></svg>