<svg xmlns="http://www.w3.org/2000/svg" viewBox="0 0 468.96 374.53"><defs><style>.cls-1{fill:#bcbec0;}.cls-2,.cls-9{fill:#44c1d6;}.cls-3{fill:#abbf50;}.cls-4{fill:#f65f30;}.cls-5{fill:#fcd153;}.cls-10,.cls-6{fill:none;stroke:#000;stroke-linecap:round;stroke-linejoin:round;}.cls-6{stroke-width:1.7px;stroke-dasharray:2.83 2.83 0;}.cls-7{font-size:20.97px;}.cls-10,.cls-7,.cls-9{font-family:BebasNeueBold, Bebas Neue;font-weight:700;}.cls-8{fill:#fff;}.cls-10,.cls-9{font-size:142.77px;}.cls-10{stroke-width:1.7px;}</style></defs><title>language2</title><g id="Background"><path class="cls-1" d="M34.9,112.12a4.82,4.82,0,1,1,4.82-4.82A4.82,4.82,0,0,1,34.9,112.12Zm0-7.93A3.11,3.11,0,1,0,38,107.3,3.12,3.12,0,0,0,34.9,104.19Z" transform="translate(-22.85 -62.64)"/><path class="cls-1" d="M477.18,190.19a4.82,4.82,0,1,1,4.82-4.82A4.82,4.82,0,0,1,477.18,190.19Zm0-7.93a3.11,3.11,0,1,0,3.11,3.11A3.12,3.12,0,0,0,477.18,182.26Z" transform="translate(-22.85 -62.64)"/><path class="cls-1" d="M214.48,115.41a4.82,4.82,0,1,1,4.82-4.82A4.82,4.82,0,0,1,214.48,115.41Zm0-7.93a3.11,3.11,0,1,0,3.11,3.11A3.12,3.12,0,0,0,214.48,107.48Z" transform="translate(-22.85 -62.64)"/><path class="cls-1" d="M343.84,383.39a4.82,4.82,0,1,1,4.82-4.82A4.82,4.82,0,0,1,343.84,383.39Zm0-7.93a3.11,3.11,0,1,0,3.11,3.11A3.12,3.12,0,0,0,343.84,375.46Z" transform="translate(-22.85 -62.64)"/><path class="cls-1" d="M451.76,397.72a4.82,4.82,0,1,1,4.82-4.82A4.82,4.82,0,0,1,451.76,397.72Zm0-7.93a3.11,3.11,0,1,0,3.11,3.11A3.12,3.12,0,0,0,451.76,389.79Z" transform="translate(-22.85 -62.64)"/><path class="cls-1" d="M147.5,352.33a4.82,4.82,0,1,1,4.82-4.82A4.82,4.82,0,0,1,147.5,352.33Zm0-7.93a3.11,3.11,0,1,0,3.11,3.11A3.12,3.12,0,0,0,147.5,344.4Z" transform="translate(-22.85 -62.64)"/><path class="cls-1" d="M390.66,319.15a4.82,4.82,0,1,1,4.82-4.82A4.82,4.82,0,0,1,390.66,319.15Zm0-7.93a3.11,3.11,0,1,0,3.11,3.11A3.12,3.12,0,0,0,390.66,311.22Z" transform="translate(-22.85 -62.64)"/><path class="cls-1" d="M123.21,409.19a4.82,4.82,0,1,1,4.82-4.82A4.82,4.82,0,0,1,123.21,409.19Zm0-7.93a3.11,3.11,0,1,0,3.11,3.11A3.12,3.12,0,0,0,123.21,401.26Z" transform="translate(-22.85 -62.64)"/><path class="cls-1" d="M39,324a4.82,4.82,0,1,1,4.82-4.82A4.82,4.82,0,0,1,39,324ZM39,316a3.11,3.11,0,1,0,3.11,3.11A3.12,3.12,0,0,0,39,316Z" transform="translate(-22.85 -62.64)"/><path class="cls-1" d="M55.35,208.91a4.82,4.82,0,1,1,4.82-4.82A4.82,4.82,0,0,1,55.35,208.91Zm0-7.93a3.11,3.11,0,1,0,3.11,3.11A3.12,3.12,0,0,0,55.35,201Z" transform="translate(-22.85 -62.64)"/><path class="cls-1" d="M464.67,106.54a4.82,4.82,0,1,1,4.82-4.82A4.82,4.82,0,0,1,464.67,106.54Zm0-7.93a3.11,3.11,0,1,0,3.11,3.11A3.12,3.12,0,0,0,464.67,98.61Z" transform="translate(-22.85 -62.64)"/><path class="cls-1" d="M365.66,199.82a4.82,4.82,0,1,1,4.82-4.82A4.82,4.82,0,0,1,365.66,199.82Zm0-7.93a3.11,3.11,0,1,0,3.11,3.11A3.12,3.12,0,0,0,365.66,191.89Z" transform="translate(-22.85 -62.64)"/><path class="cls-1" d="M97.64,74.49A.85.85,0,0,1,97,73l6.2-6.2a.85.85,0,1,1,1.2,1.2l-6.2,6.2A.85.85,0,0,1,97.64,74.49Z" transform="translate(-22.85 -62.64)"/><path class="cls-1" d="M103.84,74.49a.85.85,0,0,1-.6-.25L97,68a.85.85,0,0,1,1.2-1.2l6.2,6.2a.85.85,0,0,1-.6,1.45Z" transform="translate(-22.85 -62.64)"/><path class="cls-1" d="M27,411.08a.85.85,0,0,1-.6-1.45l6.2-6.2a.85.85,0,0,1,1.2,1.2l-6.2,6.2A.85.85,0,0,1,27,411.08Z" transform="translate(-22.85 -62.64)"/><path class="cls-1" d="M33.19,411.08a.85.85,0,0,1-.6-.25l-6.2-6.2a.85.85,0,0,1,1.2-1.2l6.2,6.2a.85.85,0,0,1-.6,1.45Z" transform="translate(-22.85 -62.64)"/><path class="cls-1" d="M461.57,189.33a.85.85,0,0,1-.6-1.45l6.2-6.2a.85.85,0,0,1,1.2,1.2l-6.2,6.2A.85.85,0,0,1,461.57,189.33Z" transform="translate(-22.85 -62.64)"/><path class="cls-1" d="M467.77,189.33a.85.85,0,0,1-.6-.25l-6.2-6.2a.85.85,0,1,1,1.2-1.2l6.2,6.2a.85.85,0,0,1-.6,1.45Z" transform="translate(-22.85 -62.64)"/><path class="cls-1" d="M282.83,189.33a.85.85,0,0,1-.6-1.45l6.2-6.2a.85.85,0,1,1,1.2,1.2l-6.2,6.2A.85.85,0,0,1,282.83,189.33Z" transform="translate(-22.85 -62.64)"/><path class="cls-1" d="M289,189.33a.85.85,0,0,1-.6-.25l-6.2-6.2a.85.85,0,1,1,1.2-1.2l6.2,6.2a.85.85,0,0,1-.6,1.45Z" transform="translate(-22.85 -62.64)"/><path class="cls-1" d="M203.31,321.84a.85.85,0,0,1-.6-1.45l6.2-6.2a.85.85,0,0,1,1.2,1.2l-6.2,6.2A.85.85,0,0,1,203.31,321.84Z" transform="translate(-22.85 -62.64)"/><path class="cls-1" d="M209.51,321.84a.85.85,0,0,1-.6-.25l-6.2-6.2a.85.85,0,1,1,1.2-1.2l6.2,6.2a.85.85,0,0,1-.6,1.45Z" transform="translate(-22.85 -62.64)"/><path class="cls-1" d="M129.79,189.33a.85.85,0,0,1-.6-1.45l6.2-6.2a.85.85,0,0,1,1.2,1.2l-6.2,6.2A.85.85,0,0,1,129.79,189.33Z" transform="translate(-22.85 -62.64)"/><path class="cls-1" d="M136,189.33a.85.85,0,0,1-.6-.25l-6.2-6.2a.85.85,0,1,1,1.2-1.2l6.2,6.2a.85.85,0,0,1-.6,1.45Z" transform="translate(-22.85 -62.64)"/><path class="cls-1" d="M469.26,118.95a.85.85,0,0,1-.6-1.45l6.2-6.2a.85.85,0,1,1,1.2,1.2l-6.2,6.2A.85.85,0,0,1,469.26,118.95Z" transform="translate(-22.85 -62.64)"/><path class="cls-1" d="M475.46,118.95a.85.85,0,0,1-.6-.25l-6.2-6.2a.85.85,0,1,1,1.2-1.2l6.2,6.2a.85.85,0,0,1-.6,1.45Z" transform="translate(-22.85 -62.64)"/><path class="cls-1" d="M357.75,70.54a.85.85,0,0,1-.6-1.45l6.2-6.2a.85.85,0,0,1,1.2,1.2l-6.2,6.2A.85.85,0,0,1,357.75,70.54Z" transform="translate(-22.85 -62.64)"/><path class="cls-1" d="M364,70.54a.85.85,0,0,1-.6-.25l-6.2-6.2a.85.85,0,1,1,1.2-1.2l6.2,6.2a.85.85,0,0,1-.6,1.45Z" transform="translate(-22.85 -62.64)"/><path class="cls-1" d="M192.74,430.59a.85.85,0,0,1-.6-1.45l6.2-6.2a.85.85,0,1,1,1.2,1.2l-6.2,6.2A.85.85,0,0,1,192.74,430.59Z" transform="translate(-22.85 -62.64)"/><path class="cls-1" d="M198.95,430.59a.85.85,0,0,1-.6-.25l-6.2-6.2a.85.85,0,1,1,1.2-1.2l6.2,6.2a.85.85,0,0,1-.6,1.45Z" transform="translate(-22.85 -62.64)"/><path class="cls-1" d="M461.57,437.16a.85.85,0,0,1-.6-1.45l6.2-6.2a.85.85,0,0,1,1.2,1.2l-6.2,6.2A.85.85,0,0,1,461.57,437.16Z" transform="translate(-22.85 -62.64)"/><path class="cls-1" d="M467.77,437.16a.85.85,0,0,1-.6-.25l-6.2-6.2a.85.85,0,0,1,1.2-1.2l6.2,6.2a.85.85,0,0,1-.6,1.45Z" transform="translate(-22.85 -62.64)"/><path class="cls-1" d="M246.9,379.53a.85.85,0,0,1-.6-1.45l6.2-6.2a.85.85,0,0,1,1.2,1.2l-6.2,6.2A.85.85,0,0,1,246.9,379.53Z" transform="translate(-22.85 -62.64)"/><path class="cls-1" d="M253.1,379.53a.85.85,0,0,1-.6-.25l-6.2-6.2a.85.85,0,0,1,1.2-1.2l6.2,6.2a.85.85,0,0,1-.6,1.45Z" transform="translate(-22.85 -62.64)"/><path class="cls-1" d="M474.07,276.59a.85.85,0,0,1-.6-1.45l6.2-6.2a.85.85,0,0,1,1.2,1.2l-6.2,6.2A.85.85,0,0,1,474.07,276.59Z" transform="translate(-22.85 -62.64)"/><path class="cls-1" d="M480.28,276.59a.85.85,0,0,1-.6-.25l-6.2-6.2a.85.85,0,0,1,1.2-1.2l6.2,6.2a.85.85,0,0,1-.6,1.45Z" transform="translate(-22.85 -62.64)"/><path class="cls-1" d="M266.75,115.91a.85.85,0,0,1-.6-1.45l6.2-6.2a.85.85,0,0,1,1.2,1.2l-6.2,6.2A.85.85,0,0,1,266.75,115.91Z" transform="translate(-22.85 -62.64)"/><path class="cls-1" d="M273,115.91a.85.85,0,0,1-.6-.25l-6.2-6.2a.85.85,0,0,1,1.2-1.2l6.2,6.2a.85.85,0,0,1-.6,1.45Z" transform="translate(-22.85 -62.64)"/></g><g id="Objects"><polygon class="cls-2" points="381.82 83.15 422.12 67.05 468.96 87 430.3 102.38 381.82 83.15"/><path d="M443.7,165.87a.86.86,0,0,1-.31-.06l-39-15.15a.85.85,0,0,1,0-1.58l39-16.31a.85.85,0,0,1,.66,0l39,16.31a.85.85,0,0,1,0,1.58l-39,15.15A.86.86,0,0,1,443.7,165.87Zm-36.76-16L443.7,164.1l36.76-14.27L443.7,134.48Z" transform="translate(-22.85 -62.64)"/><path d="M443.7,178.68h-.13c-11.62-1.84-21.48-9.94-21.9-10.29a.85.85,0,0,1-.31-.65V156.68a.85.85,0,1,1,1.7,0v10.65c1.74,1.36,10.58,8,20.53,9.63,1.81-.76,14.24-6,20.23-10.14v-9.94a.85.85,0,1,1,1.7,0v10.38a.85.85,0,0,1-.36.69c-6.41,4.57-20.54,10.43-21.14,10.67A.86.86,0,0,1,443.7,178.68Z" transform="translate(-22.85 -62.64)"/><path d="M443.7,178.68a.85.85,0,0,1-.85-.85V165a.85.85,0,1,1,1.7,0v12.82A.85.85,0,0,1,443.7,178.68Z" transform="translate(-22.85 -62.64)"/><path d="M420.27,181.27h-8.47a.85.85,0,0,1-.85-.85V173a4.82,4.82,0,0,1,5.09-4.94c4,0,5.09,3,5.09,4.63v7.72A.85.85,0,0,1,420.27,181.27Zm-7.62-1.7h6.77V172.7c0-.3-.13-2.93-3.39-2.93a3.14,3.14,0,0,0-3.39,3.23Z" transform="translate(-22.85 -62.64)"/><path d="M443.44,150.14c-3.87,0-6.9-1.94-6.9-4.41s3-4.41,6.9-4.41,6.9,1.94,6.9,4.41S447.31,150.14,443.44,150.14Zm0-7.11c-3.07,0-5.2,1.43-5.2,2.71s2.14,2.7,5.2,2.7,5.2-1.43,5.2-2.7S446.51,143,443.44,143Z" transform="translate(-22.85 -62.64)"/><path d="M416,169.77a.85.85,0,0,1-.85-.85V154.28a.85.85,0,0,1,.57-.8L437.43,146a.85.85,0,0,1,.55,1.61l-21.1,7.27v14A.85.85,0,0,1,416,169.77Z" transform="translate(-22.85 -62.64)"/><path class="cls-2" d="M222.66,375a18.06,18.06,0,1,0-3.22,2.88l6.63,3.27Z" transform="translate(-22.85 -62.64)"/><path class="cls-3" d="M54.86,347.8a9,9,0,1,0-1.61,1.44l3.32,1.63Z" transform="translate(-22.85 -62.64)"/><path d="M268.86,333.38a.85.85,0,0,1-.85-.85v-3.9h-2.78a.85.85,0,0,1-.85-.85V312.66a.85.85,0,0,1,.85-.85h20.71a.85.85,0,0,1,.85.85v15.12a.85.85,0,0,1-.85.85H274.56l-5.15,4.54A.85.85,0,0,1,268.86,333.38Zm-2.78-6.45h2.78a.85.85,0,0,1,.85.85v2.87l4-3.5a.85.85,0,0,1,.56-.21h10.84V313.51h-19Z" transform="translate(-22.85 -62.64)"/><path class="cls-4" d="M289.34,335.63H275.58v10.05H278v3.16l3.58-3.16h7.77Z" transform="translate(-22.85 -62.64)"/><path d="M42.53,397.13a3.14,3.14,0,0,1-1.95-.7c-1.61-1.26-2.43-4-2.43-8.2V360a6.53,6.53,0,0,1,1.64-4.35A5.79,5.79,0,0,1,44.13,354H71.71a.85.85,0,0,1,.85.85v41.37a.85.85,0,0,1-.85.85H42.92A2.58,2.58,0,0,1,42.53,397.13Zm1.6-41.4A4.17,4.17,0,0,0,41,356.84,4.86,4.86,0,0,0,39.85,360v28.25c0,4.76,1.11,6.34,1.78,6.86a1.35,1.35,0,0,0,1,.34l.21,0h28V355.73Z" transform="translate(-22.85 -62.64)"/><path d="M39,392.93a.85.85,0,0,1-.85-.85,5.51,5.51,0,0,1,1.53-4.15,5.24,5.24,0,0,1,3.53-1.35H71.71a.85.85,0,1,1,0,1.7H43.17a3.5,3.5,0,0,0-2.33.89,3.91,3.91,0,0,0-1,2.91A.85.85,0,0,1,39,392.93Z" transform="translate(-22.85 -62.64)"/><path d="M71.71,392.93H43.49a.85.85,0,0,1,0-1.7H71.71a.85.85,0,1,1,0,1.7Z" transform="translate(-22.85 -62.64)"/><path d="M43.17,388.28a.85.85,0,0,1-.85-.85V354.88a.85.85,0,0,1,1.7,0v32.55A.85.85,0,0,1,43.17,388.28Z" transform="translate(-22.85 -62.64)"/><path d="M63.61,371H51.42a.85.85,0,0,1,0-1.7H63.61a.85.85,0,1,1,0,1.7Z" transform="translate(-22.85 -62.64)"/><path d="M62.17,367.11h-9.3a.85.85,0,0,1,0-1.7h9.3a.85.85,0,1,1,0,1.7Z" transform="translate(-22.85 -62.64)"/><polygon class="cls-4" points="22.73 329.44 22.73 336.82 25.77 334.9 28.58 336.82 28.58 329.44 22.73 329.44"/><path d="M234,319a.85.85,0,0,1-.13-1.69q.72-.11,1.46-.19a.85.85,0,0,1,.16,1.69q-.68.07-1.36.17Z" transform="translate(-22.85 -62.64)"/><path d="M226.52,321.48a.83.83,0,0,1-.75-.45.75.75,0,0,1-.1-.39.85.85,0,0,1,.46-.76,25.83,25.83,0,0,1,2.46-1.12h0a.88.88,0,0,1,1.1.49.85.85,0,0,1-.48,1.1,24,24,0,0,0-2.31,1A.85.85,0,0,1,226.52,321.48Zm4.88-1.9a.86.86,0,0,1-.82-.63.87.87,0,0,1,.08-.65.89.89,0,0,1,.52-.39.86.86,0,0,1,1,.6.84.84,0,0,1-.58,1h0A.79.79,0,0,1,231.4,319.58Z" transform="translate(-22.85 -62.64)"/><path d="M214,337.58a.57.57,0,0,1-.19,0,.85.85,0,0,1-.65-1s0,0,0-.08a26.58,26.58,0,0,1,.76-2.6.87.87,0,0,1,1.08-.53.86.86,0,0,1,.52,1.09,22.91,22.91,0,0,0-.7,2.43h0A.85.85,0,0,1,214,337.58Zm1.73-5h0a1,1,0,0,1-.37-.08.85.85,0,0,1-.4-1.13.88.88,0,0,1,1.14-.41.86.86,0,0,1,.4,1.14h0A.84.84,0,0,1,215.77,332.62Zm1.25-2.3a.87.87,0,0,1-.44-.13.86.86,0,0,1-.28-1.17,24,24,0,0,1,1.55-2.23,24.65,24.65,0,0,1,1.78-2,.86.86,0,0,1,1.2,0,.84.84,0,0,1,0,1.2c-.58.61-1.14,1.25-1.66,1.91a24.07,24.07,0,0,0-1.44,2.08A.85.85,0,0,1,217,330.32Zm5.14-5.93a.85.85,0,0,1-.85-.92.85.85,0,0,1,1.5-.47.86.86,0,0,1-.11,1.2A.87.87,0,0,1,222.16,324.39Zm2.1-1.57a.85.85,0,0,1-.47-1.56,24.73,24.73,0,0,1,2.34-1.38.87.87,0,0,1,1.14.36.85.85,0,0,1-.36,1.15,25.1,25.1,0,0,0-2.18,1.29A.87.87,0,0,1,224.26,322.82Z" transform="translate(-22.85 -62.64)"/><path d="M213.76,339h-.14a.85.85,0,0,1-.69-1c.08-.48.18-1,.29-1.44a.85.85,0,1,1,1.66.38q-.15.66-.27,1.34A.85.85,0,0,1,213.76,339Z" transform="translate(-22.85 -62.64)"/><path d="M408.53,125.87a.85.85,0,0,1-.83-.69c0-.19-.42-1.82-2-1.82H394.87a.85.85,0,0,1-.85-.85V101.73a.85.85,0,0,1,.85-.85h10.78c1.29,0,3.74.7,3.74,3.35V125a.85.85,0,0,1-.77.85Zm-12.82-4.2h10a3.39,3.39,0,0,1,1.94.57v-18c0-1.55-1.7-1.65-2-1.65h-9.92Z" transform="translate(-22.85 -62.64)"/><path d="M408.53,125.87h-.08a.85.85,0,0,1-.77-.85V104.23c0-2.65,2.45-3.35,3.74-3.35H422.2a.85.85,0,0,1,.85.85v20.79a.85.85,0,0,1-.85.85H411.32c-1.59,0-1.94,1.74-2,1.81A.85.85,0,0,1,408.53,125.87Zm2.89-23.29c-.34,0-2,.1-2,1.65v18a3.39,3.39,0,0,1,1.94-.57h10V102.58Z" transform="translate(-22.85 -62.64)"/><path d="M402.48,105.22h-5.64a.85.85,0,1,1,0-1.7h5.64a.85.85,0,0,1,0,1.7Z" transform="translate(-22.85 -62.64)"/><path d="M406,108.36h-9.16a.85.85,0,1,1,0-1.7H406a.85.85,0,0,1,0,1.7Z" transform="translate(-22.85 -62.64)"/><path d="M404.53,111.45h-7.69a.85.85,0,1,1,0-1.7h7.69a.85.85,0,1,1,0,1.7Z" transform="translate(-22.85 -62.64)"/><path d="M420.33,120.22h-5.76a.85.85,0,0,1,0-1.7h5.76a.85.85,0,0,1,0,1.7Z" transform="translate(-22.85 -62.64)"/><path d="M151.19,121.9a.85.85,0,0,1-.85-.85V115.9h-5.15a.85.85,0,0,1-.85-.85V97.8a.85.85,0,0,1,.85-.85h17.25a.85.85,0,0,1,.85.85V115a.85.85,0,0,1-.85.85h-6.37l-4.2,5.66A.85.85,0,0,1,151.19,121.9ZM146,114.2h5.15a.85.85,0,0,1,.85.85v3.43l2.92-3.94a.85.85,0,0,1,.68-.34h5.94V98.65H146Z" transform="translate(-22.85 -62.64)"/><path d="M172.42,121.66a.85.85,0,0,1-.85-.85v-2.15h-2.15a.85.85,0,0,1-.85-.85v-8.62a.85.85,0,0,1,.85-.85H178a.85.85,0,0,1,.85.85v8.63a.85.85,0,0,1-.85.85h-3l-2,2.66A.85.85,0,0,1,172.42,121.66Zm-2.15-4.7h2.15a.85.85,0,0,1,.85.85v.43l.7-.94a.85.85,0,0,1,.68-.34h2.55V110h-6.92Z" transform="translate(-22.85 -62.64)"/><path class="cls-5" d="M194.4,89.34H181.07v13.34h4.64v4.64l3.45-4.64h5.25Z" transform="translate(-22.85 -62.64)"/><path d="M83.07,181.17H33.24a.85.85,0,0,1-.52-.18c-.23-.17-5.54-4.32-5.44-9.79.06-3.16,1.9-6,5.47-8.58a.85.85,0,0,1,.49-.16H83.07a.85.85,0,0,1,.59,1.46c-.31.3-7.46,7.39,0,15.82a.85.85,0,0,1-.63,1.42Zm-49.53-1.7H81.29c-4.93-6.72-1.93-12.65,0-15.3H33.51c-3,2.16-4.49,4.54-4.53,7.06C28.9,175.28,32.6,178.67,33.54,179.46Z" transform="translate(-22.85 -62.64)"/><polygon class="cls-4" points="12.85 109.13 12.85 121.8 17.27 117.63 21.69 121.8 21.69 109.13 12.85 109.13"/><path class="cls-6" d="M34.9,171.82" transform="translate(-22.85 -62.64)"/><path class="cls-6" d="M79.45,171.82" transform="translate(-22.85 -62.64)"/><path class="cls-6" d="M34.9,171.82" transform="translate(-22.85 -62.64)"/><path class="cls-6" d="M79.45,171.82" transform="translate(-22.85 -62.64)"/><path d="M79.45,172.67H76.61a.85.85,0,0,1,0-1.71h2.84a.85.85,0,0,1,0,1.71Zm-5.67,0a.85.85,0,1,1,.85-.86A.86.86,0,0,1,73.78,172.67Zm-2.84,0H65.27a.85.85,0,0,1,0-1.71h5.67a.85.85,0,0,1,0,1.71Zm-8.5,0a.85.85,0,1,1,.85-.86A.86.86,0,0,1,62.44,172.67Zm-2.84,0H53.93a.85.85,0,0,1,0-1.71H59.6a.85.85,0,0,1,0,1.71Zm-8.5,0a.85.85,0,1,1,.85-.86A.86.86,0,0,1,51.1,172.67Zm-2.83,0H42.59a.85.85,0,0,1,0-1.71h5.68a.85.85,0,0,1,0,1.71Zm-8.51,0a.85.85,0,1,1,.85-.86A.86.86,0,0,1,39.76,172.67Zm-2.83,0h-2a.85.85,0,0,1,0-1.71h2a.85.85,0,0,1,0,1.71Z" transform="translate(-22.85 -62.64)"/><path d="M83.07,159.81H33.24a.85.85,0,0,1-.52-.18c-.23-.17-5.54-4.32-5.44-9.79.06-3.16,1.9-6,5.47-8.58a.85.85,0,0,1,.49-.16H83.07a.85.85,0,0,1,.59,1.46c-.31.3-7.46,7.39,0,15.82a.85.85,0,0,1-.63,1.42Zm-49.53-1.7H81.29c-4.93-6.72-1.93-12.65,0-15.3H33.51c-3,2.16-4.49,4.54-4.53,7.06C28.9,153.93,32.6,157.31,33.54,158.11Z" transform="translate(-22.85 -62.64)"/><polygon class="cls-4" points="12.85 87.78 12.85 100.44 17.27 96.28 21.69 100.44 21.69 87.78 12.85 87.78"/><path class="cls-6" d="M34.9,150.46" transform="translate(-22.85 -62.64)"/><path class="cls-6" d="M79.45,150.46" transform="translate(-22.85 -62.64)"/><path class="cls-6" d="M34.9,150.46" transform="translate(-22.85 -62.64)"/><path class="cls-6" d="M79.45,150.46" transform="translate(-22.85 -62.64)"/><path d="M79.45,151.31H76.61a.85.85,0,0,1,0-1.7h2.84a.85.85,0,0,1,0,1.7Zm-5.67,0a.85.85,0,1,1,.85-.85A.85.85,0,0,1,73.78,151.31Zm-2.84,0H65.27a.85.85,0,0,1,0-1.7h5.67a.85.85,0,0,1,0,1.7Zm-8.5,0a.85.85,0,1,1,.85-.85A.85.85,0,0,1,62.44,151.31Zm-2.84,0H53.93a.85.85,0,0,1,0-1.7H59.6a.85.85,0,1,1,0,1.7Zm-8.5,0a.85.85,0,1,1,.85-.85A.85.85,0,0,1,51.1,151.31Zm-2.83,0H42.6a.85.85,0,0,1,0-1.7h5.67a.85.85,0,0,1,0,1.7Zm-8.51,0a.85.85,0,1,1,.85-.85A.85.85,0,0,1,39.76,151.31Zm-2.83,0h-2a.85.85,0,0,1,0-1.7h2a.85.85,0,0,1,0,1.7Z" transform="translate(-22.85 -62.64)"/><path d="M326.27,131.65a5.78,5.78,0,0,1-5.78-5.78v-3.46a.85.85,0,1,1,1.7,0v3.46a4.08,4.08,0,1,0,8.15,0v-.51a.85.85,0,1,1,1.7,0v.51A5.78,5.78,0,0,1,326.27,131.65Z" transform="translate(-22.85 -62.64)"/><path d="M331.81,126l-.2,0c-1.9-.45-2.95-2.72-3.41-4-5.85,2.09-9.41.5-9.56.43a.85.85,0,0,1-.49-.81c.27-5.25,5.3-7.07,7.91-7.31h.13a7.23,7.23,0,0,1,6.38,4.35,6.48,6.48,0,0,1-.1,7.08A.85.85,0,0,1,331.81,126Zm-3.05-6a.85.85,0,0,1,.83.65,7.09,7.09,0,0,0,1.87,3.44,5,5,0,0,0-.39-4.68.78.78,0,0,1-.06-.14,5.53,5.53,0,0,0-4.85-3.29c-.66.07-5.58.78-6.24,5.06,1.19.32,4.21.78,8.52-1A.85.85,0,0,1,328.76,119.92ZM319,121.55h0Z" transform="translate(-22.85 -62.64)"/><path d="M327.52,133.9H325a.85.85,0,0,1-.85-.85v-1.87a.85.85,0,0,1,.85-.85h2.5a.85.85,0,0,1,.85.85V133A.85.85,0,0,1,327.52,133.9Zm-1.65-1.7h.8V132h-.8Z" transform="translate(-22.85 -62.64)"/><path d="M335.46,138.8H317.08a.85.85,0,0,1-.85-.85,4.32,4.32,0,0,1,1.35-3.19c2.74-2.68,8.85-2.57,9.11-2.57,9.38,0,9.62,5.5,9.62,5.74a.85.85,0,0,1-.85.87Zm-17.41-1.7h16.32c-.53-1.2-2.23-3.2-7.71-3.2-.08,0-5.67-.1-7.9,2.09A2.73,2.73,0,0,0,318.06,137.1Z" transform="translate(-22.85 -62.64)"/><path d="M260.59,367.43a.84.84,0,0,1-.38-.09l-8.47-4.17a25.18,25.18,0,0,1-39.18-20.94,25.44,25.44,0,0,1,.36-4.26.85.85,0,0,1,1.68.29,23.52,23.52,0,0,0,23.16,27.47,23.34,23.34,0,0,0,13.43-4.23.85.85,0,0,1,.86-.07l6.47,3.19-3.27-5.88a.85.85,0,0,1,.11-1,23.47,23.47,0,0,0-17.6-39c-.77,0-1.54,0-2.3.11a.85.85,0,0,1-.16-1.69c.81-.08,1.64-.12,2.47-.12A25.17,25.17,0,0,1,257,358.43l4.3,7.74a.85.85,0,0,1-.74,1.26Z" transform="translate(-22.85 -62.64)"/><text class="cls-7" transform="translate(203.21 287.2)">BLA</text><path class="cls-2" d="M105.59,126a16.62,16.62,0,1,0-3,2.65l6.1,3Z" transform="translate(-22.85 -62.64)"/><path class="cls-8" d="M87.16,120.13H99s.89-6.23-5.93-6.58C93.09,113.55,87.16,113.55,87.16,120.13Z" transform="translate(-22.85 -62.64)"/><circle class="cls-8" cx="70.26" cy="47.7" r="3.04"/><path class="cls-5" d="M82.77,139l4.92-8.84a23.29,23.29,0,1,1,4.62,4.15Zm9.62-5.85.24.17a22.49,22.49,0,1,0-4-3.55l.23.27-3.7,6.66Z" transform="translate(-22.85 -62.64)"/><rect class="cls-4" x="354.22" y="271.25" width="60.23" height="36.48"/><path d="M441,379.78h-67.6a.85.85,0,0,1-.85-.85V330.15a.85.85,0,0,1,.85-.85H441a.85.85,0,0,1,.85.85v48.78A.85.85,0,0,1,441,379.78Zm-66.75-1.7h65.9V331h-65.9Z" transform="translate(-22.85 -62.64)"/><path d="M441,371.22h-67.6a.85.85,0,0,1,0-1.7H441a.85.85,0,0,1,0,1.7Z" transform="translate(-22.85 -62.64)"/><path d="M420,389.62h-24a.85.85,0,0,1-.57-1.48s4.43-4.1,4.43-9.21a.85.85,0,0,1,.85-.85h15.4a.85.85,0,0,1,.85.79c0,.06.45,6.15,3.6,9.3a.85.85,0,0,1-.6,1.45Zm-22-1.7h20.22a19.52,19.52,0,0,1-2.82-8.14H401.57A15.16,15.16,0,0,1,398,387.92Z" transform="translate(-22.85 -62.64)"/><path class="cls-8" d="M408,355.53l-.12,0-15-5.81a.33.33,0,0,1,0-.6l15-6.25a.33.33,0,0,1,.25,0l15,6.25a.33.33,0,0,1,0,.6l-15,5.81Zm-14.09-6.15L408,354.86l14.09-5.47L408,343.5Z" transform="translate(-22.85 -62.64)"/><path class="cls-8" d="M408,360.45H408a19.81,19.81,0,0,1-8.39-3.94.33.33,0,0,1-.12-.25V352a.33.33,0,0,1,.65,0v4.08a19.43,19.43,0,0,0,7.87,3.69,55.85,55.85,0,0,0,7.75-3.89v-3.81a.33.33,0,1,1,.65,0v4a.33.33,0,0,1-.14.27,54.85,54.85,0,0,1-8.11,4.09Z" transform="translate(-22.85 -62.64)"/><path class="cls-8" d="M408,360.45a.33.33,0,0,1-.33-.33v-4.91a.33.33,0,0,1,.65,0v4.91A.33.33,0,0,1,408,360.45Z" transform="translate(-22.85 -62.64)"/><path class="cls-8" d="M399,361.44H395.8a.33.33,0,0,1-.33-.33v-2.84a1.85,1.85,0,0,1,2-1.89,1.79,1.79,0,0,1,2,1.78v3A.33.33,0,0,1,399,361.44Zm-2.92-.65h2.6v-2.63a1.15,1.15,0,0,0-1.3-1.12,1.2,1.2,0,0,0-1.3,1.24Z" transform="translate(-22.85 -62.64)"/><path class="cls-8" d="M407.93,349.5c-1.48,0-2.65-.74-2.65-1.69s1.16-1.69,2.65-1.69,2.65.74,2.65,1.69S409.42,349.5,407.93,349.5Zm0-2.73c-1.18,0-2,.55-2,1s.82,1,2,1,2-.55,2-1S409.11,346.77,407.93,346.77Z" transform="translate(-22.85 -62.64)"/><path class="cls-8" d="M397.42,357a.33.33,0,0,1-.33-.33v-5.61a.33.33,0,0,1,.22-.31l8.31-2.86a.33.33,0,0,1,.21.62l-8.09,2.79v5.38A.33.33,0,0,1,397.42,357Z" transform="translate(-22.85 -62.64)"/><path class="cls-5" d="M90.42,338.34l-7.64,13.24h6V362s0,5.5,8.2,5.5h8.2v4.75h25.91v-17.9s6.71-8.95,6.71-18.45-9.32-22.56-24-22.56C113.73,313.36,90.42,314.67,90.42,338.34Z" transform="translate(-22.85 -62.64)"/><path d="M136.73,328.66H120.46a.85.85,0,0,1,0-1.7h16.26a.85.85,0,0,1,0,1.7Z" transform="translate(-22.85 -62.64)"/><polygon points="111.96 267.99 122.47 265.18 111.96 262.36 111.96 267.99"/><path d="M135.64,336.16H119.37a.85.85,0,0,1,0-1.7h16.26a.85.85,0,0,1,0,1.7Z" transform="translate(-22.85 -62.64)"/><polygon points="98.45 269.86 87.94 272.68 98.45 275.5 98.45 269.86"/><path d="M449.14,333.81a.84.84,0,0,1-.27,0,.85.85,0,0,1-.58-.81v-5.15h-5.15a.85.85,0,0,1-.85-.85V309.71a.85.85,0,0,1,.85-.85h17.25a.85.85,0,0,1,.85.85V327a.85.85,0,0,1-.85.85H454l-4.2,5.66A.85.85,0,0,1,449.14,333.81Zm-5.15-7.7h5.15a.85.85,0,0,1,.85.85v3.43l2.92-3.94a.85.85,0,0,1,.68-.34h5.94V310.56H444Z" transform="translate(-22.85 -62.64)"/><path class="cls-4" d="M451.15,322.66a.85.85,0,0,1-.57-.22l-2.9-2.65a.85.85,0,0,1,1.15-1.25l1.76,1.61a10.27,10.27,0,0,1,6.25-7,.85.85,0,0,1,.59,1.6,8.62,8.62,0,0,0-5.43,7.11.85.85,0,0,1-.54.72A.86.86,0,0,1,451.15,322.66Z" transform="translate(-22.85 -62.64)"/><path d="M389.56,165.87h-5.67a.85.85,0,1,1,0-1.7h5.67a.85.85,0,0,1,0,1.7Zm-8.51,0a.85.85,0,1,1,.85-.85A.85.85,0,0,1,381,165.87Zm-2.83,0h-5.67a.85.85,0,0,1,0-1.7h5.67a.85.85,0,0,1,0,1.7Zm-8.51,0a.85.85,0,1,1,.85-.85A.85.85,0,0,1,369.71,165.87Zm-2.83,0H364a.85.85,0,1,1,0-1.7h2.84a.85.85,0,0,1,0,1.7Zm22.7-2.81a.85.85,0,1,1,.85-.85A.86.86,0,0,1,389.58,163.06Zm0-2.84a.85.85,0,0,1-.85-.85V153.7a.85.85,0,1,1,1.7,0v5.67A.85.85,0,0,1,389.58,160.22Zm0-8.5a.85.85,0,1,1,.85-.85A.85.85,0,0,1,389.58,151.72Zm0-2.84a.85.85,0,0,1-.85-.85v-5.67a.85.85,0,1,1,1.7,0V148A.85.85,0,0,1,389.58,148.88Zm0-8.5a.85.85,0,1,1,.85-.85A.85.85,0,0,1,389.58,140.38Zm0-2.84a.85.85,0,0,1-.85-.85V131a.85.85,0,1,1,1.7,0v5.66A.85.85,0,0,1,389.58,137.54Zm0-8.5a.85.85,0,1,1,.85-.85A.85.85,0,0,1,389.58,129Zm0-2.84a.85.85,0,0,1-.85-.85v-5.66a.85.85,0,1,1,1.7,0v5.66A.85.85,0,0,1,389.58,126.2Zm59.91-5.1a.85.85,0,0,1-.85-.85v-.62a.85.85,0,1,1,1.7,0v.62A.85.85,0,0,1,449.49,121.1Zm-59.91-3.4a.85.85,0,1,1,.85-.85A.85.85,0,0,1,389.58,117.7Zm59.91,0a.85.85,0,1,1,.85-.85A.85.85,0,0,1,449.49,117.65Zm-59.91-2.78a.86.86,0,0,1-.85-.85v-5.67a.85.85,0,0,1,1.7,0V114A.86.86,0,0,1,389.58,114.87Zm59.91,0a.86.86,0,0,1-.85-.85V108.3a.85.85,0,1,1,1.7,0V114A.86.86,0,0,1,449.49,114.82Zm-59.91-8.46a.85.85,0,1,1,.85-.85A.85.85,0,0,1,389.58,106.36Zm59.91,0a.85.85,0,1,1,.85-.85A.85.85,0,0,1,449.49,106.31Zm-59.91-2.78a.85.85,0,0,1-.85-.85V97a.85.85,0,1,1,1.7,0v5.67A.85.85,0,0,1,389.58,103.53Zm59.91,0a.85.85,0,0,1-.85-.85V97a.85.85,0,1,1,1.7,0v5.67A.85.85,0,0,1,449.49,103.48Zm-1.63-6.87a.85.85,0,1,1,.85-.85A.85.85,0,0,1,447.86,96.61Zm-2.84,0h-5.67a.85.85,0,0,1,0-1.7H445a.85.85,0,1,1,0,1.7Zm-8.5,0a.85.85,0,1,1,.85-.85A.85.85,0,0,1,436.52,96.61Zm-2.84,0H428a.85.85,0,0,1,0-1.7h5.67a.85.85,0,1,1,0,1.7Zm-8.5,0a.85.85,0,1,1,.85-.85A.85.85,0,0,1,425.18,96.61Zm-2.84,0h-5.66a.85.85,0,1,1,0-1.7h5.66a.85.85,0,0,1,0,1.7Zm-8.5,0a.85.85,0,1,1,.85-.85A.85.85,0,0,1,413.84,96.61Zm-2.83,0h-5.67a.85.85,0,0,1,0-1.7H411a.85.85,0,0,1,0,1.7Zm-8.51,0a.85.85,0,1,1,.85-.85A.85.85,0,0,1,402.5,96.61Zm-2.83,0H394a.85.85,0,1,1,0-1.7h5.67a.85.85,0,0,1,0,1.7Zm-8.51,0a.85.85,0,1,1,.85-.85A.85.85,0,0,1,391.16,96.61Z" transform="translate(-22.85 -62.64)"/><path d="M449.49,128a4,4,0,1,1,4-4A4.05,4.05,0,0,1,449.49,128Zm0-6.39a2.34,2.34,0,1,0,2.35,2.34A2.35,2.35,0,0,0,449.49,121.6Z" transform="translate(-22.85 -62.64)"/><path d="M360.85,168.91a4,4,0,1,1,4-4A4.05,4.05,0,0,1,360.85,168.91Zm0-6.39a2.35,2.35,0,1,0,2.34,2.35A2.35,2.35,0,0,0,360.85,162.52Z" transform="translate(-22.85 -62.64)"/><rect class="cls-3" x="283.6" y="88.23" width="39.65" height="26.18"/><path d="M353.21,183.23H299.58c-.1,0-4.66-.38-4.66-6.19a.85.85,0,0,1,.85-.85h61a.85.85,0,0,1,.85.85C357.62,179.18,356.7,183.23,353.21,183.23Zm-56.55-5.34c.35,3.31,2.7,3.61,3,3.64h53.57c1.93,0,2.49-2.33,2.64-3.64Z" transform="translate(-22.85 -62.64)"/><path d="M350,177.89H302.51a.85.85,0,0,1-.85-.85V146.29a.85.85,0,0,1,.85-.85H350a.85.85,0,0,1,.85.85V177A.85.85,0,0,1,350,177.89Zm-46.68-1.7h45.83V147.14H303.36Z" transform="translate(-22.85 -62.64)"/><polygon class="cls-8" points="299.01 92.79 310.02 92.79 308.95 95.87 311.32 95.23 311.32 110.19 299.01 110.19 299.01 92.79"/><path d="M331.8,162.52H324.1a.85.85,0,1,1,0-1.7h7.69a.85.85,0,1,1,0,1.7Z" transform="translate(-22.85 -62.64)"/><path d="M331.8,165.71H324.1a.85.85,0,1,1,0-1.7h7.69a.85.85,0,1,1,0,1.7Z" transform="translate(-22.85 -62.64)"/><path d="M331.8,168.91H324.1a.85.85,0,1,1,0-1.7h7.69a.85.85,0,1,1,0,1.7Z" transform="translate(-22.85 -62.64)"/><path d="M88.88,393.76h-.43a.89.89,0,0,1-.6-.26.84.84,0,0,1,.6-1.44h.43c.78,0,1.58,0,2.37-.06s1.83-.11,2.78-.2a.85.85,0,1,1,.17,1.69c-1,.1-1.93.17-2.87.21S89.71,393.76,88.88,393.76Zm-3.26-.11h0a.85.85,0,1,1,.1-1.69.82.82,0,0,1,.59.28.87.87,0,0,1,.21.62A.85.85,0,0,1,85.62,393.65Zm-2.82-.26h-.11c-1.8-.23-2.84-.47-2.89-.48a.84.84,0,0,1-.52-.38.85.85,0,0,1,.91-1.28h0c.72.16,1.67.31,2.67.44a.84.84,0,0,1,.74.95A.85.85,0,0,1,82.8,393.39Zm14.13-.26a.85.85,0,0,1-.69-1.35.89.89,0,0,1,.56-.34.86.86,0,0,1,1,.71.87.87,0,0,1-.15.63.84.84,0,0,1-.56.34Zm2.78-.51a.86.86,0,0,1-.83-.68.83.83,0,0,1,.12-.63.77.77,0,0,1,.54-.37c.88-.19,1.78-.42,2.67-.66h0c.91-.25,1.8-.53,2.66-.82a.85.85,0,0,1,1,1.18.83.83,0,0,1-.49.43c-.9.31-1.83.59-2.76.85s-1.86.49-2.8.69Zm8.12-2.51a.86.86,0,0,1-.79-.53.91.91,0,0,1,0-.65.83.83,0,0,1,.45-.45h0a.86.86,0,0,1,1.11.46.85.85,0,0,1-.47,1.11A.71.71,0,0,1,107.83,390.11Zm2.59-1.16a.84.84,0,0,1-.37-1.61c.85-.42,1.68-.85,2.46-1.29s1.61-.94,2.38-1.44a.87.87,0,0,1,1.18.25.86.86,0,0,1-.26,1.18c-.82.53-1.65,1-2.46,1.49s-1.69.91-2.56,1.34A1,1,0,0,1,110.42,389Zm7.26-4.39a.84.84,0,0,1-.68-.35.85.85,0,0,1,.18-1.19.89.89,0,0,1,1.19.18.86.86,0,0,1-.18,1.19A.84.84,0,0,1,117.68,384.56Zm2.23-1.75a.83.83,0,0,1-.65-.31.84.84,0,0,1,.1-1.19c.7-.59,1.41-1.21,2.08-1.85l1.17-1.13a.86.86,0,0,1,1.2,0,.85.85,0,0,1,0,1.2c-.38.39-.77.78-1.2,1.18-.71.66-1.43,1.3-2.16,1.91A.82.82,0,0,1,119.91,382.81Z" transform="translate(-22.85 -62.64)"/><path d="M59.93,349.6a.43.43,0,0,1-.43-.42V327.81a.43.43,0,0,1,.43-.42H86.67a.42.42,0,1,1,0,.85H60.35v20.94A.43.43,0,0,1,59.93,349.6Z" transform="translate(-22.85 -62.64)"/><path d="M183.33,359.76h-.13a.85.85,0,1,1,0-1.7h.13a.85.85,0,1,1,0,1.7Zm-3,0a.85.85,0,1,1,.85-.85A.85.85,0,0,1,180.37,359.76Zm-2.83,0h-5.68a.85.85,0,1,1,0-1.7h5.68a.85.85,0,0,1,0,1.7Zm-8.51,0a.85.85,0,1,1,.85-.85A.85.85,0,0,1,169,359.76Zm-2.83,0h-5.67a.85.85,0,1,1,0-1.7h5.67a.85.85,0,1,1,0,1.7Zm-8.51,0a.85.85,0,1,1,.85-.85A.85.85,0,0,1,157.69,359.76Zm-2.83,0h-5.67a.85.85,0,1,1,0-1.7h5.67a.85.85,0,1,1,0,1.7Zm-8.51,0a.85.85,0,1,1,.85-.85A.85.85,0,0,1,146.35,359.76Zm-2.83,0h-2.83a.85.85,0,1,1,0-1.7h2.83a.85.85,0,0,1,0,1.7Z" transform="translate(-22.85 -62.64)"/><path class="cls-2" d="M158,140l4,7h-3.15v5.51s0,2.9-4.33,2.9h-4.33v2.51H136.54v-9.44s-3.54-4.72-3.54-9.73,4.92-11.9,12.68-11.9C145.68,126.79,158,127.48,158,140Z" transform="translate(-22.85 -62.64)"/><path class="cls-4" d="M165.62,153.1l-8.14,14.1h6.35v11.12s0,5.86,8.73,5.86h8.73v5.06H208.9V170.17s7.15-9.53,7.15-19.65-9.93-24-25.61-24C190.44,126.5,165.62,127.89,165.62,153.1Z" transform="translate(-22.85 -62.64)"/><path class="cls-8" d="M196,153.45h-7a.47.47,0,0,1-.47-.49,4.34,4.34,0,0,0-1.31-2.63c-.12-.13-2.44-2.74-2.44-5.61,0-5.63,2.74-8.73,7.71-8.73,6.92,0,7.45,7.94,7.45,8a7.32,7.32,0,0,1-1.9,5.36c-1.9,2.2-1.61,3.48-1.61,3.49a.48.48,0,0,1-.09.4A.47.47,0,0,1,196,153.45Zm-6.54-.93h6a6.38,6.38,0,0,1,1.85-3.76,6.45,6.45,0,0,0,1.68-4.66,10.75,10.75,0,0,0-1-3.67,5.79,5.79,0,0,0-5.52-3.51c-5.6,0-6.78,4.24-6.78,7.8,0,2.52,2.16,4.95,2.18,5A5.84,5.84,0,0,1,189.48,152.52Z" transform="translate(-22.85 -62.64)"/><path class="cls-8" d="M197.27,153.45h-9.71a.47.47,0,1,1,0-.93h9.71a.47.47,0,1,1,0,.93Z" transform="translate(-22.85 -62.64)"/><path class="cls-8" d="M197.27,155.17h-9.71a.47.47,0,1,1,0-.93h9.71a.47.47,0,1,1,0,.93Z" transform="translate(-22.85 -62.64)"/><path class="cls-8" d="M195.38,156.94h-5.93a.47.47,0,0,1,0-.93h5.93a.47.47,0,0,1,0,.93Z" transform="translate(-22.85 -62.64)"/><path class="cls-8" d="M194.67,158.71h-4.51a.47.47,0,0,1,0-.93h4.51a.47.47,0,0,1,0,.93Z" transform="translate(-22.85 -62.64)"/><path class="cls-8" d="M194.95,153.45h0a.47.47,0,0,1-.44-.49l.38-6.7-2.21,1.36a.47.47,0,0,1-.49,0L190,146.3l.83,5.92a.47.47,0,1,1-.92.13l-1-6.91a.47.47,0,0,1,.71-.46l2.72,1.68,2.72-1.68a.47.47,0,0,1,.71.42l-.43,7.6A.47.47,0,0,1,194.95,153.45Z" transform="translate(-22.85 -62.64)"/><path d="M445.89,407.84h-.43a.71.71,0,1,1,0-1.42h.43c.77,0,1.56,0,2.34-.1s1.82-.22,2.72-.4a.72.72,0,0,1,.84.55.69.69,0,0,1-.11.54.71.71,0,0,1-.45.3,28,28,0,0,1-2.88.42C447.54,407.8,446.71,407.84,445.89,407.84Zm-3.26,0a.71.71,0,1,1,.7-.71A.71.71,0,0,1,442.63,407.84Zm-2.84,0h-5.67a.71.71,0,0,1,0-1.42h5.67a.71.71,0,1,1,0,1.42Zm-8.5,0a.71.71,0,0,1,0-1.42.71.71,0,0,1,0,1.42Zm-2.84,0h-5.67a.71.71,0,1,1,0-1.42h5.67a.71.71,0,1,1,0,1.42Zm-8.5,0a.71.71,0,1,1,0-1.42.71.71,0,0,1,0,1.42Zm-2.84,0h-5.67a.71.71,0,1,1,0-1.42h5.67a.71.71,0,0,1,0,1.42Zm-8.5,0a.71.71,0,1,1,.71-.71A.71.71,0,0,1,408.61,407.84Zm-2.84,0H400.1a.71.71,0,0,1,0-1.42h5.67a.71.71,0,1,1,0,1.42Zm-8.5,0a.71.71,0,1,1,.71-.71A.71.71,0,0,1,397.27,407.84Zm-2.83,0h-5.67a.71.71,0,0,1,0-1.42h5.67a.71.71,0,0,1,0,1.42Zm-8.51,0a.71.71,0,1,1,.71-.71A.71.71,0,0,1,385.93,407.84Zm-2.83,0h-5.67a.71.71,0,1,1,0-1.42h5.67a.71.71,0,1,1,0,1.42Zm-8.51,0a.71.71,0,0,1,0-1.42.71.71,0,1,1,0,1.42Zm-2.83,0h-5.67a.71.71,0,0,1,0-1.42h5.67a.71.71,0,0,1,0,1.42Zm-8.51,0a.71.71,0,1,1,.71-.71A.7.7,0,0,1,363.25,407.84Zm-2.83,0h-5.67a.71.71,0,1,1,0-1.42h5.67a.71.71,0,1,1,0,1.42Zm-8.5,0a.71.71,0,1,1,.7-.71A.71.71,0,0,1,351.92,407.84Zm-2.84,0h-5.67a.71.71,0,1,1,0-1.42h5.67a.71.71,0,0,1,0,1.42Zm-8.5,0a.71.71,0,1,1,.71-.71A.71.71,0,0,1,340.58,407.84Zm-2.84,0h-5.67a.71.71,0,0,1,0-1.42h5.67a.71.71,0,1,1,0,1.42Zm-8.5,0a.71.71,0,1,1,.71-.71A.71.71,0,0,1,329.24,407.84Zm-2.84,0h-5.67a.71.71,0,0,1,0-1.42h5.67a.71.71,0,1,1,0,1.42Zm-8.5,0a.71.71,0,1,1,.71-.71A.71.71,0,0,1,317.9,407.84Zm-2.83,0H309.4a.71.71,0,0,1,0-1.42h5.67a.71.71,0,0,1,0,1.42Zm-8.51,0a.71.71,0,1,1,.71-.71A.71.71,0,0,1,306.56,407.84Zm-2.83,0h-5.67a.71.71,0,1,1,0-1.42h5.67a.71.71,0,1,1,0,1.42Zm-8.51,0a.71.71,0,0,1,0-1.42.71.71,0,1,1,0,1.42Zm-2.83,0h-5.67a.71.71,0,0,1,0-1.42h5.67a.71.71,0,1,1,0,1.42Zm-8.51,0a.71.71,0,0,1,0-1.42.71.71,0,0,1,0,1.42Zm-2.83,0h-5.67a.71.71,0,1,1,0-1.42H281a.71.71,0,1,1,0,1.42Zm-8.5,0a.71.71,0,1,1,.7-.71A.71.71,0,0,1,272.55,407.84Zm-2.84,0H264a.71.71,0,0,1,0-1.42h5.67a.71.71,0,0,1,0,1.42Zm-8.5,0a.71.71,0,1,1,.71-.71A.71.71,0,0,1,261.21,407.84Zm-2.84,0H252.7a.71.71,0,0,1,0-1.42h5.67a.71.71,0,1,1,0,1.42Zm-8.5,0a.71.71,0,1,1,.71-.71A.71.71,0,0,1,249.87,407.84Zm-2.84,0h-5.67a.71.71,0,0,1,0-1.42H247a.71.71,0,0,1,0,1.42Zm-8.5-.08h0a.71.71,0,1,1,.76-.65A.72.72,0,0,1,238.53,407.76Zm-2.8-.38h-.13a27.9,27.9,0,0,1-2.83-.7,26.64,26.64,0,0,1-2.72-1h0a.69.69,0,0,1-.38-.39.71.71,0,0,1,.93-.92,25.85,25.85,0,0,0,2.59.95,24.84,24.84,0,0,0,2.68.66.71.71,0,0,1-.13,1.4Zm218.11-.77a.71.71,0,0,1-.68-.49.67.67,0,0,1,0-.54.65.65,0,0,1,.41-.35.71.71,0,0,1,.43,1.35Zm2.65-1a.71.71,0,0,1-.29-1.36,25.48,25.48,0,0,0,2.44-1.23h0a24.7,24.7,0,0,0,2.31-1.5.72.72,0,0,1,1,.15.7.7,0,0,1-.15,1,25.82,25.82,0,0,1-2.44,1.58h0a25.69,25.69,0,0,1-2.57,1.3A.67.67,0,0,1,456.49,405.61Zm-228.72-1.13a.75.75,0,0,1-.33-.08h0a.71.71,0,0,1,.69-1.24h0a.76.76,0,0,1,.33.42.72.72,0,0,1-.07.54A.69.69,0,0,1,227.77,404.48ZM225.38,403a.67.67,0,0,1-.41-.13,27.87,27.87,0,0,1-2.28-1.81,26.64,26.64,0,0,1-2.07-2,.7.7,0,0,1,0-1,.72.72,0,0,1,1,0,23.91,23.91,0,0,0,2,1.93h0a24.35,24.35,0,0,0,2.16,1.71.72.72,0,0,1,.17,1A.7.7,0,0,1,225.38,403Zm238.21-2a.72.72,0,0,1-.71-.75.72.72,0,0,1,.24-.49h0a.74.74,0,0,1,1,.06.72.72,0,0,1-.05,1h0A.71.71,0,0,1,463.59,401Zm2-2a.7.7,0,0,1-.47-.18.71.71,0,0,1-.06-1,24.19,24.19,0,0,0,1.73-2.15,25.17,25.17,0,0,0,1.49-2.32.72.72,0,0,1,1-.26.7.7,0,0,1,.27,1,29.08,29.08,0,0,1-1.58,2.45,28.4,28.4,0,0,1-1.82,2.26A.73.73,0,0,1,465.59,399Zm-246.25-2a.68.68,0,0,1-.57-.29.7.7,0,0,1,.15-1,.72.72,0,0,1,1,.15.75.75,0,0,1,.13.53.7.7,0,0,1-.28.46A.72.72,0,0,1,219.34,397Zm-1.56-2.36a.74.74,0,0,1-.62-.35,26.44,26.44,0,0,1-1.33-2.59.72.72,0,0,1,.35-.94.73.73,0,0,1,.94.36,24.81,24.81,0,0,0,1.27,2.45.72.72,0,0,1-.26,1A.75.75,0,0,1,217.78,394.68Zm252.39-2.8a.67.67,0,0,1-.28-.06.69.69,0,0,1-.38-.39.67.67,0,0,1,0-.54.71.71,0,0,1,1.31,0,.7.7,0,0,1,0,.55A.72.72,0,0,1,470.17,391.88Zm1-2.65a.52.52,0,0,1-.21,0,.69.69,0,0,1-.42-.35.72.72,0,0,1-.05-.54,25.87,25.87,0,0,0,.69-2.66,26.81,26.81,0,0,0,.38-2.73.72.72,0,0,1,.77-.65.71.71,0,0,1,.64.77,28,28,0,0,1-.4,2.88c-.19.93-.43,1.88-.72,2.82A.72.72,0,0,1,471.16,389.23Zm1.21-8.38h0a.71.71,0,0,1-.71-.7.66.66,0,0,1,.19-.5.7.7,0,0,1,.5-.22h0a.7.7,0,0,1,.7.69A.71.71,0,0,1,472.37,380.85Zm-.22-2.83a.69.69,0,0,1-.7-.62c-.12-.91-.29-1.82-.5-2.71a27.09,27.09,0,0,0-.79-2.64.72.72,0,0,1,0-.54.7.7,0,0,1,.4-.37.73.73,0,0,1,.91.43,26.58,26.58,0,0,1,1.35,5.65.71.71,0,0,1-.61.8Zm-2.41-8.12h0a.7.7,0,0,1-.3-1.34.71.71,0,0,1,.94.33.7.7,0,0,1-.33.94A.63.63,0,0,1,469.74,369.9Zm-1.37-2.48a.71.71,0,0,1-.61-.33,25.9,25.9,0,0,0-1.58-2.26,25.32,25.32,0,0,0-1.81-2.08.63.63,0,0,1-.2-.5.71.71,0,0,1,.21-.5.73.73,0,0,1,1,0A26.72,26.72,0,0,1,467.3,364c.6.77,1.16,1.57,1.67,2.38a.72.72,0,0,1-.23,1A.69.69,0,0,1,468.37,367.42ZM462.8,361a.75.75,0,0,1-.45-.16.72.72,0,0,1-.1-1,.73.73,0,0,1,1-.09.71.71,0,0,1,.09,1A.69.69,0,0,1,462.8,361Zm-2.27-1.7a.74.74,0,0,1-.39-.11,25.31,25.31,0,0,0-2.37-1.41l0,0c-.81-.42-1.64-.8-2.47-1.13a.71.71,0,0,1-.4-.92.74.74,0,0,1,.92-.4,28.91,28.91,0,0,1,2.65,1.21,25.79,25.79,0,0,1,2.49,1.49.7.7,0,0,1-.39,1.29Zm-7.69-3.51a.6.6,0,0,1-.19,0,.71.71,0,0,1-.5-.87.73.73,0,0,1,.86-.5h0a.71.71,0,0,1-.18,1.4Z" transform="translate(-22.85 -62.64)"/><path class="cls-5" d="M338,359.45s-.78-2.64,3.11-7.15a12.59,12.59,0,0,0,3.26-9.17s-.78-13.84-12.75-13.84-13.21,10.1-13.21,15.08,4.2,9.64,4.2,9.64,2.8,2.8,2.64,5.44Z" transform="translate(-22.85 -62.64)"/><path d="M340.28,360.3H322.56a.85.85,0,1,1,0-1.7h17.71a.85.85,0,1,1,0,1.7Z" transform="translate(-22.85 -62.64)"/><path d="M340.28,363.44H322.56a.85.85,0,1,1,0-1.7h17.71a.85.85,0,1,1,0,1.7Z" transform="translate(-22.85 -62.64)"/><path d="M336.83,366.67H326a.85.85,0,0,1,0-1.7h10.82a.85.85,0,0,1,0,1.7Z" transform="translate(-22.85 -62.64)"/><path d="M335.53,369.9H327.3a.85.85,0,0,1,0-1.7h8.23a.85.85,0,0,1,0,1.7Z" transform="translate(-22.85 -62.64)"/><path d="M336,360.3h0a.85.85,0,0,1-.8-.9l.69-12.23-4,2.49a.86.86,0,0,1-.89,0l-3.87-2.39,1.52,10.8a.85.85,0,1,1-1.68.24l-1.77-12.6a.85.85,0,0,1,1.29-.84l5,3.07,5-3.07a.85.85,0,0,1,1.3.77l-.79,13.86A.85.85,0,0,1,336,360.3Z" transform="translate(-22.85 -62.64)"/><path d="M330.67,323.85a.85.85,0,0,1-.85-.85v-5a.85.85,0,1,1,1.7,0v5A.85.85,0,0,1,330.67,323.85Z" transform="translate(-22.85 -62.64)"/><path d="M356.7,346.6h-5.52a.85.85,0,0,1,0-1.7h5.52a.85.85,0,0,1,0,1.7Z" transform="translate(-22.85 -62.64)"/><path d="M347.3,330.67a.85.85,0,0,1-.54-1.5l4.25-3.53A.85.85,0,1,1,352.1,327l-4.25,3.53A.85.85,0,0,1,347.3,330.67Z" transform="translate(-22.85 -62.64)"/><path d="M311.66,346.6h-5.52a.85.85,0,1,1,0-1.7h5.52a.85.85,0,0,1,0,1.7Z" transform="translate(-22.85 -62.64)"/><path d="M315.53,330.67a.85.85,0,0,1-.54-.2L310.74,327a.85.85,0,0,1,1.09-1.31l4.25,3.53a.85.85,0,0,1-.54,1.5Z" transform="translate(-22.85 -62.64)"/><path d="M159.53,357a.85.85,0,0,1-.74-1.27l3.18-5.57a.86.86,0,0,1,.29-.3l37.79-23.11a.85.85,0,0,1,1.17.28l3.23,5.28a.85.85,0,0,1-.28,1.17l-37.71,23.06a.87.87,0,0,1-.4.12l-6.49.34Zm3.81-5.81-2.3,4,4.72-.25,36.8-22.5-2.34-3.83Z" transform="translate(-22.85 -62.64)"/><path d="M201.21,335.15a.85.85,0,0,1-.73-.41l-3.23-5.28a.85.85,0,1,1,1.45-.89l3.23,5.28a.85.85,0,0,1-.72,1.29Z" transform="translate(-22.85 -62.64)"/><path d="M165.95,356.72a.85.85,0,0,1-.73-.41L162,351a.85.85,0,1,1,1.45-.89l3.23,5.28a.85.85,0,0,1-.72,1.29Z" transform="translate(-22.85 -62.64)"/><path d="M164.33,354.08a.85.85,0,0,1-.44-1.58l35.27-21.57a.85.85,0,0,1,.89,1.45L164.77,354A.85.85,0,0,1,164.33,354.08Z" transform="translate(-22.85 -62.64)"/><path d="M162.71,412.78a.85.85,0,0,1-.83-.69h0c0-.17-.85-4.08-4.48-4.08H136.69a.85.85,0,0,1-.85-.85V367.58a.85.85,0,0,1,.85-.85h20.53c2.2,0,6.35,1.17,6.35,5.62v39.59a.85.85,0,0,1-.77.85Zm-25.18-6.47H157.4a5.73,5.73,0,0,1,4.46,2v-36c0-3.87-4.46-3.92-4.65-3.92H137.54Z" transform="translate(-22.85 -62.64)"/><path d="M162.71,412.78h-.08a.85.85,0,0,1-.77-.85V372.34c0-4.44,4.15-5.62,6.35-5.62h20.53a.85.85,0,0,1,.85.85v39.59a.85.85,0,0,1-.85.85H168c-3.65,0-4.45,3.91-4.48,4.08A.85.85,0,0,1,162.71,412.78Zm5.5-44.36c-.19,0-4.65.07-4.65,3.92v36a5.73,5.73,0,0,1,4.47-2h19.86V368.43Z" transform="translate(-22.85 -62.64)"/><path d="M151.19,373.46H140.44a.85.85,0,0,1,0-1.7h10.75a.85.85,0,0,1,0,1.7Z" transform="translate(-22.85 -62.64)"/><path d="M157.88,379.42H140.44a.85.85,0,0,1,0-1.7h17.44a.85.85,0,0,1,0,1.7Z" transform="translate(-22.85 -62.64)"/><path d="M155.09,385.31H140.44a.85.85,0,0,1,0-1.7h14.65a.85.85,0,1,1,0,1.7Z" transform="translate(-22.85 -62.64)"/><path d="M185.19,402h-11a.85.85,0,1,1,0-1.7h11a.85.85,0,0,1,0,1.7Z" transform="translate(-22.85 -62.64)"/><path d="M290,397a.85.85,0,0,1-.83-.68l-4.6-23-4.79,23a.8.8,0,0,1-.87.68.85.85,0,0,1-.81-.74l-2.9-22.65-5.78,22.75a.85.85,0,0,1-.82.64h0a.85.85,0,0,1-.81-.69l-5.24-27.08a.85.85,0,0,1,1.67-.32l4.52,23.35,5.95-23.4a.85.85,0,0,1,1.67.1L279.1,391l4.61-22.13a.85.85,0,0,1,.83-.68h0a.85.85,0,0,1,.83.68l4.4,22,2.77-21.91a.85.85,0,0,1,.83-.74.88.88,0,0,1,.86.71l3.55,20.77,2.79-20.74a.85.85,0,0,1,.8-.74.88.88,0,0,1,.87.65l3.59,14.64h8.49a.85.85,0,1,1,0,1.7h-9.15a.85.85,0,0,1-.83-.65l-2.67-10.92-2.93,21.8a.85.85,0,0,1-.83.74.81.81,0,0,1-.85-.71l-3.53-20.62-2.71,21.41a.85.85,0,0,1-.81.74Z" transform="translate(-22.85 -62.64)"/><path d="M361.78,142.27a.43.43,0,0,1-.42-.34l-3.94-19.68-4.1,19.68a.4.4,0,0,1-.43.34.43.43,0,0,1-.41-.37L350,122.4,345,142a.39.39,0,0,1-.42.32.42.42,0,0,1-.4-.34L340,120.21a.42.42,0,1,1,.83-.16l3.84,19.85L349.71,120a.43.43,0,0,1,.83.05L353,139.28,357,120a.39.39,0,0,1,.42-.34.43.43,0,0,1,.42.34l3.84,19.16,2.42-19.13a.43.43,0,0,1,.41-.37.43.43,0,0,1,.43.35l3.13,18.31,2.46-18.3a.43.43,0,0,1,.4-.37.45.45,0,0,1,.44.32L374.29,132h7a.43.43,0,0,1,0,.85H374a.42.42,0,0,1-.41-.32l-2.47-10.07-2.53,18.83a.43.43,0,0,1-.41.37.42.42,0,0,1-.43-.35L364.59,123,362.2,141.9a.42.42,0,0,1-.41.37Z" transform="translate(-22.85 -62.64)"/><path d="M328.86,385.17a.71.71,0,1,1,0-1.42h1.85v-2.4a.71.71,0,1,1,1.42,0v3.11a.71.71,0,0,1-.21.5.67.67,0,0,1-.5.21h-2.56Zm-2.83,0a.71.71,0,1,1,0-1.42.71.71,0,0,1,0,1.42Zm-2.84,0h-2.83a.71.71,0,1,1,0-1.42h2.83a.71.71,0,0,1,0,1.42Zm8.23-6a.71.71,0,1,1,.71-.71A.71.71,0,0,1,331.42,379.22Zm0-2.83a.71.71,0,0,1-.71-.71v-3.87a.71.71,0,1,1,1.42,0v3.87A.71.71,0,0,1,331.42,376.39Z" transform="translate(-22.85 -62.64)"/><path d="M155.89,174.73H150.4a.86.86,0,0,1,0-1.71h5.49a.86.86,0,0,1,0,1.71Zm-8.33,0a.86.86,0,1,1,.86-.85A.86.86,0,0,1,147.56,174.73Zm-2.83,0h-5.67a.86.86,0,0,1,0-1.71h5.67a.86.86,0,0,1,0,1.71Zm-8.5,0a.86.86,0,1,1,.85-.85A.86.86,0,0,1,136.23,174.73Zm-2.84,0h-5.67a.86.86,0,0,1,0-1.71h5.67a.86.86,0,0,1,0,1.71Zm-8.5,0a.86.86,0,1,1,.85-.85A.86.86,0,0,1,124.89,174.73Zm-2.84,0h-5.67a.86.86,0,0,1,0-1.71H122a.86.86,0,0,1,0,1.71Zm-8.5,0a.86.86,0,1,1,.85-.85A.86.86,0,0,1,113.55,174.73Zm-2.84,0h-5.3a.9.9,0,0,1-.6-.25.86.86,0,0,1-.25-.6v-.37h0a.85.85,0,0,1,.85-.84.87.87,0,0,1,.7.36h4.6a.86.86,0,0,1,0,1.71Zm-5.3-3.2a.85.85,0,1,1,.85-.85A.85.85,0,0,1,105.41,171.53Zm0-2.84a.85.85,0,0,1-.85-.85v-5.67a.85.85,0,1,1,1.7,0v5.67A.85.85,0,0,1,105.41,168.69Zm0-8.5a.85.85,0,1,1,.85-.85A.85.85,0,0,1,105.41,160.19Zm0-2.84a.85.85,0,0,1-.85-.85v-5.67a.85.85,0,0,1,1.7,0v5.67A.85.85,0,0,1,105.41,157.35Zm0-8.5a.85.85,0,1,1,.85-.85A.85.85,0,0,1,105.41,148.85Zm0-2.84a.85.85,0,0,1-.85-.85v-2.83a.85.85,0,0,1,1.7,0v2.83A.85.85,0,0,1,105.41,146Z" transform="translate(-22.85 -62.64)"/><path d="M53.35,136.41a.42.42,0,0,1-.42-.35c-.07-.43-1.74-10.66,4-17.43,3.18-3.77,8-5.68,14.4-5.68a.43.43,0,0,1,0,.85c-6.11,0-10.74,1.81-13.75,5.38-5.46,6.47-3.79,16.63-3.78,16.73a.42.42,0,0,1-.35.49Z" transform="translate(-22.85 -62.64)"/><path d="M259.83,185.26h-.55a.71.71,0,1,1,0-1.41h0c.91,0,1.84,0,2.76-.08s1.86-.19,2.75-.34a.71.71,0,0,1,.23,1.4c-.94.16-1.91.28-2.87.35C261.4,185.23,260.61,185.26,259.83,185.26Zm-3.36-.19h-.08a.71.71,0,0,1-.63-.78.72.72,0,0,1,.78-.63.71.71,0,0,1-.07,1.41Zm-2.8-.44h-.14c-.94-.2-1.88-.44-2.8-.72h0l0,0a27.87,27.87,0,0,1-2.69-1,.7.7,0,0,1,.54-1.3c.85.35,1.73.66,2.6.93s1.78.5,2.68.69a.71.71,0,0,1-.14,1.4Zm14-.41a.7.7,0,0,1-.68-.52.71.71,0,0,1,.48-.86h0a.71.71,0,1,1,.37,1.37A.61.61,0,0,1,267.7,184.22Zm2.7-.86a.7.7,0,0,1-.66-.46.67.67,0,0,1,0-.54.65.65,0,0,1,.39-.37c.85-.32,1.7-.68,2.55-1.09s1.64-.84,2.42-1.32a.72.72,0,0,1,1,.24.71.71,0,0,1-.24,1c-.82.5-1.68,1-2.55,1.39s-1.76.8-2.66,1.14A.73.73,0,0,1,270.4,183.36Zm-24.7-1.6a.8.8,0,0,1-.34-.08.71.71,0,0,1-.34-.42.68.68,0,0,1,0-.54.73.73,0,0,1,1-.29.72.72,0,0,1,.29,1A.7.7,0,0,1,245.7,181.76Zm-2.44-1.44a.67.67,0,0,1-.39-.12,27.12,27.12,0,0,1-2.35-1.7c-.75-.6-1.49-1.25-2.18-1.91a.71.71,0,0,1-.21-.5.63.63,0,0,1,.2-.5.72.72,0,0,1,1,0,27.18,27.18,0,0,0,2.08,1.82c.71.58,1.47,1.12,2.24,1.63a.72.72,0,0,1,.2,1A.7.7,0,0,1,243.26,180.32Zm34.59-1a.67.67,0,0,1-.57-.29.7.7,0,0,1,.14-1,.73.73,0,0,1,1,.15.7.7,0,0,1-.14,1A.73.73,0,0,1,277.85,179.31Zm2.19-1.79a.73.73,0,0,1-.53-.24.71.71,0,0,1,0-1c.7-.62,1.36-1.28,2-1.94l0,0c.61-.66,1.2-1.37,1.75-2.09a.72.72,0,0,1,1-.13.7.7,0,0,1,.13,1q-.88,1.16-1.86,2.22t-2.07,2A.74.74,0,0,1,280,177.52Zm-43.15-2.79a.71.71,0,0,1-.54-.25.7.7,0,0,1,.08-1,.73.73,0,0,1,1,.07h0a.71.71,0,0,1-.08,1A.69.69,0,0,1,236.89,174.73Zm-1.74-2.23a.73.73,0,0,1-.58-.3c-.57-.8-1.1-1.62-1.57-2.44s-.92-1.68-1.32-2.57a0,0,0,0,1,0,0,.68.68,0,0,1,0-.54.71.71,0,0,1,1.31,0c.37.81.79,1.62,1.25,2.42,0,0,0,0,0,0,.46.79,1,1.58,1.49,2.33a.66.66,0,0,1,.12.53.67.67,0,0,1-.29.45A.65.65,0,0,1,235.15,172.5ZM285.49,171a.73.73,0,0,1-.38-.11.7.7,0,0,1-.31-.44.73.73,0,0,1,.09-.54.71.71,0,0,1,1.29.22.74.74,0,0,1-.09.54A.73.73,0,0,1,285.49,171Zm1.39-2.47a.73.73,0,0,1-.32-.08.71.71,0,0,1-.32-1c.42-.83.8-1.68,1.13-2.53a.07.07,0,0,1,0,0c.32-.84.61-1.71.86-2.58a.72.72,0,0,1,.87-.49.77.77,0,0,1,.43.34.72.72,0,0,1,.06.54c-.26.93-.58,1.86-.92,2.75s-.75,1.78-1.18,2.65A.7.7,0,0,1,286.88,168.56ZM231.26,165a.71.71,0,0,1-.67-.46h0a.7.7,0,0,1,.44-.9.7.7,0,0,1,.87,1,.75.75,0,0,1-.41.37A.85.85,0,0,1,231.26,165Zm-.8-2.71a.71.71,0,0,1-.69-.54c-.23-.93-.42-1.88-.56-2.83v0a.45.45,0,0,1,0,0c-.13-.93-.23-1.89-.28-2.83a.68.68,0,0,1,.18-.51.71.71,0,0,1,1.24.43c0,.91.14,1.84.27,2.76s.32,1.83.53,2.71a.71.71,0,0,1-.51.86Zm59.11-1.72h-.13a.7.7,0,0,1-.45-.3.67.67,0,0,1-.11-.53.71.71,0,0,1,.82-.57.67.67,0,0,1,.45.29.74.74,0,0,1,.12.54A.72.72,0,0,1,289.57,160.53Zm.38-2.81h-.06a.71.71,0,0,1-.64-.77c.08-.88.11-1.77.11-2.64v-.18c0-.89,0-1.81-.14-2.71a.74.74,0,0,1,.16-.52.7.7,0,0,1,.48-.26.72.72,0,0,1,.78.64c.09,1,.14,1.93.14,2.9v.13c0,.92,0,1.85-.12,2.76v0A.72.72,0,0,1,290,157.72Zm-60.34-3.9h0a.71.71,0,0,1-.68-.74h0a.71.71,0,0,1,.71-.68h0a.71.71,0,0,1,0,1.42Zm.24-2.83h-.09a.71.71,0,0,1-.47-.27.68.68,0,0,1-.14-.53c.13-1,.3-1.92.51-2.85s.48-1.88.79-2.79a.71.71,0,0,1,1.3-.1.71.71,0,0,1,0,.55,25.16,25.16,0,0,0-.74,2.66s0,0,0,0c-.2.88-.37,1.79-.49,2.7A.71.71,0,0,1,229.85,151Zm59.67-1.74a.7.7,0,0,1-.69-.57.66.66,0,0,1,.11-.53.68.68,0,0,1,.45-.3.71.71,0,0,1,.27,1.39Zm-.66-2.75a.7.7,0,0,1-.68-.51c-.26-.89-.57-1.77-.91-2.62s-.72-1.7-1.14-2.51a.7.7,0,0,1,0-.55.71.71,0,0,1,1.31-.1c.44.85.84,1.74,1.2,2.64s.68,1.83,1,2.74a.71.71,0,0,1-.48.88Zm-56.72-3.66a.72.72,0,0,1-.29-.06.71.71,0,0,1-.36-.94.73.73,0,0,1,.93-.36.71.71,0,0,1,.36.94A.7.7,0,0,1,232.14,142.84Zm1.26-2.54a.73.73,0,0,1-.35-.09.7.7,0,0,1-.33-.42.72.72,0,0,1,.06-.54c.46-.83,1-1.66,1.53-2.47s1.14-1.57,1.75-2.3a0,0,0,0,1,0,0,.73.73,0,0,1,1-.08.7.7,0,0,1,.09,1c-.57.68-1.12,1.41-1.65,2.18,0,0,0,0,0,0-.53.77-1,1.56-1.46,2.35A.72.72,0,0,1,233.4,140.3Zm51.95-1.52a.71.71,0,1,1,.6-1.09.73.73,0,0,1,.09.54.7.7,0,0,1-.31.44A.73.73,0,0,1,285.35,138.78Zm-1.63-2.31a.69.69,0,0,1-.56-.28c-.19-.24-.4-.5-.63-.77a.71.71,0,1,1,1.09-.91l.66.81h0a.74.74,0,0,1,.14.52.71.71,0,0,1-.27.47A.7.7,0,0,1,283.72,136.47Zm-45.2-2.92a.67.67,0,0,1-.5-.21.71.71,0,0,1,0-1,.73.73,0,0,1,1,0,.72.72,0,0,1,0,1h0A.69.69,0,0,1,238.52,133.55Zm2.1-1.9a.67.67,0,0,1-.54-.26.69.69,0,0,1-.16-.52.73.73,0,0,1,.25-.47c.74-.61,1.52-1.2,2.32-1.74h0a.74.74,0,0,1,1,.2.71.71,0,0,1,.11.53.7.7,0,0,1-.3.45c-.75.51-1.5,1.07-2.22,1.66A.71.71,0,0,1,240.62,131.65Z" transform="translate(-22.85 -62.64)"/><path class="cls-5" d="M279.32,126h7.51s.72-7-3.76-7h-6.62v7Z" transform="translate(-22.85 -62.64)"/><path class="cls-3" d="M279.32,165.67V123.28S279,119,283.07,119H250.17s-3.76-.72-3.76,7.51v44.36h29.15S279.32,171.22,279.32,165.67Z" transform="translate(-22.85 -62.64)"/><path class="cls-5" d="M272.52,165.67s-.18,5.19,3.93,5.19h-33.8s-3,.17-3-5.19Z" transform="translate(-22.85 -62.64)"/><path class="cls-8" d="M258,129.15h-8a.85.85,0,1,1,0-1.7h8a.85.85,0,0,1,0,1.7Z" transform="translate(-22.85 -62.64)"/><path class="cls-8" d="M264.74,133H250a.85.85,0,1,1,0-1.7h14.74a.85.85,0,0,1,0,1.7Z" transform="translate(-22.85 -62.64)"/><path class="cls-8" d="M259.83,137.72H250a.85.85,0,1,1,0-1.7h9.83a.85.85,0,1,1,0,1.7Z" transform="translate(-22.85 -62.64)"/><path class="cls-8" d="M257.69,141.46H250a.85.85,0,1,1,0-1.7h7.69a.85.85,0,0,1,0,1.7Z" transform="translate(-22.85 -62.64)"/><path class="cls-8" d="M276.46,156.86H268a.85.85,0,0,1,0-1.7h8.48a.85.85,0,1,1,0,1.7Z" transform="translate(-22.85 -62.64)"/><path class="cls-8" d="M276.46,159.56H268a.85.85,0,0,1,0-1.7h8.48a.85.85,0,0,1,0,1.7Z" transform="translate(-22.85 -62.64)"/><path d="M325,111a.69.69,0,0,1-.39-.12h0l0,0c-.65-.41-1.47-.9-2.38-1.42a.71.71,0,0,1,.71-1.23c1.26.72,2.07,1.23,2.45,1.46l0,0a0,0,0,0,1,0,0,.71.71,0,0,1,.21,1A.72.72,0,0,1,325,111ZM194.4,111a.72.72,0,0,1-.57-.29.73.73,0,0,1-.13-.53.72.72,0,0,1,.29-.47c.6-.44,1.24-.89,1.94-1.37s1.57-1.08,2.35-1.59h0a.72.72,0,0,1,1,.21.7.7,0,0,1-.2,1c-.77.5-1.56,1-2.33,1.57l-1.92,1.36A.7.7,0,0,1,194.4,111Zm125.69-2.85a.76.76,0,0,1-.33-.08h0a.71.71,0,0,1-.28-1,.73.73,0,0,1,1-.29.72.72,0,0,1,.29,1A.7.7,0,0,1,320.09,108.2Zm-2.51-1.32a.71.71,0,0,1-.32-.07c-.82-.42-1.67-.85-2.53-1.27l-2.55-1.2a.71.71,0,0,1-.35-.94.72.72,0,0,1,.94-.35c.91.42,1.78.83,2.58,1.22s1.75.86,2.55,1.27a.71.71,0,0,1-.32,1.34Zm-116.51-.31a.71.71,0,0,1-.38-1.31h0a.71.71,0,0,1,1.06.76.69.69,0,0,1-.32.44A.7.7,0,0,1,201.07,106.57Zm2.43-1.46a.72.72,0,0,1-.61-.35.74.74,0,0,1-.08-.54.72.72,0,0,1,.33-.43c.8-.47,1.61-.93,2.49-1.41s1.61-.87,2.52-1.33a.71.71,0,1,1,.64,1.26c-.84.43-1.67.87-2.48,1.32h0c-.87.48-1.66.93-2.42,1.37A.75.75,0,0,1,203.5,105.11Zm106.39-1.87a.76.76,0,0,1-.29-.06.74.74,0,0,1-.37-.39.7.7,0,0,1,0-.55.73.73,0,0,1,.93-.36.71.71,0,0,1-.28,1.36Zm-2.61-1.12a.81.81,0,0,1-.27,0L304.39,101l-2.63-1a.66.66,0,0,1-.4-.37.68.68,0,0,1,0-.54.73.73,0,0,1,.91-.42c.92.35,1.81.69,2.66,1s1.81.72,2.64,1.07h0a.72.72,0,0,1,.37.38.66.66,0,0,1,0,.55A.7.7,0,0,1,307.28,102.12Zm-96.27-1a.72.72,0,0,1-.64-.4.71.71,0,0,1,.33-1h0a.73.73,0,0,1,.94.34.71.71,0,0,1-.33.94A.67.67,0,0,1,211,101.13Zm2.58-1.19a.69.69,0,0,1-.65-.42.67.67,0,0,1,0-.54.66.66,0,0,1,.38-.39c.83-.38,1.71-.75,2.62-1.13s1.78-.71,2.66-1a.71.71,0,1,1,.5,1.32c-.83.32-1.7.66-2.58,1l0,0c-.85.34-1.72.71-2.59,1.1A.67.67,0,0,1,213.59,99.94Zm85.75-.87a.67.67,0,0,1-.24,0,.68.68,0,0,1-.4-.36.66.66,0,0,1,0-.55.73.73,0,0,1,.9-.43h0a.69.69,0,0,1,.4.35.7.7,0,0,1,0,.55A.69.69,0,0,1,299.34,99.07Zm-2.69-.92a.84.84,0,0,1-.22,0c-.88-.3-1.79-.59-2.69-.87l-2.7-.81a.7.7,0,0,1-.48-.87.71.71,0,0,1,.87-.49c1,.29,1.9.56,2.73.82s1.82.58,2.7.87h0a.71.71,0,0,1-.23,1.38Zm-75.16-1.33a.71.71,0,0,1-.67-.47.71.71,0,1,1,1.31.07.7.7,0,0,1-.41.36A.58.58,0,0,1,221.49,96.82Zm2.69-.89a.69.69,0,0,1-.67-.49.72.72,0,0,1,0-.54.73.73,0,0,1,.42-.35c.87-.28,1.79-.55,2.73-.82s1.85-.51,2.76-.74a.72.72,0,0,1,.86.51.7.7,0,0,1-.51.86c-1,.25-1.85.49-2.72.74h0c-.89.25-1.78.52-2.65.79A.78.78,0,0,1,224.18,95.93Zm64.32-.22-.18,0a.71.71,0,0,1-.5-.87.72.72,0,0,1,.87-.5h0a.71.71,0,0,1,.49.86A.73.73,0,0,1,288.5,95.71ZM285.76,95a.47.47,0,0,1-.17,0l-2.75-.65c-.88-.2-1.81-.39-2.75-.59a.69.69,0,0,1-.46-.3.71.71,0,0,1,.74-1.08l2.78.59c.85.19,1.73.4,2.78.66h0a.71.71,0,0,1-.18,1.39Zm-53.37-1.27a.72.72,0,0,1-.69-.56.71.71,0,0,1,.09-.53.7.7,0,0,1,.44-.31h0a.71.71,0,0,1,.31,1.38Zm45-.51h-.13a.73.73,0,1,1,.13,0Zm-42.27-.07a.71.71,0,0,1-.14-1.41c.91-.18,1.85-.35,2.81-.51s1.88-.3,2.82-.42a.7.7,0,0,1,.8.6.65.65,0,0,1-.14.52.68.68,0,0,1-.47.28c-.89.12-1.83.27-2.77.42s-1.83.32-2.78.5Zm39.48-.4h-.11c-1-.15-1.86-.29-2.75-.41h0c-1-.14-1.9-.25-2.8-.36a.66.66,0,0,1-.47-.26.71.71,0,0,1-.16-.52.72.72,0,0,1,.79-.62c.94.1,1.88.22,2.81.35H272c.94.12,1.87.26,2.78.41h0a.7.7,0,0,1,.59.81A.72.72,0,0,1,274.65,92.75Zm-31.08-.89a.71.71,0,1,1,.7-.78.7.7,0,0,1-.15.52.66.66,0,0,1-.47.26Zm22.64-.17h-.07a.75.75,0,0,1-.48-.25.7.7,0,0,1-.16-.52.72.72,0,0,1,.77-.64.71.71,0,0,1-.06,1.41Zm-19.82-.1a.72.72,0,0,1-.71-.65.76.76,0,0,1,.17-.52.73.73,0,0,1,.48-.25c1-.08,1.94-.15,2.85-.2s1.93-.1,2.83-.12h0a.72.72,0,0,1,.71.69.73.73,0,0,1-.19.51.72.72,0,0,1-.5.22c-.95,0-1.9.08-2.81.13s-1.88.12-2.81.2Zm17-.12h0c-.91-.06-1.86-.12-2.81-.16s-1.87-.07-2.81-.09a.71.71,0,0,1-.5-.21.75.75,0,0,1-.2-.51.71.71,0,0,1,.7-.69h0c1,0,1.92,0,2.85.09s1.9.09,2.85.15a.71.71,0,0,1,0,1.42Zm-8.49-.26h0a.71.71,0,0,1,0-1.42h0a.71.71,0,0,1,.71.7.75.75,0,0,1-.2.51A.73.73,0,0,1,254.89,91.21Z" transform="translate(-22.85 -62.64)"/><text class="cls-9" transform="translate(0 239.26)">LANGUAGE</text><text class="cls-10" transform="translate(4 235.26)">LANGUAGE</text><path d="M446.3,236.37a.71.71,0,0,1-.71-.71v-2.83a.71.71,0,1,1,1.42,0v2.83A.71.71,0,0,1,446.3,236.37Zm0-5.67a.7.7,0,1,1,.71-.7A.7.7,0,0,1,446.3,230.7Zm0-2.83a.71.71,0,0,1-.71-.71v-5.67a.71.71,0,0,1,1.42,0v5.67A.71.71,0,0,1,446.3,227.87Zm0-8.5a.71.71,0,1,1,.71-.71A.71.71,0,0,1,446.3,219.37Zm0-2.84a.71.71,0,0,1-.71-.71v-.46a.72.72,0,0,1,.71-.71h5.2a.71.71,0,1,1,0,1.42H447A.72.72,0,0,1,446.3,216.53Zm30.71-.46a.71.71,0,0,1,0-1.42.71.71,0,0,1,0,1.42Zm-2.83,0h-5.67a.71.71,0,1,1,0-1.42h5.67a.71.71,0,0,1,0,1.42Zm-8.5,0a.71.71,0,1,1,.7-.71A.71.71,0,0,1,465.68,216.07Zm-2.84,0h-5.67a.71.71,0,0,1,0-1.42h5.67a.71.71,0,1,1,0,1.42Zm-8.5,0a.71.71,0,1,1,.71-.71A.71.71,0,0,1,454.34,216.07Z" transform="translate(-22.85 -62.64)"/><path d="M51.43,303.42H46.59a.71.71,0,0,1,0-1.42h4.84a.71.71,0,0,1,0,1.42Zm-7.68,0a.71.71,0,0,1,0-1.42.71.71,0,1,1,0,1.42Zm-2.83,0H35.25a.71.71,0,1,1,0-1.42h5.67a.71.71,0,1,1,0,1.42Zm-8.5,0a.71.71,0,1,1,.7-.71A.71.71,0,0,1,32.42,303.42Zm-2.84,0H28.13a.72.72,0,0,1-.71-.71v-4.22a.7.7,0,0,1,.71-.7.7.7,0,0,1,.7.7V302h.75a.71.71,0,1,1,0,1.42Zm-1.45-7a.71.71,0,1,1,0-1.42.71.71,0,0,1,0,1.42Zm0-2.84a.71.71,0,0,1-.71-.71v-5.66a.71.71,0,0,1,.71-.71.7.7,0,0,1,.7.71v5.66A.7.7,0,0,1,28.13,293.53Zm0-8.5a.71.71,0,0,1,0-1.42.71.71,0,0,1,0,1.42Zm0-2.84a.7.7,0,0,1-.71-.7v-5.67a.71.71,0,0,1,.71-.71.7.7,0,0,1,.7.71v5.67A.69.69,0,0,1,28.13,282.19Zm0-8.5a.71.71,0,0,1,0-1.42.71.71,0,0,1,0,1.42Zm0-2.83a.71.71,0,0,1-.71-.71v-5.67a.71.71,0,0,1,.71-.71.7.7,0,0,1,.7.71v5.67A.7.7,0,0,1,28.13,270.86Zm0-8.51a.71.71,0,0,1-.71-.71.7.7,0,0,1,.71-.7.7.7,0,0,1,.7.7A.7.7,0,0,1,28.13,262.35Zm0-2.83a.71.71,0,0,1-.71-.71v-5.67a.71.71,0,0,1,.71-.71.7.7,0,0,1,.7.71v5.67A.7.7,0,0,1,28.13,259.52Zm0-8.51a.7.7,0,0,1-.71-.7.71.71,0,0,1,.71-.71.7.7,0,0,1,.7.71A.7.7,0,0,1,28.13,251Zm0-2.83a.71.71,0,0,1-.71-.71V241.8a.71.71,0,0,1,.71-.71.7.7,0,0,1,.7.71v5.67A.7.7,0,0,1,28.13,248.18Zm0-8.5a.71.71,0,1,1,0-1.42.71.71,0,0,1,0,1.42Zm0-2.84a.71.71,0,0,1-.71-.71v-5.67a.7.7,0,0,1,.71-.7.7.7,0,0,1,.7.7v5.67A.7.7,0,0,1,28.13,236.84Zm0-8.5a.71.71,0,1,1,0-1.42.71.71,0,0,1,0,1.42Zm0-2.84a.71.71,0,0,1-.71-.71v-5.66a.71.71,0,0,1,.71-.71.7.7,0,0,1,.7.71v5.66A.7.7,0,0,1,28.13,225.5Zm0-8.5a.71.71,0,0,1,0-1.42.71.71,0,0,1,0,1.42Zm0-2.84a.7.7,0,0,1-.71-.7v-5.67a.71.71,0,0,1,.71-.71.7.7,0,0,1,.7.71v5.67A.7.7,0,0,1,28.13,214.16Zm0-8.5a.71.71,0,1,1,0-1.42.71.71,0,0,1,0,1.42Zm0-2.83a.71.71,0,0,1-.71-.71v-2.84a.7.7,0,0,1,.71-.7.7.7,0,0,1,.7.7v2.84A.7.7,0,0,1,28.13,202.83Z" transform="translate(-22.85 -62.64)"/><path d="M280.31,281.63h0a.71.71,0,0,1-.48-.24.68.68,0,0,1-.18-.51.7.7,0,0,1,.75-.67.72.72,0,0,1,.67.75A.71.71,0,0,1,280.31,281.63Zm-2.69-.79a.66.66,0,0,1-.36-.1,7.55,7.55,0,0,1-2.26-2.12,12.14,12.14,0,0,1-1.41-2.66.75.75,0,0,1,0-.55A.74.74,0,0,1,274,275a.72.72,0,0,1,.92.41,10.12,10.12,0,0,0,1.23,2.34l0,0a6,6,0,0,0,1.81,1.7.7.7,0,0,1,.25,1A.69.69,0,0,1,277.62,280.84Zm-4.14-7.16a.7.7,0,0,1-.69-.56s0,0,0,0a.71.71,0,0,1,1.39-.27h0a.65.65,0,0,1-.1.51.74.74,0,0,1-.45.31Zm-.26-2.82a.71.71,0,0,1-.71-.71v-5.67a.71.71,0,1,1,1.42,0v5.67A.71.71,0,0,1,273.22,270.86Zm0-8.51a.71.71,0,0,1-.71-.71.71.71,0,0,1,1.42,0A.71.71,0,0,1,273.22,262.35Zm0-2.83a.71.71,0,0,1-.71-.71v-5.67a.71.71,0,0,1,1.42,0v5.67A.71.71,0,0,1,273.22,259.52Zm0-8.5a.71.71,0,1,1,.71-.71A.71.71,0,0,1,273.22,251Zm0-2.84a.71.71,0,0,1-.71-.71V241.8a.71.71,0,1,1,1.42,0v5.67A.71.71,0,0,1,273.22,248.18Zm0-8.51a.7.7,0,0,1-.71-.7.71.71,0,0,1,1.42,0A.7.7,0,0,1,273.22,239.67Zm0-2.83a.71.71,0,0,1-.71-.71v-5.67a.71.71,0,1,1,1.42,0v5.67A.71.71,0,0,1,273.22,236.84Zm0-8.5a.71.71,0,1,1,.71-.71A.71.71,0,0,1,273.22,228.34Zm0-2.84a.71.71,0,0,1-.71-.71v-5.66a.71.71,0,1,1,1.42,0v5.66A.71.71,0,0,1,273.22,225.5Zm0-8.5a.71.71,0,1,1,.71-.71A.71.71,0,0,1,273.22,217Zm0-2.84a.7.7,0,0,1-.71-.7v-5.67a.71.71,0,1,1,1.42,0v5.67A.7.7,0,0,1,273.22,214.16Zm0-8.5a.71.71,0,1,1,.71-.71A.71.71,0,0,1,273.22,205.66Zm0-2.83a.71.71,0,0,1-.71-.71v-2.84a.71.71,0,1,1,1.42,0v2.84A.71.71,0,0,1,273.22,202.83Z" transform="translate(-22.85 -62.64)"/><path d="M76.44,275.29h-.12a.7.7,0,0,1-.46-.28.73.73,0,0,1-.12-.53l.47-2.8a.71.71,0,0,1,.82-.58.7.7,0,0,1,.46.29.71.71,0,0,1,.12.53l-.47,2.79A.71.71,0,0,1,76.44,275.29Zm.94-5.59h-.12a.71.71,0,1,1,.24-1.39.7.7,0,0,1,.46.29.69.69,0,0,1,.12.52A.71.71,0,0,1,77.38,269.7Zm.47-2.79h-.12a.69.69,0,0,1-.45-.29.71.71,0,0,1-.13-.53l.95-5.59a.71.71,0,0,1,.81-.58.67.67,0,0,1,.46.29.7.7,0,0,1,.12.53l-.94,5.59A.71.71,0,0,1,77.85,266.91Zm1.42-8.39h-.12a.7.7,0,0,1-.58-.82.71.71,0,1,1,1.39.24A.7.7,0,0,1,79.27,258.52Zm.47-2.79h-.12a.71.71,0,0,1-.58-.82l.94-5.59a.72.72,0,0,1,.82-.58.67.67,0,0,1,.46.29.71.71,0,0,1,.12.53l-.94,5.59A.71.71,0,0,1,79.74,255.73Zm1.41-8.39H81a.7.7,0,0,1-.59-.81.71.71,0,0,1,.82-.58.7.7,0,0,1,.46.28.71.71,0,0,1-.58,1.12Zm.48-2.79h-.12a.73.73,0,0,1-.59-.82l.95-5.59a.72.72,0,0,1,.82-.58.7.7,0,0,1,.45.28.74.74,0,0,1,.13.54l-1,5.59A.71.71,0,0,1,81.63,244.55ZM83,236.16h-.12a.67.67,0,0,1-.46-.29.7.7,0,0,1-.12-.53.71.71,0,0,1,.82-.58.73.73,0,0,1,.58.82A.71.71,0,0,1,83,236.16Zm.47-2.79h-.12a.72.72,0,0,1-.58-.82l.95-5.59a.71.71,0,0,1,1.27-.3.74.74,0,0,1,.12.54l-.94,5.58A.71.71,0,0,1,83.51,233.37ZM84.93,225h-.12a.67.67,0,0,1-.46-.29.66.66,0,0,1-.12-.53.71.71,0,0,1,.81-.58.71.71,0,0,1-.11,1.41Zm.47-2.79h-.12a.71.71,0,0,1-.58-.82l.94-5.59a.72.72,0,0,1,1.28-.3A.73.73,0,0,1,87,216l-.94,5.59A.72.72,0,0,1,85.4,222.19Zm1.41-8.39h-.12a.71.71,0,0,1-.58-.82.72.72,0,0,1,.82-.58.71.71,0,0,1-.12,1.41Zm.47-2.79h-.11a.73.73,0,0,1-.59-.82l1-5.59a.71.71,0,0,1,.81-.58.67.67,0,0,1,.46.29.65.65,0,0,1,.12.52L88,210.41A.71.71,0,0,1,87.28,211Zm1.42-8.39h-.12a.68.68,0,0,1-.46-.29.7.7,0,0,1-.12-.53.71.71,0,1,1,.7.83Zm.47-2.79H89a.73.73,0,0,1-.46-.3.69.69,0,0,1-.12-.52l.9-5.34a.71.71,0,0,1,.7-.59h.26a.71.71,0,0,1,.35,1.33l-.81,4.83A.71.71,0,0,1,89.17,199.83Zm23.39-5.34h-5.22a.71.71,0,0,1,0-1.42h5.22a.71.71,0,0,1,0,1.42Zm-8.06,0a.71.71,0,0,1,0-1.42.71.71,0,1,1,0,1.42Zm-2.83,0H96a.71.71,0,1,1,0-1.42h5.67a.71.71,0,1,1,0,1.42Zm-8.51,0a.71.71,0,1,1,.71-.71A.7.7,0,0,1,93.16,194.49Z" transform="translate(-22.85 -62.64)"/><path d="M189.4,301.54h-5.67a.71.71,0,1,1,0-1.41h5.67a.71.71,0,1,1,0,1.41Zm-8.51,0a.71.71,0,1,1,.71-.7A.7.7,0,0,1,180.89,301.54Zm-2.83,0h-2.84a.71.71,0,1,1,0-1.41h2.84a.71.71,0,1,1,0,1.41Zm13.91-.26a.71.71,0,1,1,.71-.71A.71.71,0,0,1,192,301.28Zm0-2.83a.71.71,0,0,1-.71-.71v-5.67a.71.71,0,0,1,1.42,0v5.67A.71.71,0,0,1,192,298.45Zm0-8.51a.71.71,0,1,1,.71-.71A.71.71,0,0,1,192,289.94Zm0-2.83a.71.71,0,0,1-.71-.71v-5.67a.71.71,0,1,1,1.42,0v5.67A.71.71,0,0,1,192,287.11Zm0-8.51a.7.7,0,0,1-.71-.7.71.71,0,0,1,1.42,0A.7.7,0,0,1,192,278.6Zm0-2.83a.71.71,0,0,1-.71-.71v-5.67a.71.71,0,0,1,1.42,0v5.67A.71.71,0,0,1,192,275.77Zm0-8.5a.71.71,0,1,1,.71-.71A.71.71,0,0,1,192,267.27Zm0-2.84a.71.71,0,0,1-.71-.71V258a.71.71,0,0,1,1.42,0v5.67A.71.71,0,0,1,192,264.43Zm0-8.5a.71.71,0,1,1,.71-.71A.71.71,0,0,1,192,255.93Zm0-2.84a.71.71,0,0,1-.71-.71v-5.67a.71.71,0,0,1,1.42,0v5.67A.71.71,0,0,1,192,253.09Zm0-8.5a.71.71,0,1,1,.71-.71A.71.71,0,0,1,192,244.59Zm0-2.84a.7.7,0,0,1-.71-.7v-5.67a.71.71,0,1,1,1.42,0V241A.7.7,0,0,1,192,241.75Zm0-8.5a.71.71,0,1,1,.71-.71A.71.71,0,0,1,192,233.25Zm0-2.83a.71.71,0,0,1-.71-.71V224a.71.71,0,1,1,1.42,0v5.67A.71.71,0,0,1,192,230.42Z" transform="translate(-22.85 -62.64)"/></g></svg>