<svg xmlns="http://www.w3.org/2000/svg" viewBox="0 0 990.32258 786.78621"><defs><style>.cls-1{isolation:isolate;}.cls-2{fill:#f6bd2a;}.cls-2,.cls-3,.cls-4{mix-blend-mode:multiply;}.cls-3{fill:#fad787;}.cls-4{fill:#f09b27;}</style></defs><title>lang</title><g class="cls-1"><g id="Layer_1" data-name="Layer 1"><path d="M164.72833,586.22545c-12.80546-2.25074-26.27734-2.34365-39.56729-2.38038-1.82-53.71046-1.47536-107.364-.88994-161.116.23764-21.81866-32.39672-21.58663-33.472,0-2.95389,59.29889-1.82948,118.92467.71628,178.22089.40885,9.52323,7.52664,17.0129,17.13913,17.27558,16.80641.45919,34.98068,2.8639,51.66037.8695,8.20328-.98065,15.25491-5.61129,16.30513-14.50921C177.51361,597.01658,172.972,587.67455,164.72833,586.22545Z" transform="translate(-44.67742 -125.56046)"/><path d="M287.42727,594.86677q-9.10283-53.56623-18.2054-107.13246c-2.79288-16.43356-4.37064-33.66389-8.986-49.73457-3.94379-13.73261-13.39113-32.475-31.44474-29.399-19.026,3.24186-19.87317,24.8623-22.65608,39.39145q-5.03863,26.30957-9.17591,52.7658Q192.76,527.61,189.41454,554.57955q-1.5352,12.391-2.71384,24.81c-.90112,9.6013-2.65789,19.16928.37432,28.55946,3.50916,10.86652,20.78961,14.45351,26.781,3.33429,3.36322-6.24148,5.05213-13.3313,6.081-20.62348a82.37945,82.37945,0,0,0,32.00076-1.44253q1.21779,7.16521,2.43535,14.33068c1.48047,8.71161,12.85167,13.55895,21.08341,11.404C285.18042,612.40624,288.91212,603.60415,287.42727,594.86677ZM231.675,558.91954c-2.81842.04037-5.64656-.05083-8.47374-.14009,1.58847-12.93583,3.2657-25.859,5.1937-38.75471,1.77063-11.84377,3.71759-23.66274,5.75771-35.46711q2.52461,14.85652,5.04922,29.71329l7.389,43.48044C241.64671,557.93159,236.57366,558.84949,231.675,558.91954Z" transform="translate(-44.67742 -125.56046)"/><path d="M398.52006,569.32516c-.57181-16.19179-1.84336-32.38383-2.78632-48.56006q-2.90913-49.899-5.818-99.798c-1.21828-20.89759-35.50481-21.03282-34.2785,0q1.753,30.0735,3.50648,60.147c-3.01541-11.76424-6.32539-23.48252-10.4674-34.90333C343.377,431.59823,335.84385,417.7929,321.133,410.052c-7.31407-3.84869-14.62011-2.13911-20.76988,2.55306-13.03386,9.945-9.15718,30.45535-8.98936,44.24877q.305,25.04618.72161,50.09088.417,25.04471.94613,50.08723.26485,12.52527.72625,25.04228c.34245,9.66842-.16466,19.57618,3.13119,28.83673,4.64913,13.06327,24.68159,14.0556,28.906,0,4.38694-14.59531,1.96448-31.66318,1.66872-46.724-.30451-15.503-.64307-31.00527-.91594-46.509q-.24264-13.79451-.42833-27.58951c2.09438,8.04738,4.04911,16.1288,5.95813,24.21631,7.36,31.17771,14.238,62.49065,25.88309,92.53885,5.01054,12.92926,23.23054,16.53133,31.32631,3.9005C397.35723,598.16846,399.03106,583.79083,398.52006,569.32516Z" transform="translate(-44.67742 -125.56046)"/><path d="M506.34179,514.87556c-8.93317-7.972-23.8398-5.29438-35.024-5.09008-22.02929.40277-22.10347,32.128,0,31.72374,2.80311-.05108,6.5472-.49641,10.12519-.68247.22013,1.122.459,2.24077.654,3.36687a81.41216,81.41216,0,0,1,.88483,9.86155c.20114,6.517-.33272,12.84316-2.78169,19.01-3.39679,8.55327-11.43322,17.59054-22.397,16.64053-10.94727-.94831-13.26879-12.77068-14.15506-20.99147-1.58386-14.69089-1.28176-29.7454-1.46566-44.49831-.19846-15.92742.01192-31.87259,1.24771-47.76522.84446-10.86069,1.0911-24.84284,8.54038-33.93046,5.85938-7.1482,16.60624-6.51389,23.76587-1.28541,10.44235,7.62563,9.397,22.37246,14.54034,32.68153,4.48981,8.99957,17.93932,6.96189,22.98246,0,10.15245-14.016,3.73073-34.32423-6.2337-46.9772-10.91322-13.85738-28.81314-22.58747-47.60883-21.09629-43.53419,3.4537-49.03579,47.13188-50.82783,79.12218-1.11465,19.90088-.80286,39.83848-.23811,59.75006.45409,16.02763-.03819,32.97851,6.55012,48.08968,16.02935,36.76517,66.28681,35.533,89.358,5.64365,12.27062-15.897,14.54229-36.47331,12.00235-55.35219C514.97825,533.55938,514.26175,521.9435,506.34179,514.87556Z" transform="translate(-44.67742 -125.56046)"/><path d="M638.38108,418.69937c-1.46417-8.58683-12.86288-13.35781-21.08319-11.23719-9.73409,2.511-13.44245,11.17955-11.97073,19.79144,5.41259,31.67241,4.10118,64.09711,1.21417,95.93807-1.347,14.858-2.48548,29.94265-4.898,44.68486-.9955,6.08339-2.49445,19.072-11.05259,19.79605-10.43286.88289-16.56343-10.77118-18.69864-18.39511-3.87618-13.84011-2.709-29.068-3.07721-43.25668-.86415-33.29249-1.55854-66.58937-2.92494-99.86679-.82646-20.12561-33.6853-20.31556-33.472,0,.33078,31.51214,1.28052,63.01236,2.08681,94.51671.706,27.58781-2.44607,60.7244,18.64123,82.851,19.01751,19.95488,53.2909,22.41552,70.82575-.42855,7.80489-10.16824,10.22564-22.52253,11.84621-34.68662,1.92532-14.45084,3.452-28.97367,4.80381-43.48093C643.934,489.3809,644.40412,454.0191,638.38108,418.69937Z" transform="translate(-44.67742 -125.56046)"/><path d="M769.70477,599.70974q-8.5647-42.71406-17.1294-85.42787c-5.40967-26.97879-9.89584-54.192-23.74641-78.948-6.045-10.80451-15.45606-27.84319-30.97779-28.19367-17.11113-.38647-23.91568,15.14693-28.09515,27.43239-9.11219,26.78348-10.48443,56.54906-13.98434,84.27258-2.03283,16.10254-4.00265,32.21942-5.461,48.37327-.69415,7.6896-2.05155,15.665-1.38684,23.38426.64113,7.44589,1.714,17.12429,8.16339,22.36638,2.83085,2.3011,7.34934,3.23,10.75124,1.24991,11.96733-6.96554,13.925-23.33464,15.20117-36.47672a208.23217,208.23217,0,0,0,22.70446,1.19056c8.33534.11285,16.96936.7063,24.747-1.79569q3.07989,15.39136,6.15952,30.78248c1.64318,8.21252,12.7376,12.85119,21.0834,10.7848C767.329,616.32887,771.35622,607.94536,769.70477,599.70974Zm-63.96066-51.10681c-6.52021.214-13.01561.31862-19.48936.77028,1.05654-9.06792,2.12306-18.13487,3.25743-27.19525q3.02516-24.16438,6.55158-48.27793c.97458-6.591,1.98615-13.18683,3.47951-19.70192.14615-.63748.32349-1.26888.47766-1.90514a111.17806,111.17806,0,0,1,7.29169,17.12187c4.92956,14.63908,7.59207,29.82736,10.59874,44.85341q3.42906,17.13633,6.85779,34.27291C718.63351,547.82974,712.41729,548.384,705.74411,548.60293Z" transform="translate(-44.67742 -125.56046)"/><path d="M872.38389,526.06557c-1.62518-7.01613-9.28073-11.40963-16.52695-11.69736q-10.02181-.3984-20.04364-.7963c-22.057-.87607-22.01226,30.99189,0,31.86626q3.02623.12041,6.05273.24055c2.225,10.679,3.4936,21.85465-.64234,31.9689-3.66311,8.95823-12.42312,17.04914-23.5044,13.14013-9.44512-3.3321-12.06146-13.77007-13.01609-22.13411-1.68769-14.78843.24638-30.209.91693-45.01029q1.19664-26.41355,2.393-52.82733c.35413-7.81778-.03916-16.00816,1.17013-23.75152.64793-4.14955,1.70107-7.15062,5.35883-9.71269,5.60254-3.9236,13.0572-4.41807,17.69638.57059,8.73979,9.3987,5.263,23.62018,14.19469,32.95734,4.12159,4.30862,11.96466,3.84942,16.15921,0,11.35709-10.42313,8.03205-31.31318,1.9044-43.559-6.90519-13.79949-20.77257-23.069-37.07889-24.38558a52.75524,52.75524,0,0,0-38.73014,13.32668c-13.53539,12.41679-13.80463,29.19864-14.55448,45.74966q-1.31594,29.05491-2.63235,58.11c-.7265,16.03953-2.61387,32.49157-1.07624,48.53209,1.44763,15.10436,5.72244,30.23669,17.56889,41.29852,12.75317,11.90823,32.28412,16.4552,49.62682,11.78321,18.10617-4.87775,30.8141-19.51075,36.65743-35.61645C881.35939,566.60136,876.908,545.59456,872.38389,526.06557Z" transform="translate(-44.67742 -125.56046)"/><path d="M967.22311,590.93952c-8.66658-2.341-17.80531-.71263-26.72049-.20309q-5.645.3225-11.29337.58543c-.87291.04037-1.74631.07345-2.61922.11188.35875-3.86645,1.0794-7.84648,1.176-10.92441q.363-11.57928.4339-23.16414c.00052-.07467-.00048-.14958,0-.22425,6.95557.30937,14.13514.77976,21.07417.3478,21.59806-1.34427,21.638-28.41159,0-29.75853-7.02172-.43682-14.29128.05083-21.32416.35972l-.04357.00219c-.14277-5.68524-.31983-11.36974-.5667-17.05206q-1.00547-23.14943-3.16087-46.24632c-.8717-9.28366-1.43839-19.10945-3.0215-28.656,8.60021-.2977,17.32762-1.19056,25.68413-1.33041a14.72129,14.72129,0,0,0,2.87581.8053q.35717.05946.71434.11845c11.19875,1.85478,20.95012-4.16609,21.548-14.535q.02809-.49434.05691-.98844c.296-5.1324-3.43424-10.67681-8.48881-13.10487-9.37292-4.50222-21.5056-2.29379-31.72763-1.94088-11.66209.40277-25.223-.65718-36.16685,3.2888-9.33495,3.3659-12.752,12.23122-8.93878,18.76432-.15176,9.23331,1.39948,18.507,2.25805,27.68777,1.02832,10.9947,2.05568,21.98623,2.81622,32.99869q2.224,32.20956,2.21527,64.49915-.00406,15.72079-.53751,31.43722c-.34613,10.124-3.76457,23.97844,5.30217,32.00685,9.19366,8.14077,22.46124,6.15926,34.206,5.56557,12.56394-.63505,26.62806.01581,37.98953-5.10443C983.46257,610.65312,979.44971,594.2417,967.22311,590.93952Z" transform="translate(-44.67742 -125.56046)"/><path class="cls-2" d="M260.00194,233.85613c-37.28372-30.5327-98.18493-34.665-142.02485-16.65708C70.325,236.77256,46.804,300.08529,84.82055,340.47564c17.7501,18.85844,44.36454,26.04628,69.23365,28.8861,20.31216,2.31958,42.67246,3.40385,63.30689-.89212,1.04681,9.55825-.81308,18.982-11.35564,23.0688-12.54011,4.86048-7.65384,21.90938,5.49893,19.9466,27.33462-4.079,53.53486-31.72714,48.90764-59.57665C301.945,323.79473,296.68636,263.89776,260.00194,233.85613Z" transform="translate(-44.67742 -125.56046)"/><path class="cls-2" d="M584.91433,739.72438c-11.74578-46.23075-61.5341-62.865-103.77582-69.40025-20.45053-3.16378-43.57-4.7717-65.99079-2.48545-1.587.01508-3.17427.053-4.76249.12672-21.5263,1.0006-43.96517,6.10576-62.74771,17.08635-11.83893-3.19613-29.24633-8.92174-23.49615-23.58053,5.04-12.84778-13.94592-18.62252-20.89346-8.80841-16.53838,23.36164-15.54532,55.53776,2.412,76.48351-10.01258,19.67858-13.01412,42.31956-4.44141,64.47142,16.63129,42.97479,60.145,62.3311,103.06876,68.32231,44.31954,6.18626,93.31374,7.01515,132.848-17.11749C573.11358,822.86041,595.66992,782.05732,584.91433,739.72438Z" transform="translate(-44.67742 -125.56046)"/><path class="cls-2" d="M958.22621,169.54279c-32.6037-40.25584-94.90708-48.27914-143.22927-42.14054-50.28156,6.38789-98.82237,36.198-110.2566,88.68165a90.84732,90.84732,0,0,0-1.67432,29.1388c-2.44386,44.10454,29.89036,81.80586,74.0917,93.51392,29.05611,7.69641,59.94853,5.5595,89.41471,1.72053.74011-.09631,1.488-.20114,2.23156-.30086-.85811,3.34255-1.63252,6.71089-2.46867,10.05052-.07783.31084-.091.59467-.14815.89724a44.44661,44.44661,0,0,1-12.42434,16.7833c-8.4088,7.06769,1.09351,17.44607,9.486,16.29589,28.20895-3.866,49.26925-26.83553,52.76187-54.06118a122.05749,122.05749,0,0,0,30.48089-14.59068C994.12576,283.1062,992.30722,211.623,958.22621,169.54279Z" transform="translate(-44.67742 -125.56046)"/><path class="cls-3" d="M857.70905,744.59484c-.8858-1.6821-1.86257-3.28467-2.83106-4.89453,17.205-20.84919,17.42564-51.54849-4.90232-71.56563-8.07072-7.23551-19.9342-2.03209-20.67188,8.56251a46.26338,46.26338,0,0,1-10.55252,26.98438c-18.75921-11.71681-40.744-18.748-62.62978-21.64792-3.33647-.44217-6.73642-.80383-10.17553-1.0811-81.40358-20.60768-161.863,71.91367-123.41254,150.02966,38.87339,78.97528,159.99919,79.46147,219.36715,25.14248C873.60826,827.11381,877.15268,781.51859,857.70905,744.59484Z" transform="translate(-44.67742 -125.56046)"/><path class="cls-4" d="M562.70942,317.41c-2.06688-20.2122-12.75291-37.05655-27.88672-49.51762a88.03474,88.03474,0,0,0-7.89537-38.6737c-12.14925-26.66236-36.50979-44.40832-63.70212-53.40206a13.55775,13.55775,0,0,0-5.16912-3.18009c-41.99827-14.29152-88.72957-18.14289-130.84555-1.801-37.317,14.47978-69.81056,42.08923-80.30909,82.01114-10.473,39.82389,2.98893,80.82787,36.88751,104.65041,30.27513,21.27628,70.93861,25.806,106.98069,24.74142,41.28176-1.21926,85.54875-12.45037,114.36481-43.97685a120.45355,120.45355,0,0,0,12.23076-15.85907c.16731.36677.33634.73257.49176,1.10615a15.67975,15.67975,0,0,0,2.62555,9.05309c2.07635,11.344.76,24.083-.251,34.23643-.736,7.3902,9.45489,13.36292,15.48454,8.88575C554.11139,362.02457,565.08493,340.64054,562.70942,317.41Z" transform="translate(-44.67742 -125.56046)"/><path class="cls-4" d="M324.927,742.14757c-16.05705-69.90809-98.585-100.55826-162.62546-84.27915a139.13792,139.13792,0,0,0-16.0286,5.15891,124.13692,124.13692,0,0,0-33.52769,12.0026,104.14275,104.14275,0,0,0-22.08862,15.70219c-7.68716-13.20944-8.54841-30.2435-9.73848-45.74894-.7423-9.6711-11.80462-12.09793-17.36969-4.70457-12.53549,16.65318-20.6072,34.51734-18.552,55.8644,1.42867,14.83853,7.11829,28.57065,16.93069,39.24868a96.447,96.447,0,0,0-3.52545,14.58c-5.25133,33.42578,8.05566,63.9057,35.48633,83.46242,26.01831,18.5498,59.65691,23.83422,90.7383,26.54148,36.82454,3.20781,75.9134-.37845,106.287-23.35337C320.57238,814.18772,333.26547,778.45063,324.927,742.14757Z" transform="translate(-44.67742 -125.56046)"/><path class="cls-3" d="M818.20548,250.0253c-6.79407-28.443-27.09893-53.88412-54.55418-64.54317-17.84446-6.9276-38.43827-6.03791-57.35728-.19944-19.10993.276-37.86671,8.4679-53.40059,20.82389-25.1814,20.03027-37.87206,53.1547-38.12793,84.89255a82.14821,82.14821,0,0,0,5.94332,31.6712c-13.486,12.3808-20.1524,32.27147-18.49678,50.3555.98477,10.75586,14.24626,15.07494,20.47606,5.54587,5.93721-9.08105,12.65637-17.24517,21.03623-23.78313,25.11694,22.2652,62.60718,32.11556,96.21,25.31881C797.941,368.37427,831.54748,305.88216,818.20548,250.0253Z" transform="translate(-44.67742 -125.56046)"/><path class="cls-2" d="M1031.64418,772.2145a97.07566,97.07566,0,0,0-33.11178-51.01924c7.87372-39.17036-24.51425-71.47442-60.18713-84.29545-10.9373-3.93114-17.70194,10.90252-10.72156,18.418,11.28562,12.15071,14.07506,27.00505,12.22465,41.91654a121.73613,121.73613,0,0,0-42.71454,2.726c-25.77534,1.00084-48.69939,8.40563-69.31926,26.39749-22.16621,19.341-35.49678,48.33022-34.5509,77.85307.89431,27.92417,12.47979,55.92545,34.60149,73.59309,27.2653,21.77561,65.93487,24.02344,99.46864,20.956,30.97876-2.83374,62.88807-12.15753,84.07193-36.37311C1032.70681,838.03725,1039.9484,803.35379,1031.64418,772.2145Z" transform="translate(-44.67742 -125.56046)"/><path d="M778.12062,217.90755a19.28737,19.28737,0,0,0,6.63573-9.98072c2.10117-7.64339-2.48469-19.06372-11.75718-17.32617-9.06647-3.50429-19.30962.54165-22.10542,10.37182-2.54577,8.9519,3.27591,17.65548,11.91115,20.11077-15.6876,9.09735-16.147,34.84886-13.7635,51.07738.153,1.04146,1.4598,1.11686,2.10263.51684a1.63166,1.63166,0,0,0,1.5583,2.01093,400.35331,400.35331,0,0,0,47.43274.28213,1.91442,1.91442,0,0,0,1.88567-1.9708,2.23939,2.23939,0,0,0,.27849-.99379C803.05442,254.85173,800.63294,220.17921,778.12062,217.90755Zm-16.10886-1.2983c-6.23831-2.87631-9.31965-9.307-6.779-15.825,2.94368-7.55218,9.39676-7.29729,16.00063-7.80513a1.52631,1.52631,0,0,0,1.6765,1.27787c8.94656-.925,10.0104,10.375,6.71649,16.186C776.09753,216.66811,768.6419,219.66626,762.01176,216.60925ZM752.70233,271.34a1.67459,1.67459,0,0,0-1.21829.5701c.00122-.02918.0156-.0518.0146-.082-.58665-17.29041-1.955-48.9981,22.91435-50.26721,22.3659-1.14119,24.07038,33.751,23.4879,49.40354A408.34,408.34,0,0,0,752.70233,271.34Z" transform="translate(-44.67742 -125.56046)"/><path d="M940.09061,263.00588c-1.62543-12.24387-3.97371-24.64851-8.08678-36.32592-1.83192-5.20123-4.41028-10.25191-9.24279-11.81532a13.521,13.521,0,0,0,4.72014-7.118c2.55428-9.37-4.15369-18.38343-13.27341-20.49141-9.51155-2.19821-19.96266,3.6439-21.11065,13.746-.90331,7.95325,5.2151,15.04939,12.84438,14.76191-5.11854,1.72491-8.50779,6.13811-10.19159,11.74138-3.46392,11.52686-2.439,26.872-2.00194,38.75519a1.698,1.698,0,0,0,2.44824,1.54638,1.40441,1.40441,0,0,0,.82549.39134c13.04624,1.54055,26.289.978,39.34693-.12647a2.36655,2.36655,0,0,0,2.02021-3.06577A1.83461,1.83461,0,0,0,940.09061,263.00588Zm-42.84929-62.487c1.60747-7.39093,9.6726-11.03751,16.64759-9.16691,6.017,1.61375,10.57174,6.95605,10.10427,13.30381a9.99,9.99,0,0,1-15.45994,7.77084,1.36321,1.36321,0,0,0-1.97081.40179C900.62644,212.08538,895.828,207.01792,897.24132,200.51888Zm.11748,65.04955c1.138-14.247-4.17214-43.09932,13.081-48.32025a1.10488,1.10488,0,0,0,.28237-.1486,12.72438,12.72438,0,0,0,8.30178-.16588c12.83125,2.295,15.56648,36.69951,16.92826,46.63207.00487.03672.02874.05813.03551.09315C923.1193,264.79354,910.2489,264.93582,897.3588,265.56843Z" transform="translate(-44.67742 -125.56046)"/><path d="M902.73174,166.03874c-.00535.87316.00125,1.74631-.00146,2.61947-14.94262-20.49215-38.61144-33.49267-64.488-32.48015-23.26532.91037-56.37683,14.75729-60.818,40.53774-.33884,1.96666,2.50779,2.84079,3.04753.84007,6.64737-24.64072,38.07681-37.454,61.44307-37.15626,22.96665.29259,43.93915,12.29032,57.15565,30.62609q-1.28967-.36848-2.57857-.737c-.48063-.16344-.96269-.3225-1.44354-.486-2.41345-.82086-3.99559,2.93419-1.73755,4.12207a23.952,23.952,0,0,0,6.87044,2.47548c1.42311.50565,2.84931,1.00158,4.26946,1.516a2.36658,2.36658,0,0,0,2.97262-2.26412q.04122-4.807.02991-9.61346C907.45456,163.00021,902.74147,162.99583,902.73174,166.03874Z" transform="translate(-44.67742 -125.56046)"/><path d="M917.18671,276.37074c-11.3104,23.81573-32,39.16356-58.34693,42.28794-23.12766,2.74278-56.99124-2.10408-68.7027-25.20134a52.78025,52.78025,0,0,1,5.76963,2.80018,2.33431,2.33431,0,0,0,2.3546-4.02819,45.46425,45.46425,0,0,0-12.543-5.3299,2.42529,2.42529,0,0,0-3.03609,2.31277l-.10678,9.819a2.40944,2.40944,0,0,0,4.71115.63772c.10993-.421.20576-.7856.29551-1.1278,13.2829,21.15175,43.81146,27.08871,67.28814,25.383,28.05162-2.03793,56.85989-18.0259,64.981-46.43C920.29359,275.94657,917.91,274.84722,917.18671,276.37074Z" transform="translate(-44.67742 -125.56046)"/><path d="M255.23509,700.483c-2.50174-10.9176-4.24878-18.991-16.63615-19.41833-16.7439-.57764-34.99649,2.93078-51.664,4.79919-.63648-6.19454-2.24612-12.30005-7.73921-15.44244-9.15354-5.23625-24.48117-1.65121-34.30818-1.28906-8.527.31424-22.67795-1.85673-29.76485,4.473-7.30313,6.52239-4.31592,19.87728-3.82924,28.19025.43659,7.45782-1.497,21.30255,5.11489,27.02865,5.88054,5.09227,17.46383,2.34584,24.103.896a1.31041,1.31041,0,0,0,.13743-.06251,15.48793,15.48793,0,0,1-7.352,11.67522c-1.21512.74571-1.19347,3.0631.43489,3.32626,10.79865,1.74558,21.948-4.8707,25.09869-15.31888a1.99858,1.99858,0,0,0,.40666.05375c4.01481-.27,9.98632.1739,15.55116-.324.33491,6.73716-1.31557,13.433,6.90546,16.069,4.27822,1.37175,8.86411.68953,13.22745.25465q11.11886-1.10835,22.22678-2.35557c5.91288,8.57783,17.57035,11.6475,27.40466,8.58a1.86164,1.86164,0,0,0,0-3.55877,17.56884,17.56884,0,0,1-10.86069-9.432c7.3632,1.0169,17.90868,1.88592,22.95789-3.95036C263.35714,726.92379,257.16505,708.90566,255.23509,700.483Zm-95.99815,24.60327c-.0698.00657-.11771.043-.18411.05448-.879-1.07648-2.82231-1.17815-3.14385.5453a19.13851,19.13851,0,0,1-16.874,15.61707,16.59921,16.59921,0,0,0,4.368-14.54132c-.23665-1.30243-2.05568-1.16793-2.4908-.12963a1.33206,1.33206,0,0,0-.84591-.20041c-6.56739.67347-18.93263,3.065-22.88663-4.17728-2.91692-5.34254-1.31411-16.53036-1.676-22.66847-.54506-9.24425-3.02491-20.08207,7.30265-24.97271,6.445-3.05216,19.62335-1.0726,26.73531-1.33746,6.9147-.25757,15.56842-2.0608,22.32844-.37626,11.68984,2.91327,10.75,15.21721,11.48965,25.1274.55211,7.39847,3.40287,16.46712-1.68719,22.1222C176.81534,725.54522,166.35911,724.4218,159.23694,725.08627Zm87.36269,9.54876c-4.41224,1.52547-10.07364,1.06749-14.6712,1.19786-.00876.00048-.01557.00535-.02433.00583-1.328-.52413-3.16257.44363-2.54431,2.13036a21.69512,21.69512,0,0,0,8.78044,11.10585c-7.01564.42611-13.54412-2.61193-18.59893-7.71733.2583-1.11662-.2989-2.37114-1.74947-2.22521-.106.0107-.2116.02384-.3174.03454a1.03788,1.03788,0,0,0-1.36859.14933c-8.14491.861-16.29006,1.98418-24.452,2.6005-6.35846.48035-11.036,1.06748-13.459-7.55656-.55648-1.98053-.37407-3.74776-.69195-5.62492,4.0705-.65134,7.6857-1.99828,9.79516-4.79481,3.817-5.06017,2.34339-14.46957,1.155-21.92568.02918.00511.04961.02092.07977.02457,14.77942,1.78255,29.80571.28773,44.30373-2.92349a1.46922,1.46922,0,0,0,1.1137.42563q.46772-.02079.93566-.04159a1.96223,1.96223,0,0,0,1.84944-1.40823q.11236-.47246.22473-.94515a1.97092,1.97092,0,0,0-2.39473-2.39473c-15.29381,3.31531-30.44416,4.29937-46.03253,4.74811a1.42083,1.42083,0,0,0-.45725.09632c-.21306-1.40216-.39353-2.70873-.48569-3.84091-.15154-1.85625-.23181-3.893-.35244-5.98731,8.59826-.64891,17.18121-1.4671,25.7678-2.25683q6.62928-.60963,13.25883-1.21925c7.88076-.72455,10.93412-2.07174,17.51586,2.82741,6.15708,4.583,6.28672,7.477,7.84137,14.66609,1.07989,4.99279,1.954,10.00771,2.60319,15.07469C255.1541,726.11533,254.683,731.84045,246.59963,734.635Z" transform="translate(-44.67742 -125.56046)"/><path d="M170.328,706.83709c-15.15421,1.56779-30.13941,2.48934-45.37828,2.6219a1.44942,1.44942,0,0,0,0,2.897,187.19409,187.19409,0,0,0,45.87809-1.82365C172.89805,710.18962,172.44055,706.61868,170.328,706.83709Z" transform="translate(-44.67742 -125.56046)"/><path d="M166.74583,687.55034c-13.94713,1.97883-27.74516,2.3777-41.79443,2.79531a1.36491,1.36491,0,0,0,0,2.72794c14.24165,1.73682,28.76691.68831,42.89962-1.51452C170.50088,691.14608,169.35387,687.18016,166.74583,687.55034Z" transform="translate(-44.67742 -125.56046)"/><path d="M235.35513,713.75836a200.50088,200.50088,0,0,1-42.78848,3.543c-2.1807-.04621-2.14835,3.23675,0,3.36712a178.14717,178.14717,0,0,0,43.89853-2.88312C239.099,717.29014,237.9887,713.24639,235.35513,713.75836Z" transform="translate(-44.67742 -125.56046)"/><path d="M150.19116,825.19239c-2.5324-15.23643-7.944-36.05935-24.86668-39.811a12.8427,12.8427,0,0,0,6.24051-7.55218c2.9945-9.95859-5.14846-18.22511-14.31974-20.02419-.05278-.01046-.09535.00608-.14691-.00025C109.61353,756.486,101.45111,760.602,98.981,768.1564A14.79152,14.79152,0,0,0,109.64977,787.404c.10046.02189.20674.03527.3084.0557-11.8552,7.372-13.97777,28.29144-12.48368,40.6557A1.2452,1.2452,0,0,0,98.98926,829.24a1.34052,1.34052,0,0,0,1.20368,1.35765,140.5644,140.5644,0,0,0,48.517-1.94989,1.99788,1.99788,0,0,0,1.4187-2.46137A2.20712,2.20712,0,0,0,150.19116,825.19239ZM109.8351,783.40378c-6.44869-1.84141-9.36562-9.21677-6.55935-15.173,2.2663-4.81014,7.21069-6.841,12.22732-7.29535a1.83051,1.83051,0,0,0,.76711.40666c6.6946,1.74242,14.15557,7.52762,11.52127,15.44682C125.50837,783.65259,115.94865,785.14911,109.8351,783.40378Zm-9.18953,43.84989a1.5359,1.5359,0,0,0-.69584.198c1.03-14.10231,3.51061-43.11367,24.27978-37.8565,15.63119,3.95644,19.30623,21.32882,21.61873,35.1558C130.69524,826.23044,115.88955,826.82268,100.64557,827.25367Z" transform="translate(-44.67742 -125.56046)"/><path d="M277.03454,775.74774a15.807,15.807,0,0,0,7.8078-11.71c.92448-8.98182-6.27723-17.23472-15.16979-17.86393a1.69523,1.69523,0,0,0-.57229.0827A15.99089,15.99089,0,0,0,252.51907,758.982c-1.50771,8.2563,4.16123,17.06835,12.30808,18.93725-14.0629,7.09809-15.58521,29.03811-13.53171,43.56921a1.30538,1.30538,0,0,0-.08.27581c-.56719,5.23334,2.781,7.13336,7.68547,7.06818,6.69655-.08878,13.71072-2.32055,20.40435-2.91717a203.31185,203.31185,0,0,1,21.60315-.54967,2.02951,2.02951,0,0,0,1.22218-.37675,1.859,1.859,0,0,0,2.09972-1.89126C303.33377,807.70935,296.42054,777.74165,277.03454,775.74774Zm-20.21609-15.89385c.942-5.92092,5.84211-9.33935,11.26418-10.29107a1.61128,1.61128,0,0,0,1.04487.63869c6.59317,1.0906,12.61332,6.88528,11.24765,14.12955-1.15627,6.13422-8.16534,10.63327-14.24459,9.38824C260.0338,772.47061,255.85822,765.8896,256.81845,759.85389Zm20.694,61.79626c-3.26351.34416-18.33941,3.782-22.73581,1.63127a1.5078,1.5078,0,0,0,.09848-.50492c-.091-8.599-1.21439-17.52464,1.33333-25.91592,2.95024-9.71634,11.65625-18.83874,22.50234-15.86418,15.24008,4.17922,18.27277,25.98791,21.08779,39.91874A155.37251,155.37251,0,0,0,277.51246,821.65015Z" transform="translate(-44.67742 -125.56046)"/><path d="M410.46768,743.25057c11.43225-7.06745,16.293-23.77414,10.32758-35.88083-6.8048-13.81044-26.17667-19.52705-38.95489-10.73494a1.37124,1.37124,0,0,0-.56306,1.0563,1.95071,1.95071,0,0,0-.91134,1.7052c-.09,12.64032,1.05219,25.24221,2.00074,37.83777.77,10.23.49882,21.16489,3.42717,31.032.27484.92594,1.79909,1.15018,2.15443.22474,6.93,1.31435,14.64225.55283,21.49226-1.01714,4.65158-1.06627,9.41137-2.97214,11.41063-7.66577C424.372,751.54141,418.13613,744.142,410.46768,743.25057Zm.28214,19.8802c-7.37488,2.26048-14.858,1.77355-22.41746,2.07612.727-9.2338-.789-18.78207-1.46977-27.97282-.93469-12.61308-1.81855-25.19234-2.17-37.83777a2.25406,2.25406,0,0,0-.1992-.87607c11.15571-3.86839,24.69764-1.59819,31.34578,9.16253,8.10356,13.116-.31837,27.50535-12.06535,34.2481a2.05948,2.05948,0,0,0,.73379,3.75311,1.05917,1.05917,0,0,0,1.00668.50395c4.30887-.27022,9.37779.78852,11.558,4.99158C419.98629,756.79663,415.96516,761.53234,410.74982,763.13077Z" transform="translate(-44.67742 -125.56046)"/><path d="M405.00645,749.45337c-2.60657-1.23409-5.39215-.6528-8.00311.23957-.03794-.10093-.05618-.207-.09631-.30718-.67929-1.6911-3.44955-.97288-2.77537.76516.179.46139.30938.924.44266,1.38659a1.55524,1.55524,0,0,0,.23446.879,21.18043,21.18043,0,0,1,.47647,5.47217.95767.95767,0,0,0,1.399.88191.88424.88424,0,0,0,.64623.72844c3.81343,1.04049,10.76413.94175,11.305-4.29864A5.8913,5.8913,0,0,0,405.00645,749.45337Zm.64064,6.26142c-1.27471,2.51343-5.803,2.08682-8.06659,1.93675a.81319.81319,0,0,0-.1846.02433,11.82659,11.82659,0,0,0,.29794-5.33744,9.32991,9.32991,0,0,1,5.37367-.6365C404.73553,752.1514,406.59321,753.84955,405.64709,755.71479Z" transform="translate(-44.67742 -125.56046)"/><path d="M393.80551,699.596a1.05859,1.05859,0,0,0-1.67165.68661c-.115.053-.22278.08318-.3388.13912-1.686.81333-.958,2.877.45506,3.363a234.20886,234.20886,0,0,0,3.45541,30.83161,1.21556,1.21556,0,0,0,.36215,2.15783C418.65515,742.22905,416.06974,691.82028,393.80551,699.596Zm5.38048,34.4422a233.64021,233.64021,0,0,0-4.35216-30.765C408.636,698.65084,414.232,730.51759,399.186,734.03818Z" transform="translate(-44.67742 -125.56046)"/><path d="M454.13151,754.09374a1.10424,1.10424,0,0,0-.17293-.14715,1.11566,1.11566,0,0,0-1.06457-1.19785,43.23734,43.23734,0,0,0-8.74468-.39863,1.00189,1.00189,0,0,0,.14277-.53581c-.58713-18.69938-.81138-37.35547-1.00352-56.06336a1.5296,1.5296,0,0,0-.48644-2.95924,109.45331,109.45331,0,0,0-11.10147.56427.9606.9606,0,0,0-.86292.60853,1.31674,1.31674,0,0,0-.91793,1.38829c.46285,22.50405,2.0569,45.07693,2.94927,67.57733a1.75822,1.75822,0,0,0,2.04158,1.69037,1.2375,1.2375,0,0,0,.8323.41323c3.49772.3658,7.01493.55648,10.53015.65693,2.56109.07321,5.594.51392,7.70614-1.2803C456.79865,762.01586,456.28983,756.71053,454.13151,754.09374Zm-6.54234,8.37694c-3.71881-.03162-7.43519-.00195-11.14841.22133-.18387-22.3192-.7693-45.13311-3.46878-67.29544,2.33173.1902,4.67368.38015,7.01466.44728-.09339,18.61523-1.15966,37.88957,2.01458,56.28055a.93919.93919,0,0,0,.27849.51806,1.35205,1.35205,0,0,0,.16466,2.52242c2.861.645,6.36844.28578,9.39531-.06008a31.77575,31.77575,0,0,0,.57643,3.631C452.76316,761.68654,450.02841,762.4916,447.58917,762.47068Z" transform="translate(-44.67742 -125.56046)"/><path d="M498.7237,761.21908c-1.60476-16.6043-2.26363-34.34564-6.10892-50.6104-2.03574-8.61115-7.40868-20.10372-17.7839-20.48266-8.20936-.29964-12.48758,6.90766-13.55336,14.16506-1.24966,8.5107-.06981,17.681.08707,26.24329.1992,10.85825.251,21.73353.89383,32.57573a1.63171,1.63171,0,0,0,3.0181.77976c2.59806.21671,5.19128.42466,7.80172.47184a1.43441,1.43441,0,0,0,1.01179-2.39813c1.37054-4.58808-1.96058-9.336-.25927-13.71753,1.86138-4.79409,6.32466-.27071,7.541,2.30522a17.25787,17.25787,0,0,1,1.12878,9.92138,1.679,1.679,0,0,0,1.77063,1.91194,1.06176,1.06176,0,0,0,.91742.61972,85.624,85.624,0,0,0,11.10148.49884,3.40364,3.40364,0,0,0,2.43364-2.28406Zm-13.17661-.37116c1.36229-6.25777-1.06017-18.041-9.19756-18.01253-3.06577.011-5.148,2.31277-5.83919,5.14116-1.147,4.691,1.99682,8.9485,1.27957,13.6076-.00048.00437.001.00778.00025.01216-2.09849.07758-4.19042.22327-6.28258.39693.21816-10.48394-.08221-20.97493-.25392-31.45887-.089-5.42937-.21136-10.8585-.28481-16.28811q-.06859-3.0755-.06081-6.15149-1.351-14.44608,17.14229-10.50218c8.40564,6.40346,8.16777,23.54041,9.2005,32.628,1.14189,10.04857,2.19892,20.11126,3.49454,30.14111C491.6869,760.33716,488.57808,760.57771,485.54709,760.84792Z" transform="translate(-44.67742 -125.56046)"/><path d="M482.92957,709.77177c-.851-2.93809-2.55939-5.86182-6.02428-5.73121-10.562.39815-5.96321,19.98187-4.52752,25.84806a.90963.90963,0,0,0,.33443.50225c-.30135.09-.61559.15712-.913.25149-.9495.30135-.83642,1.87375.24517,1.81076a51.49168,51.49168,0,0,0,8.51022-1.18885,1.09117,1.09117,0,0,0,.93153-1.0152c.493.037.9843.08635,1.47633.13231.50857,1.04074,2.18678.55089,2.29745-.63334C485.8353,723.59972,484.65253,715.72065,482.92957,709.77177Zm-3.06018,19.00729a46.98091,46.98091,0,0,0-5.44274,1.13972.9347.9347,0,0,0,.03867-.31278c-.2707-3.37247-.61778-6.73034-.7479-10.113-.0647-1.6804-.17025-3.408-.1435-5.08935.018-1.12075.6404-11.93036,5.87252-5.74677,1.93845,2.29064,2.01774,9.13213,2.3366,11.83186.333,2.817.42736,5.65921.87534,8.45452-.57083.04962-1.14094.10021-1.712.1435A1.3582,1.3582,0,0,0,479.86939,728.77906Z" transform="translate(-44.67742 -125.56046)"/><path d="M460.36326,827.07393c11.43225-7.06745,16.293-23.7739,10.32755-35.88083-6.805-13.81044-26.17665-19.527-38.95487-10.73494a1.37129,1.37129,0,0,0-.56305,1.05654,1.94943,1.94943,0,0,0-.91134,1.705c-.09,12.64056,1.05216,25.24245,2.00047,37.838.77027,10.23.49908,21.16464,3.42744,31.032.27483.92569,1.79909,1.15018,2.15443.22449,6.93,1.31436,14.64225.55308,21.49226-1.01714,4.65155-1.066,9.41134-2.97188,11.4106-7.66576C474.26758,835.365,468.0317,827.96532,460.36326,827.07393Zm.28213,19.88045c-7.37487,2.26047-14.858,1.7733-22.41746,2.07611.727-9.234-.789-18.78232-1.46977-27.97282-.93469-12.61307-1.81855-25.19234-2.17024-37.838a2.24872,2.24872,0,0,0-.199-.87583c11.15571-3.86839,24.69763-1.59819,31.34579,9.16229,8.10354,13.11629-.31839,27.50535-12.06537,34.24835a2.0593,2.0593,0,0,0,.73382,3.75286,1.05868,1.05868,0,0,0,1.00666.504c4.30886-.27,9.37778.78851,11.558,4.99157C469.88186,840.62,465.86073,845.3557,460.64539,846.95438Z" transform="translate(-44.67742 -125.56046)"/><path d="M454.902,833.277c-2.60658-1.2341-5.39216-.65305-8.00311.23932-.03792-.10069-.05619-.207-.09629-.30694-.67934-1.6911-3.44984-.97287-2.77539.76517.179.46114.30937.92374.44265,1.38659a1.5562,1.5562,0,0,0,.23422.87874,21.171,21.171,0,0,1,.47671,5.47242.95764.95764,0,0,0,1.399.88167.88487.88487,0,0,0,.64624.72868c3.81344,1.04025,10.76412.9415,11.305-4.29864A5.89123,5.89123,0,0,0,454.902,833.277Zm.64063,6.26142c-1.2747,2.51317-5.803,2.08681-8.06658,1.9365a.81344.81344,0,0,0-.18459.02432,11.83017,11.83017,0,0,0,.29793-5.33743,9.33166,9.33166,0,0,1,5.37367-.6365C454.63108,835.975,456.48879,837.67291,455.54266,839.5384Z" transform="translate(-44.67742 -125.56046)"/><path d="M443.70108,783.41959a1.05858,1.05858,0,0,0-1.67164.68636c-.115.053-.22279.08318-.33881.13912-1.686.81357-.958,2.87728.45507,3.363a234.21193,234.21193,0,0,0,3.45543,30.83186,1.2153,1.2153,0,0,0,.36213,2.15759C468.55073,826.05241,465.96531,775.64364,443.70108,783.41959Zm5.3805,34.44194a233.651,233.651,0,0,0-4.35217-30.765C458.53158,782.47444,464.12755,814.34094,449.08158,817.86153Z" transform="translate(-44.67742 -125.56046)"/><path d="M504.02711,837.9171a1.09011,1.09011,0,0,0-.173-.1469,1.11572,1.11572,0,0,0-1.06456-1.1981,43.25645,43.25645,0,0,0-8.74493-.39863.99894.99894,0,0,0,.143-.53557c-.58713-18.69962-.81137-37.35571-1.00352-56.0636a1.5296,1.5296,0,0,0-.48643-2.95924,109.45421,109.45421,0,0,0-11.10148.56451.96044.96044,0,0,0-.86293.60829,1.31684,1.31684,0,0,0-.91791,1.38853c.46284,22.50405,2.05692,45.07693,2.94927,67.57733a1.75818,1.75818,0,0,0,2.04157,1.69013,1.2369,1.2369,0,0,0,.83206.41322c3.498.366,7.01515.55673,10.53041.65694,2.5611.07345,5.594.51392,7.70612-1.2803C506.69422,845.83922,506.18541,840.53389,504.02711,837.9171Zm-6.54236,8.37718c-3.71882-.03186-7.43542-.00219-11.14842.22109-.18387-22.31921-.7693-45.13287-3.46878-67.29544,2.33149.19044,4.67369.38015,7.01467.44752-.0934,18.61523-1.15967,37.88933,2.01458,56.28055a.94084.94084,0,0,0,.27848.51806,1.35206,1.35206,0,0,0,.16466,2.52242c2.861.645,6.36844.28554,9.39529-.06008a31.79334,31.79334,0,0,0,.57643,3.63077C502.65874,845.51014,499.924,846.3152,497.48475,846.29428Z" transform="translate(-44.67742 -125.56046)"/><path d="M548.61927,845.04243c-1.60475-16.60429-2.26363-34.34563-6.10892-50.61015-2.03574-8.6114-7.40868-20.104-17.7839-20.48265-8.2096-.29989-12.48758,6.90765-13.55336,14.16481-1.24966,8.511-.0698,17.681.08707,26.24329.1992,10.85825.251,21.73353.89383,32.57573a1.63179,1.63179,0,0,0,3.0181.78c2.59806.21647,5.19126.42442,7.80175.4716a1.43438,1.43438,0,0,0,1.01179-2.39813c1.37051-4.58784-1.96061-9.336-.2593-13.71729,1.86136-4.79408,6.32466-.2707,7.541,2.305a17.25834,17.25834,0,0,1,1.1288,9.92138,1.6793,1.6793,0,0,0,1.77063,1.91218,1.06207,1.06207,0,0,0,.9174.61972,85.62342,85.62342,0,0,0,11.10147.4986,3.40216,3.40216,0,0,0,2.43364-2.28407Zm-13.17661-.37115c1.36227-6.25753-1.06019-18.041-9.19753-18.01253-3.0658.01095-5.148,2.31277-5.83922,5.14116-1.147,4.6912,1.99683,8.94874,1.27958,13.60784-.00049.00413.001.00754.00024.01192-2.09849.07758-4.19041.22351-6.28258.39717.21819-10.48418-.08221-20.97517-.25392-31.45911-.089-5.42937-.21133-10.8585-.28481-16.28787q-.069-3.07549-.06081-6.15173-1.35095-14.4461,17.1423-10.50194c8.40563,6.40346,8.16777,23.54041,9.20047,32.628,1.14191,10.04833,2.19894,20.11126,3.49457,30.14087C541.5825,844.16052,538.47365,844.40107,535.44266,844.67128Z" transform="translate(-44.67742 -125.56046)"/><path d="M532.82514,793.59537c-.851-2.93808-2.55939-5.86206-6.02428-5.73145-10.562.39815-5.96323,19.98211-4.52776,25.8483a.91221.91221,0,0,0,.33467.50225c-.30135.09-.61559.15688-.913.25149-.94953.30135-.83643,1.87351.24516,1.81052a51.44064,51.44064,0,0,0,8.51022-1.18885,1.09078,1.09078,0,0,0,.93153-1.0152c.493.037.98406.08634,1.47634.13231.50859,1.04074,2.1868.55089,2.29744-.63334C535.73088,807.42308,534.5481,799.54425,532.82514,793.59537Zm-3.06042,19.00705a47.03983,47.03983,0,0,0-5.4425,1.13972.93406.93406,0,0,0,.03867-.31254c-.27068-3.37271-.61777-6.73058-.7479-10.11327-.06469-1.6804-.17025-3.40774-.1435-5.08911.018-1.121.6404-11.93036,5.87252-5.747,1.93845,2.29088,2.01774,9.13213,2.33662,11.8321.33295,2.817.42731,5.65921.87532,8.45452-.57083.04938-1.14094.1-1.712.14326A1.35859,1.35859,0,0,0,529.76472,812.60242Z" transform="translate(-44.67742 -125.56046)"/><path d="M150.23372,300.57027c11.432-7.06745,16.29273-23.77389,10.32732-35.88083-6.80479-13.81044-26.17666-19.52705-38.95464-10.73494a1.36983,1.36983,0,0,0-.563,1.05654,1.94963,1.94963,0,0,0-.91159,1.705c-.09,12.64056,1.05218,25.24221,2.00074,37.83777.77,10.23026.49882,21.16488,3.42718,31.03226.27483.9257,1.79908,1.15019,2.15443.2245,6.93027,1.31435,14.64224.55307,21.49225-1.01714,4.65157-1.06628,9.41136-2.97189,11.41062-7.66577C164.138,308.86111,157.90216,301.46166,150.23372,300.57027Zm.28189,19.88045c-7.37463,2.26023-14.858,1.7733-22.41746,2.07587.727-9.2338-.789-18.78208-1.46977-27.97282-.93469-12.61308-1.81855-25.19234-2.17-37.83777a2.25423,2.25423,0,0,0-.19919-.87607c11.1557-3.86839,24.69763-1.59819,31.346,9.16253,8.10332,13.1163-.31861,27.50535-12.06559,34.2481a2.05953,2.05953,0,0,0,.73379,3.75311,1.059,1.059,0,0,0,1.00669.50395c4.30886-.27,9.37778.78851,11.558,4.99158C159.75208,314.11633,155.731,318.852,150.51561,320.45072Z" transform="translate(-44.67742 -125.56046)"/><path d="M144.77224,306.77307c-2.60657-1.23409-5.39191-.6528-8.0031.23957-.03795-.10093-.05619-.207-.09632-.30694-.67929-1.69134-3.44955-.97312-2.77537.76492.179.46139.30938.924.4429,1.38684a1.55288,1.55288,0,0,0,.23422.87875,21.16991,21.16991,0,0,1,.47647,5.47217.95767.95767,0,0,0,1.399.88191.88425.88425,0,0,0,.64623.72844c3.81343,1.04049,10.76413.94175,11.305-4.29864A5.89151,5.89151,0,0,0,144.77224,306.77307Zm.64064,6.26142c-1.27446,2.51343-5.803,2.08706-8.06659,1.93675a.817.817,0,0,0-.1846.02433,11.82322,11.82322,0,0,0,.29794-5.33744,9.33249,9.33249,0,0,1,5.37392-.6365C144.50131,309.4711,146.359,311.16925,145.41288,313.03449Z" transform="translate(-44.67742 -125.56046)"/><path d="M133.5713,256.91593a1.05859,1.05859,0,0,0-1.67164.68636c-.11505.053-.22279.08318-.33857.13912-1.68623.81357-.95828,2.87728.45482,3.363a234.20886,234.20886,0,0,0,3.45541,30.83161,1.21556,1.21556,0,0,0,.36215,2.15783C158.42094,299.54875,155.83553,249.14,133.5713,256.91593Zm5.38048,34.442a233.64754,233.64754,0,0,0-4.35215-30.765C148.4018,255.97078,153.99777,287.83729,138.95178,291.35788Z" transform="translate(-44.67742 -125.56046)"/><path d="M193.8973,311.41344a1.10371,1.10371,0,0,0-.17293-.14715,1.11566,1.11566,0,0,0-1.06457-1.19785,43.23734,43.23734,0,0,0-8.74468-.39863.999.999,0,0,0,.14277-.53581c-.58713-18.69938-.81138-37.35547-1.00352-56.06336a1.5296,1.5296,0,0,0-.48644-2.95924,109.38418,109.38418,0,0,0-11.10147.56451.96032.96032,0,0,0-.86292.60829,1.31673,1.31673,0,0,0-.91792,1.38829c.46284,22.50429,2.0569,45.07693,2.94926,67.57733a1.75822,1.75822,0,0,0,2.04158,1.69037,1.2375,1.2375,0,0,0,.8323.41323c3.49772.366,7.01492.55648,10.53015.65693,2.56109.07321,5.594.51392,7.70614-1.2803C196.56444,319.33556,196.05562,314.03023,193.8973,311.41344Zm-6.54234,8.37694c-3.71881-.03162-7.43519-.002-11.14841.22133-.18387-22.3192-.7693-45.13287-3.46878-67.29544,2.33173.1902,4.67369.38015,7.01466.44728-.09339,18.61523-1.15966,37.88957,2.01458,56.28055a.93925.93925,0,0,0,.27849.51806,1.35223,1.35223,0,0,0,.16466,2.52266c2.861.645,6.36844.28554,9.39531-.06032a31.73017,31.73017,0,0,0,.57665,3.631C192.5292,319.00648,189.7942,319.81129,187.355,319.79038Z" transform="translate(-44.67742 -125.56046)"/><path d="M238.48949,318.53877c-1.60451-16.60429-2.26363-34.34563-6.10892-50.61015-2.03574-8.61139-7.40868-20.104-17.7839-20.4829-8.20936-.29964-12.48734,6.90766-13.55336,14.16506-1.24966,8.5107-.06981,17.681.08731,26.24329.199,10.85825.25076,21.73353.89359,32.57573a1.63171,1.63171,0,0,0,3.0181.77976c2.59806.21671,5.19127.42466,7.80172.47184a1.43441,1.43441,0,0,0,1.01179-2.39813c1.37054-4.58808-1.96058-9.336-.25927-13.71753,1.86137-4.79384,6.32466-.27046,7.541,2.30522a17.258,17.258,0,0,1,1.12878,9.92138,1.679,1.679,0,0,0,1.77063,1.91194,1.06193,1.06193,0,0,0,.91742.62,85.62379,85.62379,0,0,0,11.10148.4986,3.40364,3.40364,0,0,0,2.43364-2.28407Zm-13.17661-.37115c1.36251-6.25777-1.06017-18.041-9.19756-18.01253-3.06577.011-5.148,2.31277-5.83919,5.14116-1.147,4.6912,1.99683,8.9485,1.27957,13.6076-.00048.00437.001.00778.00025.01216-2.09849.07758-4.19042.22327-6.28258.39717.21816-10.48418-.08221-20.97517-.25392-31.45911-.089-5.42937-.21136-10.8585-.28481-16.28787q-.0686-3.07585-.06081-6.15173-1.351-14.4461,17.14254-10.50218c8.40539,6.40346,8.16752,23.5404,9.20025,32.628,1.14189,10.04857,2.19892,20.11126,3.49479,30.14111C231.45269,317.65686,228.34387,317.89741,225.31288,318.16762Z" transform="translate(-44.67742 -125.56046)"/><path d="M222.69536,267.09147c-.85078-2.93809-2.55915-5.86182-6.02428-5.73121-10.562.39815-5.96322,19.98187-4.52752,25.84831a.90986.90986,0,0,0,.33443.502c-.30135.09-.61559.15712-.913.25149-.94951.30135-.83643,1.87375.24516,1.81076a51.488,51.488,0,0,0,8.51022-1.18885,1.091,1.091,0,0,0,.93153-1.0152c.49326.037.9843.08635,1.47658.13231.50857,1.04074,2.18653.55089,2.2972-.63334C225.60109,280.91942,224.41832,273.04059,222.69536,267.09147Zm-3.06018,19.00729a47.04375,47.04375,0,0,0-5.44274,1.13972.9347.9347,0,0,0,.03867-.31278c-.2707-3.37247-.61778-6.73034-.7479-10.113-.06445-1.6804-.17025-3.408-.1435-5.08911.018-1.121.6404-11.9306,5.87252-5.747,1.93845,2.29063,2.01774,9.13213,2.3366,11.8321.333,2.817.42758,5.659.87558,8.45428-.57107.04962-1.14118.10021-1.71225.1435A1.35824,1.35824,0,0,0,219.63518,286.09876Z" transform="translate(-44.67742 -125.56046)"/><path d="M476.84546,235.42489c-3.01592-9.23818-13.20118-15.1-22.63807-12.96356a1.20716,1.20716,0,0,0-.16514.07443c-5.74288-16.38054-13.40278-34.14012-30.64482-40.10189a1.166,1.166,0,0,0-1.49288,1.04438c-4.30813-1.11005-9.03822,2.06711-10.93656,5.82338a10.47092,10.47092,0,0,0,2.18945,12.38105,1.48256,1.48256,0,0,0,.87072.39134A197.01416,197.01416,0,0,1,369.9156,243.8709a8.27883,8.27883,0,0,0-3.20149-2.29112c-4.64134-1.7772-13.77079,1.83143-18.17767,2.80868q-11.63619,2.58043-23.123,5.79785c-8.043,2.2381-16.76,3.38925-20.49093,11.54535-.02576.05667-.01532.109-.03526.1649a1.094,1.094,0,0,0-.62848,1.23069q.59977,2.48958,1.19566,5.002a1.42193,1.42193,0,0,0-1.43791.18558c-9.44734,6.83857-15.63166,18.90733-11.5254,30.53828,3.62907,10.27867,14.65344,15.22428,24.55754,10.70381l.00608-.00413c1.83387,4.91983,3.38926,8.089,9.09906,8.54986a41.05587,41.05587,0,0,0,12.59045-1.29441c1.66508,7.48919,3.8431,14.81178,6.035,22.17036,2.18629,7.33936,3.53956,16.51795,7.07377,23.29864,4.02891,7.72876,10.483,8.86021,18.78669,6.8162,5.68232-1.399,11.12288-3.16184,10.26918-9.75112-.82622-6.37768-7.022-14.77067-9.17932-20.95061a141.07244,141.07244,0,0,1-6.48834-27.87772c-.33832-2.50637-4.19941-1.71153-3.85185.788a144.87344,144.87344,0,0,0,6.626,28.11607q2.1357,6.09482,4.83835,11.9666c2.89673,6.27237,6.44262,10.09966-2.96143,14.05634-14.67484,6.17435-18.09569-15.76835-20.93675-25.19113-2.43851-8.08726-4.831-16.1575-7.82408-24.05068,7.28683-1.98806,14.61258-5.04678,20.75334-7.208,7.29291-2.56718,17.97654-4.287,19.56258-13.23377,1.87374-10.5715-3.30828-24.87835-5.58578-35.15482-.85564-3.86134-1.81779-9.96273-4.25875-14.318a130.53723,130.53723,0,0,0,47.828-44.22688c10.3268,14.23437,16.47077,28.477,21.76148,45.68692,4.92493,16.01959,12.71012,33.38,12.0544,50.44938a2.20707,2.20707,0,0,0-.34586-.13036c-22.66773-3.78765-48.3144-5.595-70.85029.02481-1.43088.3568-1.43647,2.72842.18312,2.71577,23.05226-.17973,44.93245-1.37637,67.84657,1.47513-.49544,4.34072,2.87217,8.5484,6.75807,10.09016a11.78828,11.78828,0,0,0,12.92148-3.26034,1.904,1.904,0,0,0,.32688-.5487,1.66662,1.66662,0,0,0,1.35911-1.22193c3.41649-10.749.53021-21.31836-1.95743-32.02776-1.58286-6.815-3.3389-13.59106-5.21582-20.33333C474.639,255.604,479.82391,244.548,476.84546,235.42489ZM315.2561,306.03539c-10.82931,4.9174-20.44909-4.63988-20.11077-15.34223.25975-8.21812,5.2866-14.63325,10.72959-20.30487a1.48241,1.48241,0,0,0,.0878-.13085c2.84444,11.94958,5.79249,24.10224,9.80755,35.65877A1.96359,1.96359,0,0,0,315.2561,306.03539Zm55.22109-4.77316c-6.76975,4.3772-17.23642,6.347-24.97442,8.54451-7.56507,2.14835-18.775,7.01588-24.2973-1.15675-4.22884-6.259-5.38729-18.123-7.64752-25.37986-1.95523-6.27772-4.11939-12.45839-6.30739-18.6505a1.7585,1.7585,0,0,0,1.60987-.95974c4.00362-7.665,19.09923-9.41013,26.70346-11.35466,8.71721-2.2291,19.70241-6.80647,28.08494-3.346,6.47983,2.67492,6.41659,6.28623,7.84161,12.53768.81892,3.59331,1.44253,7.24646,2.13862,10.866C375.61713,282.70124,381.29239,294.26945,370.47719,301.26223Zm97.36455,4.70287a1.72869,1.72869,0,0,0-.54308.39815c-2.40083,2.65838-6.06711,3.95449-9.50233,2.49372-2.88117-1.22509-4.196-3.61326-5.24015-6.29231l.04159.00462a12.854,12.854,0,0,0,4.71334-1.05849c3.11563-20.06383-7.92236-42.27261-13.7691-61.1026-5.22725-16.83462-11.54826-32.80217-25.518-44.31127-1.15213-.94928-2.447.82427-1.62105,1.8791.21867.27922.40544.55746.62094.83668a2.13229,2.13229,0,0,0-.99329.719c-.20992.2763-.42711.53484-.63774.80968a1.65992,1.65992,0,0,0-.21792-.467c-1.83752-2.66179-2.59344-6.41684-.88191-9.33984,1.75725-3.00132,4.59245-3.42647,7.66333-4.11745a1.54119,1.54119,0,0,0,1.16575-1.49434c18.58336,11.30359,24.88151,32.52344,31.22927,52.15459q5.14444,15.90942,9.1764,32.14451C466.42427,280.88488,470.88,293.97223,467.84174,305.9651ZM463.76929,250.698a2.02717,2.02717,0,0,0-.68174.05789q-3.101-10.75585-6.69143-21.35946c-.4682-1.3754-.94707-2.781-1.43329-4.19747,5.9304-.10969,11.44709,1.95256,15.27729,6.68146C475.43211,238.29146,474.43637,251.96059,463.76929,250.698Z" transform="translate(-44.67742 -125.56046)"/><path d="M532.27425,216.482c-14.34819,3.64585-28.6852,7.65507-42.86339,11.915-1.33284.40034-.96315,2.47232.4412,2.15614,14.41921-3.2477,28.854-6.79456,43.11974-10.66149C535.118,219.3097,534.4569,215.92751,532.27425,216.482Z" transform="translate(-44.67742 -125.56046)"/><path d="M497.726,171.34285a265.59172,265.59172,0,0,0-23.57324,35.777c-.565,1.02638.87267,2.019,1.53836,1.01592,7.952-11.98314,16.33359-23.39982,25.2529-34.66814C502.48459,171.52138,499.25273,169.39954,497.726,171.34285Z" transform="translate(-44.67742 -125.56046)"/><path d="M528.00309,271.26485c-14.0972-3.7891-27.97185-8.65566-42.20111-11.9233a1.44012,1.44012,0,0,0-.925,2.72575c13.61,5.23042,27.822,8.93026,41.61447,13.65162C529.379,276.70736,530.9098,272.04607,528.00309,271.26485Z" transform="translate(-44.67742 -125.56046)"/><path d="M995.52622,849.03219c-.08367-13.36292-.40861-26.92892-16.40069-29.06268-10.10236-1.34767-21.09678.70047-31.20008,1.38294L907.439,824.0872c-.03891.00268-.06445.02359-.10215.02773.197-3.84723.09291-7.75235-.00048-11.60275a42.2255,42.2255,0,0,0-.60485-8.49052c12.06142-.09534,24.12263-.34634,36.18287-.53775,9.34665-.14861,19.62263.90574,28.81143-1.24115,15.46214-3.61277,15.50134-16.49484,15.854-29.98375.37817-14.46251,4.02791-40.43583-9.19248-50.975-12.05173-9.60713-33.09987-6.16316-47.11875-5.85038A655.72865,655.72865,0,0,0,861.29,720.76257c-16.63178,2.16465-24.97393,3.97638-27.043,21.93151-1.60184,13.90141-4.35678,35.72882,6.05274,47.23793,12.01354,13.28217,32.93086,9.04433,48.651,9.07449a145.10007,145.10007,0,0,0,.66062,24.17033c-11.91483-1.445-26.85843-3.963-37.98033.32227-10.84706,4.17971-11.87272,14.64419-11.12065,24.9591.7036,9.65553,1.7076,25.95872,8.79062,33.19958,8.37742,8.564,28.67478,2.8442,38.54407.45823,2.95462,16.20517,17.33249,28.18369,33.524,30.21578,1.88008.23592,2.646-2.39522,1.47852-3.56948a59.61956,59.61956,0,0,1-15.36679-26.29193,358.58606,358.58606,0,0,0,68.153-2.348C995.32021,877.44961,995.63765,866.86425,995.52622,849.03219Zm-16.29662,25.933c-7.64291,2.20842-16.79182,2.05568-24.71807,2.63624-15.98457,1.17086-32.03162,1.56171-48.05538,1.71567a1.398,1.398,0,0,0-1.28249.74522,2.03476,2.03476,0,0,0-2.007,2.55915,63.45329,63.45329,0,0,0,12.43528,24.32721c-12.95577-3.87472-22.22678-15.002-25.55815-28.24595a1.34279,1.34279,0,0,0-1.77063-.85394,2.23907,2.23907,0,0,0-1.633-.23982c-10.69432,2.393-27.28378,7.01881-35.73462-2.74375-4.84349-5.59524-5.43062-21.98818-5.74607-28.3841-.7749-15.72165,7.57508-19.97676,20.70861-20.04,8.17336-.03916,16.31729.378,24.49065.17974a1.796,1.796,0,0,0,3.16845-.72479,1.56447,1.56447,0,0,0,.07171-1.47561,145.10193,145.10193,0,0,0-2.15759-27.52457,1.008,1.008,0,0,0-1.19737-.86123,1.79183,1.79183,0,0,0-.96-.43634c-14.381-1.74339-32.77177,2.88822-44.16632-8.22638-10.39175-10.13687-7.75794-31.28278-6.10332-44.67781,2.5679-20.7857,31.53962-18.49823,47.86421-19.97773q22.144-2.00693,44.39007-2.51c11.97828-.26827,30.6706-3.139,41.55853,3.1042,13.59665,7.79638,10.286,33.33458,10.03131,46.63085-.18315,9.55558,1.156,22.48994-9.67013,26.78737-6.44894,2.56012-14.3015,1.73877-21.1413,1.848-15.22013.24249-30.4451.3979-45.66283.76541a2.354,2.354,0,0,0-1.9297,3.5668c-.97579,3.03658-.84081,6.44043-.9128,9.60324-.09024,3.97274-.21647,7.98949.00681,11.95517a1.82193,1.82193,0,0,0,1.74169,1.79933,1.99569,1.99569,0,0,0,2.14883,2.37285l47.63121-3.20465c6.79286-.457,13.7815-1.47123,20.5977-1.14629,14.39611.68685,15.21,13.62048,15.27608,24.7436C991.006,859.45265,993.41848,870.86569,979.2296,874.96514Z" transform="translate(-44.67742 -125.56046)"/><path d="M969.00468,766.0027c-37.44278,1.86281-75.85916,1.77379-113.048,6.518a.866.866,0,0,0,0,1.73074c37.44619.98868,75.63978-2.99572,113.048-4.9191C971.13625,769.22267,971.1506,765.89593,969.00468,766.0027Z" transform="translate(-44.67742 -125.56046)"/><path d="M958.91163,739.62564c-32.64143,2.43024-65.25313,5.22823-97.87632,7.88928-1.6247.13256-1.65218,2.66957,0,2.55842,32.62778-2.19724,65.26456-4.2573,97.87632-6.6856C961.31144,743.20922,961.33089,739.44541,958.91163,739.62564Z" transform="translate(-44.67742 -125.56046)"/><path d="M984.15773,857.89921c-41.39366,3.12974-82.78753,6.214-124.11183,10.17165-1.36224.13037-1.408,2.24053,0,2.16319,41.40992-2.2758,82.75757-5.4284,124.11183-8.535C986.58136,861.51685,986.60058,857.71437,984.15773,857.89921Z" transform="translate(-44.67742 -125.56046)"/><path d="M977.09049,836.407a742.35188,742.35188,0,0,0-116.313,9.405c-1.14021.18193-.88653,2.14981.27511,2.03233,38.69484-3.91655,77.17032-6.26263,116.03788-7.39311C979.68612,840.3758,979.70266,836.40647,977.09049,836.407Z" transform="translate(-44.67742 -125.56046)"/></g></g></svg>