<svg xmlns="http://www.w3.org/2000/svg" viewBox="0 0 500 500"><defs><style>.cls-1{fill:#fff}.cls-2{font-size:57.54px;font-family:PatuaOne-Regular,Patua One;letter-spacing:.11em}.cls-13,.cls-15,.cls-17,.cls-2,.cls-22,.cls-7,.cls-8{fill:#2c2c2c}.cls-3{letter-spacing:.1em}.cls-4{letter-spacing:.07em}.cls-5{letter-spacing:.1em}.cls-6{fill:#f4da39}.cls-13,.cls-15,.cls-17,.cls-22,.cls-8{font-size:12px;font-weight:700}.cls-8{font-family:Montserrat-SemiBold,Montserrat;letter-spacing:.01em}.cls-9{letter-spacing:-.01em}.cls-10{letter-spacing:.01em}.cls-11{fill:#fceda2}.cls-12{fill:#4f4f4f}.cls-13,.cls-15,.cls-17,.cls-22{font-family:MyriadPro-Bold,Myriad Pro}.cls-13{letter-spacing:.02em}.cls-14,.cls-22{letter-spacing:.09em}.cls-15{letter-spacing:.06em}.cls-16{letter-spacing:.01em}.cls-17{letter-spacing:.08em}.cls-18,.cls-19{letter-spacing:.1em}.cls-20{letter-spacing:.09em}.cls-21{letter-spacing:.07em}.cls-23{fill:none;stroke:#2c2c2c;stroke-miterlimit:10}</style></defs><title>language</title><g id="Background"><rect width="500" height="500" class="cls-1"/></g><g id="Objects"><text class="cls-2" transform="translate(65.46 294.28) scale(1.06 1)">L<tspan x="35.27" y="0" class="cls-3">ANG</tspan><tspan x="164.21" y="0" class="cls-4">U</tspan><tspan x="204.78" y="0" class="cls-5">AGE</tspan></text><path d="M83.84,231.45a9.41,9.41,0,0,0-.1-1.38l2.63-3.21-.76-1.31-.45-.78-.76-1.31-4.09.67a9.33,9.33,0,0,0-2.38-1.38l-1.46-3.88H72.53l-1.46,3.88a9.33,9.33,0,0,0-2.38,1.38l-4.09-.67-.76,1.31-.45.78-.76,1.31,2.63,3.21a9.37,9.37,0,0,0,0,2.76L62.62,236l.76,1.31.45.78.76,1.31,4.09-.67a9.33,9.33,0,0,0,2.38,1.38L72.53,244h3.93l1.46-3.88a9.33,9.33,0,0,0,2.38-1.38l4.09.67.76-1.31.45-.78.76-1.31-2.63-3.21A9.41,9.41,0,0,0,83.84,231.45Zm-9.35,4.72a4.72,4.72,0,1,1,4.72-4.72A4.72,4.72,0,0,1,74.49,236.17Z" class="cls-6"/><path d="M93.44,217.75a5.53,5.53,0,0,0-.06-.81l1.54-1.88-.44-.77-.26-.46-.44-.77-2.4.39a5.46,5.46,0,0,0-1.4-.81l-.86-2.27h-2.3L86,212.65a5.47,5.47,0,0,0-1.4.81l-2.4-.39-.44.77-.26.46-.44.77,1.54,1.88a5.5,5.5,0,0,0,0,1.62L81,220.44l.44.77.26.46.44.77,2.4-.39a5.47,5.47,0,0,0,1.4.81l.86,2.27h2.3l.86-2.27a5.46,5.46,0,0,0,1.4-.81l2.4.39.44-.77.26-.46.44-.77-1.54-1.88A5.54,5.54,0,0,0,93.44,217.75ZM88,220.52a2.77,2.77,0,1,1,2.77-2.77A2.77,2.77,0,0,1,88,220.52Z" class="cls-6"/><path d="M457.88,218.22l-2.63,3.21.76,1.31.45.78.76,1.31,4.09-.67a9.33,9.33,0,0,0,2.38,1.38l1.46,3.88h3.93l1.46-3.88a9.33,9.33,0,0,0,2.38-1.38l4.09.67.76-1.31.45-.78.76-1.31-2.63-3.21a9.37,9.37,0,0,0,0-2.76l2.63-3.21-.76-1.31-.45-.78-.76-1.31-4.09.67a9.33,9.33,0,0,0-2.38-1.38l-1.46-3.88h-3.93l-1.46,3.88a9.33,9.33,0,0,0-2.38,1.38l-4.09-.67-.76,1.31-.45.78-.76,1.31,2.63,3.21a9.37,9.37,0,0,0,0,2.76Zm4.53-1.38a4.72,4.72,0,1,1,4.72,4.72A4.72,4.72,0,0,1,462.41,216.84Z" class="cls-7"/><path d="M448.24,203.95l-1.54,1.88.44.77.26.46.44.77,2.4-.39a5.47,5.47,0,0,0,1.4.81l.86,2.27h2.3l.86-2.27a5.48,5.48,0,0,0,1.4-.81l2.4.39.44-.77.26-.46.44-.77-1.54-1.88a5.5,5.5,0,0,0,0-1.62l1.54-1.88-.44-.77-.26-.46-.44-.77-2.4.39a5.47,5.47,0,0,0-1.4-.81l-.86-2.27h-2.3l-.86,2.27a5.46,5.46,0,0,0-1.4.81l-2.4-.39-.44.77-.26.46-.44.77,1.54,1.88a5.5,5.5,0,0,0,0,1.62Zm2.65-.81a2.77,2.77,0,1,1,2.77,2.77A2.77,2.77,0,0,1,450.89,203.14Z" class="cls-7"/><path d="M241.71,187.66c3.08,0,5.59-3,5.59-6.78s-.82-6.78-5.59-6.78-5.59,3-5.59,6.78,2.5,6.78,5.59,6.78Zm0,0" class="cls-6"/><path d="M252.25,197.74c-.1-6.53-1-8.39-7.48-9.56a4.58,4.58,0,0,1-6.12,0c-6.45,1.16-7.36,3-7.48,9.35,0,.52,0,.55,0,.49,0,.11,0,.32,0,.69,0,0,1.55,3.13,10.55,3.13s10.55-3.13,10.55-3.13c0-.23,0-.4,0-.51s0,0,0-.45Zm0,0" class="cls-6"/><path d="M266.3,187.66c3.08,0,5.59-3,5.59-6.78s-.82-6.78-5.59-6.78-5.59,3-5.59,6.78,2.5,6.78,5.59,6.78Zm0,0" class="cls-6"/><path d="M276.84,197.74c-.1-6.53-1-8.39-7.48-9.56a4.58,4.58,0,0,1-6.12,0c-6.45,1.16-7.36,3-7.48,9.35,0,.52,0,.55,0,.49,0,.11,0,.32,0,.69,0,0,1.55,3.13,10.55,3.13s10.55-3.13,10.55-3.13c0-.23,0-.4,0-.51s0,0,0-.45Zm0,0" class="cls-6"/><path d="M291.33,187.66c3.08,0,5.59-3,5.59-6.78s-.82-6.78-5.59-6.78-5.59,3-5.59,6.78,2.5,6.78,5.59,6.78Zm0,0" class="cls-6"/><path d="M301.87,197.74c-.1-6.53-1-8.39-7.48-9.56a4.58,4.58,0,0,1-6.12,0c-6.45,1.16-7.36,3-7.48,9.35,0,.52,0,.55,0,.49,0,.11,0,.32,0,.69,0,0,1.55,3.13,10.55,3.13s10.55-3.13,10.55-3.13c0-.23,0-.4,0-.51a4.51,4.51,0,0,1,0-.45Zm0,0" class="cls-6"/><polygon points="197.71 134.27 183.23 147.72 177.27 139.61 173.07 142.7 182.49 155.52 201.25 138.09 197.71 134.27" class="cls-6"/><polygon points="337.78 313.52 323.3 326.97 317.35 318.86 313.14 321.95 322.56 334.77 341.33 317.34 337.78 313.52" class="cls-6"/><polygon points="337.78 309.95 323.3 323.39 317.35 315.29 313.14 318.37 322.56 331.19 341.33 313.76 337.78 309.95" class="cls-7"/><path d="M169.69,182.53a10.31,10.31,0,0,1-5.16-3.7c-1.25-2,.26-2.5-.25-8-.47-5.07-7.45-10.52-15.94-11.08a21.61,21.61,0,0,0-12,2.78c-10.56,5.77-14.74,18-6.59,29.76,7.35,10.62.45,15.42.45,15.42s.27,2.24,4.79,5.24,10.07,1,10.07,1,1.83-6.5,7.81-5.9c4.29.63,10.3-.21,11.83-1.68s-.25-3.1.89-6.95c-3.89-.38-6-2.23-6.23-4.85,4.32.42,6.1-1,7.33-2.46,0-.89-.12-2.77-.21-4,3.82-1.11,5.28-4.87,3.19-5.49" class="cls-6"/><path d="M171.58,186.95a10.31,10.31,0,0,1-5.16-3.7c-1.25-2,.26-2.5-.25-8-.47-5.07-7.45-10.52-15.94-11.08a21.61,21.61,0,0,0-12,2.78c-10.56,5.77-14.74,18-6.59,29.76,7.35,10.62.45,15.42.45,15.42s.27,2.24,4.79,5.24,10.07,1,10.07,1,1.83-6.5,7.81-5.9c4.29.63,10.3-.21,11.83-1.68s-.25-3.1.89-6.95c-3.89-.38-6-2.23-6.23-4.85,4.32.42,6.1-1,7.33-2.46,0-.89-.12-2.77-.21-4,3.82-1.11,5.28-4.87,3.19-5.49" class="cls-7"/><path d="M193,165a16,16,0,0,0-16,15.81v7.13a16.23,16.23,0,0,0,.6,4.42l-7,7.52,9.27-2.68A16.27,16.27,0,0,0,193,203.7a16,16,0,0,0,16-15.81v-7.13A16,16,0,0,0,193,165Z" class="cls-7"/><path d="M193.87,187.33l-2.2-2.18,0,0a15.19,15.19,0,0,0,3.22-5.66h2.54v-1.74h-6.07V176h-1.73v1.73h-6.07v1.73h9.69a13.69,13.69,0,0,1-2.75,4.65,13.67,13.67,0,0,1-2-2.9h-1.73a15.23,15.23,0,0,0,2.58,4L185,189.5l1.23,1.23,4.34-4.34,2.7,2.7.66-1.76Zm4.88-4.4H197l-3.9,10.41h1.73l1-2.6h4.12l1,2.6h1.73ZM196.48,189l1.41-3.76,1.41,3.76Z" class="cls-6"/><rect width="56.84" height="24.78" x="245.83" y="312.9" class="cls-6" rx="11.1" ry="11.1" transform="translate(548.5 650.58) rotate(180)"/><path d="M287.84,334.46" class="cls-7"/><polygon points="271.54 336.43 269.97 346.26 265.94 337.66 271.54 336.43" class="cls-6"/><text class="cls-8" transform="translate(253.8 329.8)">HEL<tspan x="25.2" y="0" class="cls-9">L</tspan><tspan x="32.32" y="0" class="cls-10">O</tspan></text><path d="M324.3,183.79,322.45,182l0,0a12.8,12.8,0,0,0,2.71-4.77h2.14v-1.47H322.2v-1.46h-1.46v1.46h-5.11v1.45h8.16a11.54,11.54,0,0,1-2.32,3.92,11.53,11.53,0,0,1-1.69-2.45h-1.46a12.83,12.83,0,0,0,2.18,3.33l-3.72,3.67,1,1,3.65-3.65,2.27,2.27.56-1.49Z" class="cls-7"/><rect width="17.87" height="1.49" x="319.68" y="180.21" class="cls-7" transform="translate(67.13 449.96) rotate(-74.65)"/><path d="M336.7,176h-2l-4.42,10h2l1.1-2h4.66l1.1,2h2Zm-2.58,6,1.59-5.29,1.59,5.29Z" class="cls-7"/><path d="M175.05,355.87l-2.2-2.18,0,0a15.19,15.19,0,0,0,3.22-5.66h2.54v-1.74h-6.07v-1.73h-1.73v1.73h-6.07V348h9.69a13.69,13.69,0,0,1-2.75,4.65,13.67,13.67,0,0,1-2-2.9H168a15.23,15.23,0,0,0,2.58,4L166.13,358l1.23,1.23,4.34-4.34,2.7,2.7.66-1.76Z" class="cls-7"/><rect width="21.21" height="1.77" x="169.57" y="351.63" class="cls-7" transform="translate(-207.46 432.98) rotate(-74.66)"/><path d="M189.77,347h-2.33l-5.24,13h2.33l1.31-5h5.53l1.31,5H195Zm-3.06,6,1.89-5,1.89,5Z" class="cls-7"/><path d="M424.65,325c0,9.72-8,17-17.67,17h-8a18.13,18.13,0,0,1-4.94-.48l-8.41,7.89,3-10.32a16.84,16.84,0,0,1-7.32-13.91c0-9.72,8-17.18,17.67-17.18h8C416.69,308,424.65,315.28,424.65,325Z" class="cls-6"/><path d="M391.37,325.91a1.75,1.75,0,1,1,3.49,0,1.75,1.75,0,1,1-3.49,0Z" class="cls-7"/><path d="M401.24,325.91a1.75,1.75,0,1,1,3.49,0,1.75,1.75,0,1,1-3.49,0Z" class="cls-7"/><path d="M411.11,325.91a1.75,1.75,0,1,1,3.49,0,1.75,1.75,0,1,1-3.49,0Z" class="cls-7"/><polygon points="420.47 215.25 387.19 215.25 387.19 181.93 394.87 171.3 420.47 171.3 420.47 215.25" class="cls-6"/><polygon points="387.19 182 395 182 395 171.3 387.19 182" class="cls-11"/><rect width="26" height="1" x="392" y="191" class="cls-11"/><polygon points="418.14 185 391.35 185 391.35 185 418.14 185 418.14 185" class="cls-11"/><rect width="26" height="1" x="392" y="196" class="cls-11"/><rect width="26" height="1" x="392" y="201" class="cls-11"/><rect width="26" height="1" x="392" y="206" class="cls-11"/><rect width="26" height="1" x="392" y="210" class="cls-11"/><polygon points="412.95 219.02 379.67 219.02 379.67 185.7 387.35 175.08 412.95 175.08 412.95 219.02" class="cls-7"/><polygon points="379.67 186 388 186 388 175.08 379.67 186" class="cls-12"/><polygon points="410.32 196 383.53 196 383.53 196 410.32 196 410.32 196" class="cls-12"/><rect width="25" height="1" x="385" y="190" class="cls-12"/><polygon points="410.32 200 383.53 200 383.53 200 410.32 200 410.32 200" class="cls-12"/><rect width="25" height="2" x="385" y="204" class="cls-12"/><rect width="25" height="1" x="385" y="209" class="cls-12"/><polygon points="410 213 385 213 385 213 410 213 410 213" class="cls-12"/><rect width="6" height="12.7" x="81.87" y="332.88" class="cls-6" transform="translate(-2.13 0.54) rotate(-0.36)"/><polygon points="84.41 334.96 84.66 339.47 84.45 343.63 111.2 355.93 111.1 339.3 110.99 321.98 84.41 334.96" class="cls-6"/><path d="M115.44,345.49a1.41,1.41,0,0,1-.36,0,1.39,1.39,0,0,1-1-1.69,19,19,0,0,0,.46-4.39,13.36,13.36,0,0,0-.89-4.92,1.39,1.39,0,0,1,2.6-1,16.11,16.11,0,0,1,1.06,5.86,21.66,21.66,0,0,1-.55,5.1A1.39,1.39,0,0,1,115.44,345.49Z" class="cls-6"/><path d="M119.24,350.8a1.39,1.39,0,0,1-1-2.31s1.93-2.39,1.89-8.78-2.07-9.29-2.09-9.31a1.39,1.39,0,0,1,2.19-1.69c.11.14,2.62,3.45,2.67,11s-2.33,10.35-2.6,10.65A1.38,1.38,0,0,1,119.24,350.8Z" class="cls-6"/><rect width="6" height="12.7" x="85.22" y="335.11" class="cls-7" transform="translate(-2.14 0.56) rotate(-0.36)"/><polygon points="87.76 337.2 88.01 341.7 87.8 345.86 114.55 358.16 114.44 341.53 114.34 324.21 87.76 337.2" class="cls-7"/><path d="M118.79,347.72a1.41,1.41,0,0,1-.36,0,1.39,1.39,0,0,1-1-1.69,19,19,0,0,0,.46-4.39,13.36,13.36,0,0,0-.89-4.92,1.39,1.39,0,0,1,2.6-1,16.11,16.11,0,0,1,1.06,5.86,21.66,21.66,0,0,1-.55,5.1A1.39,1.39,0,0,1,118.79,347.72Z" class="cls-7"/><path d="M122.59,353a1.39,1.39,0,0,1-1-2.31s1.93-2.39,1.89-8.78-2.07-9.29-2.09-9.31a1.39,1.39,0,0,1,2.19-1.69c.11.14,2.62,3.45,2.67,11s-2.33,10.35-2.6,10.65A1.38,1.38,0,0,1,122.59,353Z" class="cls-7"/><path d="M120.94,162h-2v-2a2.14,2.14,0,1,0-4.28,0v2h-2a2.14,2.14,0,0,0,0,4.28h2v2a2.14,2.14,0,0,0,2.13,2.15,2.21,2.21,0,0,0,.59-.08,2.14,2.14,0,0,0,1.56-2.05v-2h2a2.21,2.21,0,0,0,.59-.08,2.14,2.14,0,0,0-.57-4.2Z" class="cls-7"/><path d="M445.83,330.46h-2v-2a2.14,2.14,0,1,0-4.28,0v2h-2a2.14,2.14,0,0,0,0,4.28h2v2a2.14,2.14,0,0,0,2.13,2.15,2.21,2.21,0,0,0,.59-.08,2.14,2.14,0,0,0,1.56-2.05v-2h2a2.21,2.21,0,0,0,.59-.08,2.14,2.14,0,0,0-.57-4.2Z" class="cls-7"/><path d="M369.87,195.68h-2v-2a2.14,2.14,0,1,0-4.28,0v2h-2a2.14,2.14,0,0,0,0,4.28h2v2a2.14,2.14,0,0,0,2.13,2.15,2.21,2.21,0,0,0,.59-.08,2.14,2.14,0,0,0,1.56-2.05v-2h2a2.21,2.21,0,0,0,.59-.08,2.14,2.14,0,0,0-.57-4.2Z" class="cls-6"/><path d="M71.26,332.1h-2v-2A2.14,2.14,0,1,0,65,330v2h-2a2.14,2.14,0,0,0,0,4.28h2v2a2.14,2.14,0,0,0,2.13,2.15,2.21,2.21,0,0,0,.59-.08,2.14,2.14,0,0,0,1.56-2.05v-2h2a2.21,2.21,0,0,0,.59-.08,2.14,2.14,0,0,0-.57-4.2Z" class="cls-6"/><path d="M235.33,337h-2v-2a2.14,2.14,0,1,0-4.28,0v2h-2a2.14,2.14,0,0,0,0,4.28h2v2a2.14,2.14,0,0,0,2.13,2.15,2.21,2.21,0,0,0,.59-.08,2.14,2.14,0,0,0,1.56-2.05v-2h2a2.21,2.21,0,0,0,.59-.08,2.14,2.14,0,0,0-.57-4.2Z" class="cls-6"/><path d="M439.53,210h-2v-2a2.14,2.14,0,1,0-4.28,0v2h-2a2.14,2.14,0,0,0,0,4.28h2v2a2.14,2.14,0,0,0,2.13,2.15,2.21,2.21,0,0,0,.59-.08,2.14,2.14,0,0,0,1.56-2.05v-2h2a2.21,2.21,0,0,0,.59-.08,2.14,2.14,0,0,0-.57-4.2Z" class="cls-6"/><path d="M146.44,308.82c-.29-2-1.39-3.14-3.16-4.17a4.26,4.26,0,0,0-4.57.29c-1.3.88-2.09,2.45-2.43,2.4-.17,0-1.12-1.84-2.73-2.55a5.32,5.32,0,0,0-3.49-.21A5.77,5.77,0,0,0,126,309c-1.06,5.49,5.52,9.89,9.59,12.37a1.42,1.42,0,0,0,1.54.17l.19-.09C141.58,318.77,147.3,314.92,146.44,308.82Z" class="cls-7"/><path d="M38.63,234.92a.84.84,0,0,1-.84-.84V215.25c0-8.23,7.07-14.93,15.75-14.93h66.2a.84.84,0,1,1,0,1.67H53.54c-7.76,0-14.08,5.95-14.08,13.25v18.84A.84.84,0,0,1,38.63,234.92Z" class="cls-7"/><path d="M120.68,196H119a.84.84,0,0,1,0-1.67h1.67a.84.84,0,0,1,0,1.67Z" class="cls-7"/><path d="M46.07,228.86a.84.84,0,0,1-.84-.84v-3.28a.84.84,0,0,1,1.67,0V228A.84.84,0,0,1,46.07,228.86Zm0-7.66a.84.84,0,0,1-.84-.84v-3.28a.84.84,0,1,1,1.67,0v3.28A.84.84,0,0,1,46.07,221.19Zm0-7.66a.84.84,0,0,1-.84-.84v-3.28a.84.84,0,0,1,1.67,0v3.28A.84.84,0,0,1,46.07,213.53Zm.66-7.59a.84.84,0,0,1-.8-1.1,14.54,14.54,0,0,1,1.46-3.15.84.84,0,1,1,1.42.88,12.87,12.87,0,0,0-1.29,2.79A.84.84,0,0,1,46.72,205.94Zm4.21-6.28a.84.84,0,0,1-.55-1.47,15.72,15.72,0,0,1,2.86-2,.84.84,0,0,1,.79,1.48,14,14,0,0,0-2.55,1.75A.84.84,0,0,1,50.93,199.66Zm6.81-3.33a.84.84,0,0,1-.17-1.66,16.48,16.48,0,0,1,3.29-.33H61A.84.84,0,0,1,61,196h-.14a14.78,14.78,0,0,0-3,.3Zm56.89-.31h-3.28a.84.84,0,0,1,0-1.67h3.28a.84.84,0,1,1,0,1.67ZM107,196h-3.28a.84.84,0,0,1,0-1.67H107a.84.84,0,0,1,0,1.67Zm-7.66,0H96a.84.84,0,0,1,0-1.67h3.28a.84.84,0,0,1,0,1.67Zm-7.66,0H88.36a.84.84,0,0,1,0-1.67h3.28a.84.84,0,0,1,0,1.67ZM84,196H80.7a.84.84,0,0,1,0-1.67H84A.84.84,0,0,1,84,196Zm-7.66,0H73a.84.84,0,0,1,0-1.67h3.28a.84.84,0,0,1,0,1.67Zm-7.66,0H65.38a.84.84,0,0,1,0-1.67h3.28a.84.84,0,0,1,0,1.67Z" class="cls-7"/><path d="M46.07,234.92a.84.84,0,0,1-.84-.84v-1.67a.84.84,0,1,1,1.67,0v1.67A.84.84,0,0,1,46.07,234.92Z" class="cls-7"/><circle cx="119.74" cy="201.16" r="2.98" class="cls-7"/><circle cx="459.06" cy="307.2" r="2.98" class="cls-7"/><path d="M196.76,227.67H164.39a.84.84,0,0,1,0-1.67h32.37a.84.84,0,1,1,0,1.67Z" class="cls-7"/><circle cx="196.76" cy="226.83" r="2.98" class="cls-7"/><circle cx="164.39" cy="226.83" r="2.98" class="cls-7"/><circle cx="220.2" cy="210.09" r="2.98" class="cls-7"/><circle cx="312.84" cy="210.09" r="2.98" class="cls-7"/><path d="M309.86,211.2h-3.35a1.12,1.12,0,0,1,0-2.23h3.35a1.12,1.12,0,0,1,0,2.23Zm-7.81,0H298.7a1.12,1.12,0,0,1,0-2.23h3.35a1.12,1.12,0,0,1,0,2.23Zm-7.81,0h-3.35a1.12,1.12,0,0,1,0-2.23h3.35a1.12,1.12,0,0,1,0,2.23Zm-7.81,0h-3.35a1.12,1.12,0,0,1,0-2.23h3.35a1.12,1.12,0,1,1,0,2.23Zm-7.81,0h-3.35a1.12,1.12,0,0,1,0-2.23h3.35a1.12,1.12,0,1,1,0,2.23Zm-7.81,0h-3.35a1.12,1.12,0,0,1,0-2.23h3.35a1.12,1.12,0,0,1,0,2.23Zm-7.81,0h-3.35a1.12,1.12,0,0,1,0-2.23H263a1.12,1.12,0,0,1,0,2.23Zm-7.81,0h-3.35a1.12,1.12,0,0,1,0-2.23h3.35a1.12,1.12,0,0,1,0,2.23Zm-7.81,0H244a1.12,1.12,0,0,1,0-2.23h3.35a1.12,1.12,0,0,1,0,2.23Zm-7.81,0H236.2a1.12,1.12,0,1,1,0-2.23h3.35a1.12,1.12,0,0,1,0,2.23Zm-7.81,0h-3.35a1.12,1.12,0,0,1,0-2.23h3.35a1.12,1.12,0,0,1,0,2.23Zm-7.81,0h-3.35a1.12,1.12,0,0,1,0-2.23h3.35a1.12,1.12,0,1,1,0,2.23Z" class="cls-7"/><circle cx="288.28" cy="351.85" r="2.98" class="cls-7"/><circle cx="146.53" cy="336.22" r="2.98" class="cls-7"/><path d="M289.77,353.24h-72a8.66,8.66,0,0,1-8.65-8.65,7,7,0,0,0-7-7H146.9a.84.84,0,0,1,0-1.67h55.25a8.66,8.66,0,0,1,8.65,8.65,7,7,0,0,0,7,7h72a.84.84,0,0,1,0,1.67Z" class="cls-7"/><path d="M459.44,306.92a.84.84,0,0,1-.84-.84V252.32a25.79,25.79,0,0,0-25.77-25.77H377.77a27.47,27.47,0,0,1-27.44-27.44v-14.7a.84.84,0,1,1,1.67,0v14.7a25.79,25.79,0,0,0,25.77,25.77h55.07a27.47,27.47,0,0,1,27.44,27.44v53.76A.84.84,0,0,1,459.44,306.92Z" class="cls-7"/><circle cx="466.88" cy="317.24" r="2.98" class="cls-7"/><path d="M467.25,317a.84.84,0,0,1-.84-.84V262.36a.84.84,0,0,1,1.67,0v53.76A.84.84,0,0,1,467.25,317Z" class="cls-7"/><circle cx="25.98" cy="282.64" r="2.98" class="cls-7"/><path d="M26.35,282.36a.84.84,0,0,1-.84-.84V227.76a.84.84,0,0,1,1.67,0v53.76A.84.84,0,0,1,26.35,282.36Z" class="cls-7"/><circle cx="31.56" cy="258.08" r="2.98" class="cls-7"/><path d="M31.93,257.8a.84.84,0,0,1-.84-.84V203.2a.84.84,0,0,1,1.67,0V257A.84.84,0,0,1,31.93,257.8Z" class="cls-7"/><path d="M249.9,166.86c-.52,0-1,0-1.48,0a.84.84,0,0,1,.11-1.67c.45,0,.91.05,1.37,0,.61,0,1.23,0,1.85-.08a.84.84,0,0,1,.15,1.67C251.23,166.83,250.56,166.86,249.9,166.86Zm-5.81-.8a.84.84,0,0,1-.23,0,21.79,21.79,0,0,1-3.26-1.22.84.84,0,1,1,.71-1.52,20.23,20.23,0,0,0,3,1.12.84.84,0,0,1-.23,1.64Zm12.1-.15a.84.84,0,0,1-.25-1.64,20.23,20.23,0,0,0,3-1.2.84.84,0,0,1,.75,1.5,22,22,0,0,1-3.23,1.3A.83.83,0,0,1,256.19,165.9Zm-19.05-3.32a.83.83,0,0,1-.51-.17,22.09,22.09,0,0,1-2.6-2.31.84.84,0,0,1,1.21-1.16,20.44,20.44,0,0,0,2.4,2.14.84.84,0,0,1-.51,1.5Zm25.91-.33a.84.84,0,0,1-.52-1.49,20.45,20.45,0,0,0,2.35-2.19.84.84,0,1,1,1.24,1.13,22.15,22.15,0,0,1-2.54,2.38A.84.84,0,0,1,263,162.25Zm-31.14-5.41a.84.84,0,0,1-.71-.4,22,22,0,0,1-1.59-3.09.84.84,0,1,1,1.54-.65,20.36,20.36,0,0,0,1.47,2.85.84.84,0,0,1-.71,1.28Zm36.22-.46a.84.84,0,0,1-.72-1.26,20.29,20.29,0,0,0,1.4-2.89.84.84,0,1,1,1.56.61,21.91,21.91,0,0,1-1.51,3.13A.84.84,0,0,1,268.13,156.38Zm-39-6.78a.84.84,0,0,1-.82-.69,22.12,22.12,0,0,1-.36-3.46.84.84,0,0,1,.82-.86.82.82,0,0,1,.86.82,20.51,20.51,0,0,0,.33,3.2.84.84,0,0,1-.67,1Zm41.64-.53h-.13a.84.84,0,0,1-.7-1,20.5,20.5,0,0,0,.25-3.2.84.84,0,0,1,1.67,0,22.27,22.27,0,0,1-.27,3.47A.84.84,0,0,1,270.75,149.06Zm-41.63-7.23H229a.84.84,0,0,1-.67-1,21.92,21.92,0,0,1,.91-3.36.84.84,0,0,1,1.58.56,20.24,20.24,0,0,0-.84,3.1A.84.84,0,0,1,229.11,141.83Zm41.43-.49a.84.84,0,0,1-.82-.66,20.24,20.24,0,0,0-.91-3.08.84.84,0,0,1,1.56-.6,21.84,21.84,0,0,1,1,3.33.84.84,0,0,1-.65,1Zm-38.62-6.75a.84.84,0,0,1-.71-1.28,22.08,22.08,0,0,1,2.06-2.8.84.84,0,0,1,1.26,1.1,20.38,20.38,0,0,0-1.91,2.59A.84.84,0,0,1,231.93,134.59Zm35.64-.42a.83.83,0,0,1-.7-.38,20.34,20.34,0,0,0-2-2.54.84.84,0,0,1,1.24-1.13,22,22,0,0,1,2.13,2.75.84.84,0,0,1-.7,1.3Zm-30.4-5.31a.84.84,0,0,1-.5-1.51,22,22,0,0,1,2.93-1.87.84.84,0,1,1,.79,1.48,20.41,20.41,0,0,0-2.71,1.73A.83.83,0,0,1,237.17,128.86Zm25-.3a.84.84,0,0,1-.49-.16,20.27,20.27,0,0,0-2.75-1.66.84.84,0,0,1,.75-1.5,21.93,21.93,0,0,1,3,1.8.84.84,0,0,1-.49,1.52Zm-18.07-3.16a.84.84,0,0,1-.23-1.64,22,22,0,0,1,3.41-.68.84.84,0,0,1,.19,1.66,20.23,20.23,0,0,0-3.15.62A.83.83,0,0,1,244.12,125.4Zm11-.13-.21,0a20.28,20.28,0,0,0-3.16-.55.84.84,0,1,1,.15-1.67,22,22,0,0,1,3.42.59.84.84,0,0,1-.21,1.65Z" class="cls-7"/><path d="M272.22,166.86c-.48,0-1,0-1.48,0a.84.84,0,0,1,.11-1.67c.45,0,.89.05,1.37,0s1.24,0,1.85-.08a.83.83,0,0,1,.91.76.84.84,0,0,1-.76.91C273.56,166.83,272.88,166.86,272.22,166.86Zm-5.81-.8a.83.83,0,0,1-.23,0,21.7,21.7,0,0,1-3.26-1.22.84.84,0,1,1,.71-1.52,20.24,20.24,0,0,0,3,1.12.84.84,0,0,1-.23,1.64Zm12.1-.15a.84.84,0,0,1-.25-1.64,20.23,20.23,0,0,0,3-1.2.84.84,0,0,1,.75,1.5,22,22,0,0,1-3.23,1.3A.83.83,0,0,1,278.51,165.9Zm-19.05-3.32a.83.83,0,0,1-.5-.17,22.28,22.28,0,0,1-2.6-2.31.84.84,0,0,1,1.21-1.16,20.53,20.53,0,0,0,2.4,2.14.84.84,0,0,1-.51,1.5Zm25.91-.33a.84.84,0,0,1-.52-1.49,20.44,20.44,0,0,0,2.35-2.19.84.84,0,1,1,1.24,1.13,22.15,22.15,0,0,1-2.54,2.38A.84.84,0,0,1,285.37,162.25Zm-31.14-5.41a.84.84,0,0,1-.71-.4,22.09,22.09,0,0,1-1.59-3.09.84.84,0,0,1,1.55-.65,20.41,20.41,0,0,0,1.47,2.85.84.84,0,0,1-.71,1.28Zm36.22-.46a.84.84,0,0,1-.72-1.26,20.29,20.29,0,0,0,1.4-2.89.84.84,0,1,1,1.56.61,21.92,21.92,0,0,1-1.51,3.13A.84.84,0,0,1,290.45,156.38Zm-39-6.78a.84.84,0,0,1-.82-.68,22.06,22.06,0,0,1-.36-3.46.84.84,0,0,1,1.67,0,20.29,20.29,0,0,0,.33,3.19.84.84,0,0,1-.67,1Zm41.64-.53h-.13a.84.84,0,0,1-.7-1,20.5,20.5,0,0,0,.25-3.2.84.84,0,0,1,1.67,0,22.27,22.27,0,0,1-.27,3.47A.84.84,0,0,1,293.07,149.06Zm-41.63-7.24h-.15a.84.84,0,0,1-.67-1,21.92,21.92,0,0,1,.91-3.36.84.84,0,0,1,1.58.56,20.16,20.16,0,0,0-.84,3.1A.84.84,0,0,1,251.44,141.83Zm41.43-.49a.84.84,0,0,1-.82-.66,20.23,20.23,0,0,0-.91-3.08.84.84,0,0,1,1.56-.6,21.84,21.84,0,0,1,1,3.33.84.84,0,0,1-.65,1Zm-38.62-6.75a.84.84,0,0,1-.71-1.28,22,22,0,0,1,2.06-2.8.84.84,0,0,1,1.26,1.1,20.32,20.32,0,0,0-1.91,2.59A.84.84,0,0,1,254.25,134.59Zm35.64-.42a.83.83,0,0,1-.7-.38,20.35,20.35,0,0,0-2-2.54.84.84,0,1,1,1.24-1.13,22,22,0,0,1,2.13,2.75.84.84,0,0,1-.7,1.3Zm-30.4-5.31a.84.84,0,0,1-.5-1.51,22.05,22.05,0,0,1,2.93-1.87.84.84,0,0,1,.78,1.48,20.43,20.43,0,0,0-2.71,1.72A.83.83,0,0,1,259.49,128.86Zm25-.3a.84.84,0,0,1-.49-.16,20.27,20.27,0,0,0-2.75-1.66.84.84,0,0,1,.75-1.5,21.93,21.93,0,0,1,3,1.8.84.84,0,0,1-.49,1.52Zm-18.06-3.16a.84.84,0,0,1-.23-1.64,22,22,0,0,1,3.41-.68.84.84,0,1,1,.19,1.66,20.26,20.26,0,0,0-3.15.62A.83.83,0,0,1,266.45,125.4Zm11-.13-.21,0a20.28,20.28,0,0,0-3.16-.55.84.84,0,1,1,.15-1.67,22,22,0,0,1,3.42.59.84.84,0,0,1-.21,1.65Z" class="cls-7"/><path d="M87.84,357.32h-.62c-.46,0-.84-.7-.83-1.16s.38-1.15.84-1.15h0l.61.32c.88,0,1.78.15,2.7.12a.91.91,0,0,1,.86.89.87.87,0,0,1-.81.9C89.66,357.27,88.74,357.32,87.84,357.32Zm-5.07-.17H82.7c-1.14-.08-2.27-.18-3.37-.31a.84.84,0,0,1-.73-.93.85.85,0,0,1,.93-.73c1.07.13,2.18.23,3.29.31a.84.84,0,0,1-.06,1.67ZM95,357a.84.84,0,0,1-.07-1.67q1.36-.11,2.76-.26a.84.84,0,0,1,.18,1.67q-1.43.15-2.8.26Zm-20-.87-.16,0c-1.13-.22-2.24-.48-3.31-.77a.84.84,0,1,1,.43-1.62c1,.27,2.11.52,3.2.74a.84.84,0,0,1-.16,1.66ZM67.53,354a.85.85,0,0,1-.29-.05c-1.08-.41-2.14-.85-3.14-1.33a.84.84,0,1,1,.72-1.51c1,.46,2,.89,3,1.27a.84.84,0,0,1-.29,1.62Zm-7-3.44a.84.84,0,0,1-.45-.13c-1-.61-1.92-1.28-2.8-2a.84.84,0,0,1,1-1.32c.84.66,1.74,1.29,2.67,1.87a.84.84,0,0,1-.45,1.55Zm-6.06-4.89a.84.84,0,0,1-.6-.25,32.72,32.72,0,0,1-2.26-2.59.84.84,0,1,1,1.32-1,30.88,30.88,0,0,0,2.14,2.45.84.84,0,0,1-.6,1.42Zm-4.7-6.22a.84.84,0,0,1-.73-.42A32.88,32.88,0,0,1,47.5,336a.84.84,0,0,1,1.53-.68,31,31,0,0,0,1.48,2.91.84.84,0,0,1-.72,1.26Zm-3-7.19a.84.84,0,0,1-.81-.61,21.48,21.48,0,0,1-.71-3.44.84.84,0,0,1,1.67-.15,20.37,20.37,0,0,0,.65,3.15.84.84,0,0,1-.81,1.06Z" class="cls-7"/><path d="M160.29,327.59a.82.82,0,0,1-.33-.07.84.84,0,0,1-.45-1.1l1.3-3.08a.84.84,0,0,1,1.54.65l-1.3,3.08A.84.84,0,0,1,160.29,327.59Zm3-7.2a.82.82,0,0,1-.33-.07.84.84,0,0,1-.45-1.1l1.3-3.08a.84.84,0,0,1,1.54.65l-1.3,3.08A.84.84,0,0,1,163.33,320.39Zm3-7.2a.82.82,0,0,1-.33-.07.84.84,0,0,1-.45-1.1l1.3-3.08a.84.84,0,0,1,1.54.65l-1.3,3.08A.84.84,0,0,1,166.37,313.2Z" class="cls-7"/><path d="M171.45,327.59a.82.82,0,0,1-.33-.07.84.84,0,0,1-.45-1.1l1.3-3.08a.84.84,0,0,1,1.54.65l-1.3,3.08A.84.84,0,0,1,171.45,327.59Zm3-7.2a.82.82,0,0,1-.33-.07.84.84,0,0,1-.45-1.1l1.3-3.08a.84.84,0,0,1,1.54.65l-1.3,3.08A.84.84,0,0,1,174.5,320.39Zm3-7.2a.82.82,0,0,1-.33-.07.84.84,0,0,1-.45-1.1l1.3-3.08a.84.84,0,0,1,1.54.65l-1.3,3.08A.84.84,0,0,1,177.54,313.2Z" class="cls-7"/><path d="M182.62,327.59a.82.82,0,0,1-.33-.07.84.84,0,0,1-.45-1.1l1.3-3.08a.84.84,0,0,1,1.54.65l-1.3,3.08A.84.84,0,0,1,182.62,327.59Zm3-7.2a.82.82,0,0,1-.33-.07.84.84,0,0,1-.45-1.1l1.3-3.08a.84.84,0,0,1,1.54.65l-1.3,3.08A.84.84,0,0,1,185.66,320.39Zm3-7.2a.82.82,0,0,1-.33-.07.84.84,0,0,1-.45-1.1l1.3-3.08a.84.84,0,0,1,1.54.65l-1.3,3.08A.84.84,0,0,1,188.7,313.2Z" class="cls-7"/><path d="M193.78,327.59a.82.82,0,0,1-.33-.07.84.84,0,0,1-.45-1.1l1.3-3.08a.84.84,0,0,1,1.54.65l-1.3,3.08A.84.84,0,0,1,193.78,327.59Zm3-7.2a.82.82,0,0,1-.33-.07.84.84,0,0,1-.45-1.1l1.3-3.08a.84.84,0,0,1,1.54.65l-1.3,3.08A.84.84,0,0,1,196.82,320.39Zm3-7.2a.82.82,0,0,1-.33-.07.84.84,0,0,1-.45-1.1l1.3-3.08a.84.84,0,0,1,1.54.65l-1.3,3.08A.84.84,0,0,1,199.86,313.2Z" class="cls-7"/><path d="M204.94,327.59a.82.82,0,0,1-.33-.07.84.84,0,0,1-.45-1.1l1.3-3.08A.84.84,0,0,1,207,324l-1.3,3.08A.84.84,0,0,1,204.94,327.59Zm3-7.2a.82.82,0,0,1-.33-.07.84.84,0,0,1-.45-1.1l1.3-3.08a.84.84,0,0,1,1.54.65l-1.3,3.08A.84.84,0,0,1,208,320.39Zm3-7.2a.82.82,0,0,1-.33-.07.84.84,0,0,1-.45-1.1l1.3-3.08a.84.84,0,0,1,1.54.65l-1.3,3.08A.84.84,0,0,1,211,313.2Z" class="cls-7"/><path d="M216.1,327.59a.82.82,0,0,1-.33-.07.84.84,0,0,1-.45-1.1l1.3-3.08a.84.84,0,0,1,1.54.65l-1.3,3.08A.84.84,0,0,1,216.1,327.59Zm3-7.2a.82.82,0,0,1-.33-.07.84.84,0,0,1-.45-1.1l1.3-3.08a.84.84,0,0,1,1.54.65l-1.3,3.08A.84.84,0,0,1,219.14,320.39Zm3-7.2a.82.82,0,0,1-.33-.07.84.84,0,0,1-.45-1.1l1.3-3.08a.84.84,0,0,1,1.54.65l-1.3,3.08A.84.84,0,0,1,222.18,313.2Z" class="cls-7"/><path d="M227.64,319.45h-71a.84.84,0,0,1,0-1.67h71a.84.84,0,0,1,0,1.67Z" class="cls-7"/><path d="M289.24,360.5h-3.35a.84.84,0,1,1,0-1.67h3.35a.84.84,0,0,1,0,1.67Zm-7.81,0h-3.35a.84.84,0,0,1,0-1.67h3.35a.84.84,0,1,1,0,1.67Zm-7.81,0h-3.35a.84.84,0,1,1,0-1.67h3.35a.84.84,0,1,1,0,1.67Zm-7.81,0h-3.35a.84.84,0,1,1,0-1.67h3.35a.84.84,0,0,1,0,1.67Zm-7.81,0h-3.35a.84.84,0,0,1,0-1.67H258a.84.84,0,1,1,0,1.67Zm-7.81,0h-3.35a.84.84,0,1,1,0-1.67h3.35a.84.84,0,1,1,0,1.67Zm-7.81,0H239a.84.84,0,1,1,0-1.67h3.35a.84.84,0,0,1,0,1.67Zm-7.81,0h-3.35a.84.84,0,0,1,0-1.67h3.35a.84.84,0,0,1,0,1.67Zm-7.81,0h-3.35a.84.84,0,0,1,0-1.67h3.35a.84.84,0,1,1,0,1.67Zm-7.81,0h-.68a.84.84,0,0,1,0-1.67h.68a.84.84,0,0,1,0,1.67Z" class="cls-7"/><path d="M432.65,353a1.12,1.12,0,1,1,0-2.23,26,26,0,0,0,3.2-.2,1.12,1.12,0,0,1,.28,2.21A28.19,28.19,0,0,1,432.65,353Zm-4.46,0h-3.35a1.12,1.12,0,1,1,0-2.23h3.35a1.12,1.12,0,1,1,0,2.23Zm-7.81,0H417a1.12,1.12,0,0,1,0-2.23h3.35a1.12,1.12,0,1,1,0,2.23Zm-7.81,0h-3.35a1.12,1.12,0,0,1,0-2.23h3.35a1.12,1.12,0,1,1,0,2.23Zm-7.81,0h-3.35a1.12,1.12,0,1,1,0-2.23h3.35a1.12,1.12,0,0,1,0,2.23Zm35.61-1.12a1.12,1.12,0,0,1-.32-2.19,25.53,25.53,0,0,0,3-1.11,1.12,1.12,0,0,1,.9,2,27.6,27.6,0,0,1-3.27,1.21A1.13,1.13,0,0,1,440.35,351.84Zm7.05-3.3a1.12,1.12,0,0,1-.62-2,26,26,0,0,0,2.56-1.93,1.12,1.12,0,0,1,1.45,1.7,28.3,28.3,0,0,1-2.78,2.1A1.11,1.11,0,0,1,447.4,348.54Zm5.8-5.19a1.12,1.12,0,0,1-.85-1.83,25.83,25.83,0,0,0,1.9-2.58,1.12,1.12,0,0,1,1.88,1.21,27.68,27.68,0,0,1-2.06,2.81A1.11,1.11,0,0,1,453.2,343.35Zm4.07-6.63a1.1,1.1,0,0,1-.44-.09,1.12,1.12,0,0,1-.59-1.47,25.56,25.56,0,0,0,1.08-3,1.12,1.12,0,1,1,2.15.61A27.79,27.79,0,0,1,458.3,336,1.12,1.12,0,0,1,457.28,336.72Zm2-7.52h-.13a1.12,1.12,0,0,1-1-1.23,26.31,26.31,0,0,0,.16-2.9,1.12,1.12,0,0,1,1.12-1.12h0a1.12,1.12,0,0,1,1.12,1.12,28.61,28.61,0,0,1-.18,3.15A1.12,1.12,0,0,1,459.27,329.2Z" class="cls-7"/><path d="M374.6,323H350a1,1,0,1,1,0-2H374.6a1,1,0,1,1,0,2Z" class="cls-7"/><path d="M374.6,333H350a1,1,0,1,1,0-2H374.6a1,1,0,1,1,0,2Z" class="cls-7"/><path d="M374.6,338H360.09c-.62,0-1.12-.88-1.12-1.5s.5-1.5,1.12-1.5H374.6c.62,0,1.12.88,1.12,1.5S375.22,338,374.6,338Z" class="cls-7"/><path d="M374.6,328H360.09c-.62,0-1.12-.88-1.12-1.5s.5-1.5,1.12-1.5H374.6c.62,0,1.12.88,1.12,1.5S375.22,328,374.6,328Z" class="cls-7"/><text class="cls-13" transform="translate(67.14 187.12)">T<tspan x="6.82" y="0" class="cls-14">ALK</tspan></text><text class="cls-15" transform="translate(231.16 226.99)">C<tspan x="7.88" y="0" class="cls-14">ONVERS</tspan><tspan x="59.03" y="0" class="cls-16">A</tspan><tspan x="67.01" y="0" class="cls-14">TION</tspan></text><text class="cls-17" transform="translate(312.67 162.72)">V<tspan x="8.64" y="0" class="cls-14">O</tspan><tspan x="18.35" y="0" class="cls-18">C</tspan><tspan x="26.71" y="0" class="cls-14">ABU</tspan><tspan x="53.33" y="0" class="cls-19">L</tspan><tspan x="60.64" y="0" class="cls-20">A</tspan><tspan x="69.61" y="0" class="cls-21">R</tspan><tspan x="77.6" y="0" class="cls-14">Y</tspan></text><text class="cls-22" transform="translate(300.41 355.41)">SPEAKING</text><text class="cls-22" transform="translate(28.84 318.84)">SPEECH</text><rect width="374.57" height="54.98" x="54.47" y="245.25" class="cls-23"/></g></svg>