<svg xmlns="http://www.w3.org/2000/svg" viewBox="0 0 500 500"><defs><style>.cls-1{fill:#5399bc;}.cls-2{opacity:0.2;}.cls-3{fill:#134356;}.cls-4,.cls-7{font-size:84.19px;font-family:OstrichSans-Heavy, OstrichSans Heavy;}.cls-4,.cls-9{fill:#fff;}.cls-5{letter-spacing:-0.03em;}.cls-6{letter-spacing:-0.02em;}.cls-7{fill:none;stroke:#134356;stroke-width:2px;}.cls-8{fill:#fcd153;}.cls-10{fill:#f65f30;}</style></defs><title>2</title><g id="Background"><rect class="cls-1" width="500" height="500"/><g class="cls-2"><path class="cls-3" d="M40.06,12.74a4.32,4.32,0,0,1-3.39-1.58,3.94,3.94,0,0,1-.74-3,4.3,4.3,0,1,1,8.48,1.1,4.6,4.6,0,0,1-3,3.28A4.3,4.3,0,0,1,40.06,12.74Zm-3.18-4a2.89,2.89,0,0,0,.58,1.83,3.37,3.37,0,0,0,3.66,1A3.58,3.58,0,0,0,43.43,9a3.45,3.45,0,0,0-1-3.25,3.39,3.39,0,0,0-3.75-.43,3.29,3.29,0,0,0-1.31,1.35l.24.23a2.56,2.56,0,0,0-.65,1.32,3.12,3.12,0,0,0,0,.47Z" transform="translate(0.4)"/><path class="cls-3" d="M100.53,12.74a4.32,4.32,0,0,1-3.39-1.58,3.94,3.94,0,0,1-.74-3,4.3,4.3,0,1,1,8.48,1.1,4.6,4.6,0,0,1-3,3.28A4.3,4.3,0,0,1,100.53,12.74Zm-3.18-4a2.89,2.89,0,0,0,.58,1.83,3.37,3.37,0,0,0,3.66,1A3.58,3.58,0,0,0,103.9,9a3.45,3.45,0,0,0-1-3.25,3.39,3.39,0,0,0-3.75-.43A3.29,3.29,0,0,0,97.8,6.68l.24.23a2.56,2.56,0,0,0-.65,1.32,3.12,3.12,0,0,0,0,.47Z" transform="translate(0.4)"/><path class="cls-3" d="M161,12.74a4.32,4.32,0,0,1-3.39-1.58,3.94,3.94,0,0,1-.74-3,4.3,4.3,0,1,1,8.48,1.1,4.6,4.6,0,0,1-3,3.28A4.3,4.3,0,0,1,161,12.74Zm-3.18-4a2.89,2.89,0,0,0,.58,1.83,3.37,3.37,0,0,0,3.66,1A3.58,3.58,0,0,0,164.36,9a3.45,3.45,0,0,0-1-3.25,3.39,3.39,0,0,0-3.75-.43,3.29,3.29,0,0,0-1.31,1.35l.24.23a2.55,2.55,0,0,0-.65,1.32,3.12,3.12,0,0,0,0,.47Z" transform="translate(0.4)"/><path class="cls-3" d="M221.46,12.74a4.32,4.32,0,0,1-3.39-1.58,3.94,3.94,0,0,1-.74-3,4.3,4.3,0,1,1,8.48,1.1,4.6,4.6,0,0,1-3,3.28A4.3,4.3,0,0,1,221.46,12.74Zm-3.18-4a2.89,2.89,0,0,0,.58,1.83,3.37,3.37,0,0,0,3.66,1A3.58,3.58,0,0,0,224.83,9a3.45,3.45,0,0,0-1-3.25A3.39,3.39,0,0,0,220,5.33a3.29,3.29,0,0,0-1.31,1.35l.24.23a2.56,2.56,0,0,0-.65,1.32,3.11,3.11,0,0,0,0,.47Z" transform="translate(0.4)"/><path class="cls-3" d="M281.92,12.74a4.32,4.32,0,0,1-3.39-1.58,3.94,3.94,0,0,1-.74-3,4.3,4.3,0,1,1,8.48,1.1,4.6,4.6,0,0,1-3,3.28A4.3,4.3,0,0,1,281.92,12.74Zm-3.18-4a2.89,2.89,0,0,0,.58,1.83,3.37,3.37,0,0,0,3.66,1A3.58,3.58,0,0,0,285.29,9a3.45,3.45,0,0,0-1-3.25,3.39,3.39,0,0,0-3.75-.43,3.29,3.29,0,0,0-1.31,1.35l.24.23a2.56,2.56,0,0,0-.65,1.32,3.12,3.12,0,0,0,0,.47Z" transform="translate(0.4)"/><path class="cls-3" d="M342.39,12.74A4.32,4.32,0,0,1,339,11.16a3.94,3.94,0,0,1-.74-3,4.3,4.3,0,1,1,8.48,1.1,4.6,4.6,0,0,1-3,3.28A4.3,4.3,0,0,1,342.39,12.74Zm-3.18-4a2.89,2.89,0,0,0,.58,1.83,3.37,3.37,0,0,0,3.66,1A3.58,3.58,0,0,0,345.76,9a3.45,3.45,0,0,0-1-3.25A3.39,3.39,0,0,0,341,5.33a3.29,3.29,0,0,0-1.31,1.35l.24.23a2.56,2.56,0,0,0-.65,1.32,3.12,3.12,0,0,0,0,.47Z" transform="translate(0.4)"/><path class="cls-3" d="M402.85,12.74a4.32,4.32,0,0,1-3.39-1.58,3.94,3.94,0,0,1-.74-3,4.3,4.3,0,1,1,8.48,1.1,4.6,4.6,0,0,1-3,3.28A4.3,4.3,0,0,1,402.85,12.74Zm-3.18-4a2.89,2.89,0,0,0,.58,1.83,3.37,3.37,0,0,0,3.66,1A3.58,3.58,0,0,0,406.22,9a3.45,3.45,0,0,0-1-3.25,3.39,3.39,0,0,0-3.75-.43,3.29,3.29,0,0,0-1.31,1.35l.24.23a2.56,2.56,0,0,0-.65,1.32,3.12,3.12,0,0,0,0,.47Z" transform="translate(0.4)"/><path class="cls-3" d="M463.32,12.74a4.32,4.32,0,0,1-3.39-1.58,3.94,3.94,0,0,1-.74-3,4.3,4.3,0,1,1,8.48,1.1,4.6,4.6,0,0,1-3,3.28A4.3,4.3,0,0,1,463.32,12.74Zm-3.18-4a2.89,2.89,0,0,0,.58,1.83,3.37,3.37,0,0,0,3.66,1A3.58,3.58,0,0,0,466.69,9a3.45,3.45,0,0,0-1-3.25,3.39,3.39,0,0,0-3.75-.43,3.29,3.29,0,0,0-1.31,1.35l.24.23a2.56,2.56,0,0,0-.65,1.32,3.12,3.12,0,0,0,0,.47Z" transform="translate(0.4)"/><path class="cls-3" d="M7.16,55.5a4.32,4.32,0,0,1-3.39-1.58,3.94,3.94,0,0,1-.74-3,4.44,4.44,0,0,1,2.24-3.67,4.41,4.41,0,0,1,4.88.56A4.42,4.42,0,0,1,11.51,52a4.6,4.6,0,0,1-3,3.28A4.3,4.3,0,0,1,7.16,55.5ZM4,51.48a2.89,2.89,0,0,0,.58,1.83,3.37,3.37,0,0,0,3.66,1,3.58,3.58,0,0,0,2.32-2.56,3.45,3.45,0,0,0-1-3.25,3.39,3.39,0,0,0-3.75-.43,3.29,3.29,0,0,0-1.31,1.35l.24.23A2.56,2.56,0,0,0,4,51a3.12,3.12,0,0,0,0,.47Z" transform="translate(0.4)"/><path class="cls-3" d="M67.62,55.5a4.32,4.32,0,0,1-3.39-1.58,3.94,3.94,0,0,1-.74-3A4.3,4.3,0,1,1,72,52a4.6,4.6,0,0,1-3,3.28A4.3,4.3,0,0,1,67.62,55.5Zm-3.18-4A2.89,2.89,0,0,0,65,53.31a3.37,3.37,0,0,0,3.66,1A3.58,3.58,0,0,0,71,51.78a3.45,3.45,0,0,0-1-3.25,3.39,3.39,0,0,0-3.75-.43,3.29,3.29,0,0,0-1.31,1.35l.24.23A2.56,2.56,0,0,0,64.49,51a3.12,3.12,0,0,0,0,.47Z" transform="translate(0.4)"/><path class="cls-3" d="M128.09,55.5a4.32,4.32,0,0,1-3.39-1.58,3.94,3.94,0,0,1-.74-3,4.3,4.3,0,1,1,8.48,1.1,4.6,4.6,0,0,1-3,3.28A4.3,4.3,0,0,1,128.09,55.5Zm-3.18-4a2.89,2.89,0,0,0,.58,1.83,3.37,3.37,0,0,0,3.66,1,3.58,3.58,0,0,0,2.32-2.56,3.45,3.45,0,0,0-1-3.25,3.39,3.39,0,0,0-3.75-.43,3.29,3.29,0,0,0-1.31,1.35l.24.23A2.56,2.56,0,0,0,125,51a3.12,3.12,0,0,0,0,.47Z" transform="translate(0.4)"/><path class="cls-3" d="M188.55,55.5a4.32,4.32,0,0,1-3.39-1.58,3.94,3.94,0,0,1-.74-3A4.3,4.3,0,1,1,192.9,52a4.6,4.6,0,0,1-3,3.28A4.3,4.3,0,0,1,188.55,55.5Zm-3.18-4a2.89,2.89,0,0,0,.58,1.83,3.37,3.37,0,0,0,3.66,1,3.58,3.58,0,0,0,2.32-2.56,3.45,3.45,0,0,0-1-3.25,3.39,3.39,0,0,0-3.75-.43,3.29,3.29,0,0,0-1.31,1.35l.24.23a2.56,2.56,0,0,0-.65,1.32,3.12,3.12,0,0,0,0,.47Z" transform="translate(0.4)"/><path class="cls-3" d="M309.48,55.5a4.32,4.32,0,0,1-3.39-1.58,3.94,3.94,0,0,1-.74-3,4.3,4.3,0,1,1,8.48,1.1,4.6,4.6,0,0,1-3,3.28A4.3,4.3,0,0,1,309.48,55.5Zm-3.18-4a2.89,2.89,0,0,0,.58,1.83,3.37,3.37,0,0,0,3.66,1,3.58,3.58,0,0,0,2.32-2.56,3.45,3.45,0,0,0-1-3.25,3.39,3.39,0,0,0-3.75-.43,3.29,3.29,0,0,0-1.31,1.35l.24.23a2.56,2.56,0,0,0-.65,1.32,3.11,3.11,0,0,0,0,.47Z" transform="translate(0.4)"/><path class="cls-3" d="M369.95,55.5a4.32,4.32,0,0,1-3.39-1.58,3.94,3.94,0,0,1-.74-3A4.3,4.3,0,1,1,374.3,52a4.6,4.6,0,0,1-3,3.28A4.3,4.3,0,0,1,369.95,55.5Zm-3.18-4a2.89,2.89,0,0,0,.58,1.83,3.37,3.37,0,0,0,3.66,1,3.58,3.58,0,0,0,2.32-2.56,3.45,3.45,0,0,0-1-3.25,3.38,3.38,0,0,0-3.75-.43,3.29,3.29,0,0,0-1.31,1.35l.24.23a2.56,2.56,0,0,0-.65,1.32,3.12,3.12,0,0,0,0,.47Z" transform="translate(0.4)"/><path class="cls-3" d="M430.41,55.5A4.32,4.32,0,0,1,427,53.92a3.94,3.94,0,0,1-.74-3,4.3,4.3,0,1,1,8.48,1.1,4.6,4.6,0,0,1-3,3.28A4.3,4.3,0,0,1,430.41,55.5Zm-3.18-4a2.89,2.89,0,0,0,.58,1.83,3.37,3.37,0,0,0,3.66,1,3.58,3.58,0,0,0,2.32-2.56,3.45,3.45,0,0,0-1-3.25A3.39,3.39,0,0,0,429,48.1a3.29,3.29,0,0,0-1.31,1.35l.24.23a2.56,2.56,0,0,0-.65,1.32,3.12,3.12,0,0,0,0,.47Z" transform="translate(0.4)"/><path class="cls-3" d="M492.58,55.5a4.32,4.32,0,0,1-3.39-1.58,3.94,3.94,0,0,1-.74-3,4.3,4.3,0,1,1,8.48,1.1,4.6,4.6,0,0,1-3,3.28A4.3,4.3,0,0,1,492.58,55.5Zm-3.18-4a2.89,2.89,0,0,0,.58,1.83,3.37,3.37,0,0,0,3.66,1,3.58,3.58,0,0,0,2.32-2.56,3.45,3.45,0,0,0-1-3.25,3.39,3.39,0,0,0-3.75-.43,3.29,3.29,0,0,0-1.31,1.35l.24.23a2.56,2.56,0,0,0-.65,1.32,3.11,3.11,0,0,0,0,.47Z" transform="translate(0.4)"/><path class="cls-3" d="M40.06,86.16a4.32,4.32,0,0,1-3.39-1.58,3.94,3.94,0,0,1-.74-3,4.3,4.3,0,1,1,8.48,1.1,4.6,4.6,0,0,1-3,3.28A4.3,4.3,0,0,1,40.06,86.16Zm-3.18-4A2.89,2.89,0,0,0,37.46,84a3.37,3.37,0,0,0,3.66,1,3.58,3.58,0,0,0,2.32-2.56,3.45,3.45,0,0,0-1-3.25,3.38,3.38,0,0,0-3.75-.43,3.29,3.29,0,0,0-1.31,1.35l.24.23a2.56,2.56,0,0,0-.65,1.32,3.12,3.12,0,0,0,0,.47Z" transform="translate(0.4)"/><path class="cls-3" d="M100.53,86.16a4.32,4.32,0,0,1-3.39-1.58,3.94,3.94,0,0,1-.74-3,4.3,4.3,0,1,1,8.48,1.1,4.6,4.6,0,0,1-3,3.28A4.3,4.3,0,0,1,100.53,86.16Zm-3.18-4A2.89,2.89,0,0,0,97.93,84a3.37,3.37,0,0,0,3.66,1,3.58,3.58,0,0,0,2.32-2.56,3.45,3.45,0,0,0-1-3.25,3.38,3.38,0,0,0-3.75-.43,3.29,3.29,0,0,0-1.31,1.35l.24.23a2.56,2.56,0,0,0-.65,1.32,3.12,3.12,0,0,0,0,.47Z" transform="translate(0.4)"/><path class="cls-3" d="M161,86.16a4.32,4.32,0,0,1-3.39-1.58,3.94,3.94,0,0,1-.74-3,4.3,4.3,0,1,1,8.48,1.1,4.6,4.6,0,0,1-3,3.28A4.3,4.3,0,0,1,161,86.16Zm-3.18-4a2.89,2.89,0,0,0,.58,1.83A3.37,3.37,0,0,0,162,85a3.58,3.58,0,0,0,2.32-2.56,3.45,3.45,0,0,0-1-3.25,3.38,3.38,0,0,0-3.75-.43,3.29,3.29,0,0,0-1.31,1.35l.24.23a2.55,2.55,0,0,0-.65,1.32,3.12,3.12,0,0,0,0,.47Z" transform="translate(0.4)"/><path class="cls-3" d="M221.46,86.16a4.32,4.32,0,0,1-3.39-1.58,3.94,3.94,0,0,1-.74-3,4.3,4.3,0,1,1,8.48,1.1,4.6,4.6,0,0,1-3,3.28A4.3,4.3,0,0,1,221.46,86.16Zm-3.18-4a2.89,2.89,0,0,0,.58,1.83,3.37,3.37,0,0,0,3.66,1,3.58,3.58,0,0,0,2.32-2.56,3.45,3.45,0,0,0-1-3.25,3.38,3.38,0,0,0-3.75-.43,3.29,3.29,0,0,0-1.31,1.35l.24.23a2.56,2.56,0,0,0-.65,1.32,3.11,3.11,0,0,0,0,.47Z" transform="translate(0.4)"/><path class="cls-3" d="M342.39,86.16A4.32,4.32,0,0,1,339,84.58a3.94,3.94,0,0,1-.74-3,4.3,4.3,0,1,1,8.48,1.1,4.6,4.6,0,0,1-3,3.28A4.3,4.3,0,0,1,342.39,86.16Zm-3.18-4a2.89,2.89,0,0,0,.58,1.83,3.37,3.37,0,0,0,3.66,1,3.58,3.58,0,0,0,2.32-2.56,3.45,3.45,0,0,0-1-3.25,3.38,3.38,0,0,0-3.75-.43,3.29,3.29,0,0,0-1.31,1.35l.24.23a2.56,2.56,0,0,0-.65,1.32,3.12,3.12,0,0,0,0,.47Z" transform="translate(0.4)"/><path class="cls-3" d="M402.85,86.16a4.32,4.32,0,0,1-3.39-1.58,3.94,3.94,0,0,1-.74-3,4.3,4.3,0,1,1,8.48,1.1,4.6,4.6,0,0,1-3,3.28A4.3,4.3,0,0,1,402.85,86.16Zm-3.18-4a2.89,2.89,0,0,0,.58,1.83,3.37,3.37,0,0,0,3.66,1,3.58,3.58,0,0,0,2.32-2.56,3.45,3.45,0,0,0-1-3.25,3.38,3.38,0,0,0-3.75-.43,3.29,3.29,0,0,0-1.31,1.35l.24.23a2.56,2.56,0,0,0-.65,1.32,3.12,3.12,0,0,0,0,.47Z" transform="translate(0.4)"/><path class="cls-3" d="M463.32,86.16a4.32,4.32,0,0,1-3.39-1.58,3.94,3.94,0,0,1-.74-3,4.3,4.3,0,1,1,8.48,1.1,4.6,4.6,0,0,1-3,3.28A4.3,4.3,0,0,1,463.32,86.16Zm-3.18-4a2.89,2.89,0,0,0,.58,1.83,3.37,3.37,0,0,0,3.66,1,3.58,3.58,0,0,0,2.32-2.56,3.45,3.45,0,0,0-1-3.25,3.38,3.38,0,0,0-3.75-.43,3.29,3.29,0,0,0-1.31,1.35l.24.23a2.56,2.56,0,0,0-.65,1.32,3.12,3.12,0,0,0,0,.47Z" transform="translate(0.4)"/><path class="cls-3" d="M7.16,128.92a4.32,4.32,0,0,1-3.39-1.58,3.94,3.94,0,0,1-.74-3,4.44,4.44,0,0,1,2.24-3.67,4.41,4.41,0,0,1,4.88.56,4.42,4.42,0,0,1,1.36,4.22,4.6,4.6,0,0,1-3,3.28A4.3,4.3,0,0,1,7.16,128.92ZM4,124.9a2.89,2.89,0,0,0,.58,1.83,3.37,3.37,0,0,0,3.66,1,3.58,3.58,0,0,0,2.32-2.56,3.45,3.45,0,0,0-1-3.25,3.38,3.38,0,0,0-3.75-.43,3.29,3.29,0,0,0-1.31,1.35l.24.23A2.56,2.56,0,0,0,4,124.43a3.11,3.11,0,0,0,0,.47Z" transform="translate(0.4)"/><path class="cls-3" d="M492.58,128.92a4.32,4.32,0,0,1-3.39-1.58,3.94,3.94,0,0,1-.74-3,4.3,4.3,0,1,1,8.48,1.1,4.6,4.6,0,0,1-3,3.28A4.3,4.3,0,0,1,492.58,128.92Zm-3.18-4a2.89,2.89,0,0,0,.58,1.83,3.37,3.37,0,0,0,3.66,1,3.58,3.58,0,0,0,2.32-2.56,3.45,3.45,0,0,0-1-3.25,3.38,3.38,0,0,0-3.75-.43,3.29,3.29,0,0,0-1.31,1.35l.24.23a2.56,2.56,0,0,0-.65,1.32,3.11,3.11,0,0,0,0,.47Z" transform="translate(0.4)"/><path class="cls-3" d="M7.16,202.35a4.32,4.32,0,0,1-3.39-1.58,3.94,3.94,0,0,1-.74-3,4.44,4.44,0,0,1,2.24-3.67,4.41,4.41,0,0,1,4.88.56,4.42,4.42,0,0,1,1.36,4.22,4.6,4.6,0,0,1-3,3.28A4.3,4.3,0,0,1,7.16,202.35Zm-3.18-4a2.89,2.89,0,0,0,.58,1.83,3.37,3.37,0,0,0,3.66,1,3.58,3.58,0,0,0,2.32-2.56,3.45,3.45,0,0,0-1-3.25,3.38,3.38,0,0,0-3.75-.43,3.29,3.29,0,0,0-1.31,1.35l.24.23A2.56,2.56,0,0,0,4,197.85a3.12,3.12,0,0,0,0,.47Z" transform="translate(0.4)"/><path class="cls-3" d="M492.58,202.35a4.32,4.32,0,0,1-3.39-1.58,3.94,3.94,0,0,1-.74-3,4.3,4.3,0,1,1,8.48,1.1,4.6,4.6,0,0,1-3,3.28A4.3,4.3,0,0,1,492.58,202.35Zm-3.18-4a2.89,2.89,0,0,0,.58,1.83,3.37,3.37,0,0,0,3.66,1,3.58,3.58,0,0,0,2.32-2.56,3.45,3.45,0,0,0-1-3.25,3.38,3.38,0,0,0-3.75-.43,3.29,3.29,0,0,0-1.31,1.35l.24.23a2.56,2.56,0,0,0-.65,1.32,3.11,3.11,0,0,0,0,.47Z" transform="translate(0.4)"/><path class="cls-3" d="M7.16,275.77a4.32,4.32,0,0,1-3.39-1.58,3.94,3.94,0,0,1-.74-3,4.44,4.44,0,0,1,2.24-3.67,4.41,4.41,0,0,1,4.88.56,4.42,4.42,0,0,1,1.36,4.22,4.6,4.6,0,0,1-3,3.28A4.3,4.3,0,0,1,7.16,275.77Zm-3.18-4a2.89,2.89,0,0,0,.58,1.83,3.37,3.37,0,0,0,3.66,1A3.58,3.58,0,0,0,10.53,272a3.45,3.45,0,0,0-1-3.25,3.39,3.39,0,0,0-3.75-.43,3.29,3.29,0,0,0-1.31,1.35l.24.23A2.56,2.56,0,0,0,4,271.27a3.12,3.12,0,0,0,0,.47Z" transform="translate(0.4)"/><path class="cls-3" d="M492.58,275.77a4.32,4.32,0,0,1-3.39-1.58,3.94,3.94,0,0,1-.74-3,4.3,4.3,0,1,1,8.48,1.1,4.6,4.6,0,0,1-3,3.28A4.3,4.3,0,0,1,492.58,275.77Zm-3.18-4a2.89,2.89,0,0,0,.58,1.83,3.37,3.37,0,0,0,3.66,1,3.58,3.58,0,0,0,2.32-2.56,3.45,3.45,0,0,0-1-3.25,3.39,3.39,0,0,0-3.75-.43,3.29,3.29,0,0,0-1.31,1.35l.24.23a2.56,2.56,0,0,0-.65,1.32,3.11,3.11,0,0,0,0,.47Z" transform="translate(0.4)"/><path class="cls-3" d="M7.16,349.19a4.32,4.32,0,0,1-3.39-1.58,3.94,3.94,0,0,1-.74-3,4.44,4.44,0,0,1,2.24-3.67,4.41,4.41,0,0,1,4.88.56,4.42,4.42,0,0,1,1.36,4.22,4.6,4.6,0,0,1-3,3.28A4.3,4.3,0,0,1,7.16,349.19Zm-3.18-4A2.89,2.89,0,0,0,4.56,347a3.37,3.37,0,0,0,3.66,1,3.58,3.58,0,0,0,2.32-2.56,3.45,3.45,0,0,0-1-3.25,3.38,3.38,0,0,0-3.75-.43,3.29,3.29,0,0,0-1.31,1.35l.24.23A2.56,2.56,0,0,0,4,344.7a3.12,3.12,0,0,0,0,.47Z" transform="translate(0.4)"/><path class="cls-3" d="M492.58,349.19a4.32,4.32,0,0,1-3.39-1.58,3.94,3.94,0,0,1-.74-3,4.3,4.3,0,1,1,8.48,1.1,4.6,4.6,0,0,1-3,3.28A4.3,4.3,0,0,1,492.58,349.19Zm-3.18-4A2.89,2.89,0,0,0,490,347a3.37,3.37,0,0,0,3.66,1,3.58,3.58,0,0,0,2.32-2.56,3.45,3.45,0,0,0-1-3.25,3.38,3.38,0,0,0-3.75-.43,3.29,3.29,0,0,0-1.31,1.35l.24.23a2.56,2.56,0,0,0-.65,1.32,3.11,3.11,0,0,0,0,.47Z" transform="translate(0.4)"/><path class="cls-3" d="M7.16,422.62A4.32,4.32,0,0,1,3.77,421,3.94,3.94,0,0,1,3,418a4.44,4.44,0,0,1,2.24-3.67,4.41,4.41,0,0,1,4.88.56,4.42,4.42,0,0,1,1.36,4.22,4.6,4.6,0,0,1-3,3.28A4.3,4.3,0,0,1,7.16,422.62ZM4,418.6a2.89,2.89,0,0,0,.58,1.83,3.37,3.37,0,0,0,3.66,1,3.58,3.58,0,0,0,2.32-2.56,3.45,3.45,0,0,0-1-3.25,3.38,3.38,0,0,0-3.75-.43,3.29,3.29,0,0,0-1.31,1.35l.24.23A2.56,2.56,0,0,0,4,418.12a3.12,3.12,0,0,0,0,.47Z" transform="translate(0.4)"/><path class="cls-3" d="M67.62,422.62A4.32,4.32,0,0,1,64.23,421a3.94,3.94,0,0,1-.74-3,4.3,4.3,0,1,1,8.48,1.1,4.6,4.6,0,0,1-3,3.28A4.3,4.3,0,0,1,67.62,422.62Zm-3.18-4a2.89,2.89,0,0,0,.58,1.83,3.37,3.37,0,0,0,3.66,1A3.58,3.58,0,0,0,71,418.89a3.45,3.45,0,0,0-1-3.25,3.38,3.38,0,0,0-3.75-.43,3.29,3.29,0,0,0-1.31,1.35l.24.23a2.56,2.56,0,0,0-.65,1.32,3.12,3.12,0,0,0,0,.47Z" transform="translate(0.4)"/><path class="cls-3" d="M128.09,422.62A4.32,4.32,0,0,1,124.7,421a3.94,3.94,0,0,1-.74-3,4.3,4.3,0,1,1,8.48,1.1,4.6,4.6,0,0,1-3,3.28A4.3,4.3,0,0,1,128.09,422.62Zm-3.18-4a2.89,2.89,0,0,0,.58,1.83,3.37,3.37,0,0,0,3.66,1,3.58,3.58,0,0,0,2.32-2.56,3.45,3.45,0,0,0-1-3.25,3.38,3.38,0,0,0-3.75-.43,3.29,3.29,0,0,0-1.31,1.35l.24.23a2.56,2.56,0,0,0-.65,1.32,3.12,3.12,0,0,0,0,.47Z" transform="translate(0.4)"/><path class="cls-3" d="M188.55,422.62a4.32,4.32,0,0,1-3.39-1.58,3.94,3.94,0,0,1-.74-3,4.3,4.3,0,1,1,8.48,1.1,4.6,4.6,0,0,1-3,3.28A4.3,4.3,0,0,1,188.55,422.62Zm-3.18-4a2.89,2.89,0,0,0,.58,1.83,3.37,3.37,0,0,0,3.66,1,3.58,3.58,0,0,0,2.32-2.56,3.45,3.45,0,0,0-1-3.25,3.38,3.38,0,0,0-3.75-.43,3.29,3.29,0,0,0-1.31,1.35l.24.23a2.56,2.56,0,0,0-.65,1.32,3.12,3.12,0,0,0,0,.47Z" transform="translate(0.4)"/><path class="cls-3" d="M249,422.62a4.32,4.32,0,0,1-3.39-1.58,3.94,3.94,0,0,1-.74-3,4.3,4.3,0,1,1,8.48,1.1,4.6,4.6,0,0,1-3,3.28A4.3,4.3,0,0,1,249,422.62Zm-3.18-4a2.89,2.89,0,0,0,.58,1.83,3.37,3.37,0,0,0,3.66,1,3.58,3.58,0,0,0,2.32-2.56,3.45,3.45,0,0,0-1-3.25,3.38,3.38,0,0,0-3.75-.43,3.29,3.29,0,0,0-1.31,1.35l.24.23a2.56,2.56,0,0,0-.65,1.32,3.12,3.12,0,0,0,0,.47Z" transform="translate(0.4)"/><path class="cls-3" d="M309.48,422.62a4.32,4.32,0,0,1-3.39-1.58,3.94,3.94,0,0,1-.74-3,4.3,4.3,0,1,1,8.48,1.1,4.6,4.6,0,0,1-3,3.28A4.3,4.3,0,0,1,309.48,422.62Zm-3.18-4a2.89,2.89,0,0,0,.58,1.83,3.37,3.37,0,0,0,3.66,1,3.58,3.58,0,0,0,2.32-2.56,3.45,3.45,0,0,0-1-3.25,3.38,3.38,0,0,0-3.75-.43,3.29,3.29,0,0,0-1.31,1.35l.24.23a2.56,2.56,0,0,0-.65,1.32,3.11,3.11,0,0,0,0,.47Z" transform="translate(0.4)"/><path class="cls-3" d="M369.95,422.62a4.32,4.32,0,0,1-3.39-1.58,3.94,3.94,0,0,1-.74-3,4.3,4.3,0,1,1,8.48,1.1,4.6,4.6,0,0,1-3,3.28A4.3,4.3,0,0,1,369.95,422.62Zm-3.18-4a2.89,2.89,0,0,0,.58,1.83,3.37,3.37,0,0,0,3.66,1,3.58,3.58,0,0,0,2.32-2.56,3.45,3.45,0,0,0-1-3.25,3.38,3.38,0,0,0-3.75-.43,3.29,3.29,0,0,0-1.31,1.35l.24.23a2.56,2.56,0,0,0-.65,1.32,3.12,3.12,0,0,0,0,.47Z" transform="translate(0.4)"/><path class="cls-3" d="M430.41,422.62A4.32,4.32,0,0,1,427,421a3.94,3.94,0,0,1-.74-3,4.3,4.3,0,1,1,8.48,1.1,4.6,4.6,0,0,1-3,3.28A4.3,4.3,0,0,1,430.41,422.62Zm-3.18-4a2.89,2.89,0,0,0,.58,1.83,3.37,3.37,0,0,0,3.66,1,3.58,3.58,0,0,0,2.32-2.56,3.45,3.45,0,0,0-1-3.25,3.38,3.38,0,0,0-3.75-.43,3.29,3.29,0,0,0-1.31,1.35l.24.23a2.55,2.55,0,0,0-.65,1.32,3.12,3.12,0,0,0,0,.47Z" transform="translate(0.4)"/><path class="cls-3" d="M492.58,422.62a4.32,4.32,0,0,1-3.39-1.58,3.94,3.94,0,0,1-.74-3,4.3,4.3,0,1,1,8.48,1.1,4.6,4.6,0,0,1-3,3.28A4.3,4.3,0,0,1,492.58,422.62Zm-3.18-4a2.89,2.89,0,0,0,.58,1.83,3.37,3.37,0,0,0,3.66,1,3.58,3.58,0,0,0,2.32-2.56,3.45,3.45,0,0,0-1-3.25,3.38,3.38,0,0,0-3.75-.43,3.29,3.29,0,0,0-1.31,1.35l.24.23a2.56,2.56,0,0,0-.65,1.32,3.11,3.11,0,0,0,0,.47Z" transform="translate(0.4)"/><path class="cls-3" d="M40.06,453.28a4.32,4.32,0,0,1-3.39-1.58,3.94,3.94,0,0,1-.74-3,4.3,4.3,0,1,1,8.48,1.1,4.6,4.6,0,0,1-3,3.28A4.3,4.3,0,0,1,40.06,453.28Zm-3.18-4a2.89,2.89,0,0,0,.58,1.83,3.37,3.37,0,0,0,3.66,1,3.58,3.58,0,0,0,2.32-2.56,3.45,3.45,0,0,0-1-3.25,3.39,3.39,0,0,0-3.75-.43,3.29,3.29,0,0,0-1.31,1.35l.24.23a2.56,2.56,0,0,0-.65,1.32,3.12,3.12,0,0,0,0,.47Z" transform="translate(0.4)"/><path class="cls-3" d="M100.53,453.28a4.32,4.32,0,0,1-3.39-1.58,3.94,3.94,0,0,1-.74-3,4.3,4.3,0,1,1,8.48,1.1,4.6,4.6,0,0,1-3,3.28A4.3,4.3,0,0,1,100.53,453.28Zm-3.18-4a2.89,2.89,0,0,0,.58,1.83,3.37,3.37,0,0,0,3.66,1,3.58,3.58,0,0,0,2.32-2.56,3.45,3.45,0,0,0-1-3.25,3.39,3.39,0,0,0-3.75-.43,3.29,3.29,0,0,0-1.31,1.35l.24.23a2.56,2.56,0,0,0-.65,1.32,3.12,3.12,0,0,0,0,.47Z" transform="translate(0.4)"/><path class="cls-3" d="M161,453.28a4.32,4.32,0,0,1-3.39-1.58,3.94,3.94,0,0,1-.74-3,4.3,4.3,0,1,1,8.48,1.1,4.6,4.6,0,0,1-3,3.28A4.3,4.3,0,0,1,161,453.28Zm-3.18-4a2.89,2.89,0,0,0,.58,1.83,3.37,3.37,0,0,0,3.66,1,3.58,3.58,0,0,0,2.32-2.56,3.45,3.45,0,0,0-1-3.25,3.39,3.39,0,0,0-3.75-.43,3.29,3.29,0,0,0-1.31,1.35l.24.23a2.55,2.55,0,0,0-.65,1.32,3.12,3.12,0,0,0,0,.47Z" transform="translate(0.4)"/><path class="cls-3" d="M221.46,453.28a4.32,4.32,0,0,1-3.39-1.58,3.94,3.94,0,0,1-.74-3,4.3,4.3,0,1,1,8.48,1.1,4.6,4.6,0,0,1-3,3.28A4.3,4.3,0,0,1,221.46,453.28Zm-3.18-4a2.89,2.89,0,0,0,.58,1.83,3.37,3.37,0,0,0,3.66,1,3.58,3.58,0,0,0,2.32-2.56,3.45,3.45,0,0,0-1-3.25,3.39,3.39,0,0,0-3.75-.43,3.29,3.29,0,0,0-1.31,1.35l.24.23a2.56,2.56,0,0,0-.65,1.32,3.11,3.11,0,0,0,0,.47Z" transform="translate(0.4)"/><path class="cls-3" d="M281.92,453.28a4.32,4.32,0,0,1-3.39-1.58,3.94,3.94,0,0,1-.74-3,4.3,4.3,0,1,1,8.48,1.1,4.6,4.6,0,0,1-3,3.28A4.3,4.3,0,0,1,281.92,453.28Zm-3.18-4a2.89,2.89,0,0,0,.58,1.83,3.37,3.37,0,0,0,3.66,1,3.58,3.58,0,0,0,2.32-2.56,3.45,3.45,0,0,0-1-3.25,3.39,3.39,0,0,0-3.75-.43,3.29,3.29,0,0,0-1.31,1.35l.24.23a2.56,2.56,0,0,0-.65,1.32,3.12,3.12,0,0,0,0,.47Z" transform="translate(0.4)"/><path class="cls-3" d="M342.39,453.28A4.32,4.32,0,0,1,339,451.7a3.94,3.94,0,0,1-.74-3,4.3,4.3,0,1,1,8.48,1.1,4.6,4.6,0,0,1-3,3.28A4.3,4.3,0,0,1,342.39,453.28Zm-3.18-4a2.89,2.89,0,0,0,.58,1.83,3.37,3.37,0,0,0,3.66,1,3.58,3.58,0,0,0,2.32-2.56,3.45,3.45,0,0,0-1-3.25,3.39,3.39,0,0,0-3.75-.43,3.29,3.29,0,0,0-1.31,1.35l.24.23a2.56,2.56,0,0,0-.65,1.32,3.12,3.12,0,0,0,0,.47Z" transform="translate(0.4)"/><path class="cls-3" d="M402.85,453.28a4.32,4.32,0,0,1-3.39-1.58,3.94,3.94,0,0,1-.74-3,4.3,4.3,0,1,1,8.48,1.1,4.6,4.6,0,0,1-3,3.28A4.3,4.3,0,0,1,402.85,453.28Zm-3.18-4a2.89,2.89,0,0,0,.58,1.83,3.37,3.37,0,0,0,3.66,1,3.58,3.58,0,0,0,2.32-2.56,3.45,3.45,0,0,0-1-3.25,3.39,3.39,0,0,0-3.75-.43,3.29,3.29,0,0,0-1.31,1.35l.24.23a2.56,2.56,0,0,0-.65,1.32,3.12,3.12,0,0,0,0,.47Z" transform="translate(0.4)"/><path class="cls-3" d="M463.32,453.28a4.32,4.32,0,0,1-3.39-1.58,3.94,3.94,0,0,1-.74-3,4.3,4.3,0,1,1,8.48,1.1,4.6,4.6,0,0,1-3,3.28A4.3,4.3,0,0,1,463.32,453.28Zm-3.18-4a2.89,2.89,0,0,0,.58,1.83,3.37,3.37,0,0,0,3.66,1,3.58,3.58,0,0,0,2.32-2.56,3.45,3.45,0,0,0-1-3.25,3.39,3.39,0,0,0-3.75-.43,3.29,3.29,0,0,0-1.31,1.35l.24.23a2.56,2.56,0,0,0-.65,1.32,3.12,3.12,0,0,0,0,.47Z" transform="translate(0.4)"/><path class="cls-3" d="M7.16,496a4.32,4.32,0,0,1-3.39-1.58,3.94,3.94,0,0,1-.74-3,4.44,4.44,0,0,1,2.24-3.67,4.41,4.41,0,0,1,4.88.56,4.42,4.42,0,0,1,1.36,4.22,4.6,4.6,0,0,1-3,3.28A4.3,4.3,0,0,1,7.16,496ZM4,492a2.89,2.89,0,0,0,.58,1.83,3.37,3.37,0,0,0,3.66,1,3.58,3.58,0,0,0,2.32-2.56,3.45,3.45,0,0,0-1-3.25,3.39,3.39,0,0,0-3.75-.43A3.29,3.29,0,0,0,4.43,490l.24.23A2.56,2.56,0,0,0,4,491.54a3.12,3.12,0,0,0,0,.47Z" transform="translate(0.4)"/><path class="cls-3" d="M67.62,496a4.32,4.32,0,0,1-3.39-1.58,3.94,3.94,0,0,1-.74-3,4.3,4.3,0,1,1,8.48,1.1,4.6,4.6,0,0,1-3,3.28A4.3,4.3,0,0,1,67.62,496Zm-3.18-4a2.89,2.89,0,0,0,.58,1.83,3.37,3.37,0,0,0,3.66,1A3.58,3.58,0,0,0,71,492.32a3.45,3.45,0,0,0-1-3.25,3.39,3.39,0,0,0-3.75-.43A3.29,3.29,0,0,0,64.89,490l.24.23a2.56,2.56,0,0,0-.65,1.32,3.12,3.12,0,0,0,0,.47Z" transform="translate(0.4)"/><path class="cls-3" d="M128.09,496a4.32,4.32,0,0,1-3.39-1.58,3.94,3.94,0,0,1-.74-3,4.3,4.3,0,1,1,8.48,1.1,4.6,4.6,0,0,1-3,3.28A4.3,4.3,0,0,1,128.09,496Zm-3.18-4a2.89,2.89,0,0,0,.58,1.83,3.37,3.37,0,0,0,3.66,1,3.58,3.58,0,0,0,2.32-2.56,3.45,3.45,0,0,0-1-3.25,3.39,3.39,0,0,0-3.75-.43,3.29,3.29,0,0,0-1.31,1.35l.24.23a2.56,2.56,0,0,0-.65,1.32,3.12,3.12,0,0,0,0,.47Z" transform="translate(0.4)"/><path class="cls-3" d="M188.55,496a4.32,4.32,0,0,1-3.39-1.58,3.94,3.94,0,0,1-.74-3,4.3,4.3,0,1,1,8.48,1.1,4.6,4.6,0,0,1-3,3.28A4.3,4.3,0,0,1,188.55,496Zm-3.18-4a2.89,2.89,0,0,0,.58,1.83,3.37,3.37,0,0,0,3.66,1,3.58,3.58,0,0,0,2.32-2.56,3.45,3.45,0,0,0-1-3.25,3.39,3.39,0,0,0-3.75-.43,3.29,3.29,0,0,0-1.31,1.35l.24.23a2.56,2.56,0,0,0-.65,1.32,3.12,3.12,0,0,0,0,.47Z" transform="translate(0.4)"/><path class="cls-3" d="M249,496a4.32,4.32,0,0,1-3.39-1.58,3.94,3.94,0,0,1-.74-3,4.3,4.3,0,1,1,8.48,1.1,4.6,4.6,0,0,1-3,3.28A4.3,4.3,0,0,1,249,496Zm-3.18-4a2.89,2.89,0,0,0,.58,1.83,3.37,3.37,0,0,0,3.66,1,3.58,3.58,0,0,0,2.32-2.56,3.45,3.45,0,0,0-1-3.25,3.39,3.39,0,0,0-3.75-.43,3.29,3.29,0,0,0-1.31,1.35l.24.23a2.56,2.56,0,0,0-.65,1.32,3.12,3.12,0,0,0,0,.47Z" transform="translate(0.4)"/><path class="cls-3" d="M309.48,496a4.32,4.32,0,0,1-3.39-1.58,3.94,3.94,0,0,1-.74-3,4.3,4.3,0,1,1,8.48,1.1,4.6,4.6,0,0,1-3,3.28A4.3,4.3,0,0,1,309.48,496Zm-3.18-4a2.89,2.89,0,0,0,.58,1.83,3.37,3.37,0,0,0,3.66,1,3.58,3.58,0,0,0,2.32-2.56,3.45,3.45,0,0,0-1-3.25,3.39,3.39,0,0,0-3.75-.43,3.29,3.29,0,0,0-1.31,1.35l.24.23a2.56,2.56,0,0,0-.65,1.32,3.11,3.11,0,0,0,0,.47Z" transform="translate(0.4)"/><path class="cls-3" d="M369.95,496a4.32,4.32,0,0,1-3.39-1.58,3.94,3.94,0,0,1-.74-3,4.3,4.3,0,1,1,8.48,1.1,4.6,4.6,0,0,1-3,3.28A4.3,4.3,0,0,1,369.95,496Zm-3.18-4a2.89,2.89,0,0,0,.58,1.83,3.37,3.37,0,0,0,3.66,1,3.58,3.58,0,0,0,2.32-2.56,3.45,3.45,0,0,0-1-3.25,3.38,3.38,0,0,0-3.75-.43,3.29,3.29,0,0,0-1.31,1.35l.24.23a2.56,2.56,0,0,0-.65,1.32,3.12,3.12,0,0,0,0,.47Z" transform="translate(0.4)"/><path class="cls-3" d="M430.41,496a4.32,4.32,0,0,1-3.39-1.58,3.94,3.94,0,0,1-.74-3,4.3,4.3,0,1,1,8.48,1.1,4.6,4.6,0,0,1-3,3.28A4.3,4.3,0,0,1,430.41,496Zm-3.18-4a2.89,2.89,0,0,0,.58,1.83,3.37,3.37,0,0,0,3.66,1,3.58,3.58,0,0,0,2.32-2.56,3.45,3.45,0,0,0-1-3.25,3.39,3.39,0,0,0-3.75-.43,3.29,3.29,0,0,0-1.31,1.35l.24.23a2.56,2.56,0,0,0-.65,1.32,3.12,3.12,0,0,0,0,.47Z" transform="translate(0.4)"/><path class="cls-3" d="M492.58,496a4.32,4.32,0,0,1-3.39-1.58,3.94,3.94,0,0,1-.74-3,4.3,4.3,0,1,1,8.48,1.1,4.6,4.6,0,0,1-3,3.28A4.3,4.3,0,0,1,492.58,496Zm-3.18-4a2.89,2.89,0,0,0,.58,1.83,3.37,3.37,0,0,0,3.66,1,3.58,3.58,0,0,0,2.32-2.56,3.45,3.45,0,0,0-1-3.25,3.39,3.39,0,0,0-3.75-.43,3.29,3.29,0,0,0-1.31,1.35l.24.23a2.56,2.56,0,0,0-.65,1.32,3.11,3.11,0,0,0,0,.47Z" transform="translate(0.4)"/></g></g><g id="Objects"><text class="cls-4" transform="translate(51.74 277.77)">LANG<tspan class="cls-5" x="201.03" y="0">U</tspan><tspan class="cls-6" x="252.64" y="0">A</tspan><tspan x="302.9" y="0">GE</tspan></text><text class="cls-7" transform="translate(48.74 275.77)">LANG<tspan class="cls-5" x="201.03" y="0">U</tspan><tspan class="cls-6" x="252.64" y="0">A</tspan><tspan x="302.9" y="0">GE</tspan></text><path class="cls-8" d="M148.64,330c-3.23,3.38-5.25,7.7-7.21,11.95l-8.94,19.33a49.35,49.35,0,0,0,9.57-5.07l-1.84,9.8a2.76,2.76,0,0,0,0,1.69c.54,1.14,2.2,1,3.4.6a39.13,39.13,0,0,0,9.33-4.43,10.85,10.85,0,0,1-9.39,8.82,3.87,3.87,0,0,0-2.29.63,2.2,2.2,0,0,0,.05,3,5.55,5.55,0,0,0,2.86,1.5,27.73,27.73,0,0,0,11,.69,27.31,27.31,0,0,1-.32,7.66,82.36,82.36,0,0,0,21.78,1.09,3,3,0,0,0,1.81-.57,2.75,2.75,0,0,0,.67-1.18c1.88-5.39.38-11.39,1.53-17,1.38-6.74,6.45-12.26,7.89-19a18.86,18.86,0,0,0-4.33-16.29C176.41,324.41,157.37,320.84,148.64,330Z" transform="translate(0.4)"/><path class="cls-3" d="M68.85,175.67A.85.85,0,0,1,68,175a66.06,66.06,0,0,1,7.56-45.09.85.85,0,0,1,1.47.85,64.34,64.34,0,0,0-7.36,43.92.85.85,0,0,1-.67,1Z" transform="translate(0.4)"/><path class="cls-3" d="M68.87,175.84h0A.85.85,0,0,1,68,175c0-3.44,3.21-5.92,6.2-6.51s6.12.22,8.83.94l16.59,4.44A76.27,76.27,0,0,1,111.43,135c-3.11-.57-5.64-2.7-8.09-4.76a41.1,41.1,0,0,0-3.4-2.67c-7-4.69-17.49-3.3-23,3a.85.85,0,0,1-1.28-1.12,19.74,19.74,0,0,1,25.23-3.33,42.53,42.53,0,0,1,3.55,2.78c2.72,2.29,5.29,4.45,8.48,4.51a.85.85,0,0,1,.69,1.32A74.45,74.45,0,0,0,101.32,175a.85.85,0,0,1-1.07.81L82.6,171.06c-2.53-.68-5.39-1.44-8.06-.92-2.36.47-4.81,2.41-4.83,4.85A.85.85,0,0,1,68.87,175.84Z" transform="translate(0.4)"/><path class="cls-3" d="M68.73,175.48a2.41,2.41,0,0,1-1.87-1.36,11.06,11.06,0,0,0-10-4.94,22.47,22.47,0,0,0-6.66,2c-.88.37-1.75.74-2.64,1.06-3,1.09-7.17,1.95-10.45-.19a.85.85,0,1,1,.93-1.43c2.69,1.75,6.34,1,8.94,0,.86-.32,1.71-.68,2.57-1a24.08,24.08,0,0,1,7.17-2.17,12.79,12.79,0,0,1,11.63,5.72c.28.44.41.56.48.58a.83.83,0,0,1,.9.77.86.86,0,0,1-.79.92Z" transform="translate(0.4)"/><path class="cls-3" d="M37.12,172a.85.85,0,0,1-.85-.79c-1.22-16.24,3.36-33.45,12.89-48.45a.85.85,0,0,1,.66-.39.86.86,0,0,1,.71.3c2.37,2.85,6.85,2.51,8.67,2.23,1.2-.19,2.43-.47,3.62-.75a29.17,29.17,0,0,1,6.58-1c3.72,0,7.92,2,8.76,5.84a.85.85,0,1,1-1.66.37c-.65-2.93-4.07-4.48-7.11-4.5a24.38,24.38,0,0,0-6.18,1c-1.22.29-2.48.59-3.75.78-3.92.6-7.28-.13-9.43-2-9,14.48-13.24,31-12.06,46.5a.85.85,0,0,1-.78.91Z" transform="translate(0.4)"/><path class="cls-3" d="M43.39,177.52a20.4,20.4,0,0,1-5.15-.66.85.85,0,0,1-.61-1l.73-3.17a.85.85,0,0,1,1.66.38l-.54,2.35a18.89,18.89,0,0,0,11-1c.94-.38,1.89-.86,2.81-1.33,2.23-1.12,4.54-2.28,7.13-2.39a9.53,9.53,0,0,1,8.3,4.35.85.85,0,0,1-1.44.91,7.87,7.87,0,0,0-6.79-3.56c-2.23.09-4.28,1.12-6.44,2.21-.95.48-1.93,1-2.93,1.38A20.56,20.56,0,0,1,43.39,177.52Z" transform="translate(0.4)"/><path class="cls-3" d="M98.82,179.24a29.9,29.9,0,0,1-7.12-.71A38.84,38.84,0,0,1,85.11,176a44.09,44.09,0,0,0-5.4-2.14c-3.46-1-8.38-1.06-10.87,2.19a.85.85,0,1,1-1.35-1c3-3.94,8.73-4,12.71-2.79a45.39,45.39,0,0,1,5.62,2.22,37,37,0,0,0,6.3,2.38,34.72,34.72,0,0,0,9,.63,119,119,0,0,1,11-38.2l-1.4-.66a.85.85,0,0,1,.73-1.54l2.18,1a.85.85,0,0,1,.4,1.14,117.26,117.26,0,0,0-11.28,39.15.85.85,0,0,1-.82.76C100.88,179.21,99.85,179.24,98.82,179.24Z" transform="translate(0.4)"/><path class="cls-3" d="M102.26,139.12a.85.85,0,0,1-.72-.39,15.72,15.72,0,0,0-20.69-5.38.85.85,0,0,1-.81-1.5,17.42,17.42,0,0,1,22.93,6,.85.85,0,0,1-.72,1.31Z" transform="translate(0.4)"/><path class="cls-3" d="M89.09,141.32a.85.85,0,0,1-.38-.09,14.4,14.4,0,0,0-10.41-.95.85.85,0,0,1-.48-1.63,16.11,16.11,0,0,1,11.65,1.06.85.85,0,0,1-.38,1.61Z" transform="translate(0.4)"/><path class="cls-3" d="M90,167.08a.85.85,0,0,1-.62-.27,17.42,17.42,0,0,0-14.12-5.38c-.49,0-.59.14-.6.15a.85.85,0,1,1-1.49-.82,2.33,2.33,0,0,1,1.93-1,19.14,19.14,0,0,1,15.53,5.92.85.85,0,0,1-.62,1.43Z" transform="translate(0.4)"/><path class="cls-3" d="M68.55,134.44a.84.84,0,0,1-.44-.12,19.06,19.06,0,0,0-15.51-1.86.85.85,0,1,1-.52-1.62,20.77,20.77,0,0,1,16.92,2,.85.85,0,0,1-.44,1.58Z" transform="translate(0.4)"/><path class="cls-3" d="M66.09,142a.85.85,0,0,1-.5-.16,15.53,15.53,0,0,0-12.34-2.52.85.85,0,1,1-.37-1.66,17.26,17.26,0,0,1,13.71,2.8.85.85,0,0,1-.5,1.54Z" transform="translate(0.4)"/><path class="cls-3" d="M63.54,160.89a.85.85,0,0,1-.6-.25,7.05,7.05,0,0,0-6.33-1.85.85.85,0,0,1-.36-1.66,8.78,8.78,0,0,1,7.89,2.3.85.85,0,0,1-.6,1.45Z" transform="translate(0.4)"/><path class="cls-9" d="M194.35,152.81c-1.46-1.28-.52-3.86,1.14-4.87s3.71-1.06,5.58-1.59a11.54,11.54,0,0,0,8-10.61,12.44,12.44,0,0,0-7.31-11.29,13.5,13.5,0,0,0-13.46,1.76,10.49,10.49,0,0,0-3,13.51,15.48,15.48,0,0,0,2.71,3.91c.93,1,2.72,1.84,3.43,2.91s.29,2.13.65,3.31A6.21,6.21,0,0,0,194.35,152.81Z" transform="translate(0.4)"/><path class="cls-9" d="M133.29,368.17c-2.58.67-4.79-2.39-4.65-5s1.67-5,2.5-7.56a15.82,15.82,0,0,0-5.84-17.3,17.06,17.06,0,0,0-18.44-.42,18.51,18.51,0,0,0-8.38,16.62,14.38,14.38,0,0,0,13,13.82,21.23,21.23,0,0,0,6.52-.06c1.84-.29,4.18-1.67,5.95-1.65s2.64,1.31,4.26,1.81A8.51,8.51,0,0,0,133.29,368.17Z" transform="translate(0.4)"/><path class="cls-9" d="M405.09,335.62a28,28,0,0,1,4.74,7.85l5.87,12.69a32.42,32.42,0,0,1-6.28-3.33l1.21,6.44a1.81,1.81,0,0,1,0,1.11c-.36.75-1.44.65-2.23.4a25.7,25.7,0,0,1-6.13-2.91,7.12,7.12,0,0,0,6.17,5.8,2.54,2.54,0,0,1,1.5.41,1.44,1.44,0,0,1,0,1.94,3.64,3.64,0,0,1-1.88,1,18.21,18.21,0,0,1-7.25.45,17.94,17.94,0,0,0,.21,5,54.09,54.09,0,0,1-14.3.72,2,2,0,0,1-1.19-.37,1.8,1.8,0,0,1-.44-.77c-1.23-3.54-.25-7.48-1-11.16-.91-4.42-4.23-8.05-5.18-12.47a12.39,12.39,0,0,1,2.84-10.7C386.85,332,399.36,329.62,405.09,335.62Z" transform="translate(0.4)"/><path class="cls-3" d="M390.42,349.34a1.78,1.78,0,0,1-.9-.21,1.75,1.75,0,0,1-.78-1.45,28.29,28.29,0,0,1-.22-3.17l-.28-.09,0,.39a26.49,26.49,0,0,1-.28,2.77c0,.24-.09.48-.14.71a1.09,1.09,0,0,1-1.07,1c-.78,0-1.43,0-1.55-.72a10.58,10.58,0,0,0-1.69-3.45,7.74,7.74,0,0,1-.62-7.43,6.42,6.42,0,0,1,6.48-3.6,6,6,0,0,1,4.3,2.93,6.31,6.31,0,0,1,.48,5.16,8.94,8.94,0,0,1-1,1.86,9,9,0,0,0-.73,1.32l-.07.18a4.36,4.36,0,0,0-.54,2.69.85.85,0,0,1-.16.75.88.88,0,0,1-.7.32h-.52Zm-1.84-13.57a4.84,4.84,0,0,0-4.18,2.69,6,6,0,0,0,.48,5.71,20.31,20.31,0,0,1,1.47,2.55c.08-.65.13-1.31.17-2s.08-1.23.11-1.83a4.49,4.49,0,0,1-.57-1.58,1.74,1.74,0,0,1,.08-1,1,1,0,0,1,.43-.51,1,1,0,0,1,1.24.16,1.27,1.27,0,0,1,.33.56,5.47,5.47,0,0,1,.21,1.83l.13.14.1.1c0-.2.05-.41.09-.61a3.07,3.07,0,0,1,.4-1.09,1.11,1.11,0,0,1,.88-.55,1.13,1.13,0,0,1,1.15,1.12,3.32,3.32,0,0,1-.24,1.79,2.3,2.3,0,0,1-.64.82c0,.68,0,1.37.08,2,.14-.43.31-.85.47-1.24l.07-.17a10.38,10.38,0,0,1,.87-1.57,7.65,7.65,0,0,0,.81-1.51,4.59,4.59,0,0,0-.34-3.75,4.34,4.34,0,0,0-3.07-2.09A3.79,3.79,0,0,0,388.58,335.77Z" transform="translate(0.4)"/><path class="cls-3" d="M389.54,350.21l-3.91,0a.85.85,0,0,1,0-1.7h0q2.67,0,5.35,0h0a.85.85,0,0,1,0,1.7Z" transform="translate(0.4)"/><path class="cls-3" d="M390.8,351.75h-5a.85.85,0,0,1,0-1.7h5a.85.85,0,0,1,0,1.7Z" transform="translate(0.4)"/><path class="cls-3" d="M390.09,353.32h-3.53a.85.85,0,0,1,0-1.7h3.53a.85.85,0,0,1,0,1.7Z" transform="translate(0.4)"/><path class="cls-3" d="M388.85,372.8q-2.27,0-4.53-.19a2.77,2.77,0,0,1-1.69-.59,2.58,2.58,0,0,1-.67-1.12,19.31,19.31,0,0,1-.73-6.5,23.51,23.51,0,0,0-.3-4.76,23.15,23.15,0,0,0-2.52-6.06,25.21,25.21,0,0,1-2.66-6.39,13.24,13.24,0,0,1,3-11.45c3.14-3.5,8.75-5.82,14.28-5.91,4.28-.07,8,1.27,10.39,3.77h0c2.24,2.35,3.65,5.39,4.89,8.08l5.87,12.69a.85.85,0,0,1-1.08,1.15,33.36,33.36,0,0,1-4.77-2.35l.85,4.51a2.6,2.6,0,0,1-.09,1.63c-.48,1-1.73,1.33-3.26.84a26.6,26.6,0,0,1-4.25-1.79,6.32,6.32,0,0,0,4.63,3l.18,0a2.91,2.91,0,0,1,1.81.61,2.29,2.29,0,0,1,0,3.13,4.45,4.45,0,0,1-2.3,1.25,19.15,19.15,0,0,1-6.69.58,17,17,0,0,0,.26,3.93.85.85,0,0,1-.68,1A54.91,54.91,0,0,1,388.85,372.8Zm4.52-41.28h-.28c-5,.08-10.24,2.23-13,5.34a11.52,11.52,0,0,0-2.64,10,23.64,23.64,0,0,0,2.5,6,18.83,18.83,0,0,1,3,11.63,17.77,17.77,0,0,0,.63,5.94,1.32,1.32,0,0,0,.21.42,1.57,1.57,0,0,0,.69.16,53.21,53.21,0,0,0,13.26-.56,18.81,18.81,0,0,1-.08-4.42.86.86,0,0,1,.32-.59.84.84,0,0,1,.64-.17,17.47,17.47,0,0,0,6.91-.43A2.93,2.93,0,0,0,407,364c.21-.24.24-.64.11-.75a1.73,1.73,0,0,0-.82-.18l-.2,0a8,8,0,0,1-6.92-6.51.85.85,0,0,1,1.3-.85,24.84,24.84,0,0,0,5.92,2.81c.7.22,1.16.15,1.21,0a1.54,1.54,0,0,0,0-.59l-1.21-6.44a.85.85,0,0,1,1.31-.86,31.45,31.45,0,0,0,4.09,2.35l-4.93-10.66a27.27,27.27,0,0,0-4.58-7.62h0C400.2,332.67,397.07,331.52,393.36,331.52Z" transform="translate(0.4)"/><path class="cls-3" d="M104.15,335.59c-.74,0-1.48-.06-2.21-.12s-1.44-.11-2.11-.12h0a.85.85,0,0,1-.76-1.22,24.84,24.84,0,0,0,.94-2.31c.75-2.05,1.54-4.18,3.4-5.46,5.37-3.69,11.08-7,16.61-10.2l4.54-2.63c2.79-1.61,5.59-3.19,8.4-4.76s5.63-3.16,8.42-4.78a.85.85,0,0,1,1.14.27c1.35,2.06,2.64,4.24,3.94,6.64a.85.85,0,0,1-.3,1.13c-12.64,7.71-25.57,15.37-38.43,22.75A7,7,0,0,1,104.15,335.59Zm-3-1.89,1,.08c1.78.15,3.46.29,4.8-.48h0c12.61-7.24,25.29-14.74,37.69-22.31-1-1.83-2-3.52-3-5.14-2.57,1.48-5.15,2.93-7.74,4.38-2.8,1.57-5.6,3.14-8.38,4.75l-4.54,2.63c-5.5,3.18-11.19,6.48-16.5,10.13-1.42,1-2.08,2.76-2.77,4.65C101.43,332.83,101.27,333.26,101.1,333.7Z" transform="translate(0.4)"/><path class="cls-3" d="M107.06,334.72a.85.85,0,0,1-.84-.74c-.27-2.14-1.76-3.94-3.54-5.91a.85.85,0,1,1,1.26-1.14c1.52,1.68,3.61,4,4,6.84a.85.85,0,0,1-.74,1Z" transform="translate(0.4)"/><path class="cls-3" d="M142.69,313.57a.85.85,0,0,1-.59-.23,14.56,14.56,0,0,1-4-6.61.85.85,0,0,1,1.64-.46,12.87,12.87,0,0,0,3.52,5.84.85.85,0,0,1-.59,1.47Z" transform="translate(0.4)"/><path class="cls-3" d="M106.22,331.16a.85.85,0,0,1-.44-1.58l34-20.7a.85.85,0,0,1,.88,1.45l-34,20.7A.85.85,0,0,1,106.22,331.16Z" transform="translate(0.4)"/><path class="cls-3" d="M327.51,389.67h-.14L297,384.56a1.4,1.4,0,0,1-.58-.26h0a.85.85,0,0,1-.58-.95l7.72-46.08a1.09,1.09,0,0,1,.2-.65,1.11,1.11,0,0,1,.82-.48h.23l25.34,5.09a3.53,3.53,0,0,1,.5.16l.22.08a1,1,0,0,1,.62.53,91.78,91.78,0,0,1,3.23,9.75.84.84,0,0,1,0,.35l-5.79,34.57a.86.86,0,0,1-.15.35,2.66,2.66,0,0,0-.39,1.72.85.85,0,0,1-.85.91Zm-29.93-6.73,29.11,4.88a3.94,3.94,0,0,1,.56-1.6L333,352a89.4,89.4,0,0,0-3-9h0l-.23-.08-24.64-5Zm-1.09,1.38h0Z" transform="translate(0.4)"/><path class="cls-3" d="M333.64,353.06h-.15a38.33,38.33,0,0,1-7.65-2.19,4.83,4.83,0,0,0-1.51-.42.85.85,0,0,1-.59-1.34c1.73-2.4,3.56-4.78,5.44-7.08a.85.85,0,0,1,1.31,1.08c-1.59,1.94-3.14,3.93-4.62,5.95l.6.23a36.61,36.61,0,0,0,7.31,2.09.85.85,0,0,1-.15,1.69Z" transform="translate(0.4)"/><path class="cls-3" d="M317.91,346.15h-.14l-11.84-2a.85.85,0,1,1,.28-1.68l11.84,2a.85.85,0,0,1-.14,1.69Z" transform="translate(0.4)"/><path class="cls-3" d="M316.41,350h-.14l-11-1.85a.85.85,0,1,1,.28-1.68l11,1.85a.85.85,0,0,1-.14,1.69Z" transform="translate(0.4)"/><path class="cls-3" d="M313.29,353.6h-.14l-8.56-1.44a.85.85,0,1,1,.28-1.68l8.56,1.44a.85.85,0,0,1-.14,1.69Z" transform="translate(0.4)"/><path class="cls-3" d="M314.8,358h-.14l-10.75-1.8a.85.85,0,1,1,.28-1.68l10.75,1.8a.85.85,0,0,1-.14,1.69Z" transform="translate(0.4)"/><path class="cls-3" d="M327.08,377.09h-.14l-8.79-1.47a.85.85,0,1,1,.28-1.68l8.79,1.47a.85.85,0,0,1-.14,1.69Z" transform="translate(0.4)"/><path class="cls-3" d="M326.42,381h-.14L319,379.81a.85.85,0,0,1,.28-1.68l7.23,1.21a.85.85,0,0,1-.14,1.69Z" transform="translate(0.4)"/><path class="cls-3" d="M325.76,385h-.14l-7.08-1.19a.85.85,0,0,1,.28-1.68l7.08,1.19a.85.85,0,0,1-.14,1.69Z" transform="translate(0.4)"/><path class="cls-3" d="M328.44,119.29h-.12l-36.08-4.93a.85.85,0,0,1-.12-1.66l36.09-10.35a.85.85,0,0,1,.41,0l38.26,8.33a.85.85,0,0,1,0,1.67l-38.26,7Zm-32-6.08,32,4.36,33.94-6.17L328.47,104Z" transform="translate(0.4)"/><path class="cls-3" d="M327.77,132.17a24.84,24.84,0,0,1-16.52-6.1.85.85,0,0,1-.29-.64v-9.27a.85.85,0,0,1,1.7,0V125c6.85,5.88,17.1,7.11,25.65,3.06a9.44,9.44,0,0,0,4.38-3.55l0-.13a2.78,2.78,0,0,1,0-.35v-8.36a.85.85,0,0,1,1.7,0l0,8.44a1.55,1.55,0,0,1-.05,1,10.78,10.78,0,0,1-5.25,4.48A26.33,26.33,0,0,1,327.77,132.17Zm14.93-7.49Zm.08-.31h0Z" transform="translate(0.4)"/><path class="cls-3" d="M328.57,131.54a.85.85,0,0,1-.85-.85V118.46a.85.85,0,1,1,1.7,0v12.23A.85.85,0,0,1,328.57,131.54Z" transform="translate(0.4)"/><path class="cls-3" d="M303.55,140.86a.85.85,0,0,1-.85-.77,185,185,0,0,1-.67-26.54.85.85,0,0,1,.72-.8l24.57-3.82a.85.85,0,0,1,.26,1.68l-23.89,3.72a183.06,183.06,0,0,0,.7,25.6.85.85,0,0,1-.76.93Z" transform="translate(0.4)"/><path class="cls-3" d="M300.5,149.67a1.45,1.45,0,0,1-.73-.2,2.49,2.49,0,0,1-1-1.48,10.58,10.58,0,0,1-.12-4.24,5.59,5.59,0,0,1,1.65-3.61h0a5.26,5.26,0,0,1,4.57-1.18,4.39,4.39,0,0,1,3.08,2.64,8.28,8.28,0,0,1,.12,6.12,2.58,2.58,0,0,1-.76,1.16,1.59,1.59,0,0,1-1.93.09,1.47,1.47,0,0,1-.41-.49,1.29,1.29,0,0,1-.2.54,1.21,1.21,0,0,1-1.06.54,1.48,1.48,0,0,1-1.22-.72,2.1,2.1,0,0,1-.26-1l0,.09a4.44,4.44,0,0,1-.24.73,1.7,1.7,0,0,1-1.08,1A1.44,1.44,0,0,1,300.5,149.67Zm.13-1.67h0Zm3.13-7.47a3.71,3.71,0,0,0-2.37.91h0a4.1,4.1,0,0,0-1.06,2.55,8.94,8.94,0,0,0,.08,3.57,1.22,1.22,0,0,0,.07.2c0-.09.05-.19.08-.29a4,4,0,0,1,.29-.83,1.93,1.93,0,0,1,1.11-1,1.43,1.43,0,0,1,1.12.1,1.51,1.51,0,0,1,.65.72,1.45,1.45,0,0,1,1.28-.73,1.54,1.54,0,0,1,1.36,1.45v.07c0-.08.06-.15.08-.19a6.57,6.57,0,0,0-.09-4.85,2.69,2.69,0,0,0-1.9-1.65A3.06,3.06,0,0,0,303.75,140.53Zm-2.92.26h0Z" transform="translate(0.4)"/><path class="cls-9" d="M49.65,374.79a8.2,8.2,0,0,1-2.78-.44,6.2,6.2,0,0,1-3.39-3.2,2.41,2.41,0,0,1,.21-2.14c.57-.9,2.45-1.25,6.75-1.75.86-.1,1.67-.19,2-.27A113.4,113.4,0,0,0,69,361.87c.91-.36,2.44-1,3.78-.26A4.35,4.35,0,0,1,74,362.69c.11.13.22.26.34.38a3.66,3.66,0,0,0,5.28-.42.85.85,0,0,1,1.53.64c-.6,3.29-4,4.79-7,5.73a151.48,151.48,0,0,1-21.36,5.46A19.63,19.63,0,0,1,49.65,374.79ZM71.37,363a5.22,5.22,0,0,0-1.76.47h0a115.11,115.11,0,0,1-16.8,5.22c-.42.09-1.19.18-2.18.3-1.5.17-5,.58-5.56,1a.79.79,0,0,0,0,.6,4.54,4.54,0,0,0,2.36,2.15,10.48,10.48,0,0,0,5.09,0,149.78,149.78,0,0,0,21.12-5.4,15,15,0,0,0,3.9-1.75l-.35,0a5.11,5.11,0,0,1-4.08-1.42c-.14-.15-.28-.3-.42-.46a3,3,0,0,0-.74-.69A1.25,1.25,0,0,0,71.37,363Zm-2.07-.32h0Z" transform="translate(0.4)"/><path class="cls-9" d="M48.28,369a.85.85,0,0,1-.8-.56c-3.66-10.08-7.12-20.39-10.28-30.63-.63-2-1.2-4.37,0-6.32a7.54,7.54,0,0,1,3.65-2.7c8.89-4,18.75-6.16,27.46-8.11a.85.85,0,0,1,1,.59,146.74,146.74,0,0,0,5.41,14.5c2.74,6.61,5.57,13.45,6.91,20.63.41,2.2.67,4.73-.55,6.82a.85.85,0,0,1-1.47-.86c.94-1.61.7-3.76.35-5.65-1.31-7-4.11-13.76-6.81-20.29-1.87-4.51-3.79-9.16-5.25-13.91-8.44,1.89-17.89,4.06-26.37,7.83a6.1,6.1,0,0,0-2.89,2c-.82,1.35-.33,3.25.19,4.93,3.15,10.21,6.6,20.49,10.25,30.55a.85.85,0,0,1-.51,1.09A.86.86,0,0,1,48.28,369Z" transform="translate(0.4)"/><path class="cls-9" d="M71.13,330.35a.85.85,0,0,1-.62-1.43,7.56,7.56,0,0,1,4.17-2.25,5.32,5.32,0,0,0-1.87-3.22,5.12,5.12,0,0,0-4.2-1.24.85.85,0,1,1-.32-1.67,7.11,7.11,0,0,1,8.13,6.91.85.85,0,0,1-.8.82,5.84,5.84,0,0,0-3.88,1.82A.85.85,0,0,1,71.13,330.35Z" transform="translate(0.4)"/><path class="cls-9" d="M42.25,339.67a.85.85,0,0,1-.39-1.61,77.54,77.54,0,0,1,22.39-7.38.85.85,0,1,1,.28,1.68,75.82,75.82,0,0,0-21.9,7.21A.85.85,0,0,1,42.25,339.67Z" transform="translate(0.4)"/><path class="cls-9" d="M43.92,345.21a.85.85,0,0,1-.28-1.65l13.63-4.81a9.17,9.17,0,0,1,5.14-.73.85.85,0,1,1-.39,1.65,8,8,0,0,0-4.19.68l-13.63,4.81A.84.84,0,0,1,43.92,345.21Z" transform="translate(0.4)"/><path class="cls-9" d="M46.63,352.16a.85.85,0,0,1-.3-1.65l15.26-5.81a.85.85,0,0,1,.61,1.59L46.94,352.1A.85.85,0,0,1,46.63,352.16Z" transform="translate(0.4)"/><path class="cls-9" d="M49.19,358.88a.85.85,0,0,1-.27-1.66c4.75-1.57,9.58-3.11,14.36-4.58a.85.85,0,1,1,.5,1.63c-4.77,1.47-9.59,3-14.32,4.57A.85.85,0,0,1,49.19,358.88Z" transform="translate(0.4)"/><path class="cls-9" d="M85.83,325.71a.85.85,0,0,1-.8-1.15,57.37,57.37,0,0,1,4.2-8.9.85.85,0,1,1,1.47.86,55.78,55.78,0,0,0-4.07,8.64A.85.85,0,0,1,85.83,325.71Z" transform="translate(0.4)"/><path class="cls-9" d="M74.41,313.53H74.3a.85.85,0,0,1-.74-.95l.67-5.37a.85.85,0,0,1,1.69.21l-.67,5.37A.85.85,0,0,1,74.41,313.53Z" transform="translate(0.4)"/><path class="cls-9" d="M63.41,314.25a.85.85,0,0,1-.82-.63l-1-3.66a.85.85,0,0,1,1.64-.43l1,3.66a.85.85,0,0,1-.61,1A.83.83,0,0,1,63.41,314.25Z" transform="translate(0.4)"/><path class="cls-9" d="M50.73,316.94a.85.85,0,0,1-.78-.5,35.23,35.23,0,0,0-2.61-4.76.85.85,0,1,1,1.42-.93,36.93,36.93,0,0,1,2.73,5,.85.85,0,0,1-.77,1.2Z" transform="translate(0.4)"/><path class="cls-9" d="M41.71,321.81a.85.85,0,0,1-.78-.5,12,12,0,0,0-3.62-4.57.85.85,0,1,1,1-1.35,13.7,13.7,0,0,1,4.13,5.22.85.85,0,0,1-.77,1.2Z" transform="translate(0.4)"/><path class="cls-9" d="M31.44,330.15a.85.85,0,0,1-.54-.2,22.21,22.21,0,0,0-6.74-3.84.85.85,0,0,1,.57-1.6A23.94,23.94,0,0,1,32,328.65a.85.85,0,0,1-.54,1.5Z" transform="translate(0.4)"/><path class="cls-9" d="M30,340.57a.85.85,0,0,1-.31-.06c-2.53-1-5.13-1.92-7.72-2.74a.85.85,0,0,1,.52-1.62c2.63.84,5.26,1.77,7.82,2.78a.85.85,0,0,1-.31,1.64Z" transform="translate(0.4)"/><path class="cls-9" d="M27,351.54h-.63a.85.85,0,0,1-.83-.87.83.83,0,0,1,.87-.83,22,22,0,0,0,5.16-.48.85.85,0,1,1,.36,1.66A23.39,23.39,0,0,1,27,351.54Z" transform="translate(0.4)"/><path class="cls-8" d="M309.35,184.29a5.29,5.29,0,0,1-2.07-.37,3.86,3.86,0,0,1-2-2.15,1.74,1.74,0,0,1,.24-1.52c.43-.61,1.41-.77,4.15-.94.49,0,.9-.05,1.1-.09a63.9,63.9,0,0,0,9.46-2.4h0a2.91,2.91,0,0,1,2.45,0,2.81,2.81,0,0,1,.76.74l.17.21a1.71,1.71,0,0,0,2.44-.07.85.85,0,0,1,1.49.72c-.54,2.3-3.33,3-4.38,3.3a86.23,86.23,0,0,1-12.31,2.46A13.48,13.48,0,0,1,309.35,184.29Zm-2.47-3a2.32,2.32,0,0,0,1.05,1,5.63,5.63,0,0,0,2.7.15,84.67,84.67,0,0,0,12.06-2.41q.54-.14,1-.3a3.09,3.09,0,0,1-1.38-.89l-.24-.29a1.61,1.61,0,0,0-.3-.33c-.21-.12-.77.06-1,.15h0A65.49,65.49,0,0,1,311,180.9c-.26,0-.69.07-1.28.11A20.35,20.35,0,0,0,306.88,181.31Zm13.58-3.68h0Z" transform="translate(0.4)"/><path class="cls-8" d="M308.41,181a.85.85,0,0,1-.81-.6c-1.77-5.8-3.42-11.74-4.9-17.66-.23-.9-.65-2.58.23-3.87a4.58,4.58,0,0,1,2.32-1.55c5.18-2,10.85-2.94,15.85-3.78a.85.85,0,0,1,1,.64,82.89,82.89,0,0,0,2.62,8.33,60,60,0,0,1,3.31,12,5.9,5.9,0,0,1-.57,4.09.85.85,0,1,1-1.42-.93,4.46,4.46,0,0,0,.31-2.94A58.71,58.71,0,0,0,323.07,163c-.89-2.51-1.8-5.1-2.48-7.73a78,78,0,0,0-14.75,3.56,3.19,3.19,0,0,0-1.52.92,3.36,3.36,0,0,0,0,2.5c1.48,5.88,3.12,11.8,4.88,17.58a.85.85,0,0,1-.81,1.1Z" transform="translate(0.4)"/><path class="cls-8" d="M322.49,159.78a.85.85,0,0,1-.59-1.46,4.67,4.67,0,0,1,2.26-1.19,2.74,2.74,0,0,0-.79-1.31,2.53,2.53,0,0,0-2-.73.85.85,0,0,1-.23-1.68,4.4,4.4,0,0,1,4.81,4.55.85.85,0,0,1-.84.78,2.94,2.94,0,0,0-2,.81A.85.85,0,0,1,322.49,159.78Z" transform="translate(0.4)"/><path class="cls-8" d="M305.87,164.18a.85.85,0,0,1-.34-1.63,44.3,44.3,0,0,1,13-3.53.85.85,0,0,1,.19,1.69,42.59,42.59,0,0,0-12.5,3.4A.85.85,0,0,1,305.87,164.18Z" transform="translate(0.4)"/><path class="cls-8" d="M306.66,167.37a.85.85,0,0,1-.24-1.67l7.86-2.31a5.57,5.57,0,0,1,3.14-.26.85.85,0,0,1-.48,1.63,4,4,0,0,0-2.18.26l-7.86,2.31A.86.86,0,0,1,306.66,167.37Z" transform="translate(0.4)"/><path class="cls-8" d="M308,171.38a.85.85,0,0,1-.26-1.66l8.81-2.83a.85.85,0,1,1,.52,1.62l-8.81,2.83A.85.85,0,0,1,308,171.38Z" transform="translate(0.4)"/><path class="cls-8" d="M309.22,175.26a.85.85,0,0,1-.22-1.67c2.74-.75,5.52-1.47,8.27-2.16a.85.85,0,1,1,.41,1.65c-2.74.69-5.51,1.41-8.23,2.15A.85.85,0,0,1,309.22,175.26Z" transform="translate(0.4)"/><path class="cls-9" d="M346.38,167.46h-.5a86.21,86.21,0,0,1-12.5-1,7,7,0,0,1-3.33-1.24,3.87,3.87,0,0,1-1.37-2.63,1.74,1.74,0,0,1,.64-1.39c.59-.47,1.57-.35,4.25.24.48.11.88.2,1.08.22a63.72,63.72,0,0,0,9.76.3,2.91,2.91,0,0,1,2.36.68,2.81,2.81,0,0,1,.53.92l.1.25a1.71,1.71,0,0,0,2.36.61.85.85,0,0,1,1.24,1.11C350,167.28,347.68,167.46,346.38,167.46Zm-16-4.88a2.34,2.34,0,0,0,.73,1.28,5.63,5.63,0,0,0,2.55.89,84.56,84.56,0,0,0,12.26,1q.56,0,1,0a3.09,3.09,0,0,1-1.08-1.23c-.05-.11-.1-.23-.15-.34a1.57,1.57,0,0,0-.2-.39c-.17-.18-.75-.15-1-.14h0a65.56,65.56,0,0,1-10-.31c-.26,0-.68-.12-1.26-.25A20.23,20.23,0,0,0,330.38,162.58Zm14.07.2h0Zm-14.24-.19Z" transform="translate(0.4)"/><path class="cls-9" d="M350.33,165.76a.85.85,0,0,1-.55-1.49,4.47,4.47,0,0,0,1.11-2.74,58.79,58.79,0,0,0,.09-12c-.16-2.66-.33-5.4-.25-8.12a77.93,77.93,0,0,0-15.16-.64,3.19,3.19,0,0,0-1.72.47,3.35,3.35,0,0,0-.68,2.41c-.2,6.05-.25,12.19-.15,18.24a.85.85,0,0,1-.84.86h0a.85.85,0,0,1-.85-.84c-.1-6.08,0-12.25.15-18.32,0-.93.08-2.66,1.29-3.66a4.58,4.58,0,0,1,2.66-.85c5.53-.48,11.24.16,16.28.73a.85.85,0,0,1,.75.88,82.87,82.87,0,0,0,.22,8.73,60.06,60.06,0,0,1-.11,12.4,5.9,5.9,0,0,1-1.68,3.78A.84.84,0,0,1,350.33,165.76Z" transform="translate(0.4)"/><path class="cls-9" d="M351.56,146.21a.85.85,0,0,1-.4-1.6,4.62,4.62,0,0,1,2.5-.52,2.74,2.74,0,0,0-.4-1.47,2.53,2.53,0,0,0-1.75-1.27.85.85,0,1,1,.24-1.68,4.4,4.4,0,0,1,3.37,5.7.85.85,0,0,1-1,.52,2.94,2.94,0,0,0-2.14.23A.85.85,0,0,1,351.56,146.21Z" transform="translate(0.4)"/><path class="cls-9" d="M347.58,146h-.14a42.55,42.55,0,0,0-13-.18.85.85,0,0,1-.23-1.68,44.27,44.27,0,0,1,13.47.19.85.85,0,0,1-.14,1.69Z" transform="translate(0.4)"/><path class="cls-9" d="M345.06,149.57a.85.85,0,0,1-.45-.13,4,4,0,0,0-2.17-.35l-8.19.06h0a.85.85,0,0,1,0-1.7l8.19-.06a5.59,5.59,0,0,1,3.09.62.85.85,0,0,1-.46,1.57Z" transform="translate(0.4)"/><path class="cls-9" d="M334.41,153.37a.85.85,0,0,1,0-1.7l9.25-.29a.85.85,0,0,1,.05,1.7l-9.25.29Z" transform="translate(0.4)"/><path class="cls-9" d="M343.06,157.64h0c-2.81-.09-5.67-.16-8.51-.2a.85.85,0,0,1,0-1.7h0c2.85,0,5.73.1,8.54.2a.85.85,0,0,1,0,1.7Z" transform="translate(0.4)"/><path class="cls-3" d="M110,387.28A63.19,63.19,0,0,1,80.33,380a30.28,30.28,0,0,1-8.73-6.49.85.85,0,0,1,1.28-1.12,28.67,28.67,0,0,0,8.26,6.12A62.24,62.24,0,0,0,134,380.72a.85.85,0,1,1,.67,1.56A62.47,62.47,0,0,1,110,387.28Z" transform="translate(0.4)"/><path class="cls-3" d="M133.86,386.61h-.06a.85.85,0,0,1-.79-.91,32.14,32.14,0,0,1,.66-4.07l-2.86-2.21a.85.85,0,0,1,1-1.35l3.28,2.53a.85.85,0,0,1,.31.85l-.06.31a32.72,32.72,0,0,0-.67,4.05A.85.85,0,0,1,133.86,386.61Z" transform="translate(0.4)"/><path class="cls-9" d="M219.9,349.27c-1.7-12.5-1.4-24.72-.11-37.27h53.51c.47,0,1.08.47,1.55.47q-.69,18.13-.66,36.28a4,4,0,0,0-1.35,0Z" transform="translate(0.4)"/><path class="cls-3" d="M278.55,349.15h0a.85.85,0,0,1-.83-.87l.9-33.32c.06-2.41-.09-4.8-1.68-5.91a6.65,6.65,0,0,0-3.36-.81c-17.1-1.16-34.48-1.62-51.63-1.33-2.9,0-6.05.39-7.38,2.55a8.29,8.29,0,0,0-.79,4.24c-.15,11.33.12,22.81.82,34.13a.85.85,0,1,1-1.7.1c-.7-11.36-1-22.88-.82-34.26a9.61,9.61,0,0,1,1-5.11c1.76-2.86,5.44-3.3,8.8-3.36,17.2-.28,34.62.17,51.77,1.33a8.21,8.21,0,0,1,4.22,1.12c2.25,1.58,2.48,4.6,2.41,7.35l-.9,33.32A.85.85,0,0,1,278.55,349.15Z" transform="translate(0.4)"/><path class="cls-3" d="M282.15,357.52H215a11,11,0,0,0-2.62-.14,8.28,8.28,0,0,1-8.83-8.09.85.85,0,0,1,.85-.9h84.26s.08-.08.14-.12a3.45,3.45,0,0,1,.41-.25.85.85,0,0,1,1.23.68,7.88,7.88,0,0,1-2,6.13A8.45,8.45,0,0,1,282.15,357.52Zm-66.94-1.7h66.94a6.74,6.74,0,0,0,5-2.16,6.15,6.15,0,0,0,1.58-3.59h-83.4a6.52,6.52,0,0,0,7,5.59A12.94,12.94,0,0,1,215.21,355.82Z" transform="translate(0.4)"/><path class="cls-1" d="M235.05,335.56a.85.85,0,0,1-.83-.67,46.51,46.51,0,0,0-1.94-6.52,4.1,4.1,0,0,0-.8-1.47,1.66,1.66,0,0,0-2.76.72.85.85,0,1,1-1.63-.47,3.36,3.36,0,0,1,5.59-1.46,5.55,5.55,0,0,1,1.2,2.08,48.12,48.12,0,0,1,2,6.76.85.85,0,0,1-.65,1Z" transform="translate(0.4)"/><path class="cls-1" d="M230.74,337.28a4.83,4.83,0,0,1-.65,0,3.21,3.21,0,0,1-2.37-1.36,3.15,3.15,0,0,1,.37-3.57,7.87,7.87,0,0,1,2.07-1.71l.3-.2a21.67,21.67,0,0,0,2.41-1.83.85.85,0,1,1,1.12,1.28,23.33,23.33,0,0,1-2.6,2l-.31.2a6.55,6.55,0,0,0-1.65,1.33,1.51,1.51,0,0,0-.28,1.61,1.6,1.6,0,0,0,1.16.58,3.57,3.57,0,0,0,3.63-2,.85.85,0,0,1,1.56.68A5.27,5.27,0,0,1,230.74,337.28Z" transform="translate(0.4)"/><path class="cls-1" d="M242.75,336.6a.85.85,0,0,1-.85-.84,98.86,98.86,0,0,1,1.22-16.26.85.85,0,1,1,1.68.27,97.07,97.07,0,0,0-1.2,16,.85.85,0,0,1-.84.86Z" transform="translate(0.4)"/><path class="cls-1" d="M247.1,337.24a7.47,7.47,0,0,1-4.71-1.93.85.85,0,0,1,1.09-1.31,5.94,5.94,0,0,0,3.62,1.54h0a2.89,2.89,0,0,0,2.77-1.81,3.41,3.41,0,0,0,.1-1.1,3.58,3.58,0,0,0-.83-2.34,3.09,3.09,0,0,0-2.08-.77,5.66,5.66,0,0,0-2.46.68c-.49.25-.65.47-.64.54a.85.85,0,0,1-.82.88.82.82,0,0,1-.88-.82c0-.59.23-1.44,1.58-2.12a7.33,7.33,0,0,1,3.21-.87,4.49,4.49,0,0,1,3.31,1.28,5.22,5.22,0,0,1,1.32,3.46,5,5,0,0,1-.17,1.65,4.58,4.58,0,0,1-4.39,3Z" transform="translate(0.4)"/><path class="cls-1" d="M260.14,335.17a4.21,4.21,0,0,1-2-.48,4.5,4.5,0,0,1-2.08-2.85,6.17,6.17,0,0,1,.46-4.33,4.17,4.17,0,0,1,2.83-2.32,3,3,0,0,1,2.24.49,2.49,2.49,0,0,1,1.07,1.61.85.85,0,0,1-1.68.29.81.81,0,0,0-.36-.5,1.33,1.33,0,0,0-1-.21,2.54,2.54,0,0,0-1.63,1.43,4.45,4.45,0,0,0-.33,3.12,2.8,2.8,0,0,0,1.25,1.79,3.26,3.26,0,0,0,2.17.17,2.71,2.71,0,0,0,1.12-.46.93.93,0,0,0,.39-.69.85.85,0,0,1,.82-.88.87.87,0,0,1,.88.82,2.6,2.6,0,0,1-1,2.08,4.32,4.32,0,0,1-1.83.79A6.23,6.23,0,0,1,260.14,335.17Z" transform="translate(0.4)"/><path class="cls-3" d="M310.18,330.62a.85.85,0,0,1-.82-.63,19.29,19.29,0,0,0-23.17-13.72.85.85,0,0,1-.4-1.65A21,21,0,0,1,311,329.55a.85.85,0,0,1-.6,1Z" transform="translate(0.4)"/><path class="cls-3" d="M285.94,320.48h-.07a.85.85,0,0,1-.78-.92,12,12,0,0,0-1.3-6.48.85.85,0,0,1,1.51-.79,13.7,13.7,0,0,1,1.49,7.41A.85.85,0,0,1,285.94,320.48Z" transform="translate(0.4)"/><path class="cls-3" d="M310.28,330.68a.85.85,0,0,1-.43-.12,33.94,33.94,0,0,0-3.31-1.71.85.85,0,0,1,.7-1.55c.95.43,1.89.9,2.8,1.4.13-.22.24-.46.36-.71l.87-1.85.08-.15a.85.85,0,1,1,1.46.87l-.87,1.86a6.71,6.71,0,0,1-1,1.68A.85.85,0,0,1,310.28,330.68Z" transform="translate(0.4)"/><path class="cls-3" d="M255.7,391.4a53.26,53.26,0,0,1-8.27-.69c-8.09-1.27-14.05-3.9-18.23-8a20,20,0,0,1-2.07-2.4,27.91,27.91,0,0,1-11,2.38h-.38a32.63,32.63,0,0,1-26.33-13.89.85.85,0,0,1,1.41-1,30.8,30.8,0,0,0,25.28,13.15,26.25,26.25,0,0,0,10.07-2.12,15.35,15.35,0,0,1-1.93-5.06,12.08,12.08,0,0,1,2.43-9.94,8.43,8.43,0,0,1,5.3-3,6.1,6.1,0,0,1,5.72,2.43c1.59,2.31,1.26,5.66-.88,9a21.82,21.82,0,0,1-8.15,7.3,18.54,18.54,0,0,0,1.71,2c3.92,3.88,9.58,6.36,17.3,7.57a41.48,41.48,0,0,0,16.91-.4,24.62,24.62,0,0,0,13.87-8.88,17.4,17.4,0,0,0,2.78-15.68.85.85,0,1,1,1.61-.55,19.12,19.12,0,0,1-3,17.24A26.33,26.33,0,0,1,265,390.28,37.39,37.39,0,0,1,255.7,391.4Zm-23-28.92a4.63,4.63,0,0,0-.54,0,6.72,6.72,0,0,0-4.2,2.42,10.37,10.37,0,0,0-2.06,8.53,13.68,13.68,0,0,0,1.79,4.63,20.17,20.17,0,0,0,7.68-6.81c1.35-2.09,2.3-5,.9-7.07A4.37,4.37,0,0,0,232.73,362.48Z" transform="translate(0.4)"/><path class="cls-3" d="M280.33,368.12a.84.84,0,0,1-.27,0,.85.85,0,0,1-.54-1.07,23.12,23.12,0,0,1,1.75-4,.85.85,0,0,1,1.15-.33l3.33,1.83a.85.85,0,1,1-.82,1.49l-2.57-1.42a21.51,21.51,0,0,0-1.23,3A.85.85,0,0,1,280.33,368.12Z" transform="translate(0.4)"/><path class="cls-3" d="M188.49,369.25a2.52,2.52,0,0,1-1.16-.28,3,3,0,0,1-1.49-3,3.22,3.22,0,0,1,2.47-2.74,3,3,0,0,1,3.32,1.72,2.8,2.8,0,0,1-1.23,3.47,2.41,2.41,0,0,1-1.11.72A2.68,2.68,0,0,1,188.49,369.25Zm.4-4.39-.23,0a1.54,1.54,0,0,0-1.14,1.28,1.32,1.32,0,0,0,.6,1.3.9.9,0,0,0,.66,0,.67.67,0,0,0,.4-.3.85.85,0,0,1,.63-.45,1.14,1.14,0,0,0,.25-1.17A1.29,1.29,0,0,0,188.89,364.86Z" transform="translate(0.4)"/><path class="cls-8" d="M345.14,360.73a.85.85,0,0,1-.76-1.23l1.92-3.86a1.17,1.17,0,0,0,.13-.43,11,11,0,0,1-1.61-.65,6.24,6.24,0,0,0-1.34-.52.85.85,0,0,1-.75-1c.11-.45.23-1,.36-1.59.9-4.07,2.26-10.23,4.94-12.39,2.36-1.91,4.49-1.17,7-.32.59.21,1.22.42,1.91.63,1,.31,8.87,2.6,9.43,2.75l.1,0a.85.85,0,0,1,.55,1.06l-4.83,15.75a.85.85,0,0,1-1.25.48c-2.68-1.59-5.54-3.08-8.2-2.35a11.28,11.28,0,0,0-3.15,1.67,10.82,10.82,0,0,1-4.29,2Zm-.56-8.14c.31.12.63.27,1,.42a6.19,6.19,0,0,0,1.68.62.85.85,0,0,1,.75.56,2.71,2.71,0,0,1-.15,2.22l-1,2c.59-.31,1.18-.7,1.78-1.11a12.72,12.72,0,0,1,3.64-1.89c3-.81,5.85.44,8.58,2l4.26-13.91c-.77-.2-1.91-.53-3.58-1l-5.1-1.5c-.71-.21-1.37-.44-2-.65-2.5-.87-3.77-1.22-5.33,0-2.21,1.78-3.6,8.06-4.34,11.43Z" transform="translate(0.4)"/><path class="cls-9" d="M338.75,332.49c3.61-.08,6.74-2.52,10.28-3.25a38.5,38.5,0,0,1,5.91-.37A51.83,51.83,0,0,0,365,327a2.09,2.09,0,0,0,1.09-.52,2.11,2.11,0,0,0,.26-1.72l-1.85-13.45c-5.39.65-21.5,1.11-22.17,6C342,320,346.44,332.32,338.75,332.49Z" transform="translate(0.4)"/><path class="cls-10" d="M353.58,317.89a3.39,3.39,0,0,0-.85-.88,1.15,1.15,0,0,0-1.16-.09c-.62.36-.53,1.27-.31,2a12.08,12.08,0,0,0,2.52,4.31,3,3,0,0,0,1.86,1.13,2.2,2.2,0,0,0,1.67-.73,5.42,5.42,0,0,0,1-1.6c.86-1.93,1.43-4.16.71-6.14a.69.69,0,0,0-1-.49c-2.1.6-2.37,2.2-3.55,3.59A7.91,7.91,0,0,1,353.58,317.89Z" transform="translate(0.4)"/><path class="cls-8" d="M437.38,329.3a11.15,11.15,0,0,1,7-5.93,16.49,16.49,0,0,1,9.37.21,11.85,11.85,0,0,1,4.31,2.15c2.44,2.05,3.46,5.35,3.85,8.51a15.38,15.38,0,0,1-.25,6c-1.68,6.05-8.41,9.4-10.92,15.16-.16.36-.34.78-.71.91a1.39,1.39,0,0,1-.74,0l-5.7-1.17c-1.16-.24-4.09-.27-4.85-1.27s.15-2.69.22-3.68a18.38,18.38,0,0,0-.28-4.15c-.47-2.91-1.4-5.72-1.89-8.63a18.88,18.88,0,0,1-.32-4.3C436.58,331.85,437.38,330.45,437.38,329.3Z" transform="translate(0.4)"/><path class="cls-3" d="M448,356.65a8.8,8.8,0,0,1-1.87-.4,1.4,1.4,0,0,1-1.11-1.64c0-.08,0-.16,0-.26,0-.57,0-1.14,0-1.71a64.28,64.28,0,0,1,.82-6.7c.16-1,.32-2,.49-3a4.48,4.48,0,0,1-3.25.58,68.32,68.32,0,0,1-2.4,8.28l-.07.19a3.18,3.18,0,0,1-1.85,2.29,4,4,0,0,1-2.27-.17,6.5,6.5,0,0,0-.65-.16.85.85,0,0,1-.61-1.23c1.2-2.28.73-5,.28-7.56l-.08-.47a23.07,23.07,0,0,0-1.11-3.77,21.17,21.17,0,0,1-1.28-4.74A14.33,14.33,0,0,1,436.73,325a13.71,13.71,0,0,1,10.92-4.31c5.86.47,11.12,5.19,12.53,11.22a17.76,17.76,0,0,1-5.06,16.25l-.12.12c-2.19,2.16-5.2,5.11-6.21,7.82A.71.71,0,0,1,448,356.65Zm-1.28-2,.73.18c1.33-2.85,4.19-5.66,6.33-7.76l.12-.12a16,16,0,0,0,4.59-14.65c-1.24-5.33-5.87-9.5-11-9.91a12,12,0,0,0-9.53,3.77,12.61,12.61,0,0,0-3.18,9.83,19.71,19.71,0,0,0,1.19,4.36,24.67,24.67,0,0,1,1.18,4.05l.08.47c.42,2.43.9,5.14,0,7.67a2.24,2.24,0,0,0,1.11.12c.34-.1.56-.73.73-1.23l.07-.2a66.49,66.49,0,0,0,2.42-8.44l0-.13a4.36,4.36,0,0,1-1.24-2.23,7,7,0,0,1,.36-3.77c.33-1,1.06-1.49,1.84-1.27a1.52,1.52,0,0,1,1,1,6.32,6.32,0,0,1,.3,2.37,20.15,20.15,0,0,1-.36,3.06h0a3.22,3.22,0,0,0,2.47-.65,7.75,7.75,0,0,0,.84-.64,13.15,13.15,0,0,1,1.44-4.34,2,2,0,0,1,.66-.72,1.29,1.29,0,0,1,1.56.13,1.35,1.35,0,0,1,.39.77,3.08,3.08,0,0,1-.25,1.66,9.8,9.8,0,0,1-2.22,3.36c-.29,1.59-.54,3.18-.79,4.78a62.69,62.69,0,0,0-.8,6.52c0,.54,0,1.07,0,1.61C446.75,354.46,446.75,354.56,446.75,354.65Zm-4.62-16.79a4.77,4.77,0,0,0-.11,2.21l0,.09c.06-.46.1-.93.11-1.41A7,7,0,0,0,442.13,337.85Z" transform="translate(0.4)"/><path class="cls-3" d="M448.42,358.92l-.18,0C443.9,358,439.55,357,435.3,356a.85.85,0,0,1,.38-1.66c4.24,1,8.58,1.94,12.91,2.85a.85.85,0,0,1-.17,1.68Z" transform="translate(0.4)"/><path class="cls-3" d="M447.08,362.57l-.19,0L435,359.86a.85.85,0,0,1,.37-1.66l11.92,2.69a.85.85,0,0,1-.19,1.68Z" transform="translate(0.4)"/><path class="cls-3" d="M444.5,366l-.19,0L435.83,364a.85.85,0,1,1,.37-1.66l8.49,1.91a.85.85,0,0,1-.19,1.68Z" transform="translate(0.4)"/><path class="cls-3" d="M451.78,314.14A.85.85,0,0,1,451,313c.73-2.29,1.54-4.58,2.42-6.81a.85.85,0,1,1,1.58.62c-.86,2.2-1.66,4.46-2.38,6.71A.85.85,0,0,1,451.78,314.14Z" transform="translate(0.4)"/><path class="cls-3" d="M462.13,322a.85.85,0,0,1-.26-1.66,46,46,0,0,1,6.75-1.65.85.85,0,0,1,.28,1.68,44.49,44.49,0,0,0-6.5,1.59A.86.86,0,0,1,462.13,322Z" transform="translate(0.4)"/><path class="cls-3" d="M475.53,335.37l-.22,0a38.13,38.13,0,0,0-9.22-1.31.85.85,0,0,1-.83-.87.87.87,0,0,1,.87-.83,39.9,39.9,0,0,1,9.63,1.37.85.85,0,0,1-.22,1.67Z" transform="translate(0.4)"/><path class="cls-3" d="M470.23,351.87a.85.85,0,0,1-.56-.21,59.09,59.09,0,0,0-6.24-4.8.85.85,0,1,1,.95-1.41,60.8,60.8,0,0,1,6.42,4.94.85.85,0,0,1-.56,1.49Z" transform="translate(0.4)"/><path class="cls-3" d="M439.49,317.36a.85.85,0,0,1-.7-.37l-3-4.37a.85.85,0,0,1,1.4-1l3,4.37a.85.85,0,0,1-.7,1.33Z" transform="translate(0.4)"/><path class="cls-3" d="M431.49,324.32a.84.84,0,0,1-.4-.1,49.82,49.82,0,0,0-8.69-3.63.85.85,0,0,1,.5-1.62,51.54,51.54,0,0,1,9,3.75.85.85,0,0,1-.4,1.6Z" transform="translate(0.4)"/><path class="cls-3" d="M426.63,333.45h-.1l-6.48-.75a.85.85,0,1,1,.2-1.69l6.48.75a.85.85,0,0,1-.1,1.7Z" transform="translate(0.4)"/><path class="cls-3" d="M418.82,346.1a.85.85,0,0,1-.13-1.69,37.31,37.31,0,0,0,7.92-2.14.85.85,0,1,1,.62,1.58,39,39,0,0,1-8.29,2.24Z" transform="translate(0.4)"/><path class="cls-9" d="M425.43,395.71q-1.2,0-2.41-.11a31.4,31.4,0,0,1-16.78-7.14,15.24,15.24,0,0,1-2.36-2.34,43,43,0,0,1-21.2,7c-5.77.3-10.57-.73-14.26-3.06a18.65,18.65,0,0,1-8-11.33,22.83,22.83,0,0,1,1.14-13.79.85.85,0,0,1,1.58.63,21.11,21.11,0,0,0-1.07,12.75,16.94,16.94,0,0,0,7.21,10.3c3.39,2.14,7.85,3.08,13.26,2.8A41.23,41.23,0,0,0,403,384.69a6.5,6.5,0,0,1-.58-1.7c-.69-3.67,2.17-7,5.36-8.47a3.16,3.16,0,0,1,2.22-.3,2.17,2.17,0,0,1,1.31,1.14,4,4,0,0,1,.05,3c-.94,2.62-3.1,4.53-4.87,5.91q-.58.45-1.18.88a13.79,13.79,0,0,0,2,2,29.69,29.69,0,0,0,15.86,6.76,23.52,23.52,0,0,0,16.36-4.5,14.58,14.58,0,0,0,3.69-4c-2.15-1.84-4.31-5.21-3.36-8.68a2.92,2.92,0,0,1,1.27-1.87c1.4-.81,3.05.18,3.9,1.53a9.09,9.09,0,0,1,.53,8.11l-.18.43a13.6,13.6,0,0,0,13.63.7,15.28,15.28,0,0,0,7.84-12.8,17.27,17.27,0,0,0-6.6-13.77.85.85,0,0,1,1.05-1.34,19,19,0,0,1,7.24,15.16,16.8,16.8,0,0,1-8.75,14.25,15.35,15.35,0,0,1-15.21-.7,16.43,16.43,0,0,1-4,4.31A25,25,0,0,1,425.43,395.71Zm16.8-19.43a.48.48,0,0,0-.25.06,1.37,1.37,0,0,0-.48.84c-.69,2.54.84,5.09,2.5,6.65a7.48,7.48,0,0,0-.41-6.53A2,2,0,0,0,442.24,376.28Zm-32.94-.45a2.36,2.36,0,0,0-.85.25c-2.52,1.13-4.91,3.83-4.39,6.6a4.73,4.73,0,0,0,.33,1l1-.78c1.59-1.23,3.53-2.93,4.31-5.13a2.39,2.39,0,0,0,0-1.67.48.48,0,0,0-.3-.27Z" transform="translate(0.4)"/><path class="cls-9" d="M460.42,362.91h0a.85.85,0,0,1-.81-.89l.19-4.3a.85.85,0,0,1,.31-.62.84.84,0,0,1,.66-.19c1.51.22,3,.51,4.55.87a.85.85,0,0,1-.4,1.65c-1.15-.28-2.31-.51-3.46-.7l-.15,3.35A.85.85,0,0,1,460.42,362.91Z" transform="translate(0.4)"/><path class="cls-3" d="M410.28,318.38H386.56a.85.85,0,0,1,0-1.7h23.72a.85.85,0,1,1,0,1.7Z" transform="translate(0.4)"/><path class="cls-3" d="M408.91,321.3a.85.85,0,0,1-.7-1.33l1.59-2.33h0c-.59-.74-1.23-1.46-1.91-2.14a.85.85,0,1,1,1.21-1.19c.71.72,1.39,1.49,2,2.27a1.46,1.46,0,0,1,.12,2l-1.62,2.39A.85.85,0,0,1,408.91,321.3Zm1-3.54h0Zm0-.27Z" transform="translate(0.4)"/><path class="cls-3" d="M403.34,323.49H379.63a.85.85,0,1,1,0-1.7h23.72a.85.85,0,1,1,0,1.7Z" transform="translate(0.4)"/><path class="cls-3" d="M381,326.41a.85.85,0,0,1-.71-.37l-1.62-2.39a1.46,1.46,0,0,1,.11-2,30.21,30.21,0,0,1,2-2.27A.85.85,0,1,1,382,320.6c-.67.68-1.31,1.4-1.91,2.14l1.59,2.33a.85.85,0,0,1-.7,1.33Zm-1-3.81Z" transform="translate(0.4)"/><path class="cls-3" d="M188.91,166.59a5,5,0,0,1-1.88-.36,4.6,4.6,0,0,1-2.91-5.34,5.56,5.56,0,0,1,5.43-4.45h0a3.94,3.94,0,0,1,1.71.36,4.27,4.27,0,0,1,1.4,1.2,6.29,6.29,0,0,1,1.06,1.83,5.06,5.06,0,0,1-4.81,6.76Zm.56-8.45a3.82,3.82,0,0,0-3.69,3.09,2.89,2.89,0,0,0,1.88,3.43,3.37,3.37,0,0,0,4.45-4.25,4.65,4.65,0,0,0-.78-1.34,2.57,2.57,0,0,0-.82-.74,2.31,2.31,0,0,0-1-.19Z" transform="translate(0.4)"/><path class="cls-3" d="M196.52,180a.85.85,0,0,1-.23,0l-.19-.06a.88.88,0,0,0-.31-.07H181a.85.85,0,0,1-.85-.93c0-.5.08-1,.11-1.49.15-2.46.31-5,2.24-7a10.58,10.58,0,0,1,5.68-3.22,7.16,7.16,0,0,1,6.38,1.92,9.44,9.44,0,0,1,2,4,21.8,21.8,0,0,1,.8,6,.85.85,0,0,1-.85.84Zm-14.63-1.87h13.76a20.1,20.1,0,0,0-.72-4.57,7.48,7.48,0,0,0-1.64-3.28,5.44,5.44,0,0,0-4.85-1.42,8.9,8.9,0,0,0-4.74,2.72c-1.49,1.56-1.62,3.58-1.77,5.93Z" transform="translate(0.4)"/><path class="cls-8" d="M146.35,170.5c-.69-1.82-.37-3.84-.56-5.78a11.54,11.54,0,0,0-9-9.81,12.44,12.44,0,0,0-12.42,5.16,13.5,13.5,0,0,0-.68,13.56A10.49,10.49,0,0,0,136.44,179a15.48,15.48,0,0,0,4.33-2c1.14-.74,2.29-2.35,3.48-2.85s2.15.09,3.37,0a6.21,6.21,0,0,0,3.31-1.64C149.42,173.7,147,172.31,146.35,170.5Zm-11.61-9.66a2,2,0,0,1,.84.17,2.1,2.1,0,0,1,.69.6,3.42,3.42,0,0,1,.57,1,2.61,2.61,0,0,1-3.45,3.29C130.59,164.74,131.93,160.8,134.74,160.84Zm3.86,12.36h-9.17c.17-1.84,0-3.61,1.3-4.94a6,6,0,0,1,3.23-1.84,3.92,3.92,0,0,1,3.48,1,5.25,5.25,0,0,1,1.14,2.25,13,13,0,0,1,.48,3.6A1.43,1.43,0,0,0,138.6,173.19Z" transform="translate(0.4)"/><path class="cls-3" d="M73.93,119a.85.85,0,0,1-.53-1.52A53.08,53.08,0,0,1,98.58,107a82.39,82.39,0,0,1,27.28.94.85.85,0,1,1-.31,1.67,80.66,80.66,0,0,0-26.71-.93,51.38,51.38,0,0,0-24.38,10.11A.85.85,0,0,1,73.93,119Z" transform="translate(0.4)"/><path class="cls-3" d="M78.14,120h-.09l-4-.41a1.43,1.43,0,0,1-1.46-1.38l-.39-2.91a.85.85,0,1,1,1.69-.22l.37,2.82,3.94.4a.85.85,0,0,1-.09,1.7Zm-3.82-1.9Z" transform="translate(0.4)"/><path class="cls-3" d="M125.54,113.23a.85.85,0,0,1-.85-.78,10,10,0,0,1,3.46-8.36.85.85,0,0,1,1.1,1.3,8.3,8.3,0,0,0-2.86,6.92.85.85,0,0,1-.78.92Z" transform="translate(0.4)"/><path class="cls-3" d="M252.1,184.84A83.09,83.09,0,0,1,237,183.46a.85.85,0,0,1-.68-1,26.42,26.42,0,0,0,.38-6.55,28.7,28.7,0,0,1-10.49-.82,6.36,6.36,0,0,1-3.28-1.76,3,3,0,0,1,0-4.15,4.09,4.09,0,0,1,2.5-.82l.27,0a10,10,0,0,0,8.07-6.13,39.92,39.92,0,0,1-7.67,3.39c-2.1.67-3.79.27-4.42-1a3.54,3.54,0,0,1-.11-2.22l1.47-7.85a50.2,50.2,0,0,1-8,4.06.85.85,0,0,1-1.09-1.15l8.94-19.33c2-4.26,4-8.66,7.37-12.18h0c3.55-3.71,9-5.72,15.49-5.6,8.3.13,16.71,3.6,21.41,8.84a19.71,19.71,0,0,1,4.53,17,38.05,38.05,0,0,1-4,9.62c-1.65,3.12-3.21,6.07-3.88,9.35a36.53,36.53,0,0,0-.47,7.34c0,3.24,0,6.59-1.08,9.75a3.51,3.51,0,0,1-.9,1.53,3.82,3.82,0,0,1-2.31.78Q255.54,184.84,252.1,184.84Zm-14-2.91a81.45,81.45,0,0,0,20.73.93,2.36,2.36,0,0,0,1.31-.35,2.08,2.08,0,0,0,.44-.82c1-2.89,1-5.95,1-9.19a37.73,37.73,0,0,1,.5-7.69,37.33,37.33,0,0,1,4-9.8,36.83,36.83,0,0,0,3.85-9.18,18,18,0,0,0-4.13-15.55c-4.33-4.83-12.44-8.16-20.17-8.28-6-.08-11,1.71-14.23,5.08h0c-3.17,3.31-5.14,7.58-7.05,11.72l-8,17.33a48.55,48.55,0,0,0,7.39-4.13.85.85,0,0,1,1.31.86l-1.84,9.8a2.15,2.15,0,0,0,0,1.17c.26.55,1.41.47,2.37.16a38.23,38.23,0,0,0,9.13-4.33.85.85,0,0,1,1.3.85A11.68,11.68,0,0,1,225.86,170l-.29,0a2.76,2.76,0,0,0-1.52.39,1.38,1.38,0,0,0,.13,1.77,4.82,4.82,0,0,0,2.44,1.23,27,27,0,0,0,10.7.67.85.85,0,0,1,1,.76A28.12,28.12,0,0,1,238.1,181.93Zm-7.28-55.44h0Z" transform="translate(0.4)"/><path class="cls-3" d="M256.72,143.47a3.44,3.44,0,0,1-1.5-.36,2.92,2.92,0,0,1-1.84-3.06,3.69,3.69,0,0,1,2.79-3,2.72,2.72,0,0,1,3,1.51,3.44,3.44,0,0,1,.39,1.15,3.65,3.65,0,0,1-.14,1.74,2.88,2.88,0,0,1-1.49,1.74A2.8,2.8,0,0,1,256.72,143.47Zm0-4.75-.2,0a2,2,0,0,0-1.43,1.54c-.07.54.23,1,.9,1.31h0a1.48,1.48,0,0,0,1.22.09,1.23,1.23,0,0,0,.59-.74,2,2,0,0,0,.07-.93,1.78,1.78,0,0,0-.19-.59A1.13,1.13,0,0,0,256.7,138.72Z" transform="translate(0.4)"/><path class="cls-3" d="M254.19,150.28a.85.85,0,0,1-.37-.09l-3.73-1.83a.85.85,0,0,1-.2-1.39,2.86,2.86,0,0,0-2.37-4.93.85.85,0,0,1-1-.93,18.44,18.44,0,0,0,0-4.12.85.85,0,0,1,1.29-.83,4.14,4.14,0,0,0,2.27.8,1.67,1.67,0,0,0,1.55-.9,3.22,3.22,0,0,0-.46-2.21,12.36,12.36,0,0,1-.46-1.19.85.85,0,0,1,.5-1l.9-.36,1.81-.72.18-.07a1.77,1.77,0,0,1,1.5-.16c.48.24.62.7.78,1.23.4,1.37.73,2.23,1.88,2.7h0a5.12,5.12,0,0,0,4.24-.44.85.85,0,0,1,1.22.56,12.77,12.77,0,0,0,1.24,3.24.85.85,0,0,1-.3,1.13c-.64.4-2.74,1.85-2.57,3.74a2.47,2.47,0,0,0,1.92,2.12.85.85,0,0,1,.48,1.4,19.07,19.07,0,0,0-1.75,2.33.85.85,0,0,1-1.26.2,7.94,7.94,0,0,0-2.74-1.62,3.44,3.44,0,0,0-2.74.23,2,2,0,0,0-1,2.08.85.85,0,0,1-.82,1.07Zm-2.4-3,1.57.77a3.87,3.87,0,0,1,1.73-2.39,5.09,5.09,0,0,1,4.12-.41,8.7,8.7,0,0,1,2.6,1.36q.3-.42.62-.83a4.2,4.2,0,0,1-2.06-3.17c-.2-2.31,1.51-4,2.72-4.89a14.45,14.45,0,0,1-.78-2,6.43,6.43,0,0,1-4.72.07h0c-2-.82-2.47-2.45-2.86-3.77h0l-.19.07-1.79.71-.13.05.13.29a4.56,4.56,0,0,1,.49,3.48,3.31,3.31,0,0,1-3.12,2,5,5,0,0,1-1.77-.34q0,1,0,2a4.55,4.55,0,0,1,3.48,7Z" transform="translate(0.4)"/><path class="cls-3" d="M244.74,132.5a2.47,2.47,0,0,1-1.08-.26,2.16,2.16,0,0,1-1.33-2.24,2.61,2.61,0,0,1,2-2.14,2,2,0,0,1,2.2,1.1,2.49,2.49,0,0,1,.28.83,2.61,2.61,0,0,1-.1,1.24,2.12,2.12,0,0,1-1.1,1.28A2.08,2.08,0,0,1,244.74,132.5Zm0-3h-.07a.92.92,0,0,0-.65.69c0,.08,0,.28.39.49h0a.64.64,0,0,0,.49.06.48.48,0,0,0,.21-.28.93.93,0,0,0,0-.43.79.79,0,0,0-.08-.26C244.91,129.56,244.8,129.52,244.72,129.52Z" transform="translate(0.4)"/><path class="cls-3" d="M243.15,136.77a.85.85,0,0,1-.37-.09l-2.34-1.15a.85.85,0,0,1-.2-1.39A1.48,1.48,0,0,0,239,131.6a.85.85,0,0,1-1-.93,11.22,11.22,0,0,0,0-2.51.85.85,0,0,1,1.29-.83,2.45,2.45,0,0,0,1.24.45h0a.74.74,0,0,0,.68-.36,1.93,1.93,0,0,0-.28-1.15,8.12,8.12,0,0,1-.3-.78.85.85,0,0,1,.5-1l.57-.23,1.13-.45.11,0a1.4,1.4,0,0,1,1.19-.09,1.36,1.36,0,0,1,.65,1c.25.86.42,1.26,1,1.49h0a2.9,2.9,0,0,0,2.39-.26.85.85,0,0,1,1.23.56,7.7,7.7,0,0,0,.74,2,.85.85,0,0,1-.3,1.13c-.75.47-1.53,1.25-1.46,2a1.23,1.23,0,0,0,.95,1,.85.85,0,0,1,.48,1.4,11.63,11.63,0,0,0-1.07,1.42.85.85,0,0,1-1.26.19,4.67,4.67,0,0,0-1.6-1,1.84,1.84,0,0,0-1.46.11,1,1,0,0,0-.47,1,.85.85,0,0,1-.82,1.07Zm-1.07-2.32.36.18a2.75,2.75,0,0,1,1.11-1.32,3.51,3.51,0,0,1,2.84-.29,5.46,5.46,0,0,1,1.46.72h0a2.9,2.9,0,0,1-1.15-2,3.73,3.73,0,0,1,1.63-3.2c-.11-.24-.21-.49-.29-.74a4.26,4.26,0,0,1-2.88-.07h0a3.23,3.23,0,0,1-1.87-2.24l-.71.28a3,3,0,0,1,.26,2.3,2.39,2.39,0,0,1-2.25,1.47,3.73,3.73,0,0,1-.78-.09q0,.27,0,.55a3.16,3.16,0,0,1,2.29,4.5Z" transform="translate(0.4)"/><path class="cls-3" d="M226.08,123a.85.85,0,0,1-.73-.41l-3.67-6.1a.85.85,0,1,1,1.46-.88l3.67,6.1a.85.85,0,0,1-.73,1.29Z" transform="translate(0.4)"/><path class="cls-3" d="M236.71,117.41a.85.85,0,0,1-.81-.6l-1.22-4a.85.85,0,0,1,1.63-.5l1.22,4a.85.85,0,0,1-.81,1.1Z" transform="translate(0.4)"/><path class="cls-3" d="M248.59,117.07h-.12a.85.85,0,0,1-.72-1,30.55,30.55,0,0,1,2.07-7.56.85.85,0,0,1,1.57.66,28.84,28.84,0,0,0-2,7.13A.85.85,0,0,1,248.59,117.07Z" transform="translate(0.4)"/><path class="cls-3" d="M261.25,120.18a.85.85,0,0,1-.65-1.39,41.87,41.87,0,0,1,4.85-4.94.85.85,0,1,1,1.11,1.29,40.38,40.38,0,0,0-4.65,4.74A.85.85,0,0,1,261.25,120.18Z" transform="translate(0.4)"/><path class="cls-3" d="M270.35,126.84a.85.85,0,0,1-.28-1.65l6.44-2.28a.85.85,0,1,1,.57,1.6l-6.44,2.28A.85.85,0,0,1,270.35,126.84Z" transform="translate(0.4)"/><path class="cls-3" d="M284.29,139.54h0l-7.5-.32a.85.85,0,0,1-.81-.89.86.86,0,0,1,.89-.81l7.5.32a.85.85,0,0,1,0,1.7Z" transform="translate(0.4)"/><path class="cls-3" d="M283.77,153.82h-.14a31.14,31.14,0,0,1-7.91-2.44.85.85,0,1,1,.71-1.54,29.45,29.45,0,0,0,7.48,2.3.85.85,0,0,1-.14,1.69Z" transform="translate(0.4)"/><path class="cls-3" d="M277.32,167.78a.84.84,0,0,1-.37-.09,57.62,57.62,0,0,1-8-4.72.85.85,0,0,1,1-1.39,55.87,55.87,0,0,0,7.76,4.59.85.85,0,0,1-.37,1.62Z" transform="translate(0.4)"/><path class="cls-3" d="M353.57,181.8l-.84,0A13,13,0,0,1,342.42,176a.85.85,0,0,1,1.45-.9,11.26,11.26,0,0,0,9,4.93,18,18,0,0,0,10.31-3c4.25-2.7,7.22-6.59,8.15-10.68.07-.3.13-.61.17-.91A13.41,13.41,0,0,1,361,158.89c-1.06-1.88-1.25-3.67-.52-5a3.63,3.63,0,0,1,2.39-1.81,6.71,6.71,0,0,1,5.08,1,12.67,12.67,0,0,1,5.3,10.7l.21,0a11.6,11.6,0,0,0,9.61-7.78c1-3.23.57-6.64-.54-9.94a11.92,11.92,0,0,1-3.85.58c-3.15,0-7.42-1.39-9.08-5.1a6.51,6.51,0,0,1,.68-6.16,4.92,4.92,0,0,1,4.28-2.33c3.21.14,5.19,3.11,6.55,5.69a54,54,0,0,1,2.35,5l.15-.1c3.18-2.33,3.13-7.3,2-11.16A21.72,21.72,0,0,0,379.55,122a13.22,13.22,0,0,0-11-3.39.85.85,0,0,1-.32-1.67,14.92,14.92,0,0,1,12.46,3.79,23.42,23.42,0,0,1,6.64,11.2c1.27,4.42,1.25,10.16-2.64,13q-.26.19-.54.36c1.26,3.65,1.8,7.48.61,11.19a13.35,13.35,0,0,1-11.06,9l-.51,0q-.08.63-.23,1.27c-1,4.52-4.27,8.79-8.89,11.73A20,20,0,0,1,353.57,181.8ZM364.2,153.6a3.52,3.52,0,0,0-.86.1,2,2,0,0,0-1.31,1c-.6,1.12.06,2.6.5,3.39a11.66,11.66,0,0,0,9.07,5.7,10.94,10.94,0,0,0-4.54-9.28A5.39,5.39,0,0,0,364.2,153.6Zm10.23-18.89a3.32,3.32,0,0,0-2.68,1.59,4.84,4.84,0,0,0-.54,4.51c1.32,3,4.89,4.06,7.54,4.09a9.87,9.87,0,0,0,3.24-.48,51.57,51.57,0,0,0-2.32-4.92c-1.15-2.18-2.77-4.69-5.12-4.79Z" transform="translate(0.4)"/><path class="cls-3" d="M372.54,122.26a.85.85,0,0,1-.53-.19l-4.89-3.93A.85.85,0,0,1,367,117l4-5a.85.85,0,1,1,1.33,1.06l-3.47,4.37,4.23,3.4a.85.85,0,0,1-.53,1.51Z" transform="translate(0.4)"/><path class="cls-3" d="M341.64,176.67a4.19,4.19,0,0,1-2.92-1.16.85.85,0,0,1,1.2-1.21,2.4,2.4,0,0,0,4-2.29.85.85,0,0,1,1.65-.41,4.23,4.23,0,0,1-1.95,4.56A4,4,0,0,1,341.64,176.67Z" transform="translate(0.4)"/><path class="cls-9" d="M174.1,155.82a10.43,10.43,0,0,1-3.15-.49,12.5,12.5,0,0,1-2.81-1.38,6.42,6.42,0,0,0-3.25-1.26,15.63,15.63,0,0,0-4.67,1.22,22,22,0,0,1-4,1.2,32.2,32.2,0,0,1-9.9.09c-7.39-1.14-13.77-5.27-17.07-11.05A23.67,23.67,0,0,1,126.38,134a28.35,28.35,0,0,1,12.79-25.35c8.57-5.33,20.17-5.06,28.21.65,8.3,5.91,12.06,17.07,8.94,26.54-.43,1.29-1,2.56-1.5,3.78a21.18,21.18,0,0,0-2.16,7.17,7.36,7.36,0,0,0,2.51,5.76,3.68,3.68,0,0,0,3.3.84.85.85,0,1,1,.43,1.65h0A18.92,18.92,0,0,1,174.1,155.82ZM164.85,151h.07a7.91,7.91,0,0,1,4.11,1.5,11,11,0,0,0,2.43,1.21,8.78,8.78,0,0,0,3,.4l-.33-.25A9,9,0,0,1,171,146.7a22.76,22.76,0,0,1,2.29-7.76c.51-1.19,1-2.42,1.44-3.64,2.85-8.64-.73-19.23-8.31-24.62a24.33,24.33,0,0,0-26.32-.59,26.6,26.6,0,0,0-12,23.8,22,22,0,0,0,2.67,9.43c3,5.34,9,9.16,15.85,10.22a30.53,30.53,0,0,0,9.38-.09,20.65,20.65,0,0,0,3.65-1.12A16.23,16.23,0,0,1,164.85,151Z" transform="translate(0.4)"/><path class="cls-9" d="M139.28,137.38A1.94,1.94,0,0,1,138,137a3,3,0,0,1-.73-2.29l-.44-8.56h0a2.68,2.68,0,0,1,.1-1,2.39,2.39,0,0,1,.84-1.09,5.23,5.23,0,0,1,4.92-.77,3.37,3.37,0,0,1,2.4,3.31,2.88,2.88,0,0,1-.83,1.71,2.79,2.79,0,0,1,1.08.75,3.19,3.19,0,0,1,.69,1.41,5.44,5.44,0,0,1-2.21,5.43,8.1,8.1,0,0,1-3.66,1.45A5.86,5.86,0,0,1,139.28,137.38Zm-.73-11.32.44,8.57a4.86,4.86,0,0,0,.13,1.09s.19,0,.79-.09a6.43,6.43,0,0,0,2.9-1.13,3.78,3.78,0,0,0,1.57-3.68,1.52,1.52,0,0,0-.31-.67c-.43-.48-1.35-.49-2.29-.42a.85.85,0,0,1-.4-1.63c.9-.39,1.94-.94,2-1.71s-.6-1.28-1.29-1.53a3.5,3.5,0,0,0-3.29.51c-.21.16-.26.25-.28.29a1.5,1.5,0,0,0,0,.4Z" transform="translate(0.4)"/><path class="cls-9" d="M149.9,137.64a.85.85,0,0,1-.85-.93,47.14,47.14,0,0,0-.72-13.92.85.85,0,1,1,1.67-.34,48.82,48.82,0,0,1,.83,13.4,49.62,49.62,0,0,1,5.57-.15.85.85,0,0,1,0,1.7,48.16,48.16,0,0,0-6.36.24Z" transform="translate(0.4)"/><path class="cls-9" d="M160.45,138h-.09a.85.85,0,0,1-.75-.94l1.7-15.54a.85.85,0,0,1,1.37-.58,11.41,11.41,0,0,1,3,4.37,106.62,106.62,0,0,1,4.38,11,.85.85,0,0,1-1.61.54,104.88,104.88,0,0,0-4.31-10.8,16,16,0,0,0-1.36-2.49l-1.5,13.7A.85.85,0,0,1,160.45,138Z" transform="translate(0.4)"/><path class="cls-9" d="M161,133.91a.85.85,0,0,1,0-1.7l6.21-.31a.85.85,0,1,1,.09,1.7l-6.21.31Z" transform="translate(0.4)"/><path class="cls-9" d="M457.47,184.44q10-27.66,19.26-55.55c-2.78-.9-5.35-2.56-8.14-3.44l-27.45-8.59c-2.68-.84-5.91-1.58-8.05.25a8.45,8.45,0,0,0-2.12,3.69L417.73,157c-1.55,4.24-2.89,9.57.27,12.77a12,12,0,0,0,5.15,2.58C434.35,175.86,446.27,181,457.47,184.44Z" transform="translate(0.4)"/><path class="cls-3" d="M455.07,185.88a.86.86,0,0,1-.25,0c-5.62-1.75-11.51-3.94-17.2-6s-11.54-4.28-17.11-6A12.84,12.84,0,0,1,415,171c-3.58-3.62-2-9.53-.47-13.66l13.24-36.22a9.23,9.23,0,0,1,2.37-4c2.4-2.05,5.83-1.36,8.86-.41l27.44,8.59a32.79,32.79,0,0,1,4.25,1.78,32.13,32.13,0,0,0,3.9,1.65.85.85,0,0,1,.54,1.08C469,148.25,462.48,167,455.87,185.31A.85.85,0,0,1,455.07,185.88Zm-20.93-68.47a4.32,4.32,0,0,0-2.9.92,7.82,7.82,0,0,0-1.87,3.34L416.13,157.9c-1.35,3.7-2.81,9,.08,11.88a11.38,11.38,0,0,0,4.8,2.37c5.62,1.75,11.51,3.94,17.2,6,5.41,2,11,4.08,16.34,5.78,6.41-17.84,12.7-36,18.71-54-1.13-.42-2.23-.95-3.29-1.45a31,31,0,0,0-4-1.7l-27.44-8.59A15.24,15.24,0,0,0,434.14,117.41Z" transform="translate(0.4)"/><path class="cls-3" d="M459.6,172.56a.84.84,0,0,1-.28,0c-11.39-4-21.87-7.74-33.27-11.75-2.32-.81-4.95-1.74-7.43-1.25a5.39,5.39,0,0,0-3.35,2.2,3.25,3.25,0,0,0-.56,2.45.85.85,0,1,1-1.67.34,4.88,4.88,0,0,1,.81-3.73,7.15,7.15,0,0,1,4.44-2.92c2.95-.57,5.93.48,8.32,1.32,11.4,4,21.88,7.71,33.27,11.75a.85.85,0,0,1-.28,1.65Z" transform="translate(0.4)"/><path class="cls-3" d="M423.29,156.68h-.1a.85.85,0,0,1-.75-.94,94.33,94.33,0,0,1,10.77-33.95.85.85,0,0,1,1.49.81,92.59,92.59,0,0,0-10.58,33.33A.85.85,0,0,1,423.29,156.68Z" transform="translate(0.4)"/><path class="cls-3" d="M419.33,165.64" transform="translate(0.4)"/><path class="cls-3" d="M457.35,177.81" transform="translate(0.4)"/><polygon class="cls-10" points="421.5 166.15 417.54 178.95 423.8 174.93 424.81 180.52 428.57 168.03 421.5 166.15"/><path class="cls-3" d="M457.35,178.67a.85.85,0,0,1-.32-.06,246.2,246.2,0,0,0-37.89-12.13.85.85,0,1,1,.38-1.66A247.89,247.89,0,0,1,457.68,177a.85.85,0,0,1-.32,1.64Z" transform="translate(0.4)"/><path class="cls-3" d="M407.59,153.17a.85.85,0,0,1-.45-.13l-6.68-4.23a.85.85,0,0,1,.91-1.44L408,151.6a.85.85,0,0,1-.46,1.57Z" transform="translate(0.4)"/><path class="cls-3" d="M411.3,140.85a.85.85,0,0,1-.42-.11,14.39,14.39,0,0,1-5.22-5.19.85.85,0,1,1,1.47-.86,12.7,12.7,0,0,0,4.61,4.57.85.85,0,0,1-.43,1.59Z" transform="translate(0.4)"/><path class="cls-3" d="M418.47,122.73a.85.85,0,0,1-.66-.31,15.82,15.82,0,0,1-3.28-7,.85.85,0,1,1,1.67-.32,14.13,14.13,0,0,0,2.93,6.27.85.85,0,0,1-.66,1.39Z" transform="translate(0.4)"/><path class="cls-3" d="M430.81,109.16h-.13a.85.85,0,0,1-.71-1l.6-3.74a.85.85,0,0,1,1.68.27l-.6,3.74A.85.85,0,0,1,430.81,109.16Z" transform="translate(0.4)"/><path class="cls-3" d="M452.05,109.39a.85.85,0,0,1-.75-1.24,16,16,0,0,1,4.13-5.06.85.85,0,0,1,1.07,1.32,14.35,14.35,0,0,0-3.69,4.52A.85.85,0,0,1,452.05,109.39Z" transform="translate(0.4)"/><path class="cls-3" d="M472.59,115.48a.85.85,0,0,1-.67-1.37,10.67,10.67,0,0,1,3.82-3.07.85.85,0,0,1,.73,1.54,9,9,0,0,0-3.21,2.58A.85.85,0,0,1,472.59,115.48Z" transform="translate(0.4)"/><path class="cls-3" d="M481.26,133.31a.85.85,0,0,1-.31-1.64,19.39,19.39,0,0,1,4.24-1.12.84.84,0,0,1,1,.72.85.85,0,0,1-.72,1,17.69,17.69,0,0,0-3.87,1A.84.84,0,0,1,481.26,133.31Z" transform="translate(0.4)"/><path class="cls-3" d="M477,157.28a.85.85,0,0,1-.09-1.7l4.62-.52a.85.85,0,0,1,.19,1.69l-4.62.52Z" transform="translate(0.4)"/><path class="cls-9" d="M401.86,105.84a.85.85,0,0,1-.83-.65c-3-12.43-15.58-26.79-37-30.85-16.93-3.2-34.35.18-51.2,3.45-16.07,3.12-34.29,6.65-51.85,3.06-5.92-1.21-13.43-3.77-18.5-9.19-9.43,8.5-21.66,15.11-35.6,19.1-18.69,5.35-38.18,5.72-54.78,5.37a.85.85,0,0,1,0-1.7h0c16.47.34,35.81,0,54.28-5.3,13.71-3.92,25.72-10.41,35-18.75a20.38,20.38,0,0,1-1.8-2.66,17.43,17.43,0,0,1-.8-14.66,12.21,12.21,0,0,1,7.84-7.46,7.64,7.64,0,0,1,5.84.39c2.73,1.52,3.59,4.84,3.23,7.46a16.68,16.68,0,0,1-3.34,7.21,66.63,66.63,0,0,1-8.6,9.85c4.77,5.09,11.93,7.52,17.59,8.68,17.22,3.52,35.27,0,51.18-3.07,17-3.3,34.59-6.71,51.84-3.45,16,3,34.08,14.13,38.38,32.12a.85.85,0,0,1-.63,1ZM249.21,46.91a7.94,7.94,0,0,0-2.15.32,10.55,10.55,0,0,0-6.74,6.47A15.67,15.67,0,0,0,241,66.88a18.71,18.71,0,0,0,1.57,2.34,64.91,64.91,0,0,0,8.32-9.55,15.19,15.19,0,0,0,3-6.46c.27-2-.35-4.61-2.37-5.74A4.88,4.88,0,0,0,249.21,46.91Z" transform="translate(0.4)"/><path class="cls-9" d="M401.75,106.21a.85.85,0,0,1-.47-.14c-2-1.35-4.15-2.67-6.26-3.92a.85.85,0,1,1,.87-1.46c1.85,1.09,3.7,2.24,5.5,3.42a42.13,42.13,0,0,1,3.38-5.83.85.85,0,1,1,1.4,1,40.42,40.42,0,0,0-3.64,6.47.85.85,0,0,1-.54.47A.86.86,0,0,1,401.75,106.21Z" transform="translate(0.4)"/><path class="cls-9" d="M150.8,100.06a.85.85,0,0,1-.71-1.32A5.81,5.81,0,0,0,148.53,91a.85.85,0,0,1,.95-1.41,7.49,7.49,0,0,1,2,10A.85.85,0,0,1,150.8,100.06Z" transform="translate(0.4)"/></g></svg>