<svg xmlns="http://www.w3.org/2000/svg" xmlns:xlink="http://www.w3.org/1999/xlink" width="1349" height="467" version="1.1" viewBox="0 0 1349 467"><title>Group 7</title><desc>Created with Sketch.</desc><defs><path id="path-1" d="M1239,55.8255272 C1239,25.014941 1219.05139,-5.68434189e-14 1194.48263,-5.68434189e-14 L44.5185739,-5.68434189e-14 C19.9481268,-5.68434189e-14 0,25.014941 0,55.8255272 L0,167.475377 C0,198.285963 19.9481268,223.300301 44.5185739,223.300301 L44.5185739,312.912435 L150.398947,223.300301 L1194.48263,223.300301 C1219.05139,223.300301 1239,198.285963 1239,167.475377 L1239,55.8255272 Z"/><filter id="filter-2" width="108.9%" height="138.8%" x="-4.3%" y="-16.9%" filterUnits="objectBoundingBox"><feMorphology in="SourceAlpha" operator="dilate" radius="5" result="shadowSpreadOuter1"/><feOffset dx="2" dy="2" in="shadowSpreadOuter1" result="shadowOffsetOuter1"/><feGaussianBlur in="shadowOffsetOuter1" result="shadowBlurOuter1" stdDeviation="13"/><feColorMatrix in="shadowBlurOuter1" type="matrix" values="0 0 0 0 0 0 0 0 0 0 0 0 0 0 0 0 0 0 0.0755299388 0"/></filter><filter id="filter-3" width="107.2%" height="132.1%" x="-3.4%" y="-13.6%" filterUnits="objectBoundingBox"><feMorphology in="SourceAlpha" operator="erode" radius="8" result="shadowSpreadInner1"/><feGaussianBlur in="shadowSpreadInner1" result="shadowBlurInner1" stdDeviation="4.5"/><feOffset dx="0" dy="0" in="shadowBlurInner1" result="shadowOffsetInner1"/><feComposite in="shadowOffsetInner1" in2="SourceAlpha" k2="-1" k3="1" operator="arithmetic" result="shadowInnerInner1"/><feColorMatrix in="shadowInnerInner1" type="matrix" values="0 0 0 0 0.594344429 0 0 0 0 0.594344429 0 0 0 0 0.594344429 0 0 0 0.0452906469 0"/></filter><path id="path-4" d="M160.1,112 L160.1,102.1 L127.16,102.1 L127.16,49 L115.46,49 L115.46,112 L160.1,112 Z M182.78,112.63 C189.98,112.63 195.2,110.29 197.9,106.15 L197.9,112 L208.52,112 L208.52,83.83 C208.52,69.97 200.51,63.4 186.65,63.4 C178.91,63.4 171.44,65.38 166.31,69.34 L170.72,77.53 C174.32,74.56 179.9,72.76 185.3,72.76 C193.31,72.76 197.27,76.63 197.27,83.2 L197.27,83.92 L184.85,83.92 C170.27,83.92 164.87,90.22 164.87,98.23 C164.87,106.6 171.8,112.63 182.78,112.63 Z M185.12,104.44 C179.36,104.44 175.94,101.83 175.94,97.78 C175.94,94.27 178.01,91.39 185.66,91.39 L197.27,91.39 L197.27,96.97 C195.38,101.92 190.61,104.44 185.12,104.44 Z M234.17,112 L234.17,87.7 C234.17,78.07 239.57,73.21 247.58,73.21 C254.78,73.21 259.01,77.35 259.01,85.9 L259.01,112 L270.26,112 L270.26,84.46 C270.26,69.97 261.71,63.4 250.19,63.4 C243.17,63.4 237.32,65.74 233.63,70.15 L233.63,63.94 L222.92,63.94 L222.92,112 L234.17,112 Z M306.35,130.09 C323.18,130.09 332.27,122.17 332.27,104.71 L332.27,63.94 L321.56,63.94 L321.56,70.33 C317.6,65.56 311.66,63.4 304.91,63.4 C291.14,63.4 280.61,72.58 280.61,86.53 C280.61,100.48 291.14,109.84 304.91,109.84 C311.39,109.84 317.06,107.77 321.02,103.45 L321.02,105.97 C321.02,115.69 316.34,120.55 305.72,120.55 C299.06,120.55 292.22,118.3 287.99,114.79 L282.95,123.25 C288.44,127.75 297.35,130.09 306.35,130.09 Z M306.62,100.3 C298.07,100.3 291.95,94.72 291.95,86.53 C291.95,78.43 298.07,72.94 306.62,72.94 C315.08,72.94 321.2,78.43 321.2,86.53 C321.2,94.72 315.08,100.3 306.62,100.3 Z M367.37,112.63 C373.58,112.63 379.25,110.29 382.85,105.88 L382.85,112 L393.56,112 L393.56,63.94 L382.31,63.94 L382.31,88.24 C382.31,97.87 377,102.73 369.17,102.73 C362.06,102.73 357.92,98.59 357.92,89.86 L357.92,63.94 L346.67,63.94 L346.67,91.39 C346.67,105.88 355.04,112.63 367.37,112.63 Z M422.81,112.63 C430.01,112.63 435.23,110.29 437.93,106.15 L437.93,112 L448.55,112 L448.55,83.83 C448.55,69.97 440.54,63.4 426.68,63.4 C418.94,63.4 411.47,65.38 406.34,69.34 L410.75,77.53 C414.35,74.56 419.93,72.76 425.33,72.76 C433.34,72.76 437.3,76.63 437.3,83.2 L437.3,83.92 L424.88,83.92 C410.3,83.92 404.9,90.22 404.9,98.23 C404.9,106.6 411.83,112.63 422.81,112.63 Z M425.15,104.44 C419.39,104.44 415.97,101.83 415.97,97.78 C415.97,94.27 418.04,91.39 425.69,91.39 L437.3,91.39 L437.3,96.97 C435.41,101.92 430.64,104.44 425.15,104.44 Z M484.73,130.09 C501.56,130.09 510.65,122.17 510.65,104.71 L510.65,63.94 L499.94,63.94 L499.94,70.33 C495.98,65.56 490.04,63.4 483.29,63.4 C469.52,63.4 458.99,72.58 458.99,86.53 C458.99,100.48 469.52,109.84 483.29,109.84 C489.77,109.84 495.44,107.77 499.4,103.45 L499.4,105.97 C499.4,115.69 494.72,120.55 484.1,120.55 C477.44,120.55 470.6,118.3 466.37,114.79 L461.33,123.25 C466.82,127.75 475.73,130.09 484.73,130.09 Z M485,100.3 C476.45,100.3 470.33,94.72 470.33,86.53 C470.33,78.43 476.45,72.94 485,72.94 C493.46,72.94 499.58,78.43 499.58,86.53 C499.58,94.72 493.46,100.3 485,100.3 Z M548,112.63 C556.28,112.63 563.03,109.93 567.35,104.8 L561.32,97.87 C557.9,101.38 553.67,103.09 548.27,103.09 C539.9,103.09 534.05,98.59 532.7,91.57 L570.41,91.57 C570.5,90.49 570.59,89.14 570.59,88.24 C570.59,73.21 560.33,63.4 546.29,63.4 C531.98,63.4 521.45,73.66 521.45,87.97 C521.45,102.28 531.89,112.63 548,112.63 Z M559.88,84.1 L532.61,84.1 C533.69,77.08 539,72.4 546.29,72.4 C553.67,72.4 558.98,77.17 559.88,84.1 Z M618.47,112 L618.47,70.78 L639.17,104.8 L644.39,104.8 L665.09,70.24 L665.18,112 L676.25,112 L676.16,49 L666.53,49 L641.96,90.76 L616.94,49 L607.31,49 L607.31,112 L618.47,112 Z M714.77,112.63 C723.05,112.63 729.8,109.93 734.12,104.8 L728.09,97.87 C724.67,101.38 720.44,103.09 715.04,103.09 C706.67,103.09 700.82,98.59 699.47,91.57 L737.18,91.57 C737.27,90.49 737.36,89.14 737.36,88.24 C737.36,73.21 727.1,63.4 713.06,63.4 C698.75,63.4 688.22,73.66 688.22,87.97 C688.22,102.28 698.66,112.63 714.77,112.63 Z M726.65,84.1 L699.38,84.1 C700.46,77.08 705.77,72.4 713.06,72.4 C720.44,72.4 725.75,77.17 726.65,84.1 Z M759.41,112 L759.41,87.7 C759.41,78.07 764.81,73.21 772.82,73.21 C780.02,73.21 784.25,77.35 784.25,85.9 L784.25,112 L795.5,112 L795.5,84.46 C795.5,69.97 786.95,63.4 775.43,63.4 C768.41,63.4 762.56,65.74 758.87,70.15 L758.87,63.94 L748.16,63.94 L748.16,112 L759.41,112 Z M827.9,112.63 C831.95,112.63 836,111.55 838.7,109.39 L835.55,101.38 C833.84,102.73 831.59,103.36 829.25,103.36 C824.93,103.36 822.59,100.84 822.59,96.16 L822.59,73.3 L835.46,73.3 L835.46,64.3 L822.59,64.3 L822.59,53.32 L811.34,53.32 L811.34,64.3 L803.42,64.3 L803.42,73.3 L811.34,73.3 L811.34,96.43 C811.34,107.05 817.37,112.63 827.9,112.63 Z M869.57,112.63 C884.51,112.63 895.22,102.37 895.22,87.97 C895.22,73.57 884.51,63.4 869.57,63.4 C854.81,63.4 844.01,73.57 844.01,87.97 C844.01,102.37 854.81,112.63 869.57,112.63 Z M869.57,103 C861.47,103 855.35,97.15 855.35,87.97 C855.35,78.79 861.47,72.94 869.57,72.94 C877.76,72.94 883.88,78.79 883.88,87.97 C883.88,97.15 877.76,103 869.57,103 Z M917.27,112 L917.27,88.69 C917.27,78.88 922.67,73.84 931.22,73.84 C932.03,73.84 932.84,73.93 933.83,74.11 L933.83,63.4 C925.82,63.4 919.97,65.92 916.73,70.96 L916.73,63.94 L906.02,63.94 L906.02,112 L917.27,112 Z M958.67,112.63 C972.17,112.63 980.45,106.78 980.45,97.78 C980.45,78.97 950.75,87.61 950.75,77.89 C950.75,74.74 953.99,72.49 960.83,72.49 C965.42,72.49 970.01,73.39 974.6,76.09 L978.92,67.54 C974.6,64.93 967.31,63.4 960.92,63.4 C947.96,63.4 939.77,69.34 939.77,78.43 C939.77,97.6 969.47,88.96 969.47,98.14 C969.47,101.47 966.5,103.45 959.39,103.45 C953.36,103.45 946.88,101.47 942.65,98.68 L938.33,107.23 C942.65,110.29 950.66,112.63 958.67,112.63 Z M1001.42,112 L1001.42,87.7 C1001.42,78.07 1006.82,73.21 1014.83,73.21 C1022.03,73.21 1026.26,77.35 1026.26,85.9 L1026.26,112 L1037.51,112 L1037.51,84.46 C1037.51,69.97 1028.96,63.4 1017.44,63.4 C1010.78,63.4 1005.11,65.56 1001.42,69.52 L1001.42,45.22 L990.17,45.22 L990.17,112 L1001.42,112 Z M1057.49,56.02 C1061.72,56.02 1064.69,52.96 1064.69,49 C1064.69,45.31 1061.63,42.52 1057.49,42.52 C1053.35,42.52 1050.29,45.49 1050.29,49.27 C1050.29,53.05 1053.35,56.02 1057.49,56.02 Z M1063.07,112 L1063.07,63.94 L1051.82,63.94 L1051.82,112 L1063.07,112 Z M1089.08,129.46 L1089.08,106.15 C1092.95,110.56 1098.35,112.63 1104.47,112.63 C1118.51,112.63 1128.86,102.91 1128.86,87.97 C1128.86,73.12 1118.51,63.4 1104.47,63.4 C1097.9,63.4 1092.32,65.65 1088.54,70.24 L1088.54,63.94 L1077.83,63.94 L1077.83,129.46 L1089.08,129.46 Z M1103.21,103 C1095.11,103 1088.9,97.15 1088.9,87.97 C1088.9,78.79 1095.11,72.94 1103.21,72.94 C1111.31,72.94 1117.43,78.79 1117.43,87.97 C1117.43,97.15 1111.31,103 1103.21,103 Z"/><filter id="filter-5" width="101.4%" height="116%" x="-.7%" y="-5.7%" filterUnits="objectBoundingBox"><feOffset dx="0" dy="2" in="SourceAlpha" result="shadowOffsetOuter1"/><feGaussianBlur in="shadowOffsetOuter1" result="shadowBlurOuter1" stdDeviation="2"/><feComposite in="shadowBlurOuter1" in2="SourceAlpha" operator="out" result="shadowBlurOuter1"/><feColorMatrix in="shadowBlurOuter1" type="matrix" values="0 0 0 0 0 0 0 0 0 0 0 0 0 0 0 0 0 0 0.5 0"/></filter><path id="path-6" d="M1281,197.390245 C1281,174.546615 1265.15704,156 1245.6448,156 L332.356156,156 C312.84258,156 297,174.546615 297,197.390245 L297,280.169841 C297,303.013472 312.84258,321.559639 332.356156,321.559639 L332.356156,388 L416.445168,321.559639 L1245.6448,321.559639 C1265.15704,321.559639 1281,303.013472 1281,280.169841 L1281,197.390245 Z"/><filter id="filter-7" width="111.2%" height="152%" x="-5.4%" y="-22.8%" filterUnits="objectBoundingBox"><feMorphology in="SourceAlpha" operator="dilate" radius="5" result="shadowSpreadOuter1"/><feOffset dx="2" dy="2" in="shadowSpreadOuter1" result="shadowOffsetOuter1"/><feGaussianBlur in="shadowOffsetOuter1" result="shadowBlurOuter1" stdDeviation="13"/><feComposite in="shadowBlurOuter1" in2="SourceAlpha" operator="out" result="shadowBlurOuter1"/><feColorMatrix in="shadowBlurOuter1" type="matrix" values="0 0 0 0 0 0 0 0 0 0 0 0 0 0 0 0 0 0 0.0755299388 0"/></filter><filter id="filter-8" width="109%" height="143%" x="-4.3%" y="-18.3%" filterUnits="objectBoundingBox"><feMorphology in="SourceAlpha" operator="erode" radius="8" result="shadowSpreadInner1"/><feGaussianBlur in="shadowSpreadInner1" result="shadowBlurInner1" stdDeviation="4.5"/><feOffset dx="0" dy="0" in="shadowBlurInner1" result="shadowOffsetInner1"/><feComposite in="shadowOffsetInner1" in2="SourceAlpha" k2="-1" k3="1" operator="arithmetic" result="shadowInnerInner1"/><feColorMatrix in="shadowInnerInner1" type="matrix" values="0 0 0 0 0.419136224 0 0 0 0 0.893285779 0 0 0 0 0.445902731 0 0 0 0.490029502 0"/></filter><path id="path-9" d="M372.425,248 C381.575,248 387.625,244.3 387.625,237.05 C387.625,233.4 385.725,231 382.675,229.95 C386.375,228.55 389.125,225.4 389.125,220.7 C389.125,215.65 385.075,213 378.075,213 L362.575,213 L355.575,248 L372.425,248 Z M374.725,228.25 L364.475,228.25 L366.725,217.05 L377.025,217.05 C381.375,217.05 383.925,218.45 383.925,221.5 C383.925,226 380.225,228.25 374.725,228.25 Z M372.775,243.95 L361.375,243.95 L363.675,232.3 L375.375,232.3 C380.075,232.3 382.675,233.55 382.675,237.1 C382.675,241.55 379.075,243.95 372.775,243.95 Z M397.575,248 L400.225,234.75 C401.425,228.65 404.925,225.85 410.225,225.85 C410.725,225.85 411.025,225.85 411.475,225.9 L412.375,221.25 C407.625,221.25 404.275,222.45 401.875,225.45 L402.625,221.5 L398.025,221.5 L392.775,248 L397.575,248 Z M422.325,216.4 C424.375,216.4 425.825,215 425.825,212.95 C425.825,211.45 424.525,210.15 422.775,210.15 C420.725,210.15 419.325,211.65 419.325,213.5 C419.325,215.1 420.575,216.4 422.325,216.4 Z M418.075,248 L423.325,221.5 L418.525,221.5 L413.275,248 L418.075,248 Z M438.875,248.3 C442.675,248.3 445.875,247 448.225,244.75 L447.575,248 L452.175,248 L459.575,210.9 L454.775,210.9 L451.775,226.05 C450.075,222.9 446.725,221.25 442.175,221.25 C433.575,221.25 427.175,227.75 427.175,236.85 C427.175,244 432.125,248.3 438.875,248.3 Z M439.925,244.1 C434.875,244.1 432.025,241.3 432.025,236.65 C432.025,230.1 436.425,225.45 442.375,225.45 C447.425,225.45 450.275,228.2 450.275,232.9 C450.275,239.45 445.925,244.1 439.925,244.1 Z M471.525,258 C480.325,258 485.475,254 487.375,244.4 L491.925,221.5 L487.375,221.5 L486.425,226.35 C484.675,222.85 480.875,221.25 476.525,221.25 C467.675,221.25 461.425,227.7 461.425,236.1 C461.425,242.8 466.225,246.9 473.225,246.9 C477.175,246.9 480.425,245.55 482.825,243.25 L482.425,245.15 C481.275,250.9 478.125,253.75 471.875,253.75 C467.725,253.75 464.125,252.45 462.075,250.55 L459.425,254.25 C462.275,256.65 466.475,258 471.525,258 Z M474.175,242.7 C469.225,242.7 466.275,240.1 466.275,235.8 C466.275,229.8 470.625,225.45 476.675,225.45 C481.675,225.45 484.575,228.05 484.575,232.3 C484.575,238.35 480.225,242.7 474.175,242.7 Z M504.875,216.4 C506.925,216.4 508.375,215 508.375,212.95 C508.375,211.45 507.075,210.15 505.325,210.15 C503.275,210.15 501.875,211.65 501.875,213.5 C501.875,215.1 503.125,216.4 504.875,216.4 Z M500.625,248 L505.875,221.5 L501.075,221.5 L495.825,248 L500.625,248 Z M514.575,248 L517.375,234 C518.525,228.3 522.025,225.55 527.175,225.55 C531.325,225.55 533.325,227.5 533.325,230.95 C533.325,231.6 533.225,232.35 533.075,233.15 L530.125,248 L534.925,248 L537.875,233.15 C538.075,232.05 538.175,231 538.175,230.05 C538.175,224.4 534.575,221.25 528.575,221.25 C524.775,221.25 521.425,222.4 518.975,224.9 L519.625,221.5 L515.025,221.5 L509.775,248 L514.575,248 Z M554.025,258 C562.825,258 567.975,254 569.875,244.4 L574.425,221.5 L569.875,221.5 L568.925,226.35 C567.175,222.85 563.375,221.25 559.025,221.25 C550.175,221.25 543.925,227.7 543.925,236.1 C543.925,242.8 548.725,246.9 555.725,246.9 C559.675,246.9 562.925,245.55 565.325,243.25 L564.925,245.15 C563.775,250.9 560.625,253.75 554.375,253.75 C550.225,253.75 546.625,252.45 544.575,250.55 L541.925,254.25 C544.775,256.65 548.975,258 554.025,258 Z M556.675,242.7 C551.725,242.7 548.775,240.1 548.775,235.8 C548.775,229.8 553.125,225.45 559.175,225.45 C564.175,225.45 567.075,228.05 567.075,232.3 C567.075,238.35 562.725,242.7 556.675,242.7 Z M600.875,248.3 C602.975,248.3 605.225,247.9 607.025,246.65 L606.025,243 C604.925,243.8 603.525,244.25 602.225,244.25 C599.825,244.25 598.725,243 598.725,240.95 C598.725,240.5 598.775,240.05 598.875,239.55 L601.725,225.45 L609.325,225.45 L610.125,221.5 L602.525,221.5 L603.675,215.7 L598.875,215.7 L597.725,221.5 L593.175,221.5 L592.425,225.45 L596.925,225.45 L594.075,239.65 C593.925,240.35 593.875,241.05 593.875,241.65 C593.875,245.8 596.725,248.3 600.875,248.3 Z M617.275,248 L620.075,234 C621.225,228.3 624.725,225.55 629.875,225.55 C634.025,225.55 636.025,227.5 636.025,230.95 C636.025,231.6 635.925,232.35 635.775,233.15 L632.825,248 L637.625,248 L640.575,233.15 C640.775,232.05 640.875,231 640.875,230.05 C640.875,224.4 637.275,221.25 631.275,221.25 C627.575,221.25 624.375,222.3 621.925,224.6 L624.675,210.9 L619.875,210.9 L612.475,248 L617.275,248 Z M659.175,248.3 C663.225,248.3 667.225,246.95 669.825,244.5 L667.775,241.05 C665.875,242.9 662.875,244.1 659.575,244.1 C653.875,244.1 651.175,241.4 651.175,236.55 L651.175,236.25 L672.925,236.25 C673.125,235.15 673.275,233.95 673.275,232.7 C673.275,225.55 668.575,221.25 661.425,221.25 C652.775,221.25 646.475,227.8 646.475,236.8 C646.475,243.8 651.325,248.3 659.175,248.3 Z M668.775,232.75 L651.675,232.75 C652.875,228.15 656.425,225.25 661.225,225.25 C665.925,225.25 669.025,227.9 668.775,232.75 Z M703.075,248.3 C707.825,248.3 712.225,246.25 714.675,242.85 L711.175,240.35 C709.325,242.85 706.425,244.1 703.275,244.1 C698.175,244.1 695.325,241.3 695.325,236.65 C695.325,230.1 699.725,225.45 705.725,225.45 C709.125,225.45 711.525,226.7 712.925,229.25 L716.975,227 C714.925,223.15 711.175,221.25 706.075,221.25 C696.975,221.25 690.475,227.9 690.475,236.85 C690.475,243.75 695.375,248.3 703.075,248.3 Z M731.475,248.3 C740.525,248.3 746.975,241.65 746.975,232.65 C746.975,225.7 742.125,221.25 734.575,221.25 C725.525,221.25 719.025,227.9 719.025,236.85 C719.025,243.75 723.925,248.3 731.475,248.3 Z M731.775,244.1 C726.725,244.1 723.875,241.3 723.875,236.65 C723.875,230.1 728.275,225.45 734.225,225.45 C739.275,225.45 742.125,228.2 742.125,232.9 C742.125,239.45 737.775,244.1 731.775,244.1 Z M755.625,248 L758.425,234 C759.575,228.3 762.825,225.55 767.725,225.55 C771.725,225.55 773.625,227.5 773.625,230.9 C773.625,231.6 773.525,232.35 773.375,233.15 L770.375,248 L775.175,248 L778.025,233.85 C779.175,228.25 782.475,225.55 787.325,225.55 C791.275,225.55 793.175,227.45 793.175,230.85 C793.175,231.55 793.075,232.3 792.925,233.15 L789.975,248 L794.775,248 L797.725,233.15 C797.925,232 798.075,230.95 798.075,230 C798.075,224.4 794.525,221.25 788.525,221.25 C784.125,221.25 780.425,222.8 777.725,225.95 C776.375,222.9 773.375,221.25 769.225,221.25 C765.625,221.25 762.425,222.35 760.025,224.8 L760.675,221.5 L756.075,221.5 L750.825,248 L755.625,248 Z M808.475,248 L811.275,234 C812.425,228.3 815.675,225.55 820.575,225.55 C824.575,225.55 826.475,227.5 826.475,230.9 C826.475,231.6 826.375,232.35 826.225,233.15 L823.225,248 L828.025,248 L830.875,233.85 C832.025,228.25 835.325,225.55 840.175,225.55 C844.125,225.55 846.025,227.45 846.025,230.85 C846.025,231.55 845.925,232.3 845.775,233.15 L842.825,248 L847.625,248 L850.575,233.15 C850.775,232 850.925,230.95 850.925,230 C850.925,224.4 847.375,221.25 841.375,221.25 C836.975,221.25 833.275,222.8 830.575,225.95 C829.225,222.9 826.225,221.25 822.075,221.25 C818.475,221.25 815.275,222.35 812.875,224.8 L813.525,221.5 L808.925,221.5 L803.675,248 L808.475,248 Z M867.775,248.3 C871.475,248.3 874.825,247.1 877.275,244.6 L876.625,248 L881.225,248 L886.475,221.5 L881.675,221.5 L878.875,235.55 C877.725,241.2 874.175,244 869.175,244 C865.125,244 863.125,242.05 863.125,238.65 C863.125,237.95 863.225,237.2 863.375,236.4 L866.325,221.5 L861.525,221.5 L858.575,236.35 C858.375,237.45 858.275,238.45 858.275,239.4 C858.275,245.05 861.975,248.3 867.775,248.3 Z M895.175,248 L897.975,234 C899.125,228.3 902.625,225.55 907.775,225.55 C911.925,225.55 913.925,227.5 913.925,230.95 C913.925,231.6 913.825,232.35 913.675,233.15 L910.725,248 L915.525,248 L918.475,233.15 C918.675,232.05 918.775,231 918.775,230.05 C918.775,224.4 915.175,221.25 909.175,221.25 C905.375,221.25 902.025,222.4 899.575,224.9 L900.225,221.5 L895.625,221.5 L890.375,248 L895.175,248 Z M933.475,216.4 C935.525,216.4 936.975,215 936.975,212.95 C936.975,211.45 935.675,210.15 933.925,210.15 C931.875,210.15 930.475,211.65 930.475,213.5 C930.475,215.1 931.725,216.4 933.475,216.4 Z M929.225,248 L934.475,221.5 L929.675,221.5 L924.425,248 L929.225,248 Z M950.925,248.3 C955.675,248.3 960.075,246.25 962.525,242.85 L959.025,240.35 C957.175,242.85 954.275,244.1 951.125,244.1 C946.025,244.1 943.175,241.3 943.175,236.65 C943.175,230.1 947.575,225.45 953.575,225.45 C956.975,225.45 959.375,226.7 960.775,229.25 L964.825,227 C962.775,223.15 959.025,221.25 953.925,221.25 C944.825,221.25 938.325,227.9 938.325,236.85 C938.325,243.75 943.225,248.3 950.925,248.3 Z M978.575,248.3 C982.375,248.3 985.575,247 987.925,244.75 L987.275,248 L991.875,248 L997.125,221.5 L992.325,221.5 L991.425,226 C989.725,222.9 986.425,221.25 981.875,221.25 C973.275,221.25 966.875,227.75 966.875,236.85 C966.875,244 971.825,248.3 978.575,248.3 Z M979.625,244.1 C974.575,244.1 971.725,241.3 971.725,236.65 C971.725,230.1 976.125,225.45 982.075,225.45 C987.125,225.45 989.975,228.2 989.975,232.9 C989.975,239.45 985.625,244.1 979.625,244.1 Z M1010.125,248.3 C1012.225,248.3 1014.475,247.9 1016.275,246.65 L1015.275,243 C1014.175,243.8 1012.775,244.25 1011.475,244.25 C1009.075,244.25 1007.975,243 1007.975,240.95 C1007.975,240.5 1008.025,240.05 1008.125,239.55 L1010.975,225.45 L1018.575,225.45 L1019.375,221.5 L1011.775,221.5 L1012.925,215.7 L1008.125,215.7 L1006.975,221.5 L1002.425,221.5 L1001.675,225.45 L1006.175,225.45 L1003.325,239.65 C1003.175,240.35 1003.125,241.05 1003.125,241.65 C1003.125,245.8 1005.975,248.3 1010.125,248.3 Z M1030.775,216.4 C1032.825,216.4 1034.275,215 1034.275,212.95 C1034.275,211.45 1032.975,210.15 1031.225,210.15 C1029.175,210.15 1027.775,211.65 1027.775,213.5 C1027.775,215.1 1029.025,216.4 1030.775,216.4 Z M1026.525,248 L1031.775,221.5 L1026.975,221.5 L1021.725,248 L1026.525,248 Z M1048.075,248.3 C1057.125,248.3 1063.575,241.65 1063.575,232.65 C1063.575,225.7 1058.725,221.25 1051.175,221.25 C1042.125,221.25 1035.625,227.9 1035.625,236.85 C1035.625,243.75 1040.525,248.3 1048.075,248.3 Z M1048.375,244.1 C1043.325,244.1 1040.475,241.3 1040.475,236.65 C1040.475,230.1 1044.875,225.45 1050.825,225.45 C1055.875,225.45 1058.725,228.2 1058.725,232.9 C1058.725,239.45 1054.375,244.1 1048.375,244.1 Z M1072.225,248 L1075.025,234 C1076.175,228.3 1079.675,225.55 1084.825,225.55 C1088.975,225.55 1090.975,227.5 1090.975,230.95 C1090.975,231.6 1090.875,232.35 1090.725,233.15 L1087.775,248 L1092.575,248 L1095.525,233.15 C1095.725,232.05 1095.825,231 1095.825,230.05 C1095.825,224.4 1092.225,221.25 1086.225,221.25 C1082.425,221.25 1079.075,222.4 1076.625,224.9 L1077.275,221.5 L1072.675,221.5 L1067.425,248 L1072.225,248 Z M1125.125,258 C1133.925,258 1139.075,254 1140.975,244.4 L1145.525,221.5 L1140.975,221.5 L1140.025,226.35 C1138.275,222.85 1134.475,221.25 1130.125,221.25 C1121.275,221.25 1115.025,227.7 1115.025,236.1 C1115.025,242.8 1119.825,246.9 1126.825,246.9 C1130.775,246.9 1134.025,245.55 1136.425,243.25 L1136.025,245.15 C1134.875,250.9 1131.725,253.75 1125.475,253.75 C1121.325,253.75 1117.725,252.45 1115.675,250.55 L1113.025,254.25 C1115.875,256.65 1120.075,258 1125.125,258 Z M1127.775,242.7 C1122.825,242.7 1119.875,240.1 1119.875,235.8 C1119.875,229.8 1124.225,225.45 1130.275,225.45 C1135.275,225.45 1138.175,228.05 1138.175,232.3 C1138.175,238.35 1133.825,242.7 1127.775,242.7 Z M1161.075,248.3 C1164.875,248.3 1168.075,247 1170.425,244.75 L1169.775,248 L1174.375,248 L1179.625,221.5 L1174.825,221.5 L1173.925,226 C1172.225,222.9 1168.925,221.25 1164.375,221.25 C1155.775,221.25 1149.375,227.75 1149.375,236.85 C1149.375,244 1154.325,248.3 1161.075,248.3 Z M1162.125,244.1 C1157.075,244.1 1154.225,241.3 1154.225,236.65 C1154.225,230.1 1158.625,225.45 1164.575,225.45 C1169.625,225.45 1172.475,228.2 1172.475,232.9 C1172.475,239.45 1168.125,244.1 1162.125,244.1 Z M1186.375,257.7 L1189.175,243.5 C1190.875,246.6 1194.225,248.3 1198.775,248.3 C1207.375,248.3 1213.775,241.75 1213.775,232.65 C1213.775,225.5 1208.825,221.25 1202.075,221.25 C1198.225,221.25 1195.075,222.55 1192.725,224.8 L1193.375,221.5 L1188.775,221.5 L1181.575,257.7 L1186.375,257.7 Z M1198.575,244.1 C1193.525,244.1 1190.675,241.3 1190.675,236.65 C1190.675,230.1 1195.025,225.45 1201.025,225.45 C1206.075,225.45 1208.925,228.2 1208.925,232.9 C1208.925,239.45 1204.525,244.1 1198.575,244.1 Z M1219.175,248.3 C1221.025,248.3 1222.675,246.85 1222.675,244.7 C1222.675,242.8 1221.325,241.45 1219.525,241.45 C1217.575,241.45 1215.975,242.95 1215.975,245.1 C1215.975,246.9 1217.375,248.3 1219.175,248.3 Z"/><filter id="filter-10" width="101.6%" height="129.3%" x="-.8%" y="-10.4%" filterUnits="objectBoundingBox"><feOffset dx="0" dy="2" in="SourceAlpha" result="shadowOffsetOuter1"/><feGaussianBlur in="shadowOffsetOuter1" result="shadowBlurOuter1" stdDeviation="2"/><feColorMatrix in="shadowBlurOuter1" type="matrix" values="0 0 0 0 0.509765625 0 0 0 0 0.509765625 0 0 0 0 0.509765625 0 0 0 0.365248033 0"/></filter></defs><g id="Page-1" fill="none" fill-rule="evenodd" stroke="none" stroke-width="1"><g id="Desktop-HD-Copy-7" transform="translate(-67.000000, -107.000000)"><g id="Group-7" transform="translate(101.000000, 141.000000)"><g id="Group-2"><g id="Group-6" transform="translate(0.000000, -0.000000)"><g id="Fill-1"><use fill="#000" fill-opacity="1" filter="url(#filter-2)" xlink:href="#path-1"/><use fill="#FFF" fill-rule="evenodd" xlink:href="#path-1"/><use fill="#000" fill-opacity="1" filter="url(#filter-3)" xlink:href="#path-1"/></g><g id="LanguageMentorship" fill-rule="nonzero"><use fill="#000" fill-opacity="1" filter="url(#filter-5)" xlink:href="#path-4"/><use fill="#000" fill-opacity=".697" xlink:href="#path-4"/></g></g></g><g id="Fill-1-Copy" transform="translate(789.000000, 272.000000) scale(-1, 1) translate(-789.000000, -272.000000)"><use fill="#000" fill-opacity="1" filter="url(#filter-7)" xlink:href="#path-6"/><use fill="#3FEB41" fill-opacity=".677" fill-rule="evenodd" xlink:href="#path-6"/><use fill="#000" fill-opacity="1" filter="url(#filter-8)" xlink:href="#path-6"/></g><g id="Bridgingthecommunicationgap." fill-rule="nonzero"><use fill="#000" fill-opacity="1" filter="url(#filter-10)" xlink:href="#path-9"/><use fill="#FFF" xlink:href="#path-9"/></g></g></g></g></svg>