<svg width="468.96" height="374.53" xmlns="http://www.w3.org/2000/svg">
 <defs>
  <style>.cls-1{fill:#bcbec0;}.cls-2,.cls-9{fill:#44c1d6;}.cls-3{fill:#abbf50;}.cls-4{fill:#f65f30;}.cls-5{fill:#fcd153;}.cls-10,.cls-6{fill:none;stroke:#000;stroke-linecap:round;stroke-linejoin:round;}.cls-6{stroke-width:1.7px;stroke-dasharray:2.83 2.83 0;}.cls-7{font-size:20.97px;}.cls-10,.cls-7,.cls-9{font-family:BebasNeueBold, Bebas Neue;font-weight:700;}.cls-8{fill:#fff;}.cls-10,.cls-9{font-size:142.77px;}.cls-10{stroke-width:1.7px;}</style>
 </defs>
 <title>language2</title>
 <g>
  <title>background</title>
  <rect fill="none" id="canvas_background" height="602" width="802" y="-1" x="-1"/>
 </g>
 <g>
  <title>Layer 1</title>
  <g stroke="null" id="Objects">
   <polygon stroke="null" id="svg_39" points="214.54034423828125,67.17814636230469 237.29013061523438,48.78843688964844 263.7318115234375,71.57566833496094 241.9078369140625,89.1429443359375 214.54034423828125,67.17814636230469 " class="cls-2"/>
   <path stroke="null" id="svg_40" d="m236.5732,90.11384a0.48548,0.98231 0 0 1 -0.175,-0.06853l-22.01593,-17.30458a0.47983,0.97088 0 0 1 0,-1.8047l22.01593,-18.62955a0.47983,0.97088 0 0 1 0.37258,0l22.01593,18.62955a0.47983,0.97088 0 0 1 0,1.8047l-22.01593,17.30458a0.48548,0.98231 0 0 1 -0.19758,0.06853zm-20.75142,-18.27547l20.75142,16.25374l20.75142,-16.29943l-20.75142,-17.53303l-20.75142,17.57872z"/>
   <path stroke="null" id="svg_41" d="m236.5732,104.74564l-0.07339,0c-6.55962,-2.10168 -12.12569,-11.35363 -12.36279,-11.75341a0.47983,0.97088 0 0 1 -0.175,-0.74244l0,-12.63292a0.47983,0.97088 0 1 1 0.95967,0l0,12.16461c0.98225,1.55341 5.97253,9.13773 11.58941,10.99955c1.02176,-0.86808 8.03864,-6.8533 11.42006,-11.58208l0,-11.35363a0.47983,0.97088 0 1 1 0.95967,0l0,11.85621a0.47983,0.97088 0 0 1 -0.20322,0.78813c-3.61851,5.21993 -11.59505,11.91332 -11.93376,12.18745a0.48548,0.98231 0 0 1 -0.18064,0.06853z"/>
   <path stroke="null" id="svg_42" d="m236.5732,104.74564a0.47983,0.97088 0 0 1 -0.47983,-0.97088l0,-14.65464a0.47983,0.97088 0 1 1 0.95967,0l0,14.64322a0.47983,0.97088 0 0 1 -0.47983,0.98231z"/>
   <path stroke="null" id="svg_43" d="m223.34671,107.70398l-4.78141,0a0.47983,0.97088 0 0 1 -0.47983,-0.97088l0,-8.47525a2.72094,5.50548 0 0 1 2.87336,-5.64255c2.25804,0 2.87336,3.42665 2.87336,5.28846l0,8.81791a0.47983,0.97088 0 0 1 -0.48548,0.98231zm-4.30157,-1.94177l3.82174,0l0,-7.84703c0,-0.34267 -0.07339,-3.34669 -1.91369,-3.34669a1.77256,3.58656 0 0 0 -1.91369,3.68936l0.00565,7.50436z"/>
   <path stroke="null" id="svg_44" d="m236.42642,72.14677c-2.18466,0 -3.89513,-2.2159 -3.89513,-5.03718s1.69353,-5.03718 3.89513,-5.03718s3.89513,2.2159 3.89513,5.03718s-1.71047,5.03718 -3.89513,5.03718zm0,-8.12116c-1.73305,0 -2.93546,1.63337 -2.93546,3.09541s1.20805,3.08399 2.93546,3.08399s2.93546,-1.63337 2.93546,-3.08399s-1.20241,-3.12967 -2.93546,-3.12967l0,0.03427z"/>
   <path stroke="null" id="svg_45" d="m220.93624,94.56849a0.47983,0.97088 0 0 1 -0.47983,-0.97088l0,-16.72205a0.47983,0.97088 0 0 1 0.32177,-0.91377l12.25553,-8.54378a0.47983,0.97088 0 0 1 0.31048,1.83897l-11.91118,8.30392l0,15.99103a0.47983,0.97088 0 0 1 -0.49677,1.01657z"/>
   <path stroke="null" id="svg_46" d="m111.79371,328.98562a10.19507,20.62843 0 1 0 -1.81773,3.28958l3.74271,3.73505l-1.92498,-7.02463z" class="cls-2"/>
   <path stroke="null" id="svg_47" d="m17.06878,297.91733a5.0806,10.27995 0 1 0 -0.90886,1.64479l1.87418,1.86181l-0.96531,-3.50661z" class="cls-3"/>
   <path stroke="null" id="svg_48" d="m137.87411,281.44656a0.47983,0.97088 0 0 1 -0.47983,-0.97088l0,-4.45465l-1.56934,0a0.47983,0.97088 0 0 1 -0.47983,-0.97088l0,-17.27032a0.47983,0.97088 0 0 1 0.47983,-0.97088l11.69102,0a0.47983,0.97088 0 0 1 0.47983,0.97088l0,17.27032a0.47983,0.97088 0 0 1 -0.47983,0.97088l-6.42413,0l-2.90723,5.18566a0.47983,0.97088 0 0 1 -0.31048,0.23987zm-1.56934,-7.3673l1.56934,0a0.47983,0.97088 0 0 1 0.47983,0.97088l0,3.27816l2.25804,-3.99776a0.47983,0.97088 0 0 1 0.31613,-0.23987l6.1193,0l0,-15.33997l-10.72571,0l-0.01694,15.32855z"/>
   <path stroke="null" id="svg_49" d="m149.43529,284.01655l-7.76767,0l0,11.47928l1.36612,0l0,3.6094l2.02095,-3.6094l4.38625,0l-0.00565,-11.47928z" class="cls-4"/>
   <path stroke="null" id="svg_50" d="m10.10836,354.26288a1.77256,3.58656 0 0 1 -1.1008,-0.79955c-0.90886,-1.43919 -1.37176,-4.56887 -1.37176,-9.36618l0,-32.24478a3.68626,7.45868 0 0 1 0.9258,-4.96864a3.26852,6.61343 0 0 1 2.44998,-1.88466l15.56921,0a0.47983,0.97088 0 0 1 0.47983,0.97088l0,47.25351a0.47983,0.97088 0 0 1 -0.47983,0.97088l-16.25227,0a1.45644,2.94692 0 0 1 -0.22016,0.06853zm0.90322,-47.28777a2.35401,4.76304 0 0 0 -1.76692,1.26786a2.74352,5.55117 0 0 0 -0.64919,3.6094l0,32.26762c0,5.43695 0.62661,7.24165 1.00483,7.83561a0.76209,1.54199 0 0 0 0.56451,0.38835l0.11855,0l15.80631,0l0,-45.36885l-15.07809,0z"/>
   <path stroke="null" id="svg_51" d="m8.11563,349.46557a0.47983,0.97088 0 0 1 -0.47983,-0.97088a3.11046,6.29361 0 0 1 0.8637,-4.7402a2.95804,5.98522 0 0 1 1.99272,-1.54199l16.08856,0a0.47983,0.97088 0 1 1 0,1.94177l-16.11114,0a1.97579,3.99776 0 0 0 -1.31531,1.01657a2.20724,4.46607 0 0 0 -0.56451,3.32385a0.47983,0.97088 0 0 1 -0.47419,0.97088z"/>
   <path stroke="null" id="svg_52" d="m26.58078,349.46557l-15.9305,0a0.47983,0.97088 0 0 1 0,-1.94177l15.9305,0a0.47983,0.97088 0 1 1 0,1.94177z"/>
   <path stroke="null" id="svg_53" d="m10.46964,344.15426a0.47983,0.97088 0 0 1 -0.47983,-0.97088l0,-37.17915a0.47983,0.97088 0 0 1 0.95967,0l0,37.17915a0.47983,0.97088 0 0 1 -0.47983,0.97088z"/>
   <path stroke="null" id="svg_54" d="m22.00825,324.41676l-6.88139,0a0.47983,0.97088 0 0 1 0,-1.94177l6.88139,0a0.47983,0.97088 0 1 1 0,1.94177z"/>
   <path stroke="null" id="svg_55" d="m21.19535,319.97353l-5.24995,0a0.47983,0.97088 0 0 1 0,-1.94177l5.24995,0a0.47983,0.97088 0 1 1 0,1.94177z"/>
   <polygon stroke="null" id="svg_56" points="11.830108642578125,348.4946594238281 11.830108642578125,356.92425537109375 13.546234130859375,354.7311706542969 15.13250732421875,356.92425537109375 15.13250732421875,348.4946594238281 11.830108642578125,348.4946594238281 " class="cls-4"/>
   <path stroke="null" id="svg_57" d="m118.19526,265.02149a0.47983,0.97088 0 0 1 -0.07339,-1.93035q0.40645,-0.12564 0.82419,-0.21702a0.47983,0.97088 0 0 1 0.09032,1.93035q-0.38387,0.07996 -0.76773,0.19418l-0.07339,0.02284z"/>
   <path stroke="null" id="svg_58" d="m113.97272,267.85418a0.46854,0.94804 0 0 1 -0.42338,-0.514a0.42338,0.85666 0 0 1 -0.05645,-0.44546a0.47983,0.97088 0 0 1 0.25968,-0.86808a14.58132,29.50346 0 0 1 1.3887,-1.27928l0,0a0.49677,1.00515 0 0 1 0.62096,0.55969a0.47983,0.97088 0 0 1 -0.27097,1.25644a13.54826,27.4132 0 0 0 -1.30402,1.14222a0.47983,0.97088 0 0 1 -0.21451,0.14849zm2.75481,-2.17021a0.48548,0.98231 0 0 1 -0.4629,-0.7196a0.49112,0.99373 0 0 1 0.04516,-0.74244a0.50241,1.01657 0 0 1 0.29355,-0.44546a0.48548,0.98231 0 0 1 0.56451,0.68533a0.47419,0.95946 0 0 1 -0.32742,1.14222l0,0a0.44596,0.90235 0 0 1 -0.1129,0.07996z"/>
   <path stroke="null" id="svg_59" d="m106.90504,286.24387a0.32177,0.65106 0 0 1 -0.10726,0a0.47983,0.97088 0 0 1 -0.36693,-1.14222s0,0 0,-0.09138a15.0047,30.36012 0 0 1 0.42903,-2.96976a0.49112,0.99373 0 0 1 0.60967,-0.60537a0.48548,0.98231 0 0 1 0.29355,1.24502a12.93294,26.16818 0 0 0 -0.39516,2.77559l0,0a0.47983,0.97088 0 0 1 -0.4629,0.78813zm0.9766,-5.71108l0,0a0.56451,1.14222 0 0 1 -0.20887,-0.09138a0.47983,0.97088 0 0 1 -0.2258,-1.2907a0.49677,1.00515 0 0 1 0.64354,-0.46831a0.48548,0.98231 0 0 1 0.2258,1.30213l0,0a0.47419,0.95946 0 0 1 -0.41209,0.59395l-0.02258,-0.04569zm0.70564,-2.6271a0.49112,0.99373 0 0 1 -0.24838,-0.14849a0.48548,0.98231 0 0 1 -0.15806,-1.33639a13.54826,27.4132 0 0 1 0.87499,-2.54714a13.91519,28.15564 0 0 1 1.00483,-2.28443a0.48548,0.98231 0 0 1 0.67741,0a0.47419,0.95946 0 0 1 0,1.37066c-0.32742,0.69675 -0.64354,1.42777 -0.93709,2.18163a13.58778,27.49316 0 0 0 -0.8129,2.37581a0.47983,0.97088 0 0 1 -0.38951,0.43404l-0.01129,-0.04569zm2.90159,-6.77335a0.47983,0.97088 0 0 1 -0.47983,-1.05084a0.47983,0.97088 0 0 1 0.84677,-0.53684a0.48548,0.98231 0 0 1 -0.0621,1.37066a0.49112,0.99373 0 0 1 -0.28226,0.26271l-0.02258,-0.04569zm1.18547,-1.79328a0.47983,0.97088 0 0 1 -0.26532,-1.78186a13.96035,28.24702 0 0 1 1.32096,-1.57626a0.49112,0.99373 0 0 1 0.64354,0.4112a0.47983,0.97088 0 0 1 -0.20322,1.31355a14.16922,28.66964 0 0 0 -1.23063,1.47346a0.49112,0.99373 0 0 1 -0.24274,0.2056l-0.02258,-0.04569z"/>
   <path stroke="null" id="svg_60" d="m106.76956,287.86582l-0.07903,0a0.47983,0.97088 0 0 1 -0.38951,-1.14222c0.04516,-0.54826 0.10161,-1.14222 0.16371,-1.64479a0.47983,0.97088 0 1 1 0.93709,0.43404q-0.08468,0.75386 -0.15242,1.53057a0.47983,0.97088 0 0 1 -0.47983,0.8224z"/>
   <path stroke="null" id="svg_61" d="m216.71935,44.42517a0.47983,0.97088 0 0 1 -0.46854,-0.78813c0,-0.21702 -0.23709,-2.07883 -1.12902,-2.07883l-6.11365,0a0.47983,0.97088 0 0 1 -0.47983,-0.97088l0,-23.73526a0.47983,0.97088 0 0 1 0.47983,-0.97088l6.08543,0c0.72822,0 2.11127,0.79955 2.11127,3.82643l0,23.72384a0.47983,0.97088 0 0 1 -0.43467,0.97088l-0.05081,0.02284zm-7.23703,-4.79731l5.64511,0a1.91369,3.87211 0 0 1 1.09515,0.65106l0,-20.5599c0,-1.77044 -0.95967,-1.88466 -1.12902,-1.88466l-5.59995,0l-0.01129,21.79349z"/>
   <path stroke="null" id="svg_62" d="m216.71935,44.42517l-0.04516,0a0.47983,0.97088 0 0 1 -0.43467,-0.97088l0,-23.74669c0,-3.02687 1.38305,-3.82643 2.11127,-3.82643l6.08543,0a0.47983,0.97088 0 0 1 0.47983,0.97088l0,23.74669a0.47983,0.97088 0 0 1 -0.47983,0.97088l-6.14188,0c-0.89757,0 -1.09515,1.98746 -1.12902,2.06741a0.47983,0.97088 0 0 1 -0.44596,0.78813zm1.63144,-26.60223c-0.19193,0 -1.12902,0.11422 -1.12902,1.88466l0,20.5599a1.91369,3.87211 0 0 1 1.09515,-0.65106l5.64511,0l0,-21.79349l-5.61124,0z"/>
   <path stroke="null" id="svg_63" d="m213.30406,20.8384l-3.18384,0a0.47983,0.97088 0 1 1 0,-1.94177l3.18384,0a0.47983,0.97088 0 0 1 0,1.94177z"/>
   <path stroke="null" id="svg_64" d="m215.29114,24.42496l-5.17092,0a0.47983,0.97088 0 1 1 0,-1.94177l5.17092,0a0.47983,0.97088 0 0 1 0,1.94177z"/>
   <path stroke="null" id="svg_65" d="m214.4613,27.95441l-4.34109,0a0.47983,0.97088 0 1 1 0,-1.94177l4.34109,0a0.47983,0.97088 0 1 1 0,1.94177z"/>
   <path stroke="null" id="svg_66" d="m223.38058,37.97165l-3.25158,0a0.47983,0.97088 0 0 1 0,-1.94177l3.25158,0a0.47983,0.97088 0 0 1 0,1.94177z"/>
   <path stroke="null" id="svg_67" d="m71.44811,39.89057a0.47983,0.97088 0 0 1 -0.47983,-0.97088l0,-5.88242l-2.90723,0a0.47983,0.97088 0 0 1 -0.47983,-0.97088l0,-19.70324a0.47983,0.97088 0 0 1 0.47983,-0.97088l9.73781,0a0.47983,0.97088 0 0 1 0.47983,0.97088l0,19.64613a0.47983,0.97088 0 0 1 -0.47983,0.97088l-3.59593,0l-2.37095,6.46495a0.47983,0.97088 0 0 1 -0.38387,0.44546zm-2.92981,-8.79507l2.90723,0a0.47983,0.97088 0 0 1 0.47983,0.97088l0,3.9178l1.64837,-4.50033a0.47983,0.97088 0 0 1 0.38387,-0.38835l3.35319,0l0,-17.76147l-8.7725,0l0,17.76147z"/>
   <path stroke="null" id="svg_68" d="m83.43268,39.61644a0.47983,0.97088 0 0 1 -0.47983,-0.97088l0,-2.45577l-1.2137,0a0.47983,0.97088 0 0 1 -0.47983,-0.97088l0,-9.84591a0.47983,0.97088 0 0 1 0.47983,-0.97088l4.8435,0a0.47983,0.97088 0 0 1 0.47983,0.97088l0,9.85733a0.47983,0.97088 0 0 1 -0.47983,0.97088l-1.69353,0l-1.12902,3.0383a0.47983,0.97088 0 0 1 -0.32742,0.37693zm-1.2137,-5.36842l1.2137,0a0.47983,0.97088 0 0 1 0.47983,0.97088l0,0.49115l0.39516,-1.07368a0.47983,0.97088 0 0 1 0.38387,-0.38835l1.4395,0l0,-7.94983l-3.90642,0l-0.00565,7.94983z"/>
   <path stroke="null" id="svg_69" d="m95.84063,2.7l-7.52493,0l0,15.23717l2.61933,0l0,5.29989l1.94756,-5.29989l2.96368,0l-0.00565,-15.23717z" class="cls-5"/>
   <path stroke="null" id="svg_70" d="m32.99363,107.58976l-28.12958,0a0.47983,0.97088 0 0 1 -0.29355,-0.2056c-0.12984,-0.19418 -3.12739,-4.93438 -3.07094,-11.1823c0.03387,-3.6094 1.07257,-6.8533 3.08787,-9.80022a0.47983,0.97088 0 0 1 0.27661,-0.18275l28.12958,0a0.47983,0.97088 0 0 1 0.33306,1.66764c-0.175,0.34267 -4.21125,8.44098 0,18.06987a0.47983,0.97088 0 0 1 -0.35564,1.62195l0.02258,0.01142zm-27.96023,-1.94177l26.9554,0c-2.78304,-7.6757 -1.08951,-14.44904 0,-17.47592l-26.97233,0c-1.69353,2.46719 -2.53465,5.18566 -2.55723,8.06405c-0.04516,4.62598 2.04353,8.49809 2.57417,9.40044l0,0.01142z"/>
   <polygon stroke="null" id="svg_71" points="6.25274658203125,96.85292053222656 6.25274658203125,111.32481384277344 8.747894287109375,106.561767578125 11.243026733398438,111.32481384277344 11.243026733398438,96.85292053222656 6.25274658203125,96.85292053222656 " class="cls-4"/>
   <path stroke="null" id="svg_72" d="m5.80114,96.91003" class="cls-6"/>
   <path stroke="null" id="svg_73" d="m30.9501,96.91003" class="cls-6"/>
   <path stroke="null" id="svg_74" d="m5.80114,96.91003" class="cls-6"/>
   <path stroke="null" id="svg_75" d="m30.9501,96.91003" class="cls-6"/>
   <path stroke="null" id="svg_76" d="m30.9501,97.88092l-1.60321,0a0.47983,0.97088 0 0 1 0,-1.95319l1.60321,0a0.47983,0.97088 0 0 1 0,1.95319zm-3.20078,0a0.47983,0.97088 0 1 1 0.47983,-0.98231a0.48548,0.98231 0 0 1 -0.47983,0.98231zm-1.60321,0l-3.20078,0a0.47983,0.97088 0 0 1 0,-1.95319l3.20078,0a0.47983,0.97088 0 0 1 0,1.95319zm-4.79834,0a0.47983,0.97088 0 1 1 0.47983,-0.98231a0.48548,0.98231 0 0 1 -0.47983,0.98231zm-1.60321,0l-3.20078,0a0.47983,0.97088 0 0 1 0,-1.95319l3.20078,0a0.47983,0.97088 0 0 1 0,1.95319zm-4.79834,0a0.47983,0.97088 0 1 1 0.47983,-0.98231a0.48548,0.98231 0 0 1 -0.47983,0.98231zm-1.59757,0l-3.20642,0a0.47983,0.97088 0 0 1 0,-1.95319l3.20642,0a0.47983,0.97088 0 0 1 0,1.95319zm-4.80399,0a0.47983,0.97088 0 1 1 0.47983,-0.98231a0.48548,0.98231 0 0 1 -0.47983,0.98231zm-1.59757,0l-1.12902,0a0.47983,0.97088 0 0 1 0,-1.95319l1.12902,0a0.47983,0.97088 0 0 1 0,1.95319z"/>
   <path stroke="null" id="svg_77" d="m32.99363,83.19201l-28.12958,0a0.47983,0.97088 0 0 1 -0.29355,-0.2056c-0.12984,-0.19418 -3.12739,-4.93438 -3.07094,-11.1823c0.03387,-3.6094 1.07257,-6.8533 3.08787,-9.80022a0.47983,0.97088 0 0 1 0.27661,-0.18275l28.12958,0a0.47983,0.97088 0 0 1 0.33306,1.66764c-0.175,0.34267 -4.21125,8.44098 0,18.06987a0.47983,0.97088 0 0 1 -0.35564,1.62195l0.02258,0.01142zm-27.96023,-1.94177l26.9554,0c-2.78304,-7.6757 -1.08951,-14.44904 0,-17.47592l-26.97233,0c-1.69353,2.46719 -2.53465,5.18566 -2.55723,8.06405c-0.04516,4.6374 2.04353,8.49809 2.57417,9.41187z"/>
   <polygon stroke="null" id="svg_78" points="6.25274658203125,72.46659851074219 6.25274658203125,86.92706298828125 8.747894287109375,82.17544555664062 11.243026733398438,86.92706298828125 11.243026733398438,72.46659851074219 6.25274658203125,72.46659851074219 " class="cls-4"/>
   <path stroke="null" id="svg_79" d="m5.80114,72.51228" class="cls-6"/>
   <path stroke="null" id="svg_80" d="m30.9501,72.51228" class="cls-6"/>
   <path stroke="null" id="svg_81" d="m5.80114,72.51228" class="cls-6"/>
   <path stroke="null" id="svg_82" d="m30.9501,72.51228" class="cls-6"/>
   <path stroke="null" id="svg_83" d="m30.9501,73.48317l-1.60321,0a0.47983,0.97088 0 0 1 0,-1.94177l1.60321,0a0.47983,0.97088 0 0 1 0,1.94177zm-3.20078,0a0.47983,0.97088 0 1 1 0.47983,-0.97088a0.47983,0.97088 0 0 1 -0.47983,0.97088zm-1.60321,0l-3.20078,0a0.47983,0.97088 0 0 1 0,-1.94177l3.20078,0a0.47983,0.97088 0 0 1 0,1.94177zm-4.79834,0a0.47983,0.97088 0 1 1 0.47983,-0.97088a0.47983,0.97088 0 0 1 -0.47983,0.97088zm-1.60321,0l-3.20078,0a0.47983,0.97088 0 0 1 0,-1.94177l3.20078,0a0.47983,0.97088 0 1 1 0,1.94177zm-4.79834,0a0.47983,0.97088 0 1 1 0.47983,-0.97088a0.47983,0.97088 0 0 1 -0.47983,0.97088zm-1.59757,0l-3.20078,0a0.47983,0.97088 0 0 1 0,-1.94177l3.20078,0a0.47983,0.97088 0 0 1 0,1.94177zm-4.80399,0a0.47983,0.97088 0 1 1 0.47983,-0.97088a0.47983,0.97088 0 0 1 -0.47983,0.97088zm-1.59757,0l-1.12902,0a0.47983,0.97088 0 0 1 0,-1.94177l1.12902,0a0.47983,0.97088 0 0 1 0,1.94177z"/>
   <path stroke="null" id="svg_84" d="m170.28268,51.02719a3.26287,6.60201 0 0 1 -3.26287,-6.60201l0,-3.95207a0.47983,0.97088 0 1 1 0.95967,0l0,3.95207a2.3032,4.66024 0 1 0 4.60076,0l0,-0.58253a0.47983,0.97088 0 1 1 0.95967,0l0,0.58253a3.26287,6.60201 0 0 1 -3.25723,6.60201z"/>
   <path stroke="null" id="svg_85" d="m173.41007,44.57366l-0.1129,0c-1.07257,-0.514 -1.66531,-3.10683 -1.92498,-4.56887c-3.30239,2.38723 -5.31205,0.57111 -5.39672,0.49115a0.47983,0.97088 0 0 1 -0.27661,-0.9252c0.15242,-5.99664 2.99191,-8.07547 4.46528,-8.3496l0.07339,0a4.08141,8.25823 0 0 1 3.60158,4.96864a3.65803,7.40156 0 0 1 -0.05645,8.08689a0.47983,0.97088 0 0 1 -0.37258,0.29698zm-1.72176,-6.8533a0.47983,0.97088 0 0 1 0.46854,0.74244a4.00238,8.09832 0 0 0 1.05564,3.92923a2.82255,5.71108 0 0 0 -0.22016,-5.34557a0.44032,0.89093 0 0 1 -0.03387,-0.15991a3.12175,6.31646 0 0 0 -2.73788,-3.75789c-0.37258,0.07996 -3.14997,0.89093 -3.52255,5.77962c0.67177,0.36551 2.37659,0.89093 4.80963,-1.14222a0.47983,0.97088 0 0 1 0.18064,-0.13707l0,0.09138zm-5.50963,1.77044l0,0z"/>
   <path stroke="null" id="svg_86" d="m170.98832,53.59717l-1.42257,0a0.47983,0.97088 0 0 1 -0.47983,-0.97088l0,-2.13595a0.47983,0.97088 0 0 1 0.47983,-0.97088l1.41128,0a0.47983,0.97088 0 0 1 0.47983,0.97088l0,2.07883a0.47983,0.97088 0 0 1 -0.46854,1.028zm-0.93144,-1.94177l0.45161,0l0,-0.22844l-0.45161,0l0,0.22844z"/>
   <path stroke="null" id="svg_87" d="m175.47054,59.19404l-10.37571,0a0.47983,0.97088 0 0 1 -0.47983,-0.97088a2.43869,4.93438 0 0 1 0.76209,-3.64367c1.54676,-3.06114 4.99592,-2.9355 5.14269,-2.9355c5.29511,0 5.43059,6.28219 5.43059,6.55632a0.47983,0.97088 0 0 1 -0.47983,0.99373zm-9.82813,-1.94177l9.21282,0c-0.29919,-1.37066 -1.25886,-3.65509 -4.35238,-3.65509c-0.04516,0 -3.20078,-0.11422 -4.45964,2.38723a1.54111,3.11825 0 0 0 -0.39516,1.26786l-0.00565,0z"/>
   <path stroke="null" id="svg_88" d="m133.2056,320.33904a0.47419,0.95946 0 0 1 -0.21451,-0.1028l-4.78141,-4.76304a14.21438,28.76102 0 0 1 -22.11754,-23.91802a14.36116,29.05799 0 0 1 0.20322,-4.86584a0.47983,0.97088 0 0 1 0.94838,0.33124a13.2773,26.86494 0 0 0 13.07407,31.37669a13.17568,26.65934 0 0 0 7.58138,-4.83158a0.47983,0.97088 0 0 1 0.48548,-0.07996l3.65239,3.64367l-1.84595,-6.71623a0.47983,0.97088 0 0 1 0.0621,-1.14222a13.24907,26.80783 0 0 0 -9.93539,-44.54645c-0.43467,0 -0.86935,0 -1.29838,0.12564a0.47983,0.97088 0 0 1 -0.09032,-1.93035c0.45725,-0.09138 0.9258,-0.13707 1.39434,-0.13707a14.20874,28.74959 0 0 1 10.85554,47.27635l2.4274,8.84076a0.47983,0.97088 0 0 1 -0.41774,1.43919l0.01694,0z"/>
   <text stroke="null" transform="matrix(0.5645109059267438,0,0,1.1422167118585596,-20.405464478668375,-15.881290861655517) " id="svg_89" x="237.58356" y="276.76775" class="cls-7">BLA</text>
   <path stroke="null" id="svg_90" d="m45.70641,44.57366a9.38217,18.98364 0 1 0 -1.69353,3.02687l3.44352,3.42665l-1.74998,-6.45352z" class="cls-2"/>
   <path stroke="null" id="svg_91" d="m35.30248,37.86885l6.68381,0s0.50241,-7.11601 -3.34755,-7.51579c0.01129,0 -3.33626,0 -3.33626,7.51579z" class="cls-8"/>
   <circle stroke="null" id="svg_92" r="1.67944" cy="26.68655" cx="38.66132" class="cls-8"/>
   <path stroke="null" id="svg_93" d="m32.82428,59.42248l2.77739,-10.0972a13.14746,26.60223 0 1 1 2.60804,4.7402l-5.38543,5.357zm5.43059,-6.68197l0.13548,0.19418a12.69585,25.68845 0 1 0 -2.25804,-4.05487l0.12984,0.3084l-2.08869,7.60716l4.08141,-4.05487z" class="cls-5"/>
   <rect stroke="null" id="svg_94" height="41.66807" width="34.00049" y="277.02909" x="198.95984" class="cls-4"/>
   <path stroke="null" id="svg_95" d="m235.04902,334.44542l-38.16094,0a0.47983,0.97088 0 0 1 -0.47983,-0.97088l0,-55.71733a0.47983,0.97088 0 0 1 0.47983,-0.97088l38.16094,0a0.47983,0.97088 0 0 1 0.47983,0.97088l0,55.71733a0.47983,0.97088 0 0 1 -0.47983,0.97088zm-37.6811,-1.94177l37.20127,0l0,-53.77556l-37.20127,0l0,53.77556z"/>
   <path stroke="null" id="svg_96" d="m235.04902,324.66804l-38.16094,0a0.47983,0.97088 0 0 1 0,-1.94177l38.16094,0a0.47983,0.97088 0 0 1 0,1.94177z"/>
   <path stroke="null" id="svg_97" d="m223.19429,345.68483l-13.54826,0a0.47983,0.97088 0 0 1 -0.32177,-1.69048s2.50078,-4.68309 2.50078,-10.51982a0.47983,0.97088 0 0 1 0.47983,-0.97088l8.69347,0a0.47983,0.97088 0 0 1 0.47983,0.90235c0,0.06853 0.25403,7.02463 2.03224,10.62262a0.47983,0.97088 0 0 1 -0.33871,1.65621l0.02258,0zm-12.41924,-1.94177l11.41441,0a11.01925,22.29607 0 0 1 -1.59192,-9.29764l-7.80719,0a8.55799,17.31601 0 0 1 -2.0153,9.29764z"/>
   <path stroke="null" id="svg_98" d="m216.42016,306.74666l-0.06774,0l-8.46766,-6.63628a0.18629,0.37693 0 0 1 0,-0.68533l8.46766,-7.13885a0.18629,0.37693 0 0 1 0.14113,0l8.46766,7.13885a0.18629,0.37693 0 0 1 0,0.68533l-8.46766,6.63628l-0.07339,0zm-7.95396,-7.02463l7.95396,6.25935l7.95396,-6.24793l-7.95396,-6.72766l-7.95396,6.71623z" class="cls-8"/>
   <path stroke="null" id="svg_99" d="m216.42016,312.36637l0,0a11.18296,22.62731 0 0 1 -4.73625,-4.50033a0.18629,0.37693 0 0 1 -0.06774,-0.28555l0,-4.86584a0.18629,0.37693 0 0 1 0.36693,0l0,4.66024a10.96845,22.19327 0 0 0 4.4427,4.21478a31.52793,63.7928 0 0 0 4.37496,-4.44322l0,-4.35185a0.18629,0.37693 0 1 1 0.36693,0l0,4.56887a0.18629,0.37693 0 0 1 -0.07903,0.3084a30.96342,62.65059 0 0 1 -4.57818,4.67167l-0.09032,0.02284z" class="cls-8"/>
   <path stroke="null" id="svg_100" d="m216.42016,312.36637a0.18629,0.37693 0 0 1 -0.18629,-0.37693l0,-5.60828a0.18629,0.37693 0 0 1 0.36693,0l0,5.60828a0.18629,0.37693 0 0 1 -0.18064,0.37693z" class="cls-8"/>
   <path stroke="null" id="svg_101" d="m211.33956,313.49716l-1.80643,0a0.18629,0.37693 0 0 1 -0.18629,-0.37693l0,-3.2439a1.04435,2.1131 0 0 1 1.12902,-2.15879a1.01047,2.04457 0 0 1 1.12902,2.03315l0,3.42665a0.18629,0.37693 0 0 1 -0.26532,0.31982zm-1.64837,-0.74244l1.46773,0l0,-3.00403a0.64919,1.31355 0 0 0 -0.73386,-1.27928a0.67741,1.37066 0 0 0 -0.73386,1.41635l0,2.86696z" class="cls-8"/>
   <path stroke="null" id="svg_102" d="m216.38064,299.8591c-0.83548,0 -1.49595,-0.84524 -1.49595,-1.93035s0.65483,-1.93035 1.49595,-1.93035s1.49595,0.84524 1.49595,1.93035s-0.65483,1.93035 -1.49595,1.93035zm0,-3.11825c-0.66612,0 -1.12902,0.62822 -1.12902,1.14222s0.4629,1.14222 1.12902,1.14222s1.12902,-0.62822 1.12902,-1.14222s-0.4629,-1.14222 -1.12902,-1.14222z" class="cls-8"/>
   <path stroke="null" id="svg_103" d="m210.44763,308.42572a0.18629,0.37693 0 0 1 -0.18629,-0.37693l0,-6.40784a0.18629,0.37693 0 0 1 0.12419,-0.35409l4.69109,-3.26674a0.18629,0.37693 0 0 1 0.11855,0.70817l-4.56689,3.18678l0,6.14513a0.18629,0.37693 0 0 1 -0.18064,0.36551z" class="cls-8"/>
   <path stroke="null" id="svg_104" d="m37.14278,287.11196l-4.31286,15.12295l3.38707,0l0,11.9019s0,6.28219 4.62899,6.28219l4.62899,0l0,5.42553l14.62648,0l0,-20.44568s3.78787,-10.22284 3.78787,-21.0739s-5.26124,-25.76841 -13.54826,-25.76841c-0.03952,0.02284 -13.19826,1.51915 -13.19826,28.55542z" class="cls-5"/>
   <path stroke="null" id="svg_105" d="m63.28528,276.0553l-9.18459,0a0.47983,0.97088 0 0 1 0,-1.94177l9.17895,0a0.47983,0.97088 0 0 1 0,1.94177l0.00565,0z"/>
   <polygon stroke="null" id="svg_106" points="62.201416015625,278.3054504394531 68.13441467285156,275.0958251953125 62.201416015625,271.8747863769531 62.201416015625,278.3054504394531 "/>
   <path stroke="null" id="svg_107" d="m62.66997,284.62193l-9.18459,0a0.47983,0.97088 0 0 1 0,-1.94177l9.17895,0a0.47983,0.97088 0 0 1 0,1.94177l0.00565,0z"/>
   <polygon stroke="null" id="svg_108" points="54.57489013671875,280.4413757324219 48.641876220703125,283.6624755859375 54.57489013671875,286.88348388671875 54.57489013671875,280.4413757324219 "/>
   <path stroke="null" id="svg_109" d="m239.64414,281.93772a0.47419,0.95946 0 0 1 -0.15242,0a0.47983,0.97088 0 0 1 -0.32742,-0.9252l0,-5.88242l-2.90723,0a0.47983,0.97088 0 0 1 -0.47983,-0.97088l0,-19.74893a0.47983,0.97088 0 0 1 0.47983,-0.97088l9.73781,0a0.47983,0.97088 0 0 1 0.47983,0.97088l0,19.74893a0.47983,0.97088 0 0 1 -0.47983,0.97088l-3.60722,0l-2.37095,6.46495a0.47983,0.97088 0 0 1 -0.37258,0.34267zm-2.90723,-8.79507l2.90723,0a0.47983,0.97088 0 0 1 0.47983,0.97088l0,3.9178l1.64837,-4.50033a0.47983,0.97088 0 0 1 0.38387,-0.38835l3.35319,0l0,-17.76147l-8.76685,0l-0.00565,17.76147z"/>
   <path stroke="null" id="svg_110" d="m240.7788,269.202a0.47983,0.97088 0 0 1 -0.32177,-0.25129l-1.63708,-3.02687a0.47983,0.97088 0 0 1 0.64919,-1.42777l0.99354,1.83897a5.79753,11.73057 0 0 1 3.52819,-7.99552a0.47983,0.97088 0 0 1 0.33306,1.82755a4.86608,9.84591 0 0 0 -3.06529,8.12116a0.47983,0.97088 0 0 1 -0.30484,0.8224a0.48548,0.98231 0 0 1 -0.175,0.09138z" class="cls-4"/>
   <path stroke="null" id="svg_111" d="m206.01058,90.11384l-3.20078,0a0.47983,0.97088 0 1 1 0,-1.94177l3.20078,0a0.47983,0.97088 0 0 1 0,1.94177zm-4.80399,0a0.47983,0.97088 0 1 1 0.47983,-0.97088a0.47983,0.97088 0 0 1 -0.50806,0.97088l0.02823,0zm-1.59757,0l-3.20078,0a0.47983,0.97088 0 0 1 0,-1.94177l3.20078,0a0.47983,0.97088 0 0 1 0,1.94177zm-4.80399,0a0.47983,0.97088 0 1 1 0.47983,-0.97088a0.47983,0.97088 0 0 1 -0.47983,0.97088zm-1.59757,0l-1.62579,0a0.47983,0.97088 0 1 1 0,-1.94177l1.60321,0a0.47983,0.97088 0 0 1 0,1.94177l0.02258,0zm12.8144,-3.20963a0.47983,0.97088 0 1 1 0.47983,-0.97088a0.48548,0.98231 0 0 1 -0.47983,0.97088zm0,-3.2439a0.47983,0.97088 0 0 1 -0.47983,-0.97088l0,-6.47637a0.47983,0.97088 0 1 1 0.95967,0l0,6.47637a0.47983,0.97088 0 0 1 -0.47983,0.97088zm0,-9.70884a0.47983,0.97088 0 1 1 0.47983,-0.97088a0.47983,0.97088 0 0 1 -0.47983,0.97088zm0,-3.2439a0.47983,0.97088 0 0 1 -0.47983,-0.97088l0,-6.47637a0.47983,0.97088 0 1 1 0.95967,0l0,6.4421a0.47983,0.97088 0 0 1 -0.47983,1.00515zm0,-9.70884a0.47983,0.97088 0 1 1 0.47983,-0.97088a0.47983,0.97088 0 0 1 -0.47983,0.97088zm0,-3.2439a0.47983,0.97088 0 0 1 -0.47983,-0.97088l0,-6.49921a0.47983,0.97088 0 1 1 0.95967,0l0,6.46495a0.47983,0.97088 0 0 1 -0.47983,1.00515zm0,-9.70884a0.47983,0.97088 0 1 1 0.47983,-0.97088a0.47983,0.97088 0 0 1 -0.47983,0.9252l0,0.04569zm0,-3.2439a0.47983,0.97088 0 0 1 -0.47983,-0.97088l0,-6.46495a0.47983,0.97088 0 1 1 0.95967,0l0,6.46495a0.47983,0.97088 0 0 1 -0.47983,0.97088zm33.81985,-5.82531a0.47983,0.97088 0 0 1 -0.47983,-0.97088l0,-0.70817a0.47983,0.97088 0 1 1 0.95967,0l0,0.70817a0.47983,0.97088 0 0 1 -0.47983,0.97088zm-33.81985,-3.88354a0.47983,0.97088 0 1 1 0.47983,-0.97088a0.47983,0.97088 0 0 1 -0.47983,0.97088zm33.81985,0a0.47983,0.97088 0 1 1 0.47983,-0.97088a0.47983,0.97088 0 0 1 -0.47983,0.91377l0,0.05711zm-33.81985,-3.17536a0.48548,0.98231 0 0 1 -0.47983,-0.97088l0,-6.47637a0.47983,0.97088 0 0 1 0.95967,0l0,6.39641a0.48548,0.98231 0 0 1 -0.47983,0.99373l0,0.05711zm33.81985,0a0.48548,0.98231 0 0 1 -0.47983,-0.97088l0,-6.59059a0.47983,0.97088 0 1 1 0.95967,0l0,6.51064a0.48548,0.98231 0 0 1 -0.47983,0.93662l0,0.11422zm-33.81985,-9.66315a0.47983,0.97088 0 1 1 0.47983,-0.97088a0.47983,0.97088 0 0 1 -0.47983,0.85666l0,0.11422zm33.81985,0a0.47983,0.97088 0 1 1 0.47983,-0.97088a0.47983,0.97088 0 0 1 -0.47983,0.79955l0,0.17133zm-33.81985,-3.17536a0.47983,0.97088 0 0 1 -0.47983,-0.97088l0,-6.65912a0.47983,0.97088 0 1 1 0.95967,0l0,6.47637a0.47983,0.97088 0 0 1 -0.47983,0.98231l0,0.17133zm33.81985,0a0.47983,0.97088 0 0 1 -0.47983,-0.97088l0,-6.65912a0.47983,0.97088 0 1 1 0.95967,0l0,6.47637a0.47983,0.97088 0 0 1 -0.47983,0.9252l0,0.22844zm-0.92015,-7.84703a0.47983,0.97088 0 1 1 0.47983,-0.97088a0.47983,0.97088 0 0 1 -0.47983,0.74244l0,0.22844zm-1.60321,0l-3.20078,0a0.47983,0.97088 0 0 1 0,-1.94177l3.18949,0a0.47983,0.97088 0 1 1 0,1.94177l0.01129,0zm-4.79834,0a0.47983,0.97088 0 1 1 0.47983,-0.97088a0.47983,0.97088 0 0 1 -0.47983,0.74244l0,0.22844zm-1.60321,0l-3.20642,0a0.47983,0.97088 0 0 1 0,-1.94177l3.20078,0a0.47983,0.97088 0 1 1 0,1.94177l0.00565,0zm-4.79834,0a0.47983,0.97088 0 1 1 0.47983,-0.97088a0.47983,0.97088 0 0 1 -0.47983,0.74244l0,0.22844zm-1.60321,0l-3.19513,0a0.47983,0.97088 0 1 1 0,-1.94177l3.19513,0a0.47983,0.97088 0 0 1 0,1.94177zm-4.79834,0a0.47983,0.97088 0 1 1 0.47983,-0.97088a0.47983,0.97088 0 0 1 -0.47983,0.74244l0,0.22844zm-1.59757,0l-3.20078,0a0.47983,0.97088 0 0 1 0,-1.94177l3.19513,0a0.47983,0.97088 0 0 1 0,1.94177l0.00565,0zm-4.80399,0a0.47983,0.97088 0 1 1 0.47983,-0.97088a0.47983,0.97088 0 0 1 -0.47983,0.74244l0,0.22844zm-1.59757,0l-3.20078,0a0.47983,0.97088 0 1 1 0,-1.94177l3.20078,0a0.47983,0.97088 0 0 1 0,1.94177zm-4.80399,0a0.47983,0.97088 0 1 1 0.47983,-0.97088a0.47983,0.97088 0 0 1 -0.47983,0.74244l0,0.22844z"/>
   <path stroke="null" id="svg_112" d="m239.84171,46.85809a2.25804,4.56887 0 1 1 2.25804,-4.56887a2.28627,4.62598 0 0 1 -2.25804,4.56887zm0,-7.29876a1.32096,2.67279 0 1 0 1.3266,2.67279a1.3266,2.68421 0 0 0 -1.3266,-2.68421l0,0.01142z"/>
   <path stroke="null" id="svg_113" d="m189.80347,93.58618a2.25804,4.56887 0 1 1 2.25804,-4.56887a2.28627,4.62598 0 0 1 -2.25804,4.56887zm0,-7.29876a1.3266,2.68421 0 1 0 1.32096,2.68421a1.3266,2.68421 0 0 0 -1.32096,-2.68421z"/>
   <rect stroke="null" id="svg_114" height="29.90323" width="22.38286" y="72.98059" x="159.09407" class="cls-3"/>
   <path stroke="null" id="svg_115" d="m185.4906,109.94272l-30.27472,0c-0.05645,0 -2.63062,-0.43404 -2.63062,-7.07032a0.47983,0.97088 0 0 1 0.47983,-0.97088l34.43517,0a0.47983,0.97088 0 0 1 0.47983,0.97088c0,2.44434 -0.51935,7.07032 -2.48949,7.07032zm-31.92309,-6.09944c0.19758,3.78074 1.52418,4.1234 1.69353,4.15767l30.24085,0c1.08951,0 1.40563,-2.66136 1.49031,-4.15767l-33.42469,0z"/>
   <path stroke="null" id="svg_116" d="m183.67852,103.84329l-26.80862,0a0.47983,0.97088 0 0 1 -0.47983,-0.97088l0,-35.12316a0.47983,0.97088 0 0 1 0.47983,-0.97088l26.80862,0a0.47983,0.97088 0 0 1 0.47983,0.97088l0,35.07748a0.47983,0.97088 0 0 1 -0.47983,1.01657zm-26.35137,-1.94177l25.87153,0l0,-33.1814l-25.84895,0l-0.02258,33.1814z"/>
   <polygon stroke="null" id="svg_117" points="167.793212890625,78.18910217285156 174.00845336914062,78.18910217285156 173.40444946289062,81.70713806152344 174.7423095703125,80.97611999511719 174.7423095703125,98.06367492675781 167.793212890625,98.06367492675781 167.793212890625,78.18910217285156 " class="cls-8"/>
   <path stroke="null" id="svg_118" d="m173.40443,86.28742l-4.34673,0a0.47983,0.97088 0 1 1 0,-1.94177l4.34109,0a0.47983,0.97088 0 1 1 0,1.94177l0.00565,0z"/>
   <path stroke="null" id="svg_119" d="m173.40443,89.93109l-4.34673,0a0.47983,0.97088 0 1 1 0,-1.94177l4.34109,0a0.47983,0.97088 0 1 1 0,1.94177l0.00565,0z"/>
   <path stroke="null" id="svg_120" d="m173.40443,93.58618l-4.34673,0a0.47983,0.97088 0 1 1 0,-1.94177l4.34109,0a0.47983,0.97088 0 1 1 0,1.94177l0.00565,0z"/>
   <path stroke="null" id="svg_121" d="m36.27344,350.41361l-0.24274,0a0.50241,1.01657 0 0 1 -0.33871,-0.29698a0.47419,0.95946 0 0 1 0.33871,-1.64479l0.24274,0c0.44032,0 0.89193,0 1.33789,-0.06853s1.03305,-0.12564 1.56934,-0.22844a0.47983,0.97088 0 1 1 0.09597,1.93035c-0.56451,0.11422 -1.08951,0.19418 -1.62015,0.23987s-0.91451,0.06853 -1.38305,0.06853zm-1.84031,-0.12564l0,0a0.47983,0.97088 0 1 1 0.05645,-1.93035a0.4629,0.93662 0 0 1 0.33306,0.31982a0.49112,0.99373 0 0 1 0.11855,0.70817a0.47983,0.97088 0 0 1 -0.50806,0.90235zm-1.59192,-0.29698l-0.0621,0c-1.01612,-0.26271 -1.60321,-0.53684 -1.63144,-0.54826a0.47419,0.95946 0 0 1 -0.29355,-0.43404a0.47983,0.97088 0 0 1 0.5137,-1.46204l0,0c0.40645,0.18275 0.94273,0.35409 1.50724,0.50258a0.47419,0.95946 0 0 1 0.41774,1.08511a0.47983,0.97088 0 0 1 -0.45161,0.85666zm7.97654,-0.29698a0.47983,0.97088 0 0 1 -0.38951,-1.54199a0.50241,1.01657 0 0 1 0.31613,-0.38835a0.48548,0.98231 0 0 1 0.56451,0.81097a0.49112,0.99373 0 0 1 -0.08468,0.7196a0.47419,0.95946 0 0 1 -0.31613,0.38835l-0.09032,0.01142zm1.56934,-0.58253a0.48548,0.98231 0 0 1 -0.46854,-0.77671a0.46854,0.94804 0 0 1 0.06774,-0.7196a0.43467,0.87951 0 0 1 0.30484,-0.42262c0.49677,-0.21702 1.00483,-0.47973 1.50724,-0.75386l0,0c0.5137,-0.28555 1.01612,-0.60537 1.5016,-0.93662a0.47983,0.97088 0 0 1 0.56451,1.34782a0.46854,0.94804 0 0 1 -0.27661,0.49115c-0.50806,0.35409 -1.03305,0.67391 -1.55805,0.97088s-1.04999,0.55969 -1.58063,0.78813l-0.0621,0.01142zm4.58383,-2.86696a0.48548,0.98231 0 0 1 -0.44596,-0.60537a0.5137,1.03942 0 0 1 0,-0.74244a0.46854,0.94804 0 0 1 0.25403,-0.514l0,0a0.48548,0.98231 0 0 1 0.62661,0.52542a0.47983,0.97088 0 0 1 -0.26532,1.26786a0.4008,0.81097 0 0 1 -0.16935,0.06853zm1.46208,-1.32497a0.47419,0.95946 0 0 1 -0.20887,-1.83897c0.47983,-0.47973 0.94838,-0.97088 1.3887,-1.47346s0.90886,-1.07368 1.34354,-1.64479a0.49112,0.99373 0 0 1 0.66612,0.28555a0.48548,0.98231 0 0 1 -0.14677,1.34782c-0.4629,0.60537 -0.93144,1.14222 -1.3887,1.7019s-0.95402,1.03942 -1.44515,1.53057a0.56451,1.14222 0 0 1 -0.20887,0.14849l0,-0.05711zm4.09835,-5.01433a0.47419,0.95946 0 0 1 -0.38387,-0.39978a0.47983,0.97088 0 0 1 0.10161,-1.35924a0.50241,1.01657 0 0 1 0.67177,0.2056a0.48548,0.98231 0 0 1 -0.10161,1.35924a0.47419,0.95946 0 0 1 -0.2879,0.19418zm1.25886,-1.99888a0.46854,0.94804 0 0 1 -0.36693,-0.35409a0.47419,0.95946 0 0 1 0.05645,-1.35924c0.39516,-0.67391 0.79596,-1.38208 1.17418,-2.1131l0.66048,-1.2907a0.48548,0.98231 0 0 1 0.67741,0a0.47983,0.97088 0 0 1 0,1.37066c-0.21451,0.44546 -0.43467,0.89093 -0.67741,1.34782c-0.4008,0.75386 -0.80725,1.48488 -1.21934,2.18163a0.4629,0.93662 0 0 1 -0.30484,0.21702z"/>
   <path stroke="null" id="svg_122" d="m19.93085,299.97332a0.24274,0.49115 0 0 1 -0.24274,-0.47973l0,-24.40917a0.24274,0.49115 0 0 1 0.24274,-0.47973l15.09502,0a0.23709,0.47973 0 1 1 0,0.97088l-14.85793,0l0,23.91802a0.24274,0.49115 0 0 1 -0.23709,0.47973z"/>
   <path stroke="null" id="svg_123" d="m89.59149,311.57824l-0.07339,0a0.47983,0.97088 0 1 1 0,-1.94177l0.07339,0a0.47983,0.97088 0 1 1 0,1.94177zm-1.69353,0a0.47983,0.97088 0 1 1 0.47983,-0.97088a0.47983,0.97088 0 0 1 -0.45725,0.97088l-0.02258,0zm-1.59757,0l-3.20642,0a0.47983,0.97088 0 1 1 0,-1.94177l3.20642,0a0.47983,0.97088 0 0 1 0,1.94177zm-4.80399,0a0.47983,0.97088 0 1 1 0.47983,-0.97088a0.47983,0.97088 0 0 1 -0.47419,0.97088l-0.00565,0zm-1.59757,0l-3.20078,0a0.47983,0.97088 0 1 1 0,-1.94177l3.20078,0a0.47983,0.97088 0 1 1 0,1.94177zm-4.80399,0a0.47983,0.97088 0 1 1 0.47983,-0.97088a0.47983,0.97088 0 0 1 -0.45725,0.97088l-0.02258,0zm-1.59757,0l-3.20078,0a0.47983,0.97088 0 1 1 0,-1.94177l3.20078,0a0.47983,0.97088 0 1 1 0,1.94177zm-4.80399,0a0.47983,0.97088 0 1 1 0.47983,-0.97088a0.47983,0.97088 0 0 1 -0.45725,0.97088l-0.02258,0zm-1.59757,0l-1.59757,0a0.47983,0.97088 0 1 1 0,-1.94177l1.59757,0a0.47983,0.97088 0 0 1 0,1.94177z"/>
   <path stroke="null" id="svg_124" d="m75.29243,60.5647l2.25804,7.99552l-1.77821,0l0,6.29361s0,3.31243 -2.44433,3.31243l-2.44433,0l0,2.86696l-7.70557,0l0,-10.78253s-1.99837,-5.39126 -1.99837,-11.11377s2.77739,-13.59238 7.158,-13.59238c0,-0.06853 6.95477,0.7196 6.95477,15.02015z" class="cls-2"/>
   <path stroke="null" id="svg_125" d="m281.594,73.52773l-4.59512,16.10526l3.58464,0l0,12.70145s0,6.69339 4.92818,6.69339l4.92818,0l0,5.77962l15.58615,0l0,-21.78207s4.03625,-10.88533 4.03625,-22.44456s-5.60559,-27.4132 -14.45712,-27.4132c0,-0.02284 -14.01116,1.56484 -14.01116,30.36012z" class="cls-4"/>
   <path stroke="null" id="svg_126" d="m96.74385,75.92751l-3.95158,0a0.26532,0.53684 0 0 1 -0.26532,-0.55969a2.44998,4.95722 0 0 0 -0.73951,-3.00403c-0.06774,-0.14849 -1.37741,-3.12967 -1.37741,-6.40784c0,-6.43068 1.54676,-9.97155 4.35238,-9.97155c3.90642,0 4.20561,9.0692 4.20561,9.13773a4.13222,8.36103 0 0 1 -1.07257,6.12228c-1.07257,2.51288 -0.90886,3.97491 -0.90886,3.98634a0.27097,0.54826 0 0 1 -0.05081,0.45689a0.26532,0.53684 0 0 1 -0.19193,0.23987zm-3.6919,-1.06226l3.38707,0a3.60158,7.28734 0 0 1 1.04435,-4.29473a3.6411,7.3673 0 0 0 0.94838,-5.32273a6.06849,12.27883 0 0 0 -0.56451,-4.19194a3.26852,6.61343 0 0 0 -3.1161,-4.00918c-3.16126,0 -3.82738,4.843 -3.82738,8.90929c0,2.87839 1.21934,5.65397 1.23063,5.71108a3.29674,6.67055 0 0 1 0.90886,3.19821l-0.01129,0z" class="cls-8"/>
   <path stroke="null" id="svg_127" d="m97.46077,75.92751l-5.4814,0a0.26532,0.53684 0 1 1 0,-1.06226l5.4814,0a0.26532,0.53684 0 1 1 0,1.06226z" class="cls-8"/>
   <path stroke="null" id="svg_128" d="m97.46077,77.89212l-5.4814,0a0.26532,0.53684 0 1 1 0,-1.06226l5.4814,0a0.26532,0.53684 0 1 1 0,1.06226z" class="cls-8"/>
   <path stroke="null" id="svg_129" d="m96.39385,79.91385l-3.34755,0a0.26532,0.53684 0 0 1 0,-1.06226l3.34755,0a0.26532,0.53684 0 0 1 0,1.06226z" class="cls-8"/>
   <path stroke="null" id="svg_130" d="m95.99305,81.93557l-2.54594,0a0.26532,0.53684 0 0 1 0,-1.06226l2.54594,0a0.26532,0.53684 0 0 1 0,1.06226z" class="cls-8"/>
   <path stroke="null" id="svg_131" d="m96.15111,75.92751l0,0a0.26532,0.53684 0 0 1 -0.24838,-0.55969l0.21451,-7.65285l-1.24757,1.55341a0.26532,0.53684 0 0 1 -0.27661,0l-1.23628,-1.50773l0.46854,6.76192a0.26532,0.53684 0 1 1 -0.51935,0.14849l-0.56451,-7.89272a0.26532,0.53684 0 0 1 0.4008,-0.52542l1.53547,1.91892l1.53547,-1.91892a0.26532,0.53684 0 0 1 0.4008,0.47973l-0.24274,8.68085a0.26532,0.53684 0 0 1 -0.22016,0.514z" class="cls-8"/>
   <path stroke="null" id="svg_132" d="m237.80948,366.49602l-0.24274,0a0.4008,0.81097 0 1 1 0,-1.62195l0.24274,0c0.43467,0 0.88064,0 1.32096,-0.11422s1.02741,-0.25129 1.53547,-0.45689a0.40645,0.8224 0 0 1 0.47419,0.62822a0.38951,0.78813 0 0 1 -0.0621,0.6168a0.4008,0.81097 0 0 1 -0.25403,0.34267a15.80631,31.98207 0 0 1 -1.62579,0.47973c-0.45725,0.07996 -0.9258,0.12564 -1.3887,0.12564zm-1.84031,0a0.4008,0.81097 0 1 1 0.39516,-0.81097a0.4008,0.81097 0 0 1 -0.39516,0.81097zm-1.60321,0l-3.20078,0a0.4008,0.81097 0 0 1 0,-1.62195l3.20078,0a0.4008,0.81097 0 1 1 0,1.62195zm-4.79834,0a0.4008,0.81097 0 0 1 0,-1.62195a0.4008,0.81097 0 0 1 0,1.62195zm-1.60321,0l-3.20078,0a0.4008,0.81097 0 1 1 0,-1.62195l3.20078,0a0.4008,0.81097 0 1 1 0,1.62195zm-4.79834,0a0.4008,0.81097 0 1 1 0,-1.62195a0.4008,0.81097 0 0 1 0,1.62195zm-1.60321,0l-3.20078,0a0.4008,0.81097 0 1 1 0,-1.62195l3.20078,0a0.4008,0.81097 0 0 1 0,1.62195zm-4.79834,0a0.4008,0.81097 0 1 1 0.4008,-0.81097a0.4008,0.81097 0 0 1 -0.4008,0.81097zm-1.60321,0l-3.20078,0a0.4008,0.81097 0 0 1 0,-1.62195l3.20078,0a0.4008,0.81097 0 1 1 0,1.62195zm-4.79834,0a0.4008,0.81097 0 1 1 0.4008,-0.81097a0.4008,0.81097 0 0 1 -0.4008,0.81097zm-1.59757,0l-3.20078,0a0.4008,0.81097 0 0 1 0,-1.62195l3.20078,0a0.4008,0.81097 0 0 1 0,1.62195zm-4.80399,0a0.4008,0.81097 0 1 1 0.4008,-0.81097a0.4008,0.81097 0 0 1 -0.4008,0.81097zm-1.59757,0l-3.20078,0a0.4008,0.81097 0 1 1 0,-1.62195l3.20078,0a0.4008,0.81097 0 1 1 0,1.62195zm-4.80399,0a0.4008,0.81097 0 0 1 0,-1.62195a0.4008,0.81097 0 1 1 0,1.62195zm-1.59757,0l-3.20078,0a0.4008,0.81097 0 0 1 0,-1.62195l3.20078,0a0.4008,0.81097 0 0 1 0,1.62195zm-4.80399,0a0.4008,0.81097 0 1 1 0.4008,-0.81097a0.39516,0.79955 0 0 1 -0.4008,0.81097zm-1.59757,0l-3.20078,0a0.4008,0.81097 0 1 1 0,-1.62195l3.20078,0a0.4008,0.81097 0 1 1 0,1.62195zm-4.79834,0a0.4008,0.81097 0 1 1 0.39516,-0.81097a0.4008,0.81097 0 0 1 -0.39516,0.81097zm-1.60321,0l-3.20078,0a0.4008,0.81097 0 1 1 0,-1.62195l3.20078,0a0.4008,0.81097 0 0 1 0,1.62195zm-4.79834,0a0.4008,0.81097 0 1 1 0.4008,-0.81097a0.4008,0.81097 0 0 1 -0.4008,0.81097zm-1.60321,0l-3.20078,0a0.4008,0.81097 0 0 1 0,-1.62195l3.20078,0a0.4008,0.81097 0 1 1 0,1.62195zm-4.79834,0a0.4008,0.81097 0 1 1 0.4008,-0.81097a0.4008,0.81097 0 0 1 -0.4008,0.81097zm-1.60321,0l-3.20078,0a0.4008,0.81097 0 0 1 0,-1.62195l3.20078,0a0.4008,0.81097 0 1 1 0,1.62195zm-4.79834,0a0.4008,0.81097 0 1 1 0.4008,-0.81097a0.4008,0.81097 0 0 1 -0.4008,0.81097zm-1.59757,0l-3.20078,0a0.4008,0.81097 0 0 1 0,-1.62195l3.20078,0a0.4008,0.81097 0 0 1 0,1.62195zm-4.80399,0a0.4008,0.81097 0 1 1 0.4008,-0.81097a0.4008,0.81097 0 0 1 -0.4008,0.81097zm-1.59757,0l-3.20078,0a0.4008,0.81097 0 1 1 0,-1.62195l3.20078,0a0.4008,0.81097 0 1 1 0,1.62195zm-4.80399,0a0.4008,0.81097 0 0 1 0,-1.62195a0.4008,0.81097 0 1 1 0,1.62195zm-1.59757,0l-3.20078,0a0.4008,0.81097 0 0 1 0,-1.62195l3.20078,0a0.4008,0.81097 0 1 1 0,1.62195zm-4.80399,0a0.4008,0.81097 0 0 1 0,-1.62195a0.4008,0.81097 0 0 1 0,1.62195zm-1.59757,0l-3.20078,0a0.4008,0.81097 0 1 1 0,-1.62195l3.17255,0a0.4008,0.81097 0 1 1 0,1.62195l0.02823,0zm-4.79834,0a0.4008,0.81097 0 1 1 0.39516,-0.81097a0.4008,0.81097 0 0 1 -0.39516,0.81097zm-1.60321,0l-3.22336,0a0.4008,0.81097 0 0 1 0,-1.62195l3.20078,0a0.4008,0.81097 0 0 1 0,1.62195l0.02258,0zm-4.79834,0a0.4008,0.81097 0 1 1 0.4008,-0.81097a0.4008,0.81097 0 0 1 -0.4008,0.81097zm-1.60321,0l-3.20078,0a0.4008,0.81097 0 0 1 0,-1.62195l3.20078,0a0.4008,0.81097 0 1 1 0,1.62195zm-4.79834,0a0.4008,0.81097 0 1 1 0.4008,-0.81097a0.4008,0.81097 0 0 1 -0.4008,0.81097zm-1.60321,0l-3.20078,0a0.4008,0.81097 0 0 1 0,-1.62195l3.18384,0a0.4008,0.81097 0 0 1 0,1.62195l0.01694,0zm-4.79834,-0.09138l0,0a0.4008,0.81097 0 1 1 0.42903,-0.74244a0.40645,0.8224 0 0 1 -0.42903,0.74244zm-1.58063,-0.43404l-0.07339,0a15.74985,31.86785 0 0 1 -1.59757,-0.79955a15.03857,30.42865 0 0 1 -1.53547,-1.14222l0,0a0.38951,0.78813 0 0 1 -0.21451,-0.44546a0.4008,0.81097 0 0 1 0.525,-1.05084a14.59261,29.5263 0 0 0 1.46208,1.08511a14.02245,28.37266 0 0 0 1.51289,0.75386a0.4008,0.81097 0 0 1 -0.07339,1.5991l-0.00565,0zm123.12547,-0.87951a0.4008,0.81097 0 0 1 -0.38387,-0.55969a0.37822,0.76529 0 0 1 0,-0.6168a0.36693,0.74244 0 0 1 0.23145,-0.39978a0.4008,0.81097 0 0 1 0.24274,1.54199l-0.09032,0.03427zm1.49595,-1.14222a0.4008,0.81097 0 0 1 -0.16371,-1.55341a14.38374,29.10368 0 0 0 1.37741,-1.40493l0,0a13.94342,28.21275 0 0 0 1.30402,-1.71333a0.40645,0.8224 0 0 1 0.56451,0.17133a0.39516,0.79955 0 0 1 -0.08468,1.14222a14.57567,29.49204 0 0 1 -1.37741,1.8047l0,0a14.50229,29.34355 0 0 1 -1.45079,1.48488a0.37822,0.76529 0 0 1 -0.16935,0.06853zm-129.11493,-1.2907a0.42338,0.85666 0 0 1 -0.18629,-0.09138l0,0a0.4008,0.81097 0 0 1 0.38951,-1.41635l0,0a0.42903,0.86808 0 0 1 0.18629,0.47973a0.40645,0.8224 0 0 1 -0.03952,0.6168a0.38951,0.78813 0 0 1 -0.35,0.4112zm-1.34918,-1.69048a0.37822,0.76529 0 0 1 -0.23145,-0.14849a15.73292,31.83358 0 0 1 -1.28708,-2.06741a15.03857,30.42865 0 0 1 -1.16854,-2.28443a0.39516,0.79955 0 0 1 0,-1.14222a0.40645,0.8224 0 0 1 0.56451,0a13.49746,27.3104 0 0 0 1.12902,2.20448l0,0a13.74584,27.81298 0 0 0 1.21934,1.95319a0.40645,0.8224 0 0 1 0.09597,1.14222a0.39516,0.79955 0 0 1 -0.32177,0.34267zm134.47214,-2.28443a0.40645,0.8224 0 0 1 -0.4008,-0.85666a0.40645,0.8224 0 0 1 0.13548,-0.55969l0,0a0.41774,0.84524 0 0 1 0.56451,0.06853a0.40645,0.8224 0 0 1 -0.02823,1.14222l0,0a0.4008,0.81097 0 0 1 -0.27097,0.2056zm1.12902,-2.28443a0.39516,0.79955 0 0 1 -0.26532,-0.2056a0.4008,0.81097 0 0 1 -0.03387,-1.14222a13.65552,27.63022 0 0 0 0.9766,-2.45577a14.20874,28.74959 0 0 0 0.84112,-2.64994a0.40645,0.8224 0 0 1 0.56451,-0.29698a0.39516,0.79955 0 0 1 0.15242,1.14222a16.41598,33.21566 0 0 1 -0.89193,2.79843a16.03211,32.43895 0 0 1 -1.02741,2.58141a0.41209,0.83382 0 0 1 -0.31613,0.22844zm-139.01081,-2.28443a0.38387,0.77671 0 0 1 -0.32177,-0.33124a0.39516,0.79955 0 0 1 0.08468,-1.14222a0.40645,0.8224 0 0 1 0.56451,0.17133a0.42338,0.85666 0 0 1 0.07339,0.60537a0.39516,0.79955 0 0 1 -0.15806,0.52542a0.40645,0.8224 0 0 1 -0.24274,0.17133zm-0.88064,-2.69563a0.41774,0.84524 0 0 1 -0.35,-0.39978a14.92567,30.20021 0 0 1 -0.7508,-2.95834a0.40645,0.8224 0 0 1 0.19758,-1.07368a0.41209,0.83382 0 0 1 0.53064,0.4112a14.00552,28.3384 0 0 0 0.71693,2.79843a0.40645,0.8224 0 0 1 -0.14677,1.14222a0.42338,0.85666 0 0 1 -0.19758,0.12564l0,-0.04569zm142.47691,-3.19821a0.37822,0.76529 0 0 1 -0.15806,-0.06853a0.38951,0.78813 0 0 1 -0.21451,-0.44546a0.37822,0.76529 0 0 1 0,-0.6168a0.4008,0.81097 0 0 1 0.73951,0a0.39516,0.79955 0 0 1 0,0.62822a0.40645,0.8224 0 0 1 -0.36693,0.54826l0,-0.04569zm0.56451,-3.02687a0.29355,0.59395 0 0 1 -0.11855,0a0.38951,0.78813 0 0 1 -0.23709,-0.39978a0.40645,0.8224 0 0 1 -0.02823,-0.6168a14.6039,29.54915 0 0 0 0.38951,-3.0383a15.13454,30.62283 0 0 0 0.21451,-3.11825a0.40645,0.8224 0 0 1 0.43467,-0.74244a0.4008,0.81097 0 0 1 0.36129,0.87951a15.80631,31.98207 0 0 1 -0.2258,3.28958c-0.10726,1.06226 -0.24274,2.14737 -0.40645,3.22105a0.40645,0.8224 0 0 1 -0.38951,0.57111l0.00565,-0.04569zm0.68306,-9.57178l0,0a0.4008,0.81097 0 0 1 -0.4008,-0.79955a0.37258,0.75386 0 0 1 0.10726,-0.57111a0.39516,0.79955 0 0 1 0.28226,-0.25129l0,0a0.39516,0.79955 0 0 1 0.39516,0.78813a0.4008,0.81097 0 0 1 -0.38951,0.87951l0.00565,-0.04569zm-0.12419,-3.23247a0.38951,0.78813 0 0 1 -0.39516,-0.70817c-0.06774,-1.03942 -0.16371,-2.07883 -0.28226,-3.09541a15.2926,30.94265 0 0 0 -0.44596,-3.01545a0.40645,0.8224 0 0 1 0,-0.6168a0.39516,0.79955 0 0 1 0.2258,-0.42262a0.41209,0.83382 0 0 1 0.5137,0.49115a15.0047,30.36012 0 0 1 0.76209,6.45352a0.4008,0.81097 0 0 1 -0.34435,0.91377l-0.03387,0zm-1.36047,-9.2748l0,0a0.39516,0.79955 0 0 1 -0.16935,-1.53057a0.4008,0.81097 0 0 1 0.53064,0.37693a0.39516,0.79955 0 0 1 -0.18629,1.07368a0.35564,0.7196 0 0 1 -0.18064,0.12564l0.00565,-0.04569zm-0.77338,-2.8327a0.4008,0.81097 0 0 1 -0.34435,-0.37693a14.62083,29.58341 0 0 0 -0.89193,-2.58141a14.29342,28.92093 0 0 0 -1.02176,-2.37581a0.35564,0.7196 0 0 1 -0.1129,-0.57111a0.4008,0.81097 0 0 1 0.11855,-0.57111a0.41209,0.83382 0 0 1 0.56451,0a15.08373,30.52003 0 0 1 1.07822,2.61568c0.33871,0.87951 0.65483,1.79328 0.94273,2.71848a0.40645,0.8224 0 0 1 -0.12984,1.14222a0.38951,0.78813 0 0 1 -0.20887,0.04569l0.00565,-0.04569zm-3.14997,-7.28734a0.42338,0.85666 0 0 1 -0.25403,-0.18275a0.40645,0.8224 0 0 1 -0.05645,-1.14222a0.41209,0.83382 0 0 1 0.56451,-0.1028a0.4008,0.81097 0 0 1 0.05081,1.14222a0.38951,0.78813 0 0 1 -0.30484,0.28555zm-1.28144,-1.94177a0.41774,0.84524 0 0 1 -0.22016,-0.12564a14.28777,28.9095 0 0 0 -1.33789,-1.61053l0,0c-0.45725,-0.47973 -0.9258,-0.91377 -1.39434,-1.2907a0.4008,0.81097 0 0 1 -0.2258,-1.05084a0.41774,0.84524 0 0 1 0.51935,-0.45689a16.32001,33.02149 0 0 1 1.49595,1.38208a14.55874,29.45777 0 0 1 1.40563,1.7019a0.39516,0.79955 0 0 1 -0.22016,1.47346l-0.02258,-0.02284zm-4.34109,-4.00918a0.33871,0.68533 0 0 1 -0.10726,0a0.4008,0.81097 0 0 1 -0.28226,-0.99373a0.41209,0.83382 0 0 1 0.48548,-0.57111l0,0a0.4008,0.81097 0 0 1 -0.10161,1.5991l0.00565,-0.03427z"/>
   <path stroke="null" id="svg_133" d="m176.90439,311.22415s-0.44032,-3.01545 1.75563,-8.16685a7.10719,14.38051 0 0 0 1.84031,-10.47413s-0.44032,-15.80828 -7.19751,-15.80828s-7.45719,11.53639 -7.45719,17.22463s2.37095,11.01097 2.37095,11.01097s1.58063,3.19821 1.49031,6.21366l7.19751,0z" class="cls-5"/>
   <path stroke="null" id="svg_134" d="m178.19148,312.19504l-10.00313,0a0.47983,0.97088 0 1 1 0,-1.94177l9.99749,0a0.47983,0.97088 0 1 1 0,1.94177l0.00565,0z"/>
   <path stroke="null" id="svg_135" d="m178.19148,315.7816l-10.00313,0a0.47983,0.97088 0 1 1 0,-1.94177l9.99749,0a0.47983,0.97088 0 1 1 0,1.94177l0.00565,0z"/>
   <path stroke="null" id="svg_136" d="m176.24392,319.47096l-6.11365,0a0.47983,0.97088 0 0 1 0,-1.94177l6.10801,0a0.47983,0.97088 0 0 1 0,1.94177l0.00565,0z"/>
   <path stroke="null" id="svg_137" d="m175.51005,323.16032l-4.64592,0a0.47983,0.97088 0 0 1 0,-1.94177l4.64592,0a0.47983,0.97088 0 0 1 0,1.94177z"/>
   <path stroke="null" id="svg_138" d="m175.77537,312.19504l0,0a0.47983,0.97088 0 0 1 -0.45161,-1.028l0.38951,-13.96931l-2.25804,2.84412a0.48548,0.98231 0 0 1 -0.50241,0l-2.18466,-2.7299l0.85806,12.33594a0.47983,0.97088 0 1 1 -0.94838,0.27413l-0.99918,-14.39193a0.47983,0.97088 0 0 1 0.72822,-0.95946l2.82255,3.50661l2.82255,-3.50661a0.47983,0.97088 0 0 1 0.73386,0.87951l-0.44596,15.83112a0.47983,0.97088 0 0 1 -0.56451,0.91377z"/>
   <path stroke="null" id="svg_139" d="m172.76653,270.56124a0.47983,0.97088 0 0 1 -0.47983,-0.97088l0,-5.71108a0.47983,0.97088 0 1 1 0.95967,0l0,5.71108a0.47983,0.97088 0 0 1 -0.47983,0.97088z"/>
   <path stroke="null" id="svg_140" d="m187.46075,296.54667l-3.1161,0a0.47983,0.97088 0 0 1 0,-1.94177l3.1161,0a0.47983,0.97088 0 0 1 0,1.94177z"/>
   <path stroke="null" id="svg_141" d="m182.15435,278.35116a0.47983,0.97088 0 0 1 -0.30484,-1.71333l2.39917,-4.03202a0.47983,0.97088 0 1 1 0.61532,1.55341l-2.39917,4.03202a0.47983,0.97088 0 0 1 -0.31048,0.15991z"/>
   <path stroke="null" id="svg_142" d="m162.03518,296.54667l-3.1161,0a0.47983,0.97088 0 1 1 0,-1.94177l3.1161,0a0.47983,0.97088 0 0 1 0,1.94177z"/>
   <path stroke="null" id="svg_143" d="m164.21983,278.35116a0.47983,0.97088 0 0 1 -0.30484,-0.22844l-2.39917,-3.96349a0.47983,0.97088 0 0 1 0.61532,-1.4963l2.39917,4.03202a0.47983,0.97088 0 0 1 -0.30484,1.71333l-0.00565,-0.05711z"/>
   <path stroke="null" id="svg_144" d="m76.15613,308.42572a0.47983,0.97088 0 0 1 -0.41774,-1.45062l1.79514,-6.36215a0.48548,0.98231 0 0 1 0.16371,-0.34267l21.33287,-26.39663a0.47983,0.97088 0 0 1 0.66048,0.31982l1.82337,6.0309a0.47983,0.97088 0 0 1 -0.15806,1.33639l-21.28771,26.33952a0.49112,0.99373 0 0 1 -0.2258,0.13707l-3.66368,0.38835l-0.02258,0zm2.15079,-6.63628l-1.29838,4.56887l2.66449,-0.28555l20.774,-25.69988l-1.32096,-4.37469l-20.81916,25.79125z"/>
   <path stroke="null" id="svg_145" d="m99.68495,283.46829a0.47983,0.97088 0 0 1 -0.41209,-0.46831l-1.82337,-6.0309a0.47983,0.97088 0 1 1 0.81854,-1.01657l1.82337,6.0309a0.47983,0.97088 0 0 1 -0.40645,1.47346l0,0.01142z"/>
   <path stroke="null" id="svg_146" d="m79.78029,308.1059a0.47983,0.97088 0 0 1 -0.41209,-0.46831l-1.81773,-6.06517a0.47983,0.97088 0 1 1 0.81854,-1.01657l1.82337,6.0309a0.47983,0.97088 0 0 1 -0.40645,1.47346l-0.00565,0.04569z"/>
   <path stroke="null" id="svg_147" d="m78.86578,305.09045a0.47983,0.97088 0 0 1 -0.24838,-1.8047l19.9103,-24.63761a0.47983,0.97088 0 0 1 0.50241,1.65621l-19.91594,24.69473a0.47983,0.97088 0 0 1 -0.24838,0.09138z"/>
   <path stroke="null" id="svg_148" d="m77.95128,372.13857a0.47983,0.97088 0 0 1 -0.46854,-0.78813l0,0c0,-0.19418 -0.47983,-4.66024 -2.52901,-4.66024l-11.69102,0a0.47983,0.97088 0 0 1 -0.47983,-0.97088l0,-45.20894a0.47983,0.97088 0 0 1 0.47983,-0.97088l11.58941,0c1.24192,0 3.58464,1.33639 3.58464,6.41926l0,45.22036a0.47983,0.97088 0 0 1 -0.43467,0.97088l-0.05081,-0.01142zm-14.21438,-7.39014l11.21683,0a3.23465,6.5449 0 0 1 2.51772,2.28443l0,-41.1198c0,-4.42038 -2.51772,-4.47749 -2.62498,-4.47749l-11.10393,0l-0.00565,43.31286z"/>
   <path stroke="null" id="svg_149" d="m77.95128,372.13857l-0.04516,0a0.47983,0.97088 0 0 1 -0.43467,-0.97088l0,-45.22036c0,-5.07144 2.34272,-6.41926 3.58464,-6.41926l11.58941,0a0.47983,0.97088 0 0 1 0.47983,0.97088l0,45.22036a0.47983,0.97088 0 0 1 -0.47983,0.97088l-11.70796,0c-2.06046,0 -2.51207,4.46607 -2.52901,4.66024a0.47983,0.97088 0 0 1 -0.45725,0.78813zm3.10481,-50.66873c-0.10726,0 -2.62498,0.07996 -2.62498,4.47749l0,41.1198a3.23465,6.5449 0 0 1 2.52336,-2.28443l11.21119,0l0,-43.30144l-11.10957,-0.01142z"/>
   <path stroke="null" id="svg_150" d="m71.44811,327.22661l-6.06849,0a0.47983,0.97088 0 0 1 0,-1.94177l6.06849,0a0.47983,0.97088 0 0 1 0,1.94177z"/>
   <path stroke="null" id="svg_151" d="m75.22469,334.03422l-9.84507,0a0.47983,0.97088 0 0 1 0,-1.94177l9.84507,0a0.47983,0.97088 0 0 1 0,1.94177z"/>
   <path stroke="null" id="svg_152" d="m73.6497,340.76188l-8.27008,0a0.47983,0.97088 0 0 1 0,-1.94177l8.27008,0a0.47983,0.97088 0 1 1 0,1.94177z"/>
   <path stroke="null" id="svg_153" d="m90.64148,359.82547l-6.20962,0a0.47983,0.97088 0 1 1 0,-1.94177l6.20962,0a0.47983,0.97088 0 0 1 0,1.94177z"/>
   <path stroke="null" id="svg_154" d="m149.80787,354.11439a0.47983,0.97088 0 0 1 -0.46854,-0.77671l-2.59675,-26.27098l-2.70401,26.27098a0.45161,0.91377 0 0 1 -0.49112,0.77671a0.47983,0.97088 0 0 1 -0.45725,-0.84524l-1.63708,-25.87121l-3.26287,25.98543a0.47983,0.97088 0 0 1 -0.4629,0.73102l0,0a0.47983,0.97088 0 0 1 -0.45725,-0.78813l-2.95804,-30.93123a0.47983,0.97088 0 0 1 0.94273,-0.36551l2.55159,26.67076l3.35884,-26.72787a0.47983,0.97088 0 0 1 0.94273,0.11422l1.54676,25.17446l2.6024,-25.27726a0.47983,0.97088 0 0 1 0.46854,-0.77671l0,0a0.47983,0.97088 0 0 1 0.46854,0.77671l2.48385,25.12877l1.5637,-25.02597a0.47983,0.97088 0 0 1 0.46854,-0.84524a0.49677,1.00515 0 0 1 0.48548,0.81097l2.00401,23.72384l1.57499,-23.68957a0.47983,0.97088 0 0 1 0.45161,-0.84524a0.49677,1.00515 0 0 1 0.49112,0.74244l2.02659,16.72205l4.7927,0a0.47983,0.97088 0 1 1 0,1.94177l-5.16527,0a0.47983,0.97088 0 0 1 -0.46854,-0.74244l-1.50724,-12.47301l-1.65402,24.90032a0.47983,0.97088 0 0 1 -0.46854,0.84524a0.45725,0.9252 0 0 1 -0.47983,-0.81097l-1.99272,-23.55251l-1.52982,24.45486a0.47983,0.97088 0 0 1 -0.45725,0.84524l-0.00565,0z"/>
   <path stroke="null" id="svg_155" d="m190.32846,63.15753a0.24274,0.49115 0 0 1 -0.23709,-0.38835l-2.22417,-22.47882l-2.31449,22.47882a0.2258,0.45689 0 0 1 -0.24274,0.38835a0.24274,0.49115 0 0 1 -0.23145,-0.42262l-1.39999,-22.27323l-2.82255,22.38745a0.22016,0.44546 0 0 1 -0.23709,0.36551a0.23709,0.47973 0 0 1 -0.2258,-0.38835l-2.35966,-24.86606a0.23709,0.47973 0 1 1 0.46854,-0.18275l2.16772,22.673l2.84513,-22.73011a0.24274,0.49115 0 0 1 0.46854,0.05711l1.3887,21.96483l2.25804,-22.02194a0.22016,0.44546 0 0 1 0.23709,-0.38835a0.24274,0.49115 0 0 1 0.23709,0.38835l2.16772,21.88487l1.36612,-21.85061a0.24274,0.49115 0 0 1 0.23145,-0.42262a0.24274,0.49115 0 0 1 0.24274,0.39978l1.76692,20.91399l1.3887,-20.90257a0.24274,0.49115 0 0 1 0.2258,-0.42262a0.25403,0.514 0 0 1 0.24838,0.36551l1.64837,13.74087l3.95158,0a0.24274,0.49115 0 0 1 0,0.97088l-4.11528,0a0.23709,0.47973 0 0 1 -0.23145,-0.36551l-1.39434,-11.50212l-1.42821,21.50794a0.24274,0.49115 0 0 1 -0.23145,0.42262a0.23709,0.47973 0 0 1 -0.24274,-0.39978l-1.78385,-20.91399l-1.34918,21.5879a0.23709,0.47973 0 0 1 -0.23145,0.42262l-0.00565,0z"/>
   <path stroke="null" id="svg_156" d="m171.74476,340.60197a0.4008,0.81097 0 1 1 0,-1.62195l1.04435,0l0,-2.74132a0.4008,0.81097 0 1 1 0.80161,0l0,3.55229a0.4008,0.81097 0 0 1 -0.11855,0.57111a0.37822,0.76529 0 0 1 -0.28226,0.23987l-1.44515,0zm-1.59757,0a0.4008,0.81097 0 1 1 0,-1.62195a0.4008,0.81097 0 0 1 0,1.62195zm-1.60321,0l-1.59757,0a0.4008,0.81097 0 1 1 0,-1.62195l1.59757,0a0.4008,0.81097 0 0 1 0,1.62195zm4.64592,-6.8533a0.4008,0.81097 0 1 1 0.4008,-0.81097a0.4008,0.81097 0 0 1 -0.4008,0.86808l0,-0.05711zm0,-3.23247a0.4008,0.81097 0 0 1 -0.4008,-0.81097l0,-4.42038a0.4008,0.81097 0 1 1 0.80161,0l0,4.42038a0.4008,0.81097 0 0 1 -0.4008,0.86808l0,-0.05711z"/>
   <path stroke="null" id="svg_157" d="m74.10131,100.23388l-3.09916,0a0.48548,0.98231 0 0 1 0,-1.95319l3.09916,0a0.48548,0.98231 0 0 1 0,1.95319zm-4.70238,0a0.48548,0.98231 0 1 1 0.48548,-0.97088a0.48548,0.98231 0 0 1 -0.48548,0.97088zm-1.59757,0l-3.20078,0a0.48548,0.98231 0 0 1 0,-1.95319l3.20078,0a0.48548,0.98231 0 0 1 0,1.95319zm-4.79834,0a0.48548,0.98231 0 1 1 0.47983,-0.97088a0.48548,0.98231 0 0 1 -0.47983,0.97088zm-1.60321,0l-3.20078,0a0.48548,0.98231 0 0 1 0,-1.95319l3.20078,0a0.48548,0.98231 0 0 1 0,1.95319zm-4.79834,0a0.48548,0.98231 0 1 1 0.47983,-0.97088a0.48548,0.98231 0 0 1 -0.47983,0.97088zm-1.60321,0l-3.20078,0a0.48548,0.98231 0 0 1 0,-1.95319l3.17255,0a0.48548,0.98231 0 0 1 0,1.95319l0.02823,0zm-4.79834,0a0.48548,0.98231 0 1 1 0.47983,-0.97088a0.48548,0.98231 0 0 1 -0.47983,0.97088zm-1.60321,0l-2.99191,0a0.50806,1.028 0 0 1 -0.33871,-0.28555a0.48548,0.98231 0 0 1 -0.14113,-0.68533l0,-0.42262l0,0a0.47983,0.97088 0 0 1 0.47983,-0.95946a0.49112,0.99373 0 0 1 0.39516,0.4112l2.59675,0a0.48548,0.98231 0 0 1 0,1.95319l0,-0.01142zm-2.99191,-3.65509a0.47983,0.97088 0 1 1 0.47983,-0.97088a0.47983,0.97088 0 0 1 -0.47983,0.97088zm0,-3.2439a0.47983,0.97088 0 0 1 -0.47983,-0.97088l0,-6.47637a0.47983,0.97088 0 1 1 0.95967,0l0,6.47637a0.47983,0.97088 0 0 1 -0.47983,0.97088zm0,-9.70884a0.47983,0.97088 0 1 1 0.47983,-0.97088a0.47983,0.97088 0 0 1 -0.47983,0.97088zm0,-3.2439a0.47983,0.97088 0 0 1 -0.47983,-0.97088l0,-6.47637a0.47983,0.97088 0 0 1 0.95967,0l0,6.47637a0.47983,0.97088 0 0 1 -0.47983,0.97088zm0,-9.70884a0.47983,0.97088 0 1 1 0.47983,-0.97088a0.47983,0.97088 0 0 1 -0.47983,0.97088zm0,-3.2439a0.47983,0.97088 0 0 1 -0.47983,-0.97088l0,-3.23247a0.47983,0.97088 0 0 1 0.95967,0l0,3.23247a0.47983,0.97088 0 0 1 -0.47983,0.95946l0,0.01142z"/>
   <path stroke="null" id="svg_158" d="m16.21636,56.46414a0.23709,0.47973 0 0 1 -0.23709,-0.39978c-0.03952,-0.49115 -0.98225,-12.17603 2.25804,-19.90884c1.79514,-4.30616 4.51609,-6.48779 8.12896,-6.48779a0.24274,0.49115 0 0 1 0,0.97088c-3.44916,0 -6.06285,2.06741 -7.76202,6.14513c-3.08223,7.39014 -2.1395,18.99506 -2.13385,19.10929a0.23709,0.47973 0 0 1 -0.19758,0.55969l-0.05645,0.01142z"/>
   <path stroke="null" id="svg_159" d="m132.77658,112.26142l-0.31048,0a0.4008,0.81097 0 1 1 0,-1.61053l0,0c0.5137,0 1.0387,0 1.55805,-0.09138s1.04999,-0.21702 1.5524,-0.38835a0.4008,0.81097 0 0 1 0.12984,1.5991c-0.53064,0.18275 -1.07822,0.31982 -1.62015,0.39978c-0.42338,0.05711 -0.86935,0.09138 -1.30967,0.09138zm-1.89676,-0.21702l-0.04516,0a0.4008,0.81097 0 0 1 -0.35564,-0.89093a0.40645,0.8224 0 0 1 0.44032,-0.7196a0.4008,0.81097 0 0 1 -0.03952,1.61053zm-1.58063,-0.50258l-0.07903,0c-0.53064,-0.22844 -1.06128,-0.50258 -1.58063,-0.8224l0,0l0,0a15.73292,31.83358 0 0 1 -1.51853,-1.14222a0.39516,0.79955 0 0 1 0.30484,-1.48488c0.47983,0.39978 0.9766,0.75386 1.46773,1.06226s1.00483,0.57111 1.51289,0.78813a0.4008,0.81097 0 0 1 -0.07903,1.5991l-0.02823,0zm7.90315,-0.46831a0.39516,0.79955 0 0 1 -0.38387,-0.59395a0.4008,0.81097 0 0 1 0.27097,-0.98231l0,0a0.4008,0.81097 0 1 1 0.20887,1.56484a0.34435,0.69675 0 0 1 -0.07903,0.01142l-0.01694,0zm1.52418,-0.98231a0.39516,0.79955 0 0 1 -0.37258,-0.52542a0.37822,0.76529 0 0 1 0,-0.6168a0.36693,0.74244 0 0 1 0.22016,-0.42262c0.47983,-0.36551 0.95967,-0.77671 1.4395,-1.24502s0.9258,-0.95946 1.36612,-1.50773a0.40645,0.8224 0 0 1 0.56451,0.27413a0.4008,0.81097 0 0 1 -0.13548,1.14222c-0.4629,0.57111 -0.94838,1.14222 -1.4395,1.58768s-0.99354,0.91377 -1.5016,1.30213a0.41209,0.83382 0 0 1 -0.12419,0.01142l-0.01694,0zm-13.94342,-1.82755a0.45161,0.91377 0 0 1 -0.19193,-0.09138a0.4008,0.81097 0 0 1 -0.19193,-0.47973a0.38387,0.77671 0 0 1 0,-0.6168a0.41209,0.83382 0 0 1 0.56451,-0.33124a0.40645,0.8224 0 0 1 0.16371,1.14222a0.39516,0.79955 0 0 1 -0.32742,0.37693l-0.01694,0zm-1.37741,-1.64479a0.37822,0.76529 0 0 1 -0.22016,-0.13707a15.30954,30.97692 0 0 1 -1.3266,-1.94177c-0.42338,-0.68533 -0.84112,-1.42777 -1.23063,-2.18163a0.4008,0.81097 0 0 1 -0.11855,-0.57111a0.35564,0.7196 0 0 1 0.1129,-0.57111a0.40645,0.8224 0 0 1 0.56451,0a15.34341,31.04545 0 0 0 1.17418,2.07883c0.4008,0.66249 0.82983,1.27928 1.2645,1.86181a0.40645,0.8224 0 0 1 0.1129,1.14222a0.39516,0.79955 0 0 1 -0.31613,0.31982l-0.01694,0zm19.52643,-1.14222a0.37822,0.76529 0 0 1 -0.32177,-0.33124a0.39516,0.79955 0 0 1 0.07903,-1.14222a0.41209,0.83382 0 0 1 0.56451,0.17133a0.39516,0.79955 0 0 1 -0.07903,1.14222a0.41209,0.83382 0 0 1 -0.2258,0.14849l-0.01694,0.01142zm1.23628,-2.04457a0.41209,0.83382 0 0 1 -0.29919,-0.27413a0.4008,0.81097 0 0 1 0,-1.14222c0.39516,-0.70817 0.76773,-1.46204 1.12902,-2.2159l0,0c0.34435,-0.75386 0.67741,-1.56484 0.98789,-2.38723a0.40645,0.8224 0 0 1 0.56451,-0.14849a0.39516,0.79955 0 0 1 0.07339,1.14222q-0.49677,1.32497 -1.04999,2.53572t-1.16854,2.28443a0.41774,0.84524 0 0 1 -0.24274,0.19418l0.00565,0.01142zm-24.35865,-3.18678a0.4008,0.81097 0 0 1 -0.30484,-0.28555a0.39516,0.79955 0 0 1 0.04516,-1.14222a0.41209,0.83382 0 0 1 0.56451,0.07996l0,0a0.4008,0.81097 0 0 1 -0.04516,1.14222a0.38951,0.78813 0 0 1 -0.24274,0.19418l-0.01694,0.01142zm-0.98225,-2.54714a0.41209,0.83382 0 0 1 -0.32742,-0.34267c-0.32177,-0.91377 -0.62096,-1.85039 -0.88628,-2.78701s-0.51935,-1.91892 -0.74515,-2.9355a0,0 0 0 1 0,0a0.38387,0.77671 0 0 1 0,-0.6168a0.4008,0.81097 0 0 1 0.73951,0c0.20887,0.9252 0.44596,1.85039 0.70564,2.76416c0,0 0,0 0,0c0.25968,0.90235 0.56451,1.8047 0.84112,2.66136a0.37258,0.75386 0 0 1 0.06774,0.60537a0.37822,0.76529 0 0 1 -0.16371,0.514a0.36693,0.74244 0 0 1 -0.21451,0.12564l-0.01694,0.01142zm28.43441,-1.72475a0.41209,0.83382 0 0 1 -0.21451,-0.12564a0.39516,0.79955 0 0 1 -0.175,-0.50258a0.41209,0.83382 0 0 1 0.05081,-0.6168a0.4008,0.81097 0 0 1 0.72822,0.25129a0.41774,0.84524 0 0 1 -0.05081,0.6168a0.41209,0.83382 0 0 1 -0.33871,0.37693zm0.78467,-2.82128a0.41209,0.83382 0 0 1 -0.18064,-0.09138a0.4008,0.81097 0 0 1 -0.18064,-1.14222c0.23709,-0.94804 0.45161,-1.91892 0.6379,-2.88981a0.03952,0.07996 0 0 1 0,0c0.18064,-0.95946 0.34435,-1.95319 0.48548,-2.94692a0.40645,0.8224 0 0 1 0.49112,-0.55969a0.43467,0.87951 0 0 1 0.24274,0.38835a0.40645,0.8224 0 0 1 0.03387,0.6168c-0.14677,1.06226 -0.32742,2.12452 -0.51935,3.1411s-0.42338,2.03315 -0.66612,3.02687a0.39516,0.79955 0 0 1 -0.34435,0.49115l0,-0.03427zm-31.3981,-4.03202a0.4008,0.81097 0 0 1 -0.37822,-0.52542l0,0a0.39516,0.79955 0 0 1 0.24838,-1.028a0.39516,0.79955 0 0 1 0.49112,1.14222a0.42338,0.85666 0 0 1 -0.23145,0.42262a0.47983,0.97088 0 0 1 -0.12984,-0.01142zm-0.45161,-3.09541a0.4008,0.81097 0 0 1 -0.38951,-0.6168c-0.12984,-1.06226 -0.23709,-2.14737 -0.31613,-3.23247l0,0a0.25403,0.514 0 0 1 0,0c-0.07339,-1.06226 -0.12984,-2.15879 -0.15806,-3.23247a0.38387,0.77671 0 0 1 0.10161,-0.58253a0.4008,0.81097 0 0 1 0.69999,0.49115c0,1.03942 0.07903,2.10168 0.15242,3.15252s0.18064,2.09026 0.29919,3.09541a0.4008,0.81097 0 0 1 -0.2879,0.98231l-0.10161,-0.05711zm33.36824,-1.96461l-0.07339,0a0.39516,0.79955 0 0 1 -0.25403,-0.34267a0.37822,0.76529 0 0 1 -0.0621,-0.60537a0.4008,0.81097 0 0 1 0.4629,-0.65106a0.37822,0.76529 0 0 1 0.25403,0.33124a0.41774,0.84524 0 0 1 0.06774,0.6168a0.40645,0.8224 0 0 1 -0.39516,0.60537l0,0.04569zm0.21451,-3.20963l-0.03387,0a0.4008,0.81097 0 0 1 -0.36129,-0.87951c0.04516,-1.00515 0.0621,-2.02172 0.0621,-3.01545l0,-0.2056c0,-1.01657 0,-2.06741 -0.07903,-3.09541a0.41774,0.84524 0 0 1 0.09032,-0.59395a0.39516,0.79955 0 0 1 0.27097,-0.29698a0.40645,0.8224 0 0 1 0.44032,0.73102c0.05081,1.14222 0.07903,2.20448 0.07903,3.31243l0,0.14849c0,1.05084 0,2.1131 -0.06774,3.15252l0,0a0.40645,0.8224 0 0 1 -0.37258,0.69675l-0.02823,0.04569zm-34.06259,-4.45465l0,0a0.4008,0.81097 0 0 1 -0.38387,-0.84524l0,0a0.4008,0.81097 0 0 1 0.4008,-0.77671l0,0a0.4008,0.81097 0 0 1 0,1.62195l-0.01694,0zm0.13548,-3.23247l-0.05081,0a0.4008,0.81097 0 0 1 -0.26532,-0.3084a0.38387,0.77671 0 0 1 -0.07903,-0.60537c0.07339,-1.14222 0.16935,-2.19306 0.2879,-3.25532s0.27097,-2.14737 0.44596,-3.18678a0.4008,0.81097 0 0 1 0.73386,-0.11422a0.4008,0.81097 0 0 1 0,0.62822a14.20309,28.73817 0 0 0 -0.41774,3.0383s0,0 0,0c-0.1129,1.00515 -0.20887,2.04457 -0.27661,3.08399a0.4008,0.81097 0 0 1 -0.37822,0.68533l0,0.03427zm33.68437,-1.98746a0.39516,0.79955 0 0 1 -0.38951,-0.65106a0.37258,0.75386 0 0 1 0.0621,-0.60537a0.38387,0.77671 0 0 1 0.25403,-0.34267a0.4008,0.81097 0 0 1 0.15242,1.58768l-0.07903,0.01142zm-0.37258,-3.1411a0.39516,0.79955 0 0 1 -0.38387,-0.58253c-0.14677,-1.01657 -0.32177,-2.02172 -0.5137,-2.99261s-0.40645,-1.94177 -0.64354,-2.86696a0.39516,0.79955 0 0 1 0,-0.62822a0.4008,0.81097 0 0 1 0.73951,-0.11422c0.24838,0.97088 0.47419,1.98746 0.67741,3.01545s0.38387,2.09026 0.56451,3.12967a0.4008,0.81097 0 0 1 -0.27097,1.00515l-0.16935,0.03427zm-32.01906,-4.18051a0.40645,0.8224 0 0 1 -0.16371,-0.06853a0.4008,0.81097 0 0 1 -0.20322,-1.07368a0.41209,0.83382 0 0 1 0.525,-0.4112a0.4008,0.81097 0 0 1 0.20322,1.07368a0.39516,0.79955 0 0 1 -0.36129,0.43404l0,0.04569zm0.71128,-2.90123a0.41209,0.83382 0 0 1 -0.19758,-0.1028a0.39516,0.79955 0 0 1 -0.18629,-0.47973a0.40645,0.8224 0 0 1 0.03387,-0.6168c0.25968,-0.94804 0.56451,-1.89608 0.8637,-2.82128s0.64354,-1.79328 0.98789,-2.6271a0,0 0 0 1 0,0a0.41209,0.83382 0 0 1 0.56451,-0.09138a0.39516,0.79955 0 0 1 0.05081,1.14222c-0.32177,0.77671 -0.63225,1.61053 -0.93144,2.49003c0,0 0,0 0,0c-0.29919,0.87951 -0.56451,1.78186 -0.82419,2.68421a0.40645,0.8224 0 0 1 -0.36129,0.37693l0,0.04569zm29.32634,-1.73617a0.4008,0.81097 0 1 1 0.33871,-1.24502a0.41209,0.83382 0 0 1 0.05081,0.6168a0.39516,0.79955 0 0 1 -0.175,0.50258a0.41209,0.83382 0 0 1 -0.21451,0.07996l0,0.04569zm-0.92015,-2.63852a0.38951,0.78813 0 0 1 -0.31613,-0.31982c-0.10726,-0.27413 -0.2258,-0.57111 -0.35564,-0.87951a0.4008,0.81097 0 1 1 0.61532,-1.03942l0.37258,0.9252l0,0a0.41774,0.84524 0 0 1 0.07903,0.59395a0.4008,0.81097 0 0 1 -0.15242,0.53684a0.39516,0.79955 0 0 1 -0.24274,0.13707l0,0.04569zm-25.51589,-3.33527a0.37822,0.76529 0 0 1 -0.28226,-0.23987a0.4008,0.81097 0 0 1 0,-1.14222a0.41209,0.83382 0 0 1 0.56451,0a0.40645,0.8224 0 0 1 0,1.14222l0,0a0.38951,0.78813 0 0 1 -0.28226,0.19418l0,0.04569zm1.18547,-2.17021a0.37822,0.76529 0 0 1 -0.30484,-0.29698a0.38951,0.78813 0 0 1 -0.09032,-0.59395a0.41209,0.83382 0 0 1 0.14113,-0.53684c0.41774,-0.69675 0.85806,-1.37066 1.30967,-1.98746l0,0a0.41774,0.84524 0 0 1 0.56451,0.22844a0.4008,0.81097 0 0 1 0.0621,0.60537a0.39516,0.79955 0 0 1 -0.16935,0.514c-0.42338,0.58253 -0.84677,1.22217 -1.25321,1.89608a0.4008,0.81097 0 0 1 -0.25968,0.12564l0,0.04569z"/>
   <path stroke="null" id="svg_160" d="m143.77889,44.57366l4.23948,0s0.40645,-7.99552 -2.12256,-7.99552l-3.73706,0l0,7.99552l1.62015,0z" class="cls-5"/>
   <path stroke="null" id="svg_161" d="m141.77889,90.8854l0,-48.41857s-0.18064,-4.88869 2.11692,-4.88869l-18.57241,0s-2.12256,-0.82239 -2.12256,8.57805l0,50.66874l16.45549,0s2.12256,0.39977 2.12256,-5.93953z" class="cls-3"/>
   <path stroke="null" id="svg_162" d="m139.94022,89.8854s-0.10161,5.9281 2.21853,5.9281l-19.08047,0s-1.69353,0.19418 -1.69353,-5.9281l18.55547,0z" class="cls-5"/>
   <path stroke="null" id="svg_163" d="m131.74352,48.17164l-4.51609,0a0.47983,0.97088 0 1 1 0,-1.94177l4.51609,0a0.47983,0.97088 0 0 1 0,1.94177z" class="cls-8"/>
   <path stroke="null" id="svg_164" d="m135.54832,52.56918l-8.32089,0a0.47983,0.97088 0 1 1 0,-1.94177l8.32089,0a0.47983,0.97088 0 0 1 0,1.94177z" class="cls-8"/>
   <path stroke="null" id="svg_165" d="m132.77658,57.96044l-5.54914,0a0.47983,0.97088 0 1 1 0,-1.94177l5.54914,0a0.47983,0.97088 0 1 1 0,1.94177z" class="cls-8"/>
   <path stroke="null" id="svg_166" d="m131.56852,62.23233l-4.34109,0a0.47983,0.97088 0 1 1 0,-1.94177l4.34109,0a0.47983,0.97088 0 0 1 0,1.94177z" class="cls-8"/>
   <path stroke="null" id="svg_167" d="m142.16439,79.82247l-4.77576,0a0.47983,0.97088 0 0 1 0,-1.94177l4.78705,0a0.47983,0.97088 0 1 1 0,1.94177l-0.01129,0z" class="cls-8"/>
   <path stroke="null" id="svg_168" d="m138.16439,83.90645l-4.77576,0a0.47983,0.97088 0 0 1 0,-1.94177l4.78705,0a0.47983,0.97088 0 0 1 0,1.94177l-0.01129,0z" class="cls-8"/>
   <path stroke="null" id="svg_169" d="m169.56575,27.44041a0.38951,0.78813 0 0 1 -0.22016,-0.13707l0,0l0,0c-0.36693,-0.46831 -0.82983,-1.028 -1.34354,-1.62195a0.4008,0.81097 0 0 1 0.4008,-1.40493c0.71128,0.8224 1.16854,1.40493 1.38305,1.66764l0,0a0,0 0 0 1 0,0a0.4008,0.81097 0 0 1 0.11855,1.14222a0.40645,0.8224 0 0 1 -0.33871,0.35409zm-73.72512,0a0.40645,0.8224 0 0 1 -0.32177,-0.33124a0.41209,0.83382 0 0 1 -0.07339,-0.60537a0.40645,0.8224 0 0 1 0.16371,-0.53684c0.33871,-0.50258 0.69999,-1.01657 1.09515,-1.56484s0.88628,-1.23359 1.3266,-1.81612l0,0a0.40645,0.8224 0 0 1 0.56451,0.23987a0.39516,0.79955 0 0 1 -0.1129,1.14222c-0.43467,0.57111 -0.88064,1.14222 -1.31531,1.79328l-1.08386,1.55341a0.39516,0.79955 0 0 1 -0.24274,0.12564zm70.95338,-3.25532a0.42903,0.86808 0 0 1 -0.18629,-0.09138l0,0a0.4008,0.81097 0 0 1 -0.15806,-1.14222a0.41209,0.83382 0 0 1 0.56451,-0.33124a0.40645,0.8224 0 0 1 0.16371,1.14222a0.39516,0.79955 0 0 1 -0.38387,0.47973l0,-0.05711zm-1.41692,-1.50773a0.4008,0.81097 0 0 1 -0.18064,-0.07996c-0.4629,-0.47973 -0.94273,-0.97088 -1.42821,-1.45062l-1.4395,-1.37066a0.4008,0.81097 0 0 1 -0.19758,-1.07368a0.40645,0.8224 0 0 1 0.53064,-0.39978c0.5137,0.47973 1.00483,0.94804 1.45644,1.3935s0.98789,0.98231 1.4395,1.45062a0.4008,0.81097 0 0 1 -0.18064,1.53057zm-65.77117,-0.35409a0.4008,0.81097 0 0 1 -0.21451,-1.4963l0,0a0.4008,0.81097 0 0 1 0.59838,0.86808a0.38951,0.78813 0 0 1 -0.18064,0.50258a0.39516,0.79955 0 0 1 -0.20322,0.18275l0,-0.05711zm1.37176,-1.66764a0.40645,0.8224 0 0 1 -0.34435,-0.39978a0.41774,0.84524 0 0 1 -0.04516,-0.6168a0.40645,0.8224 0 0 1 0.18629,-0.49115c0.45161,-0.53684 0.90886,-1.06226 1.40563,-1.61053s0.90886,-0.99373 1.42257,-1.51915a0.4008,0.81097 0 1 1 0.36129,1.43919c-0.47419,0.49115 -0.94273,0.99373 -1.39999,1.50773l0,0c-0.49112,0.54826 -0.93709,1.06226 -1.36612,1.56484a0.42338,0.85666 0 0 1 -0.22016,0.18275l0,-0.05711zm60.05832,-2.13595a0.42903,0.86808 0 0 1 -0.16371,-0.06853a0.41774,0.84524 0 0 1 -0.20887,-0.44546a0.39516,0.79955 0 0 1 0,-0.62822a0.41209,0.83382 0 0 1 0.525,-0.4112a0.4008,0.81097 0 0 1 -0.15806,1.55341l0.00565,0zm-1.47337,-1.27928a0.45725,0.9252 0 0 1 -0.15242,0l-1.47902,-1.22217l-1.48466,-1.14222a0.37258,0.75386 0 0 1 -0.2258,-0.42262a0.38387,0.77671 0 0 1 0,-0.6168a0.41209,0.83382 0 0 1 0.5137,-0.47973c0.51935,0.39978 1.02176,0.78813 1.5016,1.14222s1.02176,0.8224 1.49031,1.22217l0,0a0.40645,0.8224 0 0 1 0.20887,0.43404a0.37258,0.75386 0 0 1 0,0.62822a0.39516,0.79955 0 0 1 -0.37258,0.514l0,-0.05711zm-54.34546,-1.14222a0.40645,0.8224 0 0 1 -0.36129,-0.45689a0.4008,0.81097 0 0 1 0.18629,-1.14222l0,0a0.41209,0.83382 0 0 1 0.53064,0.38835a0.4008,0.81097 0 0 1 -0.18629,1.07368a0.37822,0.76529 0 0 1 -0.175,0.2056l0.00565,-0.06853zm1.45644,-1.35924a0.38951,0.78813 0 0 1 -0.36693,-0.47973a0.37822,0.76529 0 0 1 0,-0.6168a0.37258,0.75386 0 0 1 0.21451,-0.44546c0.46854,-0.43404 0.96531,-0.85666 1.47902,-1.2907s1.00483,-0.81097 1.5016,-1.14222a0.4008,0.81097 0 1 1 0.28226,1.50773c-0.46854,0.36551 -0.95967,0.75386 -1.45644,1.14222l0,0c-0.47983,0.38835 -0.97096,0.81097 -1.46208,1.25644a0.37822,0.76529 0 0 1 -0.19193,0.13707l0,-0.06853zm48.40681,-0.99373a0.37822,0.76529 0 0 1 -0.13548,0a0.38387,0.77671 0 0 1 -0.2258,-0.4112a0.37258,0.75386 0 0 1 0,-0.62822a0.41209,0.83382 0 0 1 0.50806,-0.49115l0,0a0.38951,0.78813 0 0 1 0.2258,0.39978a0.39516,0.79955 0 0 1 0,0.62822a0.38951,0.78813 0 0 1 -0.37258,0.57111l0,-0.06853zm-1.51853,-1.05084a0.47419,0.95946 0 0 1 -0.12419,0c-0.49677,-0.34267 -1.01047,-0.67391 -1.51853,-0.99373l-1.52418,-0.9252a0.39516,0.79955 0 0 1 -0.27097,-0.99373a0.4008,0.81097 0 0 1 0.49112,-0.55969c0.56451,0.33124 1.07257,0.63964 1.54111,0.93662s1.02741,0.66249 1.52418,0.99373l0,0a0.4008,0.81097 0 0 1 -0.12984,1.57626l0.01129,-0.03427zm-42.42864,-1.51915a0.4008,0.81097 0 0 1 -0.37822,-0.53684a0.4008,0.81097 0 1 1 0.73951,0.07996a0.39516,0.79955 0 0 1 -0.23145,0.4112a0.32742,0.66249 0 0 1 -0.12984,0.11422l0,-0.06853zm1.51853,-1.01657a0.38951,0.78813 0 0 1 -0.37822,-0.55969a0.40645,0.8224 0 0 1 0,-0.6168a0.41209,0.83382 0 0 1 0.23709,-0.39978c0.49112,-0.31982 1.01047,-0.62822 1.54111,-0.93662s1.04435,-0.58253 1.55805,-0.84524a0.40645,0.8224 0 0 1 0.48548,0.58253a0.39516,0.79955 0 0 1 -0.2879,0.98231c-0.56451,0.28555 -1.04435,0.55969 -1.53547,0.84524l0,0c-0.50241,0.28555 -1.00483,0.59395 -1.49595,0.90235a0.44032,0.89093 0 0 1 -0.12419,0.11422l0,-0.06853zm36.30934,-0.25129l-0.10161,0a0.4008,0.81097 0 0 1 -0.28226,-0.99373a0.40645,0.8224 0 0 1 0.49112,-0.57111l0,0a0.4008,0.81097 0 0 1 0.27661,0.98231a0.41209,0.83382 0 0 1 -0.38387,0.65106l0,-0.06853zm-1.54676,-0.74244a0.26532,0.53684 0 0 1 -0.09597,0l-1.5524,-0.74244c-0.49677,-0.22844 -1.02176,-0.44546 -1.5524,-0.67391a0.38951,0.78813 0 0 1 -0.25968,-0.34267a0.4008,0.81097 0 0 1 0.41774,-1.23359l1.56934,0.67391c0.47983,0.21702 0.9766,0.45689 1.56934,0.75386l0,0a0.4008,0.81097 0 0 1 -0.10161,1.58768l0.00565,-0.02284zm-30.12795,-1.45062a0.40645,0.8224 0 0 1 -0.38951,-0.63964a0.4008,0.81097 0 0 1 0.05081,-0.60537a0.39516,0.79955 0 0 1 0.24838,-0.35409l0,0a0.4008,0.81097 0 0 1 0.175,1.57626l-0.08468,0.02284zm25.40299,-0.58253l-0.07339,0a0.41209,0.83382 0 1 1 0.07339,0zm-23.86188,-0.07996a0.4008,0.81097 0 0 1 -0.07903,-1.61053c0.5137,-0.2056 1.04435,-0.39978 1.58628,-0.58253s1.06128,-0.34267 1.59192,-0.47973a0.39516,0.79955 0 0 1 0.45161,0.68533a0.36693,0.74244 0 0 1 -0.07903,0.59395a0.38387,0.77671 0 0 1 -0.26532,0.31982c-0.50241,0.13707 -1.03305,0.3084 -1.5637,0.47973s-1.03305,0.36551 -1.56934,0.57111l-0.07339,0.02284zm22.28689,-0.45689l-0.0621,0c-0.56451,-0.17133 -1.04999,-0.33124 -1.5524,-0.46831l0,0c-0.56451,-0.15991 -1.07257,-0.28555 -1.58063,-0.4112a0.37258,0.75386 0 0 1 -0.26532,-0.29698a0.4008,0.81097 0 0 1 -0.09032,-0.59395a0.40645,0.8224 0 0 1 0.44596,-0.70817c0.53064,0.11422 1.06128,0.25129 1.58628,0.39978l0.05081,0c0.53064,0.13707 1.05564,0.29698 1.56934,0.46831l0,0a0.39516,0.79955 0 0 1 0.33306,0.9252a0.40645,0.8224 0 0 1 -0.40645,0.68533l-0.02823,0zm-17.545,-1.01657a0.4008,0.81097 0 1 1 0.39516,-0.89093a0.39516,0.79955 0 0 1 -0.08468,0.59395a0.37258,0.75386 0 0 1 -0.26532,0.29698l-0.04516,0zm12.78053,-0.19418l-0.03952,0a0.42338,0.85666 0 0 1 -0.27097,-0.28555a0.39516,0.79955 0 0 1 -0.09032,-0.59395a0.40645,0.8224 0 0 1 0.43467,-0.73102a0.4008,0.81097 0 0 1 -0.03387,1.61053zm-11.18861,-0.11422a0.40645,0.8224 0 0 1 -0.4008,-0.74244a0.42903,0.86808 0 0 1 0.09597,-0.59395a0.41209,0.83382 0 0 1 0.27097,-0.28555c0.56451,-0.09138 1.09515,-0.17133 1.60886,-0.22844s1.08951,-0.11422 1.59757,-0.13707l0,0a0.40645,0.8224 0 0 1 0.4008,0.78813a0.41209,0.83382 0 0 1 -0.10726,0.58253a0.40645,0.8224 0 0 1 -0.28226,0.25129c-0.53629,0 -1.07257,0.09138 -1.58628,0.14849s-1.06128,0.13707 -1.58628,0.22844l-0.01129,-0.01142zm9.59669,-0.13707l0,0c-0.5137,-0.06853 -1.04999,-0.13707 -1.58628,-0.18275s-1.05564,-0.07996 -1.58628,-0.1028a0.4008,0.81097 0 0 1 -0.28226,-0.23987a0.42338,0.85666 0 0 1 -0.1129,-0.58253a0.4008,0.81097 0 0 1 0.39516,-0.78813l0,0c0.56451,0 1.08386,0 1.60886,0.1028s1.07257,0.1028 1.60886,0.17133a0.4008,0.81097 0 0 1 0,1.62195l-0.04516,0zm-4.7927,-0.29698l0,0a0.4008,0.81097 0 0 1 0,-1.62195l0,0a0.4008,0.81097 0 0 1 0.4008,0.79955a0.42338,0.85666 0 0 1 -0.1129,0.58253a0.41209,0.83382 0 0 1 -0.26532,0.23987l-0.02258,0z"/>
   <text stroke="null" transform="matrix(0.5645109059267438,0,0,1.1422167118585596,-20.405464478668375,-15.881290861655517) " id="svg_170" x="34.37355" y="228.82774" class="cls-9">LANGUAGE</text>
   <text stroke="null" transform="matrix(0.5645109059267438,0,0,1.1422167118585596,-20.405464478668375,-15.881290861655517) " id="svg_171" x="38.37355" y="224.82774" class="cls-10">LANGUAGE</text>
   <path stroke="null" id="svg_172" d="m238.04092,170.64012a0.4008,0.81097 0 0 1 -0.4008,-0.81097l0,-3.23247a0.4008,0.81097 0 1 1 0.80161,0l0,3.23247a0.4008,0.81097 0 0 1 -0.4008,0.81097zm0,-6.47637a0.39516,0.79955 0 1 1 0.4008,-0.79955a0.39516,0.79955 0 0 1 -0.4008,0.79955zm0,-3.23247a0.4008,0.81097 0 0 1 -0.4008,-0.81097l0,-6.47637a0.4008,0.81097 0 0 1 0.80161,0l0,6.47637a0.4008,0.81097 0 0 1 -0.4008,0.81097zm0,-9.70884a0.4008,0.81097 0 1 1 0.4008,-0.81097a0.4008,0.81097 0 0 1 -0.4008,0.81097zm0,-3.2439a0.4008,0.81097 0 0 1 -0.4008,-0.81097l0,-0.52542a0.40645,0.8224 0 0 1 0.4008,-0.81097l2.93546,0a0.4008,0.81097 0 1 1 0,1.62195l-2.5403,0a0.40645,0.8224 0 0 1 -0.39516,0.52542zm17.33613,-0.52542a0.4008,0.81097 0 0 1 0,-1.62195a0.4008,0.81097 0 0 1 0,1.62195zm-1.59757,0l-3.20078,0a0.4008,0.81097 0 1 1 0,-1.62195l3.20078,0a0.4008,0.81097 0 0 1 0,1.62195zm-4.79834,0a0.4008,0.81097 0 1 1 0.39516,-0.81097a0.4008,0.81097 0 0 1 -0.39516,0.81097zm-1.60321,0l-3.20078,0a0.4008,0.81097 0 0 1 0,-1.62195l3.20078,0a0.4008,0.81097 0 1 1 0,1.62195zm-4.79834,0a0.4008,0.81097 0 1 1 0.4008,-0.81097a0.4008,0.81097 0 0 1 -0.4008,0.81097z"/>
   <path stroke="null" id="svg_173" d="m15.1325,247.22575l-2.73223,0a0.4008,0.81097 0 0 1 0,-1.62195l2.73223,0a0.4008,0.81097 0 0 1 0,1.62195zm-4.33544,0a0.4008,0.81097 0 0 1 0,-1.62195a0.4008,0.81097 0 1 1 0,1.62195zm-1.59757,0l-3.20078,0a0.4008,0.81097 0 1 1 0,-1.62195l3.20078,0a0.4008,0.81097 0 1 1 0,1.62195zm-4.79834,0a0.4008,0.81097 0 1 1 0.39516,-0.81097a0.4008,0.81097 0 0 1 -0.39516,0.81097zm-1.60321,0l-0.81854,0a0.40645,0.8224 0 0 1 -0.4008,-0.81097l0,-4.82015a0.39516,0.79955 0 0 1 0.4008,-0.79955a0.39516,0.79955 0 0 1 0.39516,0.79955l0,4.00918l0.42338,0a0.4008,0.81097 0 1 1 0,1.62195zm-0.81854,-7.99552a0.4008,0.81097 0 1 1 0,-1.62195a0.4008,0.81097 0 0 1 0,1.62195zm0,-3.2439a0.4008,0.81097 0 0 1 -0.4008,-0.81097l0,-6.46495a0.4008,0.81097 0 0 1 0.4008,-0.81097a0.39516,0.79955 0 0 1 0.39516,0.81097l0,6.46495a0.39516,0.79955 0 0 1 -0.39516,0.75386l0,0.05711zm0,-9.70884a0.4008,0.81097 0 0 1 0,-1.62195a0.4008,0.81097 0 0 1 0,1.62195zm0,-3.2439a0.39516,0.79955 0 0 1 -0.4008,-0.79955l0,-6.47637a0.4008,0.81097 0 0 1 0.4008,-0.81097a0.39516,0.79955 0 0 1 0.39516,0.81097l0,6.47637a0.38951,0.78813 0 0 1 -0.39516,0.74244l0,0.05711zm0,-9.70884a0.4008,0.81097 0 0 1 0,-1.62195a0.4008,0.81097 0 0 1 0,1.62195zm0,-3.23247a0.4008,0.81097 0 0 1 -0.4008,-0.81097l0,-6.47637a0.4008,0.81097 0 0 1 0.4008,-0.81097a0.39516,0.79955 0 0 1 0.39516,0.81097l0,6.47637a0.39516,0.79955 0 0 1 -0.39516,0.75386l0,0.05711zm0,-9.72026a0.4008,0.81097 0 0 1 -0.4008,-0.81097a0.39516,0.79955 0 0 1 0.4008,-0.79955a0.39516,0.79955 0 0 1 0.39516,0.79955a0.39516,0.79955 0 0 1 -0.39516,0.75386l0,0.05711zm0,-3.23247a0.4008,0.81097 0 0 1 -0.4008,-0.81097l0,-6.47637a0.4008,0.81097 0 0 1 0.4008,-0.81097a0.39516,0.79955 0 0 1 0.39516,0.81097l0,6.47637a0.39516,0.79955 0 0 1 -0.39516,0.75386l0,0.05711zm0,-9.72026a0.39516,0.79955 0 0 1 -0.4008,-0.79955a0.4008,0.81097 0 0 1 0.4008,-0.81097a0.39516,0.79955 0 0 1 0.39516,0.81097a0.39516,0.79955 0 0 1 -0.39516,0.73102l0,0.06853zm0,-3.23247a0.4008,0.81097 0 0 1 -0.4008,-0.81097l0,-6.53348a0.4008,0.81097 0 0 1 0.4008,-0.81097a0.39516,0.79955 0 0 1 0.39516,0.81097l0,6.47637a0.39516,0.79955 0 0 1 -0.39516,0.81097l0,0.05711zm0,-9.70884a0.4008,0.81097 0 1 1 0,-1.62195a0.4008,0.81097 0 0 1 0,1.62195zm0,-3.2439a0.4008,0.81097 0 0 1 -0.4008,-0.81097l0,-6.47637a0.39516,0.79955 0 0 1 0.4008,-0.79955a0.39516,0.79955 0 0 1 0.39516,0.79955l0,6.47637a0.39516,0.79955 0 0 1 -0.39516,0.75386l0,0.05711zm0,-9.70884a0.4008,0.81097 0 1 1 0,-1.62195a0.4008,0.81097 0 0 1 0,1.62195zm0,-3.2439a0.4008,0.81097 0 0 1 -0.4008,-0.81097l0,-6.46495a0.4008,0.81097 0 0 1 0.4008,-0.81097a0.39516,0.79955 0 0 1 0.39516,0.81097l0,6.46495a0.39516,0.79955 0 0 1 -0.39516,0.75386l0,0.05711zm0,-9.70884a0.4008,0.81097 0 0 1 0,-1.62195a0.4008,0.81097 0 0 1 0,1.62195zm0,-3.2439a0.39516,0.79955 0 0 1 -0.4008,-0.79955l0,-6.47637a0.4008,0.81097 0 0 1 0.4008,-0.81097a0.39516,0.79955 0 0 1 0.39516,0.81097l0,6.47637a0.39516,0.79955 0 0 1 -0.39516,0.74244l0,0.05711zm0,-9.70884a0.4008,0.81097 0 1 1 0,-1.62195a0.4008,0.81097 0 0 1 0,1.62195zm0,-3.23247a0.4008,0.81097 0 0 1 -0.4008,-0.81097l0,-3.2439a0.39516,0.79955 0 0 1 0.4008,-0.79955a0.39516,0.79955 0 0 1 0.39516,0.79955l0,3.2439a0.39516,0.79955 0 0 1 -0.39516,0.75386l0,0.05711z"/>
   <path stroke="null" id="svg_174" d="m144.33776,222.33685l0,0a0.4008,0.81097 0 0 1 -0.27097,-0.27413a0.38387,0.77671 0 0 1 -0.10161,-0.58253a0.39516,0.79955 0 0 1 0.42338,-0.76529a0.40645,0.8224 0 0 1 0.37822,0.85666a0.4008,0.81097 0 0 1 -0.42903,0.76529zm-1.51853,-0.90235a0.37258,0.75386 0 0 1 -0.20322,-0.11422a4.26206,8.62374 0 0 1 -1.27579,-2.4215a6.85316,13.86651 0 0 1 -0.79596,-3.0383a0.42338,0.85666 0 0 1 0,-0.62822a0.41774,0.84524 0 0 1 0.23145,-0.46831a0.40645,0.8224 0 0 1 0.51935,0.46831a5.71285,11.55923 0 0 0 0.69435,2.67279l0,0a3.38707,6.8533 0 0 0 1.02176,1.94177a0.39516,0.79955 0 0 1 0.14113,1.14222a0.38951,0.78813 0 0 1 -0.33306,0.44546zm-2.33708,-8.17827a0.39516,0.79955 0 0 1 -0.38951,-0.63964s0,0 0,0a0.4008,0.81097 0 0 1 0.78467,-0.3084l0,0a0.36693,0.74244 0 0 1 -0.05645,0.58253a0.41774,0.84524 0 0 1 -0.25403,0.35409l-0.08468,0.01142zm-0.14677,-3.22105a0.4008,0.81097 0 0 1 -0.4008,-0.81097l0,-6.47637a0.4008,0.81097 0 1 1 0.80161,0l0,6.47637a0.4008,0.81097 0 0 1 -0.4008,0.81097zm0,-9.72026a0.4008,0.81097 0 0 1 -0.4008,-0.81097a0.4008,0.81097 0 0 1 0.80161,0a0.4008,0.81097 0 0 1 -0.4008,0.81097zm0,-3.23247a0.4008,0.81097 0 0 1 -0.4008,-0.81097l0,-6.47637a0.4008,0.81097 0 0 1 0.80161,0l0,6.47637a0.4008,0.81097 0 0 1 -0.4008,0.81097zm0,-9.70884a0.4008,0.81097 0 1 1 0.4008,-0.81097a0.4008,0.81097 0 0 1 -0.4008,0.78813l0,0.02284zm0,-3.2439a0.4008,0.81097 0 0 1 -0.4008,-0.81097l0,-6.47637a0.4008,0.81097 0 1 1 0.80161,0l0,6.47637a0.4008,0.81097 0 0 1 -0.4008,0.81097zm0,-9.72026a0.39516,0.79955 0 0 1 -0.4008,-0.79955a0.4008,0.81097 0 0 1 0.80161,0a0.39516,0.79955 0 0 1 -0.4008,0.79955zm0,-3.23247a0.4008,0.81097 0 0 1 -0.4008,-0.81097l0,-6.47637a0.4008,0.81097 0 1 1 0.80161,0l0,6.47637a0.4008,0.81097 0 0 1 -0.4008,0.81097zm0,-9.70884a0.4008,0.81097 0 1 1 0.4008,-0.81097a0.4008,0.81097 0 0 1 -0.4008,0.81097zm0,-3.2439a0.4008,0.81097 0 0 1 -0.4008,-0.81097l0,-6.46495a0.4008,0.81097 0 1 1 0.80161,0l0,6.46495a0.4008,0.81097 0 0 1 -0.4008,0.81097zm0,-9.70884a0.4008,0.81097 0 1 1 0.4008,-0.81097a0.4008,0.81097 0 0 1 -0.4008,0.81097zm0,-3.2439a0.39516,0.79955 0 0 1 -0.4008,-0.79955l0,-6.47637a0.4008,0.81097 0 1 1 0.80161,0l0,6.47637a0.39516,0.79955 0 0 1 -0.4008,0.79955zm0,-9.70884a0.4008,0.81097 0 1 1 0.4008,-0.81097a0.4008,0.81097 0 0 1 -0.4008,0.81097zm0,-3.23247a0.4008,0.81097 0 0 1 -0.4008,-0.81097l0,-3.2439a0.4008,0.81097 0 1 1 0.80161,0l0,3.2439a0.4008,0.81097 0 0 1 -0.4008,0.81097z"/>
   <path stroke="null" id="svg_175" d="m29.25092,215.09519l-0.06774,0a0.39516,0.79955 0 0 1 -0.25968,-0.31982a0.41209,0.83382 0 0 1 -0.06774,-0.60537l0.26532,-3.19821a0.4008,0.81097 0 0 1 0.4629,-0.66249a0.39516,0.79955 0 0 1 0.25968,0.33124a0.4008,0.81097 0 0 1 0.06774,0.60537l-0.26532,3.18678a0.4008,0.81097 0 0 1 -0.39516,0.66249zm0.53064,-6.38499l-0.06774,0a0.4008,0.81097 0 1 1 0.13548,-1.58768a0.39516,0.79955 0 0 1 0.25968,0.33124a0.38951,0.78813 0 0 1 0.06774,0.59395a0.4008,0.81097 0 0 1 -0.39516,0.66249zm0.26532,-3.18678l-0.06774,0a0.38951,0.78813 0 0 1 -0.25403,-0.33124a0.4008,0.81097 0 0 1 -0.07339,-0.60537l0.53629,-6.38499a0.4008,0.81097 0 0 1 0.45725,-0.66249a0.37822,0.76529 0 0 1 0.25968,0.33124a0.39516,0.79955 0 0 1 0.06774,0.60537l-0.53064,6.38499a0.4008,0.81097 0 0 1 -0.39516,0.66249zm0.80161,-9.5832l-0.06774,0a0.39516,0.79955 0 0 1 -0.32742,-0.93662a0.4008,0.81097 0 1 1 0.78467,0.27413a0.39516,0.79955 0 0 1 -0.38951,0.66249zm0.26532,-3.18678l-0.06774,0a0.4008,0.81097 0 0 1 -0.32742,-0.93662l0.53064,-6.38499a0.40645,0.8224 0 0 1 0.4629,-0.66249a0.37822,0.76529 0 0 1 0.25968,0.33124a0.4008,0.81097 0 0 1 0.06774,0.60537l-0.53064,6.38499a0.4008,0.81097 0 0 1 -0.39516,0.66249zm0.79596,-9.5832l-0.08468,0a0.39516,0.79955 0 0 1 -0.33306,-0.9252a0.4008,0.81097 0 0 1 0.4629,-0.66249a0.39516,0.79955 0 0 1 0.25968,0.31982a0.4008,0.81097 0 0 1 -0.32742,1.27928l0.02258,-0.01142zm0.27097,-3.18678l-0.06774,0a0.41209,0.83382 0 0 1 -0.33306,-0.93662l0.53629,-6.38499a0.40645,0.8224 0 0 1 0.4629,-0.66249a0.39516,0.79955 0 0 1 0.25403,0.31982a0.41774,0.84524 0 0 1 0.07339,0.6168l-0.56451,6.38499a0.4008,0.81097 0 0 1 -0.36129,0.66249zm0.77338,-9.5832l-0.06774,0a0.37822,0.76529 0 0 1 -0.25968,-0.33124a0.39516,0.79955 0 0 1 -0.06774,-0.60537a0.4008,0.81097 0 0 1 0.4629,-0.66249a0.41209,0.83382 0 0 1 0.32742,0.93662a0.4008,0.81097 0 0 1 -0.39516,0.66249zm0.26532,-3.18678l-0.06774,0a0.40645,0.8224 0 0 1 -0.32742,-0.93662l0.53629,-6.38499a0.4008,0.81097 0 0 1 0.71693,-0.34267a0.41774,0.84524 0 0 1 0.06774,0.6168l-0.53064,6.37357a0.4008,0.81097 0 0 1 -0.37258,0.67391l-0.02258,0zm0.82419,-9.56035l-0.06774,0a0.37822,0.76529 0 0 1 -0.25968,-0.33124a0.37258,0.75386 0 0 1 -0.06774,-0.60537a0.4008,0.81097 0 0 1 0.45725,-0.66249a0.4008,0.81097 0 0 1 -0.0621,1.61053l0,-0.01142zm0.26532,-3.18678l-0.06774,0a0.4008,0.81097 0 0 1 -0.32742,-0.93662l0.53064,-6.38499a0.40645,0.8224 0 0 1 0.72257,-0.34267a0.41209,0.83382 0 0 1 0.04516,0.57111l-0.53064,6.38499a0.40645,0.8224 0 0 1 -0.37258,0.68533l0,0.02284zm0.79596,-9.5832l-0.06774,0a0.4008,0.81097 0 0 1 -0.32742,-0.93662a0.40645,0.8224 0 0 1 0.4629,-0.66249a0.4008,0.81097 0 0 1 -0.06774,1.61053l0,-0.01142zm0.26532,-3.18678l-0.0621,0a0.41209,0.83382 0 0 1 -0.33306,-0.93662l0.56451,-6.38499a0.4008,0.81097 0 0 1 0.45725,-0.66249a0.37822,0.76529 0 0 1 0.25968,0.33124a0.36693,0.74244 0 0 1 0.06774,0.59395l-0.54758,6.35072a0.4008,0.81097 0 0 1 -0.40645,0.67391l0,0.03427zm0.80161,-9.5832l-0.06774,0a0.38387,0.77671 0 0 1 -0.25968,-0.33124a0.39516,0.79955 0 0 1 -0.06774,-0.60537a0.4008,0.81097 0 1 1 0.39516,0.94804l0,-0.01142zm0.26532,-3.18678l-0.09597,0a0.41209,0.83382 0 0 1 -0.25968,-0.34267a0.38951,0.78813 0 0 1 -0.06774,-0.59395l0.50806,-6.09944a0.4008,0.81097 0 0 1 0.39516,-0.67391l0.14677,0a0.4008,0.81097 0 0 1 0.19758,1.51915l-0.45725,5.51691a0.4008,0.81097 0 0 1 -0.36693,0.65106l0,0.02284zm13.20391,-6.09944l-2.94675,0a0.4008,0.81097 0 0 1 0,-1.62195l2.94675,0a0.4008,0.81097 0 0 1 0,1.62195zm-4.54996,0a0.4008,0.81097 0 0 1 0,-1.62195a0.4008,0.81097 0 1 1 0,1.62195zm-1.59757,0l-3.20078,0a0.4008,0.81097 0 1 1 0,-1.62195l3.20078,0a0.4008,0.81097 0 1 1 0,1.62195zm-4.80399,0a0.4008,0.81097 0 1 1 0.4008,-0.81097a0.39516,0.79955 0 0 1 -0.4008,0.78813l0,0.02284z"/>
   <path stroke="null" id="svg_176" d="m93.01807,245.07838l-3.20078,0a0.4008,0.81097 0 1 1 0,-1.61053l3.20078,0a0.4008,0.81097 0 1 1 0,1.61053zm-4.80399,0a0.4008,0.81097 0 1 1 0.4008,-0.79955a0.39516,0.79955 0 0 1 -0.4008,0.79955zm-1.59757,0l-1.60321,0a0.4008,0.81097 0 1 1 0,-1.61053l1.60321,0a0.4008,0.81097 0 1 1 0,1.61053zm7.85235,-0.29698a0.4008,0.81097 0 1 1 0.4008,-0.81097a0.4008,0.81097 0 0 1 -0.38387,0.81097l-0.01694,0zm0,-3.23247a0.4008,0.81097 0 0 1 -0.4008,-0.81097l0,-6.47637a0.4008,0.81097 0 0 1 0.80161,0l0,6.47637a0.4008,0.81097 0 0 1 -0.38387,0.81097l-0.01694,0zm0,-9.72026a0.4008,0.81097 0 1 1 0.4008,-0.81097a0.4008,0.81097 0 0 1 -0.38387,0.81097l-0.01694,0zm0,-3.23247a0.4008,0.81097 0 0 1 -0.4008,-0.81097l0,-6.47637a0.4008,0.81097 0 1 1 0.80161,0l0,6.47637a0.4008,0.81097 0 0 1 -0.38387,0.81097l-0.01694,0zm0,-9.72026a0.39516,0.79955 0 0 1 -0.4008,-0.79955a0.4008,0.81097 0 0 1 0.80161,0a0.39516,0.79955 0 0 1 -0.38387,0.79955l-0.01694,0zm0,-3.23247a0.4008,0.81097 0 0 1 -0.4008,-0.81097l0,-6.47637a0.4008,0.81097 0 0 1 0.80161,0l0,6.47637a0.4008,0.81097 0 0 1 -0.38387,0.81097l-0.01694,0zm0,-9.70884a0.4008,0.81097 0 1 1 0.4008,-0.81097a0.4008,0.81097 0 0 1 -0.38387,0.81097l-0.01694,0zm0,-3.2439a0.4008,0.81097 0 0 1 -0.4008,-0.81097l0,-6.53348a0.4008,0.81097 0 0 1 0.80161,0l0,6.47637a0.4008,0.81097 0 0 1 -0.38387,0.86808l-0.01694,0zm0,-9.70884a0.4008,0.81097 0 1 1 0.4008,-0.81097a0.4008,0.81097 0 0 1 -0.38387,0.81097l-0.01694,0zm0,-3.2439a0.4008,0.81097 0 0 1 -0.4008,-0.81097l0,-6.47637a0.4008,0.81097 0 0 1 0.80161,0l0,6.47637a0.4008,0.81097 0 0 1 -0.38387,0.81097l-0.01694,0zm0,-9.70884a0.4008,0.81097 0 1 1 0.4008,-0.81097a0.4008,0.81097 0 0 1 -0.38387,0.81097l-0.01694,0zm0,-3.2439a0.39516,0.79955 0 0 1 -0.4008,-0.79955l0,-6.47637a0.4008,0.81097 0 1 1 0.80161,0l0,6.41926a0.39516,0.79955 0 0 1 -0.38387,0.85666l-0.01694,0zm0,-9.70884a0.4008,0.81097 0 1 1 0.4008,-0.81097a0.4008,0.81097 0 0 1 -0.38387,0.81097l-0.01694,0zm0,-3.23247a0.4008,0.81097 0 0 1 -0.4008,-0.81097l0,-6.52206a0.4008,0.81097 0 1 1 0.80161,0l0,6.47637a0.4008,0.81097 0 0 1 -0.38387,0.85666l-0.01694,0z"/>
  </g>
 </g>
</svg>