<svg id="Layer_1" data-name="Layer 1" xmlns="http://www.w3.org/2000/svg" viewBox="0 0 893.55 470.2"><defs><style>.cls-1{font-size:112.75px;font-family:PatuaOne-Regular, Patua One;letter-spacing:0.11em;}.cls-1,.cls-12,.cls-14,.cls-17,.cls-22,.cls-23,.cls-6,.cls-7{fill:#2c2c2c;}.cls-2{letter-spacing:0.1em;}.cls-3{letter-spacing:0.07em;}.cls-4{letter-spacing:0.1em;}.cls-5{fill:#f4da39;}.cls-12,.cls-14,.cls-17,.cls-22,.cls-23,.cls-7{font-size:23.51px;font-weight:700;}.cls-7{font-family:Montserrat-SemiBold, Montserrat;letter-spacing:0.01em;}.cls-8{letter-spacing:-0.01em;}.cls-9{letter-spacing:0.01em;}.cls-10{fill:#fceda2;}.cls-11{fill:#4f4f4f;}.cls-12,.cls-14,.cls-17,.cls-22,.cls-23{font-family:MyriadPro-Bold, Myriad Pro;}.cls-12{letter-spacing:0.02em;}.cls-13{letter-spacing:0.09em;}.cls-14{letter-spacing:0.06em;}.cls-15,.cls-23{letter-spacing:0.09em;}.cls-16{letter-spacing:0.01em;}.cls-17{letter-spacing:0.08em;}.cls-18,.cls-22{letter-spacing:0.09em;}.cls-19{letter-spacing:0.1em;}.cls-20{letter-spacing:0.1em;}.cls-21{letter-spacing:0.07em;}.cls-24{fill:none;stroke:#2c2c2c;stroke-miterlimit:10;}</style></defs><title>Untitled-3</title><text class="cls-1" transform="translate(83.2 335.59) scale(1.06 1)">L<tspan class="cls-2" x="69.11" y="0">ANG</tspan><tspan class="cls-3" x="321.78" y="0">U</tspan><tspan class="cls-4" x="401.27" y="0">AGE</tspan></text><path class="cls-5" d="M213.67,518a18.44,18.44,0,0,0-.2-2.7l5.15-6.28-1.48-2.57-.88-1.52-1.48-2.57-8,1.32a18.28,18.28,0,0,0-4.67-2.7l-2.87-7.6h-7.7l-2.87,7.6a18.28,18.28,0,0,0-4.67,2.7l-8-1.32-1.48,2.57-.88,1.52L172.09,509l5.15,6.28a18.35,18.35,0,0,0,0,5.4L172.09,527l1.48,2.57.88,1.52,1.48,2.57,8-1.32a18.28,18.28,0,0,0,4.67,2.7l2.87,7.6h7.7l2.87-7.6a18.28,18.28,0,0,0,4.67-2.7l8,1.32,1.48-2.57.88-1.52,1.48-2.57-5.15-6.28A18.44,18.44,0,0,0,213.67,518Zm-18.31,9.25A9.25,9.25,0,1,1,204.6,518,9.25,9.25,0,0,1,195.36,527.26Z" transform="translate(-94.45 -305.54)"/><path class="cls-5" d="M232.48,491.17a10.83,10.83,0,0,0-.12-1.58l3-3.68-.87-1.51-.52-.89-.87-1.51-4.7.77a10.71,10.71,0,0,0-2.74-1.58L224,476.73h-4.51l-1.68,4.46a10.72,10.72,0,0,0-2.74,1.58l-4.7-.77-.87,1.51-.52.89-.87,1.51,3,3.68a10.77,10.77,0,0,0,0,3.17l-3,3.68.87,1.51.52.89.87,1.51,4.7-.77a10.72,10.72,0,0,0,2.74,1.58l1.68,4.45H224l1.68-4.45a10.71,10.71,0,0,0,2.74-1.58l4.7.77.87-1.51.52-.89.87-1.51-3-3.68A10.85,10.85,0,0,0,232.48,491.17Zm-10.74,5.42a5.42,5.42,0,1,1,5.42-5.42A5.42,5.42,0,0,1,221.75,496.59Z" transform="translate(-94.45 -305.54)"/><path class="cls-6" d="M946.62,492.09l-5.15,6.28,1.48,2.57.88,1.52,1.48,2.57,8-1.32a18.28,18.28,0,0,0,4.67,2.7l2.87,7.6h7.7l2.87-7.6a18.28,18.28,0,0,0,4.67-2.7l8,1.32,1.48-2.57.88-1.52,1.48-2.57-5.15-6.28a18.35,18.35,0,0,0,0-5.4L988,480.4l-1.48-2.57-.88-1.52-1.48-2.57-8,1.32a18.28,18.28,0,0,0-4.67-2.7l-2.87-7.6h-7.7l-2.87,7.6a18.28,18.28,0,0,0-4.67,2.7l-8-1.32-1.48,2.57-.88,1.52-1.48,2.57,5.15,6.28a18.35,18.35,0,0,0,0,5.4Zm8.87-2.7a9.25,9.25,0,1,1,9.25,9.25A9.25,9.25,0,0,1,955.49,489.39Z" transform="translate(-94.45 -305.54)"/><path class="cls-6" d="M927.73,464.12l-3,3.68.87,1.51.52.89.87,1.51,4.7-.77a10.72,10.72,0,0,0,2.74,1.58l1.68,4.45h4.51l1.68-4.45a10.74,10.74,0,0,0,2.74-1.58l4.7.77.87-1.51.52-.89.87-1.51-3-3.68a10.77,10.77,0,0,0,0-3.17l3-3.68-.87-1.51-.52-.89-.87-1.51-4.7.77a10.72,10.72,0,0,0-2.74-1.58l-1.68-4.46h-4.51l-1.68,4.46a10.7,10.7,0,0,0-2.74,1.58l-4.7-.77-.87,1.51-.52.89-.87,1.51,3,3.68a10.77,10.77,0,0,0,0,3.17Zm5.2-1.58a5.42,5.42,0,1,1,5.42,5.42A5.42,5.42,0,0,1,932.93,462.54Z" transform="translate(-94.45 -305.54)"/><path class="cls-5" d="M523,432.2c6,0,10.95-6,10.95-13.29s-1.61-13.29-10.95-13.29-10.95,6-10.95,13.29S517,432.2,523,432.2Zm0,0" transform="translate(-94.45 -305.54)"/><path class="cls-5" d="M543.67,452c-.2-12.79-1.87-16.44-14.66-18.74,0,0-1.8,2.29-6,2.29s-6-2.29-6-2.29c-12.64,2.28-14.42,5.87-14.65,18.33,0,1,0,1.07,0,1,0,.22,0,.63,0,1.34,0,0,3,6.14,20.67,6.14s20.67-6.14,20.67-6.14c0-.46,0-.78,0-1,0,.07,0-.07,0-.89Zm0,0" transform="translate(-94.45 -305.54)"/><path class="cls-5" d="M571.21,432.2c6,0,10.95-6,10.95-13.29s-1.61-13.29-10.95-13.29-10.95,6-10.95,13.29,4.9,13.29,10.95,13.29Zm0,0" transform="translate(-94.45 -305.54)"/><path class="cls-5" d="M591.86,452c-.2-12.79-1.87-16.44-14.66-18.74,0,0-1.8,2.29-6,2.29s-6-2.29-6-2.29c-12.64,2.28-14.42,5.87-14.65,18.33,0,1,0,1.07,0,1,0,.22,0,.63,0,1.34,0,0,3,6.14,20.67,6.14s20.67-6.14,20.67-6.14c0-.46,0-.78,0-1,0,.07,0-.07,0-.89Zm0,0" transform="translate(-94.45 -305.54)"/><path class="cls-5" d="M620.25,432.2c6,0,10.95-6,10.95-13.29s-1.61-13.29-10.95-13.29-10.95,6-10.95,13.29,4.9,13.29,10.95,13.29Zm0,0" transform="translate(-94.45 -305.54)"/><path class="cls-5" d="M640.9,452c-.2-12.79-1.87-16.44-14.66-18.74,0,0-1.8,2.29-6,2.29s-6-2.29-6-2.29c-12.64,2.28-14.42,5.87-14.65,18.33,0,1,0,1.07,0,1,0,.22,0,.63,0,1.34,0,0,3,6.14,20.67,6.14s20.67-6.14,20.67-6.14c0-.46,0-.78,0-1a8.84,8.84,0,0,1,0-.89Zm0,0" transform="translate(-94.45 -305.54)"/><polygon class="cls-5" points="342.35 22.04 313.97 48.39 302.3 32.51 294.07 38.55 312.53 63.68 349.3 29.52 342.35 22.04"/><polygon class="cls-5" points="616.83 373.3 588.45 399.65 576.78 383.76 568.55 389.81 587.01 414.93 623.78 380.78 616.83 373.3"/><polygon class="cls-6" points="616.83 366.29 588.45 392.64 576.78 376.75 568.55 382.8 587.01 407.92 623.78 373.77 616.83 366.29"/><path class="cls-5" d="M381.89,422.15a20.19,20.19,0,0,1-10.11-7.25c-2.45-3.89.5-4.9-.5-15.75-.92-9.94-14.59-20.62-31.23-21.71a42.34,42.34,0,0,0-23.48,5.46c-20.69,11.31-28.89,35.23-12.91,58.32,14.4,20.82.89,30.22.89,30.22s.53,4.38,9.39,10.27,19.73,1.89,19.73,1.89S337.26,470.86,349,472c8.4,1.24,20.19-.41,23.17-3.3,2.79-2.7-.49-6.08,1.74-13.61-7.62-.74-11.81-4.38-12.21-9.5,8.46.82,11.95-1.86,14.36-4.82-.06-1.74-.24-5.43-.41-7.91,7.48-2.17,10.34-9.55,6.25-10.75" transform="translate(-94.45 -305.54)"/><path class="cls-6" d="M385.6,430.81a20.2,20.2,0,0,1-10.11-7.25c-2.45-3.89.5-4.9-.5-15.76-.92-9.94-14.59-20.62-31.23-21.71a42.35,42.35,0,0,0-23.48,5.46c-20.69,11.31-28.89,35.23-12.91,58.32,14.4,20.82.89,30.22.89,30.22s.53,4.38,9.39,10.27,19.73,1.89,19.73,1.89,3.58-12.74,15.3-11.57c8.4,1.24,20.19-.41,23.17-3.3,2.79-2.7-.49-6.08,1.74-13.61-7.62-.74-11.81-4.38-12.21-9.5,8.46.82,11.95-1.86,14.36-4.82-.06-1.74-.24-5.43-.41-7.91,7.48-2.17,10.34-9.55,6.25-10.75" transform="translate(-94.45 -305.54)"/><path class="cls-6" d="M427.5,387.71c-17,0-31.5,13.94-31.5,31v14a31.86,31.86,0,0,0,1.29,8.66l-13.61,14.74,18.19-5.26c5.47,7.75,15.43,12.84,25.69,12.84,17,0,31.43-13.94,31.43-31v-14C459,401.65,444.54,387.71,427.5,387.71Z" transform="translate(-94.45 -305.54)"/><path class="cls-5" d="M429.28,431.55,425,427.28l.05-.05a29.76,29.76,0,0,0,6.3-11.1h5v-3.41H424.4v-3.4H421v3.4H409.11v3.38h19a26.83,26.83,0,0,1-5.39,9.11,26.8,26.8,0,0,1-3.93-5.69h-3.4a29.85,29.85,0,0,0,5.06,7.75l-8.64,8.54,2.4,2.4,8.5-8.5L428,435l1.29-3.46Zm9.57-8.62h-3.4l-7.65,20.39h3.4l1.91-5.1h8.07l1.91,5.1h3.4Zm-4.46,11.89,2.76-7.37,2.76,7.37Z" transform="translate(-94.45 -305.54)"/><rect class="cls-5" x="531.1" y="677.62" width="111.38" height="48.56" rx="11.1" ry="11.1" transform="translate(1079.12 1098.25) rotate(180)"/><path class="cls-6" d="M613.41,719.87" transform="translate(-94.45 -305.54)"/><polygon class="cls-5" points="487.02 418.18 483.94 437.45 476.05 420.59 487.02 418.18"/><text class="cls-7" transform="translate(452.25 405.19)">HEL<tspan class="cls-8" x="49.38" y="0">L</tspan><tspan class="cls-9" x="63.32" y="0">O</tspan></text><path class="cls-6" d="M684.86,424.61,681.23,421l0,0a25.09,25.09,0,0,0,5.31-9.35h4.2v-2.87h-10v-2.86h-2.86v2.86h-10v2.85h16a22.62,22.62,0,0,1-4.54,7.67,22.58,22.58,0,0,1-3.31-4.8h-2.86a25.14,25.14,0,0,0,4.27,6.53l-7.28,7.19,2,2,7.16-7.16,4.45,4.45,1.09-2.91Z" transform="translate(-94.45 -305.54)"/><rect class="cls-6" x="675.81" y="417.62" width="35.02" height="2.92" transform="translate(11.23 671.21) rotate(-74.65)"/><path class="cls-6" d="M709.16,410h-3.85l-8.65,18h3.85l2.16-4h9.13l2.16,4h3.85Zm-5,11,3.12-10.36L710.37,421Z" transform="translate(-94.45 -305.54)"/><path class="cls-6" d="M392.4,761.82l-4.32-4.27.05-.05a29.77,29.77,0,0,0,6.3-11.1h5V743H387.52v-3.4h-3.4V743H372.23v3.38h19a26.83,26.83,0,0,1-5.39,9.11,26.79,26.79,0,0,1-3.93-5.69h-3.4a29.84,29.84,0,0,0,5.06,7.75l-8.64,8.54,2.4,2.4,8.5-8.5,5.28,5.28,1.29-3.46Z" transform="translate(-94.45 -305.54)"/><rect class="cls-6" x="381.65" y="753.52" width="41.56" height="3.47" transform="translate(-526.84 637.94) rotate(-74.66)"/><path class="cls-6" d="M421.24,744h-4.56l-10.27,25H411l2.57-9h10.84l2.57,9h4.56Zm-6,12,3.71-9.89,3.71,9.89Z" transform="translate(-94.45 -305.54)"/><path class="cls-5" d="M881.5,701.5c0,19-15.59,33.5-34.63,33.5H831.24a35.53,35.53,0,0,1-9.68-1.13l-16.48,15.38L811,729A33.05,33.05,0,0,1,796.6,701.7c0-19,15.59-33.7,34.63-33.7h15.62C865.91,668,881.5,682.45,881.5,701.5Z" transform="translate(-94.45 -305.54)"/><path class="cls-6" d="M816.29,703.12a3.42,3.42,0,1,1,6.84,0,3.42,3.42,0,1,1-6.84,0Z" transform="translate(-94.45 -305.54)"/><path class="cls-6" d="M835.63,703.12a3.42,3.42,0,1,1,6.84,0,3.42,3.42,0,1,1-6.84,0Z" transform="translate(-94.45 -305.54)"/><path class="cls-6" d="M855,703.12a3.42,3.42,0,1,1,6.84,0,3.42,3.42,0,1,1-6.84,0Z" transform="translate(-94.45 -305.54)"/><polygon class="cls-5" points="778.85 180.72 713.65 180.72 713.65 115.43 728.68 94.61 778.85 94.61 778.85 180.72"/><polygon class="cls-10" points="713.65 115.46 728.55 115.46 728.55 94.61 713.65 115.46"/><rect class="cls-10" x="722.55" y="133.46" width="52" height="1"/><polygon class="cls-10" points="774.28 121.46 721.79 121.46 721.79 121.46 774.28 121.46 774.28 121.46"/><rect class="cls-10" x="722.55" y="142.46" width="52" height="3"/><rect class="cls-10" x="722.55" y="153.46" width="52" height="1"/><rect class="cls-10" x="722.55" y="162.46" width="52" height="3"/><rect class="cls-10" x="722.55" y="170.46" width="52" height="1"/><polygon class="cls-6" points="764.12 188.12 698.91 188.12 698.91 122.83 713.95 102.01 764.12 102.01 764.12 188.12"/><polygon class="cls-11" points="698.91 122.46 715.55 122.46 715.55 102.01 698.91 122.46"/><polygon class="cls-11" points="758.97 142.46 706.48 142.46 706.48 142.46 758.97 142.46 758.97 142.46"/><rect class="cls-11" x="709.55" y="130.46" width="49" height="3"/><polygon class="cls-11" points="758.97 150.46 706.48 150.46 706.48 150.46 758.97 150.46 758.97 150.46"/><rect class="cls-11" x="709.55" y="158.46" width="49" height="4"/><rect class="cls-11" x="709.55" y="167.46" width="49" height="3"/><polygon class="cls-11" points="758.34 175.46 709.35 175.46 709.35 175.46 758.34 175.46 758.34 175.46"/><rect class="cls-5" x="209.81" y="716.76" width="11.77" height="24.89" transform="translate(-99.03 -304.17) rotate(-0.36)"/><polygon class="cls-5" points="120.34 415.31 120.82 424.13 120.42 432.28 172.83 456.39 172.63 423.81 172.41 389.87 120.34 415.31"/><path class="cls-5" d="M275.59,741.48a2.76,2.76,0,0,1-.7-.09,2.72,2.72,0,0,1-1.95-3.31,37.18,37.18,0,0,0,.9-8.61,26.18,26.18,0,0,0-1.75-9.64,2.72,2.72,0,0,1,5.1-1.87,31.57,31.57,0,0,1,2.08,11.48,42.44,42.44,0,0,1-1.07,10A2.72,2.72,0,0,1,275.59,741.48Z" transform="translate(-94.45 -305.54)"/><path class="cls-5" d="M283,751.88a2.72,2.72,0,0,1-2-4.53s3.79-4.67,3.71-17.2c-.08-12.73-4.05-18.2-4.09-18.25a2.72,2.72,0,0,1,4.3-3.32c.21.27,5.13,6.75,5.22,21.54S285.57,750.38,285,751A2.71,2.71,0,0,1,283,751.88Z" transform="translate(-94.45 -305.54)"/><rect class="cls-6" x="216.37" y="721.13" width="11.77" height="24.89" transform="translate(-99.04 -304.14) rotate(-0.36)"/><polygon class="cls-6" points="126.9 419.69 127.38 428.51 126.98 436.65 179.39 460.76 179.19 428.18 178.97 394.24 126.9 419.69"/><path class="cls-6" d="M282.16,745.86a2.76,2.76,0,0,1-.7-.09,2.72,2.72,0,0,1-1.95-3.31,37.19,37.19,0,0,0,.9-8.61,26.18,26.18,0,0,0-1.75-9.64,2.72,2.72,0,0,1,5.1-1.87,31.57,31.57,0,0,1,2.08,11.48,42.45,42.45,0,0,1-1.07,10A2.72,2.72,0,0,1,282.16,745.86Z" transform="translate(-94.45 -305.54)"/><path class="cls-6" d="M289.6,756.25a2.72,2.72,0,0,1-2-4.53s3.79-4.67,3.71-17.2c-.08-12.73-4.05-18.2-4.09-18.25a2.72,2.72,0,0,1,4.3-3.32c.21.27,5.13,6.75,5.22,21.54s-4.57,20.27-5.1,20.87A2.71,2.71,0,0,1,289.6,756.25Z" transform="translate(-94.45 -305.54)"/><path class="cls-6" d="M286.36,381.84l-4,0,0-4a4.19,4.19,0,1,0-8.39,0l0,4-4,0a4.2,4.2,0,0,0,0,8.39l4,0,0,4a4.2,4.2,0,0,0,4.18,4.21,4.33,4.33,0,0,0,1.15-.16,4.2,4.2,0,0,0,3.06-4l0-4,4,0a4.33,4.33,0,0,0,1.15-.16,4.2,4.2,0,0,0-1.12-8.23Z" transform="translate(-94.45 -305.54)"/><path class="cls-6" d="M923,712l-4,0,0-4a4.19,4.19,0,1,0-8.39,0l0,4-4,0a4.2,4.2,0,0,0,0,8.39l4,0,0,4a4.2,4.2,0,0,0,4.18,4.21,4.33,4.33,0,0,0,1.15-.16,4.2,4.2,0,0,0,3.06-4l0-4,4,0a4.33,4.33,0,0,0,1.15-.16A4.2,4.2,0,0,0,923,712Z" transform="translate(-94.45 -305.54)"/><path class="cls-5" d="M774.15,447.93l-4,0,0-4a4.19,4.19,0,1,0-8.39,0l0,4-4,0a4.2,4.2,0,0,0,0,8.39l4,0,0,4a4.2,4.2,0,0,0,4.18,4.21,4.33,4.33,0,0,0,1.15-.16,4.2,4.2,0,0,0,3.06-4l0-4,4,0a4.33,4.33,0,0,0,1.15-.16,4.2,4.2,0,0,0-1.12-8.23Z" transform="translate(-94.45 -305.54)"/><path class="cls-5" d="M189,715.23l-4,0,0-4a4.19,4.19,0,1,0-8.39,0l0,4-4,0a4.2,4.2,0,0,0,0,8.39l4,0,0,4a4.2,4.2,0,0,0,4.18,4.21,4.33,4.33,0,0,0,1.15-.16,4.2,4.2,0,0,0,3.06-4l0-4,4,0a4.34,4.34,0,0,0,1.15-.16,4.2,4.2,0,0,0-1.12-8.23Z" transform="translate(-94.45 -305.54)"/><path class="cls-5" d="M510.53,724.82l-4,0,0-4a4.19,4.19,0,1,0-8.39,0l0,4-4,0a4.2,4.2,0,0,0,0,8.39l4,0,0,4a4.2,4.2,0,0,0,4.18,4.21,4.33,4.33,0,0,0,1.15-.16,4.2,4.2,0,0,0,3.06-4l0-4,4,0a4.33,4.33,0,0,0,1.15-.16,4.2,4.2,0,0,0-1.12-8.23Z" transform="translate(-94.45 -305.54)"/><path class="cls-5" d="M910.65,476l-4,0,0-4a4.19,4.19,0,1,0-8.39,0l0,4-4,0a4.2,4.2,0,0,0,0,8.39l4,0,0,4a4.2,4.2,0,0,0,4.18,4.21,4.33,4.33,0,0,0,1.15-.16,4.2,4.2,0,0,0,3.06-4l0-4,4,0a4.33,4.33,0,0,0,1.15-.16,4.2,4.2,0,0,0-1.12-8.23Z" transform="translate(-94.45 -305.54)"/><path class="cls-6" d="M336.33,669.62c-.56-4-2.73-6.15-6.2-8.17a8.34,8.34,0,0,0-9,.56c-2.55,1.72-4.1,4.81-4.76,4.7-.33-.05-2.2-3.6-5.36-5a10.43,10.43,0,0,0-6.84-.42,11.31,11.31,0,0,0-8,8.62c-2.08,10.77,10.82,19.38,18.8,24.25a2.77,2.77,0,0,0,3,.33,3,3,0,0,0,.37-.18C326.81,689.13,338,681.58,336.33,669.62Z" transform="translate(-94.45 -305.54)"/><path class="cls-6" d="M125.07,524.82a1.64,1.64,0,0,1-1.64-1.64V486.27c0-16.13,13.85-29.25,30.86-29.25H284a1.64,1.64,0,1,1,0,3.28H154.3c-15.21,0-27.58,11.65-27.58,26v36.91A1.64,1.64,0,0,1,125.07,524.82Z" transform="translate(-94.45 -305.54)"/><path class="cls-6" d="M285.86,448.57h-3.28a1.64,1.64,0,0,1,0-3.28h3.28a1.64,1.64,0,0,1,0,3.28Z" transform="translate(-94.45 -305.54)"/><path class="cls-6" d="M139.65,512.93a1.64,1.64,0,0,1-1.64-1.64v-6.43a1.64,1.64,0,0,1,3.28,0v6.43A1.64,1.64,0,0,1,139.65,512.93Zm0-15a1.64,1.64,0,0,1-1.64-1.64v-6.43a1.64,1.64,0,1,1,3.28,0v6.43A1.64,1.64,0,0,1,139.65,497.91Zm0-15a1.64,1.64,0,0,1-1.64-1.64v-6.43a1.64,1.64,0,0,1,3.28,0v6.43A1.64,1.64,0,0,1,139.65,482.9ZM140.94,468a1.64,1.64,0,0,1-1.56-2.15,28.49,28.49,0,0,1,2.86-6.18,1.64,1.64,0,1,1,2.79,1.72,25.23,25.23,0,0,0-2.53,5.46A1.64,1.64,0,0,1,140.94,468Zm8.25-12.31a1.64,1.64,0,0,1-1.07-2.88,30.81,30.81,0,0,1,5.6-3.84,1.64,1.64,0,0,1,1.55,2.89,27.4,27.4,0,0,0-5,3.43A1.64,1.64,0,0,1,149.19,455.72Zm13.34-6.53a1.64,1.64,0,0,1-.33-3.25,32.29,32.29,0,0,1,6.45-.65h.27a1.64,1.64,0,0,1,0,3.28h-.27a29,29,0,0,0-5.79.58A1.67,1.67,0,0,1,162.52,449.19ZM274,448.57h-6.43a1.64,1.64,0,0,1,0-3.28H274a1.64,1.64,0,0,1,0,3.28Zm-15,0h-6.43a1.64,1.64,0,0,1,0-3.28H259a1.64,1.64,0,0,1,0,3.28Zm-15,0h-6.43a1.64,1.64,0,0,1,0-3.28H244a1.64,1.64,0,0,1,0,3.28Zm-15,0h-6.43a1.64,1.64,0,0,1,0-3.28H229a1.64,1.64,0,0,1,0,3.28Zm-15,0h-6.43a1.64,1.64,0,0,1,0-3.28H214a1.64,1.64,0,0,1,0,3.28Zm-15,0h-6.43a1.64,1.64,0,0,1,0-3.28h6.43a1.64,1.64,0,0,1,0,3.28Zm-15,0h-6.43a1.64,1.64,0,0,1,0-3.28h6.43a1.64,1.64,0,0,1,0,3.28Z" transform="translate(-94.45 -305.54)"/><path class="cls-6" d="M139.65,524.82a1.64,1.64,0,0,1-1.64-1.64V519.9a1.64,1.64,0,1,1,3.28,0v3.28A1.64,1.64,0,0,1,139.65,524.82Z" transform="translate(-94.45 -305.54)"/><circle class="cls-6" cx="189.56" cy="153.11" r="5.83"/><circle class="cls-6" cx="854.48" cy="360.9" r="5.83"/><path class="cls-6" d="M434.93,510.6H371.5a1.64,1.64,0,0,1,0-3.28h63.43a1.64,1.64,0,1,1,0,3.28Z" transform="translate(-94.45 -305.54)"/><circle class="cls-6" cx="340.48" cy="203.42" r="5.83"/><circle class="cls-6" cx="277.05" cy="203.42" r="5.83"/><circle class="cls-6" cx="386.41" cy="170.61" r="5.83"/><circle class="cls-6" cx="567.95" cy="170.61" r="5.83"/><path class="cls-6" d="M656.57,478.34H650a2.19,2.19,0,0,1,0-4.37h6.56a2.19,2.19,0,0,1,0,4.37Zm-15.31,0H634.7a2.19,2.19,0,0,1,0-4.37h6.56a2.19,2.19,0,0,1,0,4.37Zm-15.31,0h-6.56a2.19,2.19,0,0,1,0-4.37H626a2.19,2.19,0,0,1,0,4.37Zm-15.31,0h-6.56a2.19,2.19,0,0,1,0-4.37h6.56a2.19,2.19,0,1,1,0,4.37Zm-15.31,0h-6.56a2.19,2.19,0,0,1,0-4.37h6.56a2.19,2.19,0,1,1,0,4.37Zm-15.31,0h-6.56a2.19,2.19,0,0,1,0-4.37H580a2.19,2.19,0,0,1,0,4.37Zm-15.31,0h-6.56a2.19,2.19,0,0,1,0-4.37h6.56a2.19,2.19,0,0,1,0,4.37Zm-15.31,0h-6.56a2.19,2.19,0,0,1,0-4.37h6.56a2.19,2.19,0,1,1,0,4.37Zm-15.31,0h-6.56a2.19,2.19,0,0,1,0-4.37h6.56a2.19,2.19,0,0,1,0,4.37Zm-15.31,0h-6.56a2.19,2.19,0,1,1,0-4.37h6.56a2.19,2.19,0,0,1,0,4.37Zm-15.31,0H496.9a2.19,2.19,0,1,1,0-4.37h6.56a2.19,2.19,0,0,1,0,4.37Zm-15.31,0h-6.56a2.19,2.19,0,0,1,0-4.37h6.56a2.19,2.19,0,1,1,0,4.37Z" transform="translate(-94.45 -305.54)"/><circle class="cls-6" cx="519.83" cy="448.39" r="5.83"/><circle class="cls-6" cx="242.05" cy="417.77" r="5.83"/><path class="cls-6" d="M617.2,756.67H476.13a17,17,0,0,1-17-17A13.69,13.69,0,0,0,445.5,726H337.24a1.64,1.64,0,0,1,0-3.28H445.5a17,17,0,0,1,17,17,13.69,13.69,0,0,0,13.67,13.67H617.2a1.64,1.64,0,0,1,0,3.28Z" transform="translate(-94.45 -305.54)"/><path class="cls-6" d="M949.66,665.89a1.64,1.64,0,0,1-1.64-1.64V558.9a50.55,50.55,0,0,0-50.49-50.49H789.63a53.83,53.83,0,0,1-53.77-53.77v-28.8a1.64,1.64,0,1,1,3.28,0v28.8a50.55,50.55,0,0,0,50.49,50.49H897.53A53.83,53.83,0,0,1,951.3,558.9V664.25A1.64,1.64,0,0,1,949.66,665.89Z" transform="translate(-94.45 -305.54)"/><circle class="cls-6" cx="869.79" cy="380.58" r="5.83"/><path class="cls-6" d="M965,685.58a1.64,1.64,0,0,1-1.64-1.64V578.59a1.64,1.64,0,0,1,3.28,0V683.94A1.64,1.64,0,0,1,965,685.58Z" transform="translate(-94.45 -305.54)"/><circle class="cls-6" cx="5.83" cy="312.78" r="5.83"/><path class="cls-6" d="M101,617.78a1.64,1.64,0,0,1-1.64-1.64V510.78a1.64,1.64,0,0,1,3.28,0V616.13A1.64,1.64,0,0,1,101,617.78Z" transform="translate(-94.45 -305.54)"/><circle class="cls-6" cx="16.77" cy="264.66" r="5.83"/><path class="cls-6" d="M111.95,569.66a1.64,1.64,0,0,1-1.64-1.64V462.66a1.64,1.64,0,0,1,3.28,0V568A1.64,1.64,0,0,1,111.95,569.66Z" transform="translate(-94.45 -305.54)"/><path class="cls-6" d="M539.06,391.44c-1,0-1.94,0-2.89-.09a1.64,1.64,0,0,1,.21-3.27c.89.06,1.79.1,2.68.09,1.2,0,2.42-.06,3.62-.17a1.64,1.64,0,0,1,.3,3.27C541.68,391.38,540.36,391.44,539.06,391.44Zm-11.39-1.58a1.64,1.64,0,0,1-.45-.06,42.69,42.69,0,0,1-6.39-2.38,1.64,1.64,0,1,1,1.39-3,39.64,39.64,0,0,0,5.9,2.2,1.64,1.64,0,0,1-.45,3.22Zm23.71-.3a1.64,1.64,0,0,1-.49-3.21,39.64,39.64,0,0,0,5.84-2.35,1.64,1.64,0,0,1,1.47,2.94,43.07,43.07,0,0,1-6.32,2.54A1.62,1.62,0,0,1,551.39,389.56Zm-37.34-6.5a1.63,1.63,0,0,1-1-.33A43.29,43.29,0,0,1,508,378.2a1.64,1.64,0,0,1,2.37-2.27,40.05,40.05,0,0,0,4.7,4.18,1.64,1.64,0,0,1-1,2.95Zm50.78-.65a1.64,1.64,0,0,1-1-2.92,40.07,40.07,0,0,0,4.6-4.3,1.64,1.64,0,1,1,2.42,2.21,43.4,43.4,0,0,1-5,4.65A1.64,1.64,0,0,1,564.83,382.42Zm-61-10.61a1.64,1.64,0,0,1-1.4-.78A43,43,0,0,1,499.3,365a1.64,1.64,0,1,1,3-1.26,39.89,39.89,0,0,0,2.88,5.59,1.64,1.64,0,0,1-1.39,2.5Zm71-.9a1.64,1.64,0,0,1-1.41-2.47,39.76,39.76,0,0,0,2.74-5.67,1.64,1.64,0,1,1,3.06,1.19,42.93,42.93,0,0,1-3,6.14A1.64,1.64,0,0,1,574.79,370.91Zm-76.47-13.29a1.64,1.64,0,0,1-1.61-1.34,43.35,43.35,0,0,1-.71-6.77,1.64,1.64,0,0,1,1.6-1.68,1.61,1.61,0,0,1,1.68,1.6,40.19,40.19,0,0,0,.65,6.26,1.64,1.64,0,0,1-1.31,1.91Zm81.59-1-.26,0a1.64,1.64,0,0,1-1.37-1.88,40.18,40.18,0,0,0,.49-6.28,1.64,1.64,0,0,1,3.28,0,43.64,43.64,0,0,1-.53,6.79A1.64,1.64,0,0,1,579.92,356.57ZM498.34,342.4l-.3,0a1.64,1.64,0,0,1-1.31-1.91,43,43,0,0,1,1.78-6.58,1.64,1.64,0,0,1,3.09,1.11,39.66,39.66,0,0,0-1.64,6.07A1.64,1.64,0,0,1,498.34,342.4Zm81.19-1a1.64,1.64,0,0,1-1.6-1.3,39.67,39.67,0,0,0-1.79-6,1.64,1.64,0,0,1,3.06-1.18,42.81,42.81,0,0,1,1.94,6.53,1.64,1.64,0,0,1-1.26,1.94A1.7,1.7,0,0,1,579.53,341.43Zm-75.68-13.22a1.64,1.64,0,0,1-1.39-2.51,43.27,43.27,0,0,1,4-5.48,1.64,1.64,0,0,1,2.48,2.15,39.93,39.93,0,0,0-3.73,5.07A1.64,1.64,0,0,1,503.85,328.21Zm69.83-.83a1.64,1.64,0,0,1-1.37-.74,39.87,39.87,0,0,0-3.86-5,1.64,1.64,0,1,1,2.43-2.21,43.1,43.1,0,0,1,4.17,5.38,1.64,1.64,0,0,1-1.37,2.54ZM514.12,317a1.64,1.64,0,0,1-1-2.95,43.2,43.2,0,0,1,5.74-3.66,1.64,1.64,0,1,1,1.54,2.9,40,40,0,0,0-5.31,3.38A1.63,1.63,0,0,1,514.12,317Zm49-.58a1.64,1.64,0,0,1-1-.31,39.71,39.71,0,0,0-5.39-3.26,1.64,1.64,0,0,1,1.47-2.93,43,43,0,0,1,5.83,3.53,1.64,1.64,0,0,1-1,3Zm-35.4-6.19a1.64,1.64,0,0,1-.45-3.22,43.08,43.08,0,0,1,6.68-1.33,1.64,1.64,0,0,1,.38,3.26,39.64,39.64,0,0,0-6.17,1.22A1.62,1.62,0,0,1,527.75,310.2Zm21.61-.26a1.63,1.63,0,0,1-.41-.05,39.73,39.73,0,0,0-6.2-1.08,1.64,1.64,0,1,1,.3-3.27,43,43,0,0,1,6.71,1.16,1.64,1.64,0,0,1-.41,3.23Z" transform="translate(-94.45 -305.54)"/><path class="cls-6" d="M582.81,391.44c-.94,0-1.94,0-2.89-.09a1.64,1.64,0,0,1,.21-3.27c.89.06,1.75.1,2.68.09,1.2,0,2.42-.06,3.62-.17a1.63,1.63,0,0,1,1.78,1.48,1.64,1.64,0,0,1-1.48,1.78C585.43,391.38,584.11,391.44,582.81,391.44Zm-11.39-1.58a1.63,1.63,0,0,1-.45-.06,42.53,42.53,0,0,1-6.39-2.38,1.64,1.64,0,1,1,1.39-3,39.66,39.66,0,0,0,5.9,2.2,1.64,1.64,0,0,1-.45,3.22Zm23.72-.3a1.64,1.64,0,0,1-.49-3.21,39.63,39.63,0,0,0,5.84-2.35,1.64,1.64,0,0,1,1.47,2.94,43.07,43.07,0,0,1-6.32,2.54A1.62,1.62,0,0,1,595.14,389.56Zm-37.34-6.5a1.63,1.63,0,0,1-1-.33,43.65,43.65,0,0,1-5.09-4.53,1.64,1.64,0,0,1,2.37-2.27,40.22,40.22,0,0,0,4.71,4.19,1.64,1.64,0,0,1-1,2.95Zm50.78-.65a1.64,1.64,0,0,1-1-2.92,40.06,40.06,0,0,0,4.6-4.3,1.64,1.64,0,1,1,2.42,2.21,43.41,43.41,0,0,1-5,4.65A1.64,1.64,0,0,1,608.58,382.42Zm-61-10.61a1.64,1.64,0,0,1-1.4-.78A43.28,43.28,0,0,1,543,365a1.64,1.64,0,0,1,3-1.27,40,40,0,0,0,2.88,5.59,1.64,1.64,0,0,1-1.39,2.5Zm71-.9a1.64,1.64,0,0,1-1.41-2.47,39.75,39.75,0,0,0,2.74-5.67,1.64,1.64,0,1,1,3.06,1.19,43,43,0,0,1-3,6.14A1.64,1.64,0,0,1,618.54,370.91Zm-76.47-13.29a1.64,1.64,0,0,1-1.61-1.34,43.22,43.22,0,0,1-.71-6.78,1.64,1.64,0,0,1,3.28-.08,39.76,39.76,0,0,0,.65,6.26,1.64,1.64,0,0,1-1.31,1.91Zm81.6-1-.26,0a1.64,1.64,0,0,1-1.37-1.88,40.18,40.18,0,0,0,.49-6.28,1.64,1.64,0,0,1,3.28,0,43.64,43.64,0,0,1-.53,6.79A1.64,1.64,0,0,1,623.66,356.57ZM542.08,342.4l-.3,0a1.64,1.64,0,0,1-1.31-1.91,43,43,0,0,1,1.78-6.58,1.64,1.64,0,0,1,3.09,1.11,39.51,39.51,0,0,0-1.64,6.07A1.64,1.64,0,0,1,542.08,342.4Zm81.19-1a1.64,1.64,0,0,1-1.6-1.3,39.65,39.65,0,0,0-1.79-6,1.64,1.64,0,0,1,3.06-1.18,42.81,42.81,0,0,1,1.94,6.53,1.64,1.64,0,0,1-1.26,1.94A1.7,1.7,0,0,1,623.27,341.43Zm-75.68-13.22a1.64,1.64,0,0,1-1.39-2.51,43.07,43.07,0,0,1,4-5.48,1.64,1.64,0,0,1,2.48,2.15,39.83,39.83,0,0,0-3.74,5.07A1.64,1.64,0,0,1,547.59,328.21Zm69.84-.83a1.63,1.63,0,0,1-1.37-.74,39.87,39.87,0,0,0-3.86-5,1.64,1.64,0,1,1,2.43-2.21,43.11,43.11,0,0,1,4.17,5.38,1.64,1.64,0,0,1-1.37,2.54ZM557.87,317a1.64,1.64,0,0,1-1-2.95,43.21,43.21,0,0,1,5.74-3.66,1.64,1.64,0,0,1,1.54,2.9,40,40,0,0,0-5.31,3.38A1.63,1.63,0,0,1,557.87,317Zm49-.58a1.64,1.64,0,0,1-1-.31,39.71,39.71,0,0,0-5.39-3.26,1.64,1.64,0,0,1,1.47-2.93,43,43,0,0,1,5.83,3.53,1.64,1.64,0,0,1-1,3Zm-35.4-6.19A1.64,1.64,0,0,1,571,307a43,43,0,0,1,6.68-1.33,1.64,1.64,0,0,1,.38,3.26,39.7,39.7,0,0,0-6.17,1.22A1.62,1.62,0,0,1,571.49,310.2Zm21.61-.26a1.63,1.63,0,0,1-.41-.05,39.74,39.74,0,0,0-6.2-1.08,1.64,1.64,0,1,1,.3-3.27,43,43,0,0,1,6.71,1.16,1.64,1.64,0,0,1-.41,3.23Z" transform="translate(-94.45 -305.54)"/><path class="cls-6" d="M221.5,764.66h-1.22c-.91,0-1.64-1.43-1.63-2.34s.74-2.32,1.64-2.32h0l1.2.69c1.73,0,3.49.32,5.3.26a1.8,1.8,0,0,1,1.69,1.76,1.72,1.72,0,0,1-1.59,1.78C225.06,764.55,223.26,764.66,221.5,764.66Zm-9.94-.33h-.11c-2.23-.15-4.45-.36-6.61-.61a1.64,1.64,0,0,1-1.44-1.82,1.67,1.67,0,0,1,1.82-1.44c2.1.25,4.26.45,6.44.6a1.64,1.64,0,0,1-.11,3.28Zm24-.25a1.64,1.64,0,0,1-.13-3.28q2.66-.21,5.41-.5a1.64,1.64,0,0,1,.35,3.26q-2.8.29-5.49.51Zm-39.17-1.71a1.64,1.64,0,0,1-.32,0c-2.21-.44-4.39-.94-6.49-1.5a1.64,1.64,0,1,1,.85-3.17c2,.54,4.13,1,6.28,1.45a1.64,1.64,0,0,1-.32,3.25Zm-14.7-4.13a1.66,1.66,0,0,1-.58-.1c-2.12-.79-4.19-1.67-6.16-2.6a1.64,1.64,0,1,1,1.4-3c1.89.89,3.87,1.73,5.91,2.5a1.64,1.64,0,0,1-.58,3.18ZM168,751.49a1.64,1.64,0,0,1-.87-.25c-1.91-1.2-3.75-2.5-5.49-3.86a1.64,1.64,0,0,1,2-2.59c1.66,1.29,3.42,2.52,5.23,3.67a1.64,1.64,0,0,1-.88,3Zm-11.87-9.58a1.64,1.64,0,0,1-1.18-.5,64.12,64.12,0,0,1-4.43-5.07,1.64,1.64,0,1,1,2.58-2,60.51,60.51,0,0,0,4.2,4.81,1.64,1.64,0,0,1-1.18,2.78Zm-9.21-12.18a1.64,1.64,0,0,1-1.42-.82,64.43,64.43,0,0,1-3.06-6,1.64,1.64,0,0,1,3-1.33,60.72,60.72,0,0,0,2.9,5.7,1.64,1.64,0,0,1-1.42,2.46ZM141,715.64a1.64,1.64,0,0,1-1.58-1.2,42.09,42.09,0,0,1-1.38-6.75,1.64,1.64,0,0,1,3.27-.3,39.91,39.91,0,0,0,1.28,6.17,1.64,1.64,0,0,1-1.58,2.08Z" transform="translate(-94.45 -305.54)"/><path class="cls-6" d="M363.48,706.4a1.61,1.61,0,0,1-.64-.13,1.64,1.64,0,0,1-.87-2.15l2.55-6a1.64,1.64,0,0,1,3,1.28l-2.55,6A1.64,1.64,0,0,1,363.48,706.4Zm6-14.1a1.61,1.61,0,0,1-.64-.13,1.64,1.64,0,0,1-.87-2.15l2.55-6a1.64,1.64,0,0,1,3,1.28l-2.55,6A1.64,1.64,0,0,1,369.44,692.3Zm6-14.1a1.61,1.61,0,0,1-.64-.13,1.64,1.64,0,0,1-.87-2.15l2.55-6a1.64,1.64,0,0,1,3,1.28l-2.55,6A1.64,1.64,0,0,1,375.4,678.2Z" transform="translate(-94.45 -305.54)"/><path class="cls-6" d="M385.35,706.4a1.61,1.61,0,0,1-.64-.13,1.64,1.64,0,0,1-.87-2.15l2.55-6a1.64,1.64,0,0,1,3,1.28l-2.55,6A1.64,1.64,0,0,1,385.35,706.4Zm6-14.1a1.61,1.61,0,0,1-.64-.13,1.64,1.64,0,0,1-.87-2.15l2.55-6a1.64,1.64,0,0,1,3,1.28l-2.55,6A1.64,1.64,0,0,1,391.31,692.3Zm6-14.1a1.61,1.61,0,0,1-.64-.13,1.64,1.64,0,0,1-.87-2.15l2.55-6a1.64,1.64,0,0,1,3,1.28l-2.55,6A1.64,1.64,0,0,1,397.27,678.2Z" transform="translate(-94.45 -305.54)"/><path class="cls-6" d="M407.23,706.4a1.61,1.61,0,0,1-.64-.13,1.64,1.64,0,0,1-.87-2.15l2.55-6a1.64,1.64,0,0,1,3,1.28l-2.55,6A1.64,1.64,0,0,1,407.23,706.4Zm6-14.1a1.61,1.61,0,0,1-.64-.13,1.64,1.64,0,0,1-.87-2.15l2.55-6a1.64,1.64,0,0,1,3,1.28l-2.55,6A1.64,1.64,0,0,1,413.18,692.3Zm6-14.1a1.61,1.61,0,0,1-.64-.13,1.64,1.64,0,0,1-.87-2.15l2.55-6a1.64,1.64,0,0,1,3,1.28l-2.55,6A1.64,1.64,0,0,1,419.14,678.2Z" transform="translate(-94.45 -305.54)"/><path class="cls-6" d="M429.1,706.4a1.61,1.61,0,0,1-.64-.13,1.64,1.64,0,0,1-.87-2.15l2.55-6a1.64,1.64,0,0,1,3,1.28l-2.55,6A1.64,1.64,0,0,1,429.1,706.4Zm6-14.1a1.61,1.61,0,0,1-.64-.13,1.64,1.64,0,0,1-.87-2.15l2.55-6a1.64,1.64,0,0,1,3,1.28l-2.55,6A1.64,1.64,0,0,1,435.06,692.3Zm6-14.1a1.61,1.61,0,0,1-.64-.13,1.64,1.64,0,0,1-.87-2.15l2.55-6a1.64,1.64,0,0,1,3,1.28l-2.55,6A1.64,1.64,0,0,1,441,678.2Z" transform="translate(-94.45 -305.54)"/><path class="cls-6" d="M451,706.4a1.61,1.61,0,0,1-.64-.13,1.64,1.64,0,0,1-.87-2.15l2.55-6a1.64,1.64,0,0,1,3,1.28l-2.55,6A1.64,1.64,0,0,1,451,706.4Zm6-14.1a1.61,1.61,0,0,1-.64-.13,1.64,1.64,0,0,1-.87-2.15l2.55-6a1.64,1.64,0,0,1,3,1.28l-2.55,6A1.64,1.64,0,0,1,456.93,692.3Zm6-14.1a1.61,1.61,0,0,1-.64-.13,1.64,1.64,0,0,1-.87-2.15l2.55-6a1.64,1.64,0,0,1,3,1.28l-2.55,6A1.64,1.64,0,0,1,462.89,678.2Z" transform="translate(-94.45 -305.54)"/><path class="cls-6" d="M472.84,706.4a1.61,1.61,0,0,1-.64-.13,1.64,1.64,0,0,1-.87-2.15l2.55-6a1.64,1.64,0,0,1,3,1.28l-2.55,6A1.64,1.64,0,0,1,472.84,706.4Zm6-14.1a1.61,1.61,0,0,1-.64-.13,1.64,1.64,0,0,1-.87-2.15l2.55-6a1.64,1.64,0,0,1,3,1.28l-2.55,6A1.64,1.64,0,0,1,478.8,692.3Zm6-14.1a1.61,1.61,0,0,1-.64-.13,1.64,1.64,0,0,1-.87-2.15l2.55-6a1.64,1.64,0,0,1,3,1.28l-2.55,6A1.64,1.64,0,0,1,484.76,678.2Z" transform="translate(-94.45 -305.54)"/><path class="cls-6" d="M495.45,690.46H356.32a1.64,1.64,0,0,1,0-3.28H495.45a1.64,1.64,0,0,1,0,3.28Z" transform="translate(-94.45 -305.54)"/><path class="cls-6" d="M616.15,770.88h-6.56a1.64,1.64,0,1,1,0-3.28h6.56a1.64,1.64,0,0,1,0,3.28Zm-15.31,0h-6.56a1.64,1.64,0,0,1,0-3.28h6.56a1.64,1.64,0,1,1,0,3.28Zm-15.31,0H579a1.64,1.64,0,1,1,0-3.28h6.56a1.64,1.64,0,1,1,0,3.28Zm-15.31,0h-6.56a1.64,1.64,0,1,1,0-3.28h6.56a1.64,1.64,0,0,1,0,3.28Zm-15.31,0h-6.56a1.64,1.64,0,0,1,0-3.28h6.56a1.64,1.64,0,1,1,0,3.28Zm-15.31,0H533a1.64,1.64,0,1,1,0-3.28h6.56a1.64,1.64,0,1,1,0,3.28Zm-15.31,0h-6.56a1.64,1.64,0,1,1,0-3.28h6.56a1.64,1.64,0,0,1,0,3.28Zm-15.31,0h-6.56a1.64,1.64,0,0,1,0-3.28H509a1.64,1.64,0,0,1,0,3.28Zm-15.31,0H487.1a1.64,1.64,0,0,1,0-3.28h6.56a1.64,1.64,0,1,1,0,3.28Zm-15.31,0H477a1.64,1.64,0,0,1,0-3.28h1.34a1.64,1.64,0,0,1,0,3.28Z" transform="translate(-94.45 -305.54)"/><path class="cls-6" d="M897.17,756.12a2.19,2.19,0,1,1,0-4.37,51,51,0,0,0,6.27-.39,2.19,2.19,0,0,1,.54,4.34A55.24,55.24,0,0,1,897.17,756.12Zm-8.75,0h-6.56a2.19,2.19,0,0,1,0-4.37h6.56a2.19,2.19,0,0,1,0,4.37Zm-15.31,0h-6.56a2.19,2.19,0,0,1,0-4.37h6.56a2.19,2.19,0,1,1,0,4.37Zm-15.31,0h-6.56a2.19,2.19,0,0,1,0-4.37h6.56a2.19,2.19,0,1,1,0,4.37Zm-15.31,0h-6.56a2.19,2.19,0,0,1,0-4.37h6.56a2.19,2.19,0,0,1,0,4.37Zm69.77-2.2a2.19,2.19,0,0,1-.63-4.28,50,50,0,0,0,5.9-2.18,2.19,2.19,0,0,1,1.77,4,54.09,54.09,0,0,1-6.41,2.37A2.21,2.21,0,0,1,912.26,753.92Zm13.82-6.47a2.19,2.19,0,0,1-1.21-4,51,51,0,0,0,5-3.79,2.19,2.19,0,0,1,2.85,3.32,55.46,55.46,0,0,1-5.45,4.11A2.18,2.18,0,0,1,926.08,747.45Zm11.37-10.17a2.19,2.19,0,0,1-1.67-3.59,50.61,50.61,0,0,0,3.72-5.06,2.19,2.19,0,1,1,3.68,2.37,54.24,54.24,0,0,1-4,5.5A2.18,2.18,0,0,1,937.45,737.28Zm8-13a2.16,2.16,0,0,1-.86-.18,2.19,2.19,0,0,1-1.15-2.87,50.09,50.09,0,0,0,2.11-5.92,2.19,2.19,0,1,1,4.2,1.2,54.46,54.46,0,0,1-2.29,6.44A2.18,2.18,0,0,1,945.44,724.29Zm3.9-14.74h-.25a2.19,2.19,0,0,1-1.93-2.42,51.55,51.55,0,0,0,.32-5.68,2.19,2.19,0,0,1,2.19-2.19h0a2.19,2.19,0,0,1,2.19,2.19,56.07,56.07,0,0,1-.34,6.16A2.19,2.19,0,0,1,949.33,709.55Z" transform="translate(-94.45 -305.54)"/><path class="cls-6" d="M783.43,697H735.31c-1.21,0-2.19-.29-2.19-1.5s1-1.5,2.19-1.5h48.12c1.21,0,2.19.29,2.19,1.5S784.64,697,783.43,697Z" transform="translate(-94.45 -305.54)"/><path class="cls-6" d="M783.43,717H735.31a2,2,0,1,1,0-4h48.12a2,2,0,1,1,0,4Z" transform="translate(-94.45 -305.54)"/><path class="cls-6" d="M783.43,727H755c-1.21,0-2.19-1.79-2.19-3s1-3,2.19-3h28.43c1.21,0,2.19,1.79,2.19,3S784.64,727,783.43,727Z" transform="translate(-94.45 -305.54)"/><path class="cls-6" d="M783.43,707H755c-1.21,0-2.19-1.79-2.19-3s1-3,2.19-3h28.43c1.21,0,2.19,1.79,2.19,3S784.64,707,783.43,707Z" transform="translate(-94.45 -305.54)"/><text class="cls-12" transform="translate(86.49 125.59)">T<tspan class="cls-13" x="13.36" y="0">ALK</tspan></text><text class="cls-14" transform="translate(407.9 203.72)">C<tspan class="cls-15" x="15.45" y="0">ONVERS</tspan><tspan class="cls-16" x="115.67" y="0">A</tspan><tspan class="cls-15" x="131.3" y="0">TION</tspan></text><text class="cls-17" transform="translate(567.62 77.8)">V<tspan class="cls-18" x="16.93" y="0">O</tspan><tspan class="cls-19" x="35.95" y="0">C</tspan><tspan class="cls-15" x="52.34" y="0">ABU</tspan><tspan class="cls-20" x="104.5" y="0">L</tspan><tspan class="cls-18" x="118.82" y="0">A</tspan><tspan class="cls-21" x="136.41" y="0">R</tspan><tspan class="cls-18" x="152.07" y="0">Y</tspan></text><text class="cls-22" transform="translate(543.59 455.37)">SPEAKING</text><text class="cls-23" transform="translate(11.44 383.7)">SPEECH</text><rect class="cls-24" x="61.67" y="239.51" width="733.99" height="107.74"/></svg>