<svg width="975.74" height="625.79" xmlns="http://www.w3.org/2000/svg">
 <defs>
  <style>.cls-1,.cls-2{fill:#bde4e5;}.cls-1{opacity:0.53;}.cls-1,.cls-14,.cls-15,.cls-17,.cls-22,.cls-23,.cls-25,.cls-26,.cls-28,.cls-30,.cls-32,.cls-33,.cls-35,.cls-36,.cls-37,.cls-38,.cls-39,.cls-4,.cls-40{isolation:isolate;}.cls-3,.cls-4{fill:#fad63a;}.cls-4{opacity:0.77;}.cls-36,.cls-5{fill:#1c1c1c;}.cls-6{fill:#f49968;}.cls-21,.cls-7{fill:none;stroke-miterlimit:10;}.cls-7{stroke:#f49968;stroke-width:3.34px;}.cls-14,.cls-8{fill:#f39a68;}.cls-9{fill:#fdfeff;}.cls-10,.cls-30{fill:#ec5612;}.cls-11,.cls-15,.cls-23{fill:#4a6cb7;}.cls-12,.cls-17,.cls-22,.cls-28,.cls-33{fill:#389152;}.cls-13,.cls-15,.cls-35{opacity:0.57;}.cls-14{opacity:0.34;}.cls-16{fill:#f9d536;}.cls-17,.cls-26{opacity:0.68;}.cls-18{fill:#f0815c;}.cls-19{fill:#f23a30;}.cls-20{fill:#e1796d;}.cls-21{stroke:#389152;stroke-width:2.95px;}.cls-22{opacity:0.37;}.cls-23{opacity:0.36;}.cls-24,.cls-25{fill:#f3a000;}.cls-25{opacity:0.39;}.cls-26{fill:#599e35;}.cls-27{fill:#ec5610;}.cls-28,.cls-36{opacity:0.47;}.cls-29{fill:#fff;}.cls-30{opacity:0.79;}.cls-31,.cls-32,.cls-35{fill:#f79f15;}.cls-32{opacity:0.31;}.cls-33{opacity:0.3;}.cls-34{fill:#385189;}.cls-37{font-size:43.12px;font-family:BanglaMN, Bangla MN;}.cls-38{font-size:33.55px;font-family:InaiMathi, InaiMathi;}.cls-39{font-size:20.8px;font-family:KannadaMN, Kannada MN;}.cls-40{font-size:48.71px;font-family:AdobeDevanagari-Regular, Adobe Devanagari;}</style>
 </defs>
 <title>main</title>
 <g>
  <title>background</title>
  <rect fill="none" id="canvas_background" height="602" width="802" y="-1" x="-1"/>
 </g>
 <g>
  <title>Layer 1</title>
  <path id="svg_1" d="m171.83,518.32l61.4,0q7.21,-2.42 14.12,-5.44c0.65,1.83 1.37,3.63 2.08,5.44l556.47,0c78.77,0 146.7,-55.9 161.24,-133.31a263.94,263.94 0 0 0 4.49,-45c2.09,-146.53 -117.51,-267.33 -264.07,-266.65a262.77,262.77 0 0 0 -228.15,134.55a23.4,23.4 0 0 1 -21,11.91q-2.4,-0.06 -4.82,-0.06a218,218 0 0 0 -113.79,31.84a22.73,22.73 0 0 1 -29.35,-4.7a170.71,170.71 0 0 0 -126.53,-61.76c-94.69,-2.78 -174.43,73.03 -176.19,167.71l0,4.34c0.5,89.5 74.63,161.13 164.1,161.13z" class="cls-1"/>
  <path id="svg_2" d="m851.48,116.39c-121.15,-79.52 -283.82,-45.78 -363.34,75.36q-5.17,7.88 -9.77,16.12a23.4,23.4 0 0 1 -21,12q-2.4,-0.06 -4.82,-0.06a218,218 0 0 0 -113.79,31.84a23.06,23.06 0 0 1 -29.68,-5.09a170.7,170.7 0 0 0 -130.29,-61.43c-93.16,-0.56 -170.34,74.67 -172.08,167.82a170.34,170.34 0 0 0 25.28,92.83c593.93,52.14 769.83,-206.49 819.49,-329.39z" class="cls-1"/>
  <ellipse id="svg_3" ry="38.23" rx="487.87" cy="587.56" cx="487.87" class="cls-2"/>
  <polygon id="svg_4" points="268.6 568.11 100.67 592.93 717.05 596.57 718.52 571.93 268.6 568.11" class="cls-2"/>
  <path id="svg_5" d="m342.48,437.97s-37.18,-4.88 -40,35.85s-26,98.82 -13.87,107.12s257.52,0 257.52,0s-22.7,-140.26 -42.69,-140.07s-69.34,24.47 -88.38,18.1s-72.58,-21 -72.58,-21z" class="cls-3"/>
  <path id="svg_6" d="m481.84,446.59l-77.61,5.7l-51.17,-5.69s-42.5,-6.77 -30.08,9.49s93.6,20.23 92.63,29.5s-32.49,82.38 -32.49,82.38l8.36,21l9.83,0s78.7,-78.4 88.31,-82s37.8,-15.7 37.8,-15.7s-13,-50.78 -24,-50.37s-21.58,5.69 -21.58,5.69z" class="cls-4"/>
  <path id="svg_7" d="m406.85,213.21s-19.5,6.54 -19.6,25.53c-0.12,15.08 -1.8,16.58 -8.59,22.63s-12.82,10.55 -11.07,20.6s-14.08,12.32 -18.86,21.63s-9,32.25 16.09,40s61.09,4.27 61.09,4.27s63.64,-1.06 63.64,-31.45c0,0 1.51,-12 -11.56,-18.53s-3.52,-10.62 -4.27,-21.45s-11.56,-12.32 -12.07,-16.34s3,-16 -4,-20c-8.18,-4.62 -6.36,-10.58 -8.18,-14.84c-10.84,-25.29 -42.62,-12.05 -42.62,-12.05z" class="cls-5"/>
  <path id="svg_8" d="m383.23,270.74s-10.89,13 -6.68,24.89s-10.14,8 -10.14,8l0,0a4,4 0 0 1 1.06,-5a7.32,7.32 0 0 0 2.75,-6.17c0.01,-6.69 13.01,-21.72 13.01,-21.72z" class="cls-5"/>
  <path id="svg_9" d="m415.09,221.31s-15.23,6.11 -15.33,23.85c-0.09,14.09 -1.41,15.5 -6.72,21.14s-10,9.86 -8.66,19.26s-11,11.51 -14.75,20.2s-7.08,30.13 12.59,37.34s47.78,4 47.78,4s49.73,-1 49.73,-29.36c0,0 1.18,-11.16 -9,-17.33s-2.75,-9.92 -3.34,-20s-9.33,-11.5 -9.44,-15.27c-0.28,-9.64 -4.3,-14.72 -9.82,-18.45c-6.4,-4.32 1.7,-10.09 0.27,-14.07c-8.44,-23.65 -33.31,-11.31 -33.31,-11.31z" class="cls-5"/>
  <path id="svg_10" d="m409.1,384.68l38.93,13.39a2.25,2.25 0 0 1 1.4,2.86l-16.61,48.29a8.3,8.3 0 0 1 -10.59,5.15l0,0l-27.54,-9.47a8.3,8.3 0 0 1 -5.15,-10.54l0,0l16.69,-48.3a2.29,2.29 0 0 1 2.87,-1.38z" class="cls-6"/>
  <path id="svg_11" d="m441.85,404.73l11.5,4a8.21,8.21 0 0 1 5.09,10.43l-6.61,19.23a8.21,8.21 0 0 1 -6.49,5.44l-17.87,2.79" class="cls-7"/>
  <path id="svg_12" d="m439.4,277.91l1,11.87a6.39,6.39 0 0 0 6.11,5.85l11.12,0.55l-25.94,19.5l-40.28,-19.5l10.11,-0.37a6.08,6.08 0 0 0 5.9,-6.26l0,-0.12l-0.55,-11.16l32.53,-0.36z" class="cls-8"/>
  <path id="svg_13" d="m367.61,312.34l29.51,-16.19s25.07,16.22 60.55,0l-18,60.17l-35.84,0l-36.22,-43.98z" class="cls-9"/>
  <path id="svg_14" d="m469.55,456.23s-118.61,-57.76 -137.53,-56.91s-30.63,43.24 -9,56.76s137.54,16.21 137.54,16.21s34.07,20 48.52,11a39.87,39.87 0 0 0 11.32,-10.13c2.88,-3.9 2.14,-7 -2.61,-8.1l-48.24,-8.83z" class="cls-10"/>
  <path id="svg_15" d="m332.02,399.32c15.89,-0.76 102.17,40 129.34,53a81.9,81.9 0 0 1 -8.13,19.76c-25.84,-0.86 -111.84,-4.54 -130.16,-16c-21.69,-13.51 -9.99,-55.86 8.95,-56.76z" class="cls-11"/>
  <path id="svg_16" d="m474.86,302.34s-12.16,-12.68 -30.23,-6.62c-0.82,0.27 1.7,45.52 -21.36,45.61c-15.23,0.06 -19,-13.38 -20.91,-45.33c0,0 -18.33,-6.38 -29.25,3.32c-15.7,14 -14.82,82.78 -14.82,82.78l14.78,11.93l14.63,28.87l45.22,18.26l30.46,-15.19l30.29,3.09l-7.63,-79.66l-11.18,-47.06z" class="cls-12"/>
  <g id="svg_17" class="cls-13">
   <path id="svg_18" d="m313.23,419.25c0.62,8 -1.89,13.44 7.8,23.2c16.2,16.22 92.2,24.29 133.8,7.28c-0.52,1 -1.06,21.34 -1.65,22.34c-25.84,-0.86 -111.84,-4.54 -130.16,-16c-11.89,-7.44 -13.7,-23.63 -9.79,-36.82z" class="cls-11"/>
  </g>
  <path id="svg_19" d="m401.56,295.79l-4.33,0.18l-0.12,0.21s8.29,4 24.23,-0.55c12.44,-3.58 17.06,-10.12 18.53,-12.81l-0.2,-2.18l-2,-2.67l-30.69,0.3l0.55,11.16a6.08,6.08 0 0 1 -5.78,6.37l-0.19,-0.01z" class="cls-14"/>
  <path id="svg_20" d="m481.84,424.06l-11,-13.46s-36.9,18.87 -83,12.29s15.2,18.27 15.2,18.27l29.93,0l28.44,11.12l20.43,-28.22z" class="cls-11"/>
  <path id="svg_21" d="m448.12,242.37c-1.73,-17.18 -9.33,-31.81 -29.58,-30.06c-31.13,2.7 -29.25,54.79 -12.45,70.72c10.17,9.65 27,8.27 34.29,-1.45s9.13,-25.37 7.74,-39.21z" class="cls-8"/>
  <path id="svg_22" d="m376.68,573.04l21.87,-26.07l72.24,-136.38a19.91,19.91 0 0 1 15.44,-10.24c11.06,-1 28.2,0.88 41,18.45c20.32,28.1 -113.3,137 -113.3,137s-7.33,35.29 -17.78,37.84c-7,1.7 -20.25,-7.37 -22.08,-12c-0.38,-1 -1.07,-1.77 -0.78,-2.77a16.82,16.82 0 0 1 3.39,-5.83z" class="cls-10"/>
  <path id="svg_23" d="m415.65,554.28a79.29,79.29 0 0 1 -19.56,-8.78l5.77,-10.42l68.93,-124.51a19.91,19.91 0 0 1 15.44,-10.26c11.06,-1 28.2,0.88 41,18.45c16.39,22.67 -67.35,97.85 -100.38,126.1c-5.18,4.43 -9.08,7.66 -11.2,9.42z" class="cls-11"/>
  <g id="svg_24" class="cls-13">
   <path id="svg_25" d="m527.18,418.78a47.39,47.39 0 0 0 -9.85,-10.18c1,3.9 1,9.43 -1.51,17.05c-7.26,22.21 -102.59,127.9 -102.59,127.9c0.82,0.26 1.63,0.51 2.42,0.73c2.12,-1.75 6,-5 11.15,-9.39c33.02,-28.24 116.77,-103.44 100.38,-126.11z" class="cls-11"/>
  </g>
  <path id="svg_26" d="m328.33,391.22a22.82,22.82 0 0 1 0.72,-10.55c3.84,-23 23.67,-58.33 31.78,-72a24.1,24.1 0 0 1 18.24,-14.49c13.15,-2.2 16.39,2.56 18.59,15.71c1.43,8.58 7.34,21 1.24,26.33l-28,39.36l-24,34.49a22.93,22.93 0 0 1 -18.57,-18.85z" class="cls-12"/>
  <path id="svg_27" d="m488.46,393.84l5.21,6.27s-42.49,39.45 -54,41.13s-51.88,-18.34 -51.88,-18.34l100.67,-29.06z" class="cls-15"/>
  <path id="svg_28" d="m439.3,441.65l-21.28,-0.21a6.06,6.06 0 0 1 -6,-6.13l0.37,-37.32a1.65,1.65 0 0 1 1.66,-1.63l0,0l30.09,0.3a1.68,1.68 0 0 1 1.66,1.69l-0.37,37.29a6.06,6.06 0 0 1 -6.13,6l0,0.01z" class="cls-16"/>
  <path id="svg_29" d="m415.09,436.79l-11.63,-6.29a7.8,7.8 0 0 1 -4.08,-6.91l0.14,-14.87a7.8,7.8 0 0 1 7.8,-7.7l8.89,0.09l0,3.54l-8.89,-0.09a4.24,4.24 0 0 0 -4.27,4.19l-0.14,14.87a4.22,4.22 0 0 0 2.22,3.76l11.63,6.29l-1.67,3.12z" class="cls-16"/>
  <path id="svg_30" d="m442.89,396.97l-0.38,0l-0.13,13.86a26.92,26.92 0 0 1 -27.15,26.71l0,0a9.75,9.75 0 0 1 -2.54,-0.37a8.92,8.92 0 0 0 7.8,4.67l15.6,0.15a8.92,8.92 0 0 0 9,-8.83l0,0l0.31,-33.64a2.47,2.47 0 0 0 -2.44,-2.5l-0.07,-0.05z" class="cls-4"/>
  <path id="svg_31" d="m387.78,422.9s15.8,8.87 18.41,7.34s4.88,-4.6 3.53,-9.33c-0.47,-1.67 0.56,-4.74 1.87,-7a6.55,6.55 0 0 0 -1,-8c-1.62,-1.67 -8.36,0.11 -9.75,-1.13c-1.63,-1.44 2.63,-5.32 0.7,-5.06a15.26,15.26 0 0 0 -9,4.41c-2.86,1.76 -2.79,2.93 -5,5.46l-0.87,1l1.11,12.31z" class="cls-6"/>
  <path id="svg_32" d="m341.85,376.66l-13.24,16.31s-2.55,18.93 43.94,28.93c5.79,1.25 10.73,2.79 16.58,2.6l0.6,-1l1.83,-19.71l-26.81,-21l-22.9,-6.13z" class="cls-12"/>
  <path id="svg_33" d="m440.95,407.83s5.27,1.19 -2.93,4.94s-17,5.57 -15.45,7.46c2,2.28 8.29,0.4 8.38,1.36s-6,2.18 -6,3.43s2.32,2.28 6.24,2.2s-1.25,1.07 -1,2.68s4.64,1.39 6.05,1.16s-4.21,3.11 1.56,2.35c2.76,-0.37 15.12,-5.38 20.63,-16.3c3.54,-7 -8.21,-13 -8.21,-13s-12.06,-1.7 -15,-0.11c-4.3,2.32 5.73,3.83 5.73,3.83z" class="cls-6"/>
  <path id="svg_34" d="m457.94,346.32a20.71,20.71 0 0 1 -4.43,-6.6c-8.15,-3.54 -0.07,-14.63 -0.07,-24.09c0,-12.68 -3.48,-20 9.22,-20a22.9,22.9 0 0 1 15.6,6.12l0,0l0.11,0.13a23.08,23.08 0 0 1 3.67,4.42c9.42,11.55 25.43,42.62 30.76,63.38a21.85,21.85 0 0 1 -12,26.65l0,0l-42.84,24a66.87,66.87 0 0 0 -11.64,-19.62l33.45,-32.48l-21.83,-21.91z" class="cls-12"/>
  <path id="svg_35" d="m378.88,346.28l-11.92,30.69a8.29,8.29 0 0 0 2.64,9.54l22.05,17.16l-15.31,-17.37a12.68,12.68 0 0 1 -2.93,-10.73l5.47,-29.29z" class="cls-17"/>
  <polygon id="svg_36" points="462.69 339.4 479.82 368.22 453.44 393.84 472.75 368.66 462.69 339.4" class="cls-17"/>
  <path id="svg_37" d="m450.91,240.66a15.48,15.48 0 0 0 -1.48,-6.41a34.83,34.83 0 0 0 -3.84,-8l-0.16,-0.36c1.29,-0.25 1.54,-0.9 -1,-2.33l-3.24,-7.28c-27.92,-13.4 -43.33,6 -43.33,6l-0.76,2.49a22.13,22.13 0 0 0 -6.17,13.11c-1.67,15.85 -2.85,29.92 -10.44,41.32s-3.59,24.08 3.28,32.6c5.28,6.56 -5.68,25 -5.68,25c8.87,-5.06 17.72,-16.46 19.62,-26.91s-7.28,-22.16 0,-28.8s4.11,-14.56 6,-21.53s8.23,-5.69 20.08,-12.34a28.71,28.71 0 0 0 10.41,-10.57c1.16,1.56 10.73,18.32 22.59,12.68c-0.03,0.03 -5.98,-5.36 -5.88,-8.67z" class="cls-5"/>
  <path id="svg_38" d="m411.81,164.3c-16.21,-16.21 -75.52,-16.21 -91.74,0c-10.93,10.93 -12,52.1 0,61.82a30.29,30.29 0 0 0 5.68,3.53l0,0.77l20.18,18.55l-5.85,-14.54l0,0c24.1,5.22 58.5,2.48 71.75,-8.24c12,-9.78 10.91,-50.96 -0.02,-61.89z" class="cls-9"/>
  <path id="svg_39" d="m268.56,333.97c-16.21,16.21 -75.52,16.21 -91.74,0c-10.93,-10.93 -12,-52.1 0,-61.82a30.31,30.31 0 0 1 5.68,-3.53l0,-0.77l-7.37,-15.41l21.66,11.44l0,0c24.1,-5.22 58.5,-2.48 71.75,8.24c12.03,9.78 10.94,50.96 0.02,61.85z" class="cls-9"/>
  <path id="svg_40" d="m492.1,169.25s-9.62,-3.18 -14.63,-8.08s-3,-5.75 -9.58,-11.2c-4.62,-3.82 -9.39,-11.62 -11,-11.16c-1.75,0.51 -1.38,4.63 0.69,6.54a14.74,14.74 0 0 1 3.31,4.22a1.31,1.31 0 0 1 -1.7,1.77l-16,-7s-7.12,-3.19 -8.09,-0.27s14.13,7.69 13.81,8.9c-0.41,1.77 -18.33,-6.83 -19.93,-3.09c-1.22,2.82 16.43,8.19 16.43,8.19s2,1.55 0.25,2.45s-15.6,-5.34 -17,-2.93s17.72,7.09 16.58,9.25s-13.08,-2.4 -13.26,-0.25s9,4.54 12.34,4.34s8.39,1.73 11.8,3.17s8,3.23 11.7,1.37l10.54,6.68l13.74,-12.9z" class="cls-8"/>
  <polygon id="svg_41" points="506.5 170.16 478.02 158.68 467.18 178.71 498.78 193.14 506.5 170.16" class="cls-9"/>
  <path id="svg_42" d="m568.87,108.97c6.73,-8 27.65,3.84 27.65,3.84s18.31,2.77 4.34,42.48c-12.94,36.77 -27.78,65.13 -42.4,68.78c-13.37,3.33 -58.74,-17.55 -81.7,-37.43l12.84,-24.38s35.76,12.84 58.63,14.47c0,0.01 9.29,-54.3 20.64,-67.76z" class="cls-11"/>
  <path id="svg_43" d="m578.83,54.97s-3.06,42.67 6,60.95s35.71,14.63 35.71,14.63l-10.14,-69.51l-31.57,-6.07z" class="cls-5"/>
  <path id="svg_44" d="m614,72.21l14.44,-11.24s-9,35.17 4.71,47.78c9.17,8.39 -40.78,4.51 -40.78,4.51s4.23,-14.73 1.3,-39.78c-0.5,-4.27 20.33,-1.27 20.33,-1.27z" class="cls-8"/>
  <path id="svg_45" d="m578.33,154.14s-11.46,67.41 -15.65,68.68s-10.28,3.36 -17,0.12c0,0 8.92,-1 11,-7.66c7.89,-25.62 5.32,-77.9 5.32,-77.9l16.33,16.76z" class="cls-11"/>
  <path id="svg_46" d="m614,72.21l14.44,-11.24s-9,35.17 4.71,47.78c9.17,8.39 -40.78,4.51 -40.78,4.51s4.23,-14.73 1.3,-39.78c-0.5,-4.27 20.33,-1.27 20.33,-1.27z" class="cls-8"/>
  <path id="svg_47" d="m659.64,530.09c0.07,1 0.13,1.84 0.17,2.42c-0.04,-0.54 -0.1,-1.44 -0.17,-2.42z" class="cls-10"/>
  <polygon id="svg_48" points="592.13 582.33 645.29 583.92 592.13 582.33 592.13 582.33" class="cls-10"/>
  <path id="svg_49" d="m659.85,533.1z" class="cls-10"/>
  <path id="svg_50" d="m626.06,541.69l38.08,-13.13c-1.23,-18 -11.76,-92.8 -25.86,-121.19c-16,-32.29 -22.43,-70.75 -22.43,-70.75l12.26,-52.45l-19.61,-52.13l-33.54,2.17s-34.07,125.56 -28.73,154.34s81.38,155.7 79.83,153.14z" class="cls-10"/>
  <path id="svg_51" d="m626.06,541.69l38.08,-13.13c-1.23,-18 -11.76,-92.8 -25.86,-121.19c-16,-32.29 -22.43,-70.75 -22.43,-70.75l12.26,-52.45l-19.61,-52.13l-33.54,2.17s-34.07,125.56 -28.73,154.34s81.38,155.7 79.83,153.14z" class="cls-18"/>
  <path id="svg_52" d="m674.74,564.09c1.88,-1.69 3.05,-3.1 3.1,-4l0,0c-0.04,0.88 -1.21,2.3 -3.1,4z" class="cls-10"/>
  <path id="svg_53" d="m667.43,569.77c-2,1.35 -3.9,2.73 -6,4.07c2.07,-1.34 4.1,-2.72 6,-4.07z" class="cls-10"/>
  <path id="svg_54" d="m659.81,532.51l0,0z" class="cls-19"/>
  <path id="svg_55" d="m659.61,529.69l0,0l0,0z" class="cls-19"/>
  <polygon id="svg_56" points="592.13 582.33 592.13 582.33 614.92 571.33 592.13 582.33" class="cls-19"/>
  <path id="svg_57" d="m677.84,560.06a10.7,10.7 0 0 0 -1.56,-4.27c0.95,1.85 1.61,3.35 1.56,4.27z" class="cls-19"/>
  <path id="svg_58" d="m660.66,534.5l-0.78,-1l0,0l0.78,1z" class="cls-19"/>
  <path id="svg_59" d="m660.66,534.5c1,1.2 2.85,3.45 5,6.15c-2.16,-2.68 -4.01,-4.95 -5,-6.15z" class="cls-19"/>
  <path id="svg_60" d="m665.63,540.66c2.66,3.38 5.75,7.47 8.16,11.09c-2.41,-3.63 -5.5,-7.72 -8.16,-11.09z" class="cls-19"/>
  <path id="svg_61" d="m679.05,555.6c-0.67,-1.23 -1.53,-2.6 -2.5,-4.06c-2.41,-3.63 -5.51,-7.71 -8.16,-11.09c-2.13,-2.7 -4,-5 -5,-6.15l-0.78,-1l0,-1.05c0,-0.58 -0.1,-1.41 -0.17,-2.43l0,-0.4l-33.53,12l2.38,4l-1,19.61l-12.52,6l-22.92,11l53.2,1.58s8.08,-4.64 16.18,-9.98c2,-1.34 4.06,-2.71 6,-4.07a84.38,84.38 0 0 0 7.31,-5.68c1.88,-1.69 3.05,-3.1 3.1,-4a9.62,9.62 0 0 0 -1.59,-4.28z" class="cls-19"/>
  <path id="svg_62" d="m608.94,314.05l-1.21,-48.47s-4.36,-12.73 -10.58,32.75a71.5,71.5 0 0 1 -12.22,31.42c-5.6,8 -10.92,16.3 -8.22,15.73c3.2,-0.67 8.63,-3.29 11.6,-4.3l-0.82,3.8c-5.11,6.38 -14.86,18.73 -10.73,18.67c2.22,0 4.76,-0.18 6.92,-0.33c-1.66,8.35 -2.72,14.42 -2.68,16.21c0.16,8.06 36.08,68.65 36.08,68.65l-8.14,-134.13z" class="cls-20"/>
  <path id="svg_63" d="m679.05,555.6c-0.67,-1.23 -1.53,-2.6 -2.5,-4.06c-2.41,-3.63 -5.51,-7.71 -8.16,-11.09c-2.13,-2.7 -4,-5 -5,-6.15l-0.78,-1l0,-1.05c0,-0.58 -0.1,-1.41 -0.17,-2.43l0,-0.4l-33.53,12l2.38,4l-1,19.61l-12.52,6l-22.92,11l53.2,1.58s8.08,-4.64 16.18,-9.98c2,-1.34 4.06,-2.71 6,-4.07a84.38,84.38 0 0 0 7.31,-5.68c1.88,-1.69 3.05,-3.1 3.1,-4a9.62,9.62 0 0 0 -1.59,-4.28z" class="cls-9"/>
  <path id="svg_64" d="m679.05,555.6c-0.67,-1.23 -1.53,-2.6 -2.5,-4.06c-2.41,-3.63 -5.51,-7.71 -8.16,-11.09c-2.13,-2.7 -4,-5 -5,-6.15l-0.78,-1l0,-1.05c0,-0.58 -0.1,-1.41 -0.17,-2.43l0,-0.4l-33.53,12l2.38,4l-1,19.61l-12.52,6l-22.92,11l53.2,1.58s8.08,-4.64 16.18,-9.98c2,-1.34 4.06,-2.71 6,-4.07a84.38,84.38 0 0 0 7.31,-5.68c1.88,-1.69 3.05,-3.1 3.1,-4a9.62,9.62 0 0 0 -1.59,-4.28z" class="cls-1"/>
  <path id="svg_65" d="m619.36,548.21l-43.92,21.86a9.87,9.87 0 0 0 -5.41,9.9s76.35,6.2 82.59,2.59s-5.22,-35 -5.22,-35l-28.04,0.65z" class="cls-9"/>
  <path id="svg_66" d="m662.14,428.5c0.69,-14.81 -10.39,-37 -10.39,-37s24.71,-70.42 24.54,-104.83s-17.25,-55 -17.25,-55c-30.86,-11.46 -54.43,11.12 -54.43,11.12l-7.46,146.84l18.77,158.34l34.9,0.5s10.34,-97.98 11.32,-119.97z" class="cls-18"/>
  <path id="svg_67" d="m593.46,105.97a27.87,27.87 0 0 1 4.78,1.88c4.08,2 13.37,2.84 33.71,-6.78c3.9,-1.84 16.1,4 21.17,9.88c15.23,17.55 22.57,61.43 16,74.4c-8.73,17.36 -3.8,56.75 5.67,75.27s-105,29.18 -109.2,4.67c-5.09,-29.72 -2.1,-68 -2.12,-90.68c0,-13.2 -3.71,-35.64 -0.86,-54c2.03,-12.7 13.79,-19.16 30.85,-14.64z" class="cls-11"/>
  <path id="svg_68" d="m608.66,137.58c-2.51,-0.42 -4.4,-1.58 -4,-4.09a4.6,4.6 0 0 1 5.29,-3.78c2.51,0.42 3.69,2.7 3.27,5.21s-2.05,3.05 -4.56,2.66z" class="cls-11"/>
  <path id="svg_69" d="m608.66,156.29c-2.51,-0.42 -4.4,-1.58 -4,-4.09a4.6,4.6 0 0 1 5.29,-3.78c2.51,0.42 3.69,2.7 3.27,5.21s-2.05,3.03 -4.56,2.66z" class="cls-11"/>
  <path id="svg_70" d="m608.66,174.97c-2.51,-0.42 -4.4,-1.58 -4,-4.09a4.6,4.6 0 0 1 5.29,-3.78c2.51,0.42 3.69,2.7 3.27,5.21s-2.05,3.11 -4.56,2.66z" class="cls-11"/>
  <path id="svg_71" d="m608.66,193.71c-2.51,-0.42 -4.4,-1.58 -4,-4.09a4.6,4.6 0 0 1 5.29,-3.78c2.51,0.42 3.69,2.7 3.27,5.21s-2.05,3.08 -4.56,2.66z" class="cls-11"/>
  <path id="svg_72" d="m608.66,212.42c-2.51,-0.42 -4.4,-1.58 -4,-4.09a4.6,4.6 0 0 1 5.29,-3.78c2.51,0.42 3.69,2.7 3.27,5.21s-2.05,3.07 -4.56,2.66z" class="cls-11"/>
  <path id="svg_73" d="m608.66,231.13c-2.51,-0.42 -4.4,-1.58 -4,-4.09a4.6,4.6 0 0 1 5.29,-3.78c2.51,0.42 3.69,2.7 3.27,5.21s-2.05,3.07 -4.56,2.66z" class="cls-11"/>
  <path id="svg_74" d="m608.66,249.84c-2.51,-0.42 -4.4,-1.58 -4,-4.09a4.6,4.6 0 0 1 5.29,-3.78c2.51,0.42 3.69,2.7 3.27,5.21s-2.05,3.08 -4.56,2.66z" class="cls-11"/>
  <path id="svg_75" d="m608.66,268.54c-2.51,-0.42 -4.4,-1.58 -4,-4.09a4.6,4.6 0 0 1 5.29,-3.78c2.51,0.42 3.69,2.7 3.27,5.21s-2.05,3.09 -4.56,2.66z" class="cls-11"/>
  <path id="svg_76" d="m601.36,128.71s-5.06,83.12 0.16,140.8l-0.16,-140.8z" class="cls-11"/>
  <path id="svg_77" d="m662.93,220.35c-0.9,0 5.25,16.5 5.25,16.5l-82.31,10.49l26.55,-27l50.51,0.01z" class="cls-11"/>
  <path id="svg_78" d="m614.23,219.64s-7.57,5.39 -13.91,6.44s-5.85,-0.91 -13.47,1c-5.32,1.35 -13.65,0.64 -14.2,2.07s2.67,3.54 5.21,3a13.5,13.5 0 0 1 4.88,-0.16a1.2,1.2 0 0 1 0.39,2.21l-13.9,8.07s-6.21,3.53 -4.58,5.85s13.32,-6.26 14.08,-5.37c1.09,1.27 -14.95,9.87 -13.08,13.06c1.42,2.43 15,-7.7 15,-7.7s2.22,-0.63 2,1.14s-12.37,8.6 -11.38,11s14.76,-9.28 15.72,-7.28s-8.86,8.37 -7.37,9.66s8.24,-4.19 9.89,-6.77s5.85,-5.27 8.78,-7s6.71,-4.14 7.36,-7.92l10.67,-4.17l-2.09,-17.13z" class="cls-8"/>
  <polygon id="svg_79" points="620.52 217.42 601.2 223.88 609.39 241.55 626.38 231.34 620.52 217.42" class="cls-9"/>
  <path id="svg_80" d="m630.06,126.31c-0.64,-9.62 1.85,-25.22 1.85,-25.22s28.16,-7.91 46.24,41.17c12.95,35.17 23.4,61.43 16,73.32c-6.83,10.84 -48,22 -76.19,23.5l-9.31,-21.25s35.61,-19.79 52.72,-20.35c0.03,0.03 -30.23,-54.86 -31.31,-71.17z" class="cls-11"/>
  <path id="svg_81" d="m637.88,141.8l23,53.06s-22.31,-34.13 -24,-40.07c-2.34,-8.56 1,-12.99 1,-12.99z" class="cls-11"/>
  <path id="svg_82" d="m615.23,71.75l-19.22,15.82l-1.3,4.57s18.39,11.64 37.95,8.5s-5.68,-21.45 -5.68,-21.45" class="cls-14"/>
  <path id="svg_83" d="m574.72,62.97a10.37,10.37 0 0 0 0.09,1.65c0.9,9.66 7.19,17 14.08,23.71c17.76,17.21 45.1,-14.93 42.9,-33.22c-2.42,-20.48 -15.72,-34.84 -33.8,-34.78c-11.21,0 -23.86,3.76 -25.91,21.52c-0.44,3.8 1.4,7.35 2,11.07a85.11,85.11 0 0 1 0.64,10.05z" class="cls-8"/>
  <path id="svg_84" d="m626.13,99.24l-17,9.16l-16.52,-8.83c-18.29,6.14 7.65,26 7.65,26l9.18,-12.18l8.94,11.86s26.04,-19.86 7.75,-26.01z" class="cls-11"/>
  <path id="svg_85" d="m626.13,97.05l-10.29,7.45a11.39,11.39 0 0 1 -13.36,0l-9.84,-7.13c-18.29,6.14 7.65,24.46 7.65,24.46l9.18,-13.43l9,13.15s25.95,-18.35 7.66,-24.5z" class="cls-9"/>
  <path id="svg_86" d="m571.88,45.24c4.09,4.55 18.76,2.62 26.38,-2.52c10.12,-6.83 19.09,0.78 22.27,9.75c5.65,16 -1.41,32.89 5.61,44.57s19.33,-8.07 42.09,24.78c0,0 -16.58,-36.43 -18.84,-60.83c-3.73,-40.7 -36.54,-61.8 -69,-42.17c-15.92,9.66 -13.57,20.78 -8.51,26.42z" class="cls-5"/>
  <path id="svg_87" d="m693.52,276.97l31,10.65a1.78,1.78 0 0 1 1.11,2.27l0,0l-13.21,38.42a6.6,6.6 0 0 1 -8.39,4.1l0,0l-21.9,-7.53a6.6,6.6 0 0 1 -4.1,-8.39l0,0l13.2,-38.35a1.82,1.82 0 0 1 2.32,-1.13l-0.03,-0.04z" class="cls-12"/>
  <path id="svg_88" d="m719.55,292.97l9.15,3.15a6.83,6.83 0 0 1 3.9,8.78l-5.65,16.42a7.09,7.09 0 0 1 -5.33,4.69l-14.39,2.7" class="cls-21"/>
  <path id="svg_89" d="m723.69,287.37l-3.65,-1.26l-4.88,14.1a26.65,26.65 0 0 1 -33.84,16.59l0,0a9.68,9.68 0 0 1 -2.72,-1.46a9.75,9.75 0 0 0 6.44,10.6l16,5.51a9.75,9.75 0 0 0 12.36,-6.09l11.92,-34.66a2.63,2.63 0 0 0 -1.63,-3.33z" class="cls-22"/>
  <path id="svg_90" d="m606.65,522.75l-16.62,40s-1.12,31.46 -5.12,31.34s-66.1,-14 -70.71,-21.45c-7.52,-12.19 47.58,-12.45 47.58,-12.45s64.36,-83.39 44.87,-37.44z" class="cls-11"/>
  <path id="svg_91" d="m586.38,559.97c-5.15,3.39 -13.29,16.58 -23,17.16c-8.14,0.51 -38.11,-8.16 -49.73,-7.36a3.76,3.76 0 0 0 0.61,2.93c4.61,7.47 66.71,21.35 70.71,21.45s5.05,-31.36 5.05,-31.36l0.31,-0.74c-1.1,-2.02 -2.41,-3.08 -3.95,-2.08z" class="cls-23"/>
  <path id="svg_92" d="m593.12,572.35c0.32,-1.35 0.51,-2.16 0.51,-2.16l26.6,-34.91c27.71,-41.52 24.11,-82 24.11,-82s1.05,-28 -12,-37.53s-23.91,6 -32.3,20c-6.35,10.54 -40.13,123.64 -40.13,123.64l33.21,12.96z" class="cls-24"/>
  <path id="svg_93" d="m593.12,572.35c0.32,-1.35 0.51,-2.16 0.51,-2.16l26.6,-34.91c27.71,-41.52 24.11,-82 24.11,-82s1.05,-28 -12,-37.53s-23.91,6 -32.3,20c-6.35,10.54 -40.13,123.64 -40.13,123.64l33.21,12.96z" class="cls-25"/>
  <path id="svg_94" d="m797.75,289.26l0,20.1l-23.83,36.21s24,-2.29 26.33,-2.57s36.26,-30.7 36.26,-30.7l-7.95,-36.66l-30.81,13.62z" class="cls-6"/>
  <path id="svg_95" d="m808.72,266.84l13.46,8.86l8.89,11.61s-7.84,14.66 -33.33,22.07l0,-20.11l10.98,-22.43z" class="cls-14"/>
  <path id="svg_96" d="m831.4,222.48c15.22,8.87 21.45,28.68 10.31,53.7c-9.45,21.19 -34.31,27.18 -47.72,21.16c-10.19,-4.57 -18.34,-15.47 -16.42,-33.29c-3.21,-2 -3.39,-4.1 -3.76,-6c-0.22,-1.15 5.29,-1.8 10.48,-9.56a5.14,5.14 0 0 1 0.16,-1.21c6.16,-24.61 25.14,-37.51 46.95,-24.8z" class="cls-6"/>
  <path id="svg_97" d="m794.31,312.32l-76.17,119.3l102.09,61s36.56,-93.4 33.86,-138.31s-20.57,-58.88 -20.57,-58.88l-39.21,16.89z" class="cls-18"/>
  <path id="svg_98" d="m815.74,457.54l4.49,35s-26,53.88 -86.21,35.92s-73.65,-29.59 -73.65,-29.59l-52.54,-52.56a17,17 0 0 1 -4.19,-17c3.11,-10 6.72,-22.13 20.84,-22.93c17.92,-1.03 191.26,51.16 191.26,51.16z" class="cls-24"/>
  <path id="svg_99" d="m821.23,445.97s-80.37,70 -132.49,41.88c-20.86,-11.27 -25.17,-46.09 -33.54,-47.2c0,0 8.59,18.72 8,34.21a80,80 0 0 0 4,27.92s66.39,34.82 111.81,29.35c48.82,-5.84 42.22,-86.16 42.22,-86.16z" class="cls-24"/>
  <path id="svg_100" d="m817.23,318.51s18,4.8 9.39,36s-37.83,55.87 -72.53,61.65c0,0 -19.19,5.66 -23.23,-17.55c-4.19,-24 -1.35,-63.07 -1.35,-63.07s-13,-9.38 -13,-12.74s0,-10.14 5.27,-11.51c1.85,-0.49 1.08,-6.29 3.84,-7.33c4.31,-1.62 6.24,-4.19 8.64,-3.23s8.64,9.59 8.64,9.59s-3.83,-9.37 0,-9.75s6.08,8.3 6.08,8.3l-0.2,9.23a36.18,36.18 0 0 1 -2,10.95l-0.48,1.39s12.68,35.23 18,42.67c0.01,0.06 36.61,-58.93 52.93,-54.6z" class="cls-6"/>
  <path id="svg_101" d="m700.92,499.31c86.92,0 112.13,-85.25 146.47,-74s63.43,137.22 66.66,143.66s17.22,17.79 0,21.27s-284.23,9.7 -273.41,5s-2.59,-95.93 60.28,-95.93z" class="cls-12"/>
  <path id="svg_102" d="m805.23,495.87c-23.28,15.8 -5.85,14.77 15,20.89s25.35,17.35 16,26.53s1.17,8.16 11.2,9.18s-22.62,27 -98.13,25.75c-55.06,-0.92 -99.45,4 -105.54,11.61a21.94,21.94 0 0 1 -0.69,2.15c0.21,1.43 1.73,2.93 4.67,4.49c42.17,2 251.17,-3.15 266.34,-6.22c17.22,-3.48 3.23,-14.81 0,-21.27c-2.55,-5.11 -21.29,-85.05 -46,-123.77c-7.3,-11.43 -24.42,-9.82 -29.65,2.7c-7.43,17.68 -17.37,37.2 -33.2,47.96z" class="cls-26"/>
  <path id="svg_103" d="m651.41,435.1s19.64,35 12.45,84.42l-5.92,42.9s6.9,30.71 3,31.61s-67.49,3.24 -73.85,-2.82c-10.38,-9.84 42.86,-24.06 42.86,-24.06s-29.83,-115.66 -26.8,-127.52s9.39,-31.48 25.27,-28.45s22.99,23.92 22.99,23.92z" class="cls-11"/>
  <path id="svg_104" d="m653.68,560.64c-4.11,4.59 -8.65,19.38 -17.93,22.43c-7.74,2.6 -38.94,1.8 -50,5.53a3.76,3.76 0 0 0 1.33,2.63c6.36,6.05 69.94,3.71 73.85,2.82s-3,-31.61 -3,-31.61l0.11,-0.8c-1.58,-1.67 -3.13,-2.37 -4.36,-1z" class="cls-23"/>
  <path id="svg_105" d="m805.23,368.74l24.05,0.81s-24.05,60 -92.82,65.42l-17,-5.41l32.38,-50.59l53.39,-10.23z" class="cls-10"/>
  <path id="svg_106" d="m828,230.45l0,0c-3.64,1.89 -9.75,3.33 -7.8,6.92c1.82,3.32 5.93,14.29 12.09,15.48c14,2.69 -8.08,47.26 1.2,42.54s10.34,-8.39 19,-21.58c7.95,-12 6.75,-48.59 -11.12,-50.79c-13.66,-1.69 -13.37,7.43 -13.37,7.43z" class="cls-5"/>
  <path id="svg_107" d="m617.29,479.27l-15.12,-33.3l8.15,102.25s10.1,-12.5 13.65,-18.9s-6.68,-50.05 -6.68,-50.05z" class="cls-10"/>
  <path id="svg_108" d="m824.35,314.39c-18.09,-4.8 -58.7,52.71 -58.7,52.71c-3.79,-5.35 -11.06,-20.35 -15.69,-30.23l-23.75,14c-0.45,15 -0.43,36.62 2.33,52.38c4.49,25.69 25.77,19.41 25.77,19.41c38.48,-6.42 70.86,-33.78 80.45,-68.38s-10.41,-39.89 -10.41,-39.89z" class="cls-18"/>
  <path id="svg_109" d="m658.39,564.62l-0.47,-2.17l9,-42.9c7.19,-49.39 -13.47,-84.42 -13.47,-84.42s-11.07,-25.71 -26.94,-28.73s-24.34,17.57 -24.59,33.22c-0.23,12.22 20.88,127.52 20.88,127.52l35.59,-2.52z" class="cls-24"/>
  <path id="svg_110" d="m837.37,253.06s-5.67,8.9 -7.25,15.73s1,26.5 1,26.5l11.7,-15.18l-5.45,-27.05z" class="cls-5"/>
  <path id="svg_111" d="m828.95,250.97s2.48,-5.92 8.08,-4.14c7.73,2.46 6.66,23 -8.08,19.66" class="cls-6"/>
  <path id="svg_112" d="m769.17,366.7l33.15,-37.3l-38.19,35.57s9.35,10 11.76,15.72l-6.72,-13.99z" class="cls-10"/>
  <path id="svg_113" d="m822.66,237.67s-37.82,5.65 -46.93,-22.84c0,0 9.75,3.59 18.1,3.14c0,0 -7.75,-3.15 -9.55,-8.05c0,0 9.33,3.26 18.53,2.86c0,0 -4.33,-2.93 -5.47,-5c0,0 6.23,4.45 16.75,5s30.44,-0.28 37.49,18.15c6.76,17.72 -28.92,6.74 -28.92,6.74z" class="cls-5"/>
  <path id="svg_114" d="m848.31,226.09c5.85,12.68 1.76,35.24 -5.43,43.35c-6.29,7.09 -9.38,11.17 -13,14c0.43,6.26 1.15,11.86 1.15,11.86l0.29,-0.38c0.3,0.83 1,1.05 2.16,0.44c9.27,-4.72 10.34,-8.39 19,-21.58c6.85,-10.23 6.98,-38.24 -4.17,-47.69z" class="cls-5"/>
  <path id="svg_115" d="m155.94,419.36s77.85,-5.48 106.86,20.82c0,0 8.83,2.86 5.62,45.57l-10.79,74.22l43.68,14.36l1.85,13.38s-72.49,3.2 -74.73,-1s0.35,-26.1 0.35,-26.1s-10,-70 -5.66,-91.4s-60.53,-14.08 -60.53,-14.08l-6.65,-35.77z" class="cls-27"/>
  <path id="svg_116" d="m155.94,419.36s77.85,-5.48 106.86,20.82c0,0 8.83,2.86 5.62,45.57l-10.79,74.22l43.68,14.36l1.85,13.38s-72.49,3.2 -74.73,-1s0.35,-26.1 0.35,-26.1s-10,-70 -5.66,-91.4s-60.53,-14.08 -60.53,-14.08l-6.65,-35.77z" class="cls-18"/>
  <path id="svg_117" d="m257.62,559.97l-28.84,0.63s-2.58,21.91 -0.35,26.1s74.73,1 74.73,1l-1.85,-13.38l-43.69,-14.35z" class="cls-12"/>
  <path id="svg_118" d="m257.62,559.97l-28.84,0.63s-2.58,21.91 -0.35,26.1s74.73,1 74.73,1l-1.85,-13.38l-43.69,-14.35z" class="cls-28"/>
  <path id="svg_119" d="m260.06,569.89a13.78,13.78 0 0 1 0.9,-1.84a14.17,14.17 0 0 1 2.84,-3.53a7.25,7.25 0 0 1 2.11,-1.31a4.23,4.23 0 0 1 1.13,-0.27a3.63,3.63 0 0 1 1,0a3.26,3.26 0 0 1 0.83,0.27a4.88,4.88 0 0 1 0.58,0.32c0.29,0.22 0.44,0.36 0.44,0.36l-0.51,-0.24a4.62,4.62 0 0 0 -0.59,-0.2a4.27,4.27 0 0 0 -0.79,-0.12a4.2,4.2 0 0 0 -1.89,0.41a6.82,6.82 0 0 0 -1,0.56a8.82,8.82 0 0 0 -0.93,0.71a23.4,23.4 0 0 0 -2.93,3.23c-0.71,0.99 -1.19,1.65 -1.19,1.65z" class="cls-29"/>
  <path id="svg_120" d="m267.23,572.84a13.77,13.77 0 0 1 0.9,-1.84a14.17,14.17 0 0 1 2.84,-3.53a7.25,7.25 0 0 1 2.12,-1.3a4.24,4.24 0 0 1 1.13,-0.27a3.63,3.63 0 0 1 1,0a3.27,3.27 0 0 1 0.83,0.27a4.88,4.88 0 0 1 0.58,0.32c0.29,0.22 0.44,0.36 0.44,0.36l-0.51,-0.24a4.62,4.62 0 0 0 -0.59,-0.2a4.28,4.28 0 0 0 -0.79,-0.12a4.2,4.2 0 0 0 -1.89,0.41a6.82,6.82 0 0 0 -1,0.56a8.78,8.78 0 0 0 -0.93,0.71a23.4,23.4 0 0 0 -2.93,3.23c-0.7,0.96 -1.2,1.64 -1.2,1.64z" class="cls-29"/>
  <path id="svg_121" d="m274.87,574.86a13.78,13.78 0 0 1 0.9,-1.84a14.17,14.17 0 0 1 2.84,-3.53a7.24,7.24 0 0 1 2.11,-1.31a4.24,4.24 0 0 1 1.13,-0.27a3.63,3.63 0 0 1 1,0a3.27,3.27 0 0 1 0.83,0.27a4.88,4.88 0 0 1 0.58,0.32c0.29,0.22 0.44,0.36 0.44,0.36l-0.51,-0.24a4.62,4.62 0 0 0 -0.59,-0.2a4.28,4.28 0 0 0 -0.79,-0.12a4.2,4.2 0 0 0 -1.89,0.41a6.82,6.82 0 0 0 -1,0.56a8.78,8.78 0 0 0 -0.93,0.71a23.4,23.4 0 0 0 -2.93,3.23c-0.71,0.99 -1.19,1.65 -1.19,1.65z" class="cls-29"/>
  <path id="svg_122" d="m243.63,574.61c-2.56,-1.69 -3.57,-10 -3.54,-14.23l-11.31,0.25s-2.58,21.91 -0.35,26.1s74.73,1 74.73,1l-0.54,-3.9c-12.32,-15.43 -53.73,-5.76 -58.99,-9.22z" class="cls-28"/>
  <path id="svg_123" d="m149.23,264.39s-4.21,17.87 -0.39,28.89s0.49,23.4 -10,21.32s-24.14,-25.35 -24.14,-25.35l34.53,-24.86z" class="cls-5"/>
  <path id="svg_124" d="m240.33,506.69l-17.1,3.82l1,12s28.69,22.09 35.55,22.47s-19.45,-38.29 -19.45,-38.29z" class="cls-30"/>
  <path id="svg_125" d="m149.23,264.39s-4.21,17.87 -0.39,28.89s0.49,23.4 -10,21.32s-24.14,-25.35 -24.14,-25.35l34.53,-24.86z" class="cls-5"/>
  <polygon id="svg_126" points="135.85 349.85 151.37 328.5 173.64 378.83 214.33 420.9 180.61 447.24 122.3 368.36 135.85 349.85" class="cls-31"/>
  <polygon id="svg_127" points="135.85 349.85 151.37 328.5 173.64 378.83 214.33 420.9 180.61 447.24 122.3 368.36 135.85 349.85" class="cls-32"/>
  <path id="svg_128" d="m141.71,281.06l-2.08,13.91l8.86,32.47s-17.26,-6.79 -18.83,-7.47s-20.12,-30.39 -20.12,-30.39l13,-25.51l19.17,16.99z" class="cls-6"/>
  <path id="svg_129" d="m133.08,263.05l-16.51,0.9s8.11,28.95 23.1,32l2.69,-18.29l-9.28,-14.61z" class="cls-14"/>
  <path id="svg_130" d="m132.23,219.34c-14.08,3.51 -23.58,17.75 -20.48,40.09c2.59,18.93 20.88,29.4 32.86,27.72c9.11,-1.28 18.07,-8 20.65,-22.54c3,-0.85 3.63,-2.46 4.36,-3.9c0.44,-0.86 -3.77,-2.64 -6.08,-10a4.24,4.24 0 0 0 0.16,-1c0.73,-20.83 -11.3,-35.41 -31.47,-30.37z" class="cls-6"/>
  <path id="svg_131" d="m108.6,411.07s69.05,-12.85 122.07,28.16c27.93,21.61 80.08,116.38 80.08,116.38s19.75,10.47 31.47,11.64s12.49,20.07 12.49,20.07s-62.26,1.72 -65.33,-0.88s-1.24,-21.47 -1.24,-21.47s-66.79,-42.17 -74.91,-72.46a2.82,2.82 0 0 0 -2.58,-2.1l-100.55,-4.88c-28.33,-1.37 -44.28,-27.4 -38.78,-55.23c1.15,-5.85 3.18,-10.25 6.51,-12c14.4,-7.45 30.77,-7.23 30.77,-7.23z" class="cls-18"/>
  <path id="svg_132" d="m342.47,567.26c-11.29,-1.13 -30,-10.88 -31.39,-11.6l-22.66,9.31s-3.82,18.83 -0.8,21.45s67.33,0.9 67.33,0.9s-0.72,-18.88 -12.48,-20.06z" class="cls-12"/>
  <path id="svg_133" d="m351.01,587.41l-9.27,-9.55a7.67,7.67 0 0 0 -5.46,-2.32l-25.8,-0.13a11.21,11.21 0 0 1 -10.14,-6.54l-3.4,-7.42l-8.54,3.52s-3.82,18.83 -0.8,21.45c2.63,2.17 49.4,1.32 63.41,0.99z" class="cls-33"/>
  <path id="svg_134" d="m310.62,566.28a13.78,13.78 0 0 1 0.9,-1.84a14.17,14.17 0 0 1 2.84,-3.53a7.24,7.24 0 0 1 2.11,-1.31a4.24,4.24 0 0 1 1.13,-0.27a3.63,3.63 0 0 1 1,0a3.27,3.27 0 0 1 0.83,0.27a4.88,4.88 0 0 1 0.58,0.32c0.29,0.22 0.44,0.36 0.44,0.36l-0.51,-0.24a4.62,4.62 0 0 0 -0.59,-0.2a4.28,4.28 0 0 0 -0.79,-0.12a4.2,4.2 0 0 0 -1.89,0.41a6.82,6.82 0 0 0 -1,0.56a8.78,8.78 0 0 0 -0.93,0.71a23.4,23.4 0 0 0 -2.93,3.23l-1.19,1.65z" class="cls-29"/>
  <path id="svg_135" d="m317.82,569.23a13.78,13.78 0 0 1 0.9,-1.84a14.17,14.17 0 0 1 2.84,-3.53a7.24,7.24 0 0 1 2.11,-1.31a4.23,4.23 0 0 1 1.12,-0.28a3.63,3.63 0 0 1 1,0a3.27,3.27 0 0 1 0.83,0.27a4.88,4.88 0 0 1 0.58,0.32c0.29,0.22 0.44,0.36 0.44,0.36l-0.51,-0.24a4.6,4.6 0 0 0 -0.59,-0.2a4.27,4.27 0 0 0 -0.79,-0.12a4.2,4.2 0 0 0 -1.89,0.41a6.82,6.82 0 0 0 -1,0.56a8.78,8.78 0 0 0 -0.93,0.71a23.4,23.4 0 0 0 -2.93,3.23c-0.71,0.99 -1.18,1.66 -1.18,1.66z" class="cls-29"/>
  <path id="svg_136" d="m325.44,571.26a13.78,13.78 0 0 1 0.9,-1.84a14.17,14.17 0 0 1 2.84,-3.53a7.25,7.25 0 0 1 2.11,-1.31a4.24,4.24 0 0 1 1.13,-0.27a3.63,3.63 0 0 1 1,0a3.27,3.27 0 0 1 0.83,0.27a4.88,4.88 0 0 1 0.58,0.32c0.29,0.22 0.44,0.36 0.44,0.36l-0.51,-0.24a4.62,4.62 0 0 0 -0.59,-0.2a4.28,4.28 0 0 0 -0.79,-0.12a4.2,4.2 0 0 0 -1.89,0.41a6.82,6.82 0 0 0 -1,0.56a8.78,8.78 0 0 0 -0.93,0.71a23.4,23.4 0 0 0 -2.93,3.23c-0.73,0.97 -1.19,1.65 -1.19,1.65z" class="cls-29"/>
  <path id="svg_137" d="m112.6,283.35s-28.37,11.7 -35.37,31.35c-8.63,24.21 0.4,72 -9,119.4c-3.29,16.49 69.55,16.51 95.17,-10.18c12.61,-13.12 -3.73,-52.65 -5.69,-74s-18,-54 -18,-54s6,17.65 -0.71,18.68s-26.4,-31.25 -26.4,-31.25z" class="cls-31"/>
  <path id="svg_138" d="m63.68,489.58s0.8,-21.68 34.31,-9.83c16.65,5.85 66,8.39 105.82,10.33c22.66,1.1 26.33,92.87 13.3,98.37s-146.94,7 -154.05,2.17s-9.61,-76.31 0.62,-101.04z" class="cls-11"/>
  <path id="svg_139" d="m222.8,576.75c-2.59,-0.09 -6.61,0.56 -10.56,0.76c-10.53,0.57 -11.43,2.28 -20.1,-3.9s-78.3,-0.47 -92.26,-4.68s35.37,-4.64 54.26,-15.38s-25.95,-7.61 -48,-7.92s-5.72,-13.47 10.66,-22.43s-14.31,-9.32 -30.11,-12.06s-5.9,-14 -11.77,-30.81a17,17 0 0 0 -1.43,-3.12a14.17,14.17 0 0 0 -9.75,12.3c-10.23,24.73 -7.75,96.26 -0.63,101s141.07,3.32 154.05,-2.17c0.87,-0.79 1.65,-1.52 2.38,-2.21c1.33,-1.97 2.44,-5.26 3.26,-9.38z" class="cls-34"/>
  <path id="svg_140" d="m221.84,479.6c-8.85,-1.57 -17.38,10.45 -17.38,10.45a14.24,14.24 0 0 0 4.69,0.3c3.52,-0.14 4.14,2.17 4.14,2.17l0.22,-0.57a21.05,21.05 0 0 1 5,-7.17c1.41,-1.35 5.56,-4.81 3.33,-5.18z" class="cls-30"/>
  <path id="svg_141" d="m184.07,417.34l8.55,-10.26l27.16,15.6s16.87,17.46 13.11,17.17s-13.84,-8.64 -17.24,-9s-10.58,0.76 -18.43,-1.56s-13.15,-11.95 -13.15,-11.95z" class="cls-6"/>
  <path id="svg_142" d="m86.07,405.66l-17.62,3.41s1.22,16.81 17.3,20.84c17.17,4.31 88.41,-11 88.41,-11l-88.09,-13.25z" class="cls-35"/>
  <path id="svg_143" d="m140.96,210.97s25.07,7.66 16.74,22.11c-8.89,15.42 -23.2,5.68 -31,15.42s14.1,50.45 -8.28,62.4c-11.83,6.32 -24.12,-19.43 -38.27,-3.9c0,0 -10.53,10.87 -12.4,45.56c0,0 -9.89,-54.07 5.28,-87.69s33.65,-59.46 67.93,-53.9z" class="cls-5"/>
  <path id="svg_144" d="m104.23,325.07l1.3,55.71l88.86,27l-8.67,12.78s-90.91,5.28 -109.86,-0.11c-10,-2.84 -10.93,-22.26 -10.09,-34.13s-0.44,-65.35 15.38,-80.14c8.9,-8.33 15,-3.05 18.7,3.15a32.4,32.4 0 0 1 4.38,15.74z" class="cls-31"/>
  <path id="svg_145" d="m132.36,247.72s-2.38,-6.58 -9,-2s-1.57,18.15 8.83,13.27" class="cls-6"/>
  <polygon id="svg_146" points="108.83 341.32 105.49 380.77 141.46 391.73 110.54 377.39 108.83 341.32" class="cls-35"/>
  <path id="svg_147" d="m118.38,310.97c14.09,-7.53 10.61,-26.45 8.05,-41.88c-0.92,25 -14,38.48 -16.92,20.48c-3.24,-20.13 -19.63,-8.15 -29.07,-10.79s18.29,-53.95 18.79,-54.93c-10.54,10 -18.81,24.63 -26.26,41.15c-13.65,30.28 -7,77.15 -5.55,86.16l0.37,-0.28c2.13,-33.24 12.29,-43.75 12.29,-43.75c14.15,-15.59 26.48,10.16 38.3,3.84z" class="cls-36"/>
  <path id="svg_148" d="m679.59,161.49c16.21,-16.21 75.52,-16.21 91.74,0c10.93,10.93 12,52.1 0,61.82a30.3,30.3 0 0 1 -5.68,3.53l0,0.77l7.37,15.36l-21.66,-11.48l0,0c-24.1,5.22 -58.5,2.48 -71.75,-8.24c-12.04,-9.66 -10.94,-50.83 -0.02,-61.76z" class="cls-9"/>
  <path id="svg_149" d="m426.36,35.16c16.21,-16.19 111.26,-16.19 127.48,0c10.93,10.93 12,52.1 0,61.82a30.29,30.29 0 0 1 -5.68,3.53l0,0.77l7.37,15.41l-21.63,-11.46l0,0c-24.11,5.21 -94.24,2.48 -107.54,-8.24c-11.97,-9.72 -10.88,-50.91 0,-61.83z" class="cls-9"/>
  <path id="svg_150" d="m614.23,53.05s1.37,-8.48 6.83,-6.83s6.57,17.81 -2.2,17.81" class="cls-8"/>
  <polygon id="svg_151" points="643.03 404.74 651.76 391.53 654.74 398.13 643.03 404.74" class="cls-10"/>
  <text id="svg_152" transform="translate(320.739990234375,212.5500030517578) scale(1.059999942779541,1) " class="cls-37">হ্যাল</text>
  <text x="-7.35294" y="-5" font-family="'Times New Roman', Times, serif" id="svg_153" transform="translate(450,82) scale(1.3600000143051147,1) " class="cls-38">Hello</text>
  <text stroke="null" transform="matrix(1.1103448867797852,0,0,1.471218228340149,-28.203463405370712,-136.34404925629497) " id="svg_154" x="192.16" y="308.01999" class="cls-39">ಸ್ವಾಗತ</text>
  <text stroke="null" transform="matrix(0.7963944673538208,0,0,1.037026286125183,137.56735066697001,-6.0225568525493145) " font-size="1" id="svg_155" x="677" y="206" class="cls-40">सलाम</text>
 </g>
</svg>