<?xml version="1.0" encoding="UTF-8" standalone="no"?>
<!DOCTYPE svg PUBLIC "-//W3C//DTD SVG 1.1//EN" "http://www.w3.org/Graphics/SVG/1.1/DTD/svg11.dtd">
<svg version="1.1" xmlns="http://www.w3.org/2000/svg" xmlns:xlink="http://www.w3.org/1999/xlink" preserveAspectRatio="xMidYMid meet" viewBox="0 0 640 640" width="640" height="640"><defs><path d="M119.95 7.1C89.19 14.04 55.45 34.87 36.65 58.43C23.84 74 10.81 100.31 6.54 118.82C4.62 126.82 2.05 135.23 1.2 137.13C-1.36 141.97 -1.36 489.13 1.2 493.97C2.05 495.87 4.62 504.07 6.54 512.28C10.81 530.8 23.84 557.1 36.65 572.67C55.45 596.23 89.19 617.06 119.95 624C128.28 625.9 136.61 628.42 138.53 629.26C143.44 631.79 495.84 631.79 500.75 629.26C502.67 628.42 511.21 625.9 519.33 624C550.09 617.06 583.83 596.23 602.62 572.67C615.44 557.1 628.47 530.8 632.74 512.28C634.66 504.07 637.22 495.87 638.08 493.97C640.64 489.13 640.64 141.97 638.08 137.13C637.22 135.23 634.66 126.82 632.74 118.82C625.69 88.52 604.55 55.28 580.63 36.76C564.82 24.14 538.13 11.3 519.33 7.1C511.21 5.2 502.67 2.68 500.75 1.84C496.05 -0.48 142.37 -0.48 138.1 1.84C136.39 2.89 128.28 5.2 119.95 7.1ZM255.35 207.61C255.14 235.81 271.58 260 296.79 268.63C310.46 273.26 336.08 273.26 349.11 268.42C371.32 260.42 385.85 241.28 385.85 219.82C385.85 205.93 382.43 198.78 372.18 189.73C364.28 182.99 346.98 176.68 336.3 176.68C333.09 176.68 330.32 175.84 330.32 175C330.32 171.63 344.41 152.49 352.74 144.28C366.63 131.02 381.36 125.34 404.64 124.5C447.78 122.82 481.53 140.28 501.82 174.79C513.35 194.57 513.99 200.67 513.99 314.08C513.99 382.46 513.14 422.23 511.64 429.59C503.95 465.36 471.92 496.92 435.4 504.7C428.78 505.97 403.15 507.02 373.46 507.02C370.09 507.01 353.21 506.94 322.84 506.81C331.17 502.9 335.8 500.72 336.72 500.29C353.81 492.08 370.47 475.88 378.8 459.26C384.14 448.11 384.78 444.95 384.78 424.96C384.78 404.34 384.35 402.03 378.37 391.51C365.56 368.78 346.34 358.68 316.22 358.89C301.7 358.89 296.79 359.95 286.75 364.79C272.01 371.94 260.69 384.56 256.42 399.08C248.52 426.01 267.1 450 298.92 453.58C305.54 454.42 311.1 455.47 311.1 455.89C311.1 456.52 307.68 461.99 303.62 468.09C293.8 482.61 279.06 495.66 266.67 501.34C254.07 506.81 224.6 508.49 205.8 504.92C168 497.76 135.54 466.41 127.64 429.59C126.14 422.23 125.29 383.51 125.29 314.08C125.29 226.13 125.71 207.82 128.7 196.88C137.03 165.11 164.58 137.13 196.62 128.08C207.51 124.92 218.83 124.29 264.11 124.29C267.74 124.29 285.89 124.29 318.57 124.29L305.76 130.39C272.3 158.73 255.5 184.47 255.35 207.61Z" id="a3AtMFR9Ms"></path></defs><g><g><g><use xlink:href="#a3AtMFR9Ms" opacity="1" fill="#ff0000" fill-opacity="1"></use><g><use xlink:href="#a3AtMFR9Ms" opacity="1" fill-opacity="0" stroke="#000000" stroke-width="1" stroke-opacity="0"></use></g></g></g></g></svg>