<svg xmlns="http://www.w3.org/2000/svg" viewBox="0 0 3703.59 3652.47"><defs><style>.cls-1{fill:#438aa7;}.cls-2{fill:#212121;}.cls-3{fill:#314656;}.cls-4{fill:#fff;}.cls-5{fill:#f6f4f4;}.cls-6{fill:#e54b4a;}.cls-7{fill:#5b6375;}.cls-8{fill:#dee3e0;}.cls-9{fill:#a0a1a2;}.cls-10{fill:#0d6b77;}.cls-11{fill:#e64a4b;}.cls-12{fill:#4287a4;}.cls-13{fill:#2f687c;}.cls-14{fill:#dfb177;}.cls-15{fill:#2f2f2f;}.cls-16{fill:#141313;}.cls-17{fill:#ffeddc;}.cls-18{fill:#e9f4f2;}</style></defs><title>video</title><g id="Layer_7" data-name="Layer 7"><path class="cls-1" d="M1078.49,2781.19H1051a144,144,0,0,0-18-42.84l.09-.13,19.43-19.45a11.07,11.07,0,0,0,0-15.65l-33.8-33.8a11.06,11.06,0,0,0-15.65,0L984,2688.75a148.25,148.25,0,0,0-42.69-17.55v-27.61c0-6.11-5.45-11.2-11.56-11.2h-47.8c-6.11,0-10.45,5.09-10.45,11.2v27.48a145.44,145.44,0,0,0-43.08,18l-.24-.09-19.51-19.43a11.11,11.11,0,0,0-15.68,0l-33.82,33.8a11.06,11.06,0,0,0,0,15.64l19.43,19.37A149.31,149.31,0,0,0,761,2781.19H733.39a10.88,10.88,0,0,0-10.72,11.18v47.8A10.59,10.59,0,0,0,733.39,2851h27.48a144.26,144.26,0,0,0,18,42.89l-.09.15-19.43,19.46a11.08,11.08,0,0,0,0,15.66l33.8,33.8a11.06,11.06,0,0,0,15.64,0l19.61-19.43a150.69,150.69,0,0,0,43.12,17.55v27.61a10.8,10.8,0,0,0,10.7,11.11H930a11.32,11.32,0,0,0,11.31-11.11v-27.48a142.87,142.87,0,0,0,42.65-18l0,.09,19.4,19.43a11,11,0,0,0,15.63,0l33.79-33.8a11.06,11.06,0,0,0,0-15.64l-19.43-19.42a149.55,149.55,0,0,0,17.55-42.92h27.61c6.11,0,11.58-5,11.58-11.09v-47.8C1090.08,2786,1084.6,2781.19,1078.49,2781.19ZM906.37,2920.36a103.91,103.91,0,1,1,103.91-103.91A103.91,103.91,0,0,1,906.37,2920.36Z" transform="translate(-708.9 -1078.86)"/><path class="cls-1" d="M1098.63,3045.8h-9.57a50.11,50.11,0,0,0-6.25-14.91l0,0,6.76-6.77a3.85,3.85,0,0,0,0-5.45l-11.76-11.76a3.85,3.85,0,0,0-5.45,0l-6.68,6.76a51.6,51.6,0,0,0-14.86-6.11v-9.61a4,4,0,0,0-4-3.9h-16.64a3.71,3.71,0,0,0-3.64,3.9v9.57a50.62,50.62,0,0,0-15,6.25l-.08,0-6.79-6.76a3.87,3.87,0,0,0-5.46,0l-11.77,11.76a3.85,3.85,0,0,0,0,5.44l6.76,6.74a52,52,0,0,0-6.11,14.93h-9.61a3.79,3.79,0,0,0-3.73,3.89v16.64a3.69,3.69,0,0,0,3.73,3.77h9.57a50.22,50.22,0,0,0,6.25,14.93l0,.05-6.76,6.77a3.86,3.86,0,0,0,0,5.45l11.76,11.77a3.85,3.85,0,0,0,5.45,0l6.83-6.76a52.45,52.45,0,0,0,15,6.11V3118a3.76,3.76,0,0,0,3.73,3.87h16.64a3.94,3.94,0,0,0,3.94-3.87v-9.57a49.73,49.73,0,0,0,14.85-6.25v0l6.75,6.76a3.84,3.84,0,0,0,5.44,0l11.76-11.76a3.85,3.85,0,0,0,0-5.44l-6.76-6.76a52.05,52.05,0,0,0,6.11-14.94h9.61a4,4,0,0,0,4-3.86V3049.6A4,4,0,0,0,1098.63,3045.8Zm-59.91,48.44a36.17,36.17,0,1,1,36.17-36.17A36.17,36.17,0,0,1,1038.72,3094.24Z" transform="translate(-708.9 -1078.86)"/></g><g id="Layer_1" data-name="Layer 1"><rect class="cls-2" x="588.88" y="496.44" width="2413.41" height="1805.31"/><rect class="cls-3" x="693.39" y="752.98" width="2175.87" height="1320.72"/><circle class="cls-4" cx="1795.58" cy="1399.09" r="552.28"/><rect class="cls-5" x="2452.47" y="547.12" width="170.26" height="150.42"/><rect class="cls-2" x="2463.07" y="575.57" width="149.05" height="105.49"/><rect class="cls-5" x="3475.78" y="1629.93" width="25.83" height="151.18" transform="translate(-893.07 1887.55) rotate(-45)"/><rect class="cls-5" x="3475.78" y="1629.93" width="25.83" height="151.18" transform="translate(4040.7 4299.52) rotate(-135)"/><rect class="cls-5" x="689.68" y="2136.65" width="42.31" height="117.14"/><rect class="cls-5" x="752.04" y="2136.65" width="42.31" height="117.14"/><rect class="cls-5" x="817.51" y="2174.51" width="2032.75" height="40.53"/><rect class="cls-5" x="2525.84" y="2142.08" width="52.26" height="119.96"/><polygon class="cls-6" points="2145.16 1413.34 1628.49 1711.64 1628.49 1115.04 2145.16 1413.34"/></g><g id="Layer_4" data-name="Layer 4"><path class="cls-7" d="M1307,1254.89h0a2.57,2.57,0,0,1,2.57,2.56l0,15.18a2.57,2.57,0,0,1-2.56,2.57h0a2.57,2.57,0,0,1-2.57-2.56l0-15.18A2.57,2.57,0,0,1,1307,1254.89Z" transform="translate(-708.9 -1078.86)"/><ellipse class="cls-6" cx="659.64" cy="560.65" rx="396.33" ry="396.33"/><circle class="cls-4" cx="659.64" cy="560.65" r="278.47"/><circle class="cls-6" cx="659.64" cy="560.65" r="196.57"/><circle class="cls-4" cx="659.64" cy="560.65" r="93.76"/><path class="cls-8" d="M717.8,1566.62l29.64,54.19a27.57,27.57,0,0,0-2.67,32.08L711,1706.5c-4.64,7.34-1.31,13.62,7.34,14l145.91,5.76c8.67.34,20.11-5,25.44-11.84L931,1661.1l409.9-13.42c15.29,0,27.7,5,27.67-10.27s-12.43-10.17-27.72-10.14l-405-11.5-31.69-49.63c-4.66-7.31-15.57-13.3-24.24-13.3L726,1552.78C717.34,1552.78,713.64,1559,717.8,1566.62Z" transform="translate(-708.9 -1078.86)"/><path class="cls-9" d="M740.85,1638.78a27.54,27.54,0,0,0,3.93,14.1L711,1706.5c-4.64,7.34-1.31,13.62,7.34,14l145.91,5.76c8.67.34,20.11-5,25.44-11.84L931,1661.1l409.9-13.42c14.93,0,27.12,4.79,27.65-9.25l-627.59-1.52C740.89,1637.54,740.84,1638.15,740.85,1638.78Z" transform="translate(-708.9 -1078.86)"/></g><g id="Layer_5" data-name="Layer 5"><path class="cls-10" d="M4101.29,2235.92h163.43c81.49,0,147.77,66.44,147.77,147.93v9.92c0,81.49-66.27,147.66-147.77,147.66h-52.89l33.17,87.75-126.39-87.75h-17.32a147.73,147.73,0,0,1-147.66-147.66v-9.92C3953.64,2302.36,4019.8,2235.92,4101.29,2235.92Z" transform="translate(-708.9 -1078.86)"/><path class="cls-11" d="M3908.15,2372.93a169.25,169.25,0,0,1,13.53-66.57,171.46,171.46,0,0,1,152.57-104.47V2193c0-126.51-103.4-229.6-229.92-229.6H3590.62c-126.51,0-229.92,103.09-229.92,229.6v15.4c0,126.51,103.4,230.09,229.92,230.09h82.11l-51.5,136.23,196.21-136.23h26.88a227.89,227.89,0,0,0,69.75-10.89,170.15,170.15,0,0,1-5.93-44.71Z" transform="translate(-708.9 -1078.86)"/><circle class="cls-4" cx="2829.65" cy="1112.7" r="45.65"/><circle class="cls-4" cx="2990.37" cy="1112.7" r="45.65"/><circle class="cls-4" cx="3151.09" cy="1112.7" r="45.65"/></g><g id="Layer_6" data-name="Layer 6"><path class="cls-10" d="M2934.63,1282c0-112.21-91-203.19-203.18-203.19s-203.19,91-203.19,203.19a203.17,203.17,0,0,0,112.19,181.7v46.42c0,11,8.61,19.94,19.24,19.94h150c10.63,0,19.25-8.92,19.25-19.94v-49.84A203.13,203.13,0,0,0,2934.63,1282Z" transform="translate(-708.9 -1078.86)"/><rect class="cls-4" x="1931.55" y="402.47" width="188.12" height="184.07"/><path class="cls-12" d="M2630.92,1659.08c7.42,38,50.74,67.17,103.09,67.17s95.68-29.17,103.09-67.17Z" transform="translate(-708.9 -1078.86)"/><path class="cls-13" d="M2862.18,1498.19c0,9.31-10.42,16.85-23.27,16.85h-208c-12.85,0-23.27-7.54-23.27-16.85h0c0-9.31,10.42-16.86,23.27-16.86h208c12.85,0,23.27,7.55,23.27,16.86Z" transform="translate(-708.9 -1078.86)"/><path class="cls-13" d="M2861.28,1554.7c0,9.31-10.42,16.85-23.27,16.85H2630c-12.85,0-23.27-7.54-23.27-16.85h0c0-9.31,10.42-16.86,23.27-16.86h208c12.85,0,23.27,7.55,23.27,16.86Z" transform="translate(-708.9 -1078.86)"/><path class="cls-12" d="M2863.45,1614.46c0,9.31-10.42,16.85-23.27,16.85h-208c-12.85,0-23.27-7.54-23.27-16.85h0c0-9.31,10.42-16.86,23.27-16.86h208c12.85,0,23.27,7.55,23.27,16.86Z" transform="translate(-708.9 -1078.86)"/></g><g id="Layer_8" data-name="Layer 8"><path class="cls-14" d="M1355.25,2737.47a40.48,40.48,0,0,0,10.61,4.89c4.2,1.14,5.26,7.8,1.83,11-5.78,5.39-9,12.23-10.4,19.84-2.58,13.93,2.79,25.08,13,34.2a52.34,52.34,0,0,0,14.15,8.89,8,8,0,0,1,2.07,13.39c-10.19,8.72-13.14,21-7.8,34.06,4.34,10.61,11.28,19.14,21.49,24.71a25.38,25.38,0,0,0,4.29,1.79c3.62,1.18,5.06,2.83,5.36,6.61a7.9,7.9,0,0,1-2.85,7c-5.55,4.82-9.54,10.67-10.51,18.14a29,29,0,0,0,2.86,16.33c3.69,7.84,9.28,14.16,15.8,19.72,3,2.59,11,6.61,17.18,9.28,3.4,1.48,13.75,3.65,16.81,4.27,150.89,30.65,256.87-9.05,270.35-13.94,2.84-1,12.23-7.12,14.78-7.13.44,0,3.6-.77,3.6-1.18V2723.43q-8.44-5.93-16.89-11.88a9,9,0,0,1-1.49-1.32,6.15,6.15,0,0,1-.49-.58c-30-37.68-49.22-77.72-71.55-120.34-14.93-28.48-18.68-89.29-18.55-112.2.05-9.17-6.87-24.18-24.82-24.18-4.54.08-14,.35-19.69,2.44-6.78,2.49-12.54,11.32-18.32,22.65-7.88,15.44-12.86,32.17-17.54,48.92a154.94,154.94,0,0,0-4.18,19.12,66.52,66.52,0,0,0-.37,14.25c.37,5.45.69,10.88,1.21,16.31,1.06,10.68,2.57,21.3,4.38,31.86,2,11.46,4.14,22.88,6.47,34.25l.08.39a12.72,12.72,0,0,0,.42,2.81c3.71,14.63-11.19,23.21-20,26.92-2.34,1-12,2.15-14.62,2.15-48.24,0-129.15-.27-138.91-.24-6.52,0-13.07-.14-19.57.19a27.87,27.87,0,0,0-26,21.76C1333.79,2712,1341.07,2728.67,1355.25,2737.47Z" transform="translate(-708.9 -1078.86)"/><rect class="cls-15" x="1029.01" y="1611.15" width="154" height="303.99" rx="23.04" ry="23.04"/><path class="cls-16" d="M1029,1761.14h154a0,0,0,0,1,0,0v137.6a16.4,16.4,0,0,1-16.4,16.4h-121.2a16.4,16.4,0,0,1-16.4-16.4v-137.6A0,0,0,0,1,1029,1761.14Z"/></g><g id="Layer_2" data-name="Layer 2"><path class="cls-14" d="M2551.18,3792.15v-44.22s-66.66-6.38-110.28-87.26L2239,3223.22s-11.91-24.36-11.11-38.78c0,0-1.65-47.77,40.77-68.81,0,0,42.19-14.19,70,18.21,0,0,21.1,15.72,40.31,60.42l45.31,86.9,21.41,36.18.2-356.82,1.2-338.38s11.4-57.22,47-69.52c0,0,41-15.13,64.25,10.4,0,0,30.84,20.34,31.84,62.9v214.71l-3.12,407.19s2.34-149,11.34-172.38c0,0,24-60.3,72.6-54.62,0,0,50-2.36,70.42,48.24,0,0,19.2,23.69,9.6,101l.8,79.2s-1.6-131.95,5.2-142.82,16-46.82,68.43-48.71c0,0,46,1.89,63.23,47.77,0,0,6.8,2.36,6.8,44.46l2,87s-2.8-87.49,2.8-94.59c0,0,18-44.93,50-44.93,0,0,36.82-11.82,57.63,22.23,0,0,20.41,13.24,18.41,67.16l-9.4,253.66s-14.52,214.22-101.06,305.46l-.6,46.23Z" transform="translate(-708.9 -1078.86)"/><path class="cls-17" d="M2283.1,3145.51s-30.16-13.81-40.33,15.53c0,0-10.52,14.84,2.1,38l40,83.52s13.33,6.9,30.16-2.76c0,0,21.75-14.5,21-36.58,0,0,3.86-13.81-13-42.8C2323.08,3200.39,2295.37,3151.73,2283.1,3145.51Z" transform="translate(-708.9 -1078.86)"/><ellipse class="cls-17" cx="1808.8" cy="1548.01" rx="55.15" ry="58.36"/><polygon class="cls-15" points="1816.01 3134.2 2227.46 3134.2 2228.48 2889.53 2037.19 2889.41 1817.17 2889.29 1816.42 2889.29 1816.01 3134.2"/><polygon class="cls-16" points="1816.17 3134.2 2036.17 3134.2 2037.19 2889.54 1817.17 2889.49 1816.17 3134.2"/><rect class="cls-18" x="2500.59" y="3774.09" width="461.7" height="204.73" rx="43.9" ry="43.9" transform="translate(-704.8 -1081.75) rotate(0.06)"/></g><g id="Layer_10" data-name="Layer 10"><path class="cls-2" d="M2285,4706.61c-.41-7.67-.9-16.89-.82-23.75H2284c-1.88,6.45-4.16,13.3-6.94,20.89l-9.71,26.68h-5.39l-8.89-26.2c-2.61-7.75-4.81-14.85-6.36-21.38h-.16c-.16,6.85-.57,16.08-1.06,24.32l-1.47,23.58h-6.77l3.84-55h9.06l9.38,26.6c2.29,6.77,4.16,12.81,5.55,18.52h.24c1.39-5.55,3.35-11.59,5.79-18.52l9.79-26.6h9.06l3.43,55h-6.94Z" transform="translate(-708.9 -1078.86)"/><path class="cls-2" d="M2332.76,4705h-21.38v19.83h23.83v6h-30.93v-55H2334v6h-22.6v17.38h21.38Z" transform="translate(-708.9 -1078.86)"/><path class="cls-2" d="M2344.43,4676.49a101.61,101.61,0,0,1,15.1-1.14c10.2,0,17.46,2.37,22.28,6.85s7.75,10.85,7.75,19.75-2.77,16.32-7.92,21.38-13.63,7.91-24.32,7.91a114.56,114.56,0,0,1-12.89-.65Zm7.1,48.64a44.86,44.86,0,0,0,7.18.41c15.18,0,23.42-8.49,23.42-23.34.08-13-7.26-21.22-22.28-21.22a40.33,40.33,0,0,0-8.32.73Z" transform="translate(-708.9 -1078.86)"/><path class="cls-2" d="M2405.88,4675.76v55h-7.1v-55Z" transform="translate(-708.9 -1078.86)"/><path class="cls-2" d="M2427.18,4713.46l-5.71,17.3h-7.34l18.69-55h8.57l18.77,55h-7.59l-5.88-17.3Zm18-5.55-5.39-15.83c-1.22-3.59-2-6.85-2.86-10h-.16c-.82,3.26-1.71,6.61-2.77,10l-5.39,15.91Z" transform="translate(-708.9 -1078.86)"/><path class="cls-2" d="M2531.88,4706.61c-.41-7.67-.9-16.89-.82-23.75h-.25c-1.88,6.45-4.16,13.3-6.94,20.89l-9.71,26.68h-5.39l-8.89-26.2c-2.61-7.75-4.81-14.85-6.37-21.38h-.16c-.16,6.85-.57,16.08-1.06,24.32l-1.47,23.58h-6.77l3.84-55H2497l9.38,26.6c2.29,6.77,4.16,12.81,5.55,18.52h.25c1.39-5.55,3.35-11.59,5.79-18.52l9.79-26.6h9.06l3.43,55h-6.94Z" transform="translate(-708.9 -1078.86)"/><path class="cls-2" d="M2559.22,4713.46l-5.71,17.3h-7.34l18.69-55h8.57l18.77,55h-7.59l-5.88-17.3Zm18-5.55-5.39-15.83c-1.22-3.59-2-6.85-2.86-10h-.16c-.82,3.26-1.71,6.61-2.77,10l-5.39,15.91Z" transform="translate(-708.9 -1078.86)"/><path class="cls-2" d="M2600.27,4676.49a74,74,0,0,1,13.63-1.14c7.59,0,12.49,1.39,15.91,4.49a13.7,13.7,0,0,1,4.33,10.45c0,7.26-4.57,12.08-10.36,14v.24c4.24,1.47,6.77,5.39,8.08,11.1,1.8,7.67,3.1,13,4.24,15.1h-7.34c-.9-1.55-2.12-6.28-3.67-13.14-1.63-7.59-4.57-10.45-11-10.69h-6.69v23.83h-7.1Zm7.1,25.05h7.26c7.59,0,12.4-4.16,12.4-10.45,0-7.1-5.14-10.2-12.65-10.28a29.22,29.22,0,0,0-7,.65Z" transform="translate(-708.9 -1078.86)"/><path class="cls-2" d="M2644.17,4675.76h7.1v26.52h.24c1.47-2.12,2.94-4.08,4.33-5.88l16.81-20.65h8.81l-19.91,23.34,21.46,31.66h-8.41l-18.12-27-5.22,6v21h-7.1Z" transform="translate(-708.9 -1078.86)"/><path class="cls-2" d="M2716.88,4705H2695.5v19.83h23.83v6h-30.93v-55h29.7v6h-22.6v17.38h21.38Z" transform="translate(-708.9 -1078.86)"/><path class="cls-2" d="M2740.31,4681.8h-16.73v-6h40.72v6h-16.81v49h-7.18Z" transform="translate(-708.9 -1078.86)"/><path class="cls-2" d="M2777.52,4675.76v55h-7.1v-55Z" transform="translate(-708.9 -1078.86)"/><path class="cls-2" d="M2789.92,4730.76v-55h7.75l17.63,27.83a155.67,155.67,0,0,1,9.87,17.87l.16-.08c-.65-7.34-.82-14-.82-22.6v-23h6.69v55H2824l-17.46-27.91a174.55,174.55,0,0,1-10.28-18.36l-.25.08c.41,6.94.57,13.55.57,22.69v23.5Z" transform="translate(-708.9 -1078.86)"/><path class="cls-2" d="M2885.48,4728.31a51.23,51.23,0,0,1-16.89,3c-8.32,0-15.18-2.12-20.56-7.26-4.73-4.57-7.67-11.91-7.67-20.48.08-16.4,11.34-28.4,29.79-28.4a34,34,0,0,1,13.71,2.53l-1.71,5.79a28.51,28.51,0,0,0-12.16-2.37c-13.38,0-22.11,8.32-22.11,22.11,0,14,8.41,22.2,21.22,22.2,4.65,0,7.83-.65,9.47-1.47v-16.4h-11.18v-5.71h18.12Z" transform="translate(-708.9 -1078.86)"/></g></svg>